<svg xmlns="http://www.w3.org/2000/svg" xmlns:xlink="http://www.w3.org/1999/xlink" viewBox="0 0 3105.3 3144.52"><defs><style>.cls-1{fill:none;}.cls-2{clip-path:url(#clip-path);}.cls-3{fill:#009e92;}.cls-4{clip-path:url(#clip-path-2);}.cls-5{opacity:0.3;}.cls-6{fill:#7ee7ed;}.cls-6,.cls-7{fill-rule:evenodd;}.cls-7{fill:#0fdbc7;}</style><clipPath id="clip-path" transform="translate(966.56 309.33)"><rect class="cls-1" width="1534.98" height="967.6"/></clipPath><clipPath id="clip-path-2" transform="translate(966.56 309.33)"><path class="cls-1" d="M1478.15,1870.66c-10.63,0-36.32-1.83-16.12,0-20.54-1.83,1.35,0,12.9,0-11.56,0-36.07-2.51-15,0-21.79-2.51-14-.92,5.63,0-19.59-.92-30.5-3.79-9.22,0-22-3.79-24.66-6-6,0-18.64-6-18.2-5.59,1.18,0-19.88-5.59-21.43-10.59-21.89,0,.41-10.59.45-11.44,5.33-1.36-5-10.09-5.08-9.48-16.39-1.35,11-8.13,7.16-1.12-14.77,2.71,21.11-4,1.62-3.29-14-3.89,3.65.46.63.9-3.86,1.49-4.87.6-21.33,1.64-12.76,2.4-13.15-1.52-30.1-1.41-16.06-3.57-17.32,2.09-27.53-2.64-18.9,3.57-9.2-6.15-13.74-12.5-10.76-2.64-3.49-9.88-5.64-11-14.37.84,3.71-5.86,3.78-7.41,1.31-6.4a59.39,59.39,0,0,0-15.17,8.2c5-4.79,5.78-6.58,5.07-5.54a11.35,11.35,0,0,0-5.91-.51c-2.28.41-6.36,2.16-6.16,4.31,1-5.34,2-6,2.9-2.23-3.73-2.63-17.68,2.61-8.65,4-9.4.23-10.13-3-2.49-7.15-10.31,3-20.27,8.66-4.12,4.67-16.89,4-19.41,1.08-4-5.52-16.49,7-22,13.29-2.42,8-20,5.29-20.64-2-5-8.66-16.36,6.33-18.87,11.94-2.46,6.89-16.63,5.07-17-3.24-6.87-7-10.54,3.89-11.54,11.06-2.68,8.79-8.89,2.27-8.67-4.62-5.27-7.12-3.62,2.52-4,8.14-5.56,6.69,1.47,1.34,1.46,1.59.69.43.72,1.28.53-.93-8.08-4.65,3.68,1.91,6.22,3.77,5.81,4.83s-4.79,1.23-9-.18c4.12,1.34,7.72,2.53,6.08,2.75s-13.09-.81-16.4-2.75c3,1.94,10.62,3.11,10.33,3.11-2.83-.19-16.26-1.71-17.08-3.11.88,1.41,8,1.87,10,1.7-5.33-.53-17.18-1.52-16-2-1.64.45,1.25.07,5.81-.37-7.91-.14-14.89-.09-12.45.65-3.24-.79-3.22-1.55,1.11-2.88-6.77,1-9.63,1.53-8.78,2.62-1.8-1.07-2.36-1.78-1.84-3.74a31,31,0,0,1-7.26,4c3.8-2.94,4.34-2.71,4.14,0-.45-1.33-1.16-2.12-3.82-4.14,1,2-.12,2.58-5.34,4.18,3.85-3.17,2.05-3.31-5.36,0,5-3.31,1.22-3.17-7.37,0,2.9-1.59,3-2.5,1.5-2.56a18.23,18.23,0,0,0-8.2,2.56c4-3.73-3.36-6.06-6.1,0,3.57-6.06,5.26-5.29,1.5,0,2.36-3.05-6.26-8.54-4.83-4.77-4.22-4.17-6.57-3-4.31,4.77-4.19-7.14-12.26-15.91-4.2-6.34-9.45-10.57-9.15-8.83-2.5,3.67-7.83-12.54-11.88-18.12-3.61-4.36-9.22-13.18-7.39-7.42-2.9,6.83-5.9-15.49-8.94-22.59-5.47-4.88-4.75-17.62-5.19-11.9-5.2,5.08.12-18.6-.77-18.66-3.08-.24.4-16.9-.13-20.67-3.64-3.71,2-16.77-.69-10.27-6.13,4,3.7-14.56,2.15-14.67-6.07-2.52,5.83-12.18.79-6-5.37,2.52,2.32-9.88-4.42-6.39-8.11,0,1.85-4.82-2.31-5.74-5.16-2.54-2.2-3.15-7.56-1.84-9.76,2.54-1.92-2.19-3.85-4-5.66-4.63s-3.52-.25-5,1.94c-3-4.53-5.88-2.35-7.62,2.69-.24-6.82-2.41-6.87-5.23,0-.33-4.78-1.64-6.45-4.8-3.6,0-3-2.84,0-5.15,3.6-.74-3.65-3.58-4.77-6.78-3.87-1.94-.94-5.69.86-7.12,3.87-4.15-5.6-7.72-6.25-4.83,0-2.58-3.65-6.85-7.78-7.53-4.56-4.17-3.54-6.24-1.61-6.74,4.56-4.15-9.26-6.22-9.75-2.47,0-3.36-6.53-6.27-11.38-8.71-6.21-1.73-5.65-3.91-1.37-5.09,6.21-.61-7.58-1.28-12.5-3.12-7.29.73-5.31-.1-.18-.89,7.29.65-7.47.43-12.83-1.2-7.59.77-5.3-.39.23-1.91,7.59,0-7.36-2.56-12.75-4.72-7.61-1.35-5.09-5.4.58-7.42,7.61,1.09-7,1.21-12.46,1.24-7.36-1.19-5-3.35.38-4.69,7.36a20.15,20.15,0,0,0-5.29-8.92c-2.3-2-3.5-1.68-1.67,2.88-4.09-4.28-13.47-11-8.26-4.46-7.75-4.85-3.06,3.54-1.17,10.5-1.25-8.11-8.52-18-1-10.73-7.94-7.34-1.6,2.2.14,10.73-3.43-7.43-16.49-24.69-6.5-13-11.48-13.31-6.45-5.29.46,8.76-7.85-14-16.37-26.64-6.79-10.34-10.28-15.62-4.26-.1-.74,14.56-4.34-14.66-11-31.87-3.74-14.66-7.76-17.74-5.16-7.49-2.34,11.49-3.4-18.94-6.22-29.71-2.22-11-4.52-18.2-3.52-2.64-4.4,14.13-.12-17.13-.91-29.7-1.73-10.77,0-9.31-.67-10.37-1.81-7.23a114.24,114.24,0,0,0-4.89,18c1.06-7.23,3.29-13.92,3.84-16.43s.24-1-1.34,7.9c1.33-8.9,1.22-10.54.06-8.21s-6.72,9.22-6.21,15.62c-1.14-6.34,3-11.19,3-12.18-.52-.82-7,3-5.22,8.43-3-4.85-3.89-4.93-.87-4.18-3.25,1.45-10.59,2-10.63,5-4.76.18-2.82,3.23,3.07,4.09-6.55-1-22.26-10.63-13.14-1.89-11-9.22-1.47-2.44,8.78-1-11.34-1.21-30.3-16.15-18.33.92-13.5-17-5.31-7.23,10.45.9-16.18-8.16-27.86-23.21-19.17-2-9.37-21.28-5.62-13.67,9.72,3.09-15.35-16.76-19.86-26.54-13.51-4.82-6.4-21.81-3.26-14.87,12.32,3.12-14.07-17.53-18-24.51-10.18-3.29-8.49-21.44-8.93-23-4.85-1.51-4.27-21.52-3.3-16.17,5.28,6.5-8-22.06-9.34-27.75-6-6.18-3.57-21.83-3.69-23.31-3.57-2.68-.26-20.67-.63-15.94-3.51,8.07,2.86-24,3.21-28.76-.4-8.33,3.49-20.4,3.06-18.66-4.56,2.48,7.36-20.92,5.48-17.32-7.41,2.35,11.9-19.23,9.38-15.31.21,4.29,9.49-20,13.41-26.27,2.85-6.29,11.38-20.3,12.22-22.28,6.77-1.42,5.42-20.86,4.79-19.4-4.18,1.62,8.66-20.81,5.3-16-9.58,1.72,13.33-17.21,11-14.14,2,4.37,9.25-18.88,13-23.62-.59-5.63,14.81-18.33,16.83-21,7.66,0,9-20.88,5-16.71-12.37-1.43,15.12-15.53,15.46-16.09,2.57,1.41,12.38-17.45-13.54-4.34-19.44-1.71,1.89-1.36,12.63-4.25,11.19,7.38,1.37-11.91-15.09-7.71-15.26-7.81,1-.6,23.26-8.32,17.33,5.6,5.83-13.69-16.62-9-19.15-11.09-1.06-2.53,5.79-3.39,6.17,5.39-.45-8.79-9.27-8.87-10-6.83s1.47,7.64,7.31,14.57c-11.72-13.86-7.73-26.43-7.09-10.5-.67-15.93-4.78-4-2.65,10.67-2.13-14.62,1.57-25.91-2.22-11.41,3.78-14.5-.17-2.54-3.52,11.41,3.34-14,5.94-22.33-1.71-10.35,7.63-12,4.08-.94-8.73,10.35,12.78-11.29,14.52-17,1.87-8.3,12.62-8.69,9.6-.76-9.4,7.37,18.9-8.15,19.75-10.67.88-5.71,18.7-4.94,13.81.17-9.35,4.15,22.73-4.55,16.18-2.49-4.39,2.49,20.86-4.46,3.15-4.58-9.45-6.8,7.86-1.13-6-3.81-8.51-2.82-1.61-2.41-3.24-2.5-3.34-.57-.22,1.7,1,5.43,4.29,10.19-2.66-3.17-4.69-7-6.53-9.86-1.94-3-4.18-6-5.4-3.59-1.72-7.68-4.5-8-5.63-.78-.73-3-.81-.21-.94,3.78-.72,1.42-.91,6.7-1.09,10.45.11-3.75,0-8.73.18-10.05-.3-3.8-.84-6.77-.9-3.95-.84-6.61-2.83-5.08-5.25,1-1.4-2-3,1.29-5.1,4.62-1.95,1.31-4.49,5.38-7.3,8.38,3.29-4.5,4.31-7.71,3.63-7.94-.45-1.81-2.55-1.17-5.34.26-2.53.49-6,2.58-9,4.1s-6,2.89-7.45,3.58c.4-1.3-4.38-2.19-5.78-.93-5.65-.68-20.94-9.7-12.27.93-12-10.63-22.19-21.59-10.36-.08-13.56-21.52-14.14-21.68-.34.08-12.94-21.73-15.7-30-21.56-2.74,4.69-27.38,1.53-18.1,1.32,7,0-25,1-30-10.79-6.49,12.84-23.29,14.56-23.6,23.34,2.22-7.94-25.9-8.83-27.72-18.28-1.93,8.15-26,5-20.24-8.72.39,13.26-19.82,7.44-5.11,5.25,10.81.56-17.78,4.71-29.82-11.58-13.9,15.77-15.85,6.73.54,6.15,15.45,1.81-12.26,10.83-31-5.73-15.71,16.13-17.66,21-24.34,2.69-4.23,19.12-19.89,19.45-17.42,13.36,9.12,6.08-26.53,5.35-28.19-13.66-8.47,18-19.84,10-9.64-4.12,5.45,13.92-11.45,2.68,7.8,1.85,16.95.74-9.15,12.91-30.33-2.87-19,15.24-15.59,20.23-22.13-1-7.51,21.18-14.43,10.11-1.8.42,12.59,9.58-17.14,19.45-26.43-.53-10.91,20-13.16,1.85,12.81.82,24.86,1.13-8.54,14-28.72-.91-19,14.59-14.38,18.91-20.17-1.66-7.36,20-12.55,3,2.09-3.49,12.46,6.5-10.37,23.43-24.94,3.42-12.47,20.5-12.74,15.46-6.44,1.15,7.36,14.39-8.85,1,10.84-.46,19,1.39-8.21,13.3-25.86,0-18.15,12.78-12.65,13.3-15.55-3.68-6.44,14.7-8.69-5.12,3.58-10.27,10.65,5.13-7.09,25.13-19.65,10.06-11.2,17.16-9.17,16.28-6.49,2.7,5.49,13.49-7.38-.21,9.71-2.5,17.6,3.05-11.4,15.62-25.63,2.78-16.37,12.18-9.27-2.49,5.23-7.12,15.87,4.49-10.72,17-23.26,5.55-15.93,10.49-7.52-4.12,4.76-10.8,14.38,6.51-9.66,16.6-18.22,8.25-13.82,6.58-4.3-6.24,4.39-15.68,11.82,9.07-7.56,14.81-12,10.76-11.37,1-1.48-8.28,1.88-19.14,5.7,10.21-4.45,16.6-7.5,15.69-7.71,1.19-.82-4.92,1.15-15.48,5.54,10.56-4.39,16.42-6.28,15.22-5.51.69.25-5.7,3.2-15.88,7.45,10.79-3.63,19.54-6.64,19-5.39,3.55-.36-1.92,3.63-11.3,10.78,9.88-7,23.44-15.93,16.91-11.53,8.91-4.63-.86,3.94-6.87,13.94,6.1-9.94,19.43-21.56,8.53-14.83,10.24-6.84-4.4,4.59-12.07,13.66,7.47-9.16,16.38-16.1,9-12.74,4.92-3.17-7.42,4-17.93,10.12,9.7-6.24,11.39-7.57,8.46-6.51s-10,4.37-17.89,7.41c12.42-6.46-2.72-6.61-8.52-7.79,4.59-2.14,22.22-4.77,7.94.94,14.39-5.66-8.71-3.33-11.25-1.73-.11,1.48,1.44,4.74,1.85,8.72.89-3.73,7.71-5.83,3.06-4.86,9.24-1.11,30.28-6.68,11.55,2,18.3-8.83-9.91-2.55-15.61-2.13-4.17.29-7,1.87-7.69,5.67-4.2-7.23-2.37-19,7.5-7.71-9.93-11.34-15.64,6.82-17.34,10.18.45-3.08,5.79-22.42,10.9-10.18-5.13-12.24-10.95,9.38-13.2,11.13.62-1.59,5.59-21.69,4.12-11.13,1.47-10.56-3.77,10.83-6.48,11.53,1-.68,3.88-17.22-3-11.53,6.84-5.69,3.78,11.29,1,11.49,1.63-.25,2.11-13.31-7.15-11.49,9.25-1.82,8.69,11.3,6.31,11.4,2.31-.11,2.66-13-6.7-11.4,9.36-1.57,8.86,10.8,5.24,10.88,1.65-.34-3.69-7.18-15.24-10.88,11.52,3.7,16.4,9.48,12.72,9.83,2.37-.54-6.12-4.31-18.46-9.17,12.13,4.88,16.29,6.56,10.7,6.5.25-1-11.62-3.24-22.17-5.4,10.85,2.32,12.6,2.45,9.6,2.07a149.26,149.26,0,0,0-16.15-2.23c9.07,1-3.79-.18-6.51-.21-3.37-.12-3.83-.19,4.42,0-8.63-.31-9.24-.49-6.47-.67,1.53-.1,9.58.1,6.09-.3,3.91.1,10.52,1.1,13.81,1.53s3.26.27-6.14-1.93c9.49,2.18,8.72,2.14,4.76,1.51s-11.08-1.84-14.33-2c-.84-.26-8.08-.73-11.2-1-10.17-.35-8.35-.7,4.48,1.26-9.07-1.31-46.95.07-18-2.23-29.7,2.25-29.87,2.31-.11.91-29.06,1.58,8.65,2,17.68,3.67-9.13-1.63-48.66-2.19-20-7.46-29.29,4.86-31.19,5.15-5-4.68-26.15,9.84-16,7.87,12.06,10-28-2.12-38.29-.13-12.2-9.77-26.16,9.63-24.58,9.45,4.61,5.33-28.67,4.5,10.19,6.48,19.47,8.59-9.29-2.11-48.24-4.11-19.75-9.47-29,4.94-30.78,5.06-5.6-6.4-25.15,11.46-19.88,10.41,10.13,11-30-.55-35.57.23-11.74-13.94-23.9,14.1-23.48,14.36,2,3-25.3,11.56-8.36,10.05,15.83,13.88-24.19-3.83-41.09-2.3-15.66-13.6-25.58,11.14-25.68,10.91-1.14-2.9-24.42,13.89-14.6,11.78,13.72,12.67-28.31-.89-37.12,1.33-10.44-9.54-26.7,10.88-21.35,9.75,7.78,5.56-18.11,3.49-6.59,4.75,5.65,5.29,6.11.27,13.55.35,15.28.45-1.73-.1-9.18-.19-15.31-.47-12.27-.57-23.82-1.91-5.73-5.62-29.11,4.45-34.45,5.64-8.12-6-26.33,11.62-19.44,9.78,9.73,9.92-29.17-.14-37,1.37-13.51-14.54-23.66,15.77-24,16-.24,1.71-23.68,14.41-17.33,13.92,12.47,16.48-29.8-2.56-36.16-2.17-12.82-17.42-23.45,15.07-23.69,14.65-1.54-2.69-22.08,17.46-20,18.11,9.18,16.27-29.19,1.84-31.33,1.34-8.92-15.17-22.47,16.44-22.1,17,2.26,4.21-24.24,12.92-14.36,12.39,14,16.65-28.33-4.26-38.22-3.74-14-16.82-24.31,12.91-24.82,12.31-2.68-4.4-22.1,16.78-20.52,17.56,7.87,15.41-28.39,2.15-29.9.9-8.68-18-21.32,18.69-21.91,18.79-.79,1.27-21.08,17.67-20,19.15,6.32,19.9-26.33-.75-27.43-2-6-18.72-21.41,16.59-20.57,16.88,2.09.46-22.54,16.59-18.4,16.66,11.72,17.54-30.12-.88-34.07-1.05-11.68-18.45-22.52,17.17-22.82,16.63-1.55-2.35C455.07,1869,456.18,1870.38,484,1867c-27.81,3.41-29,1.81-8.17-17.91-20.93,19.51-21.75,19.66-1,1.66-20.68,18.16-19.86,20,5.11,20.41-25-.46-25.88-1.9-4.78-18.35q-31.68,24.56,2.35,1.72c-22.58,15.33-18.95,15.69,10.94,18.39-29.89-2.7-33.4-3.09-10.81-18.88-22.68,15.63-22.85,15.09-1.36-2.9-21.43,18.11-20.17,19.33,7.54,17-27.71,2.38-29,.9-8-18.09-21.08,18.82-21.86,18.86-1.13,1.55-20.71,17.44-19.85,19.17,4.68,20.45-24.53-1.28-25.57-3.06-5-20.12-20.63,17-21.08,16.57-1-.55-20.07,17.21-19.55,19.25,2.21,19.81-21.76-.56-22.26-2.66-2.25-20.16-20,17.4-19.58,17.64.84-.1-20.39,17.86-19.5,19.83,4.66,19.81-24.16,0-24.9-2-4.5-20.29-20.43,18.17-20.09,18.07.36-1-20.4,19.23-19.63,21.25,5.63,19-25.26,2.28-26.22.18-6-18.89-20.33,18.92-21.88,18.26-2.63,1.27-19.26,17.07-19.55,19.2-1.65,20.83-17.9-1.63-17.66-3.77,1.58-20.72-19.23,16.87-18,17.46,2.09-.95-20.07,18.54-19.26,20.74,4.48,19.36-23.74,1.38-24.52-.84-4.46-19.51-20.1,18.54-21.18,18-1.89.65-19.3,17.43-19.49,19.6-1,20.55-18.5-1-18.33-3.12,1-20.47-19.29,17.26-18.31,17.8,1.75-.48-20,18.41-19.26,20.63,4.06,19.68-23.32.95-24.17-1.24-4.14-19.3-20.07,18-21.46,17.2-2.46,1.16-19,16.1-19.46,18.16-3,20.77-16.44-2.61-16-4.65,3.07-20.76-19,16-17.43,16.91,2.85-1.2-20.23,18.23-19.23,20.32,5.17,19.12-24.4,1.2-25.24-.8-4.86-19.14-20.41,18.21-20.89,18.2-.69,1.16-20.19,17.14-19.51,19.16,2.81,20.67-22.32-1.51-23.05-3.53-2.87-20.54-20.19,16.91-20,16.85.22-.83-20.19,17.79-19.48,19.84,3.58,19.54-23.06.3-24.09-1.84-4.07-19-20.05,17-22.2,15.61-4,1.68-18.23,14-19.49,15.58-7.58,20.22-11.91-4.64-10.75-6.32,7.4-20-18.14,13.65-16.71,14.69,2.66-1.18-19.36,15.91-18.91,18.14.45,19.51-19.36-1.37-19.78-3.7-.48-20.21-19.31,16.44-20.65,15.27-2.51-.06-18.16,15.37-19.6,16.92-6.76,19.56-12.84-2.64-11.57-4.24,6.48-18.92q-27.06,22,.27,1c-18.19,14-18.94,16-5.83,20.1-13.11-4.13-12.78-5.86,4.94-16.09-17.72,10.22-19.78,8.77-4.8,3.79-15,5-17.14,4.31-17.48,13.72.34-9.41,2.47-8.67,17.28-13.17-14.81,4.5-13.3,5.52,3.72-3.11-17,8.63-18,9.83-8.15,15.43-9.87-5.6-8.63-7.12,8.88-18.86-17.51,11.73-18,11-.9-1.17-17.1,12.21-19.57,12.34-11.28,17-8.29-4.7-5.84-4.81,11.25-16.84-17.08,12-16.77,12.58.54,1.39-17.31,11.2-18.74,12.5-9.9,18.54-8.84-6-7.84-7.1,8.62-14.42-16.46,7.32-18.08,6.24-4.35,3.61-13.73,2.63-15.53,1.85-17.7,11.74,2.17-9.89,4-9.15,17.81-12-13.83,2.88-12,4.15,4.86-3.93-16.83,8.09-17.5,9.49-7.14,14.89-10.36-5.4-9.18-7,8.48-19.26-17.65,12.24-17.82,11.84-.31-1.27-17.52,13.13-19.43,14-9.16,17.86-10.27-3.86-8.37-4.73,9.14-17.82-17.5,13.07-17.39,13.41.19,1.31-17.58,12.12-18.85,13.65-8.81,19.16-10-5.51-9.39-6.91,7.21-14.57-16.6,7.66-18.53,6.32-5.17,4.08-13.36,2.24-15,1.5-17.88,11.5,2.85-10,4.52-9.15,17.65-10.85-13.13,1.7-11.68,2.67,4.16-3.35-15.84,6-17.11,6.66-10.16,13.49-6.95-6.83-5.22-7.64,11.66-17.41-16.88,9.76-17.24,9.15-.58-1.42-16.66,10.57-19.45,10-13.07,15.64-6.38-5.63-3.65-5,12.93-15.16-16.57,10.11-16.64,10.36-.32,1.81-16.32,8.55-18.51,8.6-14,16.13-4.52-7.53-3.75-8.24,9.88-11.07-13.63,2.83-15.53,1.24-6.83,3.9-8.7-2.66-9-2.91-16.24,7.42,7.23-10.33,8.36-9.38,19.66-9.32-11.3-.06-13.19-1.84-13.47,6.25.28-8.09,1.33-7.27,11-5.81-9.65-1.46-10.17-2-19.25,8.21,9.08-10.25,9.58-9.68,19.13-8.11-9.55-1.57-10.61-2.43-11.07,5.71.46-8.14,2.87-6.17,15.9-8.71-13,2.54-13.32,2.54-1.5,2-11.82.57-13.44-.68-16.87,8.78,3.43-9.46,3.07-10.13,8-4.87-5-5.26-4.73-5.54-15.8,4.56,11.08-10.1,10.43-11.37-1.66-1.73,12.08-9.64,11.44-10.81-.57-1.48,12-9.33,12.72-8,.65,1.67,12.06-9.68,12-8.49-10.14-.19,22.17-8.3,22.59-9.13,6.72.45,15.87-9.6,14.09-11.52-6.41-3.44,20.49-8.09,22.63-5.51,4.11,3.95,18.48-9.44,18.13-8.19-4.48.47,22.27-8.67,9.49-6.39-9.42-1.43,20.61-4.56,31.61-7.52,9.09.85,22.32-8.53-.63-8.2-14.79-5.81,13.44-2.52,28.09-1.63,7.55,4.58,19.35-5.82-4.92-1.24-14.42-1,8.77-.29,13.66-3,5.88-.58,5-4.2-4.95-3.63-10.66-3.91,7.35,1.77,0,3.42-5.57,5.88,3.52-2.86,6.22-5.17,5.09-5,1-1-1.79.54-5,3,3.76-2,1-3.74-1.8-3.55-.34.75-4,2.48-6.93,5.52.08-3-1.67-4.47-4.06-4.52s-5.41,1.27-7.87,3.73c-2.1-4.48-8.41-3-10.92.79,4.3-3.76-1.55-4.08-6.68,0-2.55-4.08-8.72-5-9.18-.38-2.37-3.74-6.1-4.27-9.35-2.47-1-2.21-2.7-.33-2.19,2.84-4.26-3.35-8.05-5.29-9-4.09-.58-1.35,1.29.78,5.84,4.1-3.2-3.12-6.2-6.07-7.86-4.77-1.66-2-2.63.49-2.9,3.56-2.95-6.08-4.24-5.67-5.78.91-.08-3.64,0-8.23,1.7-5.12.92-2.93,3.84,1.9,7.85,5.42-4.06-6.36-6-8.43-7.65-2.56-1.2-6.63-2.84-6.76-6.43.12.05-4.88-1.28-13.78-1.87-6.24-1.62-8-3.56-1.15-6.13,4.7,3.09-8.47,1.66-11.66-4.09-3.26,3.15-6.43,4.68-6.84,5.06.07.52-4.92,0,3.34-1.4,7.17,1.76-3.35,2.39-10.9,1.83-6.66-.53-6.46-2.32-7.49-6-1.09,5-9.39,3.45-10.49-3.47-1.23,3.36-9.62,5.48-18.67,3.11-5.67,2.07-13-.7-3.33-4,6,5.52-10.22,5.39-18.16-2.84-7,7.58-11.56,5.61-4.89-1.29,4.92,7-8.82,7.42-7.53,1.19,1.1,4.27-5.69,5.09-3,4.4,2.85.88-2.9-1,3.86-3,6.73,2-2.87,3.78-9.8,2.76-6.89.62-6-.22-9.27-4.81-3.36,6.11-9.1,4.82-10.85-2.83-2,6.92-10.15,8.49-16.31-.14-5.3,8.61-10.57,6.42-1.65.65,7.73,5.29-9.38,5.36-17.23-4-8.34,7.62-9.79,1.66-3-4.46,4.36,4.88-6.15,2.15-2.72-1.86,2.29,2.08.43-2.19,7.51-3.6,11.53,1.36-4,4.89-10.85,2.76-11.64,3.27-4.83,4.6-7.59.38-2.36,4.61-6.5,8.24-10.74,2-3.62,6.89-5.45,3.53,3.15.64,9.32,2.38-6.06,2.27-12.33-3.85-8.9,3.22-5.08-2.9-.54-5.11,3.77,0-2.83-2.47-.66-4.08,2.3a47,47,0,0,0-4,11.13c.4-3.77.5-7.77.55-10.25s0-3.45.16-1.17c-.59-3-1.21-3.3-1.63-1.75a35.7,35.7,0,0,0-.43,9.19c-2.9-8-7.31-11.75-8.81-5.46-3.51-4.1-5.58,3-5.69,9.44-.61-6.49-1.33-11-2.28-6.47-.33-4.65-1.07-.4-1.31,5.89-1.37-6.17-3.8-9.53-6-5-1.07-4-2.83.51-2.81,5.6-1.73-5.09-5.22-8.34-6.5-4.32-1.79-3.69-2.94-.14-1.54,4.32-5.2-6.8-9.68-6.09-5.43,0-3.39-4.26-10.41-8.17-9.39-2.07-5.43-5.64-6.79-4.28-2,2.07-6.64-6.35-19.67-15.84-11.73-.67-10.56-15-11.7-15.07-1.38.67-12.2-15.78-18.57-21.52-11.79,0-7.55-21.52-10.24-22.89-11.18,0,.71-22.89-1.3-22.05-10.66,0,8.06-22.12,8-22.12,0,0,7.58-22,4.72-23.1-8.63-3.52,13.21-19.26,11.19-18.59-6.15-3.39,17.18-14.87,15.27-12,4,6.91,11.17-18.86,10.9-21.46-8.38-10.34,18.31-12.34,19.71-12.63,4.75,4.54,15-17.15,14.19-17-4-4.09,19.28-11.67,19.86-9.35,8.69,9.89,10.94-19.24,7.17-20.79-13-13.26,17.57-10.11,16.19-9.9,2.14,5.07,13.77-15.09,5.22-14.58-8.79-9.11,14.84-2.84,15.48,2.22,9,17.3,6.29-15.08,1-20.2-12.05-20.61,9.82-4.71,11.22-4,3.15,8.32,7.95-12.3-1-13.79-6.94-10.53,6.38,1.72,4.22,10.73,5.64,22.82-1.52-12.09-1.18-21.23-6.84-23.72,3.58-3.44,2.89-1.26,1.59,10.18,1.21-11.44-2.22-13.84-4.46-10.67.71,2.92-1.29,12.11-2.75,24.21,1.14-12.1,2.26-21.11,1.6-24,.68-3-.41-.13-1,11.35.56-11.47.66-14-.34-10.8s-2.73,12.08-5.83,23.47c3-11.39,4.8-19.45,4.88-21.75s-1.52,1.13-5.18,12.76c6.65-23-1.63-5-12.22,9,8.91-14,13.36-22.16,1.63-5,10.89-16.87,2.26-5-5.35,5,9.15-12-2.7-2.26-8.14,0,.37-2.26-5-.09-6.21,0,1.18-.09.47,0-1.63,0h-40c23.73,0,23.71-.09,0-.87,23.71.44,23.48.17,0-2.58,23.48,2.07,22.49,1.47,0-4.23,22.49,4.58,19.73,3,0-5.86,19.73,7.05,13.66,2.75,0-7.43,13.66,7,4.12-2.42,0-9,4.12.86,0-6.72,0-10.44V76.54a26.16,26.16,0,0,0,8-1.37c23-16.47,50-19.9,73-1.38,2,1.38,6,1.38,9.3,2.39,3.15.22,6.38.26,9.68.26,3,0,6,0,9.07,0,18-1.23,27-12.21,39-20.45,4-2.74,9-2.74,14-1.37a41.62,41.62,0,0,1,14.23,6.74c2.06,1.42,4,2.92,6.06,4.41,11.85,12.61,27.78,19.94,45.05,21.82a72.81,72.81,0,0,0,17.57-.16c14.09-1.93,23.09-10.17,36.09-12.91,19-4.8,40,2.06,61.35,2h7.12c16.27-.49,32.88-2.48,49.53.84a78.78,78.78,0,0,1,10,2.68c22,2.07,30-16.46,45-24.69,8-4.81,16,.68,21,4.8,8,8.92,18,15.78,32.69,16.3,3.14.07,6.28.07,9.43.07,3,.28,5.76.38,8.6.5,18.28.28,31.28,9.2,45.28,16.75,7,3.43,15,6.86,22,2.75,12-6.87,20-21.27,39.45-20h34.6c19.95-1.27,26.95-15.68,40.95-23.92a16.48,16.48,0,0,1,14-.68c16,7.54,21,22.64,41.58,24.57,2.93,0,5.86,0,8.78,0,24.64,2.84,43.64-10.88,67.64-14.31,4,0,8-.69,11,.68,9,5.49,17,13,30.28,13.56,3,.07,6,.07,9,.07h47.73c3.15,0,6.3,0,9.45,0,6.59.8,12.59-.57,18.59-2.63,27-11.66,72-15.78,88.27,7.21a33.75,33.75,0,0,0,7.95,5.43c22,10.7,50-7.36,75.07-16.45l10.13-1.85c10.14-1.84,20.33-3.6,30.58-4.63,5,0,12-1.37,14,1.37,10,11.67,28,11.67,44.4,11.57h39.94c2.19.16,4.32.28,6.5.48,26.16,2.36,45.16,25,69.16,19.52,10.83-2.86,14.72-15.25,26.53-19a24.35,24.35,0,0,1,8.15-1c21.32,1.46,30.32-13,45.32-20.5a57,57,0,0,1,7-1.37c3,25.39,1,50.09,1,75.67v1649c0,4.92-.16,9.7,0,14.22a102.67,102.67,0,0,0,0,13.13,70.92,70.92,0,0,0,0,12c-.28,2.07-1.31,5.92-1.15,8.76-.91,2.81-.56,4.77,1.15,3.08-1.71,4.79-8.08,12.22-6.19,16.11-4.49,3.31-.72,4,6.19-5.7-4.68,7.14-20.43,15.38-10,16-13.2,4.06-16.49,5.94-1.08,3.7-13.59.94,4.87-4.59,11.12-10.81-6.25,6.39-28.33,13.2-12.56,13.37-18.11,2.51-19,3.31-.36,2.17-16.56.09,6.23-3.82,12.92-8.14-10,6.55-35,9.82-15.15,10.66-19.88-.23,4.82-1.06,15.15-4.82-10.33,3.79-35.43,4.9-15.43,6.21-20-.89,4.87-.29,15.43-2-10.56,1.72-35.51,1.31-15.51,2.88-20-1.32,4.89.12,15.51-.31-10.62.44-35.49-.9-15.53.76C1442.66,1869,1467.52,1870.66,1478.15,1870.66Z"/></clipPath></defs><g id="Layer_2" data-name="Layer 2"><g id="Layer_1-2" data-name="Layer 1"><g class="cls-2"><path class="cls-3" d="M1478.15,1870.66c-10.63,0-36.32-1.83-16.12,0-20.54-1.83,1.35,0,12.9,0-11.56,0-36.07-2.51-15,0-21.79-2.51-14-.92,5.63,0-19.59-.92-30.5-3.79-9.22,0-22-3.79-24.66-6-6,0-18.64-6-18.2-5.59,1.18,0-19.88-5.59-21.43-10.59-21.89,0,.41-10.59.45-11.44,5.33-1.36-5-10.09-5.08-9.48-16.39-1.35,11-8.13,7.16-1.12-14.77,2.71,21.11-4,1.62-3.29-14-3.89,3.65.46.63.9-3.86,1.49-4.87.6-21.33,1.64-12.76,2.4-13.15-1.52-30.1-1.41-16.06-3.57-17.32,2.09-27.53-2.64-18.9,3.57-9.2-6.15-13.74-12.5-10.76-2.64-3.49-9.88-5.64-11-14.37.84,3.71-5.86,3.78-7.41,1.31-6.4a59.39,59.39,0,0,0-15.17,8.2c5-4.79,5.78-6.58,5.07-5.54a11.35,11.35,0,0,0-5.91-.51c-2.28.41-6.36,2.16-6.16,4.31,1-5.34,2-6,2.9-2.23-3.73-2.63-17.68,2.61-8.65,4-9.4.23-10.13-3-2.49-7.15-10.31,3-20.27,8.66-4.12,4.67-16.89,4-19.41,1.08-4-5.52-16.49,7-22,13.29-2.42,8-20,5.29-20.64-2-5-8.66-16.36,6.33-18.87,11.94-2.46,6.89-16.63,5.07-17-3.24-6.87-7-10.54,3.89-11.54,11.06-2.68,8.79-8.89,2.27-8.67-4.62-5.27-7.12-3.62,2.52-4,8.14-5.56,6.69,1.47,1.34,1.46,1.59.69.43.72,1.28.53-.93-8.08-4.65,3.68,1.91,6.22,3.77,5.81,4.83s-4.79,1.23-9-.18c4.12,1.34,7.72,2.53,6.08,2.75s-13.09-.81-16.4-2.75c3,1.94,10.62,3.11,10.33,3.11-2.83-.19-16.26-1.71-17.08-3.11.88,1.41,8,1.87,10,1.7-5.33-.53-17.18-1.52-16-2-1.64.45,1.25.07,5.81-.37-7.91-.14-14.89-.09-12.45.65-3.24-.79-3.22-1.55,1.11-2.88-6.77,1-9.63,1.53-8.78,2.62-1.8-1.07-2.36-1.78-1.84-3.74a31,31,0,0,1-7.26,4c3.8-2.94,4.34-2.71,4.14,0-.45-1.33-1.16-2.12-3.82-4.14,1,2-.12,2.58-5.34,4.18,3.85-3.17,2.05-3.31-5.36,0,5-3.31,1.22-3.17-7.37,0,2.9-1.59,3-2.5,1.5-2.56a18.23,18.23,0,0,0-8.2,2.56c4-3.73-3.36-6.06-6.1,0,3.57-6.06,5.26-5.29,1.5,0,2.36-3.05-6.26-8.54-4.83-4.77-4.22-4.17-6.57-3-4.31,4.77-4.19-7.14-12.26-15.91-4.2-6.34-9.45-10.57-9.15-8.83-2.5,3.67-7.83-12.54-11.88-18.12-3.61-4.36-9.22-13.18-7.39-7.42-2.9,6.83-5.9-15.49-8.94-22.59-5.47-4.88-4.75-17.62-5.19-11.9-5.2,5.08.12-18.6-.77-18.66-3.08-.24.4-16.9-.13-20.67-3.64-3.71,2-16.77-.69-10.27-6.13,4,3.7-14.56,2.15-14.67-6.07-2.52,5.83-12.18.79-6-5.37,2.52,2.32-9.88-4.42-6.39-8.11,0,1.85-4.82-2.31-5.74-5.16-2.54-2.2-3.15-7.56-1.84-9.76,2.54-1.92-2.19-3.85-4-5.66-4.63s-3.52-.25-5,1.94c-3-4.53-5.88-2.35-7.62,2.69-.24-6.82-2.41-6.87-5.23,0-.33-4.78-1.64-6.45-4.8-3.6,0-3-2.84,0-5.15,3.6-.74-3.65-3.58-4.77-6.78-3.87-1.94-.94-5.69.86-7.12,3.87-4.15-5.6-7.72-6.25-4.83,0-2.58-3.65-6.85-7.78-7.53-4.56-4.17-3.54-6.24-1.61-6.74,4.56-4.15-9.26-6.22-9.75-2.47,0-3.36-6.53-6.27-11.38-8.71-6.21-1.73-5.65-3.91-1.37-5.09,6.21-.61-7.58-1.28-12.5-3.12-7.29.73-5.31-.1-.18-.89,7.29.65-7.47.43-12.83-1.2-7.59.77-5.3-.39.23-1.91,7.59,0-7.36-2.56-12.75-4.72-7.61-1.35-5.09-5.4.58-7.42,7.61,1.09-7,1.21-12.46,1.24-7.36-1.19-5-3.35.38-4.69,7.36a20.15,20.15,0,0,0-5.29-8.92c-2.3-2-3.5-1.68-1.67,2.88-4.09-4.28-13.47-11-8.26-4.46-7.75-4.85-3.06,3.54-1.17,10.5-1.25-8.11-8.52-18-1-10.73-7.94-7.34-1.6,2.2.14,10.73-3.43-7.43-16.49-24.69-6.5-13-11.48-13.31-6.45-5.29.46,8.76-7.85-14-16.37-26.64-6.79-10.34-10.28-15.62-4.26-.1-.74,14.56-4.34-14.66-11-31.87-3.74-14.66-7.76-17.74-5.16-7.49-2.34,11.49-3.4-18.94-6.22-29.71-2.22-11-4.52-18.2-3.52-2.64-4.4,14.13-.12-17.13-.91-29.7-1.73-10.77,0-9.31-.67-10.37-1.81-7.23a114.24,114.24,0,0,0-4.89,18c1.06-7.23,3.29-13.92,3.84-16.43s.24-1-1.34,7.9c1.33-8.9,1.22-10.54.06-8.21s-6.72,9.22-6.21,15.62c-1.14-6.34,3-11.19,3-12.18-.52-.82-7,3-5.22,8.43-3-4.85-3.89-4.93-.87-4.18-3.25,1.45-10.59,2-10.63,5-4.76.18-2.82,3.23,3.07,4.09-6.55-1-22.26-10.63-13.14-1.89-11-9.22-1.47-2.44,8.78-1-11.34-1.21-30.3-16.15-18.33.92-13.5-17-5.31-7.23,10.45.9-16.18-8.16-27.86-23.21-19.17-2-9.37-21.28-5.62-13.67,9.72,3.09-15.35-16.76-19.86-26.54-13.51-4.82-6.4-21.81-3.26-14.87,12.32,3.12-14.07-17.53-18-24.51-10.18-3.29-8.49-21.44-8.93-23-4.85-1.51-4.27-21.52-3.3-16.17,5.28,6.5-8-22.06-9.34-27.75-6-6.18-3.57-21.83-3.69-23.31-3.57-2.68-.26-20.67-.63-15.94-3.51,8.07,2.86-24,3.21-28.76-.4-8.33,3.49-20.4,3.06-18.66-4.56,2.48,7.36-20.92,5.48-17.32-7.41,2.35,11.9-19.23,9.38-15.31.21,4.29,9.49-20,13.41-26.27,2.85-6.29,11.38-20.3,12.22-22.28,6.77-1.42,5.42-20.86,4.79-19.4-4.18,1.62,8.66-20.81,5.3-16-9.58,1.72,13.33-17.21,11-14.14,2,4.37,9.25-18.88,13-23.62-.59-5.63,14.81-18.33,16.83-21,7.66,0,9-20.88,5-16.71-12.37-1.43,15.12-15.53,15.46-16.09,2.57,1.41,12.38-17.45-13.54-4.34-19.44-1.71,1.89-1.36,12.63-4.25,11.19,7.38,1.37-11.91-15.09-7.71-15.26-7.81,1-.6,23.26-8.32,17.33,5.6,5.83-13.69-16.62-9-19.15-11.09-1.06-2.53,5.79-3.39,6.17,5.39-.45-8.79-9.27-8.87-10-6.83s1.47,7.64,7.31,14.57c-11.72-13.86-7.73-26.43-7.09-10.5-.67-15.93-4.78-4-2.65,10.67-2.13-14.62,1.57-25.91-2.22-11.41,3.78-14.5-.17-2.54-3.52,11.41,3.34-14,5.94-22.33-1.71-10.35,7.63-12,4.08-.94-8.73,10.35,12.78-11.29,14.52-17,1.87-8.3,12.62-8.69,9.6-.76-9.4,7.37,18.9-8.15,19.75-10.67.88-5.71,18.7-4.94,13.81.17-9.35,4.15,22.73-4.55,16.18-2.49-4.39,2.49,20.86-4.46,3.15-4.58-9.45-6.8,7.86-1.13-6-3.81-8.51-2.82-1.61-2.41-3.24-2.5-3.34-.57-.22,1.7,1,5.43,4.29,10.19-2.66-3.17-4.69-7-6.53-9.86-1.94-3-4.18-6-5.4-3.59-1.72-7.68-4.5-8-5.63-.78-.73-3-.81-.21-.94,3.78-.72,1.42-.91,6.7-1.09,10.45.11-3.75,0-8.73.18-10.05-.3-3.8-.84-6.77-.9-3.95-.84-6.61-2.83-5.08-5.25,1-1.4-2-3,1.29-5.1,4.62-1.95,1.31-4.49,5.38-7.3,8.38,3.29-4.5,4.31-7.71,3.63-7.94-.45-1.81-2.55-1.17-5.34.26-2.53.49-6,2.58-9,4.1s-6,2.89-7.45,3.58c.4-1.3-4.38-2.19-5.78-.93-5.65-.68-20.94-9.7-12.27.93-12-10.63-22.19-21.59-10.36-.08-13.56-21.52-14.14-21.68-.34.08-12.94-21.73-15.7-30-21.56-2.74,4.69-27.38,1.53-18.1,1.32,7,0-25,1-30-10.79-6.49,12.84-23.29,14.56-23.6,23.34,2.22-7.94-25.9-8.83-27.72-18.28-1.93,8.15-26,5-20.24-8.72.39,13.26-19.82,7.44-5.11,5.25,10.81.56-17.78,4.71-29.82-11.58-13.9,15.77-15.85,6.73.54,6.15,15.45,1.81-12.26,10.83-31-5.73-15.71,16.13-17.66,21-24.34,2.69-4.23,19.12-19.89,19.45-17.42,13.36,9.12,6.08-26.53,5.35-28.19-13.66-8.47,18-19.84,10-9.64-4.12,5.45,13.92-11.45,2.68,7.8,1.85,16.95.74-9.15,12.91-30.33-2.87-19,15.24-15.59,20.23-22.13-1-7.51,21.18-14.43,10.11-1.8.42,12.59,9.58-17.14,19.45-26.43-.53-10.91,20-13.16,1.85,12.81.82,24.86,1.13-8.54,14-28.72-.91-19,14.59-14.38,18.91-20.17-1.66-7.36,20-12.55,3,2.09-3.49,12.46,6.5-10.37,23.43-24.94,3.42-12.47,20.5-12.74,15.46-6.44,1.15,7.36,14.39-8.85,1,10.84-.46,19,1.39-8.21,13.3-25.86,0-18.15,12.78-12.65,13.3-15.55-3.68-6.44,14.7-8.69-5.12,3.58-10.27,10.65,5.13-7.09,25.13-19.65,10.06-11.2,17.16-9.17,16.28-6.49,2.7,5.49,13.49-7.38-.21,9.71-2.5,17.6,3.05-11.4,15.62-25.63,2.78-16.37,12.18-9.27-2.49,5.23-7.12,15.87,4.49-10.72,17-23.26,5.55-15.93,10.49-7.52-4.12,4.76-10.8,14.38,6.51-9.66,16.6-18.22,8.25-13.82,6.58-4.3-6.24,4.39-15.68,11.82,9.07-7.56,14.81-12,10.76-11.37,1-1.48-8.28,1.88-19.14,5.7,10.21-4.45,16.6-7.5,15.69-7.71,1.19-.82-4.92,1.15-15.48,5.54,10.56-4.39,16.42-6.28,15.22-5.51.69.25-5.7,3.2-15.88,7.45,10.79-3.63,19.54-6.64,19-5.39,3.55-.36-1.92,3.63-11.3,10.78,9.88-7,23.44-15.93,16.91-11.53,8.91-4.63-.86,3.94-6.87,13.94,6.1-9.94,19.43-21.56,8.53-14.83,10.24-6.84-4.4,4.59-12.07,13.66,7.47-9.16,16.38-16.1,9-12.74,4.92-3.17-7.42,4-17.93,10.12,9.7-6.24,11.39-7.57,8.46-6.51s-10,4.37-17.89,7.41c12.42-6.46-2.72-6.61-8.52-7.79,4.59-2.14,22.22-4.77,7.94.94,14.39-5.66-8.71-3.33-11.25-1.73-.11,1.48,1.44,4.74,1.85,8.72.89-3.73,7.71-5.83,3.06-4.86,9.24-1.11,30.28-6.68,11.55,2,18.3-8.83-9.91-2.55-15.61-2.13-4.17.29-7,1.87-7.69,5.67-4.2-7.23-2.37-19,7.5-7.71-9.93-11.34-15.64,6.82-17.34,10.18.45-3.08,5.79-22.42,10.9-10.18-5.13-12.24-10.95,9.38-13.2,11.13.62-1.59,5.59-21.69,4.12-11.13,1.47-10.56-3.77,10.83-6.48,11.53,1-.68,3.88-17.22-3-11.53,6.84-5.69,3.78,11.29,1,11.49,1.63-.25,2.11-13.31-7.15-11.49,9.25-1.82,8.69,11.3,6.31,11.4,2.31-.11,2.66-13-6.7-11.4,9.36-1.57,8.86,10.8,5.24,10.88,1.65-.34-3.69-7.18-15.24-10.88,11.52,3.7,16.4,9.48,12.72,9.83,2.37-.54-6.12-4.31-18.46-9.17,12.13,4.88,16.29,6.56,10.7,6.5.25-1-11.62-3.24-22.17-5.4,10.85,2.32,12.6,2.45,9.6,2.07a149.26,149.26,0,0,0-16.15-2.23c9.07,1-3.79-.18-6.51-.21-3.37-.12-3.83-.19,4.42,0-8.63-.31-9.24-.49-6.47-.67,1.53-.1,9.58.1,6.09-.3,3.91.1,10.52,1.1,13.81,1.53s3.26.27-6.14-1.93c9.49,2.18,8.72,2.14,4.76,1.51s-11.08-1.84-14.33-2c-.84-.26-8.08-.73-11.2-1-10.17-.35-8.35-.7,4.48,1.26-9.07-1.31-46.95.07-18-2.23-29.7,2.25-29.87,2.31-.11.91-29.06,1.58,8.65,2,17.68,3.67-9.13-1.63-48.66-2.19-20-7.46-29.29,4.86-31.19,5.15-5-4.68-26.15,9.84-16,7.87,12.06,10-28-2.12-38.29-.13-12.2-9.77-26.16,9.63-24.58,9.45,4.61,5.33-28.67,4.5,10.19,6.48,19.47,8.59-9.29-2.11-48.24-4.11-19.75-9.47-29,4.94-30.78,5.06-5.6-6.4-25.15,11.46-19.88,10.41,10.13,11-30-.55-35.57.23-11.74-13.94-23.9,14.1-23.48,14.36,2,3-25.3,11.56-8.36,10.05,15.83,13.88-24.19-3.83-41.09-2.3-15.66-13.6-25.58,11.14-25.68,10.91-1.14-2.9-24.42,13.89-14.6,11.78,13.72,12.67-28.31-.89-37.12,1.33-10.44-9.54-26.7,10.88-21.35,9.75,7.78,5.56-18.11,3.49-6.59,4.75,5.65,5.29,6.11.27,13.55.35,15.28.45-1.73-.1-9.18-.19-15.31-.47-12.27-.57-23.82-1.91-5.73-5.62-29.11,4.45-34.45,5.64-8.12-6-26.33,11.62-19.44,9.78,9.73,9.92-29.17-.14-37,1.37-13.51-14.54-23.66,15.77-24,16-.24,1.71-23.68,14.41-17.33,13.92,12.47,16.48-29.8-2.56-36.16-2.17-12.82-17.42-23.45,15.07-23.69,14.65-1.54-2.69-22.08,17.46-20,18.11,9.18,16.27-29.19,1.84-31.33,1.34-8.92-15.17-22.47,16.44-22.1,17,2.26,4.21-24.24,12.92-14.36,12.39,14,16.65-28.33-4.26-38.22-3.74-14-16.82-24.31,12.91-24.82,12.31-2.68-4.4-22.1,16.78-20.52,17.56,7.87,15.41-28.39,2.15-29.9.9-8.68-18-21.32,18.69-21.91,18.79-.79,1.27-21.08,17.67-20,19.15,6.32,19.9-26.33-.75-27.43-2-6-18.72-21.41,16.59-20.57,16.88,2.09.46-22.54,16.59-18.4,16.66,11.72,17.54-30.12-.88-34.07-1.05-11.68-18.45-22.52,17.17-22.82,16.63-1.55-2.35C455.07,1869,456.18,1870.38,484,1867c-27.81,3.41-29,1.81-8.17-17.91-20.93,19.51-21.75,19.66-1,1.66-20.68,18.16-19.86,20,5.11,20.41-25-.46-25.88-1.9-4.78-18.35q-31.68,24.56,2.35,1.72c-22.58,15.33-18.95,15.69,10.94,18.39-29.89-2.7-33.4-3.09-10.81-18.88-22.68,15.63-22.85,15.09-1.36-2.9-21.43,18.11-20.17,19.33,7.54,17-27.71,2.38-29,.9-8-18.09-21.08,18.82-21.86,18.86-1.13,1.55-20.71,17.44-19.85,19.17,4.68,20.45-24.53-1.28-25.57-3.06-5-20.12-20.63,17-21.08,16.57-1-.55-20.07,17.21-19.55,19.25,2.21,19.81-21.76-.56-22.26-2.66-2.25-20.16-20,17.4-19.58,17.64.84-.1-20.39,17.86-19.5,19.83,4.66,19.81-24.16,0-24.9-2-4.5-20.29-20.43,18.17-20.09,18.07.36-1-20.4,19.23-19.63,21.25,5.63,19-25.26,2.28-26.22.18-6-18.89-20.33,18.92-21.88,18.26-2.63,1.27-19.26,17.07-19.55,19.2-1.65,20.83-17.9-1.63-17.66-3.77,1.58-20.72-19.23,16.87-18,17.46,2.09-.95-20.07,18.54-19.26,20.74,4.48,19.36-23.74,1.38-24.52-.84-4.46-19.51-20.1,18.54-21.18,18-1.89.65-19.3,17.43-19.49,19.6-1,20.55-18.5-1-18.33-3.12,1-20.47-19.29,17.26-18.31,17.8,1.75-.48-20,18.41-19.26,20.63,4.06,19.68-23.32.95-24.17-1.24-4.14-19.3-20.07,18-21.46,17.2-2.46,1.16-19,16.1-19.46,18.16-3,20.77-16.44-2.61-16-4.65,3.07-20.76-19,16-17.43,16.91,2.85-1.2-20.23,18.23-19.23,20.32,5.17,19.12-24.4,1.2-25.24-.8-4.86-19.14-20.41,18.21-20.89,18.2-.69,1.16-20.19,17.14-19.51,19.16,2.81,20.67-22.32-1.51-23.05-3.53-2.87-20.54-20.19,16.91-20,16.85.22-.83-20.19,17.79-19.48,19.84,3.58,19.54-23.06.3-24.09-1.84-4.07-19-20.05,17-22.2,15.61-4,1.68-18.23,14-19.49,15.58-7.58,20.22-11.91-4.64-10.75-6.32,7.4-20-18.14,13.65-16.71,14.69,2.66-1.18-19.36,15.91-18.91,18.14.45,19.51-19.36-1.37-19.78-3.7-.48-20.21-19.31,16.44-20.65,15.27-2.51-.06-18.16,15.37-19.6,16.92-6.76,19.56-12.84-2.64-11.57-4.24,6.48-18.92q-27.06,22,.27,1c-18.19,14-18.94,16-5.83,20.1-13.11-4.13-12.78-5.86,4.94-16.09-17.72,10.22-19.78,8.77-4.8,3.79-15,5-17.14,4.31-17.48,13.72.34-9.41,2.47-8.67,17.28-13.17-14.81,4.5-13.3,5.52,3.72-3.11-17,8.63-18,9.83-8.15,15.43-9.87-5.6-8.63-7.12,8.88-18.86-17.51,11.73-18,11-.9-1.17-17.1,12.21-19.57,12.34-11.28,17-8.29-4.7-5.84-4.81,11.25-16.84-17.08,12-16.77,12.58.54,1.39-17.31,11.2-18.74,12.5-9.9,18.54-8.84-6-7.84-7.1,8.62-14.42-16.46,7.32-18.08,6.24-4.35,3.61-13.73,2.63-15.53,1.85-17.7,11.74,2.17-9.89,4-9.15,17.81-12-13.83,2.88-12,4.15,4.86-3.93-16.83,8.09-17.5,9.49-7.14,14.89-10.36-5.4-9.18-7,8.48-19.26-17.65,12.24-17.82,11.84-.31-1.27-17.52,13.13-19.43,14-9.16,17.86-10.27-3.86-8.37-4.73,9.14-17.82-17.5,13.07-17.39,13.41.19,1.31-17.58,12.12-18.85,13.65-8.81,19.16-10-5.51-9.39-6.91,7.21-14.57-16.6,7.66-18.53,6.32-5.17,4.08-13.36,2.24-15,1.5-17.88,11.5,2.85-10,4.52-9.15,17.65-10.85-13.13,1.7-11.68,2.67,4.16-3.35-15.84,6-17.11,6.66-10.16,13.49-6.95-6.83-5.22-7.64,11.66-17.41-16.88,9.76-17.24,9.15-.58-1.42-16.66,10.57-19.45,10-13.07,15.64-6.38-5.63-3.65-5,12.93-15.16-16.57,10.11-16.64,10.36-.32,1.81-16.32,8.55-18.51,8.6-14,16.13-4.52-7.53-3.75-8.24,9.88-11.07-13.63,2.83-15.53,1.24-6.83,3.9-8.7-2.66-9-2.91-16.24,7.42,7.23-10.33,8.36-9.38,19.66-9.32-11.3-.06-13.19-1.84-13.47,6.25.28-8.09,1.33-7.27,11-5.81-9.65-1.46-10.17-2-19.25,8.21,9.08-10.25,9.58-9.68,19.13-8.11-9.55-1.57-10.61-2.43-11.07,5.71.46-8.14,2.87-6.17,15.9-8.71-13,2.54-13.32,2.54-1.5,2-11.82.57-13.44-.68-16.87,8.78,3.43-9.46,3.07-10.13,8-4.87-5-5.26-4.73-5.54-15.8,4.56,11.08-10.1,10.43-11.37-1.66-1.73,12.08-9.64,11.44-10.81-.57-1.48,12-9.33,12.72-8,.65,1.67,12.06-9.68,12-8.49-10.14-.19,22.17-8.3,22.59-9.13,6.72.45,15.87-9.6,14.09-11.52-6.41-3.44,20.49-8.09,22.63-5.51,4.11,3.95,18.48-9.44,18.13-8.19-4.48.47,22.27-8.67,9.49-6.39-9.42-1.43,20.61-4.56,31.61-7.52,9.09.85,22.32-8.53-.63-8.2-14.79-5.81,13.44-2.52,28.09-1.63,7.55,4.58,19.35-5.82-4.92-1.24-14.42-1,8.77-.29,13.66-3,5.88-.58,5-4.2-4.95-3.63-10.66-3.91,7.35,1.77,0,3.42-5.57,5.88,3.52-2.86,6.22-5.17,5.09-5,1-1-1.79.54-5,3,3.76-2,1-3.74-1.8-3.55-.34.75-4,2.48-6.93,5.52.08-3-1.67-4.47-4.06-4.52s-5.41,1.27-7.87,3.73c-2.1-4.48-8.41-3-10.92.79,4.3-3.76-1.55-4.08-6.68,0-2.55-4.08-8.72-5-9.18-.38-2.37-3.74-6.1-4.27-9.35-2.47-1-2.21-2.7-.33-2.19,2.84-4.26-3.35-8.05-5.29-9-4.09-.58-1.35,1.29.78,5.84,4.1-3.2-3.12-6.2-6.07-7.86-4.77-1.66-2-2.63.49-2.9,3.56-2.95-6.08-4.24-5.67-5.78.91-.08-3.64,0-8.23,1.7-5.12.92-2.93,3.84,1.9,7.85,5.42-4.06-6.36-6-8.43-7.65-2.56-1.2-6.63-2.84-6.76-6.43.12.05-4.88-1.28-13.78-1.87-6.24-1.62-8-3.56-1.15-6.13,4.7,3.09-8.47,1.66-11.66-4.09-3.26,3.15-6.43,4.68-6.84,5.06.07.52-4.92,0,3.34-1.4,7.17,1.76-3.35,2.39-10.9,1.83-6.66-.53-6.46-2.32-7.49-6-1.09,5-9.39,3.45-10.49-3.47-1.23,3.36-9.62,5.48-18.67,3.11-5.67,2.07-13-.7-3.33-4,6,5.52-10.22,5.39-18.16-2.84-7,7.58-11.56,5.61-4.89-1.29,4.92,7-8.82,7.42-7.53,1.19,1.1,4.27-5.69,5.09-3,4.4,2.85.88-2.9-1,3.86-3,6.73,2-2.87,3.78-9.8,2.76-6.89.62-6-.22-9.27-4.81-3.36,6.11-9.1,4.82-10.85-2.83-2,6.92-10.15,8.49-16.31-.14-5.3,8.61-10.57,6.42-1.65.65,7.73,5.29-9.38,5.36-17.23-4-8.34,7.62-9.79,1.66-3-4.46,4.36,4.88-6.15,2.15-2.72-1.86,2.29,2.08.43-2.19,7.51-3.6,11.53,1.36-4,4.89-10.85,2.76-11.64,3.27-4.83,4.6-7.59.38-2.36,4.61-6.5,8.24-10.74,2-3.62,6.89-5.45,3.53,3.15.64,9.32,2.38-6.06,2.27-12.33-3.85-8.9,3.22-5.08-2.9-.54-5.11,3.77,0-2.83-2.47-.66-4.08,2.3a47,47,0,0,0-4,11.13c.4-3.77.5-7.77.55-10.25s0-3.45.16-1.17c-.59-3-1.21-3.3-1.63-1.75a35.7,35.7,0,0,0-.43,9.19c-2.9-8-7.31-11.75-8.81-5.46-3.51-4.1-5.58,3-5.69,9.44-.61-6.49-1.33-11-2.28-6.47-.33-4.65-1.07-.4-1.31,5.89-1.37-6.17-3.8-9.53-6-5-1.07-4-2.83.51-2.81,5.6-1.73-5.09-5.22-8.34-6.5-4.32-1.79-3.69-2.94-.14-1.54,4.32-5.2-6.8-9.68-6.09-5.43,0-3.39-4.26-10.41-8.17-9.39-2.07-5.43-5.64-6.79-4.28-2,2.07-6.64-6.35-19.67-15.84-11.73-.67-10.56-15-11.7-15.07-1.38.67-12.2-15.78-18.57-21.52-11.79,0-7.55-21.52-10.24-22.89-11.18,0,.71-22.89-1.3-22.05-10.66,0,8.06-22.12,8-22.12,0,0,7.58-22,4.72-23.1-8.63-3.52,13.21-19.26,11.19-18.59-6.15-3.39,17.18-14.87,15.27-12,4,6.91,11.17-18.86,10.9-21.46-8.38-10.34,18.31-12.34,19.71-12.63,4.75,4.54,15-17.15,14.19-17-4-4.09,19.28-11.67,19.86-9.35,8.69,9.89,10.94-19.24,7.17-20.79-13-13.26,17.57-10.11,16.19-9.9,2.14,5.07,13.77-15.09,5.22-14.58-8.79-9.11,14.84-2.84,15.48,2.22,9,17.3,6.29-15.08,1-20.2-12.05-20.61,9.82-4.71,11.22-4,3.15,8.32,7.95-12.3-1-13.79-6.94-10.53,6.38,1.72,4.22,10.73,5.64,22.82-1.52-12.09-1.18-21.23-6.84-23.72,3.58-3.44,2.89-1.26,1.59,10.18,1.21-11.44-2.22-13.84-4.46-10.67.71,2.92-1.29,12.11-2.75,24.21,1.14-12.1,2.26-21.11,1.6-24,.68-3-.41-.13-1,11.35.56-11.47.66-14-.34-10.8s-2.73,12.08-5.83,23.47c3-11.39,4.8-19.45,4.88-21.75s-1.52,1.13-5.18,12.76c6.65-23-1.63-5-12.22,9,8.91-14,13.36-22.16,1.63-5,10.89-16.87,2.26-5-5.35,5,9.15-12-2.7-2.26-8.14,0,.37-2.26-5-.09-6.21,0,1.18-.09.47,0-1.63,0h-40c23.73,0,23.71-.09,0-.87,23.71.44,23.48.17,0-2.58,23.48,2.07,22.49,1.47,0-4.23,22.49,4.58,19.73,3,0-5.86,19.73,7.05,13.66,2.75,0-7.43,13.66,7,4.12-2.42,0-9,4.12.86,0-6.72,0-10.44V76.54a26.16,26.16,0,0,0,8-1.37c23-16.47,50-19.9,73-1.38,2,1.38,6,1.38,9.3,2.39,3.15.22,6.38.26,9.68.26,3,0,6,0,9.07,0,18-1.23,27-12.21,39-20.45,4-2.74,9-2.74,14-1.37a41.62,41.62,0,0,1,14.23,6.74c2.06,1.42,4,2.92,6.06,4.41,11.85,12.61,27.78,19.94,45.05,21.82a72.81,72.81,0,0,0,17.57-.16c14.09-1.93,23.09-10.17,36.09-12.91,19-4.8,40,2.06,61.35,2h7.12c16.27-.49,32.88-2.48,49.53.84a78.78,78.78,0,0,1,10,2.68c22,2.07,30-16.46,45-24.69,8-4.81,16,.68,21,4.8,8,8.92,18,15.78,32.69,16.3,3.14.07,6.28.07,9.43.07,3,.28,5.76.38,8.6.5,18.28.28,31.28,9.2,45.28,16.75,7,3.43,15,6.86,22,2.75,12-6.87,20-21.27,39.45-20h34.6c19.95-1.27,26.95-15.68,40.95-23.92a16.48,16.48,0,0,1,14-.68c16,7.54,21,22.64,41.58,24.57,2.93,0,5.86,0,8.78,0,24.64,2.84,43.64-10.88,67.64-14.31,4,0,8-.69,11,.68,9,5.49,17,13,30.28,13.56,3,.07,6,.07,9,.07h47.73c3.15,0,6.3,0,9.45,0,6.59.8,12.59-.57,18.59-2.63,27-11.66,72-15.78,88.27,7.21a33.75,33.75,0,0,0,7.95,5.43c22,10.7,50-7.36,75.07-16.45l10.13-1.85c10.14-1.84,20.33-3.6,30.58-4.63,5,0,12-1.37,14,1.37,10,11.67,28,11.67,44.4,11.57h39.94c2.19.16,4.32.28,6.5.48,26.16,2.36,45.16,25,69.16,19.52,10.83-2.86,14.72-15.25,26.53-19a24.35,24.35,0,0,1,8.15-1c21.32,1.46,30.32-13,45.32-20.5a57,57,0,0,1,7-1.37c3,25.39,1,50.09,1,75.67v1649c0,4.92-.16,9.7,0,14.22a102.67,102.67,0,0,0,0,13.13,70.92,70.92,0,0,0,0,12c-.28,2.07-1.31,5.92-1.15,8.76-.91,2.81-.56,4.77,1.15,3.08-1.71,4.79-8.08,12.22-6.19,16.11-4.49,3.31-.72,4,6.19-5.7-4.68,7.14-20.43,15.38-10,16-13.2,4.06-16.49,5.94-1.08,3.7-13.59.94,4.87-4.59,11.12-10.81-6.25,6.39-28.33,13.2-12.56,13.37-18.11,2.51-19,3.31-.36,2.17-16.56.09,6.23-3.82,12.92-8.14-10,6.55-35,9.82-15.15,10.66-19.88-.23,4.82-1.06,15.15-4.82-10.33,3.79-35.43,4.9-15.43,6.21-20-.89,4.87-.29,15.43-2-10.56,1.72-35.51,1.31-15.51,2.88-20-1.32,4.89.12,15.51-.31-10.62.44-35.49-.9-15.53.76C1442.66,1869,1467.52,1870.66,1478.15,1870.66Z" transform="translate(966.56 309.33)"/><g class="cls-4"><g class="cls-5"><path class="cls-6" d="M2008,130.18c-10.47-.59-20.06,2.74-18,8.65,6.28,16-16.53,23.54-32.77,32.2-17.4,9.1-38.13,15.45-54.94,24.55-11.69,6.65-19.5,7.94-32.2,5-19.2-2.88-38.69-5.33-58.77,5.06-9.09,4.91-20.36,7.51-29.3,3.46-8.24-3.89-.73-10.1,2.3-15.88,8.67-17.33,21.23-36,10.4-52.69-7.07-10.69-6.79-20.08.57-32.63,7.66-13.44,13.58-24.56,39.42-28.88,3.33-.29,6.93-2.75,7.51-4.2,5.63-13.13,16.46-27.85,3.9-39-12.42-11.56-24-21.08,1.45-34.23,5.19-2.3,3-7.21,2.31-10.82-3.18-5.49-1.6-10.39,6.21-14.73,20.93-11.69,12.55-28.59,27.57-41.29,4.62-4.33-.14-10.54-7.94-10.69-29.17-4.61-36-19.49-47.65-32.63-17.75-18.91-5.91-32.35,31.77-35.66,38.27-3.9,38.4-3.76,48.94-24.41,2.46-4.32,10.47-7.94,7.37-13.71-14.88-7.51-34.51-9.68-54.72-10.54-16.75-.43-23.1-5.78-24.4-15.17-.72-18.61-6.08-36.81-46.65-38-8.22-.14-12.4-3.75-14.28-7.64-6.65-11-22.53-17.48-39.86-21.53-22.09-5.76-28.44-15-24.11-29.45.44-1.58.44-3.18.72-4.76H1611.56c4,1.73,6.78,4.18,15.08,3.33,41.72-5.21,48.51,12.4,54.14,28.87a182.6,182.6,0,0,1,10.11,45.91c3.9,19.93,19.78,28.87,52.84,31.33,59.78,4.77,78.41,40.86,37.54,70-2.6,3-6.78,5.48-9.52,7.64-23.83,19.35-20.36,24.54,6.64,38.26C1801.2-72.4,1800.18-49,1832.1-40.77c3.31.87-3.75,6.78-6.07,10.39-13.58,20.93-22.82,42.89-20.79,62.38,6.5,44-35.23,78.25-71.9,113-18.2,17.48-31.18,35.38-21.51,49.83,10.82,14.72,34.51,28.58,62.23,30.75,28.15,2.74,52.84,7.94,78.68,12.7,16.33,3.61,33.21,3.76,50.83-1.73,23.17-7.66,47-10.69,71.83-14.72,39.06-5.64,48.37-14.45,37.39-34.66-11.69-21.51,9.32-38.26,53-40.57,18.41-.58,36.46,3,55.38-1.73-7.3-11.84-25.34-16.32-46.71-15.32C2052.21,130.61,2030.41,131.62,2008,130.18Z" transform="translate(966.56 309.33)"/><path class="cls-6" d="M2121.16,144.91c-22.38-6.93-48.23-1.88-72.56-3.33-3.46-.57-9.31,1.16-14.22,3.33-38.77,13.71-44.76,24.39-29.53,46.05a61,61,0,0,0,4.7,5.34c6.27,7.94-.52,12.85-14.29,16.9-4.63,1-9.1,3-13.73,2.88-31.32,2.61-60.42,8.09-88.22,18.2-10.24,3.32-20.64,3.17-31,1-29.32-5.2-52.41-19.49-90.25-12.7-5.91,1.43-9.52-2.75-13-5.5-7.22-8.37-8.8-20.06-34.36-16.16-1.31.58-7.66-3.47-7.22-5.93.58-12.85-2.75-28,12.85-38.26,17.76-11.83,26.85-25.4,41.29-37.67,20.07-17.2,23.67-37.11,43.17-54.16,5.92-5,8.09-12.85,4.47-17.61-21.36-21.66,19.07-45.63,7.08-67.86-1.3-3.18,5.49-6.79,11-10,20.21-14.15,20.21-14.72-4.91-21.22a122.52,122.52,0,0,0-17.32-4.62c-10.55-2.31-17.76-5.92-10.55-13.71,11.12-13.72,1-17.33-19.91-20.51-27.15-2.6-29.6-9.09-11.27-24.39a239.67,239.67,0,0,1,33.51-22.39c38.11-22.23-9.25-35.23-9.39-53.41,1.15-9.24-12.72-14.6-30.33-14.88-9.24-.14-18.91-.14-27.87-.87-27.14-1.58-33.48-5.63-35.94-21.66-3.47-17.18-8.52-34.79-11.56-52.69-2.31-11.27-11.9-19.36-20.64-28.45h-97.89c10.82,9.39,26.57,16.6,50.53,18.91,41.73,5.06,46.63,16.47,25,39.42-20.35,21.95-16.6,42-1.58,61.22,14.43,17.76,42.45,5.64,64.11,4.76,19.34-.28,39.85-2.73,48.94,9.67,8.23,12.29,4.91,25.14-9.37,36.68-9.11,8.09-21.38,13.43-36.11,17-15.45,3.9-28.45,10-39,18-11,7.79-23.24,15.73-12.4,25.56,9.67,8.65,24.39,9.09,40.72,4.32,8.22-2,17.75-8.37,24.24-2,6.36,5.76-4.91,10-9.67,14.3-32,26.12-22.53,40.42,24.69,41.14,58.33,1.16,71.62,17.33,40.28,48.36-10.54,11.27-14,20.81-11.55,32.5,5.34,21.22-2,27.86-37.11,36.09-17.61,3.9-25.4,9.09-14.58,17.33,15.16,12,7.66,21.22-9.67,33.06-34.65,24.54-29,52.26,3.32,70.46,36,20.79,88.22,19.92,132.11,30,42.16,10.25,90.53,10.25,140.57,4,12.92-1.58,22.51-1.29,26.84,4.91,9.25,13.72,24.48,25.41,31.92,39.71,6.78,15.45,13.57,31.33-27,42.45a19.12,19.12,0,0,0-11,7.51c-20.21,25.41-39.57,50.38-85,66.13-5,1.58-9.6,5.77-8.16,8.95,4.18,11.84-11.12,22.38-16.61,34.22,21.81,1,42.32-4.48,51.62-16.17,15-20.51,40.07-34.36,72.34-46.2,18.41-6.94,29.31-14.73,21.23-26.57-7.66-10.12-3.54-17.33,16.89-25.12,21.3-7.94,30.61-20.08,28.08-33.79-2.31-17.77-10.75-34.65-23.68-51.26-6.57-9.24-6.28-17.47,7.29-26.42,14.59-9.53,25.2-22.1,42.45-31C2143.82,180.42,2147.29,161.37,2121.16,144.91Z" transform="translate(966.56 309.33)"/><path class="cls-6" d="M2020.08,248.14c-2.46-7.51-13.57-9.09-24.17-4.61-23.32,10.09-46.13,8.79-65.41,5-21.31-3.89-44,1.87-65.77-1.58-32.77-5.06-58.91-23-100.79-15.31-2.88.58-6.93-1.45-8.79-2.6-12.57-7.94-30.18-13.14-43.75-20.51-23.11-11.54-19.5-42.15,5.62-58.47,35.52-22.09,35.81-22.09,6.35-42.15-1.3-.45-.42-2.6-.42-3.61,45-4.63,71-17,61.07-37.84-10-19.48,7.22-32.77,16.16-48.65,2.32-3.18,5.93-5.64,7.08-8.67,13.15-19.48-13.14-40.57-48.22-36.38-21.37,2.45-43.31,4.33-50.24-6.94-7.23-12.12,8.94-21.79,27.87-29.3,13.85-5.34,15.58-12.42,4.9-19.78-9.53-6.36-18.48-10-30.76-.3-5,3.48-10,6.36-16.89,7.51-10.24,2.9-16.9-1-23.54-4.18-5.18-2.16-8.23-6.79-2.15-10,16.45-7.94,23.24-22.81,49.08-25.26,38.84-5.34,68.87-33.49,56-61.94-4.48-9-10.54-13.87-26.14-14.15-21.21-.29-42.3-2.6-64.53,4.19-11.27,3.6-19.92,3.6-26.85-3.61-18.48-18.2-15.6-44,11.54-63.83,13.87-9.52,15-17.9,3-26.55-8.23-6.51-17.18-14.3-30.45-14.3-21.88-.29-36.18-5.78-47.37-13.72H1434.31c5.64,2.75,9.69,5.91,19.64,7.66,23,3.89,44.19,5,67.86-3.9,15.45-5.49,33.78-4.91,36.83,6.78,4.47,21.94,33.21,34.79,43.88,54.14,5.63,8.09,11.84,15.31,9,24.84-4.63,13.28-2.32,25.85,2.6,38.7,4,8.51,3.61,17.32-5.5,25.54-19,15.75-13.7,34.81-26.55,51.84a5.91,5.91,0,0,0-.3,9c15.74,14.3,23.39,32.19,47.79,40.85,28.59,11.12,32.63,27.29,22,45.63-6.63,13-.14,18.35,17.33,22,6.92,1.16,12.7,4.34,18.19,6.64,18,6.06,26.14,2.88,28.44-10.54,3.33-14.73,9-18,30.61-15.45,6.21,1,11.12,3,16.75,3.46,11,1.17,24.41,0,23.69,9.68-1.16,9.1-3.48,16.89-21.38,20.79-21.37,4.33-30.18,14.58-37,26.57-5.76,10.69-14,21.66-32.05,29.3-5.62,2.61-12.55,6.51-13.7,11.12-3.33,10.26-12,12.85-26.57,9.54-10.54-1.73-16.18,4.18-12.57,7.51,14.59,12,1.3,18.91-13.57,28.43-16.31,9.68-17.18,20.23-1,23.26,25,4.91,33.06,16.6,39.42,30.17,15.45,28.15,59.63,36.39,93.71,50.67,30.6-3.31,44,13.87,71.89,14.3,2.89-.15,8.09,2.6,8.52,4.77,4.33,9.53,19.21,11.83,28,18.19,7.51,6.21,18.18,6.36,30.17.43,16.46-8.67,32.13-15.3,49.82-5.77,3,1.58,9.16,1.58,13.57.28,20.93-6.78,27.22-.85,30.17,8.82.65,5.18,11.63,7.79,9.6,14.72-24.82-1.88-44,6.21-60.63,16.9-6.94,3.74-13.22,8.52-6.44,14,11.42,10.68,9.47,21.22,1.31,34.66-12,21.36-19.36,26.27-54.44,24.82-5,0-11.25-2-14.58,2-5.63,6.21-11.27,12.85-13.28,19.35s9,6.79,15.88,9.09c18.48,4.19,15.3,13.86,12,24-3.46,10.54-18.34,9.82-28.88,13.57-12.85,5.06-22.51,0-34.93,1.16-9.39,3.46-17.33,8.23-22.82,13.86-6.49,10.68-17.61,19.92-31.62,27.86-26.85,14.72-50.82,30.9-67.85,49.53-8,8.09-19.65,12-33.22,15.3-30.61,6.79-60.35,15.3-92.41,20.21-24.54,3.33-57.32,7.94-63.23,33.79-2.74,11-15.88,7.8-21.09,2.32-7.21-8.53-19.06-10-34.51-5.21a62.37,62.37,0,0,1-24.39,2.31c-22.67-2.46-36.82,5.63-47.79,19.78a112.77,112.77,0,0,1-42,36.68c-7.52,3.46-11,8.8-15.31,14.29-6.65,7.8-7.36,19.93-24.11,20.8-16,1-36,.43-40.14-11-8.52-24.12-41.45-24.56-70.32-28.17-20.21-2.88-26.85-16.31-45.63-20.21-7.51-1.88,1.73-13,3.18-19.78,1.16-9.52-3.18-16.75-16.75-16.31-21.81.28-35.23-6.5-49.66-13.87-27.59-13.72-63.25-.57-71,24.84A29.47,29.47,0,0,0,1027,623c33.36-14.6,46.2,10.39,73.5,8.22,6.78-.86,13.29,1,16,5.78.73.86.58,2.45.58,3.61,1.88,13.86.73,26.85,13.87,39.26,16.46,17,12,21.09,46.2,13.3,18.91-3.61,37.39-3.33,46.35,5.76,8.65,10.54,22.23,17.91,32.77,26.87,19.78,15.73,68,5.76,75.52,32.78.72,1.28-1,.42,2.31.42,14.57-.42,21.94,4.48,28.59,11.7,8.94,9.24,24.82,5.48,37.54-1.15,16.45-9.39,36.09-18.63,32.91-34.36-1.73-5.21-8.37-7.23-16.6-6.79-19.93,1.86-36.24-2.32-54.43-4-11.26-1.45-26.28.29-25.26-11.27,1.58-9.95,8.94-19.63,23.81-24.82,17.76-6.66,32.78-17.63,52.56-21.38,15.59-3.46,16.74-9.67,11.7-19.19,20.64,6.92,42.45,2,62.81,2.45,24.82.28,44.9-9,55.87-24.56,12.7-18.76,31.9-24,56.89-26.7,36.09-3.75,69.59-14.87,102.36-28.3,33.8-14,51.11-36.68,79-54.29,6.5-4.33,10.69-11.41,20.51-9,31,6.94,36.23-9.09,48.08-20.49,9.24-7.08,22.23-12.56,32.2-20.08,4.91-3.88,8.66-9.09,16.88-11.39,6.06-4.63,12.27-8.82,18.28-13.43,6.64-4.48,11.54-9.39,6.64-14.15-11.63-10,1.65-13.87,15.87-17.47,16.53-3.91,31.76-8.39,34.29-19.64,3.11-9.68,11-16.47,26.79-20.93,8.16-2.46,12.42-6.21,10.47-10-7.29-13.72,11.76-19.21,29.45-24.11,12.06-3,24.47-8.09,21.23-15-5.49-10.67,0-23.52-10.83-33.2C2039,275,2027.09,262.58,2020.08,248.14Z" transform="translate(966.56 309.33)"/><path class="cls-6" d="M-400.67,694.87c10.55,15.73,29.46,22.38,60.79,18.18A64.84,64.84,0,0,1-310,714.8c6.93,1.58,14.15,2.73,19.49,5.76,24.26,28.6,42.16,31.91,92.83,17.48,8.09-3.33,14.74-1.73,21.38-1.15,15.3,4.76,41.15-15.75,48.66,2.15,5.63,13.58,25.27,19.21,27.57,33.21,6.64,38.26,6.64,37.54,59.78,34.66,20.93-1.16,34.94,5.78,35.08,22.38C-4,837.51-9.68,845.6-12,854.12c-4.34,11.56-1.73,20.65,10,26,10.82,5.2,23.82,3.47,36-2.31C57,866.53,83,857.87,96,836.51c3-5.06,8.67-9.24,15-13,7.66-4.76,16.6-8.09,24.69-3.75,6.65,4,4.91,9.81,1.45,15.74-2.75,4.61-5.78,8.67-8.52,12.85-14.15,24.39-5.2,40.57,19.92,51.39,26.28,10.84,62.52-5,94.72-22.37,14.58-8.09,38.12-16.9,39.85-32.35,1.45-16.75,14.3-21.51,31.76-26.85,8.53-2.75,15.89-6.64,24-11.26,35.94-21.09,57.75-20.21,77.66,4.33,7.66,8.66,15.17,10.25,30.18,5.91,32.78-9.37,60.94-27.14,85.62-45.76,18.35-14.29,36.25-23.68,59.07-27.59,10-2,20.21-4.18,29.45-8.94,51.69-26.85,111.31-29.6,165.75-51.11a31.89,31.89,0,0,1,11.55-.73c24.11,2.18,39.71-6.78,54-22.51,9.82-11.12,21.09-22.09,30.33-33.79,15.3-20.5,39.13-33.5,68.59-34.22,24.82-1,41.57-9.53,55.59-25.12,4.76-5.21,10-13.72,18.76-11.55,22.09,5.34,51.69,4.46,60.65,21.36,8.94,18.76,29.3,21.94,56.3,20.51,19.35-.72,36.68-.44,45.77,13,6.21,9.09,22.52,6.19,36.54,3.6,43.6-6.78,80.56-25,116.07-46.2,32.78-19.93,60.36-22.68,89.1-10.26,7.36,3.18,16.16,4.33,24.69,4.33a31,31,0,0,0,13-3.89c3.62-1.74,7.81-4.62,11-2.45,27.27,20.93,61.35,25.4,108.13,8.94a54.22,54.22,0,0,1,16.18-3.46c28.72,0,52.11-12.13,75.22-24.41,13.43-7.36,26.85-14.28,42.6-18.91a285.76,285.76,0,0,0,25.27-14.29c4.33-3.61,8.94-7.07,14.43-11.4,2.45-.87,4.05-2.75,5.78-4.19,3.89-3.62,10.39-7.37,16.16-11a24.36,24.36,0,0,0,7.23-7.22c6.78-9.81-12.72-18.76,7.36-29.17,16.31-8.79,20.06-19.34,19.06-30.31-.15-16.75,6.78-32.92,32.63-45.62,1-3.48,3-6.51,8.94-8.39,15.9-13.57,3.63-19.2-12.55-21.79-19.93-2.32-41.15-1.45-58.62,10-6.21,3.88-5.06,8.51,0,11,23,11.54,8.23,23.81-9.24,35.23-15.6,9.67-24.26,19.49-24.69,31.9.57,5.49-3.91,13.13-15,8.8-16.31-6.78-43.61-11.55-41.43-26.7,3.31-22.38-45.63-21.81-39.86-44.9.44-1.88-8.67-3.18-13.86-2.75-21.36,2.75-46.35-.28-60.2,17.62a15,15,0,0,1-13.57,5.34c-13.58-1.88-26.29-5.34-29.9-14.73-2.3-8.08,5.49-14.72,16.75-20.93,24.12-13.87,53.42-20.66,82.3-29,20.5-5.92,33.2-6.78,39.41,5.77,2.46,5.78,6.51,11.84,20.23,8.81,11.4-1.87,19.34-7.51,19.49-14.15,2-11.69,13.85-18.33,29.6-24.24,13.85-5.78,26.42-13.72,23-23.69-2.9-9.82-19.21-13.14-33.8-11.84-44.61,4.33-62.51-12-81.87-28.73-14.15-13.14-29.6-23.39-61.5-8.81-9.82,4.18-18.76,3.18-25.27-1.58-6.21-5.21,1.73-9.54,8.38-13.44,19.34-11.25,16-24.1,13-35.8-2.73-10-1-19.35,1.31-29.74,5.2-22.54,12.27-45,15.59-67.57,4.76-23.54-17.9-45.63,7.66-71.62,5.34-4.91,3.17-12.42-4.2-17-24.24-14.58-34.36-36.81-62.36-50.38-17.18-7.94-14.87-18-10.26-32.92,9.11-30.9,60.8-62.95,4.48-95.15-23.24-12-41.44-25.55-73.93-26.7-38.26-1-63.1-7.81-73.92-32.5-7.36-16.46-20.21-34.79-58.18-32.06-13.44.45-24-4.33-27-12.41-1.44-3.46-5.19-5.92-7.79-8.95H1210c5,5.49,10.68,10.82,18.62,14.87,23.53,12.42,38.41,27.15,40.86,47.51,1,15.58,13.14,25,42.3,19.06,11.27-2.46,20.8-.15,26,6.34,7.51,12,24.55,16.9,42.89,20.8,18.34,3.61,28.44,12,35.22,22.24,13,19.19,28.74,36.52,18.48,59.91-3.18,6.65-.57,12.71,6.06,17.77,28,19.19,30.48,45.48,39.29,69.72C1485-15.36,1477.49-3.38,1446.88,1c-19.93,2.6-31.62,10.39-23.39,22.38,10,13.28,12.57,28.45,18.33,42.88,7.37,17.62,20.21,30.75,57.47,24.84,13.43-1.73,26,1.3,38.41,3.18,4.32.72,9.38,1.45,14,2.45,5.76,13.72-15.17,17-27.87,20.64-27.43,7.81-39.42,20.36-39.72,37.11C1484,168,1476.18,180,1462.48,191c-16.9,12.85-16.47,23.39-2.46,33.51,10.68,8.37,19.06,16.16,10.83,30.88-6.94,12.85,14.87,22.54,37,18.2,6.93-1.59,13.72-7.65,26.14.86-39,1.88-60.8,23.69-93.86,30.18-23.39,5.2-28.72,15.6-12,24.26,13,7.66,11.57,15.88,4.34,26.27-16.61,24.26-26,49.24-42,73.22-14.59,20.93-42.31,39.27-46.78,62.23-.15,1-2.75,2-3.9,3-28.88,18.33-56.32,38-89.81,50.81-39.86,15-82.88,20.22-116.09,10.4-23.53-7.51-47.07-17.46-70.31-27.58-32.34-14-37.82-13.42-72.91,8.24-22.53,13.85-46.35,32.33-70,37-40.57,7.65-65.26,27.58-91.1,48.22-7.51,5.2-15.73,9-25,8.53-44.9-.15-83.61,18.48-120.43,40.42-9.52,5.91-19.48,10.39-30.75,11-23.54,1.6-45.77,10-66.71,19.63-16.45,7.51-31.33,12-48.66,13.15-26,1.45-48.21,10.39-61.21,30.17-15.89,25.42-18.77,25.85-52.13,23.25C383.78,763.45,341,766,297,784.39c-33.06,14-67.84,5.62-102.35,19.06-.88.28-3.61-1.16-5.06-1.3-31.05-12.14-66.86-10-104.83-4.34-15.59,2.16-30.9,2-38.84-8.38-6.93-9.67-16.45-14.86-33.2-14.86-8.81.28-17.48.14-11-11.41C11.55,746,.72,726.77-17.62,719c-35.81-14.59-77.38-22.53-117.52-32.2-10.82-3.33-22.67-5.91-35.81-2.75-25.55,6.5-49.38,5.35-74.78,5.63-43.75.3-73.07-18.61-111.33-25-5.92-.72-9.67-5.2-11.27-9.54-4.61-17.46-17.31-26.7-32.34-33.34Z" transform="translate(966.56 309.33)"/><path class="cls-7" d="M-400.67,626.86C-390.55,632.21-383.49,640-381,650c5.06,19.49,22.66,26.57,44.47,28.73,18.63,2.31,35.66,5.49,47.08,14.3,19.63,13.28,53-5.92,72.75,6.21,2.75,1.88,11.7-.73,18.63-1.73a27.47,27.47,0,0,0,2.61-.87c19.2-11.27,36.81-8.37,53.71-4.91,16.46,3.32,30.18,10.54,45.63,12.42,20.06,2.3,40.71.57,48.51,16.3,1,1.6,4.9,2.75,7.79,2.33,26-4.63,28.59,11.82,38.56,21.66,4.9,5.61,8.36,11.25-8.09,18-10.84,4.76-8.52,14.15,1.3,17.76a38.05,38.05,0,0,0,20.21.58c14.58-2.59,23,1,25.55,11.56,1.6,8.94,10.54,12.27,22.53,12.12,11.12.3,22.82.15,35.37-2,32.49-5.34,65.7-7.37,91.12,6.65,7.36,3.89,14.72,4.47,23.82-1.3,13-9.82,27.57-11,41.72-9.54A90.4,90.4,0,0,0,307,786.4c10-5.63,20.65-9.82,31.62-9.82,32.21-1.87,66.85-11.12,96.89-1.73,15.58,4.91,39.27-6.78,44-18.33,12.27-28.15,30.62-38.56,69-37.69,11,.43,18.77-2.45,27.87-7.51,25.84-12.7,52.41-26,82.86-25.27,11,.3,19.65-6.06,29.47-12.12,33.78-22.09,71.32-40.57,114.64-38.56,8.52.45,19.34,2.32,22.95-3,11.12-16.31,35.38-24.54,48.52-38.69,7.65-8.37,15.31-11.84,25.7-10.25a47.43,47.43,0,0,0,34.94-9.53c23.24-16.46,51.69-27.58,75.22-43.89,15.88-11.56,21.81-10.83,38-2.6,11.7,6.06,22.68,13.13,38.84,14.58,14.3,1.6,25,5.78,30.47,15.17,2.89,4.91,8.22,7.79,17.61,7.36,25.42-1.3,51,0,75.81-4.2,17.47-2.88,40.43-1.58,53.71-18.18,31.05-6.94,47.5-25.27,69.74-40.42,3.18-2.47,9.24-3.63,14.43-4.48,7.81-2,12-5.49,10-10-6.93-15.15,6.94-27.87,25.12-40.72,6.66-4.33,15.17-8.94,14.75-14.87.57-12.42,7.21-23.67,19.91-34.79,4.91-4.48,7.66-9.68,6.36-14.44-1.88-5.06.28-9.39,5.91-13.72,9.39-7.8,10.69-16.74,16.32-25.27,7.22-9.67,5.19-15.3-9.53-17.61-8.22-.58-15.88-2-13.43-8.24,3.18-7.49,14.3-8.94,23.39-9.52,13.28-.15,25.85-2.75,33.94-11,9.38-9.39,18.18-15.89,37.25-12.14,9.38,1.88,16.16-4.46,21.94-9.81,4.48-3.89,6.07-8.52,2.46-11.85-6.51-4.91-16.18-2.88-26.14-1.15-8.22,1.15-10.68,9-21.94,9.82-2.6-7.5-38-6.35-7.08-24,5.35-2.31,1.16-6.79-1.73-9.67-8.09-6.36-12.56-15.6-24-21.36-11.4-5.49-10.69-11.12,2.6-20.08,16.75-12,31.33-25.27,29.31-42-2.16-18.48,3.9-22.8,34.5-32.19,19.06-5.63,36.26-13.42,41.3-26.42,3.18-6.36.87-11.84-12.42-5-5.19,2.6-10.68,3.75-14.43.14-14.15-6.21-31.33-10.54-50.39-6.21-21.38,5.92-27.87-.57-35.53-9.53-14.15-19.49-9.67-43.9-28.87-62.51,0-.88,2.45-2.46,3.18-4.05,11.26-2.74,22.53-2.61,33.93-5.49,27.42-7.36,24.11-6.49,25.41-24,1.88-27.57-24-48.65-23.11-76.08.58-3.75-4.33-5.63-9.81-5.93-23.39-1.15-18.76-12.85-14.3-21.79,10-15.9,3.33-28.31-6.79-41.3-3-4-8.22-7.23-9.81-12.42-4.47-17.32-22.24-27.29-49.09-31-15.6-2-28.73-4.76-33.06-16.89-5.2-16-6.65-16.62-32.92-8.53-19.49,5.35-28.73,4.91-30.91-7.5-1.3-4.19-5.63-7.95-4.33-12.28,5.64-18.91-12.7-29.88-31.18-39.42-9.24-4.91-17.18-9.95-23.39-15.73H-400.67Z" transform="translate(966.56 309.33)"/><path class="cls-6" d="M-400.67,601.46c27.58,3.16,55.15,6.49,82,9.81,34.36,4.76,41.72,11.25,34.08,38.4-2.9,9.24-1,15.74,6.49,20.08,10.69,5.63,20.64-2,29.6-6.66,8.36-3.46,6.63-8.51,2.45-12.27s-11.27-7.21-3.61-13.7a36.09,36.09,0,0,1,27-8.53c18.78,2.17,32.2,9.38,41.72,20.65-3.6,2.88-4.91,4.76-8.22,6.36-6.65,3.89-19.05,6.06-14.29,14.15,3.6,6.34,13.27,1.3,19.91-1.6,21.53-11.4,40-8.37,57.91-4.61,7.94,1.58,17.18,2.73,24.68,4.91,21.81,6.63,49.38-2,70.32,5.19,7.36,2.6,14-1.16,20.21-5.34,9-5.64,16.47-5.64,25.41-1.45,29.9,12.42,37.84,10.54,67.44-10.54,1-.58,3.89-.28,6.78,0,1.16,7.23-5,13.14-8.51,20.22-6.94,15.31,5.91,27.28,24.82,25.27,12-1.15,17.63-11.12,26.87-14,11.12-2.73,11.25,13.44,27,6.21,1.31-.57,4.34-1.58,5.49-1.15,27.29.15,56.32-1.88,61.22,22.81,1.73,7.81,9.95,7.94,20.07,7.22,9.24.29,16.9-9.37,26-5.62,3.61,10-11,15.16-16.9,21.94-13.28,14.45-14.87,14.15-31.76,6.49-3-1.58-6.78-3.31-9.68-3.16C196.37,745,184.1,739,171,734c-12.85-4.62-18.91-1.73-24.26,9.68-8.52,16.46,3.33,27,14.16,34.07,9.67,5.93,24.83,11.56,45,2.6,16-7.36,37.26-17.33,52-14.88,19.21,4.2,35.81-3.45,53.72-5.33,6.21-.15,13.42-3.46,20.21-1.88,16.9,3.46,30.47-1.88,42-14.73,9.67-10.69,21.51-12.27,33.48-7.94,9.11,3.18,19.51,5.06,30.77,2.31,8.52-2.31,17-5.91,12.27-13.14-5.5-8.8,1-17.61,6.06-25.85,9.53-13.27,9.53-13.42,24.12-8.66,11.25,3.75,21.64,11.69,33.78,7.08,23.39-8.81,49.52-9,68.44-25.12,4.91-3.47,10.4-8.23,16.61-7.23,12.55,3.62,24.54-4.33,36.38-5.62,22.37-2.45,40.57-17.19,63.67-16.17,9.24.15,16.32-6.21,20.65-13.57,6.21-10.84,15.16-15.17,32.05-16.33,21.22-.57,43-7.21,63.54-19.78,16.16-10,34.36-18.61,51.68-27.72,7.94-3.46,14.15-4.76,21.37-.43,14,9,15,7.51,25.84-5.06,18.48-19.48,30.18-41.57,55.74-58.9,7.94-5.63,13.13-14.73,24.4-16.75,15.88-3,12,9.82,18.63,14.44,13,10.1,47.06,10.68,61.78.43,7.66-5.63,7.37-11.84-2.3-13.42-9.82-.43-20.36-.3-30.76-.73-26-.72-28.87-4.62-9.67-18.33,19.34-13.87,31-28.3,38.55-44.19,2.3-5,4.63-9.52,11.69-11.7,23-6.49,46.65-12.55,70-18.18,7.36-2,11.4,1.73,16.74,3.75,6.07,2.16,8.53,7.37,17.62,5.92,29.3-23.25,55.87-48.08,96.16-64.69,15.58-6.34,28.45-14.29,47.36-13-1-3.89-.73-6.79-3-7.65-27.3-15.17-18.93-34.93,2-55.59,12.71-13.14,19.5-27.29,22.23-41.72,2.9-13,6.08-25,23.26-36.11,11-6.92,10.82-14-4.33-16.88-18.48-3-31.77-10.26-35.23-22.81-3-12.42-5.78-24.12-21.37-32.64-8.09-3.47-8-13.72,6.34-17.18,26.87-6.21,34.23-19.93,42.17-33.07,9.24-17.18,15.73-34.36,44.76-45.48,3-1.3,6.78-4.76,6.21-5.91-4.34-13.29,13.57-20.21,27.29-28.45-6.79-4.48-11.84-8.37-17-12.27-17.9-16.46-45.76-28.45-49.66-52,0-4.34-6.21-6.21-13.43-5.77-12.56.28-24.41.71-38.26,3.61-16.46,3.75-26,18.91-43,17.75-16.9-.57-12-18.48-30.48-20.06-1.73-.29-3.31-.29-3.17-1-4.19-1.73-6.5-4.76-1.73-7.94,14.44-10.39,11.11-24.84,27-35.08,12.14-8.09,11.56-19.21,12.57-28.88,1-10.24-.3-16.32-20.36-18.33-17.76-1.3-33.06-8.81-46-17.63-4.34-2.88-10.4-7.51-3.76-10.82,33.36-15.88,16.46-35.66,22.39-52.84,3.88-12.14-2.75-25.84-19.36-32.93-16.32-7.79-33.21-12.27-58.62-6.49-27.87,6.21-34.21,4-44.61-10.11H965.5c-.28,1.73.87,2.6-.14,4.91-3.47,8.94,3.31,14.87,14.86,18.05,16.18,5.06,25.71,15.45,40.44,21.51,18.05,8.67,17.9,18.77-2,30-16.88,10-36.09,23.82-55.29,9.54-28.88-22.24-71-20.66-112.92-16.18-27.72,3-54.29,5.49-80,4.34-28.73-1-41.87-7.94-31.05-30.33,8.23-19.06-.28-33.5-24.82-41.87h-159c.13,4.76.57,9.54-3.61,14.45-17.9,23.39-15.45,45.9-22.53,69-6.79,16.89,13.42,29.16,2.6,48.22-12.57-2.31-22.81-14-39-.86C478.49-167,467.52-127,469.53-113.4c5.78,29.75,33.51,51.54,35.38,82C506.36-14.06,519.49,2.1,545.34,2.1s23.25,8.09,20.5,22.11c-4.91,26.27,13.58,42.72,41.59,37.24S658.25,56,676.3,69.24c3.46,3.62,10.1,5.78,18.76,1.45,7.23-3.61,6.66-9.24,6.94-14.15C700.7,35,687.42,26.79,654.64,26.79c-12.85.15-26.27.3-31-7.64S632.26,5.28,638.9-1.21c2.89-3.61,6.07-6.64,10.26-8.52,16.75,19.64,74.07,18.19,101.21-4.33,17-14,34.65-19.35,57.33-23.68,47.35-8.95,89.36-19.93,109.58-59.78,11.83-25.27,38.12-30.18,68.29-17.76,19.79,7.66,32.34,2.75,45-10.82,4.91-5.63,2.74-13.72,17.76-17.33,27.87,15.59,53.85,31.91,95.44,34.22,18.18,1.44,11.54,10,1.3,16.6-10.39,6.36-21.23,11.27-19.35,21.51,6.5,30.9-3.18,61.37-22.37,92-7.81,12.42,5.48,20.21,25,16.45C1137,36,1144,32,1151.91,28.39c34.36-16.46,46.48-15.3,53.56,8.37,7.36,27.14,8.09,55.59,6.94,82.88-1,18.48,2.3,29.73,30.45,32.48,6.06,1.16,17.33.29,16.61,9.1C1230.16,167,1215,183.45,1195.65,197c-34.08,22.51-40.86,45.19-42.74,70-1,8.66-6.36,7.8-14,10.11-33.06,8.95-56,23.39-58.92,47.36-3.46,18.48-13,35.66-28.58,53C1031.2,400.9,1033.36,401,1003,392.23c-25.41-8.08-35.8-3.75-45,16.75-6.65,14.73-10.26,30.18-25.42,45-8.38-7.08-1-12.71,2.61-18.63,5.48-7.93,11.54-16.17,1-22.23-8.66-5.34-19.48-1.88-30.17,2.3-16.61,6.79-34.36,11.85-51,11.42-19.2.28-30.75,6.93-42.45,17.76-38.13,35.51-81,68.44-114.93,105.1-4.48,5.06-10.25,9.11-18.06,9.24-12.55.15-22.81,2-31.61,10.54-4.62,4.91-10.26,5.21-16.47,3.33-22.81-5.63-44,6.06-66.26,12-33.51,9.24-50.69,42.73-90.53,42-2.18-.29-4.91,2.75-7.22,5.2-10.54,10-25.26,13.42-38.11,20.21-25.27,13.72-52.71,6.36-77.83,17.48-14.87,6.92-23.11,4-30-3.91-9-11.26-20.65-20.5-41.16-22.66-5.62-.58-8.52-4-12.27-7.51-21.51-24.55-42.45-22.24-69.3,8.66-10.84-10.24-22.09-19.2-43.9-15.3-10.24,1.43-17.18-2.46-23.53-6.79-9.1-6.78-20.5-10.11-35.95-5.35-10,3.05-16.75,2-16.17-6.19,1-16.76-13.29-16-31.63-13.44C17.76,601.88-11,615.74-41.29,621.09c-35.08,5.77-66.71,4-99.49-.87-19.93-3-24.83-16-31.47-27.87-6.35-10.83-17.91-13.13-34.51-5.92-17.33,7.37-35.09,6.64-40.14-2.88-12.41-22.68-37.67-29.17-70.3-31-33.23-2.16-57-16.45-83.47-27.72Z" transform="translate(966.56 309.33)"/><path class="cls-7" d="M567.57-309.33H-400.67V535.9c.88,1.3,3.18,1.15,3.91,2.75,1.3,2.59,10.67,1.86,14,3.31,22.38,11.12,54.87,9.39,73.63,24.11,3.32,3,8.81,2.61,15.17-1.15,20.79-13.57,21.66-5.2,24.11,7.36,5.19,21.66,36.67,31.76,61.08,22.52,24.54-9.52,24.67-9.52,32.33,6.79,4.19,8.38,4.48,18,17.76,21.38,33.07,9.24,70.47,9.37,108,7.49,15.88-11.25,36.39-3.74,51.54-12.7,19.51-11.54,39.87-11.54,59.63-17,10-2.75,13.58,1.15,12,7.79-.72,3.91-2.88,7.94-3.18,11.84-.85,9.67,4.06,12.13,16.76,7.37,27.87-10.25,28.15-10.4,43,2.6,4.91,4.47,10,10,19.78,6.64,23.39-8.24,34.94-1.15,41.44,12.7,2.74,4.77,7.52,8.51,15.88,5.06,7.51-3,5.92-7.07,4.34-11.85-2.46-9.24,6.93-12.85,16.88-15.88,9.68-2.88,24.26-8.08,26.86.58,5.64,16.17,15.88,24.26,39.7,25,8.39-.15,12.87,8.94,18.93,13.85,2.58,3,3.46,6.93,5.48,9.54,4.76,4,12.13,5.91,19.92,7.06,8.09.73,9.83-5.33,14.44-8.66,6.79-5.34,15.16-4.76,23.54-5.34,41.58-1,76.38-14.87,106.56-42.3,5.63-.29,7.94,2.59,11.54,5.19,5.34,4.48,11.7,3.33,16.46-3.75,12.71-18.48,33.35-30.9,58-38.4,21.81-6.36,44.91-21.81,66.29-7.23,7.64,5.35,14.14-.72,17.9-7.79,4.32-8.81,9.37-14.15,22.52-9,12.27,4.63,23.54-3.46,27.72-11.12,8.37-16.6,20.21-29.88,42.45-38.82,3.6-1.6,7.21-5.36,8.37-8.24,10.54-19.35,36-31.18,51-49.38,5.64-7.36,19.21-12.42,24.55-21.09,2.16-3.17,6.21-4.46,10.82-4.76,37.11-2.3,48.95-4.48,74.5-15.3,6.65-3,12-3.61,17.77-1,6.35,3.05,4.76,7.51.43,11.84-3.9,4.91-8.23,9.24-12.85,14.3-5.78,6.06-6.65,12.27-1.87,16.9,3.17,3.76,9.09,4.91,15.73,3,9.67-3,19.5-10,17.75-14-6.21-15.16,18.06-28,15.75-43.31-1.73-10.84,13.13-16,25.84-9.68,9,4.19,19.21,6.5,28.3,10.4,9.52,3.76,18.63.14,22.39-5.63,11.54-21.95,38.84-41.44,41.29-64.83,3-18.63,8.52-36.09,40.13-47.93,7.08-2.9,11.26-7.94,19.2-4.63,5.49,2.75,12.57,4.05,18.2-1,7.07-5.2,7.22-10.24.73-14.15-13.29-6.93-7.08-14.72,3.89-23.39,6.35-4.48,12.27-9.38,5.93-14.57-10.27-8.39,1.72-14.3,12.84-18.06,12-3.75,20.07-8.23,23.54-16.9,6.34-13.42,19.34-23.09,41.87-24.54,5.62-.58,12.55-2.88,17.46-4.76,12.27-4.05,13.58-9.82,3.76-13.14a208.22,208.22,0,0,0-28.73-6.07c-27-3.32-31-6.35-21.66-26.27,2.16-6.06,10.25-12.85,3.18-17.77-12.57-8.65-8.52-21.36-7.66-32.63,1.3-16.31,3-31.33-8.94-45.48-5.36-5.91-1.45-16.31-19.5-14.3-13.43,1.88-28,.73-37.25,11-4.63,5.91-13.87,8.37-21.81,11.69-9.38,3.46-16.3,3-21.51-2.32-4.61-5.19-.57-9.37,7.51-12.7,13.28-5.63,15.45-10.39,5.78-17.32-4.33-3.18.28-7.52,4.34-11.4,11-9,15.87-18.06,8.64-29.9-6.91-10,9.84-25.27-2.73-36.39-1.45-1.58,4.48-3.75,8.23-5.48a176.34,176.34,0,0,0,17.18-7.07c9.82-5.93,14.29-12.85,10.83-20.8-3.33-7.36-12.42-8.22-24.84-4.76-9.52,3.75-17.31-.15-24.4-2.16-24.84-8.23-48.51-17.33-64.53-32.5-3.76-3.74-7.08-8.51-19.21-4.76-3.46,8.39-7.08,17.76-12.57,26.42-9.09,14.6-16,16-31.33,6.64-21.79-13.28-34.65-12-61.21,2.17C913.66-110.52,904.42-100.4,898.8-87c-5.06,12.13-12.27,25.12-33.5,29.45-24.54,3.91-48.36,14.45-74.36,16.76-20.65,1.44-38,8.51-45.47,23.38-3.05,5.06-8.82,11.55-16.62,8.37-14.58-6.64-24.1,2.18-36.24,7.23C673.7,6.88,663,3,664.89-12.18c0-5.93,4.05-12.57-7.51-14.45C639.77-15.08,628.5.67,610.6,11.79c-9.24,6.34-9.52,13.85,2.6,16,16,2.6,28.45,12.7,50.39,3.61,5.35-2.17,14.29-2.6,15.89.86,8.66,10.69,16.6,21.81,11,38.56C667.64,51.35,649,46,624,51.93c-35.66,7.64-50.11,1-51.41-23.11-.72-6.06,4.33-11.84,7.21-17.48C589.23-5.54,583.45-10,559.35-4.09c-12,3-21.23,3.46-25.13-2.75-9.38-12.57-33.06-20.21-19.92-41,3.89-6.08-1.45-11.7-6.5-15.6-14.73-11.27-27.15-24.11-18.62-43.17,2-5.21-.87-9.39-6.78-10.69-18.78-4.76-8.67-14-2.75-24.12,4.18-6.49,12.85-13.27,12.42-20.93-.73-7.94,3.31-16,15.88-17.61,11.54-.87,4.76,10.11,10,14.44,1.58.71,3.61.58,5.91,1,30.48-18.05,30.48-17.33,20.22-35.38-12.28-24.4-3.46-51.39,9.68-77.68C558.78-288.39,566.27-298.94,567.57-309.33Z" transform="translate(966.56 309.33)"/></g><g class="cls-5"><path class="cls-6" d="M1787.88,2395.68c-10.47.59-20.07-2.74-18.06-8.65,6.29-16-16.52-23.54-32.76-32.2-17.4-9.1-38.13-15.45-54.94-24.55-11.69-6.65-19.5-7.94-32.2-5.05-19.21,2.88-38.69,5.33-58.77-5.06-9.09-4.91-20.36-7.51-29.31-3.46-8.23,3.89-.72,10.1,2.31,15.88,8.66,17.33,21.23,36,10.39,52.69-7.06,10.69-6.78,20.08.58,32.63,7.66,13.44,13.57,24.56,39.42,28.88,3.32.29,6.93,2.75,7.51,4.2,5.63,13.13,16.45,27.85,3.9,39-12.42,11.56-24,21.08,1.45,34.23,5.19,2.3,3,7.21,2.31,10.82-3.18,5.49-1.6,10.39,6.21,14.73,20.93,11.69,12.55,28.59,27.57,41.29,4.61,4.33-.15,10.54-7.94,10.69-29.17,4.61-36,19.49-47.65,32.63-17.76,18.91-5.91,32.35,31.77,35.66,38.27,3.91,38.4,3.76,48.94,24.41,2.46,4.32,10.47,7.94,7.36,13.71-14.87,7.51-34.5,9.68-54.72,10.54-16.75.43-23.09,5.78-24.39,15.17-.73,18.61-6.08,36.81-46.65,38-8.22.14-12.4,3.75-14.28,7.64-6.65,11-22.53,17.48-39.86,21.53-22.09,5.76-28.45,15-24.11,29.45.44,1.58.44,3.18.72,4.76H1391.4c4-1.73,6.79-4.18,15.08-3.33,41.73,5.21,48.51-12.4,54.15-28.87a182.51,182.51,0,0,0,10.11-45.91c3.9-19.93,19.78-28.87,52.84-31.33,59.78-4.77,78.41-40.86,37.54-70-2.6-3-6.79-5.49-9.52-7.65-23.83-19.35-20.36-24.54,6.64-38.26,22.81-11.55,21.79-34.94,53.71-43.17,3.31-.88-3.75-6.79-6.08-10.4-13.57-20.93-22.81-42.89-20.78-62.38,6.5-44-35.24-78.25-71.9-113-18.2-17.48-31.18-35.38-21.51-49.83,10.82-14.72,34.5-28.58,62.22-30.75,28.16-2.74,52.85-7.94,78.69-12.7,16.32-3.61,33.21-3.76,50.83,1.73,23.17,7.66,47,10.69,71.83,14.73,39.06,5.63,48.37,14.44,37.39,34.65-11.7,21.51,9.32,38.26,53,40.57,18.41.58,36.46-3,55.37,1.73-7.29,11.84-25.34,16.32-46.71,15.32C1832.06,2395.25,1810.26,2394.24,1787.88,2395.68Z" transform="translate(966.56 309.33)"/><path class="cls-6" d="M1445.7,2019.46c-22.38,6.93-48.23,1.88-72.55,3.33-3.47.57-9.32-1.16-14.23-3.33-38.77-13.71-44.75-24.4-29.53-46.06a59.74,59.74,0,0,1,4.71-5.33c6.26-7.94-.52-12.85-14.3-16.9-4.63-1-9.09-3-13.72-2.89-31.33-2.6-60.43-8.08-88.22-18.2-10.25-3.31-20.64-3.16-31-1-29.32,5.2-52.41,19.49-90.24,12.7-5.92-1.44-9.53,2.75-13,5.5-7.22,8.37-8.8,20.06-34.36,16.16-1.3-.58-7.66,3.47-7.22,5.93.58,12.85-2.75,28,12.85,38.26,17.76,11.83,26.85,25.4,41.3,37.67,20.06,17.2,23.67,37.11,43.17,54.16,5.91,5,8.09,12.85,4.46,17.61-21.36,21.66,19.08,45.63,7.09,67.86-1.31,3.18,5.48,6.79,11,10,20.21,14.15,20.21,14.72-4.91,21.21a121.38,121.38,0,0,1-17.33,4.63c-10.54,2.31-17.76,5.92-10.54,13.71,11.12,13.72,1,17.33-19.92,20.5-27.14,2.61-29.6,9.1-11.26,24.4a238.93,238.93,0,0,0,33.5,22.38c38.11,22.24-9.24,35.24-9.39,53.42,1.15,9.24-12.71,14.59-30.32,14.88-9.24.14-18.91.14-27.87.87-27.15,1.58-33.49,5.63-36,21.66-3.47,17.18-8.51,34.79-11.56,52.69-2.3,11.27-11.9,19.36-20.64,28.45H897.76c10.82-9.39,26.57-16.61,50.54-18.91,41.72-5.06,46.63-16.47,25-39.42-20.36-21.95-16.61-42-1.58-61.22,14.43-17.76,42.44-5.64,64.1-4.76,19.34.28,39.85,2.73,48.94-9.67,8.24-12.29,4.91-25.14-9.37-36.69-9.11-8.08-21.38-13.42-36.11-17-15.45-3.9-28.44-10-39-18.05-11-7.79-23.25-15.73-12.41-25.56,9.67-8.65,24.4-9.1,40.72-4.32,8.22,2,17.76,8.37,24.25,2,6.35-5.77-4.91-10-9.67-14.3-32.06-26.12-22.54-40.42,24.69-41.14,58.32-1.16,71.62-17.33,40.27-48.36-10.54-11.27-14-20.81-11.54-32.5,5.33-21.22-2-27.86-37.12-36.09-17.6-3.91-25.4-9.1-14.57-17.33,15.15-12,7.66-21.22-9.67-33.06-34.66-24.54-29-52.26,3.31-70.46,36-20.79,88.22-19.92,132.12-30,42.15-10.25,90.53-10.25,140.56-4,12.92,1.58,22.52,1.29,26.85-4.91,9.24-13.72,24.47-25.41,31.91-39.71,6.78-15.45,13.57-31.33-27-42.45a19.16,19.16,0,0,1-11-7.51c-20.21-25.41-39.56-50.39-85-66.13-5-1.58-9.59-5.77-8.16-9,4.19-11.84-11.12-22.38-16.6-34.22,21.81-1,42.31,4.48,51.61,16.17,15,20.51,40.07,34.36,72.35,46.2,18.4,6.94,29.31,14.73,21.22,26.57-7.65,10.12-3.54,17.33,16.89,25.12,21.3,7.94,30.61,20.08,28.09,33.79-2.31,17.77-10.76,34.65-23.68,51.26-6.57,9.24-6.28,17.47,7.29,26.42,14.58,9.53,25.19,22.1,42.45,31C1468.37,1984,1471.83,2003,1445.7,2019.46Z" transform="translate(966.56 309.33)"/><path class="cls-6" d="M1799.93,2277.72c-2.46,7.51-13.58,9.1-24.18,4.62-23.31-10.1-46.13-8.8-65.41-5.05-21.3,3.89-44-1.87-65.76,1.59-32.78,5-58.92,23-100.79,15.3-2.88-.58-6.93,1.45-8.8,2.6-12.56,7.94-30.17,13.14-43.74,20.51-23.11,11.54-19.51,42.15,5.61,58.47,35.53,22.09,35.81,22.09,6.36,42.15-1.3.45-.43,2.61-.43,3.61,45,4.63,71,17.05,61.08,37.84-10,19.48,7.22,32.77,16.16,48.65,2.32,3.18,5.93,5.64,7.08,8.67,13.15,19.48-13.14,40.57-48.23,36.38-21.36-2.45-43.3-4.33-50.24,6.94-7.23,12.12,8.95,21.79,27.87,29.3,13.86,5.34,15.59,12.42,4.91,19.78-9.53,6.36-18.48,10-30.77.3-5-3.48-10-6.36-16.88-7.51-10.25-2.9-16.9,1-23.54,4.18-5.19,2.16-8.23,6.79-2.16,10,16.46,7.94,23.25,22.81,49.09,25.27,38.84,5.33,68.87,33.48,56,61.93-4.48,9-10.54,13.87-26.14,14.15-21.22.29-42.3,2.6-64.54-4.19-11.26-3.6-19.91-3.6-26.85,3.61-18.48,18.2-15.59,44.05,11.55,63.83,13.87,9.52,15,17.9,3,26.55-8.23,6.51-17.18,14.3-30.45,14.3-21.89.3-36.18,5.78-47.38,13.72H1214.16c5.63-2.75,9.69-5.91,19.64-7.66,23-3.89,44.19-5,67.86,3.9,15.45,5.49,33.78,4.91,36.83-6.78,4.46-21.94,33.2-34.79,43.88-54.14,5.63-8.09,11.84-15.31,9-24.84-4.63-13.28-2.32-25.85,2.6-38.7,4-8.51,3.61-17.32-5.5-25.54-19.06-15.75-13.7-34.81-26.55-51.84a5.91,5.91,0,0,1-.3-9c15.73-14.3,23.39-32.19,47.79-40.85,28.59-11.12,32.63-27.29,22-45.63-6.64-13-.15-18.34,17.33-22,6.92-1.16,12.7-4.33,18.19-6.64,18.05-6.06,26.14-2.88,28.44,10.54,3.33,14.73,9,18.05,30.61,15.45,6.21-1,11.12-3,16.75-3.46,11-1.17,24.41,0,23.68-9.68-1.15-9.1-3.47-16.89-21.37-20.79-21.37-4.33-30.18-14.58-37-26.57-5.76-10.69-14-21.66-32-29.3-5.62-2.61-12.55-6.51-13.71-11.12-3.32-10.26-12-12.85-26.57-9.54-10.54,1.73-16.17-4.18-12.56-7.51,14.59-12,1.3-18.91-13.58-28.43-16.3-9.68-17.18-20.23-1-23.26,25-4.91,33.06-16.6,39.42-30.17,15.45-28.15,59.62-36.39,93.7-50.67,30.61,3.31,44-13.87,71.9-14.3,2.89.15,8.09-2.6,8.52-4.77,4.33-9.53,19.2-11.83,28-18.19,7.51-6.21,18.18-6.36,30.17-.43,16.46,8.67,32.13,15.3,49.81,5.77,3-1.58,9.17-1.58,13.58-.28,20.93,6.78,27.21.85,30.17-8.81.65-5.19,11.62-7.8,9.6-14.73-24.83,1.88-44-6.21-60.64-16.9-6.93-3.74-13.21-8.52-6.43-14,11.42-10.68,9.47-21.22,1.3-34.66-12.05-21.36-19.35-26.27-54.43-24.82-5,0-11.26,2-14.58-2-5.64-6.21-11.27-12.84-13.28-19.35s9-6.79,15.88-9.09c18.48-4.19,15.3-13.86,12-24-3.46-10.54-18.34-9.82-28.88-13.57-12.85-5.06-22.52,0-34.94-1.15-9.38-3.46-17.32-8.24-22.81-13.87C1570.08,2041.22,1559,2032,1545,2024c-26.85-14.72-50.82-30.9-67.85-49.53-8-8.09-19.65-12-33.22-15.3-30.61-6.79-60.36-15.3-92.41-20.21-24.54-3.33-57.32-7.94-63.24-33.79-2.73-11-15.88-7.8-21.08-2.32-7.21,8.53-19.06,10-34.51,5.21a62.37,62.37,0,0,0-24.39-2.31c-22.67,2.46-36.82-5.63-47.79-19.78a112.73,112.73,0,0,0-42-36.68c-7.51-3.46-11-8.8-15.3-14.28-6.65-7.81-7.36-19.93-24.11-20.81-16-1-36-.43-40.14,11-8.52,24.12-41.45,24.56-70.32,28.17-20.21,2.88-26.85,16.31-45.63,20.21-7.51,1.88,1.73,13,3.18,19.78,1.15,9.52-3.18,16.75-16.75,16.31-21.81-.28-35.23,6.51-49.66,13.87-27.59,13.72-63.25.57-71.05-24.84a29.52,29.52,0,0,1,18.19,4.18c33.35,14.6,46.2-10.39,73.5-8.22,6.78.86,13.29-1,16-5.78.73-.86.58-2.45.58-3.61,1.88-13.86.72-26.84,13.87-39.26,16.45-17,12-21.09,46.2-13.3,18.91,3.61,37.39,3.33,46.35-5.76,8.65-10.54,22.22-17.91,32.76-26.87,19.79-15.73,68-5.76,75.53-32.77.72-1.29-1-.43,2.3-.43,14.58.43,21.94-4.48,28.6-11.7,8.94-9.24,24.82-5.48,37.54,1.15,16.45,9.39,36.09,18.63,32.91,34.37-1.73,5.2-8.37,7.23-16.61,6.78-19.93-1.86-36.23,2.32-54.42,4-11.27,1.45-26.29-.29-25.27,11.27,1.59,10,9,19.63,23.82,24.82,17.76,6.66,32.78,17.63,52.56,21.38,15.59,3.46,16.74,9.67,11.7,19.19,20.64-6.92,42.44-2,62.8-2.45,24.83-.28,44.91,9,55.88,24.56,12.7,18.76,31.9,24,56.89,26.7,36.09,3.75,69.59,14.87,102.36,28.3,33.79,14,51.11,36.68,79,54.29,6.5,4.33,10.69,11.41,20.5,9,31-6.94,36.24,9.09,48.08,20.49,9.24,7.08,22.24,12.57,32.21,20.08,4.9,3.89,8.66,9.09,16.88,11.4,6.06,4.62,12.27,8.81,18.27,13.42,6.64,4.48,11.55,9.39,6.64,14.15-11.62,10,1.66,13.87,15.88,17.48,16.53,3.9,31.76,8.38,34.29,19.63,3.1,9.68,11,16.47,26.79,20.94,8.16,2.45,12.42,6.21,10.47,10-7.29,13.72,11.76,19.21,29.45,24.12,12,3,24.47,8.08,21.22,15-5.48,10.67,0,23.52-10.83,33.2C1818.85,2250.87,1806.94,2263.28,1799.93,2277.72Z" transform="translate(966.56 309.33)"/><path class="cls-6" d="M-966.56,1860.74c8.57-16.88,26.54-25.76,58.15-25.36a65,65,0,0,0,29.47-5.33c6.69-2.4,13.71-4.41,18.65-8.07,20.65-31.3,38-36.74,90.06-28.51,8.43,2.33,14.84,0,21.36-1.43,14.62-6.56,42.74,10.69,48-8,4-14.15,22.77-22.11,23.38-36.28,2-38.79,2.07-38.07,55.17-41.6,20.92-1.37,34-9.94,32.14-26.44.15-8.3-6.41-15.65-9.73-23.83-5.69-11-4.2-20.29,6.77-27,10.12-6.47,23.23-6.31,36-2,24.29,8.4,51.13,13.88,66.6,33.53,3.62,4.65,9.71,8.13,16.46,11.09,8.18,3.81,17.46,6,25,.76,6.11-4.82,3.69-10.34-.46-15.81-3.28-4.24-6.78-7.9-10-11.73-17-22.51-10-39.65,13.59-53.41,24.8-13.92,62.68-2.52,96.73,10.81,15.45,6.28,39.87,12.2,43.45,27.33,3.45,16.45,16.78,19.63,34.76,22.83,8.8,1.71,16.57,4.68,25.16,8.3,38.21,16.61,59.76,13.12,76.58-13.64,6.56-9.52,13.83-12,29.24-9.5,33.67,5.36,63.77,19.62,90.51,35.13,19.93,12,38.83,19.15,62,20.28,10.12.8,20.57,1.73,30.32,5.34,54.54,20.44,114.06,16,170.69,30.81a32.27,32.27,0,0,0,11.55-.67c23.68-5.06,40.24,2,56.31,15.86,11.09,9.85,23.59,19.39,34.17,29.89,17.66,18.52,42.88,28.55,72.21,25.73,24.76-2,42.42,4.45,58.21,18.25,5.35,4.59,11.53,12.42,20,9.21,21.29-8,50.78-10.65,57.64-28.51,6.62-19.7,26.45-25.3,53.43-27.13,19.3-1.6,36.47-4,43.88-18.4,5.07-9.78,21.6-8.86,35.83-8,44.1,1.5,83,15.12,120.79,31.91,34.94,15.84,62.64,15.26,89.68-.53,6.93-4,15.52-6.24,24-7.27a31.18,31.18,0,0,1,13.36,2.3c3.8,1.3,8.3,3.65,11.2,1.11,24.56-24.06,57.86-32.59,106.28-21.88a54.33,54.33,0,0,0,16.47,1.49c28.52-3.46,53.2,5.78,77.61,15.18,14.22,5.7,28.38,11,44.57,13.65a284.81,284.81,0,0,1,26.8,11.16c4.73,3.06,9.73,5.94,15.7,9.58,2.54.57,4.35,2.24,6.24,3.46,4.29,3.13,11.2,6.07,17.36,9a24.34,24.34,0,0,1,8,6.29c7.91,8.93-10.37,20.16,10.81,28.08,17.25,6.77,22.25,16.78,22.57,27.79,1.87,16.65,10.7,31.87,37.88,41.37,1.42,3.33,3.79,6.1,9.89,7.25,17.41,11.56,5.9,18.63-9.84,23.14-19.51,4.71-40.68,6.39-59.4-2.84-6.63-3.11-6-7.84-1.32-10.89,21.41-14.22,5.31-24.64-13.41-33.86-16.65-7.73-26.43-16.43-28.35-28.71-.08-5.51-5.45-12.56-16-6.93-15.37,8.7-41.89,16.71-37.91,31.49,6,21.83-42.67,27.14-34.17,49.37.66,1.82-8.22,4.2-13.43,4.4-21.54-.16-46,5.85-61.88-10.25a15,15,0,0,0-14.12-3.67c-13.25,3.5-25.45,8.46-27.91,18.21-1.31,8.31,7.22,14,19.15,18.77,25.61,10.87,55.52,14.08,85.19,18.92,21.07,3.42,33.78,2.74,38.44-10.47,1.74-6,5-12.54,19-11.18,11.55.5,20.11,5.13,21,11.71,3.42,11.36,16,16.53,32.3,20.51,14.45,4.07,27.88,10.44,25.65,20.75-1.7,10.09-17.49,15.36-32.13,15.82-44.81,1.06-60.62,19.41-77.82,38.37-12.46,14.75-26.57,26.78-60,16.14-10.25-3-19-.9-24.89,4.61-5.54,5.91,2.86,9.26,9.94,12.33,20.55,8.85,18.81,22,17.19,34-1.52,10.22,1.33,19.33,4.87,29.37,7.88,21.74,17.6,43.25,23.61,65.2,7.56,22.8-12.29,47.45,16.22,70.18,5.89,4.23,4.63,11.95-2.12,17.43-22.32,17.39-29.68,40.68-55.85,57.52-16.1,10-12.6,19.7-6.23,33.91,12.76,29.58,67.93,55.18,15.89,93.92-21.63,14.69-38.07,30.35-70.17,35.4-37.87,5.62-61.71,15.34-69.48,41.15-5.34,17.23-15.89,37-53.91,38.82-13.39,1.18-23.28,7.19-25.32,15.58-1,3.61-4.44,6.5-6.66,9.82l-89,10.78c4.34-6.05,9.29-12,16.69-17,21.87-15.16,34.86-31.57,34.85-52.08-.87-15.59,10.05-26.37,39.7-24,11.48,1.08,20.67-2.36,25-9.43,6-12.8,22.34-19.73,40.08-25.81,17.77-5.78,26.79-15.31,32.29-26.31,10.59-20.61,24.14-39.71,11.14-61.69-3.95-6.23-2.1-12.56,3.88-18.38,25.51-22.42,24.78-48.81,30.61-73.94,3.41-16.27-5.49-27.26-36.39-27.88-20.1-.19-32.65-6.51-25.91-19.41,8.29-14.38,9-29.75,13-44.77,5.19-18.38,16.37-33,54.06-31.57,13.54.1,25.65-4.42,37.76-7.77,4.19-1.24,9.13-2.57,13.6-4.12,4.07-14.32-17.11-15.09-30.15-17.14-28.17-4.45-41.58-15.47-43.89-32.07-1.76-13.46-10.95-24.42-25.88-33.66-18.32-10.73-19.16-21.24-6.47-33,9.6-9.59,17-18.33,7-32-8.42-11.92,12.06-24.16,34.51-22.51,7.08.75,14.54,6,25.85-4-38.93,2.83-63.21-16.2-96.81-18.67-23.84-2.35-30.39-12-14.82-22.64,12-9.17,9.57-17.16,1.14-26.61-19.4-22.08-31.71-45.75-50.5-67.63-17-19-46.73-33.89-53.93-56.15-.26-1-3-1.67-4.24-2.54-30.87-14.73-60.47-30.92-95.26-39.65-41.38-10.11-84.71-10.09-116.5,3.65-22.46,10.29-44.63,23-66.49,35.83-30.42,17.79-35.93,17.88-73.37.59-24-11-49.9-26.52-74-28.27-41.19-2.71-68.1-19.52-96.24-36.91-8.08-4.26-16.7-7-25.82-5.46-44.56,5.55-85.22-8.29-124.41-25.65-10.16-4.72-20.59-8-31.85-7.19-23.56,1.25-46.64-4.39-68.59-11.47-17.24-5.47-32.54-8.13-49.88-7.19-26,1.68-49.11-4.52-64.4-22.6-18.83-23.32-21.74-23.4-54.54-16.8-40.16,8.2-82.9,10.77-128.84-2.15-34.5-9.92-68,2.59-103.9-6.61-.9-.17-3.44,1.58-4.86,1.9-29.37,15.79-65.18,17.94-103.55,16.91-15.74-.27-30.92,1.71-37.55,13-5.72,10.43-14.55,16.73-31.18,18.74-8.78.78-17.36,2-9.52,12.65,11.82,15.88,3.37,36.25-13.9,46.19-33.79,18.79-74.11,31.67-112.79,46.1-10.35,4.6-21.79,8.6-35.22,7-26.15-3.38-49.67.63-74.92,3.41-43.47,5-70.3,27.26-107.52,38.18-5.78,1.43-9,6.33-10,10.82-2.48,17.89-14,28.59-28.09,37Z" transform="translate(966.56 309.33)"/><path class="cls-7" d="M-961.47,1902.79c9.4-6.53,15.48-15.11,16.71-25.3,2.68-20,19.31-29.1,40.7-33.87,18.21-4.53,34.74-9.73,45-19.85,17.9-15.55,53.32-.51,71.48-14.92,2.51-2.19,11.7-.69,18.71-.52a25.63,25.63,0,0,1,2.68.55c20.43,8.88,37.56,3.88,53.92-1.59,15.93-5.28,28.69-14.09,43.8-17.81,19.64-4.71,40.35-5.47,46.2-22,.8-1.7,4.54-3.32,7.45-3.24,26.36,1.47,27-15.18,35.68-26.14,4.19-6.17,7-12.17-10.2-16.93-11.33-3.43-10.16-13-.85-17.79a38.06,38.06,0,0,1,20-3c14.78.82,22.67-3.77,24-14.55.51-9.07,9-13.45,20.91-14.75,11-1.63,22.63-2.89,35.36-2.24,32.9,1.39,66.11-.59,89.65-17.56,6.85-4.75,14.09-6.21,23.81-1.58,14.08,8.19,28.69,7.59,42.56,4.45a90.4,90.4,0,0,1,55.75,5.18c10.57,4.39,21.68,7.26,32.58,5.94,32.19-2,67.69,3,96.39-9.93,14.88-6.75,39.8,2,45.91,12.9,15.57,26.47,35,34.6,73.05,29.11,10.84-1.74,18.94.18,28.57,4.11,27.18,9.5,55.16,19.5,85.31,15.12,10.87-1.62,20.23,3.65,30.71,8.49,36.19,17.86,75.68,31.69,118.45,24.49,8.4-1.47,18.92-4.63,23.14.25,13,14.85,38.08,20.11,52.83,32.57,8.59,7.39,16.61,9.92,26.74,7.08a47.39,47.39,0,0,1,35.83,5.27c25.05,13.54,54.63,21.16,80,34.52,17.15,9.56,22.95,8.13,38-2,10.88-7.42,20.94-15.76,36.81-19.14,14-3.31,24.11-8.75,28.42-18.73,2.27-5.22,7.23-8.72,16.6-9.42,25.38-1.77,50.61-6.13,75.75-5,17.7.76,40.34-3.29,55.52,11.59,31.65,3.15,50.19,19.37,74.09,31.74,3.45,2.07,9.61,2.49,14.87,2.71,8,1.08,12.56,4,11.09,8.7-5.06,15.88,10.23,26.83,29.83,37.4,7.13,3.5,16.14,7.06,16.42,13,2.07,12.26,10,22.63,24,32.14,5.41,3.86,8.77,8.7,8.05,13.58-1.26,5.25,1.41,9.29,7.52,12.91,10.26,6.61,12.62,15.33,19.24,23.12,8.33,8.73,7,14.57-7.35,18.63-8.09,1.56-15.52,3.92-12.33,9.79,4.05,7.06,15.27,7.16,24.36,6.64,13.2-1.45,26-.38,35,6.81,10.45,8.19,20,13.59,38.44,7.57,9.08-3,16.58,2.49,23,7.1,4.91,3.33,7,7.73,3.86,11.47-5.87,5.65-15.71,4.8-25.81,4.28-8.3-.15-11.68-7.61-23-7.1-1.68,7.75-36.93,10.86-4.14,24.64,5.59,1.65,2,6.6-.56,9.81-7.26,7.28-10.58,17-21.22,24.09-10.66,6.82-9.28,12.32,5,19.62,18.07,9.87,34.14,21.32,34.14,38.19.08,18.61,6.62,22.16,38.13,27.8,19.6,3.3,37.6,9,44.17,21.26,3.92,5.93,2.29,11.66-11.72,6.52-5.46-2-11-2.45-14.34,1.59-13.3,7.86-29.84,14.23-49.28,12.22-21.93-3.3-27.6,3.93-34.12,13.74-11.7,21.05-4.32,44.74-21.15,65.53.11.87,2.73,2.14,3.64,3.64,11.52,1.36,22.69-.13,34.35,1.37,28.11,4,24.72,3.54,28.11,20.73,5.18,27.15-17.94,51.19-13.79,78.31,1,3.66-3.62,6.11-9,7.07-23.08,4-17.08,15-11.57,23.35,11.8,14.58,6.71,27.71-1.77,41.81-2.52,4.39-7.29,8.17-8.26,13.51-2.34,17.74-18.79,29.77-45,36.73-15.24,3.89-28,8.18-30.79,20.74-3.24,16.53-4.61,17.3-31.66,12.43-20-3-29.11-1.42-29.78,11.16-.78,4.32-4.63,8.57-2.82,12.71,7.87,18.1-9,31.19-26.21,42.88-8.59,6-15.86,11.95-21.33,18.43L-848.87,2832.18Z" transform="translate(966.56 309.33)"/><path class="cls-6" d="M-958.41,1928c27-6.46,54-13.08,80.23-19.61,33.54-8.86,40.07-16.19,29.22-42.22-4-8.82-2.91-15.51,4-20.71,9.94-6.88,20.74-.47,30.19,3,8.72,2.43,7.61,7.66,3.91,11.89-3.57,4.07-10.32,8.52-1.93,14a36.1,36.1,0,0,0,27.83,5.22c18.38-4.41,30.83-13.19,38.93-25.52-3.93-2.43-5.44-4.14-8.92-5.32-7.08-3.06-19.65-3.73-15.9-12.33,2.82-6.73,13-2.89,20-.81,22.75,8.73,40.73,3.5,58-2.39,7.69-2.52,16.73-4.78,23.91-7.84,20.85-9.21,49.27-3.92,69.18-13.6,7-3.47,14.05-.55,20.71,2.86,9.57,4.52,17,3.61,25.4-1.62,28.19-15.92,36.3-15,68.22,2.36,1.06.45,3.89-.19,6.73-.82.28-7.31-6.6-12.44-10.88-19.05-8.73-14.36,2.59-27.79,21.6-28.07,12-.3,18.83,8.92,28.36,10.68,11.36,1.38,9.55-14.69,26-9.41,1.36.42,4.49,1,5.58.49,27.08-3.43,56.14-4.91,58-30,.78-8,8.92-9.07,19.05-9.57,9.14-1.41,17.9,7.27,26.48,2.45,2.38-10.31-12.71-13.72-19.42-19.75-14.91-12.74-16.46-12.26-32.3-2.62-2.82,1.93-6.34,4.1-9.24,4.3-17.63-.33-29.1,7-41.54,13.63-12.2,6.12-18.56,4-25.25-6.7-10.43-15.31.06-27.2,10-35.52,8.88-7,23.25-14.46,44.39-8,16.8,5.38,39.07,12.72,53.4,8.52,18.56-6.48,36-.88,54-1.17,6.19-.6,13.75,1.82,20.29-.56,16.36-5.47,30.48-1.8,43.49,9.56,10.88,9.45,22.83,9.6,34.2,3.86,8.66-4.25,18.75-7.37,30.27-6,8.73,1.26,17.62,3.82,13.76,11.57-4.4,9.39,3.11,17.36,9.12,24.93,11.05,12,11.07,12.18,25,5.7,10.71-5.08,20.08-14.22,32.68-11.1,24.28,5.94,50.24,2.94,71,16.71,5.29,2.86,11.31,6.93,17.35,5.18,12-5.1,24.88,1.35,36.8,1.2,22.5-.25,42.34,12.19,65.14,8.4,9.16-1.26,17,4.2,22.14,11,7.47,10,16.87,13.24,33.79,12.35,21.13-2,43.57,2,65.44,12,17.24,7.93,36.35,14.35,54.65,21.3,8.3,2.48,14.62,3,21.26-2.14,12.82-10.58,14-9.26,26.27,1.91,20.69,17.12,34.95,37.65,62.42,51.77,8.56,4.64,14.8,13,26.23,13.7,16.13,1.1,10.72-11.19,16.76-16.58,11.68-11.59,45.43-16.26,61.28-7.86,8.28,4.67,8.74,10.87-.67,13.61-9.7,1.6-20.18,2.74-30.45,4.41-25.71,3.85-28.1,8.07-7.39,19.37,20.87,11.44,34.21,24.36,43.58,39.23,2.9,4.73,5.74,8.9,13,10.21,23.57,3.68,47.81,6.85,71.71,9.63,7.55,1.12,11.11-3.09,16.17-5.74,5.77-2.88,7.58-8.34,16.78-8,31.89,19.54,61.25,41,103.24,52.64,16.24,4.43,30,10.78,48.58,7.21-.55,4,.1,6.82-2.09,8-25.27,18.35-14.59,37,8.68,54.95,14.2,11.52,22.64,24.75,27.09,38.75,4.44,12.55,9,24.07,27.43,33,11.73,5.55,12.43,12.6-2.27,17.28-18,5.24-30.3,14-32.23,26.89-1.51,12.69-2.84,24.63-17.28,35-7.61,4.42-6.25,14.58,8.36,16.3,27.42,2.93,36.38,15.66,45.84,27.76,11.24,15.94,19.75,32.22,49.9,39.76,3.16.93,7.31,3.91,6.87,5.13-2.7,13.71,15.91,18.43,30.52,24.95-6.2,5.27-10.75,9.74-15.45,14.24-15.79,18.49-42,33.74-43.05,57.58.52,4.3-5.42,6.91-12.63,7.34-12.51,1.23-24.32,2.23-38.42,1-16.79-1.75-28.08-15.65-44.85-12.46-16.71,2.61-9.68,19.79-27.84,23.59-1.68.5-3.25.69-3,1.39-4,2.22-5.87,5.51-.76,8.09,15.59,8.58,14,23.32,31,31.58,13,6.57,13.79,17.68,16,27.16,2.23,10,1.67,16.24-18,20.65-17.47,3.42-31.76,12.72-43.6,23-4,3.38-9.42,8.71-2.43,11.2,35,11.75,20.63,33.42,28.58,49.76,5.32,11.59.38,26-15.25,35-15.27,9.7-31.49,16.17-57.42,13.49-28.41-2.81-34.45.11-43.06,15.41l-146.65,17.76c-.49-1.68.55-2.69-.72-4.85-4.53-8.47,1.5-15.17,12.58-19.71,15.45-7,23.66-18.43,37.55-26.22,16.88-10.77,15.52-20.78-5.62-29.57-18-7.86-38.69-19.3-56-2.82-26,25.55-68,29.05-110.15,29.64-27.88.33-54.55,1.09-79.92,5.32-28.4,4.47-40.62,12.92-27.18,33.84,10.47,17.93,3.75,33.29-19.61,44.55l-157.81,19.12c-.44-4.74-.58-9.54-5.32-13.91-20.59-21.06-20.86-43.71-30.67-65.8-8.77-15.95,9.82-30.56-3.22-48.18-12.19,3.8-21,16.65-38.6,5.54-15.86-9.71-31.56-48.09-31.2-61.81,2.17-30.22,27.06-55.19,25.26-85.67-.64-17.38,10.45-35,36.11-38.11,25.78-3.27,22.11-10.82,17.69-24.4-8-25.5,8.34-44.06,36.81-42s51.11-.67,67.44-16c3-4,9.32-6.95,18.45-3.69,7.61,2.71,7.71,8.37,8.58,13.21,1.3,21.51-10.89,31.28-43.43,35.23-12.78,1.4-26.12,2.86-29.91,11.32s10.27,12.73,17.64,18.37c3.31,3.23,6.83,5.86,11.21,7.22,14.27-21.51,71.35-27,101-7.87,18.59,11.86,36.72,15,59.75,16.62,48.09,3.18,91.11,9,116,46.16,14.78,23.66,41.47,25.37,69.93,9.41,18.72-10,31.77-6.62,46,5.33,5.55,5,4.36,13.29,19.71,15.07,25.79-18.83,49.62-38.15,90.63-45.45,17.88-3.62,10.26-11.28-.71-16.64-11.08-5.06-22.43-8.63-21.8-19,2.75-31.46-10.53-60.55-33.27-88.62-9.24-11.39,3-20.73,22.82-19.34,8.75.25,16.12,3.42,24.44,6.05,36.09,12.2,48,9.6,52.17-14.75,4-27.84,1.34-56.16-3.08-83.12-3.24-18.23-1.29-29.8,26.32-35.91,5.88-1.87,17.17-2.36,15.39-11-29.78-2.22-46.82-16.73-67.65-27.88-36.54-18.25-46-40-50.86-64.37-2-8.48-7.25-7-15.11-8.36-33.9-4.9-58.43-16.48-64.19-39.92-5.66-17.93-17.17-33.85-34.74-49.17-22.88-20.79-20.76-21.2-49.8-8.8-24.24,11.08-35.08,8-46.72-11.22-8.38-13.81-13.82-28.72-30.65-41.66-7.47,8,.51,12.74,4.82,18.18,6.4,7.22,13.41,14.67,3.67,22-7.95,6.34-19.11,4.21-30.23,1.34-17.3-4.74-35.54-7.62-52-5.2-19.1,2-31.36-3.18-44.27-12.52-42.13-30.67-88.65-58.2-126.75-90.52-5-4.48-11.26-7.81-19-7-12.48,1.36-22.89.73-32.65-6.67-5.18-4.31-10.81-3.93-16.75-1.32-22,8.34-44.44-.72-67.23-3.93-34.37-5.15-55.45-36.32-94.92-30.81-2.12.54-5.2-2.14-7.79-4.3-11.66-8.63-26.7-10.29-40.27-15.48-26.73-10.58-53.09,0-79.36-8-15.6-5.08-23.43-1.23-29.34,7.49-7.54,12.26-18,22.84-38.14,27.45-5.51,1.24-8,5-11.28,8.93-18.4,27-39.47,27.18-69.84-.27-9.52,11.48-19.61,21.73-41.73,20.47-10.35-.19-16.76,4.51-22.55,9.57-8.22,7.83-19.13,12.51-35,9.64-10.26-1.83-16.88,0-15.31,8.09,3,16.51-11.27,17.51-29.78,17.15-30.22-1-60.42-11.3-91.16-13-35.52-1.5-66.71,4-98.66,12.83-19.42,5.41-22.73,18.9-27.89,31.46-5,11.5-16.2,15.19-33.55,10-18.09-5.23-35.63-2.37-39.5,7.69-9.59,24-33.89,33.49-66.06,39.28-32.72,6.14-54.65,23.19-79.52,37.56Z" transform="translate(966.56 309.33)"/><path class="cls-7" d="M112.34,2715.73l-961.21,116.45-101.66-839.09c.71-1.4,3-1.53,3.54-3.2,1-2.73,10.38-3.13,13.51-5,20.88-13.73,53.34-15.92,70.19-32.8,2.94-3.41,8.43-3.64,15.2-.68,22.27,11,22.13,2.56,23.05-10.21,2.55-22.12,32.58-35.93,57.93-29.7,25.51,6.5,25.64,6.49,31.28-10.62,3.15-8.83,2.28-18.46,15.06-23.36,31.72-13.15,68.82-17.78,106.32-20.43,17.11,9.26,36.57-.67,52.69,6.41,20.75,9.11,41,6.67,61.24,9.73,10.23,1.54,13.34-2.77,11-9.17-1.19-3.79-3.82-7.54-4.58-11.38-2-9.49,2.56-12.52,15.74-9.32,28.9,6.82,29.2,6.93,42.4-7.76,4.34-5,8.7-11.09,18.84-9,24.21,5.36,34.83-3.06,39.62-17.59,2.14-5.07,6.43-9.36,15.15-6.93,7.82,2.1,6.72,6.3,5.73,11.23-1.33,9.47,8.43,11.93,18.67,13.74,10,1.69,25.06,5.11,26.6-3.81,3.65-16.73,12.85-26,36.4-29.58,8.34-.86,11.7-10.42,17.13-16,2.2-3.33,2.6-7.3,4.29-10.13,4.24-4.58,11.33-7.33,18.92-9.41,7.95-1.69,10.41,4.11,15.39,6.86,7.38,4.48,15.61,2.9,24,2.47,41.39-4,77.61,5.58,110.86,29.18,5.63-.39,7.58-3.53,10.84-6.54,4.76-5.09,11.21-4.71,16.79,1.74,14.85,16.82,36.83,26.67,62.24,31.14,22.42,3.69,47.2,16.25,66.67-.79,7-6.24,14.14-1,18.72,5.58,5.34,8.23,11,12.92,23.43,6.19,11.62-6.07,23.78.6,28.85,7.7,10.31,15.48,23.66,27.23,46.81,33.44,3.78,1.15,7.81,4.44,9.3,7.17,12.79,17.94,39.45,26.63,56.55,42.89,6.48,6.63,20.56,10,26.9,18,2.53,2.89,6.7,3.68,11.32,3.42,37.12-2.17,49.13-1.44,75.8,6.23,7,2.21,12.34,2.14,17.76-1.12,5.93-3.79,3.83-8-1-11.81-4.46-4.4-9.28-8.18-14.47-12.65-6.47-5.32-8.08-11.38-3.9-16.55,2.71-4.11,8.44-6,15.26-4.9,10,1.85,20.55,7.55,19.31,11.78-4.34,15.79,21.29,25.63,20.84,41.1-.41,11,15,14.33,26.82,6.5,8.38-5.24,18.28-8.77,26.84-13.74,9-4.87,18.48-2.37,22.9,2.9,14.11,20.41,43.54,36.47,48.79,59.4,5.25,18.13,12.8,34.8,45.6,42.76,7.38,2,12.14,6.53,19.63,2.28,5.11-3.39,12-5.53,18.19-1.19,7.64,4.32,8.39,9.31,2.42,14-12.36,8.48-5.26,15.47,6.67,22.75,6.85,3.69,13.31,7.85,7.64,13.76-9.18,9.56,3.44,14,14.93,16.38,12.34,2.29,20.9,5.76,25.39,13.94,7.92,12.57,22,20.61,44.52,19.33,5.65-.1,12.81,1.36,17.91,2.63,12.67,2.55,14.66,8.11,5.31,12.6a209.77,209.77,0,0,1-27.79,9.47c-26.4,6.55-30.06,10-18.34,28.69,2.87,5.75,11.71,11.52,5.29,17.26-11.44,10.09-5.89,22.23-3.68,33.31,3.25,16,6.78,30.74-3.41,46.23-4.6,6.51.52,16.36-17.64,16.53-13.55-.24-27.89,2.65-38.29-6.42-5.31-5.32-14.78-6.64-23.06-9-9.74-2.3-16.55-1.05-21.08,4.89-4,5.71.56,9.38,9,11.71,13.86,4,16.59,8.46,7.82,16.5-3.92,3.68,1.18,7.43,5.67,10.8,12,7.58,17.94,16,12.18,28.64-5.67,10.72,12.8,23.9,1.66,36.45-1.24,1.74,4.9,3.19,8.84,4.45a181.12,181.12,0,0,1,17.91,5c10.45,4.71,15.72,11,13.24,19.35-2.42,7.71-11.34,9.66-24.08,7.72-9.91-2.59-17.17,2.23-24,5.07-23.67,11.17-46.08,23-60.16,40-3.28,4.16-6,9.3-18.5,7-4.44-7.9-9.16-16.77-15.65-24.71-10.78-13.4-17.84-14-31.9-2.83-20,15.8-33,16.06-61,5.21-18.23-7.53-28.62-16.46-35.81-29.11-6.48-11.43-15.21-23.46-36.8-25.21-24.84-.93-49.75-8.53-75.83-7.69-20.68,1-38.73-3.89-48-17.75-3.64-4.65-10.14-10.4-17.51-6.31-13.67,8.35-24.18.74-36.84-2.82-19.82-6.32-30-1.16-26.27,13.66.71,5.88,5.53,12-5.72,15.24-18.87-9.35-32-23.62-51.06-32.51-9.94-5.18-11.12-12.61.65-16.22,15.6-4.51,26.72-16,49.59-9.64,5.58,1.51,14.51.86,15.68-2.77,7.31-11.65,13.86-23.64,6.25-39.59-20.3,22.08-38.15,29.64-63.66,26.76-36.32-3.3-49.86,5-48.25,29.12,0,6.1,5.72,11.24,9.26,16.48,11.35,15.63,6.15,20.78-18.49,17.79-12.26-1.57-21.49-.88-24.62,5.75-7.79,13.61-30.39,24-14.84,43.1,4.59,5.56,0,11.78-4.58,16.27-13.26,12.95-24,27.2-13.29,45.09,2.63,4.93.27,9.43-5.45,11.43-18.07,7-6.91,14.94.17,24.27,4.94,5.94,14.35,11.64,14.85,19.29.24,8,5.22,15.51,17.88,15.57,11.57-.52,3.51-10.61,8.16-15.54,1.48-.89,3.51-1,5.75-1.71,32.42,14.26,32.33,13.54,24.32,32.7-9.25,25.69,2.74,51.43,19,75.95C101.09,2696,109.79,2705.57,112.34,2715.73Z" transform="translate(966.56 309.33)"/></g></g></g></g></g></svg>