<svg xmlns="http://www.w3.org/2000/svg" xmlns:xlink="http://www.w3.org/1999/xlink" viewBox="0 0 301.54 359.26"><defs><style>.cls-1{fill:none;}.cls-2{clip-path:url(#clip-path);}.cls-3{clip-path:url(#clip-path-2);}.cls-4{fill:#009e92;}.cls-5{clip-path:url(#clip-path-3);}.cls-6,.cls-7{fill:#fff;}.cls-7{font-size:38.62px;font-family:Poppins-Bold, Poppins;font-weight:700;}</style><clipPath id="clip-path"><rect class="cls-1" width="301.54" height="359.26"/></clipPath><clipPath id="clip-path-2"><path class="cls-1" d="M29.07,0H272.48a29.05,29.05,0,0,1,29.06,29.07V329.63a29.05,29.05,0,0,1-29.06,29.06H29.07A29.05,29.05,0,0,1,0,329.63V29.07A29.05,29.05,0,0,1,29.07,0Z"/></clipPath><clipPath id="clip-path-3"><rect class="cls-1" x="52.51" y="109.49" width="206.1" height="211.39"/></clipPath></defs><g id="Layer_2" data-name="Layer 2"><g id="Layer_1-2" data-name="Layer 1"><g class="cls-2"><g class="cls-3"><rect class="cls-4" width="301.54" height="359.26"/></g></g><g class="cls-5"><path class="cls-6" d="M209.31,248.29c-.12.35-.23.62-.36,1l1.29-.14Zm5.88-37.86-1.1.9s0,.09.06.09l1.34-.07Zm-3.95-11.87-1.2,1h1.53C211.45,199.17,211.34,198.87,211.24,198.56Zm1.18,8.14h1.52c-.11-.36-.23-.72-.34-1.06Zm-92.86,93.24c-.79.14-1.47.09-1.77-.8-.17.74.33,1,.79,1.2C118.88,300.47,119.36,300.61,119.56,299.94Zm95.23-90.73-.36-1.06-1.17,1.06Zm-2-6-1.17,1.06h1.53C213,203.89,212.89,203.53,212.78,203.2Zm-.81-2.47c-.41.34-.77.63-1.25,1h1.58Zm-1.65,9.82,2.38-1C211.86,209.31,210.34,210,210.32,210.55Zm1.32-3.56a5.87,5.87,0,0,0-2.33.6C209.59,208,210.65,207.74,211.64,207Zm1.55,4.49-1.78.62c-.08,0-.2,0-.25.11a4.54,4.54,0,0,0-.32.55C212.77,212.16,213.08,212,213.19,211.48Zm-2.37-7a1.46,1.46,0,0,1-.07-.19l-2.43.85C208.72,205.61,210.38,205.09,210.82,204.52ZM119,300v-.69a1.35,1.35,0,0,0,.83-.56c.07-.1-.15-.39-.21-.5l-1.38,1.25Zm91-97.9c0-.09-.07-.17-.1-.26l-2.65.89-.18.26c.14,0,.32.17.43.13A9.6,9.6,0,0,0,210,202.1Zm-26.25,99.31-.53.41c.57.31.78.25,1.12-.21l-1.12-.79c.14-.22.23-.38.33-.53l-.1-.15c-.19.05-.53.08-.54.16a6.8,6.8,0,0,0,0,1.11Zm-40-.25c.15-.12.41-.22.43-.36.1-.72.15-1.45.22-2.19C143.86,298.58,143.86,298.58,143.8,301.16Zm1.82-2.38-.16-.15c-.15.13-.41.24-.43.39-.11.7-.15,1.42-.22,2.12l.2.15c.13-.15.36-.28.39-.45C145.51,300.16,145.55,299.47,145.62,298.78Zm.34,2.48.2.14c.13-.13.37-.25.4-.41a13.43,13.43,0,0,0,.2-1.79c0-.16-.21-.33-.32-.49l-.21.1Zm-2.66-2.7-.19-.2c-.15.15-.38.27-.41.43a12,12,0,0,0-.2,1.79c0,.16.22.32.34.48L143,301Zm2.91-12.44h1.27c0-.42.08-.81.13-1.26l-1.22-.19C146.33,285.16,146.28,285.58,146.21,286.12Zm6.12-.8-1.25-.1c0,.49-.08.89-.13,1.35l1.24.13C152.24,286.23,152.28,285.82,152.33,285.32ZM96.82,251.15l-.15.07L98,254.56l.8-.37C98.07,253.13,97.44,252.14,96.82,251.15ZM213.54,241c.83-.23,1.71,0,2.36-.82a3.22,3.22,0,0,0-2.4-.06C213.51,240.41,213.52,240.63,213.54,241Zm-120.3,1.27c.44,1.13.85,2.21,1.27,3.3l.15,0c-.19-1.17-.39-2.34-.59-3.57Zm13.18-65.86c-.52-.62-1-1.21-1.51-1.77-.11-.11-.35-.09-.53-.14,0,.19-.1.43,0,.53.47.62,1,1.2,1.53,1.83Zm2.4-2c-.53-.62-1-1.19-1.5-1.73-.11-.12-.38-.1-.58-.14,0,.2,0,.45.08.59.39.51.83,1,1.26,1.48a2.05,2.05,0,0,0,.26.24Zm108.56,64.36c0,.31-.06.57-.1.92.67-.08,1.24-.12,1.79-.24.18,0,.32-.27.48-.41-.19-.14-.37-.38-.57-.39A13.75,13.75,0,0,0,217.38,238.73ZM153,285.37c-.05.49-.09.91-.14,1.41l1.24.1c.05-.53.1-1,.16-1.51ZM110,173.36c-.53-.62-1-1.21-1.52-1.76-.11-.12-.39-.08-.59-.11,0,.18,0,.42.07.54.47.6,1,1.17,1.5,1.78Zm2.39-2c-.54-.64-1-1.22-1.51-1.75-.11-.12-.39-.09-.59-.12,0,.18,0,.42.07.54.47.6,1,1.17,1.5,1.78Zm-4.78,4.09c-.53-.62-1-1.19-1.48-1.71-.13-.13-.41-.13-.62-.19,0,.21,0,.46.09.6.45.59,1,1.14,1.46,1.73Zm36.88,108.93c-.05.54-.09,1-.14,1.55l1.16.12C145.92,284.62,145.89,284.58,144.52,284.34Zm-30.9-114c-.54-.63-1-1.22-1.53-1.78-.11-.11-.36-.09-.54-.13,0,.17-.12.39,0,.48.5.64,1,1.26,1.58,1.9Zm99.88,69.58c.83-.29,1.74,0,2.42-.78-.83-.63-1.63-.16-2.42-.19ZM111.24,172.35c-.54-.62-1-1.23-1.56-1.8-.1-.11-.35-.08-.53-.11,0,.18-.08.42,0,.53.48.61,1,1.2,1.53,1.82Zm110,65.58c.73,0,1.28,0,1.82-.1a.84.84,0,0,0,.5-.41c.06-.1-.08-.45-.16-.46a6,6,0,0,0-1.69-.05C221.55,237,221.45,237.49,221.26,237.93Zm.37-1.53a13,13,0,0,0,1.71-.1c.2,0,.36-.35.53-.54-.19-.17-.36-.48-.57-.5a10.24,10.24,0,0,0-1.55.05C221.71,235.68,221.67,236,221.63,236.4ZM221,222.23l-.18.26c.2.32.34.79.64.92a1.71,1.71,0,0,0,1.15-.07.9.9,0,0,0,.5-.61c0-.13-.32-.45-.54-.48A11.71,11.71,0,0,0,221,222.23Zm.93,10.59a7.62,7.62,0,0,0,1.49-.12c.25-.07.42-.4.62-.61-.22-.17-.41-.45-.65-.49a8.78,8.78,0,0,0-1.46,0Zm0,.72v1.13a8.31,8.31,0,0,0,1.53-.13c.26-.06.46-.35.68-.54-.25-.19-.48-.49-.75-.54A7.59,7.59,0,0,0,221.88,233.54Zm-.16-5.86c0,1.16,0,1.16,1,1.13.18,0,.41,0,.54-.05a4.59,4.59,0,0,0,.64-.61c-.22-.19-.44-.51-.69-.54A9,9,0,0,0,221.72,227.68Zm-1.25-7c.21.46.29,1,.53,1.07a3.3,3.3,0,0,0,1.5,0,.69.69,0,0,0,.4-.55.65.65,0,0,0-.46-.49A17.58,17.58,0,0,0,220.47,220.7Zm.84,3.24-.15.15c.34.26-.22.92.54,1a3.37,3.37,0,0,0,1.23-.07c.25-.07.42-.39.63-.6-.23-.18-.44-.5-.68-.52A9.17,9.17,0,0,0,221.31,223.94Zm-7.89,14.56c.7-.12,1.3-.19,1.87-.34.2-.06.35-.32.53-.49-.21-.15-.42-.43-.63-.44-.59,0-1.19.07-1.83.11C213.38,237.74,213.4,238.05,213.42,238.5Zm8-12.76c.07.54.12.85.17,1.26a12.67,12.67,0,0,0,1.67-.14.89.89,0,0,0,.51-.6c0-.14-.33-.47-.54-.49A15.15,15.15,0,0,0,221.45,225.74Zm-80.36,57.82-1.23-.34c-.07.77-.14,1.47-.2,2.2l1.23.09C141,284.82,141,284.21,141.09,283.56Zm65,3.23c-1.15-1.53-1.2-1.55-2.53-.83C204.55,287.48,205,287.62,206.08,286.79Zm15.83-57.29v1.31a11.31,11.31,0,0,0,1.72-.16.82.82,0,0,0,.46-.64c0-.16-.33-.46-.54-.49A12.82,12.82,0,0,0,221.91,229.5Zm-8.53,47c-.8,1.23-.63,1.77.76,2.58C214.87,277.7,215.05,278.24,213.38,276.54ZM128.43,174.49l1.3,1.51,1.08-.91-1.3-1.53ZM107.5,192.3l-1.09.92,1.3,1.52,1.08-.92Zm23.25-19.79,1.3,1.53,1.07-.94c-.45-.52-.86-1-1.29-1.52Zm-26.32,20.87-1.31-1.53-1.07.94,1.29,1.52Zm118.94.92-.07-.14c-.6.22-1.22.39-1.8.67-.22.11-.33.46-.49.69.26.06.56.23.78.16a24.09,24.09,0,0,0,2.29-1c.12-.06.15-.34.22-.51a2.49,2.49,0,0,0-.59-.09C223.6,194.13,223.49,194.24,223.37,194.3Zm-94.68-24.21,1.3,1.53,1.08-.93-1.3-1.51ZM106.48,195.8c-.45-.54-.87-1-1.3-1.54l-1.09.94,1.3,1.52Zm21.18-22.21,1.1-.92-1.31-1.52-1.07.92Zm89.82,64.85a17.9,17.9,0,0,0,1.89-.27c.21-.06.36-.4.54-.61-.2-.16-.39-.42-.62-.47a3.15,3.15,0,0,0-1,.06C217.3,237.25,217.3,237.26,217.48,238.44Zm-3.15-40.78a.8.8,0,0,0-.08-.16,19.63,19.63,0,0,0-1.86.68c-.22.11-.32.46-.48.7.27.05.57.22.79.14a24.09,24.09,0,0,0,2.29-1c.12-.06.13-.34.19-.52a2.08,2.08,0,0,0-.54-.11C214.53,197.44,214.44,197.58,214.33,197.66ZM106.74,191.4l-1.3-1.52c-.37.33-.72.62-1.08.93l1.29,1.52Zm114.15,18c.93-.41,1.83-.79,2.72-1.21a.45.45,0,0,0,.08-.42.76.76,0,0,0-.47-.19c-.13,0-.25.15-.39.19-.71.23-1.44.41-2.14.68-.15.05-.28.37-.26.56S220.7,209.3,220.89,209.45Zm4.57-1.67c.92-.41,1.82-.81,2.7-1.23a.44.44,0,0,0,.08-.41.72.72,0,0,0-.48-.17c-.13,0-.26.13-.39.17-.72.23-1.45.42-2.15.69-.14,0-.26.38-.24.57S225.27,207.63,225.46,207.78Zm11-4.94-.07-.15c-.62.23-1.25.42-1.85.7-.21.1-.33.42-.49.63.27.08.58.28.8.21a21.46,21.46,0,0,0,2.33-.95.51.51,0,0,0,.18-.45.76.76,0,0,0-.51-.21C236.75,202.61,236.62,202.76,236.48,202.84Zm-2.9-12a3.34,3.34,0,0,0-.69-.15c-.11,0-.21.15-.33.19-.69.21-1.41.38-2.09.63-.17.07-.24.39-.36.59.21.09.47.31.63.25.85-.3,1.68-.67,2.5-1C233.35,191.3,233.4,191.13,233.58,190.87ZM229,192.75c-.1-.17-.14-.31-.22-.34a.82.82,0,0,0-.44,0c-.09,0-.15.17-.25.2-.69.2-1.4.35-2.08.59-.19.07-.3.4-.45.61.26.08.55.27.77.22a7.93,7.93,0,0,0,1.57-.56A8.51,8.51,0,0,0,229,192.75Zm-10.14,16.5c-.92.3-1.8.57-2.65.9-.16.06-.22.4-.32.61.24.08.51.26.7.2.82-.28,1.62-.63,2.42-1a.58.58,0,0,0,.19-.46C219.15,209.41,218.94,209.33,218.83,209.25Zm16.23-18.49a.68.68,0,0,0,.22,0c.86-.34,1.72-.67,2.55-1.06.11,0,.09-.38.13-.59a5.81,5.81,0,0,0-.59,0,1.73,1.73,0,0,0-.37.11c-.7.24-1.4.44-2.08.72-.13.06-.22.39-.21.59S235,190.7,235.06,190.76ZM233,204.5a3.87,3.87,0,0,0-.68-.21c-.1,0-.21.16-.33.2-.71.21-1.44.37-2.14.63-.16.07-.22.44-.32.66.22.06.48.23.66.17.84-.3,1.65-.65,2.47-1C232.77,204.9,232.82,204.74,233,204.5Zm-13.18-8.36v-.22a2.12,2.12,0,0,0-.57-.19c-.1,0-.2.18-.32.22-.69.2-1.4.35-2.07.6-.19.07-.29.4-.43.6.24.09.5.29.7.24a9.39,9.39,0,0,0,1.68-.61A7.77,7.77,0,0,0,219.82,196.14Zm22.32,5a4.08,4.08,0,0,0-.71-.21c-.1,0-.21.17-.33.21-.71.21-1.44.38-2.15.64-.16.05-.22.39-.32.6.21.09.47.29.63.23.86-.28,1.7-.63,2.54-1C241.91,201.59,242,201.41,242.14,201.14ZM119.48,266.7a.81.81,0,0,0-.09-.22c-.77-.78-1.53-1.56-2.32-2.31a.51.51,0,0,0-.48.06.56.56,0,0,0,0,.53c.71.76,1.45,1.5,2.21,2.22a.6.6,0,0,0,.5,0C119.37,267,119.42,266.8,119.48,266.7Zm72.54-78c-.13.11-.34.19-.35.3a.8.8,0,0,0,.16.54c.64.67,1.29,1.33,2,2,.15.13.47.09.71.12-.05-.24,0-.55-.15-.71-.61-.66-1.27-1.29-1.92-1.92A2.67,2.67,0,0,0,192,188.68Zm-73.08,1a1.21,1.21,0,0,0,.29-.1c.79-.71,1.59-1.41,2.36-2.14a.51.51,0,0,0,0-.48.54.54,0,0,0-.53-.05c-.8.66-1.59,1.34-2.35,2.05a.6.6,0,0,0-.06.5C118.66,189.55,118.84,189.61,118.94,189.68Zm71.34,93.11a8.58,8.58,0,0,0,1.2,1.09,1.12,1.12,0,0,0,1,0c.37-.22.3-.65,0-1s-.75-.78-1.18-1.21Zm22.62-58.55a9.26,9.26,0,0,0,1.66-.16c.26-.07.45-.44.67-.67-.24-.21-.46-.55-.74-.6a10.71,10.71,0,0,0-1.71,0C212.82,223.31,212.86,223.72,212.9,224.24ZM138,282.7c-.09.86-.17,1.64-.25,2.49l1.23.15a9.48,9.48,0,0,1,.18-1.5c.18-.67-.09-.94-.69-1Zm58.27-89.53c-.15.1-.34.17-.35.26a.88.88,0,0,0,.1.56c.55.74,1.12,1.47,1.73,2.17.14.15.46.14.69.21,0-.25.05-.56-.07-.73-.52-.73-1.1-1.43-1.67-2.13A3.07,3.07,0,0,0,196.3,193.17Zm6.88,10.32h-.26c0,.25-.2.55-.12.74.36.88.77,1.74,1.21,2.57.08.16.38.2.59.29.05-.21.2-.48.13-.64-.37-.88-.78-1.73-1.2-2.58A1.57,1.57,0,0,0,203.18,203.49Zm-88,58.74a.58.58,0,0,0-.06-.23c-.68-.85-1.34-1.71-2-2.55a.48.48,0,0,0-.48,0c-.1.13-.17.43-.08.54.62.83,1.27,1.65,1.94,2.45.09.1.34.1.5.07S115.15,262.33,115.21,262.23Zm61.38-83.72c-.15.12-.35.2-.39.34a.51.51,0,0,0,.13.46c.95.48,1.92.93,2.9,1.35a.48.48,0,0,0,.45-.16c0-.15,0-.47-.1-.53C178.62,179.47,177.63,179,176.59,178.51ZM126.26,272c-.09.08-.28.17-.3.29a.54.54,0,0,0,.14.47c.87.57,1.76,1.12,2.67,1.64a.39.39,0,0,0,.41-.67c-.87-.58-1.77-1.12-2.66-1.66A.77.77,0,0,0,126.26,272Zm47.57,6.44c1.07-.45,2.09-.87,3.1-1.33.09,0,.15-.36.08-.47a.51.51,0,0,0-.44-.21c-1,.36-1.95.74-2.9,1.16a.56.56,0,0,0-.22.49C173.45,278.22,173.67,278.33,173.83,278.46Zm34-38.19c-.1-.14-.22-.41-.33-.41s-.48.14-.52.29c-.3,1-.55,2-.78,2.95a.56.56,0,0,0,.26.47.54.54,0,0,0,.48-.24C207.27,242.34,207.54,241.34,207.84,240.27Zm-22.56-56.7c-.17-.29-.21-.45-.31-.51-.88-.56-1.77-1.12-2.67-1.64-.12-.07-.36.08-.55.13.06.2,0,.49.17.58.83.55,1.68,1.08,2.55,1.57C184.64,183.79,185,183.63,185.28,183.57Zm-42.13-7.89c-1.1.31-2.1.58-3.09.89a.56.56,0,0,0-.22.49.55.55,0,0,0,.47.26c1-.23,2-.49,2.94-.79a.53.53,0,0,0,.31-.44C143.52,175.92,143.28,175.81,143.15,175.68Zm44.68,95c-.1-.15-.16-.34-.25-.36a.88.88,0,0,0-.56.06c-.77.51-1.54,1-2.27,1.61-.16.12-.17.44-.25.68.25,0,.55.08.73,0,.76-.48,1.49-1,2.22-1.55A2.15,2.15,0,0,0,187.83,270.69Zm-83.66-30.4c-.23-1.11-.42-2.11-.65-3.1,0-.14-.36-.35-.43-.31s-.38.33-.36.48c.17,1,.38,2,.63,3,0,.14.33.3.51.3S104.1,240.37,104.17,240.29Zm7.34,17a.66.66,0,0,0,0-.21c-.57-.93-1.14-1.86-1.74-2.77a.53.53,0,0,0-.48-.06c-.11.07-.23.36-.17.46.55.94,1.12,1.86,1.71,2.78a.49.49,0,0,0,.43.09C111.36,257.56,111.44,257.39,111.51,257.31Zm3.08-63c.24-.12.34-.14.4-.21.71-.79,1.42-1.57,2.11-2.38a.54.54,0,0,0-.07-.53.53.53,0,0,0-.53,0c-.73.77-1.44,1.56-2.1,2.39C114.31,193.67,114.51,194,114.59,194.28Zm75.61-7c-.1-.26-.1-.38-.16-.43-.87-.69-1.73-1.38-2.61-2a.51.51,0,0,0-.46.14.57.57,0,0,0,.05.53c.79.67,1.61,1.32,2.45,1.92C189.6,187.49,189.92,187.33,190.2,187.28Zm10.28,69.86c-.07-.08-.16-.25-.28-.29a.51.51,0,0,0-.44.08c-.63.86-1.25,1.73-1.84,2.62a.48.48,0,0,0,.1.47.52.52,0,0,0,.48,0c.66-.9,1.29-1.81,1.93-2.72C200.46,257.31,200.46,257.25,200.48,257.14ZM157.1,281.61v-.08a11.84,11.84,0,0,0,1.46,0c.19,0,.35-.28.53-.42-.18-.14-.35-.39-.52-.39q-1.42,0-2.85.06c-.19,0-.36.27-.54.41.18.14.34.38.54.41A10.57,10.57,0,0,0,157.1,281.61Zm-22-4.64c-.2-.26-.26-.41-.37-.46-.94-.46-1.88-.91-2.84-1.33a.4.4,0,0,0-.35.72c.93.47,1.88.92,2.84,1.32C134.49,277.28,134.76,277.08,135.06,277Zm-26.61-25.08c-.5-1.06-1-2.08-1.5-3.09,0-.08-.37-.11-.48,0a.51.51,0,0,0-.16.46c.41,1,.85,1.91,1.32,2.83.06.13.35.19.52.18S108.35,252,108.45,251.89Zm59.43,28.34c1.09-.31,2.12-.59,3.13-.92.12,0,.22-.34.2-.5a.51.51,0,0,0-.42-.24c-1,.24-2,.5-3,.8a.57.57,0,0,0-.28.47C167.51,280,167.74,280.1,167.88,280.23Zm24.53.39a9.62,9.62,0,0,0,1.26,1.13,1.14,1.14,0,0,0,1,0c.37-.22.3-.64,0-1s-.74-.81-1.08-1.19Zm-30.61.65c1.1-.16,2-.28,3-.46.18,0,.31-.32.46-.49-.19-.11-.4-.33-.58-.31-.94.1-1.88.23-2.81.41-.18,0-.32.31-.47.47Zm-59.58-59.58.4.55c.17-.21.44-.4.48-.63a25.83,25.83,0,0,0,.38-2.62c0-.2-.22-.42-.34-.64-.16.16-.42.31-.46.49C102.5,219.73,102.38,220.63,102.22,221.69Zm87.53,47.46c.12,0,.18,0,.21,0,.83-.74,1.67-1.47,2.48-2.24.07-.06,0-.38-.08-.47a.51.51,0,0,0-.49,0c-.81.69-1.61,1.4-2.39,2.13a.46.46,0,0,0,0,.43C189.49,269,189.67,269.1,189.75,269.15Zm-87-42.67h0a14.41,14.41,0,0,0,.07-1.46c0-.18-.23-.34-.36-.52-.15.12-.41.22-.42.35-.08,1-.12,2.08-.13,3.12,0,.14.28.29.43.44.13-.16.36-.31.38-.47A14.26,14.26,0,0,0,102.73,226.48Zm35-48.48v-.25c-.25-.06-.54-.22-.74-.15-.88.3-1.74.64-2.59,1-.18.09-.25.41-.37.62.22,0,.48.21.66.15.9-.32,1.77-.68,2.65-1A2.07,2.07,0,0,0,137.71,178Zm21.53-3.62a1,1,0,0,0-.34,0c-.27.11-.51.25-.77.38.25.16.47.41.73.45a24.53,24.53,0,0,0,2.56.21c.2,0,.41-.2.61-.3-.17-.18-.32-.47-.51-.51C160.77,174.49,160,174.45,159.24,174.38Zm-34.92,96.45a2.46,2.46,0,0,0-.3-.5c-.8-.64-1.59-1.28-2.42-1.89a.51.51,0,0,0-.53.06.55.55,0,0,0,0,.54c.82.68,1.65,1.35,2.51,2C123.72,271.1,124,270.91,124.32,270.83Zm15.94,8.6c.14-.1.38-.18.42-.32a.55.55,0,0,0-.2-.5c-1-.35-2-.68-3-1a.39.39,0,0,0-.27.74C138.21,278.74,139.2,279.07,140.26,279.43Zm67.34-42.28.31.43c.18-.14.48-.25.52-.42.18-1,.32-1.92.42-2.89,0-.17-.24-.38-.37-.56-.15.14-.4.27-.43.43C207.88,235.08,207.76,236,207.6,237.15Zm-104.52-2.92c-.09-1.13-.14-2.1-.26-3.06,0-.17-.26-.31-.41-.47-.14.16-.4.31-.39.46,0,1,.14,2,.26,3a.59.59,0,0,0,.46.36C102.89,234.55,103,234.29,103.08,234.23Zm101.24,15.43c.3-.27.48-.37.54-.51.39-.94.77-1.88,1.11-2.83.05-.15-.15-.37-.23-.56-.18.1-.46.15-.53.3-.39.91-.76,1.83-1.09,2.77C204.06,249,204.22,249.27,204.32,249.66Zm-93.44-50.39c.28-.18.43-.23.5-.33.6-.83,1.19-1.66,1.75-2.51.07-.12,0-.37-.07-.55-.21,0-.51,0-.6.1-.61.82-1.2,1.65-1.74,2.51C110.63,198.63,110.8,198.94,110.88,199.27Zm97.77,83.28,1.43,1.46,1.08-1-1.39-1.48ZM146.18,175.92c1.14-.16,2.13-.27,3.11-.45.15,0,.27-.31.4-.47-.18-.12-.37-.34-.53-.32-1,.1-2,.25-3,.43a.61.61,0,0,0-.36.46C145.85,175.72,146.11,175.86,146.18,175.92Zm-22.55,9.78c.11,0,.17,0,.2,0,.91-.64,1.82-1.27,2.71-1.94.08-.06.07-.38,0-.48a.52.52,0,0,0-.47-.11c-.89.59-1.76,1.21-2.62,1.84a.51.51,0,0,0-.1.44C123.38,185.53,123.55,185.62,123.63,185.7Zm85.43,38h0c-.06-.67-.1-1.34-.21-2,0-.18-.31-.32-.47-.48-.12.17-.35.35-.34.51,0,1,.15,2,.27,3,0,.15.24.28.38.41.14-.14.39-.28.41-.45A3.9,3.9,0,0,0,209.06,223.7Zm-55.15-48.57v0a9.67,9.67,0,0,0,1.32,0c.22,0,.42-.24.64-.37-.22-.15-.43-.43-.64-.44a24.46,24.46,0,0,0-2.71.1c-.2,0-.38.29-.56.45.21.12.41.34.63.36A8.34,8.34,0,0,0,153.91,175.13Zm54.53,43.42c-.24-1.1-.44-2.1-.7-3.09,0-.14-.33-.28-.51-.29s-.3.32-.27.46c.18,1,.39,2,.63,3a.53.53,0,0,0,.44.31C208.19,218.9,208.32,218.67,208.44,218.55Zm-104.89-2.36h.24c.12-.15.29-.28.34-.44.28-.94.54-1.88.76-2.82,0-.17-.15-.38-.24-.57-.19.12-.49.2-.55.36-.29.93-.54,1.87-.76,2.82C103.3,215.73,103.48,216,103.55,216.19Zm48.8,65.35c.09-.06.48-.19.53-.39.1-.45-.32-.45-.65-.48-.83-.08-1.66-.19-2.5-.22-.23,0-.48.21-.72.33.21.17.39.44.61.48C150.45,281.39,151.28,281.44,152.35,281.54Zm-23.46-99.22c1-.57,2-1.11,3-1.69.08,0,.09-.37,0-.47a.53.53,0,0,0-.47-.15c-.93.48-1.84,1-2.74,1.5-.12.07-.17.35-.15.52S128.75,182.21,128.89,182.32ZM207,212.52c-.38-1.08-.73-2.11-1.12-3.13a.49.49,0,0,0-.46-.15c-.14.09-.3.35-.26.48.3,1,.63,2,1,3a.61.61,0,0,0,.51.21C206.79,212.88,206.9,212.66,207,212.52Zm-7-14.37c-.49.15-.57.4-.34.76.5.81,1,1.63,1.52,2.41.1.15.41.17.62.24,0-.22.16-.5.07-.66-.47-.83-1-1.63-1.5-2.43A1.58,1.58,0,0,0,200,198.15ZM110.56,179.8c-.75-.88-1.42-1.71-2.14-2.5-.14-.15-.47-.11-.71-.17,0,.23-.06.53.05.67.68.85,1.4,1.67,2.15,2.54Zm60.19-3.39c-.14.12-.36.22-.37.34s.08.46.2.5q1.47.54,3,1c.13,0,.39-.12.48-.26a.49.49,0,0,0-.15-.46C172.87,177.13,171.84,176.79,170.75,176.41ZM106,246.23c-.38-1.11-.72-2.15-1.1-3.17,0-.1-.34-.19-.46-.14s-.3.31-.27.41c.33,1,.68,2.07,1,3.1a.51.51,0,0,0,.46.15C105.8,246.54,105.89,246.34,106,246.23ZM164.74,175c-.12.1-.4.22-.41.36a.59.59,0,0,0,.34.49c1,.24,1.94.43,2.93.59.16,0,.35-.19.54-.29-.12-.17-.22-.46-.37-.5C166.8,175.44,165.82,175.25,164.74,175Zm48.4,57.74a15.6,15.6,0,0,0,1.89-.21c.22-.06.55-.44.52-.6a1,1,0,0,0-.62-.61,13,13,0,0,0-1.88,0C213.08,231.85,213.11,232.26,213.14,232.77Zm-66.81,48.08c.11-.11.35-.24.4-.42s-.22-.4-.38-.44c-.94-.23-1.89-.43-2.84-.59-.18,0-.4.19-.6.29.14.18.26.46.44.5C144.29,280.43,145.24,280.62,146.33,280.85Zm36.49-7c-.41-.08-.7-.23-.88-.15-.87.42-1.72.89-2.55,1.38-.16.09-.19.39-.28.59.22.05.49.2.65.12.87-.42,1.71-.89,2.56-1.37C182.46,274.38,182.55,274.21,182.82,273.89Zm-32.59,19.58a17,17,0,0,0-.19,2,.89.89,0,0,0,.55.63c.17.05.59-.25.63-.45a20,20,0,0,0,.25-2.13Zm-11.8-1.26-1.25-.09A14.92,14.92,0,0,0,137,294a1,1,0,0,0,.49.75c.43.15.68-.19.73-.61C138.3,293.57,138.35,293,138.43,292.21Zm58.46-29.92c-.18-.24-.24-.42-.36-.47a.49.49,0,0,0-.43,0Q195,263,194,264.23a.49.49,0,0,0,0,.44c.06.11.34.25.37.21C195.18,264,196,263.18,196.89,262.29Zm20.65-26.78c-.17,1.35-.17,1.35,1.07,1.28l.55,0c.46,0,.88-.21.86-.72s-.48-.65-.92-.65S218.09,235.47,217.54,235.51Zm-104-58.2c-.75-.88-1.43-1.72-2.16-2.51-.13-.15-.46-.11-.7-.15,0,.21-.08.48,0,.61.7.87,1.44,1.72,2.18,2.59Zm-6.78,29.09c-.21.13-.36.17-.39.26-.43,1-.84,2-1.23,3.08a.51.51,0,0,0,.26.41.5.5,0,0,0,.46-.13c.42-1,.83-2,1.2-3C107.06,206.86,106.83,206.62,106.71,206.4Zm100.63,59.89a10.39,10.39,0,0,0,1.19,1.2,1,1,0,0,0,.91,0,.6.6,0,0,0,.13-1c-.36-.44-.76-.84-1.16-1.28Zm-5.8-11.18c.27-.18.43-.22.49-.32.51-.93,1-1.86,1.5-2.81a.55.55,0,0,0-.22-.49.54.54,0,0,0-.51.16c-.52.9-1,1.82-1.47,2.75C201.26,254.55,201.45,254.82,201.54,255.11Zm-85.12-80.3c-.75-.87-1.42-1.7-2.14-2.48-.14-.15-.46-.14-.7-.2,0,.24-.07.56.06.72.67.85,1.39,1.66,2.11,2.51Zm-1.48,1.24c-.75-.87-1.42-1.7-2.14-2.49-.13-.14-.43-.14-.65-.2,0,.2-.17.48-.08.58.71.91,1.47,1.78,2.24,2.68ZM139,292.28a13.53,13.53,0,0,0-.17,2c0,.25.35.49.54.74.22-.2.6-.36.65-.59a17.91,17.91,0,0,0,.22-2Zm14.31,1.5-1.25-.13a16.9,16.9,0,0,0-.18,2.05.82.82,0,0,0,.53.63.86.86,0,0,0,.65-.51A17.51,17.51,0,0,0,153.35,293.78Zm56.22-29.59c.4.42.75.82,1.13,1.18a.66.66,0,0,0,1,.07.7.7,0,0,0,.06-1.05c-.34-.41-.73-.78-1.12-1.2Zm-1.2-34.77h-.06a14,14,0,0,0,0,1.45c0,.2.23.39.36.58.15-.17.44-.32.45-.49.07-1,.09-2,.08-3.06,0-.17-.24-.33-.37-.5-.15.16-.42.31-.45.49A13,13,0,0,0,208.37,229.42Zm-90.5-55.86c-.76-.89-1.44-1.73-2.17-2.53-.13-.13-.43-.1-.65-.14,0,.2-.14.48,0,.59.72.9,1.48,1.76,2.24,2.65Zm-10,31.06c.22-.15.39-.21.46-.33.5-.91,1-1.82,1.46-2.75.06-.12-.06-.4-.18-.5a.49.49,0,0,0-.47.07c-.55,1-1.07,1.94-1.56,2.93C107.5,204.14,107.72,204.39,107.84,204.62ZM109.1,181c-.75-.88-1.45-1.74-2.2-2.55-.12-.13-.44-.08-.66-.11,0,.2-.09.48,0,.6.7.88,1.44,1.73,2.2,2.62Zm2.91-2.5c-.74-.88-1.42-1.71-2.14-2.49-.13-.15-.43-.14-.65-.2,0,.2-.16.48-.08.59.72.9,1.47,1.77,2.24,2.68ZM217.56,235a13.44,13.44,0,0,0,1.94-.18.81.81,0,0,0,.52-.65c0-.22-.36-.51-.61-.58a7.58,7.58,0,0,0-1.17,0c-.62-.06-.84.21-.74.8C217.53,234.52,217.53,234.7,217.56,235Zm-4.94-14.16a6.22,6.22,0,0,0,.07,1,.61.61,0,0,0,.37.38,5,5,0,0,0,1.44,0c.27-.06.47-.41.71-.63-.21-.22-.39-.58-.62-.62A15.11,15.11,0,0,0,212.62,220.81Zm.61,14.06a15.62,15.62,0,0,0,1.93-.21c.25-.06.43-.41.65-.63-.23-.2-.44-.55-.69-.58a13.37,13.37,0,0,0-1.9,0C213.23,233.94,213.23,234.33,213.23,234.87Zm0-4.29a14.21,14.21,0,0,0,2-.25c.57-.14.69-.59.38-.93a2.65,2.65,0,0,0-2.26-.2c-.24.21-.15.81-.21,1.24Zm4.32,2.32a16.3,16.3,0,0,0,2-.19.85.85,0,0,0,.5-.67.89.89,0,0,0-.61-.58,9.53,9.53,0,0,0-1.31,0c-.57,0-.75.21-.66.74C217.48,232.39,217.49,232.59,217.52,232.9Zm-.13-3.53a5.57,5.57,0,0,0,0,1c0,.15.22.37.35.37a6.06,6.06,0,0,0,1.65-.09,1,1,0,0,0,.6-.68c0-.22-.4-.58-.65-.62A14.24,14.24,0,0,0,217.39,229.37Zm-4,7.46a14.14,14.14,0,0,0,1.92-.17c.27-.06.48-.43.71-.65-.25-.21-.48-.56-.75-.6a14.22,14.22,0,0,0-2,0C213.29,235.93,213.32,236.32,213.35,236.83Zm-.28-9.82v1.48a10.7,10.7,0,0,0,1.85-.14c.32-.08.57-.44.84-.68-.28-.22-.54-.57-.86-.63A11.07,11.07,0,0,0,213.07,227Zm-.08-.63a14.77,14.77,0,0,0,2-.23c.24-.05.4-.42.6-.64-.23-.2-.45-.53-.7-.57a15.5,15.5,0,0,0-1.93,0Zm19.9-34.31-.08-.16c-.68.25-1.39.48-2.05.79a.77.77,0,0,0-.2.7.73.73,0,0,0,.64.29,24,24,0,0,0,2.46-1c.13-.06.21-.44.14-.59s-.36-.18-.56-.2S233,192,232.89,192.07Zm-14.83,30.86h0c.23,0,.46,0,.7,0,.46,0,.85-.24.83-.74s-.4-.65-.84-.66h-1.32c-.35,0-.65.06-.62.54s0,.87.62.85Zm2.27-25.71c-.26-.14-.5-.39-.66-.34a18.31,18.31,0,0,0-2.41.78c-.21.09-.28.48-.42.74.26.1.57.35.77.28a21.72,21.72,0,0,0,2.35-.94C220.08,197.68,220.14,197.49,220.33,197.22Zm-6.91,83.12L212,278.87,211,280.26l1.4,1.48C212.74,281.24,213.07,280.81,213.42,280.34Zm5.11-51.63.69,0c.46-.05.91-.24.8-.74-.06-.27-.5-.55-.82-.63a5.75,5.75,0,0,0-1.24,0c-.59,0-.74.26-.71.82s.36.62.79.59Zm-.46-3.92a3.43,3.43,0,0,0,1-.11c.26-.12.44-.45.66-.68-.25-.22-.48-.57-.77-.62a6.45,6.45,0,0,0-1.52,0c-.34,0-.52.16-.51.57C217,224.76,217,224.8,218.07,224.79Zm-10.78,59-1.32.95,1.45,1.42,1.31-.93C208.2,284.67,207.76,284.23,207.29,283.75Zm17.59-88.25a5.59,5.59,0,0,0-.76-.28c-.09,0-.21.12-.32.16-.71.21-1.44.39-2.13.67-.16.06-.27.5-.22.72a.7.7,0,0,0,.64.28c.83-.3,1.65-.65,2.46-1C224.67,196,224.72,195.78,224.88,195.5Zm-12.13,5,.37-.13c.77-.31,1.54-.6,2.28-1,.14-.07.2-.44.16-.65s-.35-.14-.55-.17-.18.11-.28.14c-.72.22-1.45.39-2.15.65a.8.8,0,0,0-.26.67C212.34,200.23,212.62,200.38,212.75,200.5Zm13.66-5a4.79,4.79,0,0,0,.55-.19c.65-.28,1.32-.55,1.95-.88.18-.1.25-.41.38-.62-.22-.06-.44-.12-.67-.16-.07,0-.15.06-.23.08-.72.21-1.45.39-2.14.66-.17.06-.31.45-.29.66S226.27,195.34,226.41,195.47Zm-7.9,29.85v0a4.9,4.9,0,0,0-1,.11.56.56,0,0,0-.34.47c0,.28.17.79.29.8a11.46,11.46,0,0,0,2.11-.14c.17,0,.39-.44.37-.64a.88.88,0,0,0-.52-.55A2.92,2.92,0,0,0,218.51,225.32Zm6.55-18.64c.95-.44,1.83-.83,2.69-1.27.1,0,.15-.35.09-.49s-.3-.32-.4-.29c-.89.25-1.78.52-2.64.85-.15.06-.27.47-.24.69S224.86,206.49,225.06,206.68Zm-6,1.75c-.36-.22-.6-.49-.76-.45a17.92,17.92,0,0,0-2.48.8c-.19.08-.24.5-.36.76.26.1.55.33.78.28a6.77,6.77,0,0,0,1.56-.56A10.6,10.6,0,0,0,219,208.43Zm13.22-5.64c-1.15.39-2,.66-2.88,1a.78.78,0,0,0-.24.73.75.75,0,0,0,.69.28,24,24,0,0,0,2.41-1c.13-.06.21-.35.2-.53A1.44,1.44,0,0,0,232.26,202.79Zm3.29-10.62c.78-.34,1.49-.6,2.16-.95.31-.16,1-.13.72-.82s-.67-.13-1-.05a17.89,17.89,0,0,0-2.15.68c-.14.06-.25.43-.21.63S235.38,192,235.55,192.17Zm-15.13,16.12c.26-.09.42-.13.57-.2.65-.28,1.31-.56,1.94-.89.18-.09.27-.37.4-.57-.23-.07-.45-.16-.69-.21-.07,0-.16.05-.24.07-.72.21-1.44.39-2.14.66-.15.06-.28.45-.25.66S220.3,208.15,220.42,208.29Zm16.7-6.67c-.22-.13-.45-.39-.6-.35a20.56,20.56,0,0,0-2.55.84.55.55,0,0,0,.39,1c.84-.29,1.66-.65,2.47-1C237,202.07,237,201.86,237.12,201.62Zm4.08-2.12c-.93.31-1.81.56-2.65.92-.18.08-.22.51-.32.78.27.09.58.31.8.24a19.56,19.56,0,0,0,2.33-.94c.14-.06.24-.39.21-.58S241.33,199.63,241.2,199.5Zm-54.07-19.56c.92-1,1.1-1.65.76-2.56a2.65,2.65,0,0,0-2.22,1.61Zm-69.19,4.36,1.08-.93a20.19,20.19,0,0,0-1.55-1.78,1,1,0,0,0-.94,0,.89.89,0,0,0-.13.87C116.84,183.08,117.39,183.65,117.94,184.3ZM195.85,187c.7-.89,1.43-1.68,1-2.88a2.68,2.68,0,0,0-2.3,1.66Zm-95.57,25.2-5.44-2.23c-.06.29-.12.5-.16.69.92.4,1.79.78,2.66,1.14l2.74,1.14C100.16,212.62,100.21,212.41,100.28,212.17ZM233.89,195l-.06-.16c-.65.23-1.29.46-1.93.71-.47.18-.5.52-.34,1s.43.56.86.38c.75-.31,1.52-.58,2.23-1,.16-.08.25-.54.18-.76s-.44-.22-.68-.29C234.08,194.87,234,195,233.89,195Zm-16.64,11.56-.06-.14a21.27,21.27,0,0,0-2.06.78.61.61,0,0,0-.11,1,.93.93,0,0,0,.76.29,15.27,15.27,0,0,0,2.25-.94.82.82,0,0,0,.21-.75c-.06-.17-.43-.26-.68-.34C217.48,206.42,217.35,206.52,217.25,206.57Zm2.94-6.55-.05-.15a16.71,16.71,0,0,0-2.1.84c-.16.08-.16.66-.06,1a.75.75,0,0,0,.7.26,14.65,14.65,0,0,0,2.31-1c.16-.08.23-.55.15-.77s-.44-.19-.68-.26C220.38,199.91,220.28,200,220.19,200Zm4.65-1.88c-.86.33-1.59.55-2.26.89-.16.08-.19.58-.12.84s.43.49.58.45a15.59,15.59,0,0,0,2.05-.81c.38-.17.95-.36.64-.93C225.59,198.33,225.12,198.27,224.84,198.14Zm-5.91,5.63c1-.45,1.86-.84,2.71-1.29.12-.06.12-.48.05-.69s-.34-.36-.47-.32a23.37,23.37,0,0,0-2.58.81c-.16.07-.25.55-.21.81S218.73,203.52,218.93,203.77Zm-2-1.59c-.38-.32-.64-.71-.81-.67a19.26,19.26,0,0,0-2.58.8.57.57,0,0,0-.19.93.91.91,0,0,0,.73.37,7,7,0,0,0,1.63-.59A10.08,10.08,0,0,0,217,202.18Zm12.15,1.51c1-.47,1.9-.86,2.75-1.31.12-.06.13-.48.05-.68s-.38-.38-.52-.34a18.4,18.4,0,0,0-2.42.77.9.9,0,0,0-.38.74C228.61,203.14,228.89,203.39,229.1,203.69Zm-2.19-6.49c1-.46,1.9-.84,2.76-1.29.12-.07.16-.48.09-.69s-.38-.4-.52-.36a21.81,21.81,0,0,0-2.49.79.8.8,0,0,0-.35.69A2.76,2.76,0,0,0,226.91,197.2Zm9.92,3.12c-.43-.32-.7-.68-.88-.63a21.55,21.55,0,0,0-2.48.77c-.5.18-.43.57-.28,1a.56.56,0,0,0,.82.37c.51-.2,1.05-.35,1.55-.59A11.4,11.4,0,0,0,236.83,200.32Zm-23.56,1.9c1-.47,1.89-.84,2.73-1.29.12-.06.15-.49.08-.69s-.38-.39-.52-.35a18.82,18.82,0,0,0-2.45.77.88.88,0,0,0-.33.75C212.81,201.68,213.08,201.92,213.27,202.22Zm8.47,2.53a19.36,19.36,0,0,0-2.11.85c-.15.07-.16.58-.08.84s.43.47.58.42a9.22,9.22,0,0,0,2-.77c.33-.18.94-.27.72-.94S222.18,204.76,221.74,204.75Zm19.68-6.07c-.41-.35-.68-.73-.85-.69a19.6,19.6,0,0,0-2.63.83c-.44.18-.39.64-.16,1a.94.94,0,0,0,.74.34,6.87,6.87,0,0,0,1.57-.57A12.86,12.86,0,0,0,241.42,198.68Zm-18,3.44c1-.47,1.9-.86,2.75-1.3.12-.06.17-.45.1-.63s-.36-.43-.49-.4a24.22,24.22,0,0,0-2.59.81c-.16.06-.28.49-.25.72A3.07,3.07,0,0,0,223.43,202.12Zm4.28,1.56c-.42-.32-.7-.68-.88-.64a20.43,20.43,0,0,0-2.52.79c-.43.16-.39.54-.25.93s.4.54.8.4a15.23,15.23,0,0,0,1.56-.59A11.81,11.81,0,0,0,227.71,203.68Zm8.28-9.34c0,.83.43,1.1,1.09.85s1.47-.55,2.17-.9a.76.76,0,0,0,.2-.71c-.06-.21-.41-.51-.56-.47a21.76,21.76,0,0,0-2.48.81C236.21,194,236.08,194.25,236,194.34Zm-8.48,4.44c1-.44,1.86-.81,2.69-1.24.13-.07.17-.48.1-.69s-.37-.41-.5-.38a20,20,0,0,0-2.55.83c-.18.07-.31.53-.26.78S227.31,198.54,227.51,198.78Zm8.23-1.72c-.42-.3-.69-.65-.88-.61a21.63,21.63,0,0,0-2.46.73c-.49.18-.45.57-.29,1a.55.55,0,0,0,.8.38,13.91,13.91,0,0,0,1.56-.59A10.44,10.44,0,0,0,235.74,197.06ZM117.46,292.57c1.8-.55,2.92-1.76,2.92-3.3-.7.55-1.28,1-1.91,1.48a4.4,4.4,0,0,1-1,.4c-.24.08-.5.12-.84.21ZM221,198.85c-.41-.29-.69-.65-.9-.61a17.7,17.7,0,0,0-2.45.74c-.48.17-.43.57-.28,1a.55.55,0,0,0,.81.37,13.21,13.21,0,0,0,1.56-.59A10.12,10.12,0,0,0,221,198.85Zm13.71-5c-.45-.3-.74-.65-.95-.61a20.48,20.48,0,0,0-2.39.72c-.47.16-.5.51-.34,1a.57.57,0,0,0,.85.41,11.12,11.12,0,0,0,1.49-.56A11.3,11.3,0,0,0,234.7,193.82ZM235,198a21.35,21.35,0,0,0-2.26.89c-.15.09-.16.63-.08.91a.7.7,0,0,0,.6.37,12.18,12.18,0,0,0,2-.78c.35-.18,1-.36.63-.95C235.78,198.22,235.32,198.16,235,198Zm-20.67,7.41c1-.45,1.86-.81,2.69-1.25.13-.06.17-.48.1-.68s-.36-.41-.5-.37a20,20,0,0,0-2.53.79c-.18.07-.3.53-.26.79S214.18,205.18,214.37,205.44Zm8.21-1.72c-.4-.3-.67-.66-.85-.62a20.14,20.14,0,0,0-2.51.76c-.44.16-.39.54-.26.93s.39.57.79.43a11.37,11.37,0,0,0,1.63-.61A9.09,9.09,0,0,0,222.58,203.72Zm4.61-1.67c-.45-.31-.74-.66-.94-.62a20.06,20.06,0,0,0-2.4.72c-.48.17-.49.51-.34.95a.58.58,0,0,0,.85.43,11.12,11.12,0,0,0,1.49-.56A11.3,11.3,0,0,0,227.19,202.05Zm-12.32,5.06c1-.47,1.9-.86,2.76-1.31.12-.07.14-.49.06-.69s-.37-.38-.51-.35a18.82,18.82,0,0,0-2.45.77.81.81,0,0,0-.36.69C214.4,206.51,214.66,206.77,214.87,207.11Zm7.5-8.23c1-.47,1.89-.85,2.73-1.3.12-.06.15-.49.07-.69a.66.66,0,0,0-.52-.34,19.18,19.18,0,0,0-2.44.77c-.19.07-.36.5-.34.74S222.17,198.57,222.37,198.88Zm14.68-1.83,2.21-.88c.2-.08.49-.13.57-.29a1.15,1.15,0,0,0,.12-.82c-.1-.28-.31-.44-.75-.23-.69.32-1.48.4-2.19.68a.88.88,0,0,0-.4.71C236.63,196.5,236.89,196.76,237.05,197.05Zm-9,3.4c1-.48,1.9-.88,2.77-1.34.11-.05.14-.44.06-.62s-.36-.41-.49-.38a22.88,22.88,0,0,0-2.59.81c-.17.07-.3.5-.26.74S227.8,200.14,228,200.45Zm2.39-.55-.06-.14a20.82,20.82,0,0,0-2.11.81.62.62,0,0,0-.1,1c.15.18.52.38.7.32a19.68,19.68,0,0,0,2.41-1c.14-.07.21-.52.12-.72s-.4-.25-.63-.33S230.51,199.86,230.4,199.9Zm7.2-1.29.26-.06c.85-.35,1.71-.67,2.53-1.07.14-.07.2-.52.13-.74s-.41-.44-.56-.4a19.32,19.32,0,0,0-2.47.82.88.88,0,0,0-.32.75C237.2,198.18,237.47,198.42,237.6,198.61Zm-1.66-4.89.25,0c.87-.35,1.75-.68,2.6-1.09.13-.06.17-.52.1-.74s-.41-.43-.56-.39a17.78,17.78,0,0,0-2.4.8.87.87,0,0,0-.39.72C235.56,193.26,235.82,193.52,235.94,193.72ZM183.47,174c-1.5.05-2,1.24-2.79,2.21l1.59.81C183,176.16,183.91,175.36,183.47,174ZM148.91,302.6c-.18,1.71-.36,3.32-.49,4.93,0,.22.26.47.39.7.18-.18.47-.35.5-.56.21-1.62.37-3.25.54-4.93Zm1.91.23c-.18,1.72-.36,3.36-.5,5,0,.2.27.42.42.63.16-.17.46-.32.48-.51.21-1.65.36-3.31.54-5Zm-13.49-1.38c-.17,1.66-.35,3.27-.48,4.88,0,.23.25.48.38.72.18-.21.47-.4.51-.63.17-1.1.27-2.21.38-3.31.06-.52.09-1,.14-1.6Zm1.93.16c-.18,1.71-.37,3.33-.51,5,0,.2.25.43.38.65.18-.15.49-.29.51-.46.21-1.66.38-3.33.56-5Zm62.09-114.17c-1.53.05-2,1.25-2.75,2.18,0,.07,0,.27.09.36.32.39.66.76,1,1.19C200.44,190,201.79,189.12,201.35,187.44Zm13.9,58.08,2.95,2.4a.55.55,0,0,0,.31.14c.8-.06,1.6-.14,2.58-.23A8.65,8.65,0,0,0,215.25,245.52Zm16.17,10.3-.72-1,1.22-.06c-.5-.49-.83-1.11-1.26-1.19a17.72,17.72,0,0,0-2.94,0,11,11,0,0,1,1,1.37,1.91,1.91,0,0,0,2.55,1.06ZM112.18,182.87l-1,.86,3.13,3.68,1-.88Zm11.42-3.41,1-.86-3.12-3.67-1,.86Zm66.13,2.28,2.46,1.92a2.36,2.36,0,0,0,.76-2.53l-.95.18c0-.36-.08-.67-.12-1A2.41,2.41,0,0,0,189.73,181.74Zm-82.48,5.31,3.13,3.68,1-.88-3.12-3.66C107.92,186.48,107.62,186.74,107.25,187.05Zm5.85-5,3.13,3.68,1-.89-3.12-3.66Zm-3.9,3.33,3.12,3.67,1-.88-3.13-3.67Zm13.23-11.27c1.07,1.26,2.08,2.45,3.13,3.67l1-.87-3.13-3.67Zm-3.9,3.33c1.08,1.26,2.09,2.45,3.12,3.67l1-.88-3.13-3.67Zm-2,1.66,3.13,3.68,1-.91-3.11-3.65Zm113.08,73c-1.87-1.15-3.37-3-6-2.95.89.91,1.7,1.74,2.51,2.55a.69.69,0,0,0,.38.12ZM101.88,207.29l.36-1L97.1,204c-.19.48-.36.9-.51,1.29Zm114.75,47.18c1.53,1.77,3.53,2,5.51,2.32a26.23,26.23,0,0,0-2-2.37.5.5,0,0,0-.36-.16C218.74,254.31,217.76,254.39,216.63,254.47ZM179,170.63c-2,.33-2.45,2.17-3.66,3.36.7.27,1.24.47,1.83.71C177.89,173.39,179.46,172.53,179,170.63Zm45.21,83.1,2.31,2.53a.54.54,0,0,0,.36.16c.67-.07,1.34-.17,2.15-.28-.69-.88-1.28-1.65-1.88-2.4a.47.47,0,0,0-.33-.21C226,253.58,225.2,253.65,224.23,253.73Zm-14-8.13c-.19.56-.32.91-.43,1.26s-.51.87.11,1.27c.42.26.79.86,1.2.87a19,19,0,0,0,2.89-.31c0-.08,0-.16,0-.23Zm4,7.62c-.74-.82-1.52-1.69-2.32-2.55a.52.52,0,0,0-.37-.14c-1,.07-2.06.16-3.09.24C210.3,252,211.92,253.62,214.24,253.22Zm28.25-54.58c1-.38,1.92-.69,2.81-1.07a1.07,1.07,0,1,0-.79-2c-.89.3-1.78.65-2.71,1Zm-36.75-8.06a7.05,7.05,0,0,0-1.62,1,19.9,19.9,0,0,0-1.77,2.31.64.64,0,0,0-.09.54c.27.45.6.86,1,1.34.82-1.1,1.61-2.12,2.35-3.18A2.12,2.12,0,0,0,205.74,190.58Zm20.32,65.95c-.86-.92-1.58-1.7-2.31-2.47a.56.56,0,0,0-.35-.19c-.87.08-1.74.19-2.73.31.8.9,1.49,1.68,2.19,2.44a.73.73,0,0,0,.48.19C224.19,256.75,225,256.64,226.06,256.53Zm-14.67-10.84c1.09.89,2.19,1.77,3.29,2.65a.59.59,0,0,0,.37.14l2.53-.34C215.71,246.57,214.11,244.74,211.39,245.69ZM101.64,264.92c-.35-.91-.67-1.72-1-2.59l-4,1.51c.9.6,1.74,1.16,2.59,1.7a.67.67,0,0,0,.51.09C100.38,265.42,101,265.17,101.64,264.92ZM89,231.79l-1.89.73a.51.51,0,0,0-.28.26c-.29,1-.56,2.06-.85,3.14l4-1.54C89.6,233.51,89.29,232.7,89,231.79ZM220,249.36c1,1,1.84,1.94,2.74,2.87a.38.38,0,0,0,.3.13c.82-.11,1.63-.24,2.64-.39-1-1-1.91-1.82-2.8-2.65a.57.57,0,0,0-.38-.13C221.7,249.23,220.87,249.3,220,249.36Zm1.94,3.15-2.64-2.84a.55.55,0,0,0-.36-.17c-.82.1-1.64.22-2.53.35a11.72,11.72,0,0,1,1.31,1.36,3.31,3.31,0,0,0,4.19,1.31ZM90.19,235l-4.64,1.77a.74.74,0,0,0-.32.26c-.45.67-.89,1.35-1.43,2.18l7-2.66C90.57,236,90.39,235.56,90.19,235Zm2.62,27.78,2.42.63a.89.89,0,0,0,.53,0c1.54-.57,3.06-1.16,4.64-1.76-.22-.55-.41-1-.62-1.58Zm119.93-12.4c.82.9,1.63,1.79,2.46,2.67a.63.63,0,0,0,.43.17c1-.06,2-.15,2.92-.24-.93-1-1.8-1.91-2.69-2.82a.56.56,0,0,0-.43-.15C214.5,250.13,213.56,250.27,212.74,250.39Zm-15,27.86c.24.53.54.73,1.07.59s1.16-.16,1.7-.35a2.53,2.53,0,0,1,3.28,1c.3.42,2.57.27,2.89-.14a.72.72,0,0,0,.08-.26c.62-1.95.63-2-.8-3.43a1.1,1.1,0,0,1-.3-1.18c.26-1,.45-2,.72-3,.15-.56-.09-.79-.56-1-.25,1.34-.44,2.62-.75,3.88a1.53,1.53,0,0,0,.57,1.81,1.71,1.71,0,0,1,.71,2.15.9.9,0,0,1-.76.71,1.65,1.65,0,0,1-2-.66,3,3,0,0,0-.58-.61.81.81,0,0,0-.46-.23C201,277.79,199.41,278,197.79,278.25Zm-2.41-8.83c1.15,1.1,2.27,2.18,3.4,3.24.56.52,1.53.73,1.77.37a1.3,1.3,0,0,0-.21-1.61c-1.08-1.23-2.22-2.42-3.36-3.64Zm44.39-78.94c.33,1,.64,1.88.95,2.81,1-.37,1.93-.68,2.82-1.06a1.54,1.54,0,0,0,.94-1.92,1.46,1.46,0,0,0-1.94-.84C241.64,189.77,240.76,190.12,239.77,190.48Zm-47.87,82c.94.89,1.82,1.75,2.72,2.58a1.33,1.33,0,0,0,1.94.06,1.26,1.26,0,0,0,0-1.91c-.82-.85-1.69-1.65-2.58-2.51Zm8.15-8.17-1.75,2.07c.87.93,1.67,1.8,2.5,2.65a1.29,1.29,0,0,0,1.92.19,1.32,1.32,0,0,0,.06-2C201.92,266.25,201,265.32,200.05,264.29Zm-55,32.51a2.39,2.39,0,0,0,2.41-2.36,2.46,2.46,0,0,0-2.39-2.42,2.4,2.4,0,0,0-2.39,2.39A2.35,2.35,0,0,0,145.07,296.8Zm12.44-136.59c-.48-2.25-.93-4.45-1.43-6.63,0-.15-.36-.33-.55-.33-.83,0-1.67,0-2.5,0-.41,0-.57.14-.64.53-.17,1-.37,2-.59,2.93-.26,1.17-.56,2.32-.86,3.53ZM78.17,219.55a4.3,4.3,0,1,0-4.26,4.34A4.31,4.31,0,0,0,78.17,219.55Zm67.92-48.29a58.64,58.64,0,0,1,16.25-.37c-.82-2.92-4.65-5.34-8.2-5.23C150.39,165.77,146.71,168.28,146.09,171.26Zm-42.34,81.81c-.91-2.35-1.89-4.61-2.67-6.94s-1.35-4.71-2-7.14c-1.17.46-2.38.95-3.62,1.4a.66.66,0,0,0-.51.87c.21,1.36.45,2.71.54,4.07a8.63,8.63,0,0,0,2,5.09c.77,1,1.4,2,2.09,3,.2.31.41.61.62.91Zm-5.89,3.62-6.24-16.28-8,3.17,6.18,16.12Zm7.46,8.41,2.06.57c.17.06.37.25.5.21,1.11-.32,1.58.6,2.25,1.13l.23.17,1.56-1.73L107.09,259l-6,2.16c1,2.49,1.88,4.91,2.81,7.36l-.75.31c-.42-1.08-.83-2.13-1.27-3.23l-1.7.64,1.88,3.07-.8.32c-.2-.41-.36-.76-.55-1.11-1.58-2.84-4.17-4.16-7.24-4.81A5.36,5.36,0,0,0,90,264a11,11,0,0,1-4.47,1.17s0-.08,0-.11c.14-.25.29-.49.44-.74a3.71,3.71,0,0,0-.85-.15,17.3,17.3,0,0,1-1.79.14c.49-.36,1-.69,1.47-1.08a3.14,3.14,0,0,0,.48-.69l-.74-.38A7.9,7.9,0,0,1,88,260.31q-3.08-8-6.06-15.83l-3.94.91a1.19,1.19,0,0,1,0-.26l.45-.73a3.26,3.26,0,0,0-.85-.16,17.79,17.79,0,0,1-1.81.07c.48-.33,1-.63,1.44-1a3.32,3.32,0,0,0,.56-.67l-.89-.43A21.88,21.88,0,0,1,78.88,241c.92-.44,1.91-.72,2.84-1.15a4.22,4.22,0,0,0,1.37-1,10.58,10.58,0,0,0,3-7.23,23.07,23.07,0,0,0-.44-3l.69-.3c.22,1.21.42,2.34.63,3.55l1.74-.66-1.23-3.27.76-.31L91.06,235l1.69-.66c1.67-.65,3.34-1.29,5-2,.21-.08.48-.34.49-.52,0-1.65,0-3.3,0-5l-2.67-.21c-5.64-.39-11.27-.79-16.91-1.16-.45,0-.92.29-1.38.27-2.34-.13-4.68-.32-7-.47-.52,0-1,0-1.61,0v-.89c-1.31,0-2.22-.83-3.16-1.49a6.71,6.71,0,0,0-4.08-1.31,3.29,3.29,0,0,1-1.13-.28l-7.28-3a5.1,5.1,0,0,1-.5-.26c1-.24,1.87-.44,2.73-.66,1.71-.43,3.41-.91,5.13-1.3a6.47,6.47,0,0,1,2.05-.17,4.81,4.81,0,0,0,3-.49,13.26,13.26,0,0,1,1.84-.83c.65-.25,1.33-.43,2-.64l.1.16c.06-.28.11-.57.18-.9.53.08,1,.19,1.55.23,2.39.18,4.86,0,7.14.61a46.78,46.78,0,0,0,6.62.76c2.28.26,4.59.33,6.88.49l6.82.5c.27,0,.55,0,.87,0,.08-.37.17-.72.26-1.11-1-.33-1.89-.6-2.77-1A13.93,13.93,0,0,1,95,212.57c-.42-.28-.78-.79-1.49-.06a7.8,7.8,0,0,1-.11-1.79,14.82,14.82,0,0,1,.63-2.35c.19-.6.64-.67,1.11-.25a1.28,1.28,0,0,0,.56.23c.46.12.92.19,1.37.32.78.23,1.53.51,2.31.74.52.15,1.06.24,1.75.39-.15-.2-.2-.35-.3-.4-1.56-.82-3.13-1.63-4.71-2.4a3.06,3.06,0,0,0-.87-.1c-1-.13-1.36-.71-1.06-1.62.38-1.17.75-2.35,1.16-3.51.31-.87.83-1.13,1.53-.54,1.84,1.55,4.24,1.47,6.31,2.5l.62-1.14a23.33,23.33,0,0,1-2.48-.75c-1.11-.46-2.19-1-3.26-1.55a.62.62,0,0,1-.21-.51,3.33,3.33,0,0,1,.28-.86c.25-.57.61-.69,1.23-.45,1.71.67,3.32,1.69,5.23,1.76a2.71,2.71,0,0,0,.71-.17,2.19,2.19,0,0,0-.22-.71c-1.64-2-3.31-3.9-5-5.85l-.54-.65,6.19-5.28-1.07-1.33,2.85-2.44-.62-.84.92-.83-2.4-2.82c-.09-.1-.29-.1-.42-.18s-.55-.27-.6-.46.12-.5.26-.72.3-.28.56-.53c-.66-.65-1.28-1.32-2-1.93-.35-.32-.42-.58-.09-.93.12-.13.26-.25.41-.39-.24-.44-.49-.86-.72-1.29a5.11,5.11,0,0,1-.41-3.72,3.79,3.79,0,0,0,.13-1.75,4,4,0,0,0-1.54-2.43.61.61,0,0,1-.15-.54,1,1,0,0,0-.26-1.25c-.53-.55-1-1.15-1.49-1.75A1.57,1.57,0,0,1,99,161l.2-.11c.64.75,1.27,1.5,1.92,2.24.13.14.37.35.48.31.74-.28,1,.16,1.38.7a3.34,3.34,0,0,0,1.91,1.42,3,3,0,0,0,1.4.18,5.36,5.36,0,0,1,4.33,1.32l.67.56c.19-.14.36-.36.55-.38a.93.93,0,0,1,.75.2c.58.73,1.09,1.52,1.65,2.32a4.06,4.06,0,0,1,.49-.36c.28-.11.63-.33.85-.25s.26.49.37.77c0,.1,0,.23.12.31l2.41,2.84,1-.77.71.76,2.87-2.43,1.15,1.26,6.2-5.27c1.9,2.24,3.78,4.42,5.63,6.63.32.37.59.53,1.05.3a2.86,2.86,0,0,1,.92-.31,3.75,3.75,0,0,0,3-2.38c1.15-2.23,2.39-4.41,3.63-6.59a4.24,4.24,0,0,0,.6-2.52c0-.5,0-1,0-1.64,1.42.49,1.66-.52,2-1.4a36.09,36.09,0,0,0,2.6-8.4,7.91,7.91,0,0,1-.46-1.4c0-.11.53-.29.95-.51.26-1.75.58-3.65.8-5.56.53-4.52,1.09-9,1.48-13.58.28-3.35.36-6.73.44-10.1,0-.72-.51-1.44-.52-2.17s-.07-1.56.8-2.09a1.54,1.54,0,0,0,.76-1.49,22.52,22.52,0,0,1,.26-3.92c0,.18,0,.36,0,.54.06,1.32,0,2.64.19,4,0,.36.55.66.82,1a3.09,3.09,0,0,1,.45.68,2.57,2.57,0,0,1,0,2.31,5.72,5.72,0,0,0-.34,3,213.68,213.68,0,0,0,2.71,27.31.9.9,0,1,1,0,.11c.43.25,1,.46,1,.6a3,3,0,0,1-.61,1.28,40.38,40.38,0,0,0,3.18,9.56.91.91,0,0,0,.57.35,5.26,5.26,0,0,0,.9,0,16.3,16.3,0,0,0,0,1.86,5.65,5.65,0,0,0,.45,1.84c1.33,2.51,2.72,5,4.1,7.45a2.63,2.63,0,0,0,2,.94c.17,0,.31-.26.44-.41l4.5-5.87.48-.59L212,193l-5.76,7.92.12.23a29.81,29.81,0,0,0,3-1c-.16-.27-.16-.27-2.09.17,1-.48,2-.93,3-1.43a12.63,12.63,0,0,0,1.31-.93c.83.51,1.62-.33,2.51-.58a4.65,4.65,0,0,0,1-.58c.28-.17.55-.36.86-.58,1,.55,1.8-.26,2.71-.55a5.75,5.75,0,0,0,1-.56c.26-.15.5-.33.83-.55,1,.54,1.8-.27,2.72-.58a5.13,5.13,0,0,0,.91-.51c.3-.18.59-.37.93-.59.87.35,3.7-.69,4.48-1.74,1,.63,1.79-.18,2.65-.43a6.18,6.18,0,0,0,1.29-.69,4.66,4.66,0,0,0,.58-.45c1.89.3,3.2-.89,4.82-1.69.12.33.3.79.44,1.26a.62.62,0,0,0,.94.47c1.35-.51,2.7-1,4.05-1.49.36-.14.61-.52,1.14-.3a.65.65,0,0,0,.83-.66c0-.13.19-.27.39-.51,1.24,3.71,2.43,7.29,3.68,11-.82-.2-1.65-.74-2,.31a8.9,8.9,0,0,0-1,.21c-1.19.42-2.36.86-3.54,1.29-.89.33-.93.43-.64,1.32a5.43,5.43,0,0,1,.24,1.25c-.7-.39-1.21,0-1.76.2s-1,.22-1.53.43a14.07,14.07,0,0,0-1.59,1c-.76-.29-3.75.81-4.29,1.74-1.12-.32-4,.74-4.6,1.7-1-.37-4,.72-4.54,1.67-1.07-.35-4,.73-4.42,1.47a23,23,0,0,0-2.56.56c-.82.29-1.82.33-2.16,1.45l-.5-.54c-.72.26-1.44.51-2.15.78l-2.22.82c.14.55.27,1.08.41,1.64.8,0,1.54-.1,2.28-.11.52,0,1,.06,1.55.08a5,5,0,0,1,1.71.09,12,12,0,0,0,3.3.49,11.12,11.12,0,0,0,1.9.19,2.77,2.77,0,0,1,2.1.77,21.72,21.72,0,0,1,2.14,2.55,17.7,17.7,0,0,1,1.1,2c.22.42.47.83-.07,1.21a.42.42,0,0,0-.08.38c.35.66,0,1.77,1.23,1.87.06,0,.15.16.17.26.74,3.77,1.15,7.54,0,11.3l0,0c-.43.17-.78.28-1.1.43-1,.49-2,1-3,1.49a3.46,3.46,0,0,1-1.26.33,7.71,7.71,0,0,0-2.25.68c-.34.16-.51.68-.77,1a.55.55,0,0,1-.3.2c-.81.14-1.63.23-2.44.39-.38.08-.82.16-.82.77,0,.14-.44.38-.7.42-1.53.25-3,.81-4.61.57-.72-.11-.39.62-.7,1,1.05.25,2,.45,3,.71a45,45,0,0,1,16.64,7.86,37.68,37.68,0,0,1,3.73,3.64,5.63,5.63,0,0,1,.94,1.54c.37.83.23,1.27-.62,1.52a14.6,14.6,0,0,1-3.27.6,34.47,34.47,0,0,1-13.53-2.54,49.58,49.58,0,0,1-9.3-4.58c-.16-.1-.32-.18-.47-.28-.71,1-.71,1,.06,1.8l6.07,6.42c-.54.52-1.08,1-1.57,1.51a.83.83,0,0,0-.18.69,4.65,4.65,0,0,0,1.16,2c1.83,2.13,3.44,4.43,2.9,7.51a1.06,1.06,0,0,0,.22.74c.64.82,1.37,1.59,2,2.43a9.17,9.17,0,0,1,.75,1.57,1.63,1.63,0,0,1-1.79-.49c-.7-.71-1.39-1.43-2.05-2.18a1.33,1.33,0,0,0-1.25-.55,8.79,8.79,0,0,1-1.25,0,11.24,11.24,0,0,0,.59,1.81,6.36,6.36,0,0,0,1.12,1.47c.39.39.78.7.7,1.34,0,.23.18.51.32.74.92,1.57,2,3.08,2.22,4.92a27.65,27.65,0,0,1,.2,4,5,5,0,0,0,1.35,3.61c.48.5.94,1,1.41,1.55a5.91,5.91,0,0,1,1.7,3c0,.27.3.5.48.74s.41.49.62.74l-.17.18a5.13,5.13,0,0,1-.57-.45,4.07,4.07,0,0,0-1.37-.86,11.58,11.58,0,0,1-2.42-1.58c-.76-.61-1.43-1.33-2.14-2a3.83,3.83,0,0,0-2.54-1c-1-.05-1.94-.16-2.92-.19-2.43-.07-4.35-1.32-6.29-2.59a7.85,7.85,0,0,0-1.12-.42,2,2,0,0,1-.73-.47A3.68,3.68,0,0,0,201,286c-.33,0-.64-.41-1-.69,0,.69,0,1.32,0,1.95a1,1,0,0,0,.31.58c.73.77,1.49,1.52,2.23,2.3a1.83,1.83,0,0,1,.59,1.68,2.05,2.05,0,0,1-1.62-.59c-.8-.71-1.58-1.44-2.39-2.14a.93.93,0,0,0-.66-.24,7.14,7.14,0,0,1-4.79-1.1,16.4,16.4,0,0,1-3.12-2.59,4.67,4.67,0,0,0-1.72-.83c-.1,0-.32.12-.45.24-.52.47-1,.95-1.49,1.4l-6.32-6.13c.08,1.09.13,2.14-1,2.74.84,2.18,1.65,4.32,2.5,6.45.34.86.43,1.88,1.39,2.39.12.06.14.33.19.51l.91,2.83a16.89,16.89,0,0,0,3-.75,1.7,1.7,0,0,1,2,.19,1.89,1.89,0,0,0,2.15.32,3.67,3.67,0,0,1,1.63-.1c-.63.55-1.1,1.3-2.09,1.15a1.72,1.72,0,0,0-.81.09,23,23,0,0,0-5.28,2.61c-.29.19-.61.32-1,.51.15.61.29,1.21.43,1.82a5.12,5.12,0,0,1,.14.68.85.85,0,0,1-.7,1,.79.79,0,0,1-1-.48c-.26-.54-.49-1.1-.73-1.65-.16-.37-.37-.57-.81-.38a2.25,2.25,0,0,1-.88.19,10.9,10.9,0,0,0-5,1.32,2.76,2.76,0,0,0-.83.6,3,3,0,0,1-2.09.75,2.73,2.73,0,0,1,1.5-1.39c.57-.3.91-.58.73-1.32a1.14,1.14,0,0,1,.82-1.35c1.1-.46,2.15-1.05,3.29-1.62-.39-.82-.72-1.5-1-2.19-.59-1.23-1.23-2.45-1.76-3.71a11.6,11.6,0,0,1-1-3.11,11.38,11.38,0,0,0-1.16-2.83c0-.09-.18-.24-.22-.22-.73.28-1.23-.24-1.73-.57a4.35,4.35,0,0,1-.86-1.06c-.49.13-1.18.12-1.57.45a3.07,3.07,0,0,0-.91,1.66,6.11,6.11,0,0,1-3,4.06c.08,4.56.16,9.25.24,13.95l.69.15a1,1,0,0,1,.05.16l-.68.35c-.12.3-.06.47.36.63A1.92,1.92,0,0,1,167,308a.9.9,0,0,0-.32.54c0,3,.06,5.94.09,8.91,0,1.13,0,2.27,0,3.57-.26-2.41-.49-4.65-.76-6.9q-.33-2.76-.73-5.5a.77.77,0,0,0-.36-.44,1.94,1.94,0,0,1,.07-3.46c.18-.12.28-.36.49-.63l-.92-.19,0-.2.69-.34c-.16-1.43-.33-2.9-.51-4.37-.35-2.95-.72-5.9-1.07-8.86a1,1,0,0,0-.64-.89,5,5,0,0,1-2.87-3.31c-.13-.54-.4-.69-.93-.67-1.05,0-2.09,0-3.22,0-.15,1.39-.3,2.65-.43,3.91-.2,2-.38,4-.61,6a59.13,59.13,0,0,1-1,7.44c-.6,2.45-.54,5-1.06,7.43h-.53l-1.06,2.31-.28,0c-.1-.37-.19-.75-.31-1.21l-3.81-.42v-1.15l-.7-.18c.23-2.3.47-4.58.71-6.92l-4.81-.51c-.25,2.33-.49,4.62-.74,6.93l-.7,0-.22,1.13-3.89-.39-.47,1.12h-.3c-.19-.79-.39-1.58-.6-2.44l-.55-.15c.11-1,.2-2.1.31-3.15s.26-2.12.35-3.19q.3-3.63.57-7.26c0-.32.17-.69-.33-.85-.08,0-.1-.38-.08-.57q.38-3.74.76-7.49c.1-.94.22-1.89.29-2.84a.81.81,0,0,0-.24-.66c-.18-.1-.49,0-.74,0v.18l-1.95-1.17c-.06,0-.13,0-.14.05-1.21,2-2.41,4-3.64,6-.76,1.25-1.62,2.44-2.39,3.68-1.21,2-2.44,4-3.52,6a8,8,0,0,0-.58,2.61c-.08.58-.16,1.12-.74,1.39a2.15,2.15,0,0,0-1.19,1.51,7.87,7.87,0,0,1-.49,1.07l-1,2.34c-.16.37-.34.73-.5,1.11a1.25,1.25,0,0,0-.17.57c.11.9-.08,1.1-1,.94-.44,1.33-.62,1.42-2,1,.4-.5.79-1,1.23-1.52-.27-.26-.55-.63-.1-1.07.07-.06.15-.18.21-.16.81.17.81-.42,1-.95.51-1.38,1.14-2.72,1.69-4.09a13.47,13.47,0,0,0,.61-2,3.53,3.53,0,0,0-.09-1c-.85.64-.95,1.17-.44,2.2l-.67-.14.38.77-.08.07-.86-.68c-.05.5-.09.88-.15,1.45-.15-.45-.26-.75-.34-1.05-.15-.52-.37-.54-.69-.13a2.8,2.8,0,0,1-.6.59c.06-.19.14-.38.19-.57s.08-.47.12-.71c-.25,0-.49,0-.74,0a1.74,1.74,0,0,1-.56,0l1-.69-1.24-.48,1.2-.15-.88-.77.1,0c.4,0,1,.22,1.16.05.56-.79,1.38-1.53.87-2.73a2.14,2.14,0,0,1,.11-1.4,1.91,1.91,0,0,0-.25-1.91l-1,.41c-.28-.41-.57-.8-.82-1.21-.07-.12-.1-.4,0-.44.73-.49,1-1.6,2.11-1.62a1.49,1.49,0,0,0,.72-.38,2.37,2.37,0,0,1,1.89-.72c.15,0,.41-.18.5-.35.3-.52.53-1.08.8-1.62s.49-1.15,1.13-1.44c.18-.08.29-.35.4-.55.71-1.23,1.37-2.48,2.12-3.68a25,25,0,0,1,1.54-2,2.46,2.46,0,0,0,.21-.43l-5.4-3.35-1.68,1.84c1.14.49,1.11,1.41,1.09,2.37a2.26,2.26,0,0,0,.33.94c.27.53.57,1,.88,1.57-1.52.49-8.26-1.86-9.14-3.14l-1.17,1.28a12.4,12.4,0,0,1,1.1,1.49,11.09,11.09,0,0,1,.62,1.76,4.69,4.69,0,0,1-4.12-1.29l-1.27,1.38,1.36,2.71a3.94,3.94,0,0,1-3.39-1l-.82.87,1.2,2.35a3.34,3.34,0,0,1-3-.86l-.83.92,1.21,2.26a3.25,3.25,0,0,1-2.91-1l-.93,1c.38.66.72,1.27,1.06,1.87l-.19.26-2.35-.85-.73.8.93,1.56-.16.23-2-.76-.74.8.94,1.62a1.92,1.92,0,0,1-2.24-.54l-.7.76.82,1.38c-.93.2-1.41-.38-1.93-.78L92.37,298c-.35-.94.4-1.21.64-1.66l-1.15-1.89.23-.21,1.36.76.71-.77c-.53-.65-1.07-1.27-.68-2.29l1.61.88.77-.84-.92-2,.22-.19,1.56.88.78-.84-1-2.35.24-.2,1.88,1,1-1a3.54,3.54,0,0,1-1.15-2.94l2.21,1.13.89-1a3.61,3.61,0,0,1-1.08-3.08l2.33,1.16c.22-.23.51-.55.87-1a4.3,4.3,0,0,1-1.29-3.46l2.7,1.35,1.35-1.46a5,5,0,0,1-1.58-4.37l3.33,1.74,1.21-1.33c-1.28-.73-1.56-2.07-2.12-3.21A25.87,25.87,0,0,1,105.32,265.1Z"/><path class="cls-6" d="M189.41,166.94a1,1,0,1,0,0,2.06,1.05,1.05,0,0,0,1.07-1A1.08,1.08,0,0,0,189.41,166.94Zm-4.84-3.59a1,1,0,0,0-1,1,1,1,0,1,0,2.06,0A1,1,0,0,0,184.57,163.35Zm3.47,2.87a1,1,0,0,0-1-1.07,1,1,0,0,0-1.1,1,1,1,0,0,0,.95,1.08A1.05,1.05,0,0,0,188,166.22Zm-4.81-3.67a1,1,0,0,0-2.07.06,1.1,1.1,0,0,0,1,1A1.05,1.05,0,0,0,183.23,162.55Zm4.08,11.54L177,166.34l.47-.65c.82-1.1,1.63-2.2,2.47-3.29a7.88,7.88,0,0,0,1.72-3.54c.5-2.85,2.3-4.33,5.22-4.54,1.73-.12,3.47,0,5.1,0a6,6,0,0,1,1-1.73,5.85,5.85,0,0,1,1.9-.68,3.29,3.29,0,0,1,.42-1.26c.29-.33.86-.42,1.35-.64,0-.63.25-1.14.79-1.08a1.28,1.28,0,0,1,.86.61c.24.49-.1.86-.94,1.17.31,1.36-.05,1.91-1.4,2.13.62,1.76.23,2.69-1.47,3.4a15.38,15.38,0,0,1,.62,1.59,36.84,36.84,0,0,1,1.06,4.23,4.94,4.94,0,0,1-3,5.5,7.5,7.5,0,0,0-2.83,2.55C189.35,171.42,188.34,172.73,187.31,174.09Z"/><path class="cls-6" d="M207.86,182.92a1,1,0,0,0,1.07-1,1.06,1.06,0,0,0-1-1.11,1.07,1.07,0,0,0-1.07,1A1,1,0,0,0,207.86,182.92Zm-2.34-1.81a1,1,0,0,0,1-1,1,1,0,0,0-1.05-1.06,1.09,1.09,0,0,0-1,1A1,1,0,0,0,205.52,181.11Zm4.8,1.52a1,1,0,0,0-1,1,1,1,0,0,0,1,1.1,1,1,0,1,0,0-2.09Zm2.39,3.9a1.09,1.09,0,0,0,1-1.11,1.05,1.05,0,0,0-1.06-1,1,1,0,0,0-1,1.09A1.07,1.07,0,0,0,212.71,186.53Zm7.91-18.34c.38,1.29,0,1.89-1.23,2.1a5.91,5.91,0,0,1,0,2.07c-.25.6-.92,1-1.41,1.53.41,1.3.88,2.75,1.32,4.21a6.41,6.41,0,0,1,.22,1.31c.31,2.8-.75,4.61-3.82,6.11a3.19,3.19,0,0,0-1.1.86c-1.31,1.67-2.56,3.37-3.83,5.06a.92.92,0,0,1-.16.13l-10.28-7.72c.16-.22.29-.43.44-.63,1.21-1.61,2.43-3.23,3.63-4.85a1.74,1.74,0,0,0,.33-.81c.33-3.64,2.39-5.65,6.06-5.8,1.54-.06,3.09,0,4.67,0,.33-1.72,1.12-2.36,2.71-2.15a4.19,4.19,0,0,1,.47-1.45c.28-.33.85-.43,1.35-.65,0-.64.23-1.05.78-1.1a.77.77,0,0,1,.91.66C221.74,167.6,221.43,168,220.62,168.19Z"/><path class="cls-6" d="M245,219.05a2,2,0,0,1,2.13,1.64A3,3,0,0,1,246,224a3.32,3.32,0,0,1-.42,3.4.59.59,0,0,0-.05.44c.08.48.19.95.3,1.46a2.65,2.65,0,0,1,3,2.07,4.17,4.17,0,0,1-1,4.49c-.14.14-.32.26-.49.41a4.59,4.59,0,0,1,.09,3.72,3.13,3.13,0,0,1-2.23,2,1,1,0,0,0-.49.45,10.76,10.76,0,0,1-1,1.73,2.35,2.35,0,0,1-3.83-.27,4.06,4.06,0,0,1-.69-2.71c.15-2,.32-3.94.48-5.9s.33-3.89.49-5.84c.29-3.51.56-7,.86-10.54a3,3,0,0,1,.31-1.06,1.89,1.89,0,0,1,1.86-1.22,1.91,1.91,0,0,1,1.64,1.49C244.89,218.43,244.93,218.73,245,219.05Z"/><path class="cls-6" d="M73.83,199.75a1.88,1.88,0,0,1-1.37-2.1,2.94,2.94,0,0,1,2.19-2.78,3.22,3.22,0,0,1,1.56-3,.68.68,0,0,0,.23-.45c.09-.43.14-.87.21-1.37a2.7,2.7,0,0,1-2-3.32,4,4,0,0,1,2.73-3.46c.1,0,.21-.09.15-.2a14.94,14.94,0,0,1,.94-2.71,3.07,3.07,0,0,1,3.36-1.72c.14,0,.34-.14.48-.25a10.14,10.14,0,0,1,1.47-1.25,2.3,2.3,0,0,1,3.51,1.9,5.43,5.43,0,0,1-.41,2.49c-1.63,3.56-3.35,7.09-5,10.62-1.42,3-2.83,6-4.28,8.9a4.38,4.38,0,0,1-1,1.3,1.68,1.68,0,0,1-1.89.28,1.77,1.77,0,0,1-1-1.65A9.93,9.93,0,0,1,73.83,199.75Z"/><path class="cls-6" d="M207.67,163.16c-.26.32-.51.5-.5.67s.27.34.41.51c.17-.15.44-.28.47-.45S207.87,163.51,207.67,163.16ZM204.24,162c.22-.32.46-.51.44-.69s-.29-.45-.44-.44a.66.66,0,0,0-.46.44C203.77,161.5,204,161.7,204.24,162Zm2.3.3c-.25.32-.51.5-.5.66s.27.35.42.52c.17-.15.44-.28.47-.46S206.74,162.66,206.54,162.32Zm-1.17-.84c-.23.33-.48.53-.46.69s.29.33.46.49c.15-.16.42-.31.44-.5S205.59,161.8,205.37,161.48Zm-9.25,19.22-4.81-3.61.58-.8q5.87-7.83,11.74-15.68a2.08,2.08,0,0,0,.4-.85c.31-1.65.95-2.29,2.63-2.45.74-.06,1.48,0,2.28,0,.12-.62.49-1.06,1-1,.51-.54.9-1,1.32-1.35a1.49,1.49,0,0,1,.49.32c-.25.52-.55,1-.93,1.7a1,1,0,0,1-.68,1.26c.24.85.53,1.63.68,2.45a2.36,2.36,0,0,1-1.44,2.85,3,3,0,0,0-1,.82q-6,7.88-11.86,15.76C196.43,180.32,196.28,180.49,196.12,180.7Z"/><path class="cls-6" d="M119.14,116.83a2,2,0,0,1,2.38.15c1.79,1.48,3.68,2.84,5.56,4.21a1.24,1.24,0,0,0,.92.18c1.34-.31,2.65-.68,4-1a1.4,1.4,0,0,1,1.89,1,1.38,1.38,0,0,1-1.13,1.76c-1.3.36-2.6.72-3.9,1a1.09,1.09,0,0,0-.83.72c-.87,2.11-1.77,4.2-2.66,6.29-.51,1.22-.51,1.22-2,1.42.12-2.3.23-4.58.35-7-1.28.34-2.45.64-3.6,1-.16,0-.29.28-.38.45-.39.75-.72,1.52-1.13,2.24a5,5,0,0,1-.76.84l-.25-.1a2.45,2.45,0,0,1-.17-.81,7.85,7.85,0,0,0-1.73-6.49c-.15-.19-.1-.53-.14-.8a2.32,2.32,0,0,1,1,.06c.76.44,1.47,1,2.22,1.44a1.29,1.29,0,0,0,.83.18c1.08-.25,2.15-.56,3.37-.89Z"/><path class="cls-6" d="M212.22,308.31a5.29,5.29,0,0,1,.27.76c.12.66.23,1.32.3,2a3.17,3.17,0,0,0,1,2.08,19,19,0,0,1,1.4,1.56,4.94,4.94,0,0,1,.4.67l-.09.24c-.37,0-.82.05-1.1-.13a4.16,4.16,0,0,0-5.11.12c-.21.14-.45.23-.78.4,1.52,1.62,3,3.19,4.51,4.77a1.86,1.86,0,0,1-2.34.23c-1.86-1-3.79-1.95-5.72-2.87a1.43,1.43,0,0,0-1,0c-1.15.5-2.27,1.07-3.4,1.6a1.37,1.37,0,1,1-1.2-2.44c1.09-.52,2.17-1.06,3.27-1.55a1.3,1.3,0,0,0,.84-1.06c.42-2,.93-4,1.29-6.05a1.87,1.87,0,0,1,1.65-1.7c.29,2.12.58,4.26.88,6.51,1.1-.52,2.15-1,3.17-1.53.15-.08.23-.34.29-.53.23-.75.4-1.52.67-2.26a3.82,3.82,0,0,1,.59-.87Z"/><path class="cls-6" d="M87.61,283.37a1.63,1.63,0,0,1-2.79-1,.91.91,0,0,0-.39-.55,1.7,1.7,0,0,1-.93-2,1.26,1.26,0,0,0-.13-.62,1.17,1.17,0,0,1,.19-1.42,1.16,1.16,0,0,1,1.48,0,3.07,3.07,0,0,1,.59.49q3.14,3.12,6.26,6.25a2,2,0,0,1,.48.67c.24.69-.2,1.14-.92,1a2,2,0,0,0-.88.08,1.4,1.4,0,0,1-1.43-.84A19.72,19.72,0,0,0,87.61,283.37Z"/><path class="cls-6" d="M202.43,175.49l1.85-1.64c0,.29,0,.44,0,.55-.26.54-.57,1.06-.82,1.61-.06.11,0,.3.06.45.09.35.22.7.31,1.06a1.5,1.5,0,0,1-.63,1.58,8.36,8.36,0,0,0-1.32,1.27c-.76.94-1.46,1.92-2.23,2.94l-3-2.2c.84-1.13,1.67-2.2,2.47-3.31a4.57,4.57,0,0,0,.55-1.16A1.42,1.42,0,0,1,201,175.5C201.49,175.47,202,175.49,202.43,175.49Z"/><path class="cls-6" d="M187.78,174.45c.66-.89,1.31-1.68,1.87-2.53a11.84,11.84,0,0,0,1-1.91,1.48,1.48,0,0,1,1.31-1c.49,0,1,0,1.36,0l1.79-1.49.19.19c-.33.61-.66,1.21-1,1.83-.06.11,0,.3.05.45.1.36.24.7.31,1.07a1.53,1.53,0,0,1-.69,1.62,6.73,6.73,0,0,0-1.14,1.06c-.74.93-1.43,1.89-2.19,2.9Z"/><path class="cls-6" d="M230.74,268.26a1.73,1.73,0,0,1-.22,3.08.92.92,0,0,0-.56.76,1.78,1.78,0,0,1-1.75,1.49,1.1,1.1,0,0,0-.57.28,1.3,1.3,0,0,1-1.65.28,1.34,1.34,0,0,1-.44-1.62,3.08,3.08,0,0,1,.32-.69q1.14-2.19,2.3-4.37a3.25,3.25,0,0,1,.37-.59,1.35,1.35,0,0,1,1.59-.55c.65.27.73.84.67,1.45C230.79,267.94,230.76,268.1,230.74,268.26Z"/><path class="cls-6" d="M248.69,207.13A1.77,1.77,0,0,1,250,210a1.1,1.1,0,0,0-.11.78A1.86,1.86,0,0,1,249,213a1,1,0,0,0-.32.48c-.28.76-.75,1.13-1.37,1a1.4,1.4,0,0,1-1.12-1.34c-.05-.71,0-1.44,0-2.16,0-1.16,0-2.32,0-3.48a4,4,0,0,1,0-.49,1.46,1.46,0,0,1,1.15-1.39c.57-.07,1.08.35,1.34,1.1C248.63,206.92,248.66,207,248.69,207.13Z"/><path class="cls-6" d="M133.93,153.3a1.62,1.62,0,0,1,2.59-1.19,1.2,1.2,0,0,0,.79.14,1.73,1.73,0,0,1,2,.82,1.15,1.15,0,0,0,.54.36,1.11,1.11,0,0,1-.09,2.18,2.57,2.57,0,0,1-.62.08h-4.94a1.91,1.91,0,0,1-.48,0c-.57-.16-1.06-.44-1.11-1.09s.39-1,.94-1.15Z"/><path class="cls-6" d="M84.52,167.86a2,2,0,0,0,.42-.18,1.05,1.05,0,0,1,1.4,0,1.1,1.1,0,0,1,.13,1.42c-.34.6-.77,1.15-1.17,1.72-.51.74-1,1.49-1.56,2.21a2.38,2.38,0,0,1-.77.68.91.91,0,0,1-1.38-.94,1.35,1.35,0,0,0-.26-1.21c-.46-.54,0-1.65.75-2a1.3,1.3,0,0,0,.8-.82A1.49,1.49,0,0,1,84.52,167.86Z"/><path class="cls-6" d="M230.51,176.94l2.42-1.57.21.06a2.47,2.47,0,0,1-.19.85c-.49.74-1.08,1.41-1.56,2.15a1.59,1.59,0,0,0-.18,1c0,.48.3.94.33,1.41a.88.88,0,0,1-.43.71c-.14.07-.47-.21-.7-.36-.06,0-.06-.17-.07-.26a2.57,2.57,0,0,0-2.2-2.45,4.82,4.82,0,0,1-1.22-.5,3.22,3.22,0,0,1-.65-.58l.1-.16h2.8c.19-1.35-.78-1.89-1.82-2.47a4.63,4.63,0,0,0,3.39-1.08l.2.21a4.59,4.59,0,0,0-.76,1.4A4.79,4.79,0,0,0,230.51,176.94Z"/><path class="cls-6" d="M112.65,294.94a1.72,1.72,0,0,0-.51.18,1.24,1.24,0,0,1-1.88-.37,1.62,1.62,0,0,0-.62-.54,1.31,1.31,0,0,1-.82-1.11c0-.21-.17-.41-.21-.62s-.19-.83,0-1a1.16,1.16,0,0,1,1-.24,41.68,41.68,0,0,1,3.7,2.32,1.13,1.13,0,0,1,.25,1c-.07.25-.52.39-.8.57Z"/><path class="cls-6" d="M173.58,153.07c-.63,0-1.25,0-1.88,0s-.94-.15-1.06-.7.23-.79.67-1a.67.67,0,0,0,.29-.31,1.19,1.19,0,0,1,1.77-.69,1.72,1.72,0,0,0,.81.14,1.25,1.25,0,0,1,1.36.61c.08.13.32.16.42.29.23.29.6.63.56.9s-.51.49-.79.72a.47.47,0,0,1-.21,0Z"/><path class="cls-6" d="M79.66,257.14l-2.17.18c-.06,1.1.72,1.43,1.63,1.7l-2.77,1.1c.39-.76.83-1.55,0-2.33l-1.82,1.5a3.55,3.55,0,0,1,.08-.86,3.33,3.33,0,0,1,.44-.78,2.23,2.23,0,0,0,.32-2.78c-.1-.16.11-.5.18-.76.23.14.62.24.66.41.25,1.23,1.11,1.6,2.2,1.83S79.46,256.64,79.66,257.14Z"/><path class="cls-6" d="M128.76,151.54a8.76,8.76,0,0,1-1.45,0,1,1,0,0,1-.65-.51c-.06-.14.22-.43.35-.65.54-.85,1.21-.9,2.2-.75a3.86,3.86,0,0,1,1.76,1c.35.26,0,.86-.54.9s-1.11,0-1.67,0Z"/><path class="cls-6" d="M102.45,131.51l-3,1.54-.35-.57,3-1.56Z"/><path class="cls-6" d="M77.45,149.1l-.47-.49c.87-.81,1.66-1.56,2.48-2.34l.51.45C79.14,147.51,78.34,148.27,77.45,149.1Z"/><path class="cls-6" d="M74.59,151c.21.21.33.34.47.5-.75.81-1.48,1.61-2.24,2.45l-.52-.44Z"/><path class="cls-6" d="M90.27,137.81c.14.19.25.34.41.54l-2.75,1.94-.43-.53Z"/><path class="cls-6" d="M58.56,177l-.63-.24c.45-1,.88-2,1.33-3.11l.63.25C59.44,175,59,176,58.56,177Z"/><path class="cls-6" d="M62.38,167.55l.58.34c-.52,1-1,1.94-1.57,2.94l-.61-.29C61.32,169.52,61.84,168.56,62.38,167.55Z"/><path class="cls-6" d="M93.56,136.49l-.37-.57,2.89-1.75.36.57Z"/><path class="cls-6" d="M84.73,141.84l.43.53-2.6,2.1L82.1,144Z"/><path class="cls-6" d="M70.06,156.21l.55.41c-.69.88-1.35,1.75-2.06,2.66l-.55-.4Z"/><path class="cls-6" d="M64.15,164.55,66,161.73l.57.36-1.83,2.83Z"/><path class="cls-6" d="M105.26,129.42l3.09-1.34c.09.2.18.37.29.61L105.56,130Z"/><path class="cls-6" d="M111.86,127.42c-.09-.19-.15-.36-.26-.61l3.16-1.07a1.37,1.37,0,0,1,.2.13c-.08.2-.11.55-.25.6C113.78,126.82,112.83,127.11,111.86,127.42Z"/><path class="cls-6" d="M218.23,310.25l-2.73,1.53-.29-.5c0-.07.07-.12.1-.14.75-.41,1.51-.81,2.24-1.25C218,309.63,218.13,309.79,218.23,310.25Z"/><path class="cls-6" d="M248.45,281.38l-.52-.38,1.66-2.66.55.32Z"/><path class="cls-6" d="M246.09,283.72l.52.38-1.87,2.55-.51-.38Z"/><path class="cls-6" d="M221.08,308.5l-.36-.53,2.6-1.76.41.49Z"/><path class="cls-6" d="M257.28,260.78c.53,0,.64.17.49.6-.29.82-.54,1.66-.82,2.56l-.61-.19C256.66,262.74,257,261.78,257.28,260.78Z"/><path class="cls-6" d="M258.77,257.72l-.62-.13.7-3c.52-.07.63.16.52.6C259.17,256,259,256.8,258.77,257.72Z"/><path class="cls-6" d="M226.37,304.79c-.14-.21-.24-.35-.37-.52l2.48-1.93c.13.16.26.3.41.49Z"/><path class="cls-6" d="M231.21,300.64c0-.21,0-.52.07-.63.67-.64,1.37-1.24,2.09-1.87l.42.48-2.34,2.08Z"/><path class="cls-6" d="M251.19,275.52l1.44-2.81.6.24-1.45,2.82Z"/><path class="cls-6" d="M242.2,288.82l.49.42-2,2.39-.52-.38Z"/><path class="cls-6" d="M255.48,266.79c.06.21.22.46.16.63-.31.84-.67,1.66-1,2.54-.36-.09-.67-.12-.45-.61.36-.82.7-1.65,1-2.48Z"/><path class="cls-6" d="M238,293.69l.38.34-2.3,2.2-.33-.36Z"/><path class="cls-6" d="M71.94,221.72l-.42-.51,1.88-1.66c-.76-.88-1.49-1.71-2.24-2.59l.49-.45,1.9,2.18.81,1-.92.77Z"/><path class="cls-6" d="M145.06,293.49a.94.94,0,1,1-.91.94A.91.91,0,0,1,145.06,293.49Z"/></g><text class="cls-7" transform="translate(59.3 53.77)">T</text><text class="cls-7" transform="translate(88.26 53.77)">R</text><text class="cls-7" transform="translate(119.58 53.77)">A</text><text class="cls-7" transform="translate(154.18 53.77)">V</text><text class="cls-7" transform="translate(188.52 53.77)">E</text><text class="cls-7" transform="translate(215.55 53.77)">L</text></g></g></svg>