<svg xmlns="http://www.w3.org/2000/svg" xmlns:xlink="http://www.w3.org/1999/xlink" viewBox="0 0 473.21 511.88"><defs><style>.cls-1{isolation:isolate;}.cls-2,.cls-3,.cls-65{opacity:0.9;}.cls-2{fill:url(#linear-gradient);}.cls-3{fill:url(#linear-gradient-2);}.cls-4{opacity:0.2;}.cls-27,.cls-5{fill:#afb6e5;}.cls-5{opacity:0;}.cls-6{fill:#abb2e2;opacity:0.05;}.cls-7{fill:#a7addf;opacity:0.1;}.cls-8{fill:#a3a9dc;opacity:0.14;}.cls-9{fill:#9fa4d8;opacity:0.19;}.cls-10,.cls-54{fill:#9ba0d5;}.cls-10{opacity:0.24;}.cls-11{fill:#979bd2;opacity:0.29;}.cls-12{fill:#9397cf;opacity:0.33;}.cls-13,.cls-69{fill:#8f92cc;}.cls-13{opacity:0.38;}.cls-14{fill:#8b8ec9;opacity:0.43;}.cls-15{fill:#8789c6;opacity:0.48;}.cls-16{fill:#8385c2;opacity:0.52;}.cls-17{fill:#7f80bf;opacity:0.57;}.cls-18{fill:#7b7cbc;opacity:0.62;}.cls-19{fill:#7777b9;opacity:0.67;}.cls-20{fill:#7373b6;opacity:0.71;}.cls-21{fill:#6f6eb3;opacity:0.76;}.cls-22{fill:#6b6ab0;opacity:0.81;}.cls-23,.cls-63{fill:#6765ac;}.cls-23{opacity:0.86;}.cls-24{fill:#6361a9;opacity:0.9;}.cls-25{fill:#5f5ca6;opacity:0.95;}.cls-26{fill:#5b58a3;}.cls-28{fill:url(#linear-gradient-3);}.cls-29{fill:url(#linear-gradient-4);}.cls-30{fill:url(#linear-gradient-5);}.cls-31{fill:url(#linear-gradient-6);}.cls-32{fill:url(#linear-gradient-7);}.cls-33{fill:url(#linear-gradient-8);}.cls-34{fill:url(#linear-gradient-9);}.cls-35{fill:url(#linear-gradient-10);}.cls-36{fill:url(#linear-gradient-11);}.cls-37{fill:url(#linear-gradient-12);}.cls-38{fill:url(#linear-gradient-13);}.cls-39{fill:url(#linear-gradient-14);}.cls-40{fill:url(#linear-gradient-15);}.cls-41{fill:url(#linear-gradient-16);}.cls-42{fill:url(#linear-gradient-17);}.cls-43{fill:url(#linear-gradient-18);}.cls-44{fill:url(#linear-gradient-19);}.cls-45{fill:url(#linear-gradient-20);}.cls-46{fill:url(#linear-gradient-21);}.cls-47{fill:url(#linear-gradient-22);}.cls-48{fill:url(#linear-gradient-23);}.cls-49{fill:#fff;}.cls-50{fill:url(#linear-gradient-24);}.cls-51{fill:#009e92;}.cls-52{fill:url(#linear-gradient-25);}.cls-53,.cls-87{mix-blend-mode:multiply;}.cls-53{opacity:0.3;}.cls-54{opacity:0.24;}.cls-55{fill:#9599d0;opacity:0.31;}.cls-56{fill:#8f93cc;opacity:0.38;}.cls-57{fill:#8a8cc7;opacity:0.45;}.cls-58{fill:#8486c3;opacity:0.52;}.cls-59{fill:#7e7fbe;opacity:0.58;}.cls-60{fill:#7879ba;opacity:0.65;}.cls-61{fill:#7272b5;opacity:0.72;}.cls-62{fill:#6c6cb1;opacity:0.79;}.cls-63{opacity:0.86;}.cls-64{fill:#615fa8;opacity:0.93;}.cls-65{fill:#e5e9ff;}.cls-66{fill:url(#linear-gradient-26);}.cls-67,.cls-81{mix-blend-mode:color-dodge;}.cls-67{fill:url(#radial-gradient);}.cls-68{mix-blend-mode:screen;fill:url(#radial-gradient-2);}.cls-69{opacity:0.38;}.cls-70{fill:#8a8dc8;opacity:0.44;}.cls-71{fill:#8687c5;opacity:0.49;}.cls-72{fill:#8182c1;opacity:0.55;}.cls-73{fill:#7c7dbd;opacity:0.61;}.cls-74{fill:#7778b9;opacity:0.66;}.cls-75{fill:#7372b6;opacity:0.72;}.cls-76{fill:#6e6db2;opacity:0.77;}.cls-77{fill:#6968ae;opacity:0.83;}.cls-78{fill:#6463aa;opacity:0.89;}.cls-79{fill:#605da7;opacity:0.94;}.cls-80{fill:url(#linear-gradient-27);}.cls-81{fill:url(#radial-gradient-3);}.cls-82{fill:url(#linear-gradient-28);}.cls-83{fill:url(#linear-gradient-29);}.cls-84{fill:#ffd4c0;}.cls-85{fill:#ffdecf;}.cls-86{fill:url(#linear-gradient-30);}.cls-87{fill:#ced3f4;}.cls-88{fill:#4e0070;}.cls-89{fill:#35004d;}.cls-90{fill:url(#linear-gradient-31);}.cls-91{fill:url(#linear-gradient-32);}.cls-92{fill:url(#linear-gradient-33);}.cls-93{fill:url(#New_Gradient_Swatch_copy_36);}.cls-94{fill:url(#linear-gradient-34);}.cls-95{fill:url(#linear-gradient-35);}.cls-96{fill:url(#linear-gradient-36);}.cls-97{fill:url(#linear-gradient-37);}.cls-98{fill:url(#linear-gradient-38);}.cls-99{fill:url(#linear-gradient-39);}.cls-100{fill:url(#linear-gradient-40);}.cls-101{fill:url(#linear-gradient-41);}.cls-102{fill:url(#linear-gradient-42);}.cls-103{fill:url(#linear-gradient-43);}.cls-104,.cls-105{opacity:0.95;}.cls-104{fill:url(#linear-gradient-44);}.cls-105{fill:url(#linear-gradient-45);}.cls-106{fill:url(#linear-gradient-46);}.cls-107{fill:url(#linear-gradient-47);}.cls-108{fill:url(#linear-gradient-48);}.cls-109{fill:url(#linear-gradient-49);}.cls-110{fill:url(#linear-gradient-50);}.cls-111{fill:url(#linear-gradient-51);}</style><linearGradient id="linear-gradient" x1="325.01" y1="50.86" x2="340" y2="311.93" gradientUnits="userSpaceOnUse"><stop offset="0.03" stop-color="#bb6df3"/><stop offset="0.26" stop-color="#976df3"/><stop offset="0.37" stop-color="#836df3"/><stop offset="0.47" stop-color="#796ff4"/><stop offset="0.64" stop-color="#5d75f6"/><stop offset="0.7" stop-color="#5277f7"/><stop offset="0.99" stop-color="#2be9a3"/></linearGradient><linearGradient id="linear-gradient-2" x1="136.8" y1="79.33" x2="151.79" y2="340.4" xlink:href="#linear-gradient"/><linearGradient id="linear-gradient-3" x1="186.75" y1="14.74" x2="340.04" y2="487.93" gradientUnits="userSpaceOnUse"><stop offset="0" stop-color="#b0b7e6"/><stop offset="0.19" stop-color="#b2b8e6"/><stop offset="0.28" stop-color="#b3b9e6"/><stop offset="0.41" stop-color="#afb6e5"/><stop offset="0.91" stop-color="#afb6e5"/><stop offset="1" stop-color="#b0b7e6"/></linearGradient><linearGradient id="linear-gradient-4" x1="186.6" y1="14.8" x2="339.89" y2="487.98" gradientUnits="userSpaceOnUse"><stop offset="0" stop-color="#b2b9e6"/><stop offset="0.19" stop-color="#b4bbe7"/><stop offset="0.28" stop-color="#b7bde7"/><stop offset="0.41" stop-color="#afb6e5"/><stop offset="0.91" stop-color="#afb6e5"/><stop offset="1" stop-color="#b2b9e6"/></linearGradient><linearGradient id="linear-gradient-5" x1="186.45" y1="14.86" x2="339.74" y2="488.03" gradientUnits="userSpaceOnUse"><stop offset="0" stop-color="#b3bae7"/><stop offset="0.19" stop-color="#b7bde9"/><stop offset="0.28" stop-color="#bac0e9"/><stop offset="0.41" stop-color="#afb6e5"/><stop offset="0.91" stop-color="#afb6e5"/><stop offset="1" stop-color="#b3bae7"/></linearGradient><linearGradient id="linear-gradient-6" x1="186.31" y1="14.93" x2="339.58" y2="488.08" gradientUnits="userSpaceOnUse"><stop offset="0" stop-color="#b5bbe8"/><stop offset="0.19" stop-color="#b9c0ea"/><stop offset="0.28" stop-color="#bec4ea"/><stop offset="0.41" stop-color="#afb6e5"/><stop offset="0.91" stop-color="#afb6e5"/><stop offset="1" stop-color="#b5bbe8"/></linearGradient><linearGradient id="linear-gradient-7" x1="186.16" y1="14.99" x2="339.43" y2="488.13" gradientUnits="userSpaceOnUse"><stop offset="0" stop-color="#b6bde8"/><stop offset="0.19" stop-color="#bcc2eb"/><stop offset="0.28" stop-color="#c2c7eb"/><stop offset="0.41" stop-color="#afb6e5"/><stop offset="0.91" stop-color="#afb6e5"/><stop offset="1" stop-color="#b6bde8"/></linearGradient><linearGradient id="linear-gradient-8" x1="186.01" y1="15.05" x2="339.27" y2="488.18" gradientUnits="userSpaceOnUse"><stop offset="0" stop-color="#b8bee9"/><stop offset="0.19" stop-color="#bec5ec"/><stop offset="0.28" stop-color="#c6cbec"/><stop offset="0.39" stop-color="#b2b9e6"/><stop offset="0.41" stop-color="#afb6e5"/><stop offset="0.91" stop-color="#afb6e5"/><stop offset="1" stop-color="#b8bee9"/></linearGradient><linearGradient id="linear-gradient-9" x1="185.86" y1="15.11" x2="339.12" y2="488.23" gradientUnits="userSpaceOnUse"><stop offset="0" stop-color="#b9bfea"/><stop offset="0.19" stop-color="#c1c7ee"/><stop offset="0.28" stop-color="#caceee"/><stop offset="0.38" stop-color="#b6bde7"/><stop offset="0.41" stop-color="#afb6e5"/><stop offset="0.91" stop-color="#afb6e5"/><stop offset="1" stop-color="#b9bfea"/></linearGradient><linearGradient id="linear-gradient-10" x1="185.71" y1="15.18" x2="338.96" y2="488.28" gradientUnits="userSpaceOnUse"><stop offset="0" stop-color="#bac1ea"/><stop offset="0.19" stop-color="#c4c9ef"/><stop offset="0.28" stop-color="#cdd2ef"/><stop offset="0.37" stop-color="#b9c0e8"/><stop offset="0.41" stop-color="#afb6e5"/><stop offset="0.91" stop-color="#afb6e5"/><stop offset="1" stop-color="#bac1ea"/><stop offset="1" stop-color="#bac1ea"/></linearGradient><linearGradient id="linear-gradient-11" x1="185.56" y1="15.24" x2="338.81" y2="488.33" gradientUnits="userSpaceOnUse"><stop offset="0" stop-color="#bcc2eb"/><stop offset="0.19" stop-color="#c6ccf0"/><stop offset="0.28" stop-color="#d0d4f0"/><stop offset="0.28" stop-color="#d1d5f0"/><stop offset="0.36" stop-color="#bdc3ea"/><stop offset="0.41" stop-color="#afb6e5"/><stop offset="0.91" stop-color="#afb6e5"/><stop offset="0.99" stop-color="#bac0ea"/><stop offset="1" stop-color="#bcc2eb"/></linearGradient><linearGradient id="linear-gradient-12" x1="185.41" y1="15.3" x2="338.66" y2="488.38" gradientUnits="userSpaceOnUse"><stop offset="0" stop-color="#bdc3ec"/><stop offset="0.19" stop-color="#c9cef1"/><stop offset="0.27" stop-color="#d3d7f1"/><stop offset="0.28" stop-color="#d5d9f1"/><stop offset="0.35" stop-color="#c1c7eb"/><stop offset="0.41" stop-color="#afb6e5"/><stop offset="0.91" stop-color="#afb6e5"/><stop offset="0.98" stop-color="#bac0ea"/><stop offset="1" stop-color="#bdc3ec"/></linearGradient><linearGradient id="linear-gradient-13" x1="185.26" y1="15.36" x2="338.5" y2="488.43" gradientUnits="userSpaceOnUse"><stop offset="0" stop-color="#bfc5ec"/><stop offset="0.19" stop-color="#cbd1f3"/><stop offset="0.26" stop-color="#d5d9f3"/><stop offset="0.28" stop-color="#d9dcf3"/><stop offset="0.35" stop-color="#c5caec"/><stop offset="0.41" stop-color="#afb6e5"/><stop offset="0.91" stop-color="#afb6e5"/><stop offset="0.98" stop-color="#bac0ea"/><stop offset="1" stop-color="#bfc5ec"/></linearGradient><linearGradient id="linear-gradient-14" x1="185.11" y1="15.43" x2="338.35" y2="488.48" gradientUnits="userSpaceOnUse"><stop offset="0" stop-color="#c0c6ed"/><stop offset="0.19" stop-color="#ced3f4"/><stop offset="0.26" stop-color="#d8dcf4"/><stop offset="0.28" stop-color="#dde0f4"/><stop offset="0.34" stop-color="#c9ceee"/><stop offset="0.41" stop-color="#afb6e5"/><stop offset="0.91" stop-color="#afb6e5"/><stop offset="0.97" stop-color="#bac0ea"/><stop offset="1" stop-color="#c0c6ed"/></linearGradient><linearGradient id="linear-gradient-15" x1="184.96" y1="15.49" x2="338.19" y2="488.53" gradientUnits="userSpaceOnUse"><stop offset="0" stop-color="#c2c7ee"/><stop offset="0.19" stop-color="#d0d6f5"/><stop offset="0.25" stop-color="#dadef5"/><stop offset="0.28" stop-color="#e1e3f5"/><stop offset="0.34" stop-color="#cdd1ef"/><stop offset="0.41" stop-color="#afb6e5"/><stop offset="0.91" stop-color="#afb6e5"/><stop offset="0.97" stop-color="#bac0ea"/><stop offset="1" stop-color="#c2c7ee"/></linearGradient><linearGradient id="linear-gradient-16" x1="184.81" y1="15.55" x2="338.04" y2="488.58" gradientUnits="userSpaceOnUse"><stop offset="0" stop-color="#c3c9ee"/><stop offset="0.19" stop-color="#d3d8f6"/><stop offset="0.25" stop-color="#dde1f6"/><stop offset="0.28" stop-color="#e4e7f6"/><stop offset="0.34" stop-color="#d0d5f0"/><stop offset="0.41" stop-color="#afb6e5"/><stop offset="0.91" stop-color="#afb6e5"/><stop offset="0.97" stop-color="#bac0ea"/><stop offset="1" stop-color="#c3c9ee"/></linearGradient><linearGradient id="linear-gradient-17" x1="184.66" y1="15.62" x2="337.89" y2="488.63" gradientUnits="userSpaceOnUse"><stop offset="0" stop-color="#c4caef"/><stop offset="0.19" stop-color="#d6daf8"/><stop offset="0.25" stop-color="#e0e3f8"/><stop offset="0.28" stop-color="#e8eaf8"/><stop offset="0.33" stop-color="#d4d8f1"/><stop offset="0.41" stop-color="#afb6e5"/><stop offset="0.91" stop-color="#afb6e5"/><stop offset="0.96" stop-color="#bac0ea"/><stop offset="1" stop-color="#c4caef"/></linearGradient><linearGradient id="linear-gradient-18" x1="184.51" y1="15.68" x2="337.73" y2="488.68" gradientUnits="userSpaceOnUse"><stop offset="0" stop-color="#c6cbf0"/><stop offset="0.19" stop-color="#d8ddf9"/><stop offset="0.25" stop-color="#e2e6f9"/><stop offset="0.28" stop-color="#eceef9"/><stop offset="0.33" stop-color="#d8dcf3"/><stop offset="0.41" stop-color="#afb6e5"/><stop offset="0.91" stop-color="#afb6e5"/><stop offset="0.96" stop-color="#bac0ea"/><stop offset="1" stop-color="#c6cbf0"/></linearGradient><linearGradient id="linear-gradient-19" x1="184.36" y1="15.74" x2="337.58" y2="488.73" gradientUnits="userSpaceOnUse"><stop offset="0" stop-color="#c7cdf0"/><stop offset="0.19" stop-color="#dbdffa"/><stop offset="0.24" stop-color="#e5e8fa"/><stop offset="0.28" stop-color="#f0f1fa"/><stop offset="0.33" stop-color="#dcdff4"/><stop offset="0.41" stop-color="#afb6e5"/><stop offset="0.91" stop-color="#afb6e5"/><stop offset="0.96" stop-color="#bac0ea"/><stop offset="1" stop-color="#c7cdf0"/></linearGradient><linearGradient id="linear-gradient-20" x1="184.21" y1="15.8" x2="337.42" y2="488.78" gradientUnits="userSpaceOnUse"><stop offset="0" stop-color="#c9cef1"/><stop offset="0.19" stop-color="#dde2fb"/><stop offset="0.24" stop-color="#e7eafb"/><stop offset="0.28" stop-color="#f4f5fb"/><stop offset="0.33" stop-color="#e0e3f5"/><stop offset="0.41" stop-color="#afb6e5"/><stop offset="0.91" stop-color="#afb6e5"/><stop offset="0.96" stop-color="#bac0ea"/><stop offset="1" stop-color="#c9cef1"/></linearGradient><linearGradient id="linear-gradient-21" x1="184.06" y1="15.87" x2="337.27" y2="488.83" gradientUnits="userSpaceOnUse"><stop offset="0" stop-color="#cacff2"/><stop offset="0.19" stop-color="#e0e4fd"/><stop offset="0.24" stop-color="#eaedfd"/><stop offset="0.28" stop-color="#f7f8fd"/><stop offset="0.32" stop-color="#e3e6f6"/><stop offset="0.41" stop-color="#b1b8e6"/><stop offset="0.41" stop-color="#afb6e5"/><stop offset="0.91" stop-color="#afb6e5"/><stop offset="0.95" stop-color="#bac0ea"/><stop offset="1" stop-color="#cacff2"/></linearGradient><linearGradient id="linear-gradient-22" x1="183.91" y1="15.93" x2="337.12" y2="488.88" gradientUnits="userSpaceOnUse"><stop offset="0" stop-color="#ccd1f2"/><stop offset="0.19" stop-color="#e2e7fe"/><stop offset="0.24" stop-color="#eceffe"/><stop offset="0.28" stop-color="#fbfcfe"/><stop offset="0.32" stop-color="#e7eaf8"/><stop offset="0.4" stop-color="#b5bbe7"/><stop offset="0.41" stop-color="#afb6e5"/><stop offset="0.91" stop-color="#afb6e5"/><stop offset="0.95" stop-color="#bac0ea"/><stop offset="1" stop-color="#ccd1f2"/></linearGradient><linearGradient id="linear-gradient-23" x1="183.76" y1="15.99" x2="336.96" y2="488.93" gradientUnits="userSpaceOnUse"><stop offset="0" stop-color="#cdd2f3"/><stop offset="0.19" stop-color="#e5e9ff"/><stop offset="0.24" stop-color="#eff2ff"/><stop offset="0.28" stop-color="#fff"/><stop offset="0.32" stop-color="#ebedf9"/><stop offset="0.4" stop-color="#b9bfe8"/><stop offset="0.41" stop-color="#afb6e5"/><stop offset="0.91" stop-color="#afb6e5"/><stop offset="0.95" stop-color="#bac0ea"/><stop offset="1" stop-color="#cdd2f3"/></linearGradient><linearGradient id="linear-gradient-24" x1="-59.4" y1="382.26" x2="481.18" y2="161.04" gradientUnits="userSpaceOnUse"><stop offset="0" stop-color="#afb6e5"/><stop offset="0.14" stop-color="#b6bce8"/><stop offset="0.35" stop-color="#c8cdf1"/><stop offset="0.58" stop-color="#e5e9ff"/><stop offset="0.86" stop-color="#f5f6ff"/><stop offset="1" stop-color="#fff"/></linearGradient><linearGradient id="linear-gradient-25" x1="370.27" y1="243" x2="292.48" y2="201.32" xlink:href="#linear-gradient-24"/><linearGradient id="linear-gradient-26" x1="253.94" y1="457.39" x2="126.39" y2="123.81" gradientUnits="userSpaceOnUse"><stop offset="0.01" stop-color="#b4f759"/><stop offset="0.11" stop-color="#90ed6f"/><stop offset="0.33" stop-color="#35d5a5"/><stop offset="0.46" stop-color="#00c7c5"/><stop offset="0.72" stop-color="#2d9be0"/><stop offset="0.96" stop-color="#5277f7"/></linearGradient><radialGradient id="radial-gradient" cx="207.26" cy="93.58" r="177.15" gradientUnits="userSpaceOnUse"><stop offset="0" stop-color="#711f56"/><stop offset="0.16" stop-color="#6c1e52"/><stop offset="0.36" stop-color="#5c1946"/><stop offset="0.58" stop-color="#431233"/><stop offset="0.82" stop-color="#200918"/><stop offset="1"/></radialGradient><radialGradient id="radial-gradient-2" cx="-781.75" cy="-1560.21" r="32.71" gradientTransform="translate(770.06 2851.09) scale(0.7 1.6)" gradientUnits="userSpaceOnUse"><stop offset="0" stop-color="#836df3"/><stop offset="0.11" stop-color="#6655bd"/><stop offset="0.23" stop-color="#4b3e8b"/><stop offset="0.36" stop-color="#342b60"/><stop offset="0.48" stop-color="#211c3e"/><stop offset="0.61" stop-color="#130f23"/><stop offset="0.73" stop-color="#08070f"/><stop offset="0.86" stop-color="#020204"/><stop offset="1"/></radialGradient><linearGradient id="linear-gradient-27" x1="227.61" y1="391.25" x2="177.47" y2="268.72" gradientUnits="userSpaceOnUse"><stop offset="0" stop-color="#fffa84"/><stop offset="0.39" stop-color="#c8f864"/><stop offset="0.53" stop-color="#b4f759"/><stop offset="0.83" stop-color="#88f371"/><stop offset="1" stop-color="#6ef07f"/></linearGradient><radialGradient id="radial-gradient-3" cx="204.58" cy="329.04" r="84.6" xlink:href="#radial-gradient"/><linearGradient id="linear-gradient-28" x1="246.15" y1="382.88" x2="142.76" y2="242.78" xlink:href="#linear-gradient-27"/><linearGradient id="linear-gradient-29" x1="175.5" y1="115.96" x2="206.52" y2="28.33" gradientUnits="userSpaceOnUse"><stop offset="0" stop-color="#b4f759"/><stop offset="0.1" stop-color="#90f36c"/><stop offset="0.33" stop-color="#35ea9d"/><stop offset="0.36" stop-color="#2be9a3"/><stop offset="0.66" stop-color="#65c9ff"/><stop offset="0.84" stop-color="#5b9ffb"/><stop offset="1" stop-color="#5277f7"/></linearGradient><linearGradient id="linear-gradient-30" x1="312.15" y1="399.43" x2="349.69" y2="342.75" gradientTransform="translate(-173.41 11.02) rotate(2.21)" gradientUnits="userSpaceOnUse"><stop offset="0.01" stop-color="#5277f7"/><stop offset="0.39" stop-color="#7670f4"/><stop offset="0.53" stop-color="#836df3"/><stop offset="0.65" stop-color="#8c6df3"/><stop offset="0.85" stop-color="#a46df3"/><stop offset="1" stop-color="#bb6df3"/></linearGradient><linearGradient id="linear-gradient-31" x1="110" y1="445.45" x2="161.04" y2="411.42" gradientUnits="userSpaceOnUse"><stop offset="0.01" stop-color="#273b98"/><stop offset="0.23" stop-color="#2f2ba2"/><stop offset="0.4" stop-color="#361cac"/><stop offset="0.77" stop-color="#440b89"/><stop offset="1" stop-color="#4e0070"/></linearGradient><linearGradient id="linear-gradient-32" x1="158" y1="484.43" x2="157.53" y2="417.73" xlink:href="#linear-gradient-31"/><linearGradient id="linear-gradient-33" x1="171.8" y1="428.07" x2="176.31" y2="365.75" gradientTransform="matrix(1, 0, 0, 1, 0, 0)" xlink:href="#linear-gradient-30"/><linearGradient id="New_Gradient_Swatch_copy_36" x1="161.35" y1="367.44" x2="176.02" y2="355.33" gradientUnits="userSpaceOnUse"><stop offset="0.1" stop-color="#45108a"/><stop offset="1" stop-color="#7c1dc9"/></linearGradient><linearGradient id="linear-gradient-34" x1="151.51" y1="216.35" x2="24.19" y2="128.07" xlink:href="#linear-gradient-29"/><linearGradient id="linear-gradient-35" x1="152.64" y1="214.71" x2="25.32" y2="126.43" xlink:href="#linear-gradient-29"/><linearGradient id="linear-gradient-36" x1="153.78" y1="213.07" x2="26.46" y2="124.79" xlink:href="#linear-gradient-29"/><linearGradient id="linear-gradient-37" x1="154.92" y1="211.43" x2="27.6" y2="123.15" xlink:href="#linear-gradient-29"/><linearGradient id="linear-gradient-38" x1="156.05" y1="209.79" x2="28.73" y2="121.51" xlink:href="#linear-gradient-29"/><linearGradient id="linear-gradient-39" x1="145.51" y1="261.67" x2="22.4" y2="177.59" xlink:href="#linear-gradient-29"/><linearGradient id="linear-gradient-40" x1="146.54" y1="260.16" x2="23.42" y2="176.08" xlink:href="#linear-gradient-29"/><linearGradient id="linear-gradient-41" x1="147.57" y1="258.65" x2="24.45" y2="174.57" xlink:href="#linear-gradient-29"/><linearGradient id="linear-gradient-42" x1="148.6" y1="257.15" x2="25.48" y2="173.07" xlink:href="#linear-gradient-29"/><linearGradient id="linear-gradient-43" x1="149.63" y1="255.64" x2="26.51" y2="171.56" xlink:href="#linear-gradient-29"/><linearGradient id="linear-gradient-44" x1="240.35" y1="134.11" x2="169.44" y2="-6.3" gradientTransform="translate(64.47 -95.54) rotate(30.31)" gradientUnits="userSpaceOnUse"><stop offset="0.01" stop-color="#2be9a3"/><stop offset="0.29" stop-color="#07cdbf"/><stop offset="0.34" stop-color="#00c7c5"/><stop offset="0.44" stop-color="#09beca"/><stop offset="0.59" stop-color="#21a7d9"/><stop offset="0.77" stop-color="#4881f1"/><stop offset="0.82" stop-color="#5277f7"/></linearGradient><linearGradient id="linear-gradient-45" x1="264.14" y1="158.66" x2="197.45" y2="42.12" gradientTransform="matrix(1, 0, 0, 1, 0, 0)" xlink:href="#linear-gradient-44"/><linearGradient id="linear-gradient-46" x1="381.38" y1="98.35" x2="417.05" y2="233.28" gradientUnits="userSpaceOnUse"><stop offset="0.06" stop-color="#f36dd4"/><stop offset="0.2" stop-color="#e96dda"/><stop offset="0.43" stop-color="#cd6de9"/><stop offset="0.55" stop-color="#bb6df3"/><stop offset="1" stop-color="#836df3"/></linearGradient><linearGradient id="linear-gradient-47" x1="387.85" y1="153.94" x2="415.77" y2="192.13" xlink:href="#linear-gradient-46"/><linearGradient id="linear-gradient-48" x1="381.38" y1="168.92" x2="417.05" y2="303.85" gradientUnits="userSpaceOnUse"><stop offset="0" stop-color="#836df3"/><stop offset="0.55" stop-color="#5277f7"/><stop offset="1" stop-color="#6cf"/></linearGradient><linearGradient id="linear-gradient-49" x1="386.1" y1="222.36" x2="414.14" y2="256.49" xlink:href="#linear-gradient-48"/><linearGradient id="linear-gradient-50" x1="375.32" y1="243.77" x2="440.84" y2="426" gradientUnits="userSpaceOnUse"><stop offset="0.01" stop-color="#6cf"/><stop offset="0.21" stop-color="#42caeb"/><stop offset="0.54" stop-color="#00c7c5"/><stop offset="0.68" stop-color="#09cebe"/><stop offset="0.92" stop-color="#21e1ab"/><stop offset="1" stop-color="#2be9a3"/></linearGradient><linearGradient id="linear-gradient-51" x1="486.15" y1="371.28" x2="301.1" y2="244.91" xlink:href="#linear-gradient-29"/></defs><g class="cls-1"><g id="Layer_2" data-name="Layer 2"><g id="Layer_1-2" data-name="Layer 1"><path class="cls-2" d="M388.31,367.44H388a.78.78,0,0,1-.76-.79.81.81,0,0,1,.79-.77h.24a9.89,9.89,0,0,0,4-.79.77.77,0,1,1,.62,1.42A11.32,11.32,0,0,1,388.31,367.44Zm-4.81-.84a.67.67,0,0,1-.24,0,23.29,23.29,0,0,1-4.32-2,.79.79,0,0,1-.3-1.07.76.76,0,0,1,1-.29l0,0a21.78,21.78,0,0,0,4,1.85.77.77,0,0,1-.25,1.51Zm12.73-2.81a.75.75,0,0,1-.49-.17.78.78,0,0,1-.11-1.09,12.16,12.16,0,0,0,2-3.83.77.77,0,0,1,1.47.49,13.52,13.52,0,0,1-2.31,4.32A.76.76,0,0,1,396.23,363.79Zm-21-1.44a.76.76,0,0,1-.39-.1l-4-2.32a.77.77,0,0,1-.28-1.06.78.78,0,0,1,1.06-.29l4,2.32a.78.78,0,0,1-.38,1.45Zm-8-4.63a.77.77,0,0,1-.39-.11l-4-2.31a.78.78,0,0,1,.78-1.35l4,2.32a.78.78,0,0,1-.38,1.45Zm32.06-2.55h-.06a.77.77,0,0,1-.72-.83c.05-.6.07-1.21.07-1.84v-2.74a.78.78,0,0,1,.78-.78.77.77,0,0,1,.77.78v2.74c0,.67,0,1.33-.07,2A.77.77,0,0,1,399.28,355.17Zm-40.12-2.09a.75.75,0,0,1-.38-.1l-4-2.32a.77.77,0,0,1-.28-1.06.78.78,0,0,1,1.06-.28l4,2.32a.77.77,0,0,1,.29,1.05A.79.79,0,0,1,359.16,353.08Zm-8-4.63a.76.76,0,0,1-.39-.1l-4-2.32a.78.78,0,0,1,.78-1.34l4,2.31a.78.78,0,0,1-.38,1.45Zm48.23-2.56a.78.78,0,0,1-.78-.78v-4.64a.78.78,0,0,1,.78-.78.77.77,0,0,1,.77.78v4.64A.77.77,0,0,1,399.35,345.89Zm-56.28-2.07a.77.77,0,0,1-.39-.11l-4-2.31a.77.77,0,0,1-.28-1.06.78.78,0,0,1,1.06-.29l4,2.32a.78.78,0,0,1-.38,1.45ZM335,339.18a.76.76,0,0,1-.39-.1l-4-2.32a.77.77,0,0,1-.28-1.06.78.78,0,0,1,1.06-.28l4,2.32a.78.78,0,0,1,.29,1.06A.79.79,0,0,1,335,339.18Zm64.33-2.58a.78.78,0,0,1-.78-.78v-4.64a.77.77,0,0,1,.78-.77.76.76,0,0,1,.77.77v4.64A.77.77,0,0,1,399.35,336.6ZM327,334.55a.76.76,0,0,1-.39-.1l-4-2.32a.78.78,0,1,1,.78-1.34l4,2.31a.78.78,0,0,1,.29,1.06A.78.78,0,0,1,327,334.55Zm-8.05-4.63a.77.77,0,0,1-.39-.11l-4-2.31a.77.77,0,0,1-.28-1.06.78.78,0,0,1,1.06-.29l4,2.32a.78.78,0,0,1-.38,1.45Zm80.43-2.61a.77.77,0,0,1-.78-.77v-4.65a.77.77,0,0,1,.78-.77.76.76,0,0,1,.77.77v4.65A.76.76,0,0,1,399.35,327.31Zm-88.48-2a.76.76,0,0,1-.39-.1l-4-2.32a.76.76,0,0,1-.29-1.05.77.77,0,0,1,1.06-.29l4,2.32a.77.77,0,0,1-.38,1.44Zm-8.05-4.63a.76.76,0,0,1-.39-.1l-4-2.32a.78.78,0,0,1-.29-1.06.77.77,0,0,1,1.06-.28l4,2.31a.78.78,0,0,1,.29,1.06A.78.78,0,0,1,302.82,320.65ZM399.35,318a.77.77,0,0,1-.78-.77v-4.64a.78.78,0,0,1,.78-.78.77.77,0,0,1,.77.78v4.64A.76.76,0,0,1,399.35,318Zm-104.58-2a.77.77,0,0,1-.39-.11l-4-2.31a.78.78,0,1,1,.77-1.35l4,2.32a.78.78,0,0,1-.38,1.45Zm-8-4.68a.75.75,0,0,1-.43-.13,33.8,33.8,0,0,1-3.77-2.89.77.77,0,0,1-.07-1.09.77.77,0,0,1,1.09-.07,34.19,34.19,0,0,0,3.6,2.76.77.77,0,0,1-.42,1.42Zm112.6-2.6a.78.78,0,0,1-.78-.78v-4.64a.78.78,0,0,1,.78-.78.77.77,0,0,1,.77.78V308A.77.77,0,0,1,399.35,308.74Zm-119.59-3.49a.76.76,0,0,1-.57-.26,44.94,44.94,0,0,1-3-3.67.77.77,0,0,1,1.25-.91,43.92,43.92,0,0,0,2.88,3.54.78.78,0,0,1-.06,1.1A.77.77,0,0,1,279.76,305.25Zm119.59-5.8a.78.78,0,0,1-.78-.78V294a.78.78,0,0,1,.78-.78.77.77,0,0,1,.77.78v4.64A.77.77,0,0,1,399.35,299.45Zm-125.07-1.68a.8.8,0,0,1-.67-.38c-.8-1.35-1.54-2.76-2.21-4.17a.77.77,0,0,1,.37-1,.76.76,0,0,1,1,.37c.65,1.37,1.37,2.73,2.15,4a.79.79,0,0,1-.67,1.18Zm125.07-7.61a.78.78,0,0,1-.78-.77v-4.65a.77.77,0,0,1,.78-.77.76.76,0,0,1,.77.77v4.65A.77.77,0,0,1,399.35,290.16Zm-129-.79a.79.79,0,0,1-.73-.51,44.67,44.67,0,0,1-1.33-4.54.78.78,0,0,1,.58-.93.76.76,0,0,1,.93.58,43.9,43.9,0,0,0,1.28,4.37.77.77,0,0,1-.47,1A.75.75,0,0,1,270.33,289.37Zm129-8.5a.77.77,0,0,1-.78-.77v-4.65a.77.77,0,0,1,.78-.77.76.76,0,0,1,.77.77v4.65A.76.76,0,0,1,399.35,280.87Zm-131.07-.54a.78.78,0,0,1-.77-.7c-.08-.92-.13-1.83-.13-2.71v-2a.78.78,0,0,1,.78-.78.77.77,0,0,1,.77.78v2a25.28,25.28,0,0,0,.13,2.57.79.79,0,0,1-.71.84Zm131.07-8.74a.78.78,0,0,1-.78-.78v-4.64a.78.78,0,0,1,.78-.78.77.77,0,0,1,.77.78v4.64A.77.77,0,0,1,399.35,271.59Zm-131.19-.54a.78.78,0,0,1-.78-.77v-4.65a.77.77,0,0,1,.78-.77.76.76,0,0,1,.77.77v4.65A.77.77,0,0,1,268.16,271.05Zm131.19-8.75a.78.78,0,0,1-.78-.78v-4.64a.78.78,0,0,1,.78-.78.77.77,0,0,1,.77.78v4.64A.77.77,0,0,1,399.35,262.3Zm-131.19-.54a.77.77,0,0,1-.78-.77v-4.65a.78.78,0,0,1,.78-.77.77.77,0,0,1,.77.77V261A.76.76,0,0,1,268.16,261.76ZM399.35,253a.78.78,0,0,1-.78-.78v-4.64a.78.78,0,0,1,.78-.78.77.77,0,0,1,.77.78v4.64A.77.77,0,0,1,399.35,253Zm-131.19-.54a.77.77,0,0,1-.78-.77v-4.64a.78.78,0,0,1,.78-.78.77.77,0,0,1,.77.78v4.64A.76.76,0,0,1,268.16,252.47Zm131.19-8.75a.78.78,0,0,1-.78-.77V238.3a.77.77,0,0,1,.78-.77.76.76,0,0,1,.77.77V243A.77.77,0,0,1,399.35,243.72Zm-131.19-.53a.78.78,0,0,1-.78-.78v-4.64a.78.78,0,0,1,.78-.78.77.77,0,0,1,.77.78v4.64A.77.77,0,0,1,268.16,243.19Zm131.19-8.76a.77.77,0,0,1-.78-.77V229a.78.78,0,0,1,.78-.77.77.77,0,0,1,.77.77v4.65A.76.76,0,0,1,399.35,234.43Zm-131.19-.53a.78.78,0,0,1-.78-.78v-4.64a.78.78,0,0,1,.78-.78.77.77,0,0,1,.77.78v4.64A.77.77,0,0,1,268.16,233.9Zm131.19-8.75a.78.78,0,0,1-.78-.78v-4.64a.78.78,0,0,1,.78-.78.77.77,0,0,1,.77.78v4.64A.77.77,0,0,1,399.35,225.15Zm-131.19-.54a.77.77,0,0,1-.78-.77v-4.65a.77.77,0,0,1,.78-.77.76.76,0,0,1,.77.77v4.65A.76.76,0,0,1,268.16,224.61Zm131.19-8.75a.78.78,0,0,1-.78-.78v-4.64a.78.78,0,0,1,.78-.78.77.77,0,0,1,.77.78v4.64A.77.77,0,0,1,399.35,215.86Zm-131.19-.54a.77.77,0,0,1-.78-.77V209.9a.78.78,0,0,1,.78-.77.77.77,0,0,1,.77.77v4.65A.76.76,0,0,1,268.16,215.32Zm131.19-8.75a.78.78,0,0,1-.78-.78v-4.64a.77.77,0,0,1,.78-.77.76.76,0,0,1,.77.77v4.64A.77.77,0,0,1,399.35,206.57ZM268.16,206a.78.78,0,0,1-.78-.78v-4.64a.78.78,0,0,1,.78-.78.77.77,0,0,1,.77.78v4.64A.77.77,0,0,1,268.16,206Zm131.19-8.76a.77.77,0,0,1-.78-.77v-4.65a.77.77,0,0,1,.78-.77.76.76,0,0,1,.77.77v4.65A.76.76,0,0,1,399.35,197.28Zm-131.19-.53a.78.78,0,0,1-.78-.78v-4.64a.78.78,0,0,1,.78-.78.77.77,0,0,1,.77.78V196A.77.77,0,0,1,268.16,196.75ZM399.35,188a.77.77,0,0,1-.78-.77v-4.65a.78.78,0,0,1,.78-.77.77.77,0,0,1,.77.77v4.65A.76.76,0,0,1,399.35,188Zm-131.19-.53a.78.78,0,0,1-.78-.78V182a.77.77,0,0,1,.78-.77.76.76,0,0,1,.77.77v4.64A.77.77,0,0,1,268.16,187.46Zm131.19-8.75a.78.78,0,0,1-.78-.78v-4.64a.78.78,0,0,1,.78-.78.77.77,0,0,1,.77.78v4.64A.77.77,0,0,1,399.35,178.71Zm-131.19-.54a.77.77,0,0,1-.78-.77v-4.65a.77.77,0,0,1,.78-.77.76.76,0,0,1,.77.77v4.65A.76.76,0,0,1,268.16,178.17Zm131.19-8.75a.78.78,0,0,1-.78-.78V164a.78.78,0,0,1,.78-.78.77.77,0,0,1,.77.78v4.64A.77.77,0,0,1,399.35,169.42Zm-131.19-.54a.77.77,0,0,1-.78-.77v-4.64a.78.78,0,0,1,.78-.78.77.77,0,0,1,.77.78v4.64A.76.76,0,0,1,268.16,168.88Zm131.19-8.75a.78.78,0,0,1-.78-.77v-4.65a.77.77,0,0,1,.78-.77.76.76,0,0,1,.77.77v4.65A.77.77,0,0,1,399.35,160.13Zm-131.19-.53a.78.78,0,0,1-.78-.78v-4.64a.78.78,0,0,1,.78-.78.77.77,0,0,1,.77.78v4.64A.77.77,0,0,1,268.16,159.6Zm131.19-8.76a.77.77,0,0,1-.78-.77v-4.65a.77.77,0,0,1,.78-.77.76.76,0,0,1,.77.77v4.65A.76.76,0,0,1,399.35,150.84Zm-131.19-.53a.78.78,0,0,1-.78-.78v-4.64a.78.78,0,0,1,.78-.78.77.77,0,0,1,.77.78v4.64A.77.77,0,0,1,268.16,150.31Zm131.19-8.75a.78.78,0,0,1-.78-.78v-4.64a.78.78,0,0,1,.78-.78.77.77,0,0,1,.77.78v4.64A.77.77,0,0,1,399.35,141.56ZM268.16,141a.78.78,0,0,1-.78-.77V135.6a.77.77,0,0,1,.78-.77.76.76,0,0,1,.77.77v4.65A.77.77,0,0,1,268.16,141Zm131.19-8.75a.78.78,0,0,1-.78-.78v-2c0-.82,0-1.67-.12-2.53a.78.78,0,0,1,.71-.84.77.77,0,0,1,.84.7q.12,1.36.12,2.67v2A.77.77,0,0,1,399.35,132.27Zm-131.19-.54a.77.77,0,0,1-.78-.77v-4.65a.77.77,0,0,1,.78-.77.76.76,0,0,1,.77.77V131A.76.76,0,0,1,268.16,131.73ZM398.49,123a.77.77,0,0,1-.76-.6,41.3,41.3,0,0,0-1.27-4.37.77.77,0,0,1,.47-1,.78.78,0,0,1,1,.47,42.32,42.32,0,0,1,1.32,4.55.78.78,0,0,1-.58.93Zm-130.33-.59a.78.78,0,0,1-.78-.78V117a.78.78,0,0,1,.78-.78.77.77,0,0,1,.77.78v4.64A.77.77,0,0,1,268.16,122.45Zm127.26-8.16a.77.77,0,0,1-.7-.44c-.64-1.36-1.36-2.72-2.14-4a.78.78,0,0,1,1.34-.79c.8,1.37,1.55,2.77,2.2,4.17a.76.76,0,0,1-.37,1A.75.75,0,0,1,395.42,114.29Zm-127.26-1.13a.78.78,0,0,1-.78-.78v-4.64a.78.78,0,0,1,.78-.78.77.77,0,0,1,.77.78v4.64A.77.77,0,0,1,268.16,113.16Zm122.53-6.85a.75.75,0,0,1-.62-.32c-.91-1.24-1.88-2.43-2.88-3.54a.78.78,0,0,1,1.16-1,47,47,0,0,1,3,3.67.77.77,0,0,1-.17,1.08A.79.79,0,0,1,390.69,106.31Zm-122.53-2.44a.78.78,0,0,1-.78-.78V98.45a.78.78,0,0,1,.78-.78.77.77,0,0,1,.77.78v4.64A.77.77,0,0,1,268.16,103.87Zm116.32-4.44a.78.78,0,0,1-.52-.19,32,32,0,0,0-3.59-2.77.76.76,0,0,1-.22-1.07.78.78,0,0,1,1.07-.22A34.08,34.08,0,0,1,385,98.07a.78.78,0,0,1-.51,1.36ZM268.16,94.58a.78.78,0,0,1-.78-.77V89.16a.77.77,0,0,1,.78-.77.76.76,0,0,1,.77.77v4.65A.77.77,0,0,1,268.16,94.58Zm108.64-.34a.75.75,0,0,1-.38-.1l-4-2.32a.78.78,0,1,1,.77-1.35l4,2.32a.78.78,0,0,1-.39,1.45Zm-8.05-4.63a.76.76,0,0,1-.38-.11l-4-2.32a.77.77,0,0,1,.77-1.34l4,2.32a.78.78,0,0,1-.39,1.45ZM268.16,85.29a.77.77,0,0,1-.78-.77V79.87a.78.78,0,0,1,.78-.77.77.77,0,0,1,.77.77v4.65A.76.76,0,0,1,268.16,85.29ZM360.7,85a.75.75,0,0,1-.38-.1l-4-2.32a.77.77,0,0,1-.28-1.06.76.76,0,0,1,1.05-.28l4,2.32A.77.77,0,0,1,360.7,85Zm-8.05-4.63a.75.75,0,0,1-.38-.1l-4-2.32a.77.77,0,0,1-.28-1.06.76.76,0,0,1,1.05-.28l4,2.31a.77.77,0,0,1,.28,1.06A.76.76,0,0,1,352.65,80.34ZM268.16,76a.78.78,0,0,1-.78-.78V70.59a.78.78,0,0,1,.78-.78.77.77,0,0,1,.77.78v4.64A.77.77,0,0,1,268.16,76Zm76.44-.3a.76.76,0,0,1-.38-.11l-4-2.31a.78.78,0,0,1,.77-1.35l4,2.32a.78.78,0,0,1-.39,1.45Zm-8.05-4.64a.75.75,0,0,1-.38-.1l-4-2.32a.77.77,0,0,1-.28-1.06.76.76,0,0,1,1.05-.28l4,2.32a.77.77,0,0,1,.29,1.05A.79.79,0,0,1,336.55,71.07Zm-68.39-4.35a.78.78,0,0,1-.78-.78V61.3a.78.78,0,0,1,.78-.78.77.77,0,0,1,.77.78v4.64A.77.77,0,0,1,268.16,66.72Zm60.34-.28a.75.75,0,0,1-.38-.1l-4-2.32a.78.78,0,0,1,.77-1.35l4,2.32a.78.78,0,0,1,.29,1.06A.79.79,0,0,1,328.5,66.44Zm-8.05-4.63a.76.76,0,0,1-.38-.11l-4-2.31a.78.78,0,0,1,.78-1.35l4,2.32a.78.78,0,0,1,.29,1.06A.79.79,0,0,1,320.45,61.81Zm-52.29-4.38a.78.78,0,0,1-.78-.78V53.87c0-.66,0-1.3.07-1.91a.79.79,0,0,1,.83-.72.77.77,0,0,1,.72.83c0,.58-.07,1.18-.07,1.8v2.78A.77.77,0,0,1,268.16,57.43Zm44.24-.26a.75.75,0,0,1-.38-.1l-4-2.32a.78.78,0,0,1,.78-1.34l4,2.32a.77.77,0,0,1,.29,1.05A.79.79,0,0,1,312.4,57.17Zm-8-4.63a.75.75,0,0,1-.38-.1l-4-2.32a.78.78,0,0,1,.78-1.34l4,2.31a.78.78,0,0,1,.29,1.06A.79.79,0,0,1,304.35,52.54Zm-35.26-4.3a.67.67,0,0,1-.24,0,.78.78,0,0,1-.5-1,13.5,13.5,0,0,1,2.3-4.32.77.77,0,0,1,1.09-.12.78.78,0,0,1,.11,1.09,12.19,12.19,0,0,0-2,3.84A.77.77,0,0,1,269.09,48.24Zm27.21-.33a.76.76,0,0,1-.38-.11l-4-2.31a.77.77,0,0,1-.28-1.06.78.78,0,0,1,1.06-.29l4,2.32a.78.78,0,0,1,.29,1.06A.79.79,0,0,1,296.3,47.91Zm-8.07-4.64a.7.7,0,0,1-.36-.1l-.08,0a21.8,21.8,0,0,0-4.07-1.86.78.78,0,0,1,.48-1.48,24.75,24.75,0,0,1,4.37,2,.82.82,0,0,1,.32,1.08A.77.77,0,0,1,288.23,43.27Zm-13.34-1.92a.76.76,0,0,1-.71-.46.78.78,0,0,1,.39-1,11.38,11.38,0,0,1,4.62-.93h.23a.78.78,0,0,1,0,1.55h-.21a9.89,9.89,0,0,0-4,.8A.7.7,0,0,1,274.89,41.35Z"/><path class="cls-3" d="M200.11,395.91h-.28a.77.77,0,0,1-.76-.79.81.81,0,0,1,.79-.76h.25a9.81,9.81,0,0,0,3.95-.78.77.77,0,1,1,.62,1.42A11.31,11.31,0,0,1,200.11,395.91Zm-4.82-.84a1,1,0,0,1-.24,0,24.27,24.27,0,0,1-4.32-2,.8.8,0,0,1-.3-1.07.75.75,0,0,1,1-.29l0,0a22.08,22.08,0,0,0,4,1.85.76.76,0,0,1,.49,1A.78.78,0,0,1,195.29,395.07ZM208,392.26a.81.81,0,0,1-.49-.17.79.79,0,0,1-.11-1.1,11.9,11.9,0,0,0,2-3.82.78.78,0,0,1,1-.49.76.76,0,0,1,.49,1,13.63,13.63,0,0,1-2.31,4.32A.79.79,0,0,1,208,392.26Zm-21-1.44a.79.79,0,0,1-.39-.11l-4-2.31a.78.78,0,0,1,.77-1.35l4,2.32a.78.78,0,0,1,.29,1.06A.76.76,0,0,1,187.06,390.82ZM179,386.18a.78.78,0,0,1-.39-.1l-4-2.32a.76.76,0,0,1-.29-1.05.77.77,0,0,1,1.06-.29l4,2.32a.77.77,0,0,1-.38,1.44Zm32.06-2.54H211a.78.78,0,0,1-.72-.83c.05-.6.07-1.21.07-1.84v-2.75a.78.78,0,0,1,.78-.77.77.77,0,0,1,.77.77V381c0,.67,0,1.32-.07,1.95A.77.77,0,0,1,211.07,383.64ZM171,381.55a.78.78,0,0,1-.39-.1l-4-2.32a.78.78,0,0,1-.29-1.06.77.77,0,0,1,1.06-.28l4,2.31a.78.78,0,0,1,.29,1.06A.76.76,0,0,1,171,381.55Zm-8.05-4.63a.79.79,0,0,1-.39-.11l-4-2.31a.78.78,0,0,1,.77-1.35l4,2.32a.77.77,0,0,1,.29,1.06A.76.76,0,0,1,162.91,376.92Zm48.23-2.56a.78.78,0,0,1-.78-.78v-4.64a.78.78,0,0,1,.78-.78.77.77,0,0,1,.77.78v4.64A.77.77,0,0,1,211.14,374.36Zm-56.28-2.08a.78.78,0,0,1-.39-.1l-4-2.32a.77.77,0,1,1,.77-1.34l4,2.32a.78.78,0,0,1,.29,1.06A.76.76,0,0,1,154.86,372.28Zm-8.05-4.63a.78.78,0,0,1-.39-.1l-4-2.32a.78.78,0,0,1-.29-1.06.77.77,0,0,1,1.06-.28l4,2.31a.78.78,0,0,1,.28,1.06A.76.76,0,0,1,146.81,367.65Zm64.33-2.58a.78.78,0,0,1-.78-.78v-4.64a.78.78,0,0,1,.78-.78.77.77,0,0,1,.77.78v4.64A.77.77,0,0,1,211.14,365.07ZM138.76,363a.78.78,0,0,1-.39-.1l-4-2.32a.78.78,0,0,1,.77-1.35l4,2.32a.77.77,0,0,1,.29,1.06A.76.76,0,0,1,138.76,363Zm-8-4.63a.79.79,0,0,1-.39-.11l-4-2.31a.78.78,0,0,1-.29-1.06.77.77,0,0,1,1.06-.29l4,2.32a.77.77,0,0,1,.29,1.06A.76.76,0,0,1,130.71,358.39Zm80.43-2.61a.78.78,0,0,1-.78-.78v-4.64a.78.78,0,0,1,.78-.78.77.77,0,0,1,.77.78V355A.77.77,0,0,1,211.14,355.78Zm-88.48-2a.78.78,0,0,1-.39-.1l-4-2.32a.78.78,0,0,1-.29-1.06A.77.77,0,0,1,119,350l4,2.32a.77.77,0,0,1-.39,1.44Zm-8-4.63a.78.78,0,0,1-.39-.1l-4-2.32a.78.78,0,0,1-.29-1.06.77.77,0,0,1,1.06-.28l4,2.31a.78.78,0,0,1,.28,1.06A.76.76,0,0,1,114.61,349.12Zm96.53-2.63a.77.77,0,0,1-.78-.77v-4.65a.77.77,0,0,1,.78-.77.76.76,0,0,1,.77.77v4.65A.76.76,0,0,1,211.14,346.49Zm-104.58-2a.79.79,0,0,1-.39-.11l-4-2.31a.78.78,0,0,1,.77-1.35l4,2.32a.77.77,0,0,1,.29,1.06A.76.76,0,0,1,106.56,344.49Zm-8-4.68a.75.75,0,0,1-.43-.13,35,35,0,0,1-3.77-2.89.78.78,0,1,1,1-1.16A31.76,31.76,0,0,0,99,338.38a.79.79,0,0,1,.23,1.08A.77.77,0,0,1,98.54,339.81Zm112.6-2.61a.77.77,0,0,1-.78-.77v-4.65a.78.78,0,0,1,.78-.77.77.77,0,0,1,.77.77v4.65A.76.76,0,0,1,211.14,337.2ZM91.56,333.72a.77.77,0,0,1-.58-.26,47,47,0,0,1-3-3.67.77.77,0,1,1,1.25-.91c.91,1.24,1.87,2.43,2.87,3.54a.79.79,0,0,1,0,1.1A.81.81,0,0,1,91.56,333.72Zm119.58-5.8a.78.78,0,0,1-.78-.78V322.5a.78.78,0,0,1,.78-.78.77.77,0,0,1,.77.78v4.64A.77.77,0,0,1,211.14,327.92ZM86.07,326.23a.78.78,0,0,1-.67-.38c-.8-1.35-1.54-2.75-2.21-4.16a.79.79,0,0,1,.37-1,.78.78,0,0,1,1,.38c.65,1.37,1.37,2.72,2.15,4a.77.77,0,0,1-.27,1.06A.73.73,0,0,1,86.07,326.23Zm125.07-7.6a.78.78,0,0,1-.78-.78v-4.64a.78.78,0,0,1,.78-.78.77.77,0,0,1,.77.78v4.64A.77.77,0,0,1,211.14,318.63Zm-129-.79a.79.79,0,0,1-.74-.52,43.93,43.93,0,0,1-1.33-4.54.78.78,0,0,1,1.52-.35,38.68,38.68,0,0,0,1.28,4.38.78.78,0,0,1-.48,1A.73.73,0,0,1,82.13,317.84Zm129-8.5a.78.78,0,0,1-.78-.77v-4.65a.77.77,0,0,1,.78-.77.76.76,0,0,1,.77.77v4.65A.77.77,0,0,1,211.14,309.34ZM80.07,308.8a.78.78,0,0,1-.77-.7c-.08-.92-.12-1.83-.12-2.71v-2a.77.77,0,0,1,.77-.78.78.78,0,0,1,.78.78v2c0,.83,0,1.69.12,2.57a.78.78,0,0,1-.7.84Zm131.07-8.75a.77.77,0,0,1-.78-.77v-4.65a.78.78,0,0,1,.78-.77.77.77,0,0,1,.77.77v4.65A.76.76,0,0,1,211.14,300.05ZM80,299.52a.77.77,0,0,1-.77-.78V294.1a.77.77,0,0,1,.77-.78.78.78,0,0,1,.78.78v4.64A.78.78,0,0,1,80,299.52Zm131.19-8.75a.78.78,0,0,1-.78-.78v-4.64a.78.78,0,0,1,.78-.78.77.77,0,0,1,.77.78V290A.77.77,0,0,1,211.14,290.77ZM80,290.23a.77.77,0,0,1-.77-.77v-4.65A.76.76,0,0,1,80,284a.77.77,0,0,1,.78.77v4.65A.78.78,0,0,1,80,290.23Zm131.19-8.75a.78.78,0,0,1-.78-.78v-4.64a.78.78,0,0,1,.78-.78.77.77,0,0,1,.77.78v4.64A.77.77,0,0,1,211.14,281.48ZM80,280.94a.76.76,0,0,1-.77-.77v-4.65a.76.76,0,0,1,.77-.77.77.77,0,0,1,.78.77v4.65A.77.77,0,0,1,80,280.94Zm131.19-8.75a.78.78,0,0,1-.78-.78v-4.64a.78.78,0,0,1,.78-.78.77.77,0,0,1,.77.78v4.64A.77.77,0,0,1,211.14,272.19ZM80,271.66a.77.77,0,0,1-.77-.78v-4.64a.77.77,0,0,1,.77-.78.78.78,0,0,1,.78.78v4.64A.78.78,0,0,1,80,271.66Zm131.19-8.76a.78.78,0,0,1-.78-.77v-4.65a.77.77,0,0,1,.78-.77.76.76,0,0,1,.77.77v4.65A.77.77,0,0,1,211.14,262.9ZM80,262.37a.77.77,0,0,1-.77-.78V257a.77.77,0,0,1,.77-.78.78.78,0,0,1,.78.78v4.64A.78.78,0,0,1,80,262.37Zm131.19-8.76a.77.77,0,0,1-.78-.77v-4.65a.78.78,0,0,1,.78-.77.77.77,0,0,1,.77.77v4.65A.76.76,0,0,1,211.14,253.61ZM80,253.08a.77.77,0,0,1-.77-.78v-4.64a.77.77,0,0,1,.77-.78.78.78,0,0,1,.78.78v4.64A.78.78,0,0,1,80,253.08Zm131.19-8.75a.78.78,0,0,1-.78-.78v-4.64a.78.78,0,0,1,.78-.78.77.77,0,0,1,.77.78v4.64A.77.77,0,0,1,211.14,244.33ZM80,243.79a.77.77,0,0,1-.77-.77v-4.65a.76.76,0,0,1,.77-.77.77.77,0,0,1,.78.77V243A.78.78,0,0,1,80,243.79ZM211.14,235a.78.78,0,0,1-.78-.78v-4.64a.78.78,0,0,1,.78-.78.77.77,0,0,1,.77.78v4.64A.77.77,0,0,1,211.14,235ZM80,234.5a.76.76,0,0,1-.77-.77v-4.65a.77.77,0,0,1,.77-.77.78.78,0,0,1,.78.77v4.65A.77.77,0,0,1,80,234.5Zm131.19-8.75a.78.78,0,0,1-.78-.78v-4.64a.77.77,0,0,1,.78-.77.76.76,0,0,1,.77.77V225A.77.77,0,0,1,211.14,225.75Zm0-9.29a.77.77,0,0,1-.78-.77V211a.77.77,0,0,1,.78-.77.76.76,0,0,1,.77.77v4.65A.76.76,0,0,1,211.14,216.46Zm0-9.29a.77.77,0,0,1-.78-.77v-4.64a.78.78,0,0,1,.78-.78.77.77,0,0,1,.77.78v4.64A.76.76,0,0,1,211.14,207.17Zm0-9.28a.78.78,0,0,1-.78-.78v-4.64a.78.78,0,0,1,.78-.78.77.77,0,0,1,.77.78v4.64A.77.77,0,0,1,211.14,197.89Zm0-9.29a.78.78,0,0,1-.78-.78v-4.64a.78.78,0,0,1,.78-.78.77.77,0,0,1,.77.78v4.64A.77.77,0,0,1,211.14,188.6Zm0-9.29a.78.78,0,0,1-.78-.77v-4.65a.77.77,0,0,1,.78-.77.76.76,0,0,1,.77.77v4.65A.77.77,0,0,1,211.14,179.31Zm0-9.29a.77.77,0,0,1-.78-.77V164.6a.77.77,0,0,1,.78-.77.76.76,0,0,1,.77.77v4.65A.76.76,0,0,1,211.14,170Zm0-9.28a.78.78,0,0,1-.78-.78v-2.05c0-.81,0-1.66-.11-2.52a.77.77,0,1,1,1.54-.14c.08.9.12,1.8.12,2.66V160A.77.77,0,0,1,211.14,160.74Zm-.86-9.23a.79.79,0,0,1-.76-.6,39.06,39.06,0,0,0-1.27-4.37.77.77,0,1,1,1.46-.52,42.92,42.92,0,0,1,1.33,4.54.78.78,0,0,1-.59.93A.47.47,0,0,1,210.28,151.51Zm-3.07-8.75a.78.78,0,0,1-.7-.44,43.54,43.54,0,0,0-2.14-4,.78.78,0,0,1,1.34-.79c.81,1.36,1.55,2.77,2.21,4.17a.78.78,0,0,1-.38,1A.72.72,0,0,1,207.21,142.76ZM80,141.62a.76.76,0,0,1-.77-.77v-4.64a.77.77,0,0,1,.77-.78.78.78,0,0,1,.78.78v4.64A.77.77,0,0,1,80,141.62Zm122.53-6.84a.77.77,0,0,1-.62-.32C201,133.22,200,132,199,130.91a.77.77,0,0,1,1.15-1,47,47,0,0,1,3,3.67.77.77,0,0,1-.17,1.08A.79.79,0,0,1,202.48,134.78ZM80,132.34a.77.77,0,0,1-.77-.78v-4.64a.77.77,0,0,1,.77-.78.78.78,0,0,1,.78.78v4.64A.78.78,0,0,1,80,132.34Zm116.32-4.44a.75.75,0,0,1-.51-.19,33,33,0,0,0-3.6-2.77.78.78,0,1,1,.86-1.29,34,34,0,0,1,3.76,2.89.78.78,0,0,1-.51,1.36ZM80,123.05a.77.77,0,0,1-.77-.78v-4.64a.77.77,0,0,1,.77-.78.78.78,0,0,1,.78.78v4.64A.78.78,0,0,1,80,123.05Zm108.64-.34a.76.76,0,0,1-.38-.11l-4-2.31a.78.78,0,0,1,.78-1.35l4,2.32a.78.78,0,0,1,.29,1.06A.79.79,0,0,1,188.59,122.71Zm-8.05-4.64a.75.75,0,0,1-.38-.1l-4-2.32a.78.78,0,1,1,.78-1.34l4,2.32a.77.77,0,0,1,.29,1.05A.79.79,0,0,1,180.54,118.07ZM80,113.76a.76.76,0,0,1-.77-.77v-4.65a.76.76,0,0,1,.77-.77.77.77,0,0,1,.78.77V113A.77.77,0,0,1,80,113.76Zm92.54-.32a.75.75,0,0,1-.38-.1l-4-2.32a.78.78,0,0,1,.78-1.34l4,2.31a.78.78,0,0,1,.29,1.06A.79.79,0,0,1,172.49,113.44Zm-8.05-4.63a.76.76,0,0,1-.38-.11l-4-2.31a.77.77,0,0,1-.28-1.06.78.78,0,0,1,1.06-.29l4,2.32a.78.78,0,0,1,.29,1.06A.79.79,0,0,1,164.44,108.81ZM80,104.47a.76.76,0,0,1-.77-.77V99.05a.77.77,0,0,1,.77-.77.78.78,0,0,1,.78.77v4.65A.77.77,0,0,1,80,104.47Zm76.44-.3a.75.75,0,0,1-.38-.1l-4-2.32a.78.78,0,1,1,.78-1.34l4,2.32a.78.78,0,0,1,.29,1.06A.8.8,0,0,1,156.39,104.17Zm-8-4.63a.76.76,0,0,1-.39-.1l-4-2.32a.78.78,0,1,1,.78-1.34l4,2.31a.78.78,0,0,1-.38,1.45ZM80,95.19a.77.77,0,0,1-.77-.78V89.77A.77.77,0,0,1,80,89a.78.78,0,0,1,.78.78v4.64A.78.78,0,0,1,80,95.19Zm60.35-.28a.77.77,0,0,1-.39-.11l-4-2.31a.77.77,0,0,1-.28-1.06.78.78,0,0,1,1.06-.29l4,2.32a.78.78,0,0,1-.38,1.45Zm-8.05-4.64a.76.76,0,0,1-.39-.1l-4-2.32a.77.77,0,1,1,.77-1.34l4,2.32a.78.78,0,0,1,.29,1.06A.8.8,0,0,1,132.25,90.27ZM80,85.9a.77.77,0,0,1-.77-.78V82.34c0-.66,0-1.3.06-1.92a.78.78,0,0,1,.83-.71.77.77,0,0,1,.72.83c0,.58-.07,1.18-.06,1.79v2.79A.78.78,0,0,1,80,85.9Zm44.25-.26a.76.76,0,0,1-.39-.1l-4-2.32a.77.77,0,1,1,.77-1.34l4,2.31a.78.78,0,0,1-.38,1.45Zm-8-4.63a.77.77,0,0,1-.39-.11l-4-2.31a.78.78,0,0,1,.77-1.35l4,2.32a.78.78,0,0,1-.38,1.45Zm-35.27-4.3a1,1,0,0,1-.24,0,.78.78,0,0,1-.5-1,13.55,13.55,0,0,1,2.3-4.33.77.77,0,0,1,1.2,1,12.23,12.23,0,0,0-2,3.83A.78.78,0,0,1,80.88,76.71Zm27.22-.34a.76.76,0,0,1-.39-.1l-4-2.32a.76.76,0,0,1-.29-1,.77.77,0,0,1,1.06-.29l4,2.32a.77.77,0,0,1-.38,1.44ZM100,71.74a.7.7,0,0,1-.36-.1l-.07,0a22,22,0,0,0-4.08-1.87.76.76,0,0,1-.49-1,.78.78,0,0,1,1-.49,23.6,23.6,0,0,1,4.36,2,.82.82,0,0,1,.32,1.08A.76.76,0,0,1,100,71.74ZM86.68,69.82a.78.78,0,0,1-.32-1.49A11.38,11.38,0,0,1,91,67.4h.24a.78.78,0,0,1,0,1.55H91a9.89,9.89,0,0,0-4,.8A.7.7,0,0,1,86.68,69.82Z"/><g class="cls-4"><path class="cls-5" d="M337.36,511.88a29.64,29.64,0,0,1-14.84-3.58L171.45,419.17c-5.42-3.13-8.52-8.07-8.52-13.57,0-6,3.74-11.64,10.26-15.4L265,329.81a36.49,36.49,0,0,1,18-4.58,29.78,29.78,0,0,1,14.85,3.57l83.4,46.83,83.4,46.83c5.41,3.13,8.51,8.07,8.51,13.57,0,6-3.73,11.64-10.25,15.4L355.39,507.3A36.5,36.5,0,0,1,337.36,511.88Z"/><path class="cls-6" d="M260.83,333.18a37.59,37.59,0,0,1,14.46-4.49c1.11-.1,2.24-.18,3.37-.2a29.81,29.81,0,0,1,14.73,3.31c.15,0,9.33,5.12,9.44,5.19l73.28,41.16,11.09,6.23,71.6,40.23c4.51,2.6,7.77,6.84,8.47,11.28a16,16,0,0,1,.21,2c.19,5.91-3.41,11.51-9.92,15.27l-24.28,12.59c-.33.2-46.77,24.08-47.06,23.91l-33.49,16.61c-4.88,2.81-11.33,4.16-17.52,4.16a29.5,29.5,0,0,1-14.43-3.57L232.88,455l-59.26-34.94c-5.15-3-8.42-7.86-8.42-13.1,0-5.74,3.2-11.29,9.4-14.87l55.16-37.9C229.47,354,260.49,333.37,260.83,333.18Z"/><path class="cls-7" d="M256.63,336.55a39.49,39.49,0,0,1,14.3-4.54c1.1-.11,2.21-.21,3.33-.25a29.8,29.8,0,0,1,14.62,3c.3,0,9.18,4.92,9.4,5l72.64,40.84,11,6.17,71,39.9c4.28,2.48,7.83,6.81,8.58,11,.11.64.21,1.27.26,1.92.39,5.79-3.07,11.39-9.57,15.14l-23.64,12.24c-.66.39-45.31,23.1-45.89,22.77l-32.57,15.34c-4.64,2.67-11.13,3.75-17,3.75a29.28,29.28,0,0,1-14-3.57L233.48,455,175.8,421c-4.9-2.83-8.34-7.66-8.34-12.63A16.31,16.31,0,0,1,176,394l51-36.79C226.45,356.87,256,336.94,256.63,336.55Z"/><path class="cls-8" d="M252.42,339.93a41.89,41.89,0,0,1,14.16-4.6c1.08-.12,2.18-.25,3.28-.3a29.63,29.63,0,0,1,14.51,2.77c.46,0,9,4.71,9.36,4.9l72,40.5,10.89,6.13L447,428.9c4.06,2.35,7.9,6.78,8.68,10.76.12.61.25,1.23.32,1.86.59,5.68-2.73,11.26-9.23,15l-23,11.89c-1,.58-43.85,22.12-44.71,21.62L347.4,504.12c-4.38,2.53-10.93,3.33-16.5,3.33a29.05,29.05,0,0,1-13.59-3.56l-83.23-49-56.11-33c-4.64-2.67-8.24-7.45-8.24-12.16a15.38,15.38,0,0,1,7.71-13.82l46.86-35.69C223.43,359.71,251.43,340.5,252.42,339.93Z"/><path class="cls-9" d="M248.22,343.3a44.59,44.59,0,0,1,14-4.65c1.07-.13,2.15-.29,3.25-.35a29.43,29.43,0,0,1,14.38,2.5c.62,0,8.88,4.5,9.32,4.76l71.38,40.16,10.8,6.08,69.74,39.25c3.84,2.21,8,6.75,8.79,10.49.13.6.3,1.2.38,1.81.79,5.57-2.39,11.14-8.89,14.88L419,469.77c-1.33.77-42.39,21.14-43.54,20.47l-30.75,12.82c-4.14,2.39-10.73,2.91-16,2.91a29,29,0,0,1-13.17-3.55l-80.89-47.56-54.53-32.07c-4.38-2.53-8.15-7.25-8.15-11.7,0-4.88,1.58-10.24,6.86-13.29l42.7-34.59C220.41,362.55,246.89,344.07,248.22,343.3Z"/><path class="cls-10" d="M244,346.68A47.3,47.3,0,0,1,257.87,342c1.06-.14,2.12-.32,3.2-.41a29.49,29.49,0,0,1,14.27,2.24c.77.05,8.72,4.29,9.28,4.61l70.74,39.83,10.71,6,69.12,38.92c3.62,2.09,8.07,6.73,8.9,10.23.14.59.33,1.17.43,1.76,1,5.46-2.06,11-8.54,14.76l-21.7,11.18c-1.66,1-40.93,20.16-42.37,19.32L342.08,502c-3.9,2.25-10.54,2.49-15.49,2.49A29,29,0,0,1,313.83,501L235.28,454.8l-53-31.1c-4.12-2.39-8-7.05-8-11.23,0-4.6,1-9.9,6-12.77l38.56-33.48C217.39,365.38,242.36,347.63,244,346.68Z"/><path class="cls-11" d="M239.82,350.05a50.77,50.77,0,0,1,13.69-4.76c1.05-.14,2.09-.36,3.16-.46a29.47,29.47,0,0,1,14.16,2c.93.06,8.57,4.08,9.24,4.47l70.11,39.5,10.6,6,68.51,38.6c3.39,2,8.15,6.7,9,10,.15.58.37,1.13.5,1.71,1.18,5.35-1.73,10.88-8.21,14.63l-21.05,10.83c-2,1.15-39.47,19.17-41.2,18.18l-28.91,10.29c-3.66,2.11-10.34,2.07-15,2.07a28.71,28.71,0,0,1-12.33-3.54l-76.21-44.72L184.5,424.6c-3.87-2.23-8-6.84-8-10.76,0-4.31.49-9.55,5.15-12.24l34.41-32.38C214.37,368.22,237.83,351.2,239.82,350.05Z"/><path class="cls-12" d="M235.62,353.42a54.78,54.78,0,0,1,13.54-4.81c1-.15,2.06-.39,3.11-.51a29.41,29.41,0,0,1,14,1.7c1.08.07,8.41,3.87,9.19,4.32L345,393.29l10.51,5.92,67.89,38.28c3.16,1.82,8.25,6.66,9.1,9.69.16.57.41,1.1.56,1.66,1.39,5.24-1.39,10.76-7.86,14.5l-20.41,10.48c-2.33,1.35-38,18.19-40,17l-28,9c-3.41,2-10.14,1.66-14.47,1.66-3.78,0-9.22-2-11.92-3.54l-73.87-43.3-49.81-29.19c-3.61-2.09-7.88-6.63-7.88-10.3,0-4,0-9.2,4.31-11.71l30.26-31.28C211.35,371.06,233.29,354.77,235.62,353.42Z"/><path class="cls-13" d="M231.42,356.8a59.49,59.49,0,0,1,13.38-4.87c1-.16,2-.43,3.08-.56a29.36,29.36,0,0,1,13.93,1.43c1.23.08,8.26,3.67,9.15,4.18l68.84,38.83,10.42,5.88,67.27,37.94c2.94,1.7,8.35,6.64,9.2,9.44.17.55.45,1.06.62,1.6,1.6,5.13-1.05,10.63-7.52,14.37L400,475.17c-2.66,1.54-36.55,17.21-38.85,15.88l-27.09,7.77c-3.17,1.83-9.94,1.24-14,1.24-3.5,0-9-2.08-11.5-3.53l-71.53-41.88-48.24-28.24c-3.35-1.93-7.78-6.42-7.78-9.82,0-3.74-.58-8.86,3.45-11.19l26.11-30.17C208.33,373.9,228.76,358.33,231.42,356.8Z"/><path class="cls-14" d="M227.22,360.17a65.22,65.22,0,0,1,13.23-4.92c1-.17,2-.47,3-.62a29.42,29.42,0,0,1,13.82,1.17c1.38.09,8.1,3.46,9.11,4l68.21,38.49,10.32,5.83,66.65,37.62c2.71,1.56,8.93,6.5,9.31,9.17a11.27,11.27,0,0,1,.67,1.56c1.81,5-.71,10.5-7.18,14.23l-19.12,9.78c-3,1.73-35.08,16.23-37.67,14.74l-26.17,6.5c-2.93,1.69-9.75.82-13.47.82-3.23,0-8.76-2.18-11.07-3.52l-69.2-40.46L191,427.32c-3.09-1.79-7.69-6.22-7.69-9.36,0-3.44-1.12-8.51,2.6-10.66l22-29.07C205.31,376.73,224.23,361.9,227.22,360.17Z"/><path class="cls-15" d="M223,363.54a71.93,71.93,0,0,1,13.07-5c1-.18,2-.5,3-.67a29.38,29.38,0,0,1,13.71.9c1.54.09,8,3.25,9.06,3.89l67.58,38.17,10.23,5.77,66,37.29c2.48,1.44,9.06,6.46,9.41,8.91a11.7,11.7,0,0,1,.74,1.51c2,4.9-.39,10.37-6.84,14.1l-18.48,9.43c-3.32,1.92-33.62,15.25-36.49,13.59l-25.26,5.24c-2.69,1.55-9.55.4-13,.4-3,0-8.54-2.29-10.66-3.51l-66.86-39L193.2,428.22c-2.83-1.63-7.59-6-7.59-8.89,0-3.15-1.66-8.16,1.75-10.13l17.81-28C202.29,379.57,219.69,365.46,223,363.54Z"/><path class="cls-16" d="M218.82,366.92a79.46,79.46,0,0,1,12.92-5c1-.19,1.94-.54,2.95-.72a29.28,29.28,0,0,1,13.59.63c1.69.1,7.79,3,9,3.75l66.94,37.83,10.13,5.72,65.42,37c2.26,1.3,9.2,6.42,9.51,8.64a9.91,9.91,0,0,1,.8,1.46c2.23,4.79-.05,10.25-6.5,14l-17.83,9.08c-3.65,2.11-32.15,14.27-35.32,12.44l-24.35,4c-2.43,1.41-9.35,0-12.45,0-2.69,0-8.31-2.39-10.24-3.51L238.89,454.5l-43.51-25.37c-2.58-1.49-7.5-5.81-7.5-8.43,0-2.86-2.21-7.8.9-9.6l13.66-26.87C199.27,382.41,215.16,369,218.82,366.92Z"/><path class="cls-17" d="M214.62,370.29a90.21,90.21,0,0,1,12.76-5.08c1-.2,1.91-.57,2.91-.77a29.3,29.3,0,0,1,13.47.36c1.85.11,7.65,2.83,9,3.61l66.31,37.49,10,5.68,64.8,36.64c2,1.17,9.33,6.37,9.62,8.38a10.67,10.67,0,0,1,.85,1.4c2.45,4.68.29,10.12-6.16,13.84L381,480.57c-4,2.3-30.69,13.29-34.15,11.3l-23.43,2.71c-2.19,1.27-9.15-.43-11.94-.43-2.43,0-8.09-2.5-9.82-3.51l-62.19-36.2L197.56,430c-2.32-1.34-7.42-5.6-7.42-7.95,0-2.58-2.74-7.46.05-9.08l9.51-25.76C196.25,385.24,210.63,372.59,214.62,370.29Z"/><path class="cls-18" d="M210.41,373.66A103.72,103.72,0,0,1,223,368.53c.95-.21,1.88-.61,2.86-.83a29.35,29.35,0,0,1,13.36.1c2,.12,7.49,2.62,8.94,3.46l65.68,37.16,9.94,5.63L388,450.36c1.81,1.05,9.47,6.34,9.72,8.12a9.68,9.68,0,0,1,.91,1.35c2.67,4.57.63,10-5.81,13.71l-16.54,8.38c-4.32,2.49-29.23,12.31-33,10.15l-22.52,1.45c-1.95,1.13-9-.85-11.44-.85-2.15,0-7.86-2.61-9.4-3.5l-59.85-34.78-40.36-23.45c-2.06-1.19-7.32-5.4-7.32-7.49,0-2.29-3.28-7.11-.8-8.55L197,390.24C193.23,388.08,206.09,376.16,210.41,373.66Z"/><path class="cls-19" d="M206.21,377a119,119,0,0,1,12.46-5.19c1-.21,1.85-.64,2.82-.88a29.26,29.26,0,0,1,13.25-.17c2.16.13,7.34,2.41,8.9,3.32l65,36.83,9.85,5.57,63.56,36c1.58.91,9.6,6.29,9.82,7.85a10.44,10.44,0,0,1,1,1.3c2.89,4.45,1,9.87-5.47,13.59l-15.89,8c-4.65,2.69-27.77,11.33-31.8,9l-21.6.19c-1.71,1-8.76-1.27-10.93-1.27-1.89,0-7.64-2.71-9-3.49l-57.51-33.36-38.78-22.5c-1.81-1-7.23-5.18-7.23-7,0-2-3.82-6.76-1.65-8l1.21-23.57C190.21,390.92,201.56,379.72,206.21,377Z"/><path class="cls-20" d="M202,380.41c1.21-.7,10.83-4.89,12.31-5.24.93-.22,1.82-.67,2.78-.93a29.25,29.25,0,0,1,13.13-.44c2.31.14,7.18,2.21,8.86,3.17l64.41,36.5,9.74,5.52,62.95,35.67c1.35.78,9.74,6.25,9.93,7.58a11.76,11.76,0,0,1,1,1.25c3.11,4.34,1.29,9.75-5.13,13.46l-15.25,7.67c-5,2.88-26.31,10.35-30.63,7.86l-20.69-1.08c-1.46.85-8.56-1.69-10.42-1.69-1.61,0-7.41-2.81-8.56-3.48l-55.18-31.94-37.21-21.54c-1.54-.89-7.13-5-7.13-6.55s-4.37-6.42-2.5-7.49l-2.94-22.46C187.19,393.76,197,383.29,202,380.41Z"/><path class="cls-21" d="M197.81,383.78c1-.58,10.92-5,12.15-5.29.93-.23,1.79-.71,2.74-1a29.13,29.13,0,0,1,13-.71c2.46.15,7,2,8.81,3L298.31,416l9.65,5.47,62.33,35.34c1.13.65,9.87,6.21,10,7.33a10,10,0,0,1,1.09,1.19c3.34,4.22,1.63,9.62-4.79,13.33L362,486c-5.32,3.07-24.85,9.37-29.46,6.71l-19.77-2.34c-1.22.71-8.36-2.11-9.91-2.11-1.35,0-7.19-2.92-8.15-3.47l-52.84-30.52-35.63-20.58c-1.29-.75-7-4.78-7-6.09s-4.91-6.07-3.36-7l-7.08-21.36C184.17,396.59,192.49,386.85,197.81,383.78Z"/><path class="cls-22" d="M193.61,387.16c.8-.47,11-5.09,12-5.35s1.76-.74,2.69-1a29.28,29.28,0,0,1,12.91-1,25.68,25.68,0,0,1,8.77,2.89l63.14,35.82,9.56,5.43,61.71,35c.9.52,10,6.17,10.13,7.06a10.34,10.34,0,0,1,1.15,1.14c3.57,4.09,2,9.49-4.45,13.2l-14,7c-5.65,3.26-23.39,8.39-28.28,5.56l-18.86-3.6c-1,.57-8.17-2.52-9.41-2.52-1.08,0-7-3-7.73-3.48l-50.5-29.09-34.06-19.63c-1-.59-7-4.57-7-5.62s-5.44-5.72-4.2-6.43L186,402.25C181.15,399.43,188,390.42,193.61,387.16Z"/><path class="cls-23" d="M189.41,390.53c.6-.35,11.08-5.33,11.84-5.4a23.15,23.15,0,0,1,2.66-1.09,29.09,29.09,0,0,1,12.79-1.24,24,24,0,0,1,8.73,2.74L287.94,421l9.46,5.37,61.09,34.69c.67.39,10.14,6.12,10.23,6.79a10.82,10.82,0,0,1,1.21,1.09c3.8,4,2.31,9.37-4.1,13.07l-13.32,6.62c-6,3.45-21.92,7.41-27.1,4.41l-17.94-4.86c-.73.42-8-2.94-8.9-2.94s-6.74-3.13-7.31-3.47l-48.17-27.68-32.48-18.66c-.77-.45-6.86-4.37-6.86-5.15s-6-5.38-5.05-5.91l-15.39-19.15C178.13,402.27,183.43,394,189.41,390.53Z"/><path class="cls-24" d="M185.21,393.9c.4-.23,11.18-5.41,11.69-5.45a21.89,21.89,0,0,1,2.61-1.14,29,29,0,0,1,12.68-1.51,22.35,22.35,0,0,1,8.68,2.6l61.88,35.16,9.36,5.32,60.48,34.36c.45.26,10.27,6.09,10.34,6.53a11.2,11.2,0,0,1,1.27,1c4,3.84,2.63,9.24-3.77,12.94L347.76,490c-6.31,3.64-20.46,6.42-25.93,3.27l-17-6.13c-.48.28-7.77-3.36-8.39-3.36s-6.51-3.24-6.89-3.46l-45.83-26.26-30.9-17.71c-.52-.3-6.77-4.16-6.77-4.68s-6.52-5-5.9-5.38l-19.54-18.05C175.11,405.1,178.89,397.55,185.21,393.9Z"/><path class="cls-25" d="M181,397.28c.2-.12,11.28-5.49,11.53-5.51a22.27,22.27,0,0,1,2.57-1.19,29,29,0,0,1,12.56-1.78,20.94,20.94,0,0,1,8.65,2.45l61.24,34.83,9.27,5.27,59.86,34c.22.13,10.41,6,10.44,6.26a13.13,13.13,0,0,1,1.33,1c4.25,3.71,3,9.12-3.42,12.81l-12,5.92c-6.64,3.83-19,5.44-24.75,2.12l-16.12-7.39c-.24.14-7.57-3.78-7.88-3.78s-6.29-3.34-6.48-3.45L244.3,454,215,437.28c-.26-.15-6.67-4-6.67-4.22s-7.07-4.67-6.76-4.85l-23.68-16.95C172.09,407.94,174.36,401.12,181,397.28Z"/><path class="cls-26" d="M314.68,493.69,244.9,454l-69.79-39.71c-6-3.49-5.28-9.59,1.7-13.62l11.38-5.56c7-4,17.53-4.47,23.58-1l69.78,39.71,69.78,39.72c6.05,3.49,5.29,9.58-1.69,13.61l-11.38,5.57C331.28,496.75,320.72,497.18,314.68,493.69Z"/></g><path class="cls-27" d="M320.73,484.6,197.39,413.4c-13.91-8-25.19-29.58-25.19-48.13V36.82c0-9.44-7.75-11.52-3-14.91.17-.13,18.82-8.49,19-8.57,5.06-1.93,10.47-2.8,17,1l123.34,71.2c13.91,8,25.19,29.58,25.19,48.13V462.12c0,9.86-3.19,16.88-8.26,20.1-.3.19-21.16,9.83-21.5,9.95C319.48,493.66,326.81,488.11,320.73,484.6Z"/><path class="cls-28" d="M320.73,484.6,197.39,413.4c-13.91-8-25.19-29.58-25.19-48.13V36.82c0-9.44-7.75-11.52-3-14.91.17-.13,18.51-8.38,18.72-8.45,5-1.94,10.46-2.8,17,1l123.33,71.2c13.91,8,25.19,29.58,25.19,48.13V462.23c0,9.86-3.18,16.89-8.25,20.1-.3.19-20.86,9.72-21.2,9.84C319.48,493.66,326.81,488.11,320.73,484.6Z"/><path class="cls-29" d="M320.73,484.6,197.39,413.4c-13.91-8-25.19-29.58-25.19-48.13V36.82c0-9.44-7.75-11.52-3-14.91.17-.13,18.21-8.26,18.41-8.34,5.06-1.94,10.47-2.8,17,1L327.93,85.77c13.91,8,25.19,29.58,25.19,48.13V462.35c0,9.85-3.19,16.88-8.26,20.1-.3.19-20.55,9.6-20.89,9.72C319.48,493.66,326.81,488.11,320.73,484.6Z"/><path class="cls-30" d="M320.73,484.6,197.39,413.4c-13.91-8-25.19-29.58-25.19-48.13V36.82c0-9.44-7.75-11.52-3-14.91.17-.13,17.91-8.15,18.11-8.23,5.06-1.94,10.46-2.8,17,1L327.62,85.88c13.92,8,25.19,29.58,25.19,48.13V462.46c0,9.86-3.18,16.88-8.25,20.1-.3.19-20.25,9.49-20.59,9.61C319.48,493.66,326.81,488.11,320.73,484.6Z"/><path class="cls-31" d="M320.73,484.6,197.39,413.4c-13.91-8-25.19-29.58-25.19-48.13V36.82c0-9.44-7.75-11.52-3-14.91.17-.13,17.6-8,17.81-8.12,5-1.93,10.46-2.8,17,1L327.32,86c13.91,8,25.19,29.58,25.19,48.13V462.57c0,9.86-3.18,16.88-8.25,20.1-.31.19-19.95,9.38-20.29,9.5C319.48,493.66,326.81,488.11,320.73,484.6Z"/><path class="cls-32" d="M320.73,484.6,197.39,413.4c-13.91-8-25.19-29.58-25.19-48.13V36.82c0-9.44-7.75-11.52-3-14.91.17-.13,17.3-7.92,17.5-8,5.06-1.94,10.47-2.8,17,1L327,86.11c13.91,8,25.19,29.58,25.19,48.12V462.69c0,9.85-3.19,16.88-8.26,20.09-.3.19-19.64,9.27-20,9.39C319.48,493.66,326.81,488.11,320.73,484.6Z"/><path class="cls-33" d="M320.73,484.6,197.39,413.4c-13.91-8-25.19-29.58-25.19-48.13V36.82c0-9.44-7.75-11.52-3-14.91.17-.13,17-7.81,17.2-7.89,5.05-1.94,10.46-2.8,17,1L326.71,86.22c13.91,8,25.19,29.58,25.19,48.13V462.8c0,9.85-3.18,16.88-8.25,20.1-.3.19-19.34,9.15-19.68,9.27C319.48,493.66,326.81,488.11,320.73,484.6Z"/><path class="cls-34" d="M320.73,484.6,197.39,413.4c-13.91-8-25.19-29.58-25.19-48.13V36.82c0-9.44-7.75-11.52-3-14.91.17-.13,16.69-7.7,16.89-7.78,5.06-1.93,10.47-2.8,17,1L326.41,86.33c13.91,8,25.19,29.58,25.19,48.13V462.91c0,9.86-3.19,16.88-8.26,20.1-.3.19-19,9-19.37,9.16C319.48,493.66,326.81,488.11,320.73,484.6Z"/><path class="cls-35" d="M320.73,484.6,197.39,413.4c-13.91-8-25.19-29.58-25.19-48.13V36.82c0-9.44-7.75-11.52-3-14.91.17-.13,16.39-7.59,16.59-7.66,5.06-1.94,10.46-2.8,17,1L326.1,86.44c13.92,8,25.19,29.58,25.19,48.13V463c0,9.86-3.18,16.89-8.25,20.1-.3.19-18.73,8.93-19.07,9.05C319.48,493.66,326.81,488.11,320.73,484.6Z"/><path class="cls-36" d="M320.73,484.6,197.39,413.4c-13.91-8-25.19-29.58-25.19-48.13V36.82c0-9.44-7.75-11.52-3-14.91.17-.13,16.08-7.47,16.29-7.55,5.05-1.94,10.46-2.8,17,1L325.8,86.56c13.91,8,25.19,29.58,25.19,48.13V463.14c0,9.85-3.18,16.88-8.25,20.09-.31.19-18.43,8.82-18.77,8.94C319.48,493.66,326.81,488.11,320.73,484.6Z"/><path class="cls-37" d="M320.73,484.6,197.39,413.4c-13.91-8-25.19-29.58-25.19-48.13V36.82c0-9.44-7.75-11.52-3-14.91.17-.13,15.78-7.36,16-7.44,5.06-1.94,10.47-2.8,17,1L325.5,86.67c13.91,8,25.19,29.58,25.19,48.13V463.25c0,9.85-3.19,16.88-8.26,20.1-.3.19-18.12,8.7-18.46,8.82C319.48,493.66,326.81,488.11,320.73,484.6Z"/><path class="cls-38" d="M320.73,484.6,197.39,413.4c-13.91-8-25.19-29.58-25.19-48.13V36.82c0-9.44-7.75-11.52-3-14.91.17-.13,15.47-7.25,15.68-7.33,5-1.93,10.46-2.8,17,1l123.33,71.2c13.91,8,25.19,29.58,25.19,48.13V463.36c0,9.86-3.18,16.88-8.25,20.1-.3.19-17.82,8.59-18.16,8.71C319.48,493.66,326.81,488.11,320.73,484.6Z"/><path class="cls-39" d="M320.73,484.6,197.39,413.4c-13.91-8-25.19-29.58-25.19-48.13V36.82c0-9.44-7.75-11.52-3-14.91.17-.13,15.17-7.14,15.37-7.21,5.06-1.94,10.47-2.8,17,1l123.33,71.2c13.91,8,25.19,29.58,25.19,48.13V463.47c0,9.86-3.19,16.89-8.26,20.1-.3.19-17.51,8.48-17.85,8.6C319.48,493.66,326.81,488.11,320.73,484.6Z"/><path class="cls-40" d="M320.73,484.6,197.39,413.4c-13.91-8-25.19-29.58-25.19-48.13V36.82c0-9.44-7.75-11.52-3-14.91.17-.13,14.87-7,15.07-7.1,5.06-1.94,10.46-2.8,17,1L324.58,87c13.92,8,25.19,29.58,25.19,48.13V463.59c0,9.85-3.18,16.88-8.25,20.1-.3.19-17.21,8.36-17.55,8.48C319.48,493.66,326.81,488.11,320.73,484.6Z"/><path class="cls-41" d="M320.73,484.6,197.39,413.4c-13.91-8-25.19-29.58-25.19-48.13V36.82c0-9.44-7.75-11.52-3-14.91.17-.13,14.56-6.91,14.77-7,5.05-1.94,10.46-2.8,17,1L324.28,87.12c13.91,8,25.19,29.58,25.19,48.13V463.7c0,9.86-3.18,16.88-8.25,20.1-.31.19-16.91,8.25-17.25,8.37C319.48,493.66,326.81,488.11,320.73,484.6Z"/><path class="cls-42" d="M320.73,484.6,197.39,413.4c-13.91-8-25.19-29.58-25.19-48.13V36.82c0-9.44-7.75-11.52-3-14.91.17-.13,14.26-6.8,14.46-6.88,5.06-1.93,10.47-2.8,17,1L324,87.23c13.91,8,25.19,29.58,25.19,48.13V463.81c0,9.86-3.19,16.88-8.26,20.1-.3.19-16.6,8.14-16.94,8.26C319.48,493.66,326.81,488.11,320.73,484.6Z"/><path class="cls-43" d="M320.73,484.6,197.39,413.4c-13.91-8-25.19-29.58-25.19-48.13V36.82c0-9.44-7.75-11.52-3-14.91.17-.13,13.95-6.69,14.16-6.76,5.05-1.94,10.46-2.8,17,1l123.33,71.2c13.91,8,25.19,29.59,25.19,48.13V463.92c0,9.86-3.18,16.89-8.25,20.1-.3.19-16.3,8-16.64,8.15C319.48,493.66,326.81,488.11,320.73,484.6Z"/><path class="cls-44" d="M320.73,484.6,197.39,413.4c-13.91-8-25.19-29.58-25.19-48.13V36.82c0-9.44-7.75-11.52-3-14.91.17-.13,13.65-6.57,13.85-6.65,5.06-1.94,10.47-2.8,17,1L323.37,87.46c13.91,8,25.19,29.58,25.19,48.13V464c0,9.85-3.19,16.88-8.26,20.1-.3.19-16,7.91-16.33,8C319.48,493.66,326.81,488.11,320.73,484.6Z"/><path class="cls-45" d="M320.73,484.6,197.39,413.4c-13.91-8-25.19-29.58-25.19-48.13V36.82c0-9.44-7.75-11.52-3-14.91.17-.13,13.35-6.46,13.55-6.54,5.06-1.93,10.46-2.8,17,1L323.06,87.57c13.92,8,25.19,29.58,25.19,48.13V464.15c0,9.86-3.18,16.88-8.25,20.1-.3.19-15.69,7.8-16,7.92C319.48,493.66,326.81,488.11,320.73,484.6Z"/><path class="cls-46" d="M320.73,484.6,197.39,413.4c-13.91-8-25.19-29.58-25.19-48.13V36.82c0-9.44-7.75-11.52-3-14.91.17-.13,13-6.35,13.25-6.43,5-1.93,10.46-2.8,17,1l123.33,71.2c13.91,8,25.19,29.58,25.19,48.13V464.26c0,9.86-3.18,16.89-8.25,20.1-.31.19-15.39,7.69-15.73,7.81C319.48,493.66,326.81,488.11,320.73,484.6Z"/><path class="cls-47" d="M320.73,484.6,197.39,413.4c-13.91-8-25.19-29.58-25.19-48.13V36.82c0-9.44-7.75-11.52-3-14.91.17-.13,12.74-6.23,12.94-6.31,5.06-1.94,10.47-2.8,17,1L322.46,87.8c13.91,8,25.19,29.58,25.19,48.13V464.38c0,9.85-3.19,16.88-8.26,20.09-.3.19-15.08,7.58-15.42,7.7C319.48,493.66,326.81,488.11,320.73,484.6Z"/><path class="cls-48" d="M320.73,484.6,197.39,413.4c-13.91-8-25.19-29.58-25.19-48.13V36.82c0-9.44-7.75-11.52-3-14.91.17-.13,12.43-6.12,12.64-6.2,5.05-1.94,10.46-2.8,17,1L322.15,87.91c13.91,8,25.19,29.58,25.19,48.13V464.49c0,9.85-3.18,16.88-8.25,20.1-.3.19-14.78,7.46-15.12,7.58C319.48,493.66,326.81,488.11,320.73,484.6Z"/><path class="cls-49" d="M309,490.17,185.62,419c-13.91-8-25.19-29.58-25.19-48.13V42.38c0-18.55,11.28-27.07,25.19-19L309,94.55c13.91,8,25.19,29.58,25.19,48.13V471.13C334.14,489.68,322.86,498.2,309,490.17Z"/><path class="cls-50" d="M319,490.7A17.78,17.78,0,0,1,310.2,488L186.87,416.8c-13.21-7.62-24-28.24-24-46V42.38c0-11.88,5-19.57,12.7-19.57a17.75,17.75,0,0,1,8.75,2.69L307.7,96.71c13.21,7.62,23.95,28.24,23.95,46V471.13C331.65,483,326.66,490.7,319,490.7Z"/><path class="cls-27" d="M168.77,375V47.83c0-13.61,8.28-19.87,18.48-14l120.07,69.31c10.2,5.9,18.48,21.71,18.48,35.32V465.68c0,13.61-8.28,19.87-18.48,14L187.25,410.33C177.05,404.44,168.77,388.63,168.77,375Z"/><path class="cls-51" d="M188.65,37.47c-9.63-5.55-17.43-1.1-17.43,9.94V378.27c0,11,7.8,24.5,17.43,30.05L305.93,476c9.62,5.56,17.42,1.11,17.42-9.93V135.23c0-11-7.8-24.49-17.42-30Z"/><path class="cls-52" d="M343.6,250.62h0c-3.53,2-6.4-.13-6.4-4.84V219.05c0-4.72,2.87-10.2,6.4-12.24h0c3.54-2.05,6.41.12,6.41,4.84v26.73C350,243.1,347.14,248.58,343.6,250.62Z"/><g class="cls-53"><path class="cls-54" d="M137.32,30.21c-12.24-7.07-22.17-1.41-22.17,12.64V296.53c0,14,9.93,31.16,22.17,38.23l150.51,86.73c12.24,7.07,27.07.63,27.07-13.41V154.4c0-14.05-14.83-30.39-27.07-37.46Z"/><path class="cls-55" d="M137.05,30.61c-12.22-7.06-22.14-1.41-22.14,12.62V296c0,14,9.92,31.13,22.14,38.19l150.14,86.52c12.23,7.06,26.6.7,26.6-13.33V154.61c0-14-14.37-30.42-26.6-37.48Z"/><path class="cls-56" d="M136.78,31c-12.21-7-22.11-1.41-22.11,12.6V295.42c0,14,9.9,31.08,22.11,38.13l149.78,86.32c12.21,7,26.13.77,26.13-13.24V154.82c0-14-13.92-30.45-26.13-37.5Z"/><path class="cls-57" d="M136.51,31.4c-12.19-7-22.08-1.4-22.08,12.59V294.87c0,14,9.89,31,22.08,38.08l149.42,86.1c12.2,7,25.65.84,25.65-13.15V155c0-14-13.45-30.48-25.65-37.52Z"/><path class="cls-58" d="M136.25,31.8c-12.18-7-22.06-1.4-22.06,12.57V294.31c0,14,9.88,31,22.06,38L285.3,418.24c12.18,7,25.17.91,25.17-13.07V155.23c0-14-13-30.51-25.17-37.54Z"/><path class="cls-59" d="M136,32.2c-12.17-7-22-1.4-22,12.55v249c0,14,9.86,31,22,38l148.69,85.68c12.16,7,24.7,1,24.7-13v-249c0-13.95-12.54-30.54-24.7-37.56Z"/><path class="cls-60" d="M135.71,32.59c-12.15-7-22-1.4-22,12.55V293.2c0,13.95,9.85,30.93,22,37.95L284,416.62c12.15,7,24.22,1,24.22-12.9V155.65c0-13.94-12.07-30.57-24.22-37.59Z"/><path class="cls-61" d="M135.44,33c-12.13-7-22-1.4-22,12.53V292.65c0,13.92,9.84,30.89,22,37.89l148,85.26c12.13,7,23.75,1.12,23.75-12.8V155.86c0-13.92-11.62-30.6-23.75-37.61Z"/><path class="cls-62" d="M135.17,33.39c-12.11-7-21.94-1.4-21.94,12.51V292.1c0,13.9,9.83,30.85,21.94,37.84L282.78,415c12.11,7,23.27,1.19,23.27-12.72V156.07c0-13.9-11.16-30.64-23.27-37.63Z"/><path class="cls-63" d="M134.91,33.79C122.8,26.8,113,32.39,113,46.28V291.54c0,13.89,9.81,30.81,21.92,37.8l147.23,84.84c12.11,7,22.81,1.25,22.81-12.64V156.28c0-13.89-10.7-30.67-22.81-37.66Z"/><path class="cls-64" d="M134.64,34.18c-12.09-7-21.89-1.39-21.89,12.48V291c0,13.87,9.8,30.77,21.89,37.75l146.87,84.63c12.09,7,22.33,1.32,22.33-12.55V156.49c0-13.87-10.24-30.7-22.33-37.68Z"/><path class="cls-26" d="M134.37,34.58c-12.07-7-21.86-1.39-21.86,12.46v243.4c0,13.85,9.79,30.73,21.86,37.7l146.51,84.41c12.07,7,21.86,1.39,21.86-12.46V156.7c0-13.85-9.79-30.73-21.86-37.7Z"/></g><path class="cls-65" d="M302.7,155.3c0-13.9-9.82-30.84-21.93-37.84l-147-84.71c-12.11-7-21.93-1.39-21.93,12.51V253L302.7,363Z"/><path class="cls-66" d="M133.75,338.91l147,84.71c12.11,7,21.93,1.4,21.93-12.5V363L111.82,253v48.09C111.82,315,121.64,331.92,133.75,338.91Z"/><path class="cls-67" d="M280.77,117.46l-147-84.71c-12.11-7-21.93-1.39-21.93,12.51v2.12c0-13.9,9.82-19.5,21.93-12.51l147,84.72c12.11,7,21.93,23.93,21.93,37.83V155.3C302.7,141.4,292.88,124.46,280.77,117.46Z"/><ellipse class="cls-68" cx="224.87" cy="359.59" rx="22.81" ry="52.23"/><g class="cls-53"><path class="cls-69" d="M186.54,299.42c-8.27-4.77-15-.95-15,8.54v21.93c0,9.49,6.71,21.06,15,25.84l54.56,31.78c8.27,4.77,18.29.42,18.29-9.07V356.52c0-9.5-10-20.54-18.29-25.32Z"/><path class="cls-70" d="M186.09,300.09c-8.23-4.75-14.9-.95-14.9,8.5v20.87c0,9.45,6.67,21,14.9,25.71l54.07,31.5c8.23,4.75,17.92.47,17.92-9V356.82c0-9.44-9.69-20.48-17.92-25.23Z"/><path class="cls-71" d="M185.65,300.76c-8.19-4.73-14.83-.95-14.83,8.46V329c0,9.4,6.64,20.86,14.83,25.59l53.57,31.21c8.2,4.73,17.55.52,17.55-8.88V357.13c0-9.4-9.35-20.43-17.55-25.16Z"/><path class="cls-72" d="M185.21,301.43c-8.16-4.71-14.77-.94-14.77,8.41v18.77c0,9.35,6.61,20.75,14.77,25.46L238.29,385c8.15,4.7,17.17.55,17.17-8.8V357.43c0-9.35-9-20.37-17.17-25.08Z"/><path class="cls-73" d="M184.76,302.09c-8.11-4.68-14.69-.93-14.69,8.38v17.71c0,9.31,6.58,20.65,14.69,25.33l52.59,30.65c8.11,4.68,16.8.6,16.8-8.71V357.74c0-9.31-8.69-20.32-16.8-25Z"/><path class="cls-74" d="M184.32,302.76c-8.08-4.66-14.62-.93-14.62,8.33v16.66c0,9.27,6.54,20.55,14.62,25.21l52.09,30.36c8.08,4.66,16.43.65,16.43-8.62V358c0-9.26-8.35-20.26-16.43-24.92Z"/><path class="cls-75" d="M183.87,303.43c-8-4.64-14.54-.93-14.54,8.29v15.61c0,9.21,6.51,20.44,14.54,25.08l51.61,30.08c8,4.63,16.05.68,16.05-8.53V358.35c0-9.22-8-20.21-16.05-24.85Z"/><path class="cls-76" d="M183.43,304.1c-8-4.62-14.47-.92-14.47,8.24V326.9c0,9.17,6.48,20.34,14.47,25l51.11,29.79c8,4.61,15.68.73,15.68-8.44V358.65c0-9.17-7.69-20.15-15.68-24.76Z"/><path class="cls-77" d="M183,304.76c-7.95-4.59-14.39-.91-14.39,8.21v13.5c0,9.13,6.44,20.24,14.39,24.83l50.62,29.51c8,4.59,15.31.78,15.31-8.35V359c0-9.12-7.35-20.1-15.31-24.69Z"/><path class="cls-78" d="M182.54,305.43c-7.91-4.57-14.32-.91-14.32,8.17v12.45c0,9.07,6.41,20.13,14.32,24.7L232.67,380c7.91,4.56,14.92.81,14.92-8.27V359.26c0-9.07-7-20-14.92-24.6Z"/><path class="cls-79" d="M182.09,306.1c-7.87-4.55-14.25-.91-14.25,8.12v11.4c0,9,6.38,20,14.25,24.58l49.64,28.94c7.87,4.54,14.55.86,14.55-8.17v-11.4c0-9-6.68-20-14.55-24.53Z"/><path class="cls-26" d="M181.65,306.77c-7.83-4.52-14.18-.91-14.18,8.08v10.34c0,9,6.35,19.94,14.18,24.46L230.8,378.3c7.82,4.52,14.17.9,14.17-8.08V359.88c0-9-6.35-19.94-14.17-24.46Z"/></g><path class="cls-80" d="M240.29,386.83,177.48,350.3c-6.76-3.91-12.3-14.49-12.3-23.51V313.47c0-9,5.54-13.21,12.3-9.3l62.81,36.53c6.77,3.91,12.31,14.49,12.31,23.51v13.32C252.6,386.55,247.06,390.74,240.29,386.83Z"/><path class="cls-81" d="M240.29,340.7l-62.81-36.53c-6.76-3.91-12.3.28-12.3,9.3v1.38c0-9,5.54-13.21,12.3-9.3l62.81,36.53c6.77,3.91,12.31,14.49,12.31,23.51v-1.38C252.6,355.19,247.06,344.61,240.29,340.7Z"/><path class="cls-82" d="M240.29,340.7,208.06,322v46.13l32.23,18.75c6.77,3.91,12.31-.28,12.31-9.3V364.21C252.6,355.19,247.06,344.61,240.29,340.7Z"/><path class="cls-49" d="M207.33,131.45c-29.8-17.21-54.05-59-54.05-93.23s24.25-48,54.05-30.82,54,59,54,93.23S237.14,148.66,207.33,131.45Zm0-118.85C180-3.16,157.81,9.5,157.81,40.84s22.22,69.64,49.52,85.4,49.52,3.1,49.52-28.23S234.64,28.37,207.33,12.6Z"/><path class="cls-83" d="M207.33,131.45c-29.8-17.21-54.05-59-54.05-93.23s24.25-48,54.05-30.82c16.33,9.43,31.61,26.59,41.93,47.09.79,1.58.65,3.13-.32,3.48s-2.4-.65-3.19-2.22C236.29,37,222.29,21.24,207.33,12.6,180-3.16,157.81,9.5,157.81,40.84s22.22,69.64,49.52,85.4a5,5,0,0,1,2.27,3.92C209.6,131.59,208.58,132.17,207.33,131.45Z"/><path class="cls-49" d="M221,350.28l-15.28-21.17c-1.38-1.91-3.27-1.87-3.27.06v24.7c0,1.93,1.89,4.15,3.27,3.83L221,354.18C222.16,353.9,222.16,351.91,221,350.28Z"/><g class="cls-4"><path class="cls-5" d="M147.37,493.63a10.12,10.12,0,0,1-5.09-1.23l-1.78-1.64a5.39,5.39,0,0,1-2.92-4.66,6.27,6.27,0,0,1,3.52-5.29l17.53-13.21a12.62,12.62,0,0,1,6.19-1.57,10.23,10.23,0,0,1,5.09,1.23l7.18,3.2a5.38,5.38,0,0,1,2.92,4.66,6.26,6.26,0,0,1-3.52,5.28L165,486.23l-11.47,5.83A12.59,12.59,0,0,1,147.37,493.63Z"/><path class="cls-6" d="M175.8,471.24a5.19,5.19,0,0,1,2.81,4.47,6,6,0,0,1-3.37,5.09l-3.32,1.7-3.15,1.61-4.54,2.3s-11,5.56-11,5.56a11.61,11.61,0,0,1-3.73,1.29,13.54,13.54,0,0,1-2.21.18,10,10,0,0,1-4.9-1.19l-1.71-1.58a5.17,5.17,0,0,1-2.81-4.47,6,6,0,0,1,3.36-5.09l3.34-2.52,2.94-2.21s10.55-7.92,10.59-7.92A12.13,12.13,0,0,1,164,467a11.27,11.27,0,0,1,2.58.29,8.75,8.75,0,0,1,2.31.9Z"/><path class="cls-7" d="M174.5,472a5,5,0,0,1,2.71,4.29A5.77,5.77,0,0,1,174,481.2l-3.18,1.63-3,1.56s-4.33,2.2-4.37,2.2-10.53,5.3-10.6,5.28a11.31,11.31,0,0,1-3.58,1.22,13.57,13.57,0,0,1-2.12.16,9.52,9.52,0,0,1-4.69-1.16l-1.65-1.51a5,5,0,0,1-2.7-4.28,5.77,5.77,0,0,1,3.21-4.89L144.5,479l2.81-2.13c.07,0,10.1-7.55,10.18-7.54a11.67,11.67,0,0,1,5.71-1.41,11.45,11.45,0,0,1,2.47.29,8.41,8.41,0,0,1,2.22.86Z"/><path class="cls-8" d="M173.21,472.8a4.81,4.81,0,0,1,2.6,4.11,5.57,5.57,0,0,1-3.07,4.69s-3,1.55-3.05,1.56l-2.89,1.5s-4.13,2.1-4.18,2.11-10.06,5-10.16,5a11,11,0,0,1-3.44,1.14,13.53,13.53,0,0,1-2,.14,9.21,9.21,0,0,1-4.49-1.12l-1.58-1.45a4.77,4.77,0,0,1-2.6-4.09,5.52,5.52,0,0,1,3.06-4.69s3-2.29,3.07-2.31l2.7-2c.09-.05,9.64-7.18,9.76-7.18a11.4,11.4,0,0,1,7.84-1,8,8,0,0,1,2.12.84Z"/><path class="cls-9" d="M171.91,473.59a4.58,4.58,0,0,1,2.5,3.91,5.31,5.31,0,0,1-2.92,4.49s-2.87,1.48-2.91,1.51l-2.76,1.44s-3.94,2-4,2-9.6,4.76-9.73,4.73a11,11,0,0,1-3.28,1.06,13.85,13.85,0,0,1-1.94.12,8.9,8.9,0,0,1-4.28-1.09l-1.52-1.37a4.6,4.6,0,0,1-2.49-3.92,5.27,5.27,0,0,1,2.91-4.48s2.88-2.19,2.93-2.21l2.58-2c.13-.08,9.2-6.82,9.35-6.81a10.84,10.84,0,0,1,5.24-1.24,10.11,10.11,0,0,1,2.25.28,7.48,7.48,0,0,1,2,.8Z"/><path class="cls-10" d="M170.62,474.37A4.37,4.37,0,0,1,173,478.1a5,5,0,0,1-2.77,4.29s-2.71,1.41-2.77,1.44l-2.62,1.39c-.07,0-3.74,1.89-3.82,1.92s-9.13,4.5-9.3,4.45a10,10,0,0,1-3.13,1,12.52,12.52,0,0,1-1.85.1,8.65,8.65,0,0,1-4.08-1l-1.45-1.31a4.39,4.39,0,0,1-2.38-3.73,5,5,0,0,1,2.76-4.28s2.73-2.08,2.79-2.11l2.46-1.87c.16-.1,8.75-6.45,8.94-6.45a10.38,10.38,0,0,1,5-1.15,9.88,9.88,0,0,1,2.15.28,7.69,7.69,0,0,1,1.93.76Z"/><path class="cls-11" d="M169.33,475.15a4.18,4.18,0,0,1,2.27,3.54,4.8,4.8,0,0,1-2.62,4.1s-2.57,1.34-2.63,1.38l-2.49,1.32c-.08.05-3.55,1.8-3.64,1.83s-8.66,4.23-8.87,4.18a9.94,9.94,0,0,1-3,.9,12.74,12.74,0,0,1-1.75.08,8.23,8.23,0,0,1-3.88-1l-1.39-1.24a4.17,4.17,0,0,1-2.27-3.54,4.78,4.78,0,0,1,2.6-4.08c0-.05,2.59-2,2.67-2l2.33-1.78c.19-.12,8.3-6.09,8.53-6.08a10,10,0,0,1,4.76-1.07,10.15,10.15,0,0,1,2,.27,7.52,7.52,0,0,1,1.84.73Z"/><path class="cls-12" d="M168,475.93a4,4,0,0,1,2.17,3.36,4.56,4.56,0,0,1-2.47,3.89c0,.06-2.42,1.28-2.5,1.32l-2.36,1.27c-.09.05-3.34,1.7-3.45,1.73s-8.2,4-8.44,3.91a9.91,9.91,0,0,1-2.82.82,13.25,13.25,0,0,1-1.67.06,8,8,0,0,1-3.67-1l-1.32-1.18a4,4,0,0,1-2.17-3.35,4.53,4.53,0,0,1,2.45-3.88c.05-.06,2.44-1.86,2.53-1.91l2.21-1.7c.22-.13,7.85-5.71,8.12-5.71a9.55,9.55,0,0,1,4.52-1,9.26,9.26,0,0,1,1.94.27,7.26,7.26,0,0,1,1.74.69Z"/><path class="cls-13" d="M166.74,476.71a3.8,3.8,0,0,1,2.06,3.18,4.3,4.3,0,0,1-2.32,3.69c-.06.06-2.27,1.21-2.36,1.26l-2.23,1.21c-.1.06-3.15,1.59-3.27,1.63-.3.08-7.73,3.7-8,3.63a9.32,9.32,0,0,1-2.68.75,13.66,13.66,0,0,1-1.57,0,7.63,7.63,0,0,1-3.47-.94l-1.26-1.1a3.8,3.8,0,0,1-2.06-3.17,4.33,4.33,0,0,1,2.3-3.69c.06-.06,2.29-1.75,2.39-1.8l2.09-1.61c.26-.15,7.4-5.35,7.71-5.34a9.24,9.24,0,0,1,4.28-.9,8.78,8.78,0,0,1,1.83.26,7,7,0,0,1,1.65.67Z"/><path class="cls-14" d="M165.44,477.49a3.62,3.62,0,0,1,2,3,4.08,4.08,0,0,1-2.18,3.5c-.06.07-2.12,1.13-2.22,1.19l-2.09,1.15c-.12.07-2.95,1.5-3.1,1.54-.33.09-7.26,3.44-7.56,3.36a9.06,9.06,0,0,1-2.53.66,12.1,12.1,0,0,1-1.48,0A7.38,7.38,0,0,1,143,491l-1.19-1a3.58,3.58,0,0,1-1.95-3A4.06,4.06,0,0,1,142,483.5c.07-.07,2.14-1.64,2.25-1.7l2-1.52c.29-.17,7-5,7.3-5a8.68,8.68,0,0,1,4.05-.82,8.59,8.59,0,0,1,1.72.26,6.3,6.3,0,0,1,1.55.63Z"/><path class="cls-15" d="M164.15,478.27a3.41,3.41,0,0,1,1.85,2.81,3.84,3.84,0,0,1-2,3.3c-.07.07-2,1.06-2.08,1.13l-2,1.09c-.14.08-2.76,1.4-2.92,1.44-.37.11-6.79,3.17-7.13,3.08a8.74,8.74,0,0,1-2.38.59,12.71,12.71,0,0,1-1.38,0,7.1,7.1,0,0,1-3.07-.86l-1.13-1a3.39,3.39,0,0,1-1.84-2.79,3.81,3.81,0,0,1,2-3.29c.07-.08,2-1.53,2.11-1.6l1.85-1.43c.32-.19,6.5-4.62,6.89-4.61a8.45,8.45,0,0,1,3.81-.73,8.09,8.09,0,0,1,1.61.25,7.09,7.09,0,0,1,1.46.6Z"/><path class="cls-16" d="M162.85,479.06a3.19,3.19,0,0,1,1.74,2.62,3.58,3.58,0,0,1-1.87,3.09c-.08.09-1.83,1-1.95,1.07l-1.82,1c-.15.08-2.57,1.29-2.74,1.34-.41.12-6.32,2.91-6.7,2.81a8.88,8.88,0,0,1-2.22.51c-.36,0-.93,0-1.3,0a6.83,6.83,0,0,1-2.86-.82l-1.06-.91a3.18,3.18,0,0,1-1.74-2.6,3.57,3.57,0,0,1,1.84-3.09c.09-.09,1.85-1.42,2-1.5l1.72-1.34c.35-.21,6.05-4.25,6.48-4.24a7.87,7.87,0,0,1,3.57-.65,8.07,8.07,0,0,1,1.51.25,7.18,7.18,0,0,1,1.36.56Z"/><path class="cls-17" d="M161.56,479.84a3,3,0,0,1,1.63,2.43,3.34,3.34,0,0,1-1.72,2.9c-.09.09-1.68.93-1.81,1l-1.7,1c-.16.09-2.36,1.19-2.55,1.24-.45.13-5.86,2.64-6.27,2.54a8.65,8.65,0,0,1-2.07.43c-.32,0-.87,0-1.21,0a6.38,6.38,0,0,1-2.65-.79l-1-.83a3,3,0,0,1-1.63-2.42,3.31,3.31,0,0,1,1.69-2.89c.09-.1,1.7-1.31,1.85-1.4l1.6-1.25c.39-.23,5.6-3.89,6.07-3.88a7.55,7.55,0,0,1,3.33-.56,8.7,8.7,0,0,1,1.4.24,6.07,6.07,0,0,1,1.27.54Z"/><path class="cls-18" d="M160.27,480.62a2.81,2.81,0,0,1,1.52,2.25,3.1,3.1,0,0,1-1.57,2.7c-.1.09-1.53.86-1.68.94l-1.56.92c-.17.1-2.17,1.1-2.37,1.15-.49.14-5.39,2.38-5.84,2.26a7.42,7.42,0,0,1-1.92.35c-.29,0-.81-.05-1.11-.05a6.39,6.39,0,0,1-2.46-.75l-.93-.77a2.79,2.79,0,0,1-1.52-2.24,3.07,3.07,0,0,1,1.54-2.68c.1-.11,1.55-1.21,1.71-1.3l1.48-1.17c.42-.24,5.16-3.51,5.67-3.5a7,7,0,0,1,3.08-.48,7.2,7.2,0,0,1,1.29.24,6,6,0,0,1,1.18.5Z"/><path class="cls-19" d="M159,481.4a2.61,2.61,0,0,1,1.42,2.07A2.86,2.86,0,0,1,159,486c-.1.1-1.38.78-1.53.87l-1.43.87c-.19.11-2,1-2.19,1.06-.52.14-4.93,2.1-5.4,2a8,8,0,0,1-1.77.27c-.26,0-.77-.07-1-.07a6,6,0,0,1-2.25-.72l-.87-.7a2.61,2.61,0,0,1-1.41-2,2.83,2.83,0,0,1,1.39-2.48c.1-.12,1.4-1.1,1.57-1.2l1.36-1.08c.45-.26,4.71-3.15,5.26-3.13a6.27,6.27,0,0,1,2.84-.39,5.58,5.58,0,0,1,1.19.23,6.15,6.15,0,0,1,1.08.46Z"/><path class="cls-20" d="M157.68,482.18a2.44,2.44,0,0,1,1.31,1.88,2.62,2.62,0,0,1-1.28,2.3c-.11.11-1.23.72-1.4.82L155,488c-.2.11-1.78.89-2,1-.55.15-4.45,1.84-5,1.71a8.64,8.64,0,0,1-1.62.19c-.22,0-.71-.09-.93-.09a5.83,5.83,0,0,1-2.05-.68l-.81-.64a2.4,2.4,0,0,1-1.3-1.86,2.58,2.58,0,0,1,1.24-2.28c.11-.13,1.25-1,1.43-1.1l1.24-1c.48-.28,4.26-2.78,4.85-2.77a6.16,6.16,0,0,1,2.61-.3,5.79,5.79,0,0,1,1.07.22,5.91,5.91,0,0,1,1,.43Z"/><path class="cls-21" d="M156.38,483a2.23,2.23,0,0,1,1.2,1.7,2.37,2.37,0,0,1-1.12,2.1c-.12.12-1.08.65-1.26.75l-1.17.75a18.1,18.1,0,0,1-1.83.87c-.59.16-4,1.57-4.53,1.43a8.84,8.84,0,0,1-1.47.12c-.18,0-.65-.12-.84-.12a5.88,5.88,0,0,1-1.85-.64l-.73-.56a2.24,2.24,0,0,1-1.2-1.68,2.33,2.33,0,0,1,1.09-2.08,14.28,14.28,0,0,1,1.3-1l1.11-.9c.52-.3,3.81-2.42,4.44-2.4a5.54,5.54,0,0,1,2.37-.22,6,6,0,0,1,1,.22,7.24,7.24,0,0,1,.89.39Z"/><path class="cls-22" d="M155.09,483.75a2,2,0,0,1,1.09,1.51,2.12,2.12,0,0,1-1,1.9,13,13,0,0,1-1.13.69l-1,.69a17.77,17.77,0,0,1-1.65.77c-.63.18-3.52,1.31-4.1,1.16a9.52,9.52,0,0,1-1.31,0c-.15,0-.61-.13-.75-.13a5.9,5.9,0,0,1-1.65-.6l-.67-.5a2,2,0,0,1-1.09-1.49,2.09,2.09,0,0,1,.93-1.88,11.24,11.24,0,0,1,1.17-.9l1-.81c.55-.32,3.36-2.05,4-2a5.05,5.05,0,0,1,3,.08,5.89,5.89,0,0,1,.8.37Z"/><path class="cls-23" d="M153.79,484.53a1.83,1.83,0,0,1,1,1.32,1.88,1.88,0,0,1-.83,1.71,7.51,7.51,0,0,1-1,.62l-.9.64a12.23,12.23,0,0,1-1.47.67c-.67.19-3,1-3.67.89a4.52,4.52,0,0,1-1.16-.05c-.11,0-.55-.15-.66-.15a5.69,5.69,0,0,1-1.44-.57l-.61-.43a1.69,1.69,0,0,1-.2-3,8.74,8.74,0,0,1,1-.8l.87-.72c.58-.34,2.91-1.69,3.62-1.67a4.81,4.81,0,0,1,1.89-.05,4.46,4.46,0,0,1,.76.21,7.5,7.5,0,0,1,.7.33Z"/><path class="cls-24" d="M152.5,485.31a1.5,1.5,0,0,1,.2,2.64,5.69,5.69,0,0,1-.85.56l-.76.59a9.34,9.34,0,0,1-1.29.57,10.33,10.33,0,0,1-3.23.61,3.44,3.44,0,0,1-1-.12c-.07,0-.49-.17-.57-.17a7.13,7.13,0,0,1-1.23-.53l-.55-.37a1.67,1.67,0,0,1-.87-1.11,1.59,1.59,0,0,1,.63-1.48,5.37,5.37,0,0,1,.89-.69l.75-.65a10.52,10.52,0,0,1,3.21-1.3,4.57,4.57,0,0,1,1.65,0,5.52,5.52,0,0,1,.65.2c.09,0,.54.26.61.3Z"/><path class="cls-25" d="M151.21,486.09a1.52,1.52,0,0,1,.77,1,1.44,1.44,0,0,1-.53,1.31,4,4,0,0,1-.71.5l-.64.52a5.72,5.72,0,0,1-1.1.48,7.25,7.25,0,0,1-2.8.34,3.45,3.45,0,0,1-.87-.2s-.43-.19-.47-.19a9.93,9.93,0,0,1-1-.5l-.47-.29a1.51,1.51,0,0,1-.77-.93,1.39,1.39,0,0,1,.48-1.29,4.23,4.23,0,0,1,.75-.58l.63-.56a7.08,7.08,0,0,1,2.8-.93,4.13,4.13,0,0,1,1.41.12c.2.05.37.14.55.2s.48.24.51.26Z"/><path class="cls-26" d="M145.12,489.82l-1.63-.9c-1-.59-.9-1.63.29-2.31l.5-.47a4.46,4.46,0,0,1,4-.17l1.63.9c1,.59.9,1.63-.29,2.31l-.5.47A4.46,4.46,0,0,1,145.12,489.82Z"/></g><path class="cls-84" d="M131.94,406.52l-3.21,2.64-1.86,1.38-1,1s-1,1.29-1.33,1.28a1,1,0,0,1-.44-.1l.83-1.74,1.34-1.43-2,.77-1.72.18s-1.53.05-1.87-.36-.1-.69-.1-.69a.92.92,0,0,1-.29-.61c0-.32,2.19-.64,2.19-.64l1.29-.64,3.63-2.19,3.37-.71Z"/><path class="cls-85" d="M130.58,404.21a19.21,19.21,0,0,0-3.82.81,24.08,24.08,0,0,0-1.92,1.86s-1.11,1.65-.85,2,1.36-.71,1.49-1A14.2,14.2,0,0,1,127,406.4l1-.09a3,3,0,0,0,2.59-2.1Z"/><path class="cls-86" d="M129.74,404.09a8.64,8.64,0,0,0,1,1.89c.65.87,1.13.88,1.13.88s10.92-11.18,12-11.83c1.25-.75,11.11-8.2,11.11-8.2s5.59-16.36.77-13.07-15.88,17.09-15.88,17.09Z"/><path class="cls-87" d="M157,380l-15.25,13.77L130.8,406c.63.84,1.1.86,1.1.86s10.92-11.18,12-11.83c1.25-.75,11.11-8.2,11.11-8.2S156.16,383.43,157,380Z"/><path class="cls-88" d="M147.17,489.47c1.08.08,3.11-.74,3.11-1.22s-2-1.92-2.28-2a6.27,6.27,0,0,0-1.06-.2l0-2.31s-1.46-1-2.28-1.69a14.59,14.59,0,0,0-1.73-1.18,35.33,35.33,0,0,0-2.56,2.63c-.43.63.44,1.85,2.21,2.79S146.62,489.43,147.17,489.47Z"/><path class="cls-89" d="M140.14,483.62a1.83,1.83,0,0,0,.9,2.79c1.26.63,5.35,3.34,6.09,3.61s3.07-.94,3.15-1.29,0-.48,0-.48-1.73,1.18-2.71.83a17,17,0,0,1-4.33-3.34A13.78,13.78,0,0,0,140.14,483.62Z"/><path class="cls-90" d="M112.05,448.73s20.35-7.54,22-8.5,31.47-22.38,31.47-22.38l-17.93-8.26-19.15,23.73L110.9,444.14Z"/><path class="cls-87" d="M132.27,438.44l-20.68,8.44.46,1.85s20.35-7.54,22-8.5,31.47-22.38,31.47-22.38l-7.19-3.31Z"/><path class="cls-91" d="M157,411.11s-1.91.57-1.91,7.56.38,33.32.38,33.32l-13.24,29.55a21.75,21.75,0,0,0,2.55,1.89,7.93,7.93,0,0,0,2.16.86l17.57-28.52a84.07,84.07,0,0,0,7-21.59c1.24-6.86,1.88-17.91,1.88-17.91Z"/><path class="cls-88" d="M112.55,448.64a51.6,51.6,0,0,0-3.25,5c-.68,1.45-2.44,5.09-3.55,4.31s5.44-13.61,5.44-13.61Z"/><path class="cls-89" d="M111,444.14c2,.92.1,4.58-.87,6.22s-3.22,8.23-4.39,7.6a5.36,5.36,0,0,1-2-5.29c.6-2,2.84-4.28,3.41-5.35S108.67,443.06,111,444.14Z"/><path class="cls-87" d="M165.93,420,161.3,454l-16.18,29.7a8.21,8.21,0,0,0,1.77.64l17.57-28.52a84.07,84.07,0,0,0,7-21.59c1.24-6.86,1.88-17.91,1.88-17.91l-7.69-2.43Z"/><path class="cls-84" d="M202.32,351.82l3.1,1.38a30.58,30.58,0,0,1,4.37-2.87c1.26-.5,2.91-1.73,2.48-2.65a7.32,7.32,0,0,0-2.1-2,34.09,34.09,0,0,0,2.68-3.75,1,1,0,0,0-.31-1s-3.83,4.21-4.17,4.33a6.38,6.38,0,0,0-2.41,1.3A56.4,56.4,0,0,0,202.32,351.82Z"/><path class="cls-92" d="M206.35,352.81s0-.57-1.24-1.48a3.23,3.23,0,0,0-2.57-.55l-11.79,14.91-13,10.55a5.76,5.76,0,0,1-5.52.94h0c-7.27-2.49-13.87-6.16-17-2.81s-11.45,39.45-11.45,39.45a70.52,70.52,0,0,0,12.95,7.51c7.29,3.17,16.52,2.73,16.52,2.73s2.32-11.33,4.41-21.86A49.88,49.88,0,0,1,188.17,380c3.64-4.39,7-8.47,7.45-9C196.75,369.7,206.35,352.81,206.35,352.81Z"/><path class="cls-49" d="M172.26,378.43c-.47,1.48-3.39,1.87-6.52.88s-5.29-3-4.83-4.47,3.39-1.87,6.52-.88S172.73,377,172.26,378.43Z"/><path class="cls-84" d="M171.68,377.64c-.43,1.37-3,1.78-5.69.92s-4.56-2.65-4.13-4,3-1.78,5.69-.92S172.11,376.27,171.68,377.64Z"/><path class="cls-84" d="M172.39,372.49l-.71,5.15-9.82-3.1s1.3-2.17.65-3.54-7.78-7.62.66-13.58,10.6,3.52,11.53,6.22,1.22,5.47.87,6.09S172.8,372,172.39,372.49Z"/><path class="cls-93" d="M173,354c2.73,1.7-2.77,8.37-2.77,8.37s1.22,2.8,1.07,3.5-1.35-1.58-2.51-.19-.77,6.09-1.41,6.68c-.87.82-4,.25-4.78-.77-.63-.83-6.87-8-2-13.21S170.49,352.43,173,354Z"/><path class="cls-87" d="M178.45,391.76c-1.88,1.63-10.51,29.72-10.86,32.1a44.74,44.74,0,0,0,5.6.19s2.32-11.33,4.41-21.86a49.86,49.86,0,0,1,6.76-16.95C182.24,387.72,179.52,390.83,178.45,391.76Z"/><polygon class="cls-49" points="125.67 168.4 286.67 261.31 286.67 233.31 125.67 140.4 125.67 168.4"/><polygon class="cls-49" points="125.67 206.55 286.67 299.46 286.67 271.46 125.67 178.55 125.67 206.55"/><polygon class="cls-49" points="125.67 245.48 286.67 338.39 286.67 310.4 125.67 217.49 125.67 245.48"/><polygon class="cls-49" points="210.81 150.62 210.81 178.61 286.67 222.37 286.67 194.38 210.81 150.62"/><polygon class="cls-49" points="205.98 147.71 125.67 101.47 125.67 129.46 205.98 175.71 205.98 147.71"/><polygon class="cls-27" points="125.67 245.48 286.67 338.39 286.67 335.81 125.67 242.9 125.67 245.48"/><polygon class="cls-27" points="205.98 173.12 125.67 126.88 125.67 129.46 205.98 175.71 205.98 173.12"/><polygon class="cls-27" points="125.67 206.55 286.67 299.46 286.67 296.87 125.67 203.96 125.67 206.55"/><polygon class="cls-27" points="210.81 178.61 286.67 222.37 286.67 219.79 210.81 176.02 210.81 178.61"/><polygon class="cls-27" points="125.67 168.4 286.67 261.31 286.67 258.72 125.67 165.81 125.67 168.4"/><path class="cls-94" d="M69.79,150.81,65,155.27v.12l7.62,3.24v3.93L65,157.12v.12L69.84,167l-3.17.25-3-9.84-.1-.06-3.28,6.26-2.87-3.74,4.79-4.29v-.11l-7.46-3.21v-3.94l7.41,5.38v-.12l-4.74-9.79,3.07-.25,3.13,9.85.1,0,3.08-6.32Z"/><path class="cls-95" d="M90.71,162.88l-4.79,4.47v.12l7.62,3.24v3.93l-7.62-5.44v.12l4.84,9.73-3.17.25-3-9.84-.1-.06-3.28,6.26-2.87-3.74,4.79-4.29v-.12l-7.46-3.2v-3.94l7.41,5.38v-.12l-4.74-9.79,3.08-.25,3.12,9.85.1.05,3.08-6.32Z"/><path class="cls-96" d="M111.64,175l-4.79,4.47v.12l7.61,3.24v3.93l-7.61-5.44v.12l4.84,9.73-3.18.25-3-9.84-.1-.06-3.28,6.26L99.23,184l4.79-4.29v-.12l-7.46-3.2v-3.94l7.41,5.38v-.12l-4.74-9.79,3.08-.25,3.13,9.85.1,0,3.07-6.32Z"/><path class="cls-97" d="M132.56,187l-4.79,4.47v.12l7.61,3.23v3.94l-7.61-5.44v.12l4.84,9.73-3.18.25-3-9.84-.1-.06L123,199.82l-2.87-3.74,4.79-4.29v-.12l-7.47-3.21v-3.93l7.42,5.38v-.12L120.16,180l3.07-.25,3.13,9.84.1.06,3.07-6.32Z"/><path class="cls-98" d="M153.48,199.12l-4.79,4.47v.12l7.61,3.23v3.94l-7.61-5.44v.12l4.84,9.73-3.17.25-3-9.84-.1-.06L144,211.9l-2.87-3.74,4.79-4.29v-.12l-7.46-3.21v-3.93l7.41,5.38v-.12l-4.74-9.79,3.07-.25,3.13,9.84.1.06,3.08-6.32Z"/><path class="cls-99" d="M15.07,163.77l-4.79,4.46v.12l7.62,3.24v3.93l-7.62-5.43v.11l4.84,9.74-3.17.25-3-9.85-.1-.06-3.27,6.27-2.88-3.74,4.79-4.3v-.11L0,165.19v-3.94l7.41,5.38v-.11l-4.74-9.8,3.08-.25,3.12,9.85.1.06,3.08-6.33Z"/><path class="cls-100" d="M36,175.85l-4.79,4.46v.12l7.61,3.24v3.93l-7.61-5.44v.12L36.05,192l-3.18.25-3-9.85-.11-.06-3.27,6.27-2.88-3.74,4.79-4.3v-.11l-7.46-3.21v-3.94l7.41,5.38v-.11l-4.74-9.8,3.08-.25,3.12,9.85.1.06L33,172.13Z"/><path class="cls-101" d="M56.92,187.93l-4.79,4.46v.12l7.61,3.24v3.93l-7.61-5.44v.12L57,204.1l-3.18.25-3-9.85-.1-.06-3.28,6.27L44.52,197l4.79-4.3v-.11l-7.46-3.21v-3.94l7.41,5.38v-.11l-4.74-9.8,3.07-.25,3.13,9.85.1.06,3.07-6.33Z"/><path class="cls-102" d="M77.84,200l-4.79,4.46v.12l7.61,3.24v3.93l-7.61-5.44v.12l4.84,9.74-3.17.25-3-9.85-.1-.06-3.28,6.27L65.44,209l4.79-4.29v-.11l-7.46-3.21v-3.94l7.41,5.38v-.11L65.44,193l3.07-.25,3.13,9.85.1.06,3.08-6.33Z"/><path class="cls-103" d="M98.76,212.09,94,216.55v.12l7.62,3.24v3.93L94,218.4v.12l4.84,9.73-3.17.25-3-9.84-.1-.06-3.28,6.26-2.87-3.74,4.79-4.29v-.11l-7.46-3.21v-3.94L91.1,215v-.12L86.36,205l3.08-.25,3.12,9.85.1.06,3.08-6.33Z"/><ellipse class="cls-104" cx="208.6" cy="71.23" rx="31.93" ry="55.31" transform="translate(-7.44 115.01) rotate(-30.31)"/><path class="cls-105" d="M208.6,26.22c21.66,12.5,39.23,42.8,39.23,67.66s-17.57,34.88-39.23,22.37Z"/><path class="cls-49" d="M226.27,107h0a2.91,2.91,0,0,1-1.44-.43l-32.93-19A5.71,5.71,0,0,1,189.27,83v-7.1c0-3.82,2-6.28,5.09-6.28a6.8,6.8,0,0,1,1.9.29,7.77,7.77,0,0,0,5.86-.21.57.57,0,0,0,.24-.35,4,4,0,0,0-.62-2.77,38.43,38.43,0,0,1-3.36-7.56c-1.12-1.06-2.69-3.24-2.69-5.17s.79-2.88,1.71-3.19c.59-8.15,4.65-10.48,11.9-6.29,6.95,4,10.55,10.21,11,18.94A7.41,7.41,0,0,1,222,68a2.69,2.69,0,0,1-3,2.71,9.14,9.14,0,0,1-3.4,3.52.74.74,0,0,0-.29.46,3.83,3.83,0,0,0,.61,2.66A30.86,30.86,0,0,0,222.28,85c3.6,3.08,6.12,8.21,6.12,12.5v7.1a2.68,2.68,0,0,1-.54,1.72A2,2,0,0,1,226.27,107ZM194.36,71.52c-2,0-3.23,1.65-3.23,4.42V83a3.88,3.88,0,0,0,1.7,2.94l32.93,19c.58.33.61.17.65.12a.89.89,0,0,0,.13-.55v-7.1c0-3.72-2.3-8.38-5.47-11.08a33,33,0,0,1-6.76-8.09,5.57,5.57,0,0,1-.81-4.07,2.57,2.57,0,0,1,1.15-1.61,7.39,7.39,0,0,0,3-3.33l.33-.71.76.21a1.89,1.89,0,0,0,.47.06c.93,0,.93-.64.93-.85a5.34,5.34,0,0,0-1.37-3.56l-.28-.26v-.38c-.34-8.23-3.64-14-10.09-17.77a10.87,10.87,0,0,0-5.06-1.76c-.94,0-3.79,0-4.1,7.34l-.05,1.11-1.08-.24h0c-.2,0-.52.41-.52,1.42,0,1.18,1.17,3,2.26,4l.2.17.08.26a35.81,35.81,0,0,0,3.26,7.41,5.67,5.67,0,0,1,.79,4.22A2.35,2.35,0,0,1,203,71.39a9.58,9.58,0,0,1-7.26.35A4.49,4.49,0,0,0,194.36,71.52Z"/><path class="cls-49" d="M421.65,181.25c0,13.73-9.7,19.26-21.66,12.35S378.32,170,378.32,156.23,388,137,400,143.88,421.65,167.52,421.65,181.25Z"/><path class="cls-106" d="M409.71,197.35a20.43,20.43,0,0,1-10.11-3.07c-12.16-7-22.06-24.09-22.06-38.05,0-9.78,5-16.1,12.72-16.1a20.43,20.43,0,0,1,10.11,3.07c12.16,7,22.06,24.09,22.06,38.05C422.43,191,417.44,197.35,409.71,197.35Zm-19.45-55.67c-6.89,0-11.17,5.57-11.17,14.55,0,13.46,9.55,29.93,21.28,36.7a18.86,18.86,0,0,0,9.34,2.87c6.89,0,11.17-5.57,11.17-14.55,0-13.46-9.55-29.93-21.28-36.7A18.86,18.86,0,0,0,390.26,141.68Z"/><path class="cls-107" d="M408.34,177.15a19.68,19.68,0,0,1-4-4.84c-.67-1.11-.64-2.33,0-2.7a5.17,5.17,0,0,0,2.06-2.3c.71.19,1.58-.07,1.58-1a3.79,3.79,0,0,0-1-2.61c-.17-4.24-1.62-8.59-6.49-11.41s-6.32-.13-6.5,3.91c-.58-.13-1,.44-1,1.43a4.69,4.69,0,0,0,1.59,2.87,22.89,22.89,0,0,0,2.06,4.68c.65,1.13.67,2.37,0,2.71a5.28,5.28,0,0,1-4,.17c-2-.61-3.56.62-3.56,3.14v4.37a2.94,2.94,0,0,0,1.33,2.3l20.27,11.7c.74.43,1.34.09,1.34-.76V184.4A10.41,10.41,0,0,0,408.34,177.15Z"/><path class="cls-49" d="M421.65,251.82c0,13.73-9.7,19.26-21.66,12.35s-21.67-23.64-21.67-37.37S388,207.54,400,214.44,421.65,238.09,421.65,251.82Z"/><path class="cls-108" d="M409.71,267.92a20.35,20.35,0,0,1-10.11-3.08c-12.16-7-22.06-24.09-22.06-38,0-9.79,5-16.11,12.72-16.11a20.45,20.45,0,0,1,10.11,3.08c12.16,7,22.06,24.09,22.06,38C422.43,261.6,417.44,267.92,409.71,267.92Zm-19.45-55.68c-6.89,0-11.17,5.58-11.17,14.56,0,13.46,9.55,29.93,21.28,36.7a19,19,0,0,0,9.34,2.87c6.89,0,11.17-5.58,11.17-14.55,0-13.47-9.55-29.93-21.28-36.7A18.88,18.88,0,0,0,390.26,212.24Z"/><path class="cls-109" d="M391.42,245.94a24.59,24.59,0,0,1-3.61-11c0-1-.06-.7-.06-2s0-2.38.06-3.23a10.19,10.19,0,0,1,1.8-5.24,5,5,0,0,1,4.08-2,12.26,12.26,0,0,1,6.25,2c8,4.6,12.29,12.19,12.64,19.5.05,1.06.07,1.44.07,2.08,0,1,0,1.77-.07,2.41-.09,1.82-.59,3-1.49,3.46s-2,.34-3.39-.44a9,9,0,0,1-2.49-2.1,11.4,11.4,0,0,1-1.47-2.29,2.28,2.28,0,0,1-1.51.9,4.8,4.8,0,0,1-2.83-.92,10.15,10.15,0,0,1-4-4.41,14.69,14.69,0,0,1-1.48-6.69q0-3.72,1.46-5t4,.17a7.82,7.82,0,0,1,2,1.66,10.57,10.57,0,0,1,1.39,2.15v-.59c0-.28.08-.46.23-.54a.6.6,0,0,1,.58.08l1.36.78a1.7,1.7,0,0,1,.59.6,1.64,1.64,0,0,1,.22.81v8.08a5.44,5.44,0,0,0,.52,2.48,3.67,3.67,0,0,0,1.44,1.57q1.05.62,1.5,0a3.13,3.13,0,0,0,.44-1.77c0-.75.06-1.55.06-2.41,0-.39,0-.58-.06-1.54a15.67,15.67,0,0,0-2.5-7.93,20.93,20.93,0,0,0-7.2-6.76q-4.12-2.38-6.42-1.31c-1.52.71-2.42,2.42-2.69,5.15a30.11,30.11,0,0,0-.1,3,9.89,9.89,0,0,0,.1,1.79,17.73,17.73,0,0,0,2.73,8.25,18.94,18.94,0,0,0,6.65,6.15,20.39,20.39,0,0,0,3.46,1.67,6,6,0,0,0,2.05.41,9.91,9.91,0,0,0,1.54-.26l.48-.13a.66.66,0,0,1,.47.13l1.9,1.1a1.6,1.6,0,0,1,.58.6,1.69,1.69,0,0,1,.23.8.87.87,0,0,1-.2.47q-3.6,2.51-10.51-1.48A24.55,24.55,0,0,1,391.42,245.94Zm10.64-1.66a4.79,4.79,0,0,0,.7-3.1,9.65,9.65,0,0,0-.7-3.92,5.22,5.22,0,0,0-2.25-2.49q-2.91-1.68-2.91,3a9.67,9.67,0,0,0,.72,3.82,5.23,5.23,0,0,0,2.19,2.52C400.85,244.74,401.6,244.79,402.06,244.28Z"/><ellipse class="cls-49" cx="399.99" cy="312.37" rx="17.64" ry="30.55" transform="translate(-102.97 244.57) rotate(-30.31)"/><path class="cls-110" d="M409.71,341a20.45,20.45,0,0,1-10.11-3.08c-12.16-7-22.06-24.09-22.06-38.05,0-9.78,5-16.1,12.72-16.1a20.35,20.35,0,0,1,10.11,3.08c12.16,7,22.06,24.08,22.06,38C422.43,334.66,417.44,341,409.71,341Zm-19.45-55.68c-6.89,0-11.17,5.57-11.17,14.55,0,13.46,9.55,29.93,21.28,36.7a18.88,18.88,0,0,0,9.34,2.87c6.89,0,11.17-5.57,11.17-14.55,0-13.46-9.55-29.93-21.28-36.7A18.88,18.88,0,0,0,390.26,285.31Z"/><path class="cls-111" d="M409.7,305.82l-7.2,6.71v.18L414,317.57v5.92l-11.45-8.18v.18l7.28,14.63-4.77.38-4.55-14.8-.15-.09L395.38,325l-4.32-5.63,7.2-6.45v-.17L387.05,308V302l11.14,8.08V310l-7.13-14.72,4.63-.37,4.69,14.79.16.09,4.62-9.5Z"/></g></g></g></svg>