<svg xmlns="http://www.w3.org/2000/svg" xmlns:xlink="http://www.w3.org/1999/xlink" viewBox="0 0 301.54 359.26"><defs><style>.cls-1{fill:none;}.cls-2{clip-path:url(#clip-path);}.cls-3{clip-path:url(#clip-path-2);}.cls-4{fill:#009e92;}.cls-5{clip-path:url(#clip-path-3);}.cls-6,.cls-7{fill:#fff;}.cls-6{fill-rule:evenodd;}.cls-7{font-size:38.62px;font-family:Poppins-Bold, Poppins;font-weight:700;}</style><clipPath id="clip-path"><rect class="cls-1" width="301.54" height="359.26"/></clipPath><clipPath id="clip-path-2"><path class="cls-1" d="M29.07,0H272.48a29.05,29.05,0,0,1,29.06,29.07V329.63a29.05,29.05,0,0,1-29.06,29.06H29.07A29.05,29.05,0,0,1,0,329.63V29.07A29.05,29.05,0,0,1,29.07,0Z"/></clipPath><clipPath id="clip-path-3"><rect class="cls-1" x="79.91" y="130.12" width="153.25" height="158.54"/></clipPath></defs><g id="Layer_2" data-name="Layer 2"><g id="Layer_1-2" data-name="Layer 1"><g class="cls-2"><g class="cls-3"><rect class="cls-4" width="301.54" height="359.26"/></g></g><g class="cls-5"><path class="cls-6" d="M126.75,154.15A15.49,15.49,0,0,0,141,168.47,15.38,15.38,0,0,0,126.75,154.15Zm43.61-19.31A22,22,0,0,0,155.21,161,22,22,0,0,0,170.36,134.84Zm30.22,119.92a7.76,7.76,0,1,0,7.85,7.76A7.79,7.79,0,0,0,200.58,254.76Zm.09,19.77a12,12,0,0,1-2.13-23.74V188.42c0-2.68,4.25-2.68,4.25,0v62.37a12,12,0,0,1-2.12,23.74ZM190,198.68v2.4c-.18,10.26.19,20.51,0,30.68v14a2,2,0,0,1-.83,1.66c-14.14,10.81-6.75,34.1,11.55,34.1,18.48,0,25.87-23.66,11.18-34.37a2,2,0,0,1-.83-1.67V185.84a10.54,10.54,0,0,0-21.07,0Zm-9.61,75a23.29,23.29,0,0,1,5.45-28.92V233.14c-4.43-2.12-7.76-7.85-11.55-6.37-1.57.55-1.94,2.21-2,3.6l-.74,12.1c-.55,9.61-20.23,7-1.57,25.5a2.37,2.37,0,0,1,0,3c-3.05,3-3.51,6-1.29,9.24A45.84,45.84,0,0,0,180.34,273.7ZM152.53,185c-.46,5.35-.09,12.84,3,15,1.38,1,3.69.74,6.65-.83a2.09,2.09,0,0,1,2.4.28c.56.55,5.64,4.8,12.66-2,2.13-2.13,3.6,1.84,8.13,1.84A48.54,48.54,0,0,0,152.53,185ZM101.35,233.6c4.25-4.62,10.53-5,9.79,3.42-1,13.21,4.71,22.55,10.63,25.59,6.74,3.61,7.48-2.95,5.54-9.79-1.94-7,.92-12.1,8-13.12,6.83-.92,7.39-2.59,7.39-2.77.83-3.79-15.06-12.84-19.59-16-6-4.25-.28-12.85,5.91-11.55,4.72,1,9.24,8.4,12.66,5.63,3.05-2.49.46-8.68-8.87-10a2.05,2.05,0,0,1-1.75-2.49,9,9,0,0,0-5.64-10.63A49.16,49.16,0,0,0,101.35,233.6ZM125,267.79a10.49,10.49,0,0,1-5.17-1.48c-7.12-3.7-14-14.5-12.85-29.56a6.32,6.32,0,0,0-.09-2.22c-1.39.37-4.62,3.69-5.17,6.37a49.44,49.44,0,0,0,49,42.78,47.17,47.17,0,0,0,13.86-2,10.32,10.32,0,0,1,1-12.11c-18.57-19.49,1.48-22.45,1.75-27.25l.74-12.2c.47-8.68,9.34-9.88,15.06-4.15a29.91,29.91,0,0,0,2.68,2.31V203.39a11.94,11.94,0,0,1-7-1.85c-5.26,4.53-11.18,4.81-15.89,1.85-4,1.85-7.21,1.76-9.79,0-5.27-3.69-5.18-13.58-4.81-18.38a50.66,50.66,0,0,0-18.38,4.52,13,13,0,0,1,5.63,11.74c18.39,4,11.83,23.28.28,17.46-1.94-1-5.64-4.81-7.58-5.18-1.57-.37-4.89,2.41-2.68,4,1,.64,2.41,1.57,4.07,2.58,10.16,6.47,18.38,12.2,17.28,17.74-.93,4.16-6.75,5.45-10.91,6-4.34.65-6,3-4.62,7.76C134.24,261.88,131.19,267.79,125,267.79ZM95.16,182.42a1.84,1.84,0,0,1-1.48-.65l-4.53-4.43c-1.85-1.94,1.11-4.9,3-3.05l4.52,4.53A2.14,2.14,0,0,1,95.16,182.42ZM89,197.29H82.59c-2.68,0-2.68-4.15,0-4.15H89C91.65,193.14,91.65,197.29,89,197.29Zm1.66,19.41a2.14,2.14,0,0,1-1.48-3.61l4.53-4.43a2.09,2.09,0,0,1,2.95,3l-4.52,4.44A1.86,1.86,0,0,1,90.63,216.7Zm34.28-34.28a2.15,2.15,0,0,1-1.48-3.6l4.53-4.53c1.94-1.85,4.89,1.11,3,3.05l-4.43,4.43A2.18,2.18,0,0,1,124.91,182.42ZM110,176.23a2.07,2.07,0,0,1-2-2.13v-6.28a2.08,2.08,0,0,1,4.16,0v6.28A2.1,2.1,0,0,1,110,176.23Zm-4.25,28.82a54.65,54.65,0,0,1,14-14.41c-4.71-10.16-20.42-6.93-20.42,4.53A10.75,10.75,0,0,0,105.78,205.05ZM142,172.62a19.61,19.61,0,0,1-19.5-20.69,2.18,2.18,0,0,1,2-1.94,19.49,19.49,0,0,1,20.69,19.49,31.46,31.46,0,0,1,3.61,3.51c.64-5.35,1.84-8.31,2.68-9.79a26,26,0,0,1,19.86-32.89,2.13,2.13,0,0,1,2.4,1.38,26.14,26.14,0,0,1-18.66,33.64c-.74,1.38-2.5,5.72-2.4,15.52a53.08,53.08,0,0,1,33.07,13v-8a14.69,14.69,0,0,1,29.38,0v58.57c16.91,13.68,7.4,41.3-14.5,41.3a23.17,23.17,0,0,1-17.93-8.5,53.41,53.41,0,0,1-32.06,10.63c-41,0-66.24-44-47-79.09a15,15,0,0,1-8.5-13.58c0-15.62,21.06-20.6,28.18-6.84a52.17,52.17,0,0,1,25.13-7.48c-.28-3-4.07-6.65-6.1-8.23Z"/></g><text class="cls-7" transform="translate(53.22 58.68)">C</text><text class="cls-7" transform="translate(88.78 58.68)">L</text><text class="cls-7" transform="translate(113.35 58.68)">I</text><text class="cls-7" transform="translate(130.88 58.68)">M</text><text class="cls-7" transform="translate(172.47 58.68)">A</text><text class="cls-7" transform="translate(207.07 58.68)">T</text><text class="cls-7" transform="translate(236.04 58.68)">E</text><text class="cls-7" transform="translate(56.98 98.19)">C</text><text class="cls-7" transform="translate(92.55 98.19)">H</text><text class="cls-7" transform="translate(126.92 98.19)">A</text><text class="cls-7" transform="translate(161.52 98.19)">N</text><text class="cls-7" transform="translate(196.7 98.19)">G</text><text class="cls-7" transform="translate(232.27 98.19)">E</text></g></g></svg>