<svg xmlns="http://www.w3.org/2000/svg" xmlns:xlink="http://www.w3.org/1999/xlink" viewBox="0 0 298.59 392.07"><defs><style>.cls-1,.cls-10,.cls-13,.cls-14,.cls-15,.cls-25,.cls-3,.cls-7{mix-blend-mode:multiply;}.cls-1{fill:url(#radial-gradient);}.cls-2{fill:url(#radial-gradient-2);}.cls-3{fill:url(#radial-gradient-3);}.cls-105,.cls-4{fill:none;}.cls-5{isolation:isolate;}.cls-6{fill:url(#linear-gradient);}.cls-7{fill:#9d0000;}.cls-12,.cls-20,.cls-21,.cls-24,.cls-7{opacity:0.75;}.cls-8{fill:url(#linear-gradient-2);}.cls-9{fill:url(#linear-gradient-3);}.cls-10{fill:#771a1f;opacity:0.5;}.cls-11{fill:url(#radial-gradient-4);}.cls-102,.cls-12,.cls-20{mix-blend-mode:overlay;}.cls-12{fill:url(#radial-gradient-6);}.cls-102,.cls-13,.cls-14,.cls-15{opacity:0.55;}.cls-13{fill:url(#linear-gradient-4);}.cls-14{fill:url(#linear-gradient-5);}.cls-15{fill:url(#radial-gradient-7);}.cls-16{fill:url(#linear-gradient-6);}.cls-17{fill:url(#linear-gradient-7);}.cls-18{clip-path:url(#clip-path);}.cls-19{fill:url(#radial-gradient-8);}.cls-20{fill:url(#radial-gradient-9);}.cls-21,.cls-22,.cls-71,.cls-73,.cls-75,.cls-89{mix-blend-mode:screen;}.cls-21{fill:url(#linear-gradient-8);}.cls-22,.cls-89{opacity:0.32;}.cls-22{fill:url(#linear-gradient-9);}.cls-23{fill:url(#linear-gradient-10);}.cls-25{opacity:0.85;}.cls-26{fill:url(#linear-gradient-11);}.cls-27{fill:url(#linear-gradient-12);}.cls-28{fill:url(#linear-gradient-13);}.cls-29{fill:url(#linear-gradient-14);}.cls-30{fill:url(#linear-gradient-15);}.cls-31{fill:url(#linear-gradient-16);}.cls-32{fill:url(#linear-gradient-17);}.cls-33{fill:url(#linear-gradient-18);}.cls-34{fill:url(#linear-gradient-19);}.cls-35{fill:url(#linear-gradient-20);}.cls-36{fill:url(#linear-gradient-21);}.cls-37{fill:url(#linear-gradient-22);}.cls-38{fill:url(#linear-gradient-23);}.cls-39{fill:url(#linear-gradient-24);}.cls-40{fill:url(#linear-gradient-25);}.cls-41{fill:url(#linear-gradient-26);}.cls-42{fill:url(#linear-gradient-27);}.cls-43{fill:url(#linear-gradient-28);}.cls-44{fill:url(#linear-gradient-29);}.cls-45{fill:url(#linear-gradient-30);}.cls-46{fill:url(#linear-gradient-31);}.cls-47{fill:url(#linear-gradient-32);}.cls-48{fill:url(#linear-gradient-33);}.cls-49{fill:url(#linear-gradient-34);}.cls-50{fill:url(#linear-gradient-35);}.cls-51{fill:url(#linear-gradient-36);}.cls-52{fill:url(#linear-gradient-37);}.cls-53{fill:url(#linear-gradient-38);}.cls-54{fill:url(#linear-gradient-39);}.cls-55{fill:url(#linear-gradient-40);}.cls-56{fill:url(#linear-gradient-41);}.cls-57{fill:url(#linear-gradient-42);}.cls-58{fill:url(#linear-gradient-43);}.cls-59{fill:url(#linear-gradient-44);}.cls-60{fill:url(#linear-gradient-45);}.cls-61{fill:url(#linear-gradient-46);}.cls-62{fill:url(#linear-gradient-47);}.cls-63{fill:url(#linear-gradient-48);}.cls-64{fill:url(#linear-gradient-49);}.cls-65{fill:url(#linear-gradient-50);}.cls-66{fill:url(#linear-gradient-51);}.cls-67{fill:url(#linear-gradient-52);}.cls-68{fill:url(#linear-gradient-53);}.cls-69{fill:url(#linear-gradient-97);}.cls-70{mask:url(#mask);}.cls-71{fill:url(#radial-gradient-10);}.cls-72{mask:url(#mask-2);}.cls-73{fill:url(#radial-gradient-11);}.cls-74{mask:url(#mask-3);}.cls-75{fill:url(#radial-gradient-12);}.cls-76{fill:url(#linear-gradient-98);}.cls-77{fill:url(#linear-gradient-99);}.cls-78{fill:url(#linear-gradient-100);}.cls-79{fill:url(#linear-gradient-101);}.cls-80{fill:url(#linear-gradient-102);}.cls-81{fill:url(#linear-gradient-103);}.cls-82{fill:url(#linear-gradient-104);}.cls-83{fill:url(#linear-gradient-105);}.cls-84{fill:url(#linear-gradient-106);}.cls-85{fill:url(#linear-gradient-107);}.cls-86{fill:url(#linear-gradient-108);}.cls-87{fill:url(#linear-gradient-109);}.cls-88{fill:url(#linear-gradient-110);}.cls-89{fill:url(#linear-gradient-111);}.cls-90{fill:url(#linear-gradient-113);}.cls-91{fill:url(#linear-gradient-114);}.cls-92{fill:url(#linear-gradient-115);}.cls-93{fill:url(#linear-gradient-116);}.cls-94{fill:url(#linear-gradient-117);}.cls-95{fill:url(#linear-gradient-118);}.cls-96{fill:url(#linear-gradient-120);}.cls-97{fill:url(#linear-gradient-121);}.cls-98{fill:url(#linear-gradient-122);}.cls-99{fill:url(#linear-gradient-123);}.cls-100{fill:url(#linear-gradient-124);}.cls-101{fill:url(#linear-gradient-125);}.cls-102{fill:url(#radial-gradient-13);}.cls-103{font-size:36.73px;fill:#fbdb62;font-family:Poppins-Medium, Poppins;font-weight:500;}.cls-104{font-size:25.71px;fill:#fff;font-family:Poppins-Light, Poppins;font-weight:300;}.cls-105{stroke:#efefef;stroke-miterlimit:10;stroke-width:0.92px;}</style><radialGradient id="radial-gradient" cx="-10255.52" cy="-1811.95" r="36.5" gradientTransform="matrix(0.15, -0.28, 0.61, 0.32, 2768.43, -2168.21)" gradientUnits="userSpaceOnUse"><stop offset="0" stop-color="#fff"/><stop offset="0.14" stop-color="#e2e2e2"/><stop offset="0.43" stop-color="#999"/><stop offset="0.87" stop-color="#262626"/><stop offset="1"/></radialGradient><radialGradient id="radial-gradient-2" cx="3658.39" cy="2735.69" r="16.56" gradientTransform="matrix(0.44, 0.23, -0.25, 0.5, -770.43, -2046.27)" gradientUnits="userSpaceOnUse"><stop offset="0" stop-color="#fff"/><stop offset="0.21" stop-color="#c4c4c4"/><stop offset="0.6" stop-color="#5c5c5c"/><stop offset="0.87" stop-color="#1a1a1a"/><stop offset="1"/></radialGradient><radialGradient id="radial-gradient-3" cx="-10275.23" cy="-1184.47" r="23.84" gradientTransform="matrix(0.17, -0.27, 0.5, 0.31, 2438.79, -2212.64)" xlink:href="#radial-gradient"/><linearGradient id="linear-gradient" x1="110.38" y1="61.26" x2="176.53" y2="61.26" gradientUnits="userSpaceOnUse"><stop offset="0" stop-color="#9d0000"/><stop offset="0.5" stop-color="#be0000"/><stop offset="1" stop-color="#9d0000"/></linearGradient><linearGradient id="linear-gradient-2" x1="187.8" y1="56.77" x2="142.15" y2="131" gradientUnits="userSpaceOnUse"><stop offset="0" stop-color="#db1a1f"/><stop offset="0.67" stop-color="#df1f24"/><stop offset="0.71" stop-color="#df1f24"/><stop offset="0.73" stop-color="#d81c21"/><stop offset="0.82" stop-color="#c41318"/><stop offset="0.91" stop-color="#b70d12"/><stop offset="1" stop-color="#b30b10"/></linearGradient><linearGradient id="linear-gradient-3" x1="570.61" y1="56.43" x2="614.04" y2="131.32" gradientTransform="matrix(-1, 0, 0, 1, 758.62, 0)" gradientUnits="userSpaceOnUse"><stop offset="0" stop-color="#f0e8e5"/><stop offset="0.58" stop-color="#efe6e3"/><stop offset="0.82" stop-color="#ebe0dc"/><stop offset="0.99" stop-color="#e3d6d0"/><stop offset="1" stop-color="#e3d5cf"/></linearGradient><radialGradient id="radial-gradient-4" cx="-357.26" cy="4081.64" r="36.54" gradientTransform="translate(321.04 -1910.29) scale(0.5)" gradientUnits="userSpaceOnUse"><stop offset="0.01" stop-color="#f6c054"/><stop offset="0.54" stop-color="#ffea72"/><stop offset="0.58" stop-color="#fff071"/><stop offset="0.59" stop-color="#fff171"/><stop offset="0.82" stop-color="#ffe05a"/><stop offset="0.96" stop-color="#ffd44a"/></radialGradient><radialGradient id="radial-gradient-6" cx="-320.03" cy="4066.1" r="53.74" gradientTransform="translate(321.04 -1910.29) scale(0.5)" gradientUnits="userSpaceOnUse"><stop offset="0" stop-color="#ffffc3"/><stop offset="0.95" stop-color="#ffea72"/></radialGradient><linearGradient id="linear-gradient-4" x1="119.67" y1="137.8" x2="165.14" y2="137.8" gradientUnits="userSpaceOnUse"><stop offset="0" stop-color="#aa7238"/><stop offset="0.25" stop-color="#c08443"/><stop offset="0.35" stop-color="#be8242"/><stop offset="0.39" stop-color="#b87b3d"/><stop offset="0.42" stop-color="#ad7036"/><stop offset="0.44" stop-color="#9d5f2b"/><stop offset="0.46" stop-color="#88491d"/><stop offset="0.47" stop-color="#7a3a14"/><stop offset="0.64" stop-color="#7c3c15"/><stop offset="0.72" stop-color="#83441a"/><stop offset="0.79" stop-color="#8e5123"/><stop offset="0.85" stop-color="#9e642f"/><stop offset="0.9" stop-color="#b37c3e"/><stop offset="0.95" stop-color="#cd9b52"/><stop offset="0.99" stop-color="#ebbe68"/><stop offset="1" stop-color="#f0c46c"/></linearGradient><linearGradient id="linear-gradient-5" x1="119.67" y1="137.6" x2="165.14" y2="137.6" xlink:href="#linear-gradient-4"/><radialGradient id="radial-gradient-7" cx="-357.26" cy="4086.04" r="29.42" gradientTransform="translate(321.04 -1910.29) scale(0.5)" gradientUnits="userSpaceOnUse"><stop offset="0.34" stop-color="#ffea72"/><stop offset="0.99" stop-color="#b35c00"/></radialGradient><linearGradient id="linear-gradient-6" x1="98.62" y1="56.01" x2="142.93" y2="131.34" xlink:href="#linear-gradient-2"/><linearGradient id="linear-gradient-7" x1="99.03" y1="56.43" x2="142.46" y2="131.32" gradientTransform="matrix(1, 0, 0, 1, 0, 0)" xlink:href="#linear-gradient-3"/><clipPath id="clip-path"><circle class="cls-4" cx="142.54" cy="168.89" r="37.56"/></clipPath><radialGradient id="radial-gradient-8" cx="-409.25" cy="4210.57" r="145.89" gradientTransform="translate(321.04 -1910.29) scale(0.5)" gradientUnits="userSpaceOnUse"><stop offset="0.01" stop-color="#f6c054"/><stop offset="0.3" stop-color="#f2a942"/><stop offset="0.54" stop-color="#ffea72"/><stop offset="0.58" stop-color="#fff071"/><stop offset="0.59" stop-color="#fff171"/><stop offset="0.76" stop-color="#fada61"/><stop offset="0.96" stop-color="#f3b94a"/></radialGradient><radialGradient id="radial-gradient-9" cx="-409.25" cy="4210.57" r="145.89" xlink:href="#radial-gradient-6"/><linearGradient id="linear-gradient-8" x1="165.43" y1="150.4" x2="119.58" y2="187.44" gradientTransform="translate(75.95 -41.84) rotate(22.63)" gradientUnits="userSpaceOnUse"><stop offset="0.48" stop-color="#cc9434"/><stop offset="0.68" stop-color="#ffea72"/><stop offset="0.76" stop-color="#ffe76c"/><stop offset="0.87" stop-color="#ffde5c"/><stop offset="0.96" stop-color="#ffd44a"/></linearGradient><linearGradient id="linear-gradient-9" x1="128.99" y1="141.68" x2="156.02" y2="195.97" xlink:href="#linear-gradient-8"/><linearGradient id="linear-gradient-10" x1="161.38" y1="152.24" x2="121.27" y2="187.69" gradientTransform="matrix(1, 0, 0, 1, 0, 0)" xlink:href="#radial-gradient-4"/><linearGradient id="linear-gradient-11" x1="165.19" y1="171.48" x2="166.93" y2="171.48" gradientUnits="userSpaceOnUse"><stop offset="0" stop-color="#f3ce5e"/><stop offset="1" stop-color="#f2be4a"/></linearGradient><linearGradient id="linear-gradient-12" x1="164.56" y1="174.88" x2="166.29" y2="174.88" xlink:href="#linear-gradient-11"/><linearGradient id="linear-gradient-13" x1="163.45" y1="178.15" x2="165.19" y2="178.15" xlink:href="#linear-gradient-11"/><linearGradient id="linear-gradient-14" x1="161.87" y1="181.22" x2="163.6" y2="181.22" xlink:href="#linear-gradient-11"/><linearGradient id="linear-gradient-15" x1="159.86" y1="184.03" x2="161.59" y2="184.03" xlink:href="#linear-gradient-11"/><linearGradient id="linear-gradient-16" x1="157.47" y1="186.51" x2="159.19" y2="186.51" xlink:href="#linear-gradient-11"/><linearGradient id="linear-gradient-17" x1="154.73" y1="188.63" x2="156.46" y2="188.63" xlink:href="#linear-gradient-11"/><linearGradient id="linear-gradient-18" x1="151.73" y1="190.31" x2="153.45" y2="190.31" xlink:href="#linear-gradient-11"/><linearGradient id="linear-gradient-19" x1="148.49" y1="191.56" x2="150.22" y2="191.56" xlink:href="#linear-gradient-11"/><linearGradient id="linear-gradient-20" x1="145.12" y1="192.29" x2="146.85" y2="192.29" xlink:href="#linear-gradient-11"/><linearGradient id="linear-gradient-21" x1="141.68" y1="192.56" x2="143.4" y2="192.56" xlink:href="#linear-gradient-11"/><linearGradient id="linear-gradient-22" x1="138.23" y1="192.29" x2="139.96" y2="192.29" xlink:href="#linear-gradient-11"/><linearGradient id="linear-gradient-23" x1="134.86" y1="191.56" x2="136.59" y2="191.56" xlink:href="#linear-gradient-11"/><linearGradient id="linear-gradient-24" x1="131.63" y1="190.31" x2="133.35" y2="190.31" xlink:href="#linear-gradient-11"/><linearGradient id="linear-gradient-25" x1="128.62" y1="188.63" x2="130.35" y2="188.63" xlink:href="#linear-gradient-11"/><linearGradient id="linear-gradient-26" x1="125.89" y1="186.51" x2="127.61" y2="186.51" xlink:href="#linear-gradient-11"/><linearGradient id="linear-gradient-27" x1="123.49" y1="184.03" x2="125.22" y2="184.03" xlink:href="#linear-gradient-11"/><linearGradient id="linear-gradient-28" x1="121.48" y1="181.22" x2="123.21" y2="181.22" xlink:href="#linear-gradient-11"/><linearGradient id="linear-gradient-29" x1="119.89" y1="178.15" x2="121.63" y2="178.15" xlink:href="#linear-gradient-11"/><linearGradient id="linear-gradient-30" x1="118.79" y1="174.88" x2="120.52" y2="174.88" xlink:href="#linear-gradient-11"/><linearGradient id="linear-gradient-31" x1="118.15" y1="171.48" x2="119.89" y2="171.48" xlink:href="#linear-gradient-11"/><linearGradient id="linear-gradient-32" x1="118.05" y1="168.03" x2="119.78" y2="168.03" xlink:href="#linear-gradient-11"/><linearGradient id="linear-gradient-33" x1="118.41" y1="164.59" x2="120.13" y2="164.59" xlink:href="#linear-gradient-11"/><linearGradient id="linear-gradient-34" x1="119.27" y1="161.25" x2="121.02" y2="161.25" xlink:href="#linear-gradient-11"/><linearGradient id="linear-gradient-35" x1="120.64" y1="158.07" x2="122.35" y2="158.07" xlink:href="#linear-gradient-11"/><linearGradient id="linear-gradient-36" x1="122.42" y1="155.12" x2="124.17" y2="155.12" xlink:href="#linear-gradient-11"/><linearGradient id="linear-gradient-37" x1="124.65" y1="152.47" x2="126.36" y2="152.47" xlink:href="#linear-gradient-11"/><linearGradient id="linear-gradient-38" x1="127.2" y1="150.17" x2="128.95" y2="150.17" xlink:href="#linear-gradient-11"/><linearGradient id="linear-gradient-39" x1="130.1" y1="148.26" x2="131.82" y2="148.26" xlink:href="#linear-gradient-11"/><linearGradient id="linear-gradient-40" x1="133.21" y1="146.8" x2="134.95" y2="146.8" xlink:href="#linear-gradient-11"/><linearGradient id="linear-gradient-41" x1="136.53" y1="145.8" x2="138.26" y2="145.8" xlink:href="#linear-gradient-11"/><linearGradient id="linear-gradient-42" x1="139.95" y1="145.31" x2="141.68" y2="145.31" xlink:href="#linear-gradient-11"/><linearGradient id="linear-gradient-43" x1="143.4" y1="145.31" x2="145.13" y2="145.31" xlink:href="#linear-gradient-11"/><linearGradient id="linear-gradient-44" x1="146.82" y1="145.8" x2="148.55" y2="145.8" xlink:href="#linear-gradient-11"/><linearGradient id="linear-gradient-45" x1="150.13" y1="146.8" x2="151.87" y2="146.8" xlink:href="#linear-gradient-11"/><linearGradient id="linear-gradient-46" x1="153.26" y1="148.26" x2="154.98" y2="148.26" xlink:href="#linear-gradient-11"/><linearGradient id="linear-gradient-47" x1="156.13" y1="150.17" x2="157.88" y2="150.17" xlink:href="#linear-gradient-11"/><linearGradient id="linear-gradient-48" x1="158.72" y1="152.47" x2="160.43" y2="152.47" xlink:href="#linear-gradient-11"/><linearGradient id="linear-gradient-49" x1="160.91" y1="155.12" x2="162.66" y2="155.12" xlink:href="#linear-gradient-11"/><linearGradient id="linear-gradient-50" x1="162.73" y1="158.07" x2="164.44" y2="158.07" xlink:href="#linear-gradient-11"/><linearGradient id="linear-gradient-51" x1="164.06" y1="161.25" x2="165.81" y2="161.25" xlink:href="#linear-gradient-11"/><linearGradient id="linear-gradient-52" x1="164.95" y1="164.59" x2="166.67" y2="164.59" xlink:href="#linear-gradient-11"/><linearGradient id="linear-gradient-53" x1="165.3" y1="168.03" x2="167.03" y2="168.03" xlink:href="#linear-gradient-11"/><linearGradient id="linear-gradient-97" x1="162.1" y1="149.5" x2="124.1" y2="187.17" xlink:href="#linear-gradient-4"/><mask id="mask" x="136.78" y="129.8" width="45.8" height="30.99" maskUnits="userSpaceOnUse"><path class="cls-1" d="M165,135c12.3,6.4,19.87,16.19,16.91,21.87s-15.32,5.09-27.61-1.31-19.87-16.19-16.91-21.87S152.74,128.62,165,135Z"/></mask><radialGradient id="radial-gradient-10" cx="-10255.52" cy="-1811.95" r="36.5" gradientTransform="matrix(0.15, -0.28, 0.61, 0.32, 2768.43, -2168.21)" gradientUnits="userSpaceOnUse"><stop offset="0" stop-color="#ecce88"/><stop offset="1"/></radialGradient><mask id="mask-2" x="150.98" y="136.56" width="17.41" height="17.47" maskUnits="userSpaceOnUse"><path class="cls-2" d="M167.41,149.27a8.69,8.69,0,1,1-3.73-11.75A8.72,8.72,0,0,1,167.41,149.27Z"/></mask><radialGradient id="radial-gradient-11" cx="3658.39" cy="2735.69" r="16.56" gradientTransform="matrix(0.44, 0.23, -0.25, 0.5, -770.43, -2046.27)" gradientUnits="userSpaceOnUse"><stop offset="0" stop-color="#ffa177"/><stop offset="0.13" stop-color="#e5916b"/><stop offset="0.4" stop-color="#a3674c"/><stop offset="0.79" stop-color="#3b251c"/><stop offset="1"/></radialGradient><mask id="mask-3" x="110.7" y="180.83" width="25.23" height="19.65" maskUnits="userSpaceOnUse"><path class="cls-3" d="M127.31,184.22c6.61,4.1,10.18,10.31,8,13.86s-9.35,3.11-16-1-10.17-10.31-8-13.86S120.7,180.12,127.31,184.22Z"/></mask><radialGradient id="radial-gradient-12" cx="-10275.23" cy="-1184.47" r="23.84" gradientTransform="matrix(0.17, -0.27, 0.5, 0.31, 2438.79, -2212.64)" gradientUnits="userSpaceOnUse"><stop offset="0" stop-color="#ecc29a"/><stop offset="1"/></radialGradient><linearGradient id="linear-gradient-98" x1="340.2" y1="293.13" x2="364.01" y2="272.89" gradientTransform="translate(-209.62 -112.33) rotate(-0.47)" xlink:href="#radial-gradient-8"/><linearGradient id="linear-gradient-99" x1="343.66" y1="289.13" x2="363.37" y2="275.69" gradientTransform="translate(-209.62 -112.33) rotate(-0.47)" gradientUnits="userSpaceOnUse"><stop offset="0" stop-color="#aa7238"/><stop offset="0.55" stop-color="#c08443"/><stop offset="0.77" stop-color="#c18644"/><stop offset="0.85" stop-color="#c68d49"/><stop offset="0.91" stop-color="#cf9850"/><stop offset="0.95" stop-color="#dca95b"/><stop offset="0.99" stop-color="#ecbf69"/><stop offset="1" stop-color="#f0c46c"/></linearGradient><linearGradient id="linear-gradient-100" x1="339.29" y1="279.37" x2="345.54" y2="275.11" gradientTransform="translate(-209.62 -112.33) rotate(-0.47)" gradientUnits="userSpaceOnUse"><stop offset="0" stop-color="#b17a3d"/><stop offset="0.48" stop-color="#f0c46c"/><stop offset="0.62" stop-color="#e1b261"/><stop offset="0.89" stop-color="#ba8544"/><stop offset="1" stop-color="#aa7238"/></linearGradient><linearGradient id="linear-gradient-101" x1="356.61" y1="275.99" x2="363.58" y2="279.68" gradientTransform="translate(-209.62 -112.33) rotate(-0.47)" gradientUnits="userSpaceOnUse"><stop offset="0" stop-color="#f0c46c"/><stop offset="0.34" stop-color="#eec26a"/><stop offset="0.53" stop-color="#e7b965"/><stop offset="0.69" stop-color="#dbab5c"/><stop offset="0.83" stop-color="#ca9850"/><stop offset="0.95" stop-color="#b57e40"/><stop offset="1" stop-color="#aa7238"/></linearGradient><linearGradient id="linear-gradient-102" x1="349.39" y1="269.57" x2="353.22" y2="277.28" gradientTransform="translate(-209.62 -112.33) rotate(-0.47)" gradientUnits="userSpaceOnUse"><stop offset="0" stop-color="#f0c46c"/><stop offset="0.27" stop-color="#e1b261"/><stop offset="0.8" stop-color="#ba8544"/><stop offset="1" stop-color="#aa7238"/></linearGradient><linearGradient id="linear-gradient-103" x1="1255.71" y1="270.37" x2="1259.54" y2="278.08" gradientTransform="matrix(-1, 0.01, 0.01, 1, 1398.24, -126.31)" xlink:href="#linear-gradient-100"/><linearGradient id="linear-gradient-104" x1="-2164.94" y1="-6982.86" x2="-2160.99" y2="-6974.92" gradientTransform="matrix(0.78, -0.62, -0.62, -0.78, -2519.62, -6626.64)" xlink:href="#linear-gradient-102"/><linearGradient id="linear-gradient-105" x1="-1440.06" y1="-7552.72" x2="-1436.11" y2="-7544.78" gradientTransform="translate(3616.81 -6676.62) rotate(-142.29)" xlink:href="#linear-gradient-102"/><linearGradient id="linear-gradient-106" x1="1294.41" y1="285.35" x2="1300.5" y2="279.07" gradientTransform="matrix(-1, 0.01, 0.01, 1, 1428.37, -126.56)" xlink:href="#linear-gradient-100"/><linearGradient id="linear-gradient-107" x1="435.06" y1="284.55" x2="441.14" y2="278.27" gradientTransform="translate(-286.72 -111.69) rotate(-0.47)" xlink:href="#linear-gradient-100"/><linearGradient id="linear-gradient-108" x1="4717.29" y1="-2244.02" x2="4723.49" y2="-2250.42" gradientTransform="translate(-3425.4 -3639) rotate(72.34)" xlink:href="#linear-gradient-100"/><linearGradient id="linear-gradient-109" x1="4985.97" y1="-3119.55" x2="4992.17" y2="-3125.95" gradientTransform="matrix(-0.29, 0.96, 0.96, 0.29, 4565.52, -3703.26)" xlink:href="#linear-gradient-100"/><linearGradient id="linear-gradient-110" x1="341.3" y1="291.9" x2="362.63" y2="273.78" gradientTransform="translate(-209.62 -112.33) rotate(-0.47)" xlink:href="#radial-gradient-8"/><linearGradient id="linear-gradient-111" x1="344.28" y1="288.25" x2="359.89" y2="277.83" gradientTransform="translate(-209.62 -112.33) rotate(-0.47)" xlink:href="#linear-gradient-8"/><linearGradient id="linear-gradient-113" x1="344.76" y1="290.55" x2="357.46" y2="273.97" gradientTransform="translate(-209.62 -112.33) rotate(-0.47)" xlink:href="#radial-gradient-8"/><linearGradient id="linear-gradient-114" x1="348.49" y1="279.15" x2="353.88" y2="272.11" gradientTransform="translate(-209.62 -112.33) rotate(-0.47)" xlink:href="#radial-gradient-8"/><linearGradient id="linear-gradient-115" x1="348.48" y1="279.14" x2="353.87" y2="272.11" gradientTransform="translate(-209.62 -112.33) rotate(-0.47)" gradientUnits="userSpaceOnUse"><stop offset="0.3" stop-color="#dd8931"/><stop offset="1" stop-color="#ffea72"/></linearGradient><linearGradient id="linear-gradient-116" x1="-3144.75" y1="-2806.18" x2="-3139.37" y2="-2813.2" gradientTransform="translate(3762.87 -1985.22) rotate(-72.47)" xlink:href="#radial-gradient-8"/><linearGradient id="linear-gradient-117" x1="-3144.75" y1="-2806.18" x2="-3139.37" y2="-2813.2" gradientTransform="translate(3762.87 -1985.22) rotate(-72.47)" xlink:href="#linear-gradient-115"/><linearGradient id="linear-gradient-118" x1="350.76" y1="289.47" x2="346.85" y2="287.27" xlink:href="#linear-gradient-115"/><linearGradient id="linear-gradient-120" x1="-1303.89" y1="-7076.34" x2="-1298.32" y2="-7083.62" gradientTransform="matrix(-0.81, -0.58, 0.58, -0.81, 3194.42, -6346.03)" xlink:href="#linear-gradient-115"/><linearGradient id="linear-gradient-121" x1="3314.29" y1="-6640.93" x2="3319.99" y2="-6648.38" gradientTransform="translate(-1134.77 -7142.47) rotate(143.53)" xlink:href="#radial-gradient-8"/><linearGradient id="linear-gradient-122" x1="354.48" y1="284.98" x2="354.39" y2="291.04" xlink:href="#linear-gradient-115"/><linearGradient id="linear-gradient-123" x1="-2917.68" y1="-2107.8" x2="-2912.3" y2="-2114.83" gradientTransform="matrix(-0.32, -0.95, -0.95, 0.32, -2776.59, -1931.13)" xlink:href="#linear-gradient-115"/><linearGradient id="linear-gradient-124" x1="356.64" y1="281.3" x2="357.03" y2="276.95" gradientTransform="translate(-209.62 -112.33) rotate(-0.47)" xlink:href="#radial-gradient-8"/><linearGradient id="linear-gradient-125" x1="-2057.66" y1="-903.54" x2="-2167.27" y2="-903.54" gradientTransform="matrix(-0.63, -0.77, -0.77, 0.63, -1897.3, -899.97)" gradientUnits="userSpaceOnUse"><stop offset="0.54" stop-color="#ffea72"/><stop offset="0.81" stop-color="#fff071"/><stop offset="0.85" stop-color="#fff171"/></linearGradient><radialGradient id="radial-gradient-13" cx="-354.01" cy="4041.6" r="137.23" gradientTransform="translate(321.04 -1910.29) scale(0.5)" gradientUnits="userSpaceOnUse"><stop offset="0" stop-color="#ececbb"/><stop offset="1" stop-color="#784f58"/></radialGradient></defs><g class="cls-5"><g id="Layer_2" data-name="Layer 2"><g id="Layer_1-2" data-name="Layer 1"><polygon class="cls-6" points="176.53 48.85 110.38 48.85 114.9 73.66 176.53 73.66 176.53 48.85"/><polygon class="cls-7" points="118.41 48.85 110.38 48.85 114.9 73.66 131.7 73.66 118.41 48.85"/><polygon class="cls-7" points="168.5 48.85 176.53 48.85 172.01 73.66 155.21 73.66 168.5 48.85"/><polygon class="cls-8" points="176.55 48.85 129.91 130.88 156.97 130.88 200.06 63.03 176.55 48.85"/><polygon class="cls-9" points="195.45 60.15 151.05 130.88 135.52 130.88 181.23 51.58 195.45 60.15"/><polygon class="cls-10" points="147.52 99.9 129.91 130.88 156.97 130.88 162.42 122.29 147.52 99.9"/><path class="cls-11" d="M142.54,118.27h-.27c-28.28,0-22.79,19.8-20.87,24.54.16-.16.32-.32.49-.47a6.34,6.34,0,0,1,1-.72l0,0,.07,0c.25-.15,3.7-.28,4-.4-1.6-5.87-5.3-15.76,15.34-15.9h.27c20.64.14,16.94,10,15.34,15.9.26.12,3.71.25,4,.4l.08,0,0,0a6.34,6.34,0,0,1,1,.72l.5.47C165.33,138.07,170.82,118.27,142.54,118.27Z"/><path class="cls-11" d="M142.54,118.27h-.27c-28.28,0-22.79,19.8-20.87,24.54.16-.16.32-.32.49-.47a6.34,6.34,0,0,1,1-.72l0,0,.07,0c.25-.15,3.7-.28,4-.4-1.6-5.87-5.3-15.76,15.34-15.9h.27c20.64.14,16.94,10,15.34,15.9.26.12,3.71.25,4,.4l.08,0,0,0a6.34,6.34,0,0,1,1,.72l.5.47C165.33,138.07,170.82,118.27,142.54,118.27Z"/><path class="cls-12" d="M142.54,118.27h-.27c-28.28,0-22.79,19.8-20.87,24.54l.31-.3c-2.15-6.06-5.58-23.45,20.57-23.45h.26c26.15,0,22.71,17.39,20.56,23.45l.32.3C165.33,138.07,170.82,118.27,142.54,118.27Z"/><path class="cls-13" d="M125.74,132.8c-2.12.66-4.18,1-6,2.29a24.89,24.89,0,0,0,1.7,7.72c.16-.16.32-.32.49-.47a6.34,6.34,0,0,1,1-.72l0,0,.07,0c.25-.15,3.7-.28,4-.4C126.27,138.74,125.26,135.63,125.74,132.8Z"/><path class="cls-14" d="M159,132.4c.67,2.93-.42,6.22-1.11,8.76.26.12,3.72.25,4,.4l.08,0,0,0a6.34,6.34,0,0,1,1,.72l.5.47a25.06,25.06,0,0,0,1.7-7.94A25.49,25.49,0,0,0,159,132.4Z"/><path class="cls-15" d="M142.53,123.58h-.24c-20.1,0-19.29,10.8-18,18.3.12-.08,2.38-.6,2.64-.72-1.6-5.87-5.3-15.76,15.34-15.9h.27c20.64.14,16.94,10,15.34,15.9.26.12,2.52.64,2.64.72C161.82,134.38,162.62,123.58,142.53,123.58Z"/><polygon class="cls-16" points="86.82 63.03 129.91 130.88 156.97 130.88 110.33 48.85 86.82 63.03"/><polygon class="cls-17" points="91.59 60.15 135.99 130.88 151.52 130.88 105.81 51.58 91.59 60.15"/><g class="cls-18"><circle class="cls-19" cx="142.54" cy="168.89" r="37.56"/><path class="cls-20" d="M142.54,131.33a37.56,37.56,0,1,0,37.56,37.56A37.56,37.56,0,0,0,142.54,131.33Zm0,74.08a36.52,36.52,0,1,1,36.52-36.52A36.52,36.52,0,0,1,142.54,205.41Z"/><circle class="cls-21" cx="142.54" cy="168.89" r="29.67" transform="translate(-54.01 67.84) rotate(-22.63)"/><circle class="cls-22" cx="142.54" cy="168.89" r="29.67" transform="translate(-54.01 67.84) rotate(-22.63)"/><circle class="cls-23" cx="142.54" cy="168.89" r="28.68"/><g class="cls-24"><g class="cls-25"><path class="cls-26" d="M165.93,172.34a.85.85,0,0,1-.73-1,.87.87,0,1,1,.73,1Z"/><path class="cls-27" d="M165.2,175.71a.9.9,0,0,1-.62-1.05.89.89,0,0,1,1-.62.86.86,0,1,1-.43,1.67Z"/><path class="cls-28" d="M164,178.93a.84.84,0,0,1-.42-1.12.85.85,0,0,1,1.1-.47.87.87,0,1,1-.68,1.59Z"/><path class="cls-29" d="M162.28,182a.86.86,0,0,1,.89-1.48.84.84,0,0,1,.29,1.19A.82.82,0,0,1,162.28,182Z"/><path class="cls-30" d="M160.15,184.67a.86.86,0,0,1,1.11-1.32.86.86,0,1,1-1.11,1.32Z"/><path class="cls-31" d="M157.68,187.09a.91.91,0,0,1,.06-1.23.89.89,0,0,1,1.22.06.87.87,0,1,1-1.28,1.17Z"/><path class="cls-32" d="M154.86,189.08a.85.85,0,0,1,.26-1.17.87.87,0,0,1,1.18.22.85.85,0,0,1-.22,1.22A.88.88,0,0,1,154.86,189.08Z"/><path class="cls-33" d="M151.8,190.68a.91.91,0,0,1,.41-1.16.9.9,0,0,1,1.15.41.86.86,0,0,1-.41,1.16A.83.83,0,0,1,151.8,190.68Z"/><path class="cls-34" d="M148.52,191.77a.85.85,0,0,1,.59-1,.87.87,0,0,1,.5,1.66A.89.89,0,0,1,148.52,191.77Z"/><path class="cls-35" d="M145.13,192.42a.9.9,0,0,1,.73-1,.89.89,0,0,1,1,.73.86.86,0,0,1-1.71.26Z"/><path class="cls-36" d="M141.68,192.52a.86.86,0,0,1,1.72,0,.86.86,0,1,1-1.72,0Z"/><path class="cls-37" d="M138.24,192.16a.89.89,0,0,1,1-.73.9.9,0,0,1,.73,1,.86.86,0,0,1-1.71-.26Z"/><path class="cls-38" d="M134.9,191.28a.87.87,0,0,1,1.07-.55.85.85,0,0,1,.59,1,.89.89,0,0,1-1.09.62A.87.87,0,0,1,134.9,191.28Z"/><path class="cls-39" d="M131.72,189.93a.9.9,0,0,1,1.15-.41.91.91,0,0,1,.41,1.16.83.83,0,0,1-1.15.41A.85.85,0,0,1,131.72,189.93Z"/><path class="cls-40" d="M128.78,188.13a.87.87,0,0,1,1.18-.22.85.85,0,0,1,.26,1.17.88.88,0,0,1-1.22.27A.85.85,0,0,1,128.78,188.13Z"/><path class="cls-41" d="M126.12,185.92a.89.89,0,0,1,1.22-.06.91.91,0,0,1,.06,1.23.87.87,0,1,1-1.28-1.17Z"/><path class="cls-42" d="M123.82,183.35a.86.86,0,0,1,1.11,1.32.86.86,0,1,1-1.11-1.32Z"/><path class="cls-43" d="M121.91,180.47a.86.86,0,0,1,.89,1.48.82.82,0,0,1-1.18-.29A.84.84,0,0,1,121.91,180.47Z"/><path class="cls-44" d="M120.45,177.34a.85.85,0,0,1,1.1.47.84.84,0,0,1-.43,1.12.86.86,0,1,1-.67-1.59Z"/><path class="cls-45" d="M119.44,174a.86.86,0,1,1,.44,1.67.86.86,0,1,1-.44-1.67Z"/><path class="cls-46" d="M119,170.62a.88.88,0,0,1,.93.77.85.85,0,0,1-.73,1,.88.88,0,0,1-1-.76A.86.86,0,0,1,119,170.62Z"/><path class="cls-47" d="M119,167.17a.87.87,0,0,1,.83.89.91.91,0,0,1-.91.83.81.81,0,0,1-.82-.89A.84.84,0,0,1,119,167.17Z"/><path class="cls-48" d="M119.44,163.75a.91.91,0,0,1,.69,1,.86.86,0,1,1-1.7-.31A.82.82,0,0,1,119.44,163.75Z"/><path class="cls-49" d="M120.45,160.44a.87.87,0,0,1,.52,1.09.9.9,0,0,1-1.09.54.82.82,0,0,1-.55-1.09A.87.87,0,0,1,120.45,160.44Z"/><path class="cls-50" d="M121.91,157.31a.91.91,0,0,1,.36,1.16.87.87,0,0,1-1.54-.79A.84.84,0,0,1,121.91,157.31Z"/><path class="cls-51" d="M123.82,154.44a.87.87,0,0,1,.19,1.2.93.93,0,0,1-1.21.2.82.82,0,0,1-.2-1.21A.85.85,0,0,1,123.82,154.44Z"/><path class="cls-52" d="M126.12,151.86a.91.91,0,0,1,0,1.22.87.87,0,0,1-1.24-1.21A.84.84,0,0,1,126.12,151.86Z"/><path class="cls-53" d="M128.78,149.66a.88.88,0,0,1-.16,1.2.92.92,0,0,1-1.22-.16.82.82,0,0,1,.16-1.21A.85.85,0,0,1,128.78,149.66Z"/><path class="cls-54" d="M131.72,147.85a.88.88,0,0,1-.34,1.16.85.85,0,0,1-1.16-.3.88.88,0,0,1,.32-1.21A.85.85,0,0,1,131.72,147.85Z"/><path class="cls-55" d="M134.9,146.5a.88.88,0,0,1-.5,1.11.91.91,0,0,1-1.12-.51.83.83,0,0,1,.5-1.11A.85.85,0,0,1,134.9,146.5Z"/><path class="cls-56" d="M138.24,145.63a.88.88,0,0,1-.66,1,.84.84,0,0,1-1-.63.87.87,0,0,1,.65-1.06A.84.84,0,0,1,138.24,145.63Z"/><path class="cls-57" d="M141.68,145.27a.87.87,0,0,1-.8.9.91.91,0,0,1-.93-.8.82.82,0,0,1,.8-.92A.86.86,0,0,1,141.68,145.27Z"/><path class="cls-58" d="M145.13,145.37a.92.92,0,0,1-.93.8.87.87,0,0,1-.8-.9.86.86,0,0,1,.93-.82A.82.82,0,0,1,145.13,145.37Z"/><path class="cls-59" d="M148.52,146a.84.84,0,0,1-1,.63.88.88,0,0,1-.66-1,.84.84,0,0,1,1-.68A.87.87,0,0,1,148.52,146Z"/><path class="cls-60" d="M151.8,147.1a.91.91,0,0,1-1.12.51.88.88,0,0,1-.5-1.11.85.85,0,0,1,1.12-.51A.83.83,0,0,1,151.8,147.1Z"/><path class="cls-61" d="M154.86,148.71a.85.85,0,0,1-1.16.3.87.87,0,0,1-.34-1.16.85.85,0,0,1,1.18-.35A.88.88,0,0,1,154.86,148.71Z"/><path class="cls-62" d="M157.68,150.7a.92.92,0,0,1-1.22.16.88.88,0,0,1-.16-1.2.85.85,0,0,1,1.22-.17A.82.82,0,0,1,157.68,150.7Z"/><path class="cls-63" d="M160.15,153.11a.86.86,0,0,1-1.2,0,.9.9,0,0,1,0-1.22.84.84,0,0,1,1.23,0A.86.86,0,0,1,160.15,153.11Z"/><path class="cls-64" d="M162.28,155.84a.93.93,0,0,1-1.21-.2.87.87,0,0,1,.19-1.2.85.85,0,0,1,1.22.19A.83.83,0,0,1,162.28,155.84Z"/><path class="cls-65" d="M164,158.85a.85.85,0,0,1-1.14-.38.91.91,0,0,1,.36-1.16.84.84,0,0,1,1.18.37A.85.85,0,0,1,164,158.85Z"/><path class="cls-66" d="M165.2,162.07a.9.9,0,0,1-1.09-.54.86.86,0,1,1,1.64-.55A.82.82,0,0,1,165.2,162.07Z"/><path class="cls-67" d="M165.93,165.45a.86.86,0,0,1-1-.7.91.91,0,0,1,.68-1,.83.83,0,0,1,1,.69A.86.86,0,0,1,165.93,165.45Z"/><path class="cls-68" d="M166.21,168.89a.91.91,0,0,1-.91-.83.87.87,0,0,1,.82-.89.85.85,0,0,1,.91.83A.81.81,0,0,1,166.21,168.89Z"/></g><g class="cls-25"><path class="cls-26" d="M165.93,172.34a.85.85,0,0,1-.73-1,.87.87,0,1,1,.73,1Z"/><path class="cls-27" d="M165.2,175.71a.9.9,0,0,1-.62-1.05.89.89,0,0,1,1-.62.86.86,0,1,1-.43,1.67Z"/><path class="cls-28" d="M164,178.93a.84.84,0,0,1-.42-1.12.85.85,0,0,1,1.1-.47.87.87,0,1,1-.68,1.59Z"/><path class="cls-29" d="M162.28,182a.86.86,0,0,1,.89-1.48.84.84,0,0,1,.29,1.19A.82.82,0,0,1,162.28,182Z"/><path class="cls-30" d="M160.15,184.67a.86.86,0,0,1,1.11-1.32.86.86,0,1,1-1.11,1.32Z"/><path class="cls-31" d="M157.68,187.09a.91.91,0,0,1,.06-1.23.89.89,0,0,1,1.22.06.87.87,0,1,1-1.28,1.17Z"/><path class="cls-32" d="M154.86,189.08a.85.85,0,0,1,.26-1.17.87.87,0,0,1,1.18.22.85.85,0,0,1-.22,1.22A.88.88,0,0,1,154.86,189.08Z"/><path class="cls-33" d="M151.8,190.68a.91.91,0,0,1,.41-1.16.9.9,0,0,1,1.15.41.86.86,0,0,1-.41,1.16A.83.83,0,0,1,151.8,190.68Z"/><path class="cls-34" d="M148.52,191.77a.85.85,0,0,1,.59-1,.87.87,0,0,1,.5,1.66A.89.89,0,0,1,148.52,191.77Z"/><path class="cls-35" d="M145.13,192.42a.9.9,0,0,1,.73-1,.89.89,0,0,1,1,.73.86.86,0,0,1-1.71.26Z"/><path class="cls-36" d="M141.68,192.52a.86.86,0,0,1,1.72,0,.86.86,0,1,1-1.72,0Z"/><path class="cls-37" d="M138.24,192.16a.89.89,0,0,1,1-.73.9.9,0,0,1,.73,1,.86.86,0,0,1-1.71-.26Z"/><path class="cls-38" d="M134.9,191.28a.87.87,0,0,1,1.07-.55.85.85,0,0,1,.59,1,.89.89,0,0,1-1.09.62A.87.87,0,0,1,134.9,191.28Z"/><path class="cls-39" d="M131.72,189.93a.9.9,0,0,1,1.15-.41.91.91,0,0,1,.41,1.16.83.83,0,0,1-1.15.41A.85.85,0,0,1,131.72,189.93Z"/><path class="cls-40" d="M128.78,188.13a.87.87,0,0,1,1.18-.22.85.85,0,0,1,.26,1.17.88.88,0,0,1-1.22.27A.85.85,0,0,1,128.78,188.13Z"/><path class="cls-41" d="M126.12,185.92a.89.89,0,0,1,1.22-.06.91.91,0,0,1,.06,1.23.87.87,0,1,1-1.28-1.17Z"/><path class="cls-42" d="M123.82,183.35a.86.86,0,0,1,1.11,1.32.86.86,0,1,1-1.11-1.32Z"/><path class="cls-43" d="M121.91,180.47a.86.86,0,0,1,.89,1.48.82.82,0,0,1-1.18-.29A.84.84,0,0,1,121.91,180.47Z"/><path class="cls-44" d="M120.45,177.34a.85.85,0,0,1,1.1.47.84.84,0,0,1-.43,1.12.86.86,0,1,1-.67-1.59Z"/><path class="cls-45" d="M119.44,174a.86.86,0,1,1,.44,1.67.86.86,0,1,1-.44-1.67Z"/><path class="cls-46" d="M119,170.62a.88.88,0,0,1,.93.77.85.85,0,0,1-.73,1,.88.88,0,0,1-1-.76A.86.86,0,0,1,119,170.62Z"/><path class="cls-47" d="M119,167.17a.87.87,0,0,1,.83.89.91.91,0,0,1-.91.83.81.81,0,0,1-.82-.89A.84.84,0,0,1,119,167.17Z"/><path class="cls-48" d="M119.44,163.75a.91.91,0,0,1,.69,1,.86.86,0,1,1-1.7-.31A.82.82,0,0,1,119.44,163.75Z"/><path class="cls-49" d="M120.45,160.44a.87.87,0,0,1,.52,1.09.9.9,0,0,1-1.09.54.82.82,0,0,1-.55-1.09A.87.87,0,0,1,120.45,160.44Z"/><path class="cls-50" d="M121.91,157.31a.91.91,0,0,1,.36,1.16.87.87,0,0,1-1.54-.79A.84.84,0,0,1,121.91,157.31Z"/><path class="cls-51" d="M123.82,154.44a.87.87,0,0,1,.19,1.2.93.93,0,0,1-1.21.2.82.82,0,0,1-.2-1.21A.85.85,0,0,1,123.82,154.44Z"/><path class="cls-52" d="M126.12,151.86a.91.91,0,0,1,0,1.22.87.87,0,0,1-1.24-1.21A.84.84,0,0,1,126.12,151.86Z"/><path class="cls-53" d="M128.78,149.66a.88.88,0,0,1-.16,1.2.92.92,0,0,1-1.22-.16.82.82,0,0,1,.16-1.21A.85.85,0,0,1,128.78,149.66Z"/><path class="cls-54" d="M131.72,147.85a.88.88,0,0,1-.34,1.16.85.85,0,0,1-1.16-.3.88.88,0,0,1,.32-1.21A.85.85,0,0,1,131.72,147.85Z"/><path class="cls-55" d="M134.9,146.5a.88.88,0,0,1-.5,1.11.91.91,0,0,1-1.12-.51.83.83,0,0,1,.5-1.11A.85.85,0,0,1,134.9,146.5Z"/><path class="cls-56" d="M138.24,145.63a.88.88,0,0,1-.66,1,.84.84,0,0,1-1-.63.87.87,0,0,1,.65-1.06A.84.84,0,0,1,138.24,145.63Z"/><path class="cls-57" d="M141.68,145.27a.87.87,0,0,1-.8.9.91.91,0,0,1-.93-.8.82.82,0,0,1,.8-.92A.86.86,0,0,1,141.68,145.27Z"/><path class="cls-58" d="M145.13,145.37a.92.92,0,0,1-.93.8.87.87,0,0,1-.8-.9.86.86,0,0,1,.93-.82A.82.82,0,0,1,145.13,145.37Z"/><path class="cls-59" d="M148.52,146a.84.84,0,0,1-1,.63.88.88,0,0,1-.66-1,.84.84,0,0,1,1-.68A.87.87,0,0,1,148.52,146Z"/><path class="cls-60" d="M151.8,147.1a.91.91,0,0,1-1.12.51.88.88,0,0,1-.5-1.11.85.85,0,0,1,1.12-.51A.83.83,0,0,1,151.8,147.1Z"/><path class="cls-61" d="M154.86,148.71a.85.85,0,0,1-1.16.3.87.87,0,0,1-.34-1.16.85.85,0,0,1,1.18-.35A.88.88,0,0,1,154.86,148.71Z"/><path class="cls-62" d="M157.68,150.7a.92.92,0,0,1-1.22.16.88.88,0,0,1-.16-1.2.85.85,0,0,1,1.22-.17A.82.82,0,0,1,157.68,150.7Z"/><path class="cls-63" d="M160.15,153.11a.86.86,0,0,1-1.2,0,.9.9,0,0,1,0-1.22.84.84,0,0,1,1.23,0A.86.86,0,0,1,160.15,153.11Z"/><path class="cls-64" d="M162.28,155.84a.93.93,0,0,1-1.21-.2.87.87,0,0,1,.19-1.2.85.85,0,0,1,1.22.19A.83.83,0,0,1,162.28,155.84Z"/><path class="cls-65" d="M164,158.85a.85.85,0,0,1-1.14-.38.91.91,0,0,1,.36-1.16.84.84,0,0,1,1.18.37A.85.85,0,0,1,164,158.85Z"/><path class="cls-66" d="M165.2,162.07a.9.9,0,0,1-1.09-.54.86.86,0,1,1,1.64-.55A.82.82,0,0,1,165.2,162.07Z"/><path class="cls-67" d="M165.93,165.45a.86.86,0,0,1-1-.7.91.91,0,0,1,.68-1,.83.83,0,0,1,1,.69A.86.86,0,0,1,165.93,165.45Z"/><path class="cls-68" d="M166.21,168.89a.91.91,0,0,1-.91-.83.87.87,0,0,1,.82-.89.85.85,0,0,1,.91.83A.81.81,0,0,1,166.21,168.89Z"/></g></g><path class="cls-69" d="M142.54,140.21a28.68,28.68,0,1,0,28.68,28.68A28.68,28.68,0,0,0,142.54,140.21Zm0,55.5a26.82,26.82,0,1,1,26.82-26.82A26.82,26.82,0,0,1,142.54,195.71Z"/><g class="cls-70"><path class="cls-71" d="M165,135c12.3,6.4,19.87,16.19,16.91,21.87s-15.32,5.09-27.61-1.31-19.87-16.19-16.91-21.87S152.74,128.62,165,135Z"/></g><g class="cls-72"><path class="cls-73" d="M167.41,149.27a8.69,8.69,0,1,1-3.73-11.75A8.72,8.72,0,0,1,167.41,149.27Z"/></g><g class="cls-74"><path class="cls-75" d="M127.31,184.22c6.61,4.1,10.18,10.31,8,13.86s-9.35,3.11-16-1-10.17-10.31-8-13.86S120.7,180.12,127.31,184.22Z"/></g></g><polygon class="cls-76" points="143.36 152.88 147.88 161.37 157.38 162.89 150.71 169.82 152.19 179.32 143.54 175.12 134.96 179.46 136.29 169.94 129.5 163.12 138.97 161.44 143.36 152.88"/><polygon class="cls-77" points="143.36 152.88 147.88 161.37 157.38 162.89 150.71 169.82 152.19 179.32 143.54 175.12 134.96 179.46 136.29 169.94 129.5 163.12 138.97 161.44 143.36 152.88"/><polygon class="cls-78" points="130.96 163.44 129.5 163.12 138.97 161.44 139.43 161.93 130.96 163.44"/><polygon class="cls-79" points="155.92 163.23 157.37 162.89 147.88 161.37 147.43 161.86 155.92 163.23"/><polygon class="cls-80" points="143.36 152.88 147.88 161.37 147.42 161.86 143.43 161.9 143.36 152.88"/><polygon class="cls-81" points="143.35 152.88 138.96 161.44 139.43 161.93 143.42 161.9 143.35 152.88"/><polygon class="cls-82" points="152.2 179.32 150.71 169.82 149.95 169.43 146.57 172.28 152.2 179.32"/><polygon class="cls-83" points="134.95 179.46 136.29 169.94 137.04 169.54 140.47 172.33 134.95 179.46"/><polygon class="cls-84" points="129.5 163.12 136.29 169.94 137.04 169.54 130.96 163.44 129.5 163.12"/><polygon class="cls-85" points="157.37 162.9 150.69 169.82 149.94 169.44 155.91 163.24 157.37 162.9"/><polygon class="cls-86" points="152.2 179.32 143.54 175.12 143.53 174.18 151.28 177.94 152.2 179.32"/><polygon class="cls-87" points="134.95 179.46 143.54 175.12 143.53 174.18 135.85 178.07 134.95 179.46"/><polygon class="cls-88" points="143.37 154.26 147.42 161.86 155.93 163.23 149.95 169.43 151.28 177.94 143.53 174.18 135.85 178.07 137.04 169.54 130.96 163.44 139.44 161.93 143.37 154.26"/><polygon class="cls-89" points="143.37 154.26 147.42 161.86 155.93 163.23 149.95 169.43 151.28 177.94 143.53 174.18 135.85 178.07 137.04 169.54 130.96 163.44 139.44 161.93 143.37 154.26"/><polygon class="cls-89" points="143.37 154.26 147.42 161.86 155.93 163.23 149.95 169.43 151.28 177.94 143.53 174.18 135.85 178.07 137.04 169.54 130.96 163.44 139.44 161.93 143.37 154.26"/><polygon class="cls-90" points="143.37 154.85 147.23 162.07 155.31 163.37 149.63 169.27 150.89 177.36 143.53 173.78 136.23 177.48 137.35 169.37 131.58 163.57 139.64 162.14 143.37 154.85"/><polygon class="cls-91" points="143.37 154.85 147.23 162.07 143.47 167.01 139.64 162.14 143.37 154.85"/><polygon class="cls-92" points="143.37 154.85 143.47 167.01 139.64 162.14 143.37 154.85"/><polygon class="cls-93" points="131.58 163.57 139.64 162.14 143.47 167.01 137.35 169.38 131.58 163.57"/><polygon class="cls-94" points="131.58 163.57 143.47 167.01 137.35 169.38 131.58 163.57"/><polygon class="cls-95" points="136.23 177.48 137.36 169.37 143.47 167.01 143.53 173.78 136.23 177.48"/><polygon class="cls-95" points="136.23 177.48 137.36 169.37 143.47 167.01 143.53 173.78 136.23 177.48"/><polygon class="cls-96" points="136.23 177.48 137.36 169.37 143.47 167.01 136.23 177.48"/><polygon class="cls-97" points="150.9 177.36 143.53 173.78 143.47 167.01 149.63 169.27 150.9 177.36"/><polygon class="cls-98" points="150.9 177.36 143.53 173.78 143.47 167.01 150.9 177.36"/><polygon class="cls-99" points="155.31 163.38 147.23 162.08 143.47 167.01 149.63 169.28 155.31 163.38"/><polygon class="cls-100" points="155.31 163.38 147.23 162.08 143.47 167.01 155.31 163.38"/><path class="cls-101" d="M143.5,167.07l11.81-3.69-.31,0-11.53,3.51-.1-12-.15.31.09,11.63-11.43-3.27-.31.06,11.74,3.47v0l-7,10-.05.43,7.17-10.19,7.28,10,.22.1Z"/><path class="cls-102" d="M166.43,139.91c-.57-.47-1.17-.89-1.77-1.32v-.05l0-.13c0-.17.06-.34.1-.51s0-.32.07-.47,0-.1,0-.14a20.55,20.55,0,0,0,.25-3.3c0-.34,0-.68,0-1s-.05-.7-.09-1.05a17.4,17.4,0,0,0-.4-2.11c-.12-.45-.27-.89-.43-1.33a13.67,13.67,0,0,0-.63-1.42,12.4,12.4,0,0,0-2.21-3.07l1.07-1.69h0L200.07,63l-4.67-2.81,0-.07-14.22-8.58,0,.08-4.64-2.8,0,0v0H110.38l0,.1-.07-.1-4.52,2.72h0l-2.18,1.32L86.82,63l38,59.77a13,13,0,0,0-4.59,7,16.46,16.46,0,0,0-.49,3.16c0,.35,0,.69,0,1,0,.69,0,1.36.09,2l0,.23,0,.23c0,.31.07.6.11.89a2.17,2.17,0,0,1,0,.25c0,.3.11.6.16.89l0,.15,0,.11a37.52,37.52,0,0,0-13.52,41.3,37.75,37.75,0,0,0,6.89,12.72,36,36,0,0,0,2.42,2.67,37.56,37.56,0,1,0,50.45-55.54Zm-36.52-9H157l.75-1.17a6.71,6.71,0,0,1,1.07,2,5.44,5.44,0,0,1,.2.72,9.05,9.05,0,0,1,.2,2.21v.07a5.46,5.46,0,0,1,0,.57,37.2,37.2,0,0,0-33.48.12,12.08,12.08,0,0,1,0-1.47v0a9.28,9.28,0,0,1,.11-1.06h0a8.34,8.34,0,0,1,.28-1.12,6.76,6.76,0,0,1,2.35-3.23Zm1.79-57.21h30.74l-19,33.41-19-33.41Z"/><text class="cls-103" transform="translate(48.75 259.95)">Gold Medal</text><text class="cls-104" transform="translate(21.71 290.15)">Laptop + Gold Medal <tspan x="16.82" y="30.85">+ Certificate + Gift </tspan><tspan x="78.1" y="61.71">Hamper.</tspan></text><rect class="cls-105" x="0.46" y="0.46" width="297.67" height="391.15"/></g></g></g></svg>