<svg xmlns="http://www.w3.org/2000/svg" xmlns:xlink="http://www.w3.org/1999/xlink" viewBox="0 0 301.54 359.26"><defs><style>.cls-1{fill:none;}.cls-2{clip-path:url(#clip-path);}.cls-3{clip-path:url(#clip-path-2);}.cls-4{fill:#009e92;}.cls-5{clip-path:url(#clip-path-3);}.cls-6,.cls-7{fill:#fff;}.cls-7{font-size:38.62px;font-family:Poppins-Bold, Poppins;font-weight:700;}</style><clipPath id="clip-path"><rect class="cls-1" width="301.54" height="359.26"/></clipPath><clipPath id="clip-path-2"><path class="cls-1" d="M29.07,0H272.48a29.05,29.05,0,0,1,29.06,29.07V329.63a29.05,29.05,0,0,1-29.06,29.06H29.07A29.05,29.05,0,0,1,0,329.63V29.07A29.05,29.05,0,0,1,29.07,0Z"/></clipPath><clipPath id="clip-path-3"><rect class="cls-1" x="46.6" y="127.37" width="216.67" height="177.04"/></clipPath></defs><g id="Layer_2" data-name="Layer 2"><g id="Layer_1-2" data-name="Layer 1"><g class="cls-2"><g class="cls-3"><rect class="cls-4" width="301.54" height="359.26"/></g></g><g class="cls-5"><path class="cls-6" d="M187.74,261.07l-18.23-23.56,18.61,41.13,3.48-11.84L209.17,288l-15.83-38.65ZM127,168.92l17.57,21.24-15.83-38.65-5.6,11.69-18.23-23.57,18.61,41.13Zm131-2.64a50,50,0,0,1,4.14,18.87c0,12.21-6.13,19.21-15,19,0,.82,0,1.62-.08,2.4-.41,10.38-4.22,18.15-10.83,22a1.13,1.13,0,0,1-.58.16,1.15,1.15,0,0,1-1-.58,1.08,1.08,0,0,1-.08-.19,18.58,18.58,0,0,1-6.12,1.24c-5.91,9.49-17.6,11.5-31.07,3.66-7.57-4.39-14.57-11.24-20.31-19.3L131.46,240c4.13,9.17,6.57,18.84,6.57,27.75,0,11.33-3.86,19.82-10.87,23.88a1.13,1.13,0,0,1-.58.16,1.16,1.16,0,0,1-.93-.49,18.16,18.16,0,0,1-7.13,1.66c-5.77,9.29-17.08,11.4-30.2,4.15-3.8.25-8.19-.89-12.86-3.6a49.73,49.73,0,0,1-14-12.82l-3.87,2.25h0a4,4,0,0,1-4.07-.39,12.74,12.74,0,0,1-5.73-10,4.08,4.08,0,0,1,1.67-3.72h0l3.81-2.22A50.29,50.29,0,0,1,49,247.41c0-5.43,1.23-9.81,3.35-13,.32-15,7.79-23.83,18.67-24.23a18.4,18.4,0,0,1,5-5.35l-.15-.2a1.17,1.17,0,0,1,.42-1.59c7-4.09,16.27-3.22,26.06,2.47h0c7.76,4.51,15,11.58,20.82,19.89L168.65,199c-4.08-9-6.48-18.56-6.48-27.35,0-15.63,7.58-24.8,18.7-25.2a18.5,18.5,0,0,1,4.09-4.7l-.12-.16a1.16,1.16,0,0,1,.42-1.58c6.27-3.66,14.34-3.34,23,.82q1.75.81,3.54,1.83c4.28-7.82,13.36-9.66,23.87-3.56a49.68,49.68,0,0,1,14.2,13.05l2.44-1.41h0a2.83,2.83,0,0,1,.92-.35s0,0,.07,0a4.62,4.62,0,0,1,3.09.74,12.81,12.81,0,0,1,5.76,10,4.87,4.87,0,0,1-.91,3.08h0s0,0-.05,0a2.8,2.8,0,0,1-.76.62v0Z"/><path d="M179.34,204a1.18,1.18,0,0,1-.1-.84,1.24,1.24,0,0,1,.31-.53.86.86,0,0,1,.26-.2l.24-.13.56-.3.45-.24,3.1-1.68h0a.87.87,0,0,1,.25-.1,1.19,1.19,0,0,1,1,.21l.06.06a1.33,1.33,0,0,1,.23.3,1.07,1.07,0,0,1,.11.33,1.15,1.15,0,0,1-.5,1.19l-.08.05-3,1.64-.15.08-.86.46-.1.06-.24.12a1.06,1.06,0,0,1-.54.14.9.9,0,0,1-.28,0A1.14,1.14,0,0,1,179.34,204Zm-5.08-2.84a1.16,1.16,0,0,1-.45,1.58l-1.52.85-.09.05-1,.56-1,.56-5.05,2.82a1.22,1.22,0,0,1-.56.14,1.16,1.16,0,0,1-.56-2.17l5.1-2.85,1-.55.57-.32.43-.24,1.56-.88A1.15,1.15,0,0,1,174.26,201.11Zm18.22,64.94a1.15,1.15,0,0,0-.88-.41,1,1,0,0,0-.24,0,1.17,1.17,0,0,0-.87.81l-2.6,8.86L174.62,246l12.21,15.78a1.15,1.15,0,0,0,1.95-.21l4.48-9.35,12,29.23Zm1.93-17.11a1.17,1.17,0,0,0-1-.72,1.16,1.16,0,0,0-1.08.66l-4.79,10L170.42,236.8a1.14,1.14,0,0,0-1.51-.28,1.16,1.16,0,0,0-.46,1.47l18.62,41.13a1.14,1.14,0,0,0,1.13.67,1.16,1.16,0,0,0,1-.82l2.86-9.76,16.19,19.57a1.17,1.17,0,0,0,.89.41,1.2,1.2,0,0,0,.6-.16,1.19,1.19,0,0,0,.47-1.44Zm-72.2-85a1.15,1.15,0,0,0,1,.44,1.13,1.13,0,0,0,.92-.65l4.48-9.34,12,29.22-12.75-15.4a1.13,1.13,0,0,0-.88-.42l-.24,0a1.14,1.14,0,0,0-.87.8l-2.6,8.86L110,148.13Zm.24,17.33a1.13,1.13,0,0,0,1.13.68,1.15,1.15,0,0,0,1-.83l2.86-9.75,16.19,19.56a1.15,1.15,0,0,0,.89.42,1.12,1.12,0,0,0,.6-.17,1.17,1.17,0,0,0,.47-1.43l-15.83-38.65a1.14,1.14,0,0,0-1-.72,1.16,1.16,0,0,0-1.08.66l-4.79,10L105.8,138.92a1.16,1.16,0,0,0-1.51-.28,1.18,1.18,0,0,0-.46,1.48Zm-8.9,80.54.49.5a.63.63,0,0,1-.61.43,1.29,1.29,0,0,1-.55-.25A.29.29,0,0,1,113,262,4.2,4.2,0,0,1,113.55,261.78Zm.43,3.83c-.1.19,0,.35,0,.51s-.13.06-.16.05l-.88-.42c0-.21,0-.35.06-.52l.27-.16a.38.38,0,0,1,.5,0C114,265.23,114.11,265.39,114,265.61Zm4.64,15.63c-.27,0-.38-.07-.71-.42.1-.11.2-.23.31-.34l.1-.1a.59.59,0,0,1,.65,0,.34.34,0,0,1,.14.15.48.48,0,0,1,0,.4A.55.55,0,0,1,118.62,281.24Zm-12.25,11.3a.71.71,0,0,1,.21-.63.91.91,0,0,1,.26-.13l.12,0h0l.08,0a1,1,0,0,1,.22.19,1,1,0,0,1,.19.38l-.4.61a3,3,0,0,0-.36-.12C106.54,292.79,106.38,292.72,106.37,292.54Zm13.06-20.21a1,1,0,0,1,.85-.4c.24,0,.35.17.44.37s0,.31-.11.44a.42.42,0,0,1-.5.13A1,1,0,0,1,119.43,272.33Zm-8.3,11.82c.12-.17.23-.37.37-.54s.3-.16.49,0a.43.43,0,0,1,.1.09l.19.15v.64C111.59,284.67,111.52,284.65,111.13,284.15Zm-11.56,11.5c.1-.16.2-.34.32-.5a.28.28,0,0,1,.37-.07l.6.36c0,.13-.11.25-.15.37s-.06.26-.09.4C100.19,296.17,99.78,296.13,99.57,295.65Zm10.07.46a.44.44,0,0,1-.09-.61l.32-.44H110l.51.18.19.55-.19.18a2.73,2.73,0,0,1-.25.23A.45.45,0,0,1,109.64,296.11Zm8.3-25.14c-.25-.69-.25-.69.49-1,.39.21.69.48.55,1a1.56,1.56,0,0,1-1,0Zm-5.15,18.4c0-.44.38-.62.65-.84a.3.3,0,0,1,.26,0,2.43,2.43,0,0,1,.29.26c0,.24,0,.39,0,.54,0,.31-.2.45-.5.37a.66.66,0,0,1-.19-.09Zm6.36-5.55c0,.39,0,.52-.41.65l-.39.11a.91.91,0,0,1-.25,0c0-.3-.07-.6-.12-1l.79-.18A.59.59,0,0,1,119.15,283.82Zm-2.6-24.42a.7.7,0,0,1-.18-.79c.18-.34.31-.38.66-.21a1.6,1.6,0,0,1,.56.51l-.23.34A.51.51,0,0,1,116.55,259.4Zm1.81,5.15-.59-.7a1.52,1.52,0,0,1,.58-.55l.51.15c.27.1.32.23.23.53a3.38,3.38,0,0,1-.13.37Zm-1,7.71a.27.27,0,0,1,0,.37.55.55,0,0,1-.46.26l-.63,0c-.17-.46.09-.78.11-1.12.06,0,.09-.07.13-.08H117a3.17,3.17,0,0,0,.17.37C117.21,272.13,117.33,272.18,117.41,272.26ZM116.13,276a.61.61,0,0,1,.26-.73.84.84,0,0,1,.63-.2l.51.52c-.18.2-.33.37-.49.53a.61.61,0,0,1-.7.12A.36.36,0,0,1,116.13,276Zm-.34-5.23c-.06.16-.1.29-.15.45a5,5,0,0,1-.77.16c-.15,0-.25-.12-.27-.26s0-.46,0-.74l.68-.33C115.64,270.16,115.51,270.57,115.79,270.72Zm-1.08-9.45c0-.21.24-.41-.06-.55,0-.18,0-.36.07-.57a4.34,4.34,0,0,1,.52-.09c.45,0,.63.2.51.62a1.13,1.13,0,0,1-.58.78Zm-8.4,34.58c.08-.23.09-.51.32-.68a.35.35,0,0,1,.38-.05,1.44,1.44,0,0,1,.5.64.2.2,0,0,1,0,.13.89.89,0,0,1-.74.53C106.38,296.42,106.19,296.2,106.31,295.85Zm-.22,3c.17-.14.28-.24.41-.33.39-.27.46-.27.84,0a1.41,1.41,0,0,1,.14.17,3.25,3.25,0,0,0-.18.43,1.68,1.68,0,0,0,0,.39.71.71,0,0,1-.72,0C106.27,299.36,106.25,299.07,106.09,298.84Zm8.49-4.42c-.07-.13-.15-.26-.25-.42l.13-.11c.24-.18.47-.36.72-.53a.28.28,0,0,1,.25,0,.2.2,0,0,1,.06.29.31.31,0,0,0,0,.39l.07.09c.15.14.12.27,0,.42A.58.58,0,0,1,114.58,294.42Zm-5.5-.67a.36.36,0,0,1,.07.38c-.1.2-.21.4-.38.72a1.13,1.13,0,0,0-.5-.48.85.85,0,0,0-.39-.07c0-.25,0-.47,0-.68h0a.65.65,0,0,1,.6-.23A1.1,1.1,0,0,1,109.08,293.75Zm7.26-25.17.16-.12c.39-.23.54-.2.71.24.08.21.36.33.25.61s-.44.23-.66.31c-.15-.08-.3-.15-.43-.23A.47.47,0,0,1,116.34,268.58Zm-13.82,29.21a3,3,0,0,1-.49.27.54.54,0,0,1-.65-.24.48.48,0,0,1,0-.58l.25-.34a.91.91,0,0,1,.65,0c.13,0,.27.16.19.31S102.51,297.58,102.52,297.79ZM119,274.4a.5.5,0,0,1-.1.11.88.88,0,0,1-1-.24c.07-.28.14-.57.21-.88a1.17,1.17,0,0,1,.25-.07C119.14,273.38,119.36,273.81,119,274.4Zm-1.31,13,.57-.53c.14-.14.31-.25.49-.16s.21.21.32.33c-.1.29-.4.5-.22.83,0,.05-.1.18-.18.29C118.13,288.09,117.91,287.72,117.64,287.4Zm-2.11,2.69c.37.41.35.4.11.78a1.52,1.52,0,0,1-.5.45.77.77,0,0,1-.4.07.32.32,0,0,1-.28-.34c0-.22,0-.44.05-.69Zm4-21.15.3-.45c.28-.07.52-.1.67.2a.07.07,0,0,0,0,.05c.16.12.35.22.31.48a.66.66,0,0,1-.38.46,1.64,1.64,0,0,1-.3.14C119.73,269.64,119.64,269.28,119.49,268.94Zm-.74,7.88.47.75c-.44.39-.7.44-1.15.21a.43.43,0,0,1-.26-.61,2,2,0,0,1,.18-.35Zm-14.07,17.63a2.92,2.92,0,0,1-.14-.31c.08-.13.14-.25.22-.36a.6.6,0,0,1,.93-.12c.21.16,0,.34.08.51a.37.37,0,0,1,0,.31.79.79,0,0,1-.38.25A.61.61,0,0,1,104.68,294.45Zm9.78-16.82c0-.2.1-.4.13-.6a.42.42,0,0,1,.55-.35l.12.05.3.15a1.4,1.4,0,0,1,0,1C115.14,277.92,114.76,278,114.46,277.63Zm3.16,11.31a1.93,1.93,0,0,1,0,.25c-.13.15-.34.08-.45.3s-.64.16-.8,0a.44.44,0,0,1-.08-.3,5.68,5.68,0,0,1,.17-.61,1.38,1.38,0,0,1,.78-.09C117.53,288.56,117.6,288.62,117.62,288.94Zm-1.5-3.24.38-.76a2,2,0,0,1,.39.12c.19.12.37.26.58.42-.08.44-.2.76-.67.78S116.38,286.23,116.12,285.7Zm.35-22.83c-.36-.75-.26-.93.58-1.23a.75.75,0,0,1,.46.46.49.49,0,0,1-.42.77Zm-4.19,27.32.37.54-.3.41-.07.11c-.39,0-.79.12-1.1-.21a.07.07,0,0,1,0-.06l0-.15C111.37,290.14,111.43,290.13,112.28,290.19Zm3.83-8.07a.34.34,0,0,1,.08-.09.81.81,0,0,1,.65-.22c.34,0,.39,0,.52.4,0,.11.08.22.11.32l-.1.11c-.17.22-.32.4-.47.57C116.34,283,116.23,282.56,116.11,282.12Zm-4.9,5.56a.68.68,0,0,1,.06-.77.67.67,0,0,1,.76.06l.06,0c.2.11.41.25.34.52a.7.7,0,0,1-.74.53C111.43,288.09,111.31,287.91,111.21,287.68Zm2.79-1.5a.83.83,0,0,1-.65.29.49.49,0,0,1-.42-.53,6.75,6.75,0,0,1,.17-.68c.35.09.68-.22,1,.13A.92.92,0,0,1,114,286.18Zm-6.09,4.65c0-.1-.06-.2-.09-.32l.73-.56,0,0a.59.59,0,0,1,.3.17,5.91,5.91,0,0,0,.44.62c-.2.16-.38.32-.56.45l-.08.06h0A.49.49,0,0,1,108,291s0,0,0,0Zm7.16-26.16-.69-.67a.68.68,0,0,1,.45-.61c.25-.14.42.09.66.06.16.37.4.62.3,1Zm-11.68,28.2a6.66,6.66,0,0,1-.56-.47c0-.58.37-.69.74-.84.7.29.75.4.49,1.08A.44.44,0,0,1,103.39,292.87Zm10.75-.49a.41.41,0,0,1,0,.29l0,0a2.67,2.67,0,0,1-.48.47.38.38,0,0,1-.45-.06.94.94,0,0,1-.38-.7.6.6,0,0,1,0-.19c.46-.2.46-.2.63-.51C113.84,291.81,114,292.13,114.14,292.38Zm0-33.29a3.07,3.07,0,0,1-.14.34.75.75,0,0,1-.63.36c-.16,0-.53-.31-.58-.52a.55.55,0,0,1,0-.18.41.41,0,0,1,.1-.27l.12-.13.12-.12.18-.27.14.09.26.18A2.35,2.35,0,0,1,114.16,259.09Zm-3.4,33a.66.66,0,0,1-.3,1,.7.7,0,0,1-.27,0h-.09c-.28,0-.44-.1-.48-.3a.59.59,0,0,1,0-.27,1,1,0,0,1,.09-.3,1.11,1.11,0,0,1,.25-.36.49.49,0,0,1,.2-.13.42.42,0,0,1,.47.15l.08.08Zm-6.39,5.3c.1-.24.19-.48.53-.55a.81.81,0,0,1,.92.34v.57a1.07,1.07,0,0,1-.66.22A.64.64,0,0,1,104.37,297.38ZM119,267.07a2.09,2.09,0,0,1,.13.26c0,.08-.07.16-.1.25s-.05.33-.22.39a.7.7,0,0,1-.66-.05l-.36-.26a.77.77,0,0,1,.12-.68C118.32,266.54,118.69,266.56,119,267.07Zm-9.32,21.58a3.76,3.76,0,0,1,.45-.44,1.45,1.45,0,0,1,.7,1c.06.36-.09.52-.45.52a1.17,1.17,0,0,1-.53-.1A.76.76,0,0,1,109.69,288.65Zm3.47-6.88.14-.06c.56,0,.78.39,1,.8a.65.65,0,0,1-.08.17c-.45.48-.55.49-1.08.13S112.65,282.07,113.16,281.77Zm1.1,14a1.31,1.31,0,0,1-.8.59,1.82,1.82,0,0,1-.67-.68.83.83,0,0,1,.73-.79A1.7,1.7,0,0,1,114.26,295.81Zm-19.21,2.24c-.61-.74-.57-1,.23-1.43.61.53.61.53.73,1.07C95.74,298,95.46,298.19,95.05,298.05Zm21.09-32.66a.6.6,0,0,1,.69-.42,1,1,0,0,1,.38.09c.15.08.05.29.1.35.22.29,0,.58.13.89C116.5,266.38,116.45,266.35,116.14,265.39Zm3.33,13.87c0-.7,0-.72.66-1,.32,0,.43.31.61.54a3.28,3.28,0,0,1-.08.52.49.49,0,0,1-.84.26ZM109,296.72a1.09,1.09,0,0,1,0,1.2,2.06,2.06,0,0,1-.43.16.54.54,0,0,1-.57-.4c0-.31-.06-.62-.09-1a.8.8,0,0,0,.74-.09C108.67,296.58,108.85,296.69,109,296.72Zm-11,1.06a1.24,1.24,0,0,1,.16-.86.46.46,0,0,1,.6-.16,1.77,1.77,0,0,1,.17.12l.26.19c0,.71,0,.84-.65,1.15C98.28,298.1,98,298.06,98,297.78Zm17.93-10.35c-.45.59-.57.65-1.09.57-.16-.5-.31-1-.47-1.53.36,0,.64.24,1,.26C115.38,287.08,115.79,287.14,115.91,287.43Zm3.59-12A4.54,4.54,0,0,1,120,275c.35.13.79.11.87.61-.08.17-.15.34-.23.5s-.25.31-.48.23l-.5-.18A.42.42,0,0,1,119.5,275.44Zm-5-1.2c-.24-.3-.18-.47.19-.6.13,0,.27,0,.4-.08l.32-.11a1,1,0,0,1,.57.75,1.45,1.45,0,0,1-.73.61.35.35,0,0,1-.43-.13C114.68,274.54,114.58,274.39,114.47,274.24Zm6.33,8.06a.54.54,0,0,1-.06.33,1.7,1.7,0,0,1-.15.22l-.13.15c-.67.07-.68.06-1-.63h0a1.44,1.44,0,0,1,.55-.75.3.3,0,0,1,.38,0A1,1,0,0,1,120.8,282.3Zm-5-15a1.08,1.08,0,0,1-.77.84,3,3,0,0,1-.57-.56c0-.21.06-.4.1-.6a.39.39,0,0,1,.33-.31c.64-.18.64-.18.86.44C115.8,267.16,115.81,267.22,115.83,267.28Zm-13,28.7-.16-.22a1,1,0,0,1,.71-.79l.93.46a3.39,3.39,0,0,1-.17.59.44.44,0,0,1-.26.2A.86.86,0,0,1,102.86,296Zm13.3-16.62A.92.92,0,0,1,116,279c.11-.14.2-.24.28-.35l.17-.29c.77-.11.81-.09,1.13.6a2.4,2.4,0,0,1-.11.23c-.11.15-.24.28-.38.44a1.87,1.87,0,0,0-.4-.07h-.14A.52.52,0,0,1,116.16,279.36Zm-3,.17-.26-.49a.63.63,0,0,1,.09-.32,1.64,1.64,0,0,1,.34-.4c.35-.31.64,0,.94.05.09.56,0,.88-.22,1A1.4,1.4,0,0,1,113.12,279.53Zm-11.61,15.09c-.15-.14-.31-.27-.47-.4,0-.65.52-.79.95-1l.65.71a2.3,2.3,0,0,0-.22.4c0,.15-.08.32-.26.36A.69.69,0,0,1,101.51,294.62Zm9.58-.59a2.45,2.45,0,0,1,.42-.54.38.38,0,0,1,.21-.12.68.68,0,0,1,.44.05s0,0,.08.07a.52.52,0,0,1,.11.19,1.86,1.86,0,0,1,.09.47c-.22.5-.22.5-.61.73-.19-.09-.4-.17-.6-.28S110.92,294.3,111.09,294Zm4.84-10a.28.28,0,0,1,0,.2,1,1,0,0,1-1,.65.32.32,0,0,1-.24-.09c-.14-.23-.35-.42-.31-.75a.58.58,0,0,1,.6-.6A1.38,1.38,0,0,1,115.93,284Zm-1.37-2.9.11-.17-.11-.2c-.15-.28-.13-.42.13-.56l.3-.16.28-.13.3.13a.41.41,0,0,1,.26.44v.13c0,.56-.25.86-.71.85a1.37,1.37,0,0,1-.28,0l-.27-.06s0,0-.13-.08A1.77,1.77,0,0,0,114.56,281.1Zm-15,18c.16-.45.37-.81.94-.68.46.35.42.93.68,1.38C100.3,300,100.05,299.92,99.52,299.08Zm4.8-.06a1.3,1.3,0,0,1-.49.77.48.48,0,0,1-.68-.06,1.53,1.53,0,0,1-.31-.52.55.55,0,0,1,.28-.7l.36-.24C104,298.33,104.08,298.77,104.32,299Zm10.25-41.75h-.14c0-.08.09-.18.16-.22a.51.51,0,0,0,.28-.5c0-.06.06-.12.1-.18a1.41,1.41,0,0,1,.2,0c.46.14.59.18.63.44a2.91,2.91,0,0,1,0,.47l-.19.21-.32.36-.17-.08-.43-.22,0,0C114.6,257.48,114.6,257.35,114.57,257.27Zm-13-19.64a.36.36,0,0,1,.07.1s-.1.05-.11,0a.4.4,0,0,1-.07-.13S101.52,237.62,101.55,237.63Zm7.56,12.78a.11.11,0,0,1,0,.06c-.06,0-.13.13-.2.13s-.27-.08-.39,0-.22.13-.34.19-.23-.06-.25-.17a.4.4,0,0,1,.16-.42l.27-.17.19-.12C108.79,250,109,250.11,109.11,250.41Zm-1-3.19.29-.31-.17-.28c0-.15.14-.2.25-.15a1,1,0,0,1,.54.89.52.52,0,0,1-.35.43Zm5.31,2.1a3.54,3.54,0,0,1-.41-.45.92.92,0,0,1,.1-.33c.07-.12.2-.2.54-.39a1.19,1.19,0,0,1,.32.63,2.12,2.12,0,0,1,0,.83A2.47,2.47,0,0,1,113.44,249.32ZM55.79,226.68a.49.49,0,0,1,0,.52c-.17.23-.37.45-.56.67,0,0-.08,0-.16,0a1.77,1.77,0,0,0-.14-.57c-.1-.15-.24-.27-.14-.53a2.47,2.47,0,0,1,.41-.24A.47.47,0,0,1,55.79,226.68Zm52.35,13.94a1.5,1.5,0,0,0,0-.5l.17,0a2.26,2.26,0,0,1,.5-.08.45.45,0,0,1,.35.14.35.35,0,0,1,0,.44,4,4,0,0,1-.33.37l0,0c-.07.08-.13.17-.24.31C108.22,241.11,108,241,108.14,240.62Zm-5.69-3.77a.44.44,0,0,1,.06.32.29.29,0,0,1-.31.22l-1-.08a5.42,5.42,0,0,1,.06-.55.39.39,0,0,1,.46-.32A1,1,0,0,1,102.45,236.85Zm11.49,19.2c-.37.06-.59-.19-.92-.4a5.57,5.57,0,0,1,.26-.54.39.39,0,0,1,.43-.15.94.94,0,0,1,.59.61A.39.39,0,0,1,113.94,256.05Zm-.81-3.69a.53.53,0,0,1-.12-.52,1.18,1.18,0,0,1,.17-.36,1.94,1.94,0,0,1,.54.13,1.17,1.17,0,0,1,.3.19,2.57,2.57,0,0,1,.21.24l-.6.65h-.43c-.14-.1,0-.22-.06-.29A.06.06,0,0,0,113.13,252.36ZM63,215.59l0-.09c.15-.45.18-.47.58-.63a.76.76,0,0,1,.67.85c-.24.07-.5.17-.75.22a.29.29,0,0,1-.28-.06A1.22,1.22,0,0,1,63,215.59Zm3.64.34a4.66,4.66,0,0,1-.26-.5c.35-.52.35-.52.69-.7,0,0,0,0,.07,0l.38.33.15.13a2.47,2.47,0,0,1-.41.68l-.09.1A.33.33,0,0,1,66.61,215.93Zm-7.22,11a2.44,2.44,0,0,0-.32.52c-.12.36-.41.42-.75.12a1.56,1.56,0,0,1-.33-.5s0-.2.09-.22.35-.09.46-.27.18-.07.25,0A1,1,0,0,1,59.39,227ZM57.64,225a3.58,3.58,0,0,1,0,.4.59.59,0,0,1-.92.56,4,4,0,0,1-.37-.25c0-.39.3-.47.44-.71Zm55,25.47a1,1,0,0,1-.75.52,1.31,1.31,0,0,1-.34,0,.3.3,0,0,1-.27-.27.66.66,0,0,1,.12-.58.9.9,0,0,1,.23-.19C112,250.08,112.43,250,112.64,250.51ZM82.47,216.83c0,.1.09.21.17.39-.33.07-.51.23-.47.53a1,1,0,0,1-.63-.18.9.9,0,0,1-.3-.54l.33-.29.07-.06A.5.5,0,0,1,82.47,216.83Zm28.76,36.86a.92.92,0,0,1,0-.16.8.8,0,0,0-.09-.3c.33-.27.44-.3.58-.08a.69.69,0,0,0,.11.13,4.61,4.61,0,0,0,.5.4c.19.16.21.28.06.46a1.71,1.71,0,0,1-.25.22l-.21-.05C111.52,254.27,111.24,254.11,111.23,253.69Zm-4.84-11.1a.6.6,0,0,1,0-1l0,0a.43.43,0,0,1,.27,0,.81.81,0,0,1,.63.59c0,.11-.07.25-.12.37a.51.51,0,0,1-.14.18.44.44,0,0,1-.47,0A1.16,1.16,0,0,1,106.39,242.59Zm8.73,11.82c-.23-.28-.44-.57-.68-.88.1-.09.18-.21.27-.22a5.48,5.48,0,0,1,.81,0,.34.34,0,0,1,.3.33,1.48,1.48,0,0,1-.23.77C115.53,254.55,115.24,254.56,115.12,254.41ZM91.44,220.53c-.06-.17-.13-.33-.2-.5a1.34,1.34,0,0,1,.94-.2.44.44,0,0,1,.38.55.31.31,0,0,1,0,.13l-.17.43-.29,0C91.61,221,91.61,221,91.44,220.53ZM58,223.38l.62-.35a5.1,5.1,0,0,1,.57.37.48.48,0,0,1,0,.72.51.51,0,0,1-.73.07A1.17,1.17,0,0,1,58,223.38Zm-.34-1.08c-.12.32-.19.48-.5.48a.4.4,0,0,1-.36-.16c-.15-.21-.3-.41-.47-.66.2-.34.41-.54.79-.31.06,0,.14,0,.21,0A.42.42,0,0,1,57.64,222.3Zm17.19-7.92a1.21,1.21,0,0,1,0-1.26h.26c.61,0,.61,0,.77.6A1.41,1.41,0,0,1,74.83,214.38Zm22.73,14.15-.38.46.07.45c-.18,0-.35,0-.47,0a1.28,1.28,0,0,1-.4-.37.42.42,0,0,1,0-.52,2.55,2.55,0,0,1,.43-.44c.21-.19.4-.15.56.1S97.49,228.38,97.56,228.53ZM68.25,214.14A1.52,1.52,0,0,1,68,214c0-.18.09-.36.13-.53l0-.17h0a1.28,1.28,0,0,1,.75,0,.23.23,0,0,1,.16.1,3.21,3.21,0,0,0,.21.3.69.69,0,0,1,.17.42.72.72,0,0,1-.44.24.8.8,0,0,1-.29-.05A3.4,3.4,0,0,0,68.25,214.14Zm30.94,20a8.07,8.07,0,0,1-.83.4c-.15-.2-.32-.42-.46-.65a.3.3,0,0,1,.14-.46,4.38,4.38,0,0,1,.47-.16l.66.3A.33.33,0,0,1,99.19,234.14ZM71.34,213.65c0-.11-.1-.21,0-.31a.79.79,0,0,1,.23-.14,3.79,3.79,0,0,1,.4-.12c.2.09.46.12.5.39a.77.77,0,0,1-.31.92l-.86-.29A2.28,2.28,0,0,0,71.34,213.65ZM103,235.48a1.29,1.29,0,0,1,.53-.75c.44.09.49.1.54.41,0,0,0,.07,0,.11s.07.35.11.55a.59.59,0,0,1-.66.32h-.07C103.11,236,103.09,235.73,103,235.48Zm6.74,12.9a3.07,3.07,0,0,1,.49-.27l.07,0,.69.66-.24.28a5.79,5.79,0,0,1-.51.48c-.17-.1-.32-.18-.47-.28A.46.46,0,0,1,109.72,248.38Zm1.17,3.53c.12.22.15.42,0,.57a.74.74,0,0,1-.76.19,1,1,0,0,1-.6-.48c0-.16.08-.29.12-.42a.37.37,0,0,1,.34-.29.27.27,0,0,1,.35.22c0,.14.14.16.26.17ZM96,230.3a2.94,2.94,0,0,1-.4.79c-.36,0-.73.17-1-.21,0-.31-.08-.64.28-.89C95.23,230.07,95.67,229.91,96,230.3ZM65.94,213.65a.42.42,0,0,1-.13.49c-.17.18-.33.33-.57.29a.62.62,0,0,1-.2,0c-.17,0-.24-.14-.31-.36a.67.67,0,0,1,0-.24.77.77,0,0,1,.09-.36.53.53,0,0,1,.29-.24.77.77,0,0,1,.34,0C65.74,213.17,65.83,213.42,65.94,213.65Zm28.78,13.82a.71.71,0,0,1-.16-.71l.73-.46c.34.06.34.35.49.51a.41.41,0,0,1,0,.56.54.54,0,0,1-.6.23C95.06,227.55,94.91,227.52,94.72,227.47Zm-17.2-9.15a.62.62,0,0,1,.22.34c.06.27-.56.83-.83.75-.11,0-.25-.1-.27-.19a3.2,3.2,0,0,1-.17-.86c0-.14.14-.27.26-.48C77.05,218.06,77.3,218.17,77.52,218.32Zm29.8,20.07a1.08,1.08,0,0,1,.32.59h0c-.45.39-.75.47-1.18.27a1.71,1.71,0,0,1-.29-.16.53.53,0,0,1,0-.33,1.2,1.2,0,0,1,.2-.37.76.76,0,0,1,.91,0ZM59.78,219.21c-.06-.19-.09-.4-.14-.62a1.13,1.13,0,0,1,.74-.52c.46,0,.52.41.61.73a.29.29,0,0,1-.09.25,5,5,0,0,1-.73.37A.33.33,0,0,1,59.78,219.21Zm21-.74c.09.1.2.17.32.28,0,.09-.08.17-.11.26-.13.39-.26.49-.61.42h0c-.32-.07-.63-.17-.66-.58a.87.87,0,0,0-.1-.24,1.39,1.39,0,0,1,.8-.48l.11,0C80.57,218.22,80.65,218.35,80.75,218.47Zm-6.5-3.25a.38.38,0,0,1,0,.33,1.55,1.55,0,0,1-.26.37l-.39-.17a.84.84,0,0,1-.06.24.24.24,0,0,1-.35,0c-.14-.18-.26-.37-.38-.55l.72-.88A1.33,1.33,0,0,1,74.25,215.22ZM66,217.09c0,.08-.06.19-.1.3s-.14.3-.24.35a.66.66,0,0,1-.3,0,1.16,1.16,0,0,1-.32-.08c-.32-.13-.52-.39-.44-.61a.77.77,0,0,1,.4-.49.6.6,0,0,1,.36-.06A.68.68,0,0,1,66,217.09Zm33.89,12.18c-.14-.22-.38-.39-.36-.71s.09-.4.38-.48l.47-.1c.35.26.35.26.54.79C100.66,229.15,100.39,229.45,99.85,229.27Zm4.73,11.63a3.11,3.11,0,0,1-.22-.4,1,1,0,0,1,.51-.69,3.32,3.32,0,0,1,.54.17.61.61,0,0,1,0,1.09A.57.57,0,0,1,104.58,240.9ZM79.22,220.41c0,.11.12.22.19.35l-.18,0a4.89,4.89,0,0,1-1,.14.24.24,0,0,1-.24-.27,1.37,1.37,0,0,1,.34-.91h.81a3,3,0,0,0,.09.56Zm-4.69-3.47c.06-.1.13-.19.19-.28a.55.55,0,0,1,.65-.26.59.59,0,0,1,.44.54,3.37,3.37,0,0,1,0,.55s-.05.07-.09.12a1.48,1.48,0,0,1-1-.15A.33.33,0,0,1,74.53,216.94Zm-3,.65-.47-.5.91-.64a.28.28,0,0,1,.38,0,1.07,1.07,0,0,1,.25.32c0,.16.12.32-.1.47s0,.34-.27.42A.59.59,0,0,1,71.55,217.59Zm8.39-1.52c-.27-.44-.27-.44-.2-1.12.16-.11.32-.28.55-.2a1.23,1.23,0,0,1,.26.12.91.91,0,0,1,.47.64l-.45.56h-.63Zm12.59,10.42a6.47,6.47,0,0,1,0,1.26,1.6,1.6,0,0,1-.34,0c-.22,0-.42-.15-.66-.05s-.25-.16-.19-.22c.28-.24,0-.56.12-.86C91.8,226.48,92.08,226.12,92.53,226.49Zm-18.26-7.62a1,1,0,0,1-.33.59.47.47,0,0,1-.71-.08A4.78,4.78,0,0,1,73,219a.79.79,0,0,1,.83-.85C74.08,218.35,74.08,218.35,74.27,218.87Zm29.8,19.55a.56.56,0,0,1,0,.7,1.09,1.09,0,0,1-.69.45,5.23,5.23,0,0,1-.42-.39.66.66,0,0,1-.13-.67.68.68,0,0,1,.29-.22l.36-.1A.46.46,0,0,1,104.07,238.42ZM72.91,212.14a.73.73,0,0,1,.33-.64.36.36,0,0,1,.2,0,1.49,1.49,0,0,1,.4.11c.58.24.51.43.3.84l-.32.52-.68-.33A.44.44,0,0,1,72.91,212.14Zm12.93,11.93a.73.73,0,0,1-1.25.05,2.42,2.42,0,0,1-.18-.36c.16-.21.29-.39.44-.57a.24.24,0,0,1,.4,0,1.58,1.58,0,0,0,.48.38A.34.34,0,0,1,85.84,224.07Zm6.93-1.59c0-.08.1-.15.14-.23s.16-.21.14-.28c-.08-.24,0-.34.22-.43s.25-.1.35-.14c.64.43.72.69.42,1.33A1.28,1.28,0,0,1,92.77,222.48Zm11.73,14.63a1,1,0,0,1,.41-.56,3,3,0,0,1,.45-.24,2.54,2.54,0,0,1,.23.2.68.68,0,0,1,0,1.08l-.06,0a.33.33,0,0,1-.43.06.71.71,0,0,0-.26-.06A.37.37,0,0,1,104.5,237.11ZM64.33,221.76a.37.37,0,0,1,0,.6,1,1,0,0,1-.69.28l-.43,0a3.45,3.45,0,0,1-.2-.5.44.44,0,0,1,.28-.56.58.58,0,0,0,.14,0C63.93,221.26,64,221.45,64.33,221.76Zm-2.09-4.06c-.36,0-.62-.21-1-.46a2.66,2.66,0,0,1,.13-.45.86.86,0,0,1,1.34,0,.5.5,0,0,1-.08.62C62.52,217.53,62.38,217.61,62.24,217.7Zm7,2.21a1.2,1.2,0,0,1-.11,1,.35.35,0,0,1-.52.16l-.14-.09-.31-.22a.52.52,0,0,1-.23-.6.6.6,0,0,1,.59-.4l.14,0C68.88,219.8,69.07,219.86,69.26,219.91Zm-3.91-.18c.11,0,.12,0,.4.28v.86l-.51.34a1.24,1.24,0,0,1-.78-.91c.14-.12.28-.22.41-.35a.69.69,0,0,1,.42-.22ZM60,222.46a4.23,4.23,0,0,1-.25-.42,2,2,0,0,0,0-.26c0-.19,0-.4.22-.47a.83.83,0,0,1,.79.07,1.67,1.67,0,0,1,.23.23c-.05.24-.23.41-.15.67s-.15.37-.33.47-.33,0-.48-.18A.44.44,0,0,1,60,222.46Zm31.89,2a3.89,3.89,0,0,1-.54-.27.43.43,0,0,1-.18-.63.59.59,0,0,1,.5-.31h.73c.07.23.1.4.17.57a.41.41,0,0,1-.11.49A.5.5,0,0,1,91.84,224.42Zm-14-7.51a1.79,1.79,0,0,1,.41-.53,1.34,1.34,0,0,1,.48-.17l.48.93,0,.05,0,.08a.43.43,0,0,1-.33.33,2.74,2.74,0,0,1-.81,0C77.92,217.55,77.77,217.1,77.87,216.91ZM88.65,223c.19.19.36.4.54.61,0,.22-.08.42-.12.63l-.59.3-.32-.44-.33-.39c.11-.22.2-.43.31-.63A.31.31,0,0,1,88.65,223Zm10.75,9.14a.34.34,0,0,1,.07-.44l.69-.44a2.69,2.69,0,0,1,.38.18c.06,0,.13.08.14.14s0,.3.07.45a2.34,2.34,0,0,0,.13.35,1,1,0,0,1-.66.26C99.82,232.69,99.62,232.41,99.4,232.17Zm2.08-1c-.27-1.09-.24-1.2.42-1.48l.62.49c0,.2,0,.42,0,.65a.33.33,0,0,1-.35.35C102,231.14,101.73,231.12,101.48,231.12ZM83.05,215.75a4.31,4.31,0,0,1-.19-.46l.72-.63c.62,0,.51.62.8.85a1.08,1.08,0,0,1,0,.17c-.1.24-.22.43-.54.43A.74.74,0,0,1,83.05,215.75Zm-20.28,8.12a.29.29,0,0,1-.17.4c-.2.06-.4.1-.65.16-.28-.1-.51-.23-.57-.55,0-.12-.16-.21-.28-.35.14-.08.26-.14.36-.21s.21-.17.34-.28a.84.84,0,0,0,.27.13C62.5,223.22,62.58,223.61,62.77,223.87ZM89.27,220a.43.43,0,0,1,.07.51,2.25,2.25,0,0,1-.51.56.65.65,0,0,1-.61,0l-.31-.43a4.17,4.17,0,0,1,.23-.6A.72.72,0,0,1,89.27,220Zm-19.61-4.41a.83.83,0,0,1,0-.6.89.89,0,0,1,.4-.2.85.85,0,0,1,.74.18l.19.75a.63.63,0,0,1-.51.42.65.65,0,0,1-.74-.41A.59.59,0,0,1,69.66,215.55Zm-7.06,4.5a.45.45,0,0,1,0,.78,1.28,1.28,0,0,1-.66.15c-.53,0-.64-.12-.62-.65a.45.45,0,0,1,.26-.44l.38-.17C62.15,219.83,62.38,219.92,62.6,220.05Zm39.93,13.8a.91.91,0,0,1-.33.6.6.6,0,0,1-.9-.34c0-.07,0-.14,0-.21-.1-.47,0-.57.42-.72S102.54,233.28,102.53,233.85Zm-4.48-6.36a.69.69,0,0,1,.08-1.06,1.79,1.79,0,0,1,.39-.13,1.54,1.54,0,0,1,.36,0c.12.33.24.63.34.89a1.71,1.71,0,0,1,0,.18C98.69,227.9,98.61,227.91,98.05,227.49Zm7.83,16.38c-.08.19-.16.37-.25.6a1,1,0,0,1-.7-.08,4,4,0,0,1-.36-.17c-.14-.12,0-.26,0-.38s-.08-.18-.07-.26a.4.4,0,0,1,.17-.27,2.52,2.52,0,0,1,.65-.18A.57.57,0,0,1,105.88,243.87ZM60.73,226a3.53,3.53,0,0,1-.35.25A3.9,3.9,0,0,1,60,226a.61.61,0,0,1-.26-.67c0-.11.08-.21.11-.32.17-.49.4-.56.8-.26A.75.75,0,0,1,60.73,226Zm25.84-6.53a7.67,7.67,0,0,1-.46-.62c.06-.13.11-.25.18-.37s.14-.23.21-.35l1,.12c0,.07.07.11.07.15a1.54,1.54,0,0,1-.52,1.11A.32.32,0,0,1,86.57,219.45Zm-15.7-1.12c.3.27.11.59,0,.93-.1,0-.21,0-.31.06l-.34.1a1.07,1.07,0,0,1-.64-.73c-.07-.24.07-.39.17-.57A1,1,0,0,1,70.87,218.33Zm13.91-.58c-.12-.23-.22-.42-.34-.63,0-.49.46-.62.81-.87l.41.36c.15.14.33.29.23.53s-.25.61-.64.63Zm6.22,7.6a2.59,2.59,0,0,1-.6.8c-.17.15-.29.13-.46,0l-.47-.43c.12-.29.26-.59.4-.92C90.43,224.71,90.81,224.83,91,225.35Zm-15.07-5.08a.68.68,0,0,1-.36.75.53.53,0,0,1-.69-.08c-.13-.12-.25-.26-.36-.38.13-.64.13-.64.7-.93A.77.77,0,0,1,75.93,220.27Zm33.6,22.38a4.33,4.33,0,0,1-.22-.61l0-.06a1.3,1.3,0,0,1,1-.64c.66.52.66.55.13,1.17a1,1,0,0,1-.63.29h0A.35.35,0,0,1,109.53,242.65Zm-.32.85a1.83,1.83,0,0,1,.14.45l-.13.11c-.36.27-.7.5-1.19.25l0,0,0-.09c0-.18-.09-.36-.13-.54a.15.15,0,0,1,0-.06c.23-.45.37-.55.72-.48l.13,0A.9.9,0,0,1,109.21,243.5Zm-5.1-11.75a1.39,1.39,0,0,1,.24.37,2.86,2.86,0,0,1-.23.41c-.16.17-.34.3-.6.15s-.5,0-.65-.31a.52.52,0,0,1,0-.63c.2-.29.43-.39.7-.28A2.54,2.54,0,0,1,104.11,231.75Zm-6.21-1.33a.29.29,0,0,1,0-.38c.47-.55.61-.57,1.1,0a1.08,1.08,0,0,1,.12.24,1.2,1.2,0,0,1,.08.27c-.11.18-.21.35-.33.52a.43.43,0,0,1-.54.15c-.17-.07-.34-.17-.28-.4S98,230.55,97.9,230.42Zm-3.17-6c-.13-.19-.25-.38-.36-.56A1.36,1.36,0,0,1,95,223c.69.3.77.43.72,1.2-.18.11-.37.23-.56.33A.33.33,0,0,1,94.73,224.45Zm-7.06-2.4c-.27.39-.44.9-1.1.69l-.48-.6a.92.92,0,0,1,.89-.8C87.24,221.5,87.58,221.61,87.67,222.05Zm-18.29-5.22a.39.39,0,0,1-.09.54l-.11.13-.19.23a.34.34,0,0,1-.53.08.12.12,0,0,1,0-.05,3.48,3.48,0,0,1-.39-.39c-.15-.21-.1-.34.18-.62l.16-.16c.1-.1.2-.18.29-.26a1,1,0,0,1,.72.49Zm41.75,30.28a1.12,1.12,0,0,1,.34-.64.49.49,0,0,1,.38-.16.53.53,0,0,1,.12,0,3.37,3.37,0,0,1,.59.32s.08.21,0,.24a.71.71,0,0,0-.22.33,3.46,3.46,0,0,1-.23.56C111.52,247.83,111.44,247.77,111.13,247.11Zm-3.61-1.63a.57.57,0,0,1-.27.6.39.39,0,0,1-.32.07,3.65,3.65,0,0,1-.69-.4c-.08-.07-.09-.25-.09-.39a.86.86,0,0,1,.64-.71.84.84,0,0,1,.73.63ZM66.46,219.11a3.2,3.2,0,0,1-.19-.37,4.48,4.48,0,0,1,.31-.62.5.5,0,0,1,.11-.13.38.38,0,0,1,.4,0h0a1.59,1.59,0,0,1,.62.53,2.81,2.81,0,0,1-.11.44.62.62,0,0,1-.61.47A.55.55,0,0,1,66.46,219.11Zm11.25-3.8a.52.52,0,0,1-.25.64,3,3,0,0,1-.31.15l-.22.13a1.7,1.7,0,0,1-.58-.51c-.18-.2-.15-.38.05-.59s.3-.33.47-.52A1.07,1.07,0,0,1,77.71,215.31Zm31.93,30.6a.66.66,0,0,1,.08-1l.32-.27.77.39v.87a.61.61,0,0,1-.39.24,1,1,0,0,1-.38,0A.71.71,0,0,1,109.64,245.91ZM101,235.5l-.59.76a1.09,1.09,0,0,1-.81-.51.49.49,0,0,1-.09-.38,3.41,3.41,0,0,1,.45-.67c.05-.06.22,0,.32,0A1.08,1.08,0,0,1,101,235.5ZM64.44,218.78c-.11.25-.21.5-.33.76a.85.85,0,0,1-.86-.28.76.76,0,0,1-.21-.7c0-.28.15-.48.46-.52a1.35,1.35,0,0,0,.29-.09C64.08,218.21,64.38,218.4,64.44,218.78Zm-5.15,1,.14.59a2,2,0,0,1-.4.69c-.26,0-.53-.07-.79-.12a.34.34,0,0,1-.27-.41,1.25,1.25,0,0,1,.65-.91C58.75,219.55,58.86,219.59,59.29,219.79Zm30.28,1.84c.74-.44.74-.44,1.3-.15a1.58,1.58,0,0,1-.07,1,.47.47,0,0,1-.67.28A.8.8,0,0,1,89.57,221.63ZM94.24,225a.35.35,0,0,1,.12.24.81.81,0,0,1-.51.82.68.68,0,0,1-.86-.21,4.15,4.15,0,0,1-.27-.41c.15-.19.28-.38.42-.56a.49.49,0,0,1,.49-.17A2,2,0,0,1,94.24,225Zm-10-5.72c-.16.08-.35.19-.56.28a.41.41,0,0,1-.58-.31,2.52,2.52,0,0,1,0-.48c0-.13,0-.26-.06-.44.37-.22.7-.41,1.06-.15S84.36,218.82,84.2,219.27Zm12,6.28a.31.31,0,0,1,0-.38,1.49,1.49,0,0,1,.38-.28c.22-.1.46-.16.72-.25a.62.62,0,0,1,.17.25c0,.18,0,.36.09.54s0,.47-.22.63-.48.3-.76.09a1.62,1.62,0,0,1-.18-.19C96.38,225.83,96.31,225.68,96.23,225.55Zm-13.68-5c-.09.25-.13.53-.45.65a.72.72,0,0,1-.56,0,.58.58,0,0,1-.32-.52v-.28a1,1,0,0,1,.14-.38.58.58,0,0,1,.15-.16.74.74,0,0,1,.71,0C82.59,220,82.68,220.15,82.55,220.53Zm11.61,7.8a1,1,0,0,1-.24,1.1.47.47,0,0,1-.76,0c-.08-.11-.16-.23-.23-.35a.85.85,0,0,1,.25-1,.44.44,0,0,1,.32,0C93.73,228.1,93.94,228.22,94.16,228.33ZM84.36,222a.33.33,0,0,1-.17.46,4.22,4.22,0,0,1-.7.27.39.39,0,0,1-.57-.31c-.12-.57-.06-.84.52-1.1.22-.11.38.08.62.09C84.17,221.65,84.28,221.83,84.36,222Zm-6.21-7.62-.39-.69.42-.65a.32.32,0,0,1,.47-.09l.61.48v.72A1.42,1.42,0,0,1,78.15,214.4ZM67.73,222a.33.33,0,0,1,0,.39,4.16,4.16,0,0,1-.55.38l0,0-.25.13a.39.39,0,0,1-.44-.26c-.09-.18-.17-.37-.26-.58s.08-.28.14-.43a.34.34,0,0,1,.38-.24,1.56,1.56,0,0,1,.57.16l.06,0A1.19,1.19,0,0,1,67.73,222Zm5-1.75a.3.3,0,0,1,0,.26c-.19.26-.39.5-.58.73a1.26,1.26,0,0,1-1-.7c.13-.29.24-.55.38-.89a.65.65,0,0,1,.59,0A1.27,1.27,0,0,1,72.73,220.24Zm13.28.12c.16.23,0,.48-.24.61a1.39,1.39,0,0,0-.19.06c-.16.09-.29.29-.49.19a1.75,1.75,0,0,1-.47-.39,1.29,1.29,0,0,1-.18-.35c0-.24.11-.46.16-.69l.82-.16C85.74,219.76,85.84,220.1,86,220.36Zm11.45,11.43c.06.17.15.33.24.53l-.44.32A.75.75,0,0,1,96,232c0-.2,0-.4,0-.7a1.69,1.69,0,0,1,.37,0,5.34,5.34,0,0,0,.53.09A.54.54,0,0,1,97.46,231.79Zm15,25.48a.6.6,0,0,1-.21.61c-.18.13-.21.14-.8.07a.89.89,0,0,1-.24-.68h-.14c0-.36.24-.52.47-.74.29.14.57.27.84.43C112.48,257,112.47,257.16,112.5,257.27Zm76.61-94.07a1.15,1.15,0,0,1,.48-.45,1.13,1.13,0,0,1,1.1,0l.07,0,.49.3.78.48.11.07c.41.26.81.53,1.21.82l.3.21a49.42,49.42,0,0,1,6.68,5.79c.4.41.8.83,1.19,1.25a67,67,0,0,1,5,6.13l.81,1.14.56.84c.24.34.47.69.7,1,1.17,1.81,2.26,3.68,3.27,5.58l.38.72.59,1.16c.14.29.28.57.41.86.59,1.21,1.13,2.43,1.64,3.67.18.43.35.87.52,1.31.51,1.29,1,2.58,1.37,3.87.14.41.26.82.38,1.23s.18.59.26.89c.29,1,.55,2.09.77,3.13.09.4.17.79.24,1.19a43.31,43.31,0,0,1,.78,6.35q0,.75,0,1.5s0,.07,0,.1a1.16,1.16,0,0,1-.45.91l-.07.06a1.15,1.15,0,0,1-.64.19,1.27,1.27,0,0,1-.34-.05,1.15,1.15,0,0,1-.8-1,.22.22,0,0,1,0-.08c0-.16,0-.34,0-.5s0-.3,0-.45c0-.37,0-.74,0-1.11s0-.65-.07-1l-.06-.7c0-.22,0-.44-.08-.66-.09-.78-.2-1.56-.33-2.35,0-.27-.11-.55-.16-.82-.25-1.34-.56-2.69-.94-4-.11-.4-.23-.8-.35-1.2q-.48-1.63-1.08-3.27c0-.16-.11-.31-.16-.46l-.42-1.1c-.48-1.22-1-2.44-1.56-3.65-.18-.41-.37-.81-.57-1.22l-.58-1.18c-.12-.23-.24-.47-.37-.7-.65-1.25-1.33-2.48-2-3.68l-.21-.35c-.3-.5-.61-1-.92-1.49l-.72-1.09-.51-.77-.68-1q-1.53-2.17-3.21-4.18c-.09-.11-.19-.22-.28-.34a51.65,51.65,0,0,0-8.89-8.39c-.46-.33-.91-.64-1.37-.95l-.8-.51L190,165l-.42-.26h0A1.16,1.16,0,0,1,189.11,163.2Zm3.94-7.49v0l-.05,0Zm7.14,72.81c.05.23.1.44.16.69-.19.15-.45.14-.66.24-.21-.26-.21-.26-.3-.89A1.55,1.55,0,0,1,200.19,228.52Zm-6.43-73.16c-.25,0-.43.23-.67.12a.74.74,0,0,1-.53-.54,1.57,1.57,0,0,1,.3-.2,1.41,1.41,0,0,1,.41,0C193.67,154.74,193.72,154.8,193.76,155.36Zm-.93-2.93v-.62a5.5,5.5,0,0,1,.41-.47.89.89,0,0,1,.36-.09c0,.24,0,.44,0,.64s.07.35.11.55C193.39,152.8,193.14,152.45,192.83,152.43Zm-2.49-.37.13.18-.15.17-.16.19c-.3-.14-.69,0-.89-.47l.27-.56c.17,0,.36-.1.56-.13s.18.13.17.18A.6.6,0,0,0,190.34,152.06Zm-26.08,11.67.92-.32-.27-.28c.73.18.78.35.35,1.14C164.93,164.14,164.55,164.12,164.26,163.73Zm30.18-9.59c-.05-.18-.12-.29-.1-.39a3.75,3.75,0,0,1,.2-.65c0-.13.2-.16.34-.1s.29.14.43.19.33.28.12.5A2,2,0,0,1,194.44,154.14Zm-18.51-5.57c.45-.23.87-.4,1.35,0V149a.76.76,0,0,1-.7.24C176.16,149.23,176.06,148.91,175.93,148.57Zm-6.46,6.81a.28.28,0,0,1,0-.19,2.51,2.51,0,0,1,.18-.4l.17-.06c.62,0,.62,0,.76.58a2.67,2.67,0,0,0,.09.26.61.61,0,0,1-.6.25,1.11,1.11,0,0,1-.42-.21A.41.41,0,0,1,169.47,155.38Zm-1.8,4.71a3.11,3.11,0,0,0,.49-.11,1.62,1.62,0,0,0,.33-.31c.45.16.34.57.46.91a1.42,1.42,0,0,1-.4.24.85.85,0,0,1-.6-.08A.46.46,0,0,1,167.67,160.09Zm31.76-4.71c-.08-.11-.16-.24-.24-.36a1.17,1.17,0,0,1,.37-.45l.11-.08c.84.21.87.27.59,1.06,0,0,0,0,0,.08A.57.57,0,0,1,199.43,155.38ZM187.7,216.93a1.4,1.4,0,0,1,0-.29.85.85,0,0,1,.9-.06.34.34,0,0,1,.16.41c-.09.25-.19.51-.3.76a.23.23,0,0,1-.35.08.68.68,0,0,1-.23-.25A4.81,4.81,0,0,1,187.7,216.93Zm-3.78-1.68c.07.23,0,.6-.22.68a1.35,1.35,0,0,1-.79.16c-.17,0-.23-.13-.27-.33l.43-.74.41,0A.39.39,0,0,1,183.92,215.25ZM168.74,167c-.18.13-.09.29-.07.47-.33.08-.5.51-.95.3a2.38,2.38,0,0,1,.53-1.48l.61.43C168.82,166.77,168.81,166.9,168.74,167Zm26.74-10.2a.44.44,0,0,1,0,.51.51.51,0,0,1-.53.23c-.21-.05-.42-.14-.66-.22a6.07,6.07,0,0,1,.26-.82c.06-.13.24-.19.38-.3A1.38,1.38,0,0,1,195.48,156.75Zm-24.36-2.87a2.43,2.43,0,0,0-.26-.3c.55-.6.68-.63,1.27-.29a.58.58,0,0,1,0,.19c0,.65-.18.82-.89.76A2.83,2.83,0,0,0,171.12,153.88Zm-4,7.54c.07.19.13.36.2.52a1,1,0,0,1-.48.69,1,1,0,0,1-.74-.51.49.49,0,0,1,.32-.7.75.75,0,0,1,.21,0Zm3.55.66a.57.57,0,0,1-.36.53.34.34,0,0,1-.26,0c-.12-.06-.21-.16-.33-.21a1.9,1.9,0,0,0-.37,0,.83.83,0,0,1,.31-.83.62.62,0,0,1,.7,0A.52.52,0,0,1,170.66,162.08Zm4.93-8.94c0,.18-.08.3-.14.45s-.06.13-.08.19c-.18.41-.26.4-.92.32a2.1,2.1,0,0,0,0-.56c-.13-.42,0-.6.43-.62H175A.83.83,0,0,1,175.59,153.14Zm6.55,60.39c.21.32.11.66-.25.73a1.89,1.89,0,0,1-.75,0,.45.45,0,0,1-.17-.72c.26-.19.52-.47.94-.3ZM196,155.62a1.76,1.76,0,0,1-.1-.31c0-.45.19-.66.55-.56a1.15,1.15,0,0,0,.52,0,.23.23,0,0,1,.24.35,3.8,3.8,0,0,1-.32.52C196.57,156.06,196.19,156.05,196,155.62Zm2.93,1.18c0,.06,0,.13,0,.2a.52.52,0,0,1-.3.57.62.62,0,0,1-.76-.09l-.28-.21a1.06,1.06,0,0,1,.82-.86A.38.38,0,0,1,198.89,156.8Zm-.55,72.82c.28.23.27.56.39.82,0,.14-.08.27-.11.4a.36.36,0,0,1-.34.29.45.45,0,0,1-.47-.22C197.41,230.24,197.54,229.91,198.34,229.62Zm2.09-71.33a.75.75,0,0,1,.07.72.82.82,0,0,1-.81.26.39.39,0,0,1-.2-.18c-.28-.56-.22-.75.32-1.05a1.06,1.06,0,0,1,.25-.1A4.27,4.27,0,0,1,200.43,158.29Zm-25.66-8.87.86,1c-.08.24-.29.37-.48.55l-.09,0a3,3,0,0,1-.5-.17.5.5,0,0,1-.25-.7c0-.08.07-.16.11-.25A.71.71,0,0,1,174.77,149.42Zm-8.6,22.19a3.21,3.21,0,0,1,.46-.29.37.37,0,0,1,.49.14,4.52,4.52,0,0,1,.2.72s0,.16-.09.17c-.24.08-.48.13-.68.18a.63.63,0,0,1-.58-.38A.47.47,0,0,1,166.17,171.61Zm0-6a2.24,2.24,0,0,0-.34-.23,1,1,0,0,1,.1-.21.85.85,0,0,1,1.09-.45.34.34,0,0,1,.22.49c-.15.28-.32.55-.5.86a1,1,0,0,1-.33-.14C166.35,165.9,166.3,165.75,166.21,165.66Zm2.71,24.73a.29.29,0,0,1,0,.42,1.41,1.41,0,0,1-.42.22.46.46,0,0,1-.54-.2c-.11-.16-.25-.31-.4-.49a1.5,1.5,0,0,1,.12-.27.55.55,0,0,1,.82-.17A3.12,3.12,0,0,1,168.92,190.39Zm30,36.53a.6.6,0,0,1-.73.73c-.21,0-.41,0-.5-.26a.7.7,0,0,1,0-.32,2.79,2.79,0,0,1,.15-.3.49.49,0,0,1,.63-.35A.6.6,0,0,1,198.89,226.92ZM194.23,224l.15-.84.53-.19.48.34c0,.07.05.13,0,.16a2.35,2.35,0,0,0-.21.42,1.51,1.51,0,0,0,0,.46A.81.81,0,0,1,194.23,224Zm-.37,1.44c-.18.6-.28.66-.88.45-.14-.05-.28-.12-.45-.2.11-.31.21-.59.32-.92a3,3,0,0,1,.61,0A.49.49,0,0,1,193.86,225.42Zm3.49,3.39a1.32,1.32,0,0,1-.76.63.35.35,0,0,1-.44-.23c0-.09,0-.18,0-.27-.14-.57-.14-.57.37-.82a.61.61,0,0,1,.13,0A.84.84,0,0,1,197.35,228.81Zm-25-71.76c0,.18-.23.42-.46.44a2.53,2.53,0,0,1-.55,0A.37.37,0,0,1,171,157a1.77,1.77,0,0,1,.4-.75,3.56,3.56,0,0,1,.58.18A.68.68,0,0,1,172.3,157.05Zm5.3-6.47a.42.42,0,0,1-.08-.3.81.81,0,0,1,.44-.66.43.43,0,0,1,.12-.05l.37-.11.46.34a.92.92,0,0,1-.4.82,2.1,2.1,0,0,1-.6.14A.42.42,0,0,1,177.6,150.58Zm-8.73,13.11c-.05.14-.08.3-.13.45a.26.26,0,0,1-.33.16,1.34,1.34,0,0,1-.77-.65,1.29,1.29,0,0,1,.58-.78,3,3,0,0,1,.38.09A.54.54,0,0,1,168.87,163.69Zm-1.19-6.6a.35.35,0,0,1,.16-.52l.62-.28a.58.58,0,0,1,.4.51,1.09,1.09,0,0,0,0,.26c.11.43,0,.56-.38.58S167.9,157.56,167.68,157.09Zm29,69-.7-.16c0-.15,0-.28,0-.41s.08-.18.06-.26-.1-.29,0-.43a.54.54,0,0,1,.58-.19c.15.18.29.33.41.49a.33.33,0,0,1,0,.49C197,225.77,196.85,225.91,196.7,226.08Zm-26-67.56a.39.39,0,0,1,0,.32.62.62,0,0,1-.53.45l-.76-.34c-.13-.33.09-.59.18-.86s.39-.23.55-.11A3.87,3.87,0,0,1,170.72,158.52Zm17.94,61.42c.09.24.16.43.25.65l-.31.46a.53.53,0,0,1-.15,0c-.72,0-.78,0-.76-.75a1.2,1.2,0,0,1,0-.27.35.35,0,0,1,.49-.3Zm5.38,2.59a.84.84,0,0,1-1,.12.62.62,0,0,1-.46-.53l.84-.71A1.22,1.22,0,0,1,194,222.53Zm1.38,4.6a1.89,1.89,0,0,1,0,.41.16.16,0,0,1-.06.12c-.1.08-.22.15-.36.24l-.76-.46a1.09,1.09,0,0,1,0-.26c0-.49.2-.71.68-.72a.39.39,0,0,1,.39.22A1.83,1.83,0,0,1,195.42,227.13Zm-8.18-8.67a.73.73,0,0,1-.26.84h-.39a.61.61,0,0,1-.59-.49.46.46,0,0,1,.06-.38,4.29,4.29,0,0,1,.45-.49C186.86,218,187.15,218.15,187.24,218.46Zm-20.91-49.25a.83.83,0,0,1,.28-1.36.35.35,0,0,1,.31.06,3.19,3.19,0,0,1,.37.43v.55a1.58,1.58,0,0,1-.72.42A.31.31,0,0,1,166.33,169.21Zm4.95,25.15-.36-.36c.16-.51.29-1,1-1,.55.59.55.59.24,1.19Zm0-3.31-.33-.54c.06-.21.1-.41.17-.6a.34.34,0,0,1,.44-.21c.15,0,.29.11.46.17-.12.38.26.41.41.58a.28.28,0,0,1-.23.32C171.89,190.87,171.59,191,171.26,191.05Zm11.08-40.75a.87.87,0,0,1-.53.5,3.47,3.47,0,0,1-.69.1c0-.22,0-.38,0-.53s-.05-.21,0-.26c.21-.23.44-.44.67-.65a.17.17,0,0,1,.14,0A.8.8,0,0,1,182.34,150.3Zm-17.77,19.42a.5.5,0,0,1,.38-.08,2,2,0,0,1,.52.17.33.33,0,0,1,.11.52l-.15.15-.52.49a1.9,1.9,0,0,1-.39-.23C164,170.31,164,170.18,164.57,169.72Zm21,47.69a.38.38,0,0,1-.12.16,1,1,0,0,1-.71.2.68.68,0,0,1-.49-.35c0-.14.08-.27.11-.4a.59.59,0,0,1,.85-.47A.67.67,0,0,1,185.57,217.41Zm-19.92-40.26c-.08.38-.29.5-.69.42l-.32-.06-.16-.25-.17-.22.35-.72a2.3,2.3,0,0,1,.36,0A.7.7,0,0,1,165.65,177.15Zm-.74-2.69-.64-1.07a1.83,1.83,0,0,1,.3-.27,3.85,3.85,0,0,1,.48-.16,1.09,1.09,0,0,1,.74.53A1.43,1.43,0,0,1,164.91,174.46Zm12.32-22.8a1.35,1.35,0,0,1,0,.72.75.75,0,0,1-.3.21.63.63,0,0,1-.43,0,.79.79,0,0,1-.59-.68l.5-.55c.11-.11.12-.11.62-.09C177.13,151.41,177.19,151.54,177.23,151.66Zm-3.3,4.12c-.52.07-1.05.21-1.4-.41.21-.26.19-.65.46-.89C173.58,154.71,174.12,155,173.93,155.78ZM192.09,154a.52.52,0,0,1-.52.25l-.18-.07-.07,0c-.56-.24-.86-.35-.24-1.1a.48.48,0,0,1,.11-.09h.4c.28,0,.27,0,.35.28,0,.08.05.18.1.22C192.31,153.65,192.15,153.85,192.09,154Zm-4.53-3.54a1.31,1.31,0,0,1,0-.28c0-.13,0-.27,0-.42.43-.16.83-.33,1.21.28,0,.11,0,.29,0,.48s-.13.39-.44.41a1.94,1.94,0,0,1-.34,0A.57.57,0,0,1,187.56,150.49Zm9.67,7.79a1.48,1.48,0,0,1,0,.21.67.67,0,0,1-.82.66.34.34,0,0,1-.28-.27c-.06-.28-.11-.58-.17-.87a.77.77,0,0,1,.89-.18A.51.51,0,0,1,197.23,158.28Zm-31.11.85c-.11-.15-.2-.31-.29-.46.07-.28.3-.41.47-.59a.43.43,0,0,1,.56-.1.39.39,0,0,1,.24.5,1.51,1.51,0,0,0,.08.58c-.24.28-.56.2-.84.22A.35.35,0,0,1,166.12,159.13Zm23.08,59.68a3.87,3.87,0,0,0,.21-.34c.06-.12.1-.24.14-.34a.52.52,0,0,1,.61.07,1.67,1.67,0,0,1,.4.44.41.41,0,0,1-.15.49l-.56.39C189.44,219.48,189.32,219.16,189.2,218.81Zm-19.7-29.66-.24-.72a1.6,1.6,0,0,1,.65-.4c.26-.1.41,0,.59.2l0,.07.26.38a2.51,2.51,0,0,1-.13.28c-.26.43-.34.46-.82.3Zm15.09,25c-.13-.12-.28-.22-.44-.34a1.5,1.5,0,0,0,.2-.43c0-.4.28-.46.56-.52a1.18,1.18,0,0,1,.63,1.11c-.07.07-.14.16-.22.23C185,214.51,184.89,214.49,184.59,214.2Zm-12-61.94c-.11-.26.06-.42.19-.59a.69.69,0,0,0,.14-.25c0-.16.29-.22.48-.16s.46.21.48.51c0,.12,0,.23,0,.49l-.41.32-.14.11-.11.09a5.33,5.33,0,0,1-.51-.31A.47.47,0,0,1,172.63,152.26Zm-2.78,39.09a2.3,2.3,0,0,1,1,.51c-.15.23-.27.45-.43.65a.5.5,0,0,1-.78.05.66.66,0,0,1-.1-1.06A.42.42,0,0,1,169.85,191.35Zm12.81,20.79c-.11-.49-.1-.51.4-.63a3.45,3.45,0,0,1,.46-.12.35.35,0,0,1,.42.34c0,.2,0,.41,0,.71l-1.17.28C182.73,212.52,182.7,212.32,182.66,212.14Zm-15.34-36.77-.45.73a.69.69,0,0,1-.75-.19c-.12-.43.16-.82.18-1.24,0,0,.1-.09.17-.16l.63.21C167.17,174.93,167.24,175.12,167.32,175.37Zm.27,1.7a3.87,3.87,0,0,0,.21-.34c.06-.12.11-.25.16-.36.26-.16.46,0,.66.09a.89.89,0,0,1,.43.52.33.33,0,0,1-.12.37,6.24,6.24,0,0,1-.64.49A2.24,2.24,0,0,1,167.59,177.07Zm1.72,8.09a1.63,1.63,0,0,1,.09-.19c.22-.43.5-.5.88-.19.18.14.38.28.37.55a.89.89,0,0,1-.27.62.09.09,0,0,1-.06,0,.81.81,0,0,1-.82-.22A.5.5,0,0,1,169.31,185.16Zm14.55-33.76.2.35a1.38,1.38,0,0,1-.48.91.61.61,0,0,1-.87-.36,1.35,1.35,0,0,1,.23-.9Zm-.19-3.27c.15.2.28.41.42.63a3.45,3.45,0,0,1-.23.28.67.67,0,0,1-1.17-.28l-.28-.7,1.08-.1A1.41,1.41,0,0,1,183.67,148.13ZM166,178.84a.9.9,0,0,1,.13-.6.88.88,0,0,1,.57-.38,1.3,1.3,0,0,1,.64.91c.06.18,0,.3-.17.42-.36.27-.7.1-1-.06A.5.5,0,0,1,166,178.84Zm3.14,5a2,2,0,0,1-.46.49c0,.05-.18,0-.26,0-.4-.09-.51-.17-.88-.62A1,1,0,0,1,168,183l.86.26A.39.39,0,0,1,169.1,183.83Zm21.62,38.29c.06.27,0,.42-.31.52a1.73,1.73,0,0,0-.37.16c-.27.16-.4.14-.55-.13a5.13,5.13,0,0,1-.25-.54c.06-.49.53-.46.78-.69A.82.82,0,0,1,190.72,222.12Zm-22.13-42.6c.38.33.22.84.4,1.22a.89.89,0,0,1-.84.28c-.23,0-.37-.15-.51-.37a.71.71,0,0,0,.07-.22C167.68,179.83,168,179.55,168.59,179.52Zm-.9-9.19c-.09-.38.06-.65.42-.7a2.84,2.84,0,0,1,.51,0,3,3,0,0,0,.24.48.4.4,0,0,1,0,.61l0,.06c-.31.41-.47.44-1,.15C167.76,170.73,167.73,170.53,167.69,170.33Zm17.42-20.73.43.38c0,.21,0,.39-.07.57a.55.55,0,0,1-.58.54,3.62,3.62,0,0,1-.47,0c-.28-.76-.28-.76,0-1.3Zm5.87,71a.52.52,0,0,1,.23-.8,3.16,3.16,0,0,1,.52-.17,2.15,2.15,0,0,1,.37.19c.06.05.14.17.11.22-.09.21.11.34.11.54-.3.29-.54.7-1.08.49C191.15,220.91,191.06,220.75,191,220.59Zm-21.7-38.54a1.4,1.4,0,0,1,.11-.53c.11-.26.25-.28.55-.18a3.12,3.12,0,0,0,.53.11c.25.06.34.21.22.44s-.07.51-.34.64l-.33.16C169.51,182.7,169.27,182.47,169.28,182.05Zm-1.9,6.92a1.07,1.07,0,0,1-.72.48.37.37,0,0,1-.42-.25c-.06-.17-.1-.35-.16-.52-.13-.38.1-.7.59-.69a3,3,0,0,1,.55.19A.58.58,0,0,1,167.38,189Zm12-40.11a6,6,0,0,0,0-.6,1.18,1.18,0,0,0,.7-.36h0a.3.3,0,0,1,.37-.1.43.43,0,0,1,.23.39,2.29,2.29,0,0,1-.15.94c-.09.24-.25.35-.48.28a2.5,2.5,0,0,1-.55-.26l0,0A.26.26,0,0,1,179.33,148.86Zm-13.27,36a.38.38,0,0,1,.46-.19,2.89,2.89,0,0,1,.89.56,1,1,0,0,1-.49.82.46.46,0,0,1-.56,0A1,1,0,0,1,166.06,184.86Zm4.49,10.95a.64.64,0,0,1-.75.18,2.18,2.18,0,0,0-.34-.14c-.07-.27-.12-.48-.19-.74.09-.08.2-.16.29-.25.42-.41.5-.42.94-.05A.62.62,0,0,1,170.55,195.81Zm-1.83-22.75c.16.28.5.49.37.93-.26.11-.48.23-.72.32a.35.35,0,0,1-.42-.13c-.34-.42-.36-.53-.28-1.15a1.82,1.82,0,0,1,.87-.06A.24.24,0,0,1,168.72,173.06Zm-3.1-6.56c.06.23.11.43.16.65s-.16.26-.25.39c-.2.29-.31.33-.62.15a6.65,6.65,0,0,1-.62-.41c0-.3.32-.49.2-.8,0,0,.16-.17.26-.19A1,1,0,0,1,165.62,166.5Zm.43,15.93a.6.6,0,0,1,.27-1,.65.65,0,0,1,.82.11c.05.18.12.37.17.57a.43.43,0,0,1-.13.5c-.18.13-.39.29-.63.16A1.74,1.74,0,0,1,166.05,182.43Zm14.55-30.85a.42.42,0,0,1,.06.61c0,.08-.12.14-.16.22-.23.39-.37.45-.75.26a2.24,2.24,0,0,1-.34-.23l-.13-.1c0-.26.05-.45.07-.69l.43-.31.23-.18C180.2,151.3,180.42,151.42,180.6,151.58Zm6.55,63.3a.69.69,0,0,1,0,.94l-.5.36a.28.28,0,0,1-.41-.1,3.75,3.75,0,0,1-.33-.9.86.86,0,0,1,.17-.5.2.2,0,0,1,.3-.05l.37.3Zm5.22,8.92a3.11,3.11,0,0,1-.3.44,3.56,3.56,0,0,1-.47.34c-.32-.11-.67-.21-.71-.62a1.16,1.16,0,0,1,.16-.65c.1-.16.31-.25.46-.37A1.11,1.11,0,0,1,192.37,223.8ZM179.1,153.52a1,1,0,0,1,0,.41L179,154c-.26.2-.59.18-.87.29a.37.37,0,0,1-.3-.12s0,0,0,0a5,5,0,0,1-.34-.48,4.34,4.34,0,0,0,.3-.46.43.43,0,0,1,.35-.26h.22a1.43,1.43,0,0,1,.62.25A.57.57,0,0,1,179.1,153.52ZM165.69,180a.46.46,0,0,1-.11.71l-.28.2-.29.24a3.52,3.52,0,0,1-.45-.3.71.71,0,0,1,.06-1.17,3.39,3.39,0,0,1,.5-.24A7.64,7.64,0,0,1,165.69,180Zm3.15,6.56a7.29,7.29,0,0,1,.32.83c-.29.15-.51.28-.74.38a.58.58,0,0,1-.66-.21.75.75,0,0,1,0-1l.19-.19C168.27,186.12,168.54,186.05,168.84,186.58ZM189,153.74l-.39.44c-.3.38-.62.34-.83-.07a3.48,3.48,0,0,1-.43-1.06.34.34,0,0,0-.36-.27l-.6,0-.52-.58c-.24-.27-.19-.47.13-.65a1.11,1.11,0,0,1,.87-.1c.15,0,.29.12.48.19v1c.13.22.27.32.43.27a.73.73,0,0,1,.75.21A1.3,1.3,0,0,1,189,153.74Zm23.8,80.73s.11,0,.11.05a2.66,2.66,0,0,1,0,.28l-.09,0c0-.09-.09-.18-.12-.27S212.81,234.48,212.84,234.47ZM207.5,162a2.33,2.33,0,0,1-.79.25.74.74,0,0,1-.67-.28.25.25,0,0,1,0-.19.21.21,0,0,1,.15-.11,2.48,2.48,0,0,1,.39,0l.18-.34a1.25,1.25,0,0,1,.19,0C207.22,161.45,207.29,161.73,207.5,162Zm-3.4.05a.52.52,0,0,1-.6.35c-.33,0-.7.12-.92-.32a.46.46,0,0,1,.41-.36A1.13,1.13,0,0,1,204.1,162Zm10.44,12-.26-.31a4,4,0,0,1,.27-.33c.22-.22.38-.21.82-.08a5.11,5.11,0,0,1,.13.59.31.31,0,0,1-.28.33,1.51,1.51,0,0,1-.3,0A.53.53,0,0,1,214.54,174Zm12.51,37.67a4.89,4.89,0,0,1,.08.57.32.32,0,0,1-.37.38,1,1,0,0,1-.45-.14.53.53,0,0,1-.18-.71c.08-.17.16-.34.39-.37Zm-9.94,24.05a.52.52,0,0,1-.81.17,3.18,3.18,0,0,1-.36-.37c0-.09.05-.14.06-.18a.54.54,0,0,1,.87-.31A.49.49,0,0,1,217.11,235.71ZM222.24,190c0,.11,0,.24,0,.32v0a.66.66,0,0,0-.11.42c0,.23-.17.32-.38.23l-.6-.32c0-.27.05-.52.08-.75a.49.49,0,0,1,.54,0l.13,0Zm3.18,10.8a.36.36,0,0,1-.48.26,2,2,0,0,1-.36-.17c-.06-.21-.13-.4-.18-.6a.38.38,0,0,1,.44-.45A.75.75,0,0,1,225.42,200.79Zm-13.11-27.22-.1.1-.21.23a2.49,2.49,0,0,0-.2.4c-.62-.17-.62-.17-.83-.84l.48-.5c.15.14.26.26.39.37a.71.71,0,0,0,.26.06A.22.22,0,0,1,212.31,173.57Zm15.56,23.85c0-.19,0-.35,0-.51a.45.45,0,0,1,.29-.43h0c.41-.22.57-.15.67.3l.1.36c0,.08,0,.16.07.26a2.35,2.35,0,0,1-.57.17A1.94,1.94,0,0,1,227.87,197.42Zm1.5,7.93a.51.51,0,0,1,0-.32.44.44,0,0,1,.81-.07,4.3,4.3,0,0,1,.25.48c-.07.2-.14.39-.23.62a3.64,3.64,0,0,0-.36-.16c-.1,0-.22,0-.33,0A4.25,4.25,0,0,1,229.37,205.35Zm-23.59-41.78a.3.3,0,0,1-.13.41,2.5,2.5,0,0,1-.25.09c-.59.2-.64.17-1-.47.12-.13.2-.23.3-.33.3-.28.51-.27.82,0A1.44,1.44,0,0,1,205.78,163.57Zm14.73,64.9c.25.28.11.55-.1.83h0l-.32,0a1,1,0,0,1-.55-.14.5.5,0,0,1-.2-.21c-.07-.13,0-.29.14-.44l.1-.09.06,0A.85.85,0,0,1,220.51,228.47Zm-11.42-61.41a.8.8,0,0,1-1,.42c-.09-.13-.18-.23-.26-.35-.21-.34-.06-.68.34-.68a2.53,2.53,0,0,1,.79.19A.3.3,0,0,1,209.09,167.06Zm20.38,41.8c.08-.08.18-.14.3-.24l-.12-.21-.14-.26c.48-.31.7.24,1.11.22,0,.14-.07.25-.1.37l-.12.43c-.21.08-.42.17-.64.23a.31.31,0,0,1-.35-.16A.3.3,0,0,1,229.47,208.86ZM207,231.59c.11.22.22.42.31.61a.49.49,0,0,1-.42.42,1.1,1.1,0,0,1-.54,0,.45.45,0,0,1-.34-.4.59.59,0,0,1,.28-.52A.86.86,0,0,1,207,231.59Zm-.34-67,.86.2c-.18.32-.31.6-.48.86a.53.53,0,0,1-.77,0l-.41-.43C206.41,165.07,206.41,165.07,206.63,164.62Zm16.78,23.51c.29,0,.44.18.39.51a.25.25,0,0,1,0,.09,2.85,2.85,0,0,1-.16.59.42.42,0,0,1-.27.17.29.29,0,0,1-.22-.11c-.13-.19-.25-.38-.36-.58a.43.43,0,0,1,.38-.67h.25Zm-12.67-19.47c0,.2-.07.32-.24.38h0c-.24.07-.46.21-.72.1a1.15,1.15,0,0,1-.25-.12c-.26-.15-.27-.32-.06-.53l.24-.24a.37.37,0,0,1,.53-.1l.06,0C210.45,168.34,210.6,168.52,210.74,168.66Zm-1.89,64.77a.81.81,0,0,1,.11.13,1.74,1.74,0,0,1-.71,1,1.35,1.35,0,0,1-.61-.79c.15-.13.26-.24.37-.35C208.34,233.1,208.51,233.09,208.85,233.43Zm16.76-9.7c0,.36,0,.48-.38.6l-.29.09-.48-.42a.32.32,0,0,1,0-.56,2.47,2.47,0,0,1,.36-.19A.55.55,0,0,1,225.61,223.73Zm-21.22,6.75v-.17c.25-.32.51-.53,1-.36a4.7,4.7,0,0,1,.19.6.35.35,0,0,1-.25.43C204.65,231.25,204.5,231.17,204.39,230.48Zm8.5-58.19a1,1,0,0,1-.14-.59.39.39,0,0,1,.38-.41c.3,0,.47.05.56.27s0,.18.08.26a.59.59,0,0,1-.29.84A.9.9,0,0,1,212.89,172.29Zm-8.42-11.54c-.12-.41.21-.7.34-1.06l.8.07c.22.94-.11.92-.77,1.08a.46.46,0,0,1-.2,0A.43.43,0,0,1,204.47,160.75Zm10,9.75a.69.69,0,0,1,.11-.85,1.58,1.58,0,0,0,.43.09c.31,0,.44.19.54.44a.39.39,0,0,1-.13.54A.59.59,0,0,1,214.5,170.5ZM225.58,197l-.33.67-.61,0c-.08-.22-.15-.41-.23-.59a2,2,0,0,0,.23-.46c0-.2.1-.35.3-.41A1.29,1.29,0,0,1,225.58,197Zm-12.33-22.29c.25.26.47.54.72.82a1,1,0,0,1-.75.45l-.12,0a.25.25,0,0,1-.31-.2,5,5,0,0,1,0-.77,1.09,1.09,0,0,0,0-.18A.3.3,0,0,1,213.25,174.69Zm-1.14,58.55a2.84,2.84,0,0,1,.2.45.54.54,0,0,1-.47.64h-.28c-.34-.05-.62-.27-.6-.47a.9.9,0,0,1,.59-.61A3.45,3.45,0,0,1,212.11,233.24Zm.09-62.92a1.39,1.39,0,0,0,.12.34l0,0a.55.55,0,0,1-.18.13,1.88,1.88,0,0,1-.94-.08l-.08-.05a.29.29,0,0,1-.1-.13.68.68,0,0,1,0-.2.87.87,0,0,1,.26-.49.45.45,0,0,1,.57,0,1.71,1.71,0,0,1,.23.13A.42.42,0,0,1,212.2,170.32Zm12,20.3a1,1,0,0,1,.56-.79,1.07,1.07,0,0,1,.38-.08c.41.37.47.44.31.86,0,.07-.06.16-.1.27C225,190.91,224.59,191,224.24,190.62Zm-18.59,42.85c0,.19-.07.39-.12.59a1.3,1.3,0,0,1-.19.37.38.38,0,0,1-.55,0,.5.5,0,0,1-.08-.12l-.25-.51c.07-.21.12-.36.2-.55l.59,0A.39.39,0,0,1,205.65,233.47Zm7-1.33a1.12,1.12,0,0,1,.47-.67l.65.12c.07.26.13.47.19.72-.11.34-.42.36-.75.36S212.75,232.4,212.63,232.14Zm8.63-51.36a3,3,0,0,0-.41-.32,1.32,1.32,0,0,1,.77-.8l.51.34v.7l-.49.42C221.39,181.13,221.38,180.9,221.26,180.78Zm-17.61,50.73.32.31v.69a1,1,0,0,1-1,.24c-.07-.32-.13-.61-.2-.88A1.14,1.14,0,0,1,203.65,231.51Zm22.41-35.73a.67.67,0,0,1,0-.27c0-.43.05-.58.3-.71l.17-.08a.37.37,0,0,1,.38.06,1.12,1.12,0,0,1,.24.79.41.41,0,0,1,0,.16.67.67,0,0,1-.82.29A.43.43,0,0,1,226.06,195.78Zm-23.4-37.16c.12-.19.23-.38.36-.56a.3.3,0,0,1,.37-.1,1,1,0,0,1,.71.75C203.5,159.39,203.22,159.37,202.66,158.62Zm1.2,69.87a.4.4,0,0,1,0,.6,2.59,2.59,0,0,1-.52.34.29.29,0,0,1-.37-.1c-.11-.14-.21-.3-.31-.45a.32.32,0,0,1,0-.39,1.08,1.08,0,0,1,.65-.38Zm11.52,4.57.35.68c-.12.19-.25.37-.38.56l-.35,0c-.65,0-.65-.37-.55-.88a.34.34,0,0,1,.19-.18C214.87,233.19,215.11,233.14,215.38,233.06Zm-1.76,1.72a.93.93,0,0,1,.34,1c-.28.31-.63.25-1,.24a.34.34,0,0,1-.34-.2.42.42,0,0,1,.08-.51,4.35,4.35,0,0,1,.57-.38A1.79,1.79,0,0,1,213.62,234.78Zm12.29-35.91a1,1,0,0,1,.45-.8c.15-.1.31-.06.76.16v.91C226.48,199.36,226.31,199.32,225.91,198.87Zm.35-6.13a2.14,2.14,0,0,1,0-1.32h0c.63-.15.69-.12,1.2.66a1.55,1.55,0,0,1-.33.24C226.84,192.49,226.55,192.59,226.26,192.74Zm-6.82-10.65a.34.34,0,0,1,.17-.46.86.86,0,0,1,.79-.14.73.73,0,0,1,.11.93c-.26.44-.42.48-.93.19C219.53,182.44,219.48,182.27,219.44,182.09Zm1.73,2.13c-.3-.2-.33-.35-.13-.67,0-.07.11-.15.1-.22s0-.25.11-.29a.65.65,0,0,1,.39,0,1.87,1.87,0,0,1,.46.29c.24.17.26.33,0,.53s-.27.5-.76.46A.91.91,0,0,1,221.17,184.22ZM216,175.28a.33.33,0,0,1,.17-.46,3.1,3.1,0,0,1,.46-.15.8.8,0,0,1,.67.64,3.54,3.54,0,0,1-.12.42c-.1.27-.27.33-.54.22A1.14,1.14,0,0,1,216,175.28Zm11.46,25.1c.14-.35.49-.47.77-.65a.75.75,0,0,1,.47,0c.09,0,.17.12.26.2-.27.44-.32,1-1,1.12A1,1,0,0,1,227.44,200.38Zm-.36,8.84a.41.41,0,0,1-.74.15,8.37,8.37,0,0,1-.49-.73l.44-.52.58.07C227.26,208.49,227.11,208.89,227.08,209.22Zm-.1,12.39c.35.23.38.5.14.87l-.25.33-.89-.43a1.9,1.9,0,0,1,.18-.78.33.33,0,0,1,.39-.19A1.69,1.69,0,0,1,227,221.61Zm-6.25-43.07c.12.32-.24.45-.41.65a.4.4,0,0,1-.5.11c-.12-.05-.26-.08-.38-.14a.3.3,0,0,1-.15-.41c.08-.18.17-.36.3-.63a1.41,1.41,0,0,1,.46,0C220.31,178.21,220.64,178.27,220.73,178.54Zm6.45,39.78a.62.62,0,0,1,.22.34.36.36,0,0,1-.08.26c-.17.27-.55.55-.75.49s-.24-.1-.27-.19a4.22,4.22,0,0,1-.17-.86s0,0,0,0a1.92,1.92,0,0,1,.25-.44C226.71,218.06,227,218.17,227.18,218.32Zm-9.88,13.3.13.17a1.11,1.11,0,0,0-.43.79c0,.06-.11.16-.18.19a.68.68,0,0,1-.74-.38.8.8,0,0,1,.26-.87A.86.86,0,0,1,217.3,231.62ZM215.79,177a3.12,3.12,0,0,1-.4.41.53.53,0,0,1-.17.08.6.6,0,0,1-.7-.3.89.89,0,0,1-.11-.53.39.39,0,0,1,.23-.36l.16,0C215.32,176.24,215.44,176.33,215.79,177Zm3.06,53.14c0,.09.07.17.12.3a3.74,3.74,0,0,1-.32.49.37.37,0,0,1-.23.14.5.5,0,0,1-.5-.13,1,1,0,0,1-.3-.87l.17-.1.33-.17C218.46,229.69,218.7,229.8,218.85,230.18Zm-9.95.35c0,.08-.05.17-.08.28l-.55.29a.91.91,0,0,1-.64-.54.88.88,0,0,1,.77-.8,1.52,1.52,0,0,1,.22.08C209,230.07,209.05,230.09,208.9,230.53ZM226,205a1.41,1.41,0,0,0,.45-.11c.35-.2.55,0,.75.24a.37.37,0,0,1,.09.25c0,.27-.16.41-.36.53s-.41.23-.63,0l-.11-.08C225.69,205.57,225.68,205.57,226,205Zm4.43,13.45c.09.1.2.17.32.28a2.77,2.77,0,0,0-.1.26l-.06.13a.42.42,0,0,1-.58.29c-.31-.07-.63-.17-.66-.58a.85.85,0,0,0-.09-.24l0,0a1.43,1.43,0,0,1,.88-.48A4.17,4.17,0,0,0,230.41,218.47Zm-11.51,15a.43.43,0,0,1-.11.55.68.68,0,0,1-1.11,0c-.08-.08-.15-.18-.21-.25a.89.89,0,0,1,.88-.74C218.66,233.07,218.79,233.26,218.9,233.5Zm1.66-1h0a1,1,0,0,1-.76.17.56.56,0,0,1-.51-.4.47.47,0,0,1,.2-.55c.15-.11.32-.19.47-.28h0C220.7,231.7,220.71,231.72,220.56,232.48Zm8.28-12.16a2.44,2.44,0,0,0,.24.44,5,5,0,0,1-1.24.18.24.24,0,0,1-.24-.27,1.39,1.39,0,0,1,.35-.91h.8A4.1,4.1,0,0,0,228.84,220.32Zm1.85-4.81-.46.56h-.62c-.28-.44-.28-.44-.2-1.12.15-.11.31-.28.54-.2A1,1,0,0,1,230.69,215.51Zm-8.4-28.45a.84.84,0,0,1-.49.75s-.08,0-.12,0a.69.69,0,0,1-.58-.32A1.16,1.16,0,0,1,221,187v0c0-.43.27-.56.7-.43a2.5,2.5,0,0,1,.25.09C222.24,186.7,222.29,186.78,222.29,187.06Zm-4-10.89.8.6a4,4,0,0,1-.13.52.57.57,0,0,1-.79.34c-.44-.16-.54-.39-.34-.8A1.11,1.11,0,0,1,218.29,176.17ZM223,192.7l-.54-.67a1.78,1.78,0,0,1,.77-.55l.39-.13a.32.32,0,0,1,.35.26c0,.22,0,.45,0,.69v.07Zm-2.26-7.47a.92.92,0,0,1-.44.68l0,0a.72.72,0,0,1-.71,0,.5.5,0,0,1-.1-.82.77.77,0,0,1,.18-.18l.27-.27A1.3,1.3,0,0,1,220.71,185.23Zm6.5,17-.12.44c-.82.15-.88.1-1.16-.74.14-.43.54-.43.9-.58C227.33,201.73,227.33,201.74,227.21,202.22ZM219,183.78l0,.14a.61.61,0,0,1,0,.12c-.16.35-.29.38-.64.2-.14-.07-.29-.12-.43-.2a.36.36,0,0,1-.2-.33c0-.33.23-.5.45-.65a.51.51,0,0,1,.26-.09.64.64,0,0,1,.39.1C218.9,183.2,219,183.39,219,183.78Zm3.3,46.35a.66.66,0,0,1-.12.65.61.61,0,0,1-1.07,0,.89.89,0,0,1-.1-.75A.84.84,0,0,1,222.25,230.13Zm-12.68-64.29-.29-.39a1.59,1.59,0,0,1,.1-.33,1.21,1.21,0,0,1,.28-.39.44.44,0,0,1,.62,0,1.68,1.68,0,0,1,.29.44l.07.12a.37.37,0,0,1,0,.18.71.71,0,0,1-.35.43.82.82,0,0,1-.67,0Zm13.09,19.89a1.68,1.68,0,0,1,0-.67c0-.08.17-.22.23-.2.23.07.38-.1.58-.18a1.29,1.29,0,0,1,.66.83c0,.08-.07.17-.12.25-.15.25-.24.3-.49.24s-.22-.08-.33-.09S222.72,185.93,222.66,185.73ZM210.77,232a1.63,1.63,0,0,1-.13.39.38.38,0,0,1-.12.16,1.19,1.19,0,0,1-1-.07.47.47,0,0,1,0-.77,3.93,3.93,0,0,1,.53-.34c.23.07.4.12.57.19A.33.33,0,0,1,210.77,232Zm18.17-25.34c.2.54.08.82-.44,1a.73.73,0,0,1-.33,0,4,4,0,0,1-.45-.19v-.8c.2-.1.42-.23.65-.32S228.83,206.41,228.94,206.7Zm-1.41,10.21a1.61,1.61,0,0,1,.24-.34,1.09,1.09,0,0,1,.18-.19c.1-.1.28-.11.47-.17l.46.9,0,.08a.47.47,0,0,1-.36.41,2.74,2.74,0,0,1-.81,0C227.58,217.55,227.43,217.1,227.53,216.91ZM213.81,168c.09.21.16.43.24.65l-.43.64a.84.84,0,0,1-.68-.17,1.47,1.47,0,0,1-.34-.36.82.82,0,0,1,.12-.32,2.43,2.43,0,0,1,.7-.62C213.53,167.76,213.75,167.87,213.81,168Zm3.89,12.71a.39.39,0,0,1-.24-.46.34.34,0,0,1,.3-.33h.06a.8.8,0,0,0,.44-.29.31.31,0,0,1,.55.1,2.46,2.46,0,0,1,.15.53c0,.31-.21.53-.6.59a1.33,1.33,0,0,1-.21,0C218.08,180.86,217.88,180.81,217.7,180.73Zm11.53,31.14a.35.35,0,0,1,.12-.24,5,5,0,0,1,.78-.24.37.37,0,0,1,.24.12.78.78,0,0,1,.11,1,.43.43,0,0,1-.49.29A.84.84,0,0,1,229.23,211.87Zm-11.74-33.21-.23.26-.08.1a.62.62,0,0,1-.89.2,1,1,0,0,0-.22-.06h0v0c-.05-.28-.09-.58-.13-.86a.75.75,0,0,1,.54-.3.7.7,0,0,1,.29,0,.39.39,0,0,1,.21.13Zm7,15.38a2.59,2.59,0,0,0-.28-.33,1.1,1.1,0,0,1,.39-.67.57.57,0,0,1,.13-.08.48.48,0,0,1,.72.36,4.24,4.24,0,0,1,0,.62h0a.58.58,0,0,1-.63.56.22.22,0,0,1-.17-.09C224.61,194.29,224.57,194.16,224.5,194Zm1.26,9.83-.82.7a2.31,2.31,0,0,0-.26-.4,3.41,3.41,0,0,0-.44-.26c.06-.52.18-.67.79-1C225.25,203.21,225.68,203.4,225.76,203.87Zm-1.21,17.07a4.36,4.36,0,0,1-.37-.38c.14-.64.14-.64.71-.93a.79.79,0,0,1,.71.64c.08.27-.06.53-.37.75A.51.51,0,0,1,224.55,220.94Zm3.22-16.69c-.1-.15-.19-.31-.29-.47.07-.15.13-.3.21-.44a.69.69,0,0,1,1.14-.07.64.64,0,0,1,.1.38.79.79,0,0,1-.88.75.71.71,0,0,1-.17,0C227.83,204.31,227.79,204.29,227.77,204.25ZM224,195.34c.18.24.14.39-.12.57l-.28.19c-.25.15-.41.11-.58-.14s-.23-.33-.35-.5a.42.42,0,0,1,0-.51c.16-.15.35-.28.49-.4.3,0,.2.35.45.42S223.88,195.19,224,195.34Zm-11.59-28.5a.61.61,0,0,1-.06.38.71.71,0,0,1-.21.28c-.18.1-.36.18-.55.27l-.33-.17-.05,0v-1s0-.07.07-.1.27-.36.5-.29a1,1,0,0,1,.32.2A1.21,1.21,0,0,1,212.39,166.84Zm11.34,64.72a.88.88,0,0,1-.15,1.22.38.38,0,0,1-.45.1c-.18-.1-.39-.15-.41-.41s0-.5-.05-.76a1.19,1.19,0,0,1,.71-.44A1.93,1.93,0,0,1,223.73,231.56Zm5.17-7.71a1.55,1.55,0,0,1-.25.41c-.23.3-.45.39-.63.28a.84.84,0,0,1-.44-.92.89.89,0,0,1,.8-.55A.57.57,0,0,1,228.9,223.85Zm.08-13.47a.44.44,0,0,1-.22.71,1.4,1.4,0,0,1-.73.13.33.33,0,0,1-.32-.31,4,4,0,0,1,0-.69.37.37,0,0,1,.34-.37h.48C228.71,210.06,228.86,210.21,229,210.38Zm-20.71-46.06a1.13,1.13,0,0,1-.75-.47c.09-.28.19-.55.28-.84l.65-.24.42.39a.36.36,0,0,1,.11.17v.06a.39.39,0,0,1,0,.21,1.34,1.34,0,0,0-.09.26C208.77,164.28,208.65,164.38,208.27,164.32Zm19.1,51a.52.52,0,0,1-.25.64c-.08.05-.17.08-.25.12l-.05,0-.23.13a1.8,1.8,0,0,1-.58-.51.54.54,0,0,1-.1-.18c0-.13,0-.26.16-.41l.46-.52A1.06,1.06,0,0,1,227.37,215.31ZM226,225.83a3.74,3.74,0,0,0-.26-.39A2.55,2.55,0,0,1,226,225a.62.62,0,0,1,1-.09c.14.12.26.25.42.4-.16.29-.3.56-.47.82a.27.27,0,0,1-.36.1A.79.79,0,0,1,226,225.83Zm-3.55-.4a1,1,0,0,1,.84-.8c.42.18.84.35.77,1l-.61.52C223.07,226,222.58,226,222.47,225.43Zm1.11,2.77.36.2c0,.17,0,.33,0,.49a.57.57,0,0,1,0,.13.75.75,0,0,1-.34.5.56.56,0,0,1-.18.07.85.85,0,0,1-.8-.7.69.69,0,0,1,0-.25,1,1,0,0,1,.61-.71A4.44,4.44,0,0,0,223.58,228.2Zm-2.78-.93a.33.33,0,0,1,0-.25.86.86,0,0,1,.33-.45c.18-.1.38-.18.54-.26.56.08.61.46.71.83,0,.09-.07.17-.12.26a.33.33,0,0,1-.06.1c-.18.27-.31.31-.64.22a2.61,2.61,0,0,0-.27-.06A.6.6,0,0,1,220.8,227.27Zm7-12.87-.39-.69.42-.65a.32.32,0,0,1,.47-.09l.61.48v.72A1.42,1.42,0,0,1,227.81,214.4ZM224.46,231a1.94,1.94,0,0,1-.33-.51.93.93,0,0,1,.14-.36,1.44,1.44,0,0,1,.28-.33.47.47,0,0,1,.73,0c.17.15.31.32.49.51h0a5.81,5.81,0,0,1-.3.61C225.16,231.41,224.85,231.33,224.46,231Zm1-3.25c-.16,0-.33.09-.51.12h-.08l-.16,0a.54.54,0,0,1-.34-.35c-.06-.19-.11-.39-.19-.66.29-.53.64-.71,1-.48C225.81,226.74,225.88,227.05,225.47,227.74Zm-23.14,2.74c-.07.12-.1.26-.19.33a.59.59,0,0,1-.62.15v.14a1.51,1.51,0,0,1-.38-.1c-.34-.16-.36-.3-.15-.63.07-.11.14-.22.22-.33s.2-.06.31-.06v-.14C201.87,229.93,202.05,230.23,202.33,230.48Zm0-70.21c-.06.16-.13.32-.21.51a.72.72,0,0,1-.56,0v.28c-.33-.05-.33-.05-.52-.5.1-.27.2-.58.3-.87l.22,0v.14l.6.07A.26.26,0,0,1,202.29,160.27Zm-.14-3.6c.23.22.26.41.06.64s-.37.41-.69.29v-.14a.46.46,0,0,1-.58-.23c.06-.24.13-.47.2-.7s.21-.21.38-.18v.14C201.72,156.57,202,156.49,202.15,156.67Zm50.71-4.95a1.63,1.63,0,0,1,.55-.21l.06,0a3.56,3.56,0,0,1,2.31.6h0a11.77,11.77,0,0,1,5.19,9,3.86,3.86,0,0,1-.58,2.25l-.12.12a1.69,1.69,0,0,1-.45.36,1.12,1.12,0,0,0-.22.16l-1.12.65a66.26,66.26,0,0,0-7-12.15l1.17-.67ZM208.22,140.8l1.35.67.52.29.63.35c.2.11.4.21.6.33h0l.41.25,1,.6A67,67,0,0,1,228.84,158a88,88,0,0,1,13,22.2c.19.49.38,1,.56,1.48l.3.76a75.64,75.64,0,0,1,3.19,11.25A58.84,58.84,0,0,1,247,203c0,.38,0,.77,0,1.15,0,.17,0,.34,0,.5s0,.44,0,.66,0,.49,0,.74,0,.34,0,.5v.19c0,.24,0,.47-.05.71,0,.44,0,.88-.08,1.3s-.07.57-.1.85-.08.74-.13,1.1-.09.59-.14.89-.1.66-.17,1-.12.59-.19.89-.13.61-.2.91-.16.57-.24.86-.15.58-.24.86-.19.55-.28.82-.18.55-.28.82l-.33.78c-.11.26-.21.52-.32.77s-.24.5-.37.75-.23.49-.36.73-.27.46-.4.7l-.32.54,0,0-1.28.75-1.18.68-4.09,2.38-1,.58-.27.15,0,0,.21-.13.44-.28c.18-.11.36-.22.53-.34.32-.23.63-.47.93-.71,4.31-3.54,6.9-9.44,7.48-17v0c.08-.94.12-1.9.13-2.89,0-.16,0-.31,0-.47s0-.47,0-.71,0-.78,0-1.17c-.82-21.13-15.15-46.09-32.94-57.36l-1-.61c-.2-.12-.39-.25-.59-.36h0l-.42-.23-.94-.52c-.54-.29-1.08-.57-1.62-.82h0a33.74,33.74,0,0,0-5.94-2.24,20.16,20.16,0,0,0-12.46.23c-.36.14-.72.29-1.07.46h0l0,0,1-.58.16-.09,3.06-1.78,1.22-.71,1.2-.7A30.2,30.2,0,0,1,208.22,140.8Zm-34.87,41.89c-.11-.46-.2-.91-.3-1.37a50.91,50.91,0,0,1-1-7.18c0-.36,0-.72-.05-1.08s0-1,0-1.44V171c0-.38,0-.78.05-1.21,0-.75.11-1.58.22-2.44,0-.22.06-.44.1-.67.07-.48.17-1,.27-1.45l.09-.39a19.47,19.47,0,0,1,.63-2.1c.14-.39.29-.77.46-1.14s.34-.69.54-1c.08-.15.16-.28.25-.42a6,6,0,0,1,.36-.52,8.7,8.7,0,0,1,.92-1.09l.06-.06a7.65,7.65,0,0,1,1.22-1l.09-.06.37-.22a6.51,6.51,0,0,1,.8-.37,5.14,5.14,0,0,1,.55-.2,8.43,8.43,0,0,1,2.39-.38h.37a15,15,0,0,1,2.59.27q.69.14,1.41.33a24.48,24.48,0,0,1,3.42,1.23l.22.09,1,.47.2.09,1,.53.9.49c1.23.72,2.45,1.53,3.66,2.41l.46.34c.4.29.79.6,1.18.91l.77.61.82.71.09.08c.37.31.73.64,1.08,1l.71.65.33.32.56.55q.42.4.84.84c.32.33.64.66,1,1s.42.45.62.68l.93,1c.23.26.45.54.67.8l.82,1a75.35,75.35,0,0,1,5.11,7.13l.16.27c.28.44.56.89.83,1.35l.67,1.14c.22.38.42.75.63,1.13.09.16.18.31.26.47.72,1.31,1.4,2.65,2,4l.48,1.05c.62,1.38,1.2,2.78,1.74,4.18.05.14.1.28.16.42.16.43.31.87.46,1.3s.22.64.32.95c.46,1.39.87,2.77,1.23,4.15.06.25.13.5.19.75.17.73.34,1.46.49,2.19.06.27.1.54.15.82l.09.44a46.61,46.61,0,0,1,.74,7.4c0,.22,0,.45,0,.67v0c0,.3,0,.63,0,1s0,.87-.07,1.34c0,.21,0,.41,0,.62a.34.34,0,0,0,0,.1l-.06.6a26.83,26.83,0,0,1-.65,3.58c-.13.47-.27.94-.43,1.4a10.94,10.94,0,0,1-3.23,5,7.15,7.15,0,0,1-1.07.72l-.11.06a7,7,0,0,1-1.34.55l-.09,0-.09,0c-.26.07-.52.13-.79.18a9,9,0,0,1-1.19.13H213c-.37,0-.76,0-1.15-.05l-.64-.08a16.42,16.42,0,0,1-2.35-.49c-.36-.1-.73-.2-1.1-.33a28,28,0,0,1-3.8-1.61c-.24-.12-.49-.25-.73-.39l-1-.56-.28-.18c-.15-.08-.29-.17-.43-.26l-.54-.32a57.76,57.76,0,0,1-14.75-14l.11-.07,1-.57,2-1.14.47.61.68.85c.2.25.4.5.61.74s.52.64.79.94l.93,1.06.69.74c.26.28.52.56.79.83l.85.86.83.8c.33.32.66.63,1,.93s.54.48.82.71l.87.74.84.67q.54.42,1.08.81l.57.42c.13.1.26.18.4.27l.18.13.57.38c.56.37,1.13.73,1.7,1.06a1.19,1.19,0,0,0,.58.15,1.24,1.24,0,0,0,.59-.16l.1-.08a1.13,1.13,0,0,0,.31-.34l.06-.15v0a1.19,1.19,0,0,0,.08-.45c0-.05,0-.11,0-.16a1.15,1.15,0,0,0-.56-.8c-.37-.22-.75-.45-1.12-.69l-.54-.35-.26-.17-.71-.48-.18-.13-.79-.58-.49-.37c-.27-.2-.53-.41-.79-.62l-.9-.75-.84-.73-.9-.83-.85-.81-.72-.72-1-1c-.26-.28-.52-.56-.77-.85l-.84-.94c-.2-.23-.4-.48-.6-.72l-.52-.62-.48-.61-.58-.72,0,0,.39-.22.4-.23.19-.11.42-.25.58-.34.54-.31,1.47-.85.31-.18,3.6-2.09.65-.38,1.18-.69.47-.27.34-.2.11-.06.08,0,0,0,.19-.13a4,4,0,0,0,.85-.72l.11-.15.06-.08a4.8,4.8,0,0,0,.54-.94,3.86,3.86,0,0,0,.2-.51,6.44,6.44,0,0,0,.31-1.5,7.2,7.2,0,0,0,0-.81,10.35,10.35,0,0,0-.1-1.35,12.5,12.5,0,0,0-.34-1.68c-.08-.26-.16-.53-.25-.8a15.58,15.58,0,0,0-2.17-4.11v0c-.19-.25-.38-.49-.58-.73s-.34-.37-.51-.56l-.06-.07c-.06-.05-.1-.11-.16-.16-.27-.28-.56-.55-.85-.8l-.36-.28a9,9,0,0,0-1.1-.76h0a1.29,1.29,0,0,0-.16-.09h0l-.54-.27a7.45,7.45,0,0,0-1.45-.48l-.48-.07a3.78,3.78,0,0,0-.75,0,2.94,2.94,0,0,0-.51,0l-.26.05a4,4,0,0,0-1,.35,1.22,1.22,0,0,0-.24.1L190.34,185l-1,.6-1.23.71-.21.13-4,2.32-.09.05-.78.45-.23.13-.19.12-.54.31-.25.14,0,0-.14-.36c-.17-.44-.35-.89-.51-1.33-.31-.81-.58-1.62-.85-2.43-.12-.36-.24-.72-.35-1.08-.4-1.3-.74-2.6-1-3.89-.11-.44-.2-.89-.29-1.33-.12-.61-.23-1.21-.33-1.81s-.15-1-.21-1.48-.12-1.05-.17-1.57c0-.36,0-.72-.07-1.08,0-.08,0-.16,0-.23a.76.76,0,0,1,0-.15c0-.56,0-1.11,0-1.66a1.15,1.15,0,0,0-.38-.86.61.61,0,0,0-.16-.12,1,1,0,0,0-.61-.18,1.16,1.16,0,0,0-.42.08l-.13.07a1.13,1.13,0,0,0-.6,1c0,.5,0,1,0,1.52,0,.3,0,.61.06.91s0,.63.06.95c.1,1.08.24,2.17.42,3.28.05.3.11.6.16.9.14.75.3,1.5.47,2.26.09.39.19.77.28,1.16.32,1.24.68,2.49,1.08,3.74.16.48.32,1,.49,1.45.4,1.13.83,2.26,1.29,3.38l-3.06,1.77c-.06-.12-.11-.25-.16-.37-.15-.36-.29-.72-.43-1.07-.51-1.31-1-2.63-1.41-3.94l-.27-.85C174,185.37,173.67,184,173.35,182.69Zm-35.86,35.7,30.65-17.79,1-.57.92-.53.08-.05h0l4.27-2.48.83-.48.43-.25.67-.39.32-.18.45-.27.54-.31,3.06-1.77.85-.5,1-.57.06,0,.08-.05.09,0,.77-.45.2-.12.1,0,.8-.47.1-.06.79-.45,5.54-3.22,1.05-.61,1.12-.65.25-.14a1.36,1.36,0,0,0,.21-.1l0,0a1.68,1.68,0,0,1,.52-.2h.08a3.26,3.26,0,0,1,1.88.35l.26.13.27.13c.16.09.32.2.48.31l.32.24,0,0-.06,0-.11.06-3.6,2-.88.49-1,.55-.86.48-5.23,2.92-.4.23-.6.34-.21.11-.23.13-.54.31-.13.06-.11.06-.2.12-.6.34-.18.09-.89.5-2.88,1.61-.2.11-.14.08a1.22,1.22,0,0,0-.59,1,1.15,1.15,0,0,0,.14.57,1.12,1.12,0,0,0,.36.39,1.12,1.12,0,0,0,1.21.06l.08,0,.06,0,.79-.44,2.23-1.24.91-.51.49-.28.49-.27.09-.05.14-.08.17-.1.6-.33.21-.12.13-.07.87-.49.33-.18,5.3-3,1.11-.62,1-.55,1-.54,2.86-1.6.8-.45,0,0c.22.27.43.56.63.85a15,15,0,0,1,.95,1.65l-.75.41-.18.1-.9.48-5.41,2.92-1,.53-3.9,2.11a1.16,1.16,0,0,0,.55,2.18h.12a1.08,1.08,0,0,0,.42-.13l4.47-2.41,1.06-.57,1.06-.58.61-.33,3.89-2.1.21-.11.34-.18.23-.12c.1.37.18.74.24,1.1,0,.2,0,.41.07.6s0,.41,0,.6a5.24,5.24,0,0,1-.09,1,3.48,3.48,0,0,1-.35,1.06l-.12.21-.08.13a.44.44,0,0,0-.12.15,1.89,1.89,0,0,1-.41.3l-.06,0-.08.05,0,0-.37.22-1,.59-1,.55-.8.46-5.35,3.11-.29.17-.8.46-.2.12-.2.11-.78.46-.08.05-.14.08-1,.56-.86.5-2.54,1.48-.52.3-.29.17-.7.4-.07,0-.92.53-.11.07L177.33,212l0,0-1,.56-1,.56L144.7,231A89.33,89.33,0,0,0,137.49,218.39Zm-75.65,9-.23,0,.37-.22Zm32.91,69a14.72,14.72,0,0,0,1.45-1,.33.33,0,0,0,0,.14c0,.12.09.24.13.36a.78.78,0,0,1,0,.14c.1.34.29.46.6.36a1.32,1.32,0,0,0,.77-.64,1.48,1.48,0,0,0-.74-.87l-.21.09a12,12,0,0,0,1.1-1,3.26,3.26,0,0,0,0,.55c.25.36.53.12.79.13a.65.65,0,0,0,.54-.24.45.45,0,0,0,.09-.32,2.7,2.7,0,0,0-.12-.47.87.87,0,0,0-.77-.25q.33-.37.63-.78l.16-.22.27,0,.12,0-.06.06c.11.24.18.43.28.6a.46.46,0,0,0,.26.2.71.71,0,0,0,.83-.68,1.06,1.06,0,0,0-.09-.4,14.47,14.47,0,0,0,2.37-.73,14,14,0,0,0,1.3-.62l0,0h0v0l0,0-.08.13c.12.08.24.13.29.22a.58.58,0,0,0,.77.3l.1-.15,0,0,.39-.58c0-.16-.11-.33-.18-.53l-.15-.08h0l0,0c.24-.16.46-.33.68-.5h0a.53.53,0,0,0,.62.38l.32-.39.15-.19c0-.22,0-.42,0-.7.26-.25.51-.5.76-.77a1.64,1.64,0,0,0,.44.33c.41-.09.35-.58.68-.77l-.34-.48c.21-.27.42-.56.61-.85a1,1,0,0,0,.65.37c.35,0,.42-.09.58-.49a.62.62,0,0,0-.18-.69.52.52,0,0,0-.41-.19,20.3,20.3,0,0,0,1.67-3.78,1.15,1.15,0,0,0,.32,0,.34.34,0,0,0,.29-.39.87.87,0,0,0-.28-.61h0c0-.17.1-.34.14-.51.1-.4.19-.8.27-1.21s.15-.83.22-1.25.13-.94.18-1.43l.37.27c.37.33.37.33.63,0a2,2,0,0,0,.16-.25,1.14,1.14,0,0,0-.79-.93.33.33,0,0,0-.29.05c0-.71.08-1.43.09-2.17a3.1,3.1,0,0,0,.47.26c.18-.12.36-.22.36-.43a.69.69,0,0,0-.17-.43,1.35,1.35,0,0,0-.66-.34c0-.77,0-1.55-.09-2.34a2.69,2.69,0,0,0,.61.08,3.78,3.78,0,0,0,.36-.4,1.34,1.34,0,0,0,.09-.37l-.71-.16a3.3,3.3,0,0,0-.39.26c-.14-1.53-.36-3.08-.65-4.64l.25-.24a1.25,1.25,0,0,0-.39-.45c-.14-.71-.31-1.41-.48-2.11a.33.33,0,0,0,.34-.07,1.39,1.39,0,0,0,.51-.75,2.23,2.23,0,0,1-.25-.38.79.79,0,0,0-.53-.4.34.34,0,0,0-.45.14l0-.09,0-.08c0-.1-.06-.19-.08-.29-.22-.76-.45-1.51-.7-2.26,0,0,0-.1,0-.15-.14-.44-.3-.87-.46-1.31a.49.49,0,0,1,.24.08l.22-.12.48-.26c-.09-.13-.16-.21-.22-.31s-.06-.12-.1-.18a.52.52,0,0,0-.16-.14.39.39,0,0,0-.38,0,1,1,0,0,0-.36.2c-.74-2-1.58-3.9-2.52-5.8l.08,0,.18-.13c-.1-.48-.47-.64-.73-.85h-.05c-.94-1.84-2-3.65-3.09-5.39a2.07,2.07,0,0,0,.37-.08,1.46,1.46,0,0,0,.15-1.12,2.68,2.68,0,0,0-.23-.17c-.38-.2-.43-.19-.72.09l-.12.12-.12.13-.64-.95a.6.6,0,0,0,.17-.53.65.65,0,0,0-.5-.51c-.14,0-.29,0-.45-.06-.22-.3-.44-.61-.67-.91a1.61,1.61,0,0,0,.06-.33l-.67-.48a55,55,0,0,0-9.38-9.58.34.34,0,0,0-.22-.32.51.51,0,0,0-.24,0c-.47-.37-1-.72-1.44-1.06a1.51,1.51,0,0,1,.07-.33l-.43-.35-.36.19-.93-.61a5.44,5.44,0,0,0,.22-.5.49.49,0,0,0-.2-.55.43.43,0,0,0-.58-.05c-.18.15-.43.22-.58.41l-.07,0a31.27,31.27,0,0,0-3.75-1.88l-.11-.08a.73.73,0,0,0-.45-.16l-.17-.06c-.38-.15-.77-.3-1.14-.42a1,1,0,0,1,.23-.47.33.33,0,0,0,0-.44.51.51,0,0,0-.3-.12h-.06a5,5,0,0,0-.68.23,2,2,0,0,1,.15.59l-.52-.17c-.61-.17-1.21-.31-1.8-.43a1,1,0,0,0-.18-.16,1.69,1.69,0,0,0-.43-.2.33.33,0,0,0-.39.18,17,17,0,0,0-5.57,0,.56.56,0,0,0-.53-.33,1.7,1.7,0,0,0-.82.62h0c-.42.11-.84.25-1.25.4s-.79.33-1.17.51l-.05,0c-.28.14-.56.28-.83.44a2.68,2.68,0,0,0-.28.18.61.61,0,0,1-.07-.1v0l-.08-.08a1.1,1.1,0,0,0-.32-.11.71.71,0,0,0-.75.27.65.65,0,0,0-.14.54.2.2,0,0,0,0,.13l0,0,.13.12-.15.12c-.23.17-.45.36-.66.55l-.21-.18c-.49.15-.81.41-.78,1a.39.39,0,0,0,.08.1c-.25.27-.5.55-.74.85a.82.82,0,0,0-.71-.07.71.71,0,0,0-.18.8,14,14,0,0,0-3.85,1.06.35.35,0,0,0-.22-.21,2.58,2.58,0,0,0-.26-.08.51.51,0,0,0-.72.49,1,1,0,0,0,.06.36l-.33.17A13.32,13.32,0,0,0,53.71,231c.06-.58.13-1.14.21-1.7a3.62,3.62,0,0,0,.32-.22.4.4,0,0,0,0-.6l-.13-.1a29.46,29.46,0,0,1,1.09-4.26l.19.15.64-.17v-.56l-.59-.15a21.93,21.93,0,0,1,2.14-4.31l.11-.16c.3-.45.61-.88.94-1.3h.2a.62.62,0,0,0,.66-.38c-.06-.23-.1-.38-.14-.49.22-.24.44-.49.67-.72.2.13.42.07.67-.21a6.18,6.18,0,0,0,.49-.67l-.1-.07c.28-.24.58-.46.87-.68a.5.5,0,0,0,.21,0,.49.49,0,0,0,.2-.11.33.33,0,0,0,.1-.23c.26-.17.51-.34.77-.49l0,0c.34-.19.68-.37,1-.54a16.81,16.81,0,0,1,2.07-.82.66.66,0,0,0,.15.27c.09.1.21.18.32.28a4.83,4.83,0,0,1,.56-.28.37.37,0,0,0,.2-.6h0c.44-.11.89-.19,1.34-.26s.63-.09,1-.12a.37.37,0,0,0-.15.45c0,.07-.06.17-.07.26a.32.32,0,0,0,.11.34.19.19,0,0,0,.09.05l.32.11a.57.57,0,0,0,.71-.25c.1-.16.16-.33.26-.52-.19-.16-.34-.27-.47-.4a.44.44,0,0,0-.15-.1c.38,0,.75,0,1.14,0h.15a23,23,0,0,1,4.65.5.51.51,0,0,0,.22.59,1,1,0,0,0,.44.14.33.33,0,0,0,.38-.38s0-.08,0-.12c.72.18,1.45.39,2.19.64l1.12.39.64.24a1,1,0,0,0-.14.28.51.51,0,0,0,.21.6l.3.1a.78.78,0,0,0,.49-.05.52.52,0,0,0,.33-.43,42.56,42.56,0,0,1,4.31,2.18l1,.64a.75.75,0,0,0-.09.3.92.92,0,0,0,.26.75l.35,0a.63.63,0,0,0,.64-.34l1,.67-.52.31a.89.89,0,0,0,.07.75.47.47,0,0,0,.43.28.65.65,0,0,0,.56-.2,1.15,1.15,0,0,0,.34-.52A68.69,68.69,0,0,1,105.35,233c-.21,0-.42.06-.65.34s-.47.33-.31.63a2.24,2.24,0,0,0,.57.58l0,0a.31.31,0,0,0,.35-.06c.11-.11.23-.21.33-.33a1.27,1.27,0,0,0,.25-.42l.14.19.61.84a1.35,1.35,0,0,0-.34.35,2.36,2.36,0,0,0-.19.43l.08.15.17.33a1,1,0,0,0,.56.07,1.27,1.27,0,0,0,.4-.17l0-.05,0,0,0,.06.61.9a.69.69,0,0,0-.24.27.37.37,0,0,0,.3.56,2.77,2.77,0,0,0,.5,0c.28.43.56.87.83,1.31a.91.91,0,0,0,.13.37.44.44,0,0,0,.26.25c.72,1.16,1.41,2.34,2.07,3.53a.57.57,0,0,0-.69.32.87.87,0,0,0-.08.69,2.28,2.28,0,0,0,.44.3.66.66,0,0,0,.71-.08.53.53,0,0,0,.17-.24c.15.29.3.59.46.88a.69.69,0,0,0-.16.39,1,1,0,0,0,.22.73l.43.15.13-.07c.36.71.7,1.42,1,2.14l0,.07.48,1.06c0,.11.1.22.14.33a.44.44,0,0,0-.29.12l-.54.47.28.59.08,0,.32.07.27.05a.73.73,0,0,0,.32-.33c.2.46.39.92.58,1.38a.27.27,0,0,0,.08.28l.05,0,.3.77c.24.6.47,1.21.69,1.82a.76.76,0,0,0-.36-.17l-.17,0-.3.06-.2,0a.39.39,0,0,0-.2.56,2.11,2.11,0,0,1,.28.45.38.38,0,0,0,.28.19.44.44,0,0,0,.42-.13,2.9,2.9,0,0,0,.19-.29l0,0a.84.84,0,0,0,.13-.35,2.25,2.25,0,0,0,.08.24c.08.21.15.43.23.65l.18.51-.17.06-.19.45h.14a.71.71,0,0,0,.3.34,1.68,1.68,0,0,1,.31.37c.23.72.45,1.44.65,2.16-.34-.19-.69,0-1.06,0,0,.23-.08.45-.11.64.39.33.39.33,1.11.22a.9.9,0,0,0,.18-.43c.16.56.31,1.13.45,1.69a.6.6,0,0,0,.07.35l0,0c.21.84.4,1.67.57,2.51a.56.56,0,0,0-.64.34l.16.71c.26,0,.5.09.66-.11.29,1.51.51,3,.68,4.48a.25.25,0,0,0,0,.12,2.88,2.88,0,0,0,0,.32l0,0c.08.71.13,1.42.18,2.13a.36.36,0,0,0-.25,0c-.11.28.24.25.26.47l-.26.44c.1.23.13.51.33.65,0,.51,0,1,0,1.52,0,.24,0,.48,0,.73a.52.52,0,0,0-.14.2,1.41,1.41,0,0,0,0,.54c0,.05.06.09.12.13,0,.79-.08,1.57-.15,2.33h-.1c0,.11-.12.21-.16.31a.32.32,0,0,0,.12.42l0,0c0,.28,0,.56-.09.84s-.12.79-.19,1.18-.13.78-.21,1.16-.15.71-.23,1.06a.88.88,0,0,0-.36-.14,1,1,0,0,0-.74.83,5.61,5.61,0,0,0,.81.36,25.19,25.19,0,0,1-1.4,3.84c-.25-.11-.52,0-.81.26l-.15.18c0,.23.08.41.12.59a.38.38,0,0,0,.19.26c-.08.15-.17.29-.25.43s-.19.36-.3.52a.77.77,0,0,0-.3-.52c-.07-.06-.17-.12-.3-.21a.88.88,0,0,0-.39.18,1.21,1.21,0,0,0-.43.89l.48.26.2.1a.43.43,0,0,0,.24.05c-.24.35-.49.69-.75,1a16.44,16.44,0,0,1-3.59,3.39l-.17.11a.6.6,0,0,0,.08-.19s0-.06,0-.09a.48.48,0,0,0-.17-.3l-.25-.18c-.21-.15-.4,0-.58,0a.7.7,0,0,0-.39.35.45.45,0,0,0-.09.32c0,.27.3.31.5.4h0a.61.61,0,0,0,.22,0H112l-.25.15h0c-.32.19-.66.37-1,.53l-.07,0-.33-.33c-.06,0-.09,0-.11,0s-.36,0-.47.22a.54.54,0,0,0-.07.55,16.63,16.63,0,0,1-4.12,1.06v0A.47.47,0,0,0,105,300a.62.62,0,0,0-.3.22,19.63,19.63,0,0,1-2.31.06,0,0,0,0,1,0,0,.71.71,0,0,0-1-.05,24.16,24.16,0,0,1-4-.67,2.24,2.24,0,0,0,.16-.52.75.75,0,0,0-.51-.74c-.26-.13-.41.13-.56.29a2.31,2.31,0,0,0-.24.37.89.89,0,0,0,.16.34,34.84,34.84,0,0,1-4-1.48.46.46,0,0,0,.14-.2l-.05-.17A14.85,14.85,0,0,0,94.75,296.37ZM84.11,201.23l1.21-.7h.26c.36,0,.72,0,1.09,0,4.85.14,10.16,1.81,15.64,5h0c7.47,4.33,14.4,11,20.14,18.94.23.31.45.63.68,1l.66.95A87.79,87.79,0,0,1,131,238.92l.48,1.06c.1.23.21.46.32.7s.1.24.16.36c.67,1.56,1.3,3.13,1.87,4.7a65.22,65.22,0,0,1,4.22,22c0,7-1.48,12.91-4.26,17.37l-.66.38-1.1.64-1.23.71-2.49,1.45-1,.58-.3.17-.7.41-.35.2,0,0c.1-.05.19-.12.29-.18.33-.2.65-.41,1-.63l.42-.33c5.2-4,8-11.24,8-20.73a62.78,62.78,0,0,0-3.87-20.66c-.58-1.64-1.22-3.26-1.91-4.88-.06-.13-.11-.26-.17-.38s-.2-.46-.3-.68l-.48-1.06a86.9,86.9,0,0,0-7.18-12.58c-.22-.32-.45-.63-.67-.94s-.45-.64-.68-1c-5.52-7.54-12.16-13.93-19.31-18.08h0c-5.38-3.13-10.54-4.69-15.16-4.68A17.3,17.3,0,0,0,79.56,204c-.31.12-.62.24-.91.38l2.92-1.69,1.2-.7Zm-23.7,78.06v-.1a10.84,10.84,0,0,0-.27-2.3,14.6,14.6,0,0,0-4.29-7.39,9.87,9.87,0,0,0-1.76-1.3l-.17-.1-.54-.28.33-.19,1-.58,3.78-2.19,0,0,.23-.13.72-.42h0l.32-.19.65-.38h0l.41-.24,1.23-.71.17-.09a1.6,1.6,0,0,1,.46-.19h.36a2.77,2.77,0,0,1,1.06.16l.12,0,.32.12a6.45,6.45,0,0,1,.58.3h0l.21.13.3.19.18.14a9.82,9.82,0,0,1,1,.86,12.58,12.58,0,0,1,1.85,2.39l.43.77a13.13,13.13,0,0,1,.64,1.51c.07.21.14.42.2.63s0,.18.08.27a10.32,10.32,0,0,1,.22,1.19c0,.16,0,.32,0,.48s0,.28,0,.42,0,.46,0,.68,0,.21,0,.31,0,.05,0,.07a3.1,3.1,0,0,1-.45,1.18l0,.05-.11.13a1.47,1.47,0,0,1-.41.31,1.18,1.18,0,0,0-.18.13l-1,.57-.49.28-.11.06,0,0-.46.27-.43.25-.07,0,0,0-.55.31-.39.23,0,0-3.74,2.18-1,.58-.36.21C60.39,279.74,60.4,279.51,60.41,279.29Zm1-20.38a3.81,3.81,0,0,1,.54-.81l.26-.26h0c.11-.09.22-.18.34-.26a2,2,0,0,1,.32-.18l.27-.12.08,0a2.32,2.32,0,0,1,.47-.13l.12,0H64a4.26,4.26,0,0,1,.62,0,5.27,5.27,0,0,1,1.19.22h0a8.41,8.41,0,0,1,1.78.77,17.32,17.32,0,0,1,6.23,7.15c.14.29.28.58.4.87s.33.8.47,1.2c.06.18.13.37.19.56a17,17,0,0,1,.5,2.05,10.37,10.37,0,0,1,.16,1.45c0,.21,0,.41,0,.61a9.16,9.16,0,0,1-.11,1.44,6.53,6.53,0,0,1-.24,1,4.16,4.16,0,0,1-.61,1.21,1.83,1.83,0,0,0-.13.16,1.14,1.14,0,0,0-.15.23,2.75,2.75,0,0,1-.26.22l-.3.24a3.16,3.16,0,0,1-.72.34,2.42,2.42,0,0,1-.36.1l-.26,0a3.35,3.35,0,0,1-.71,0l-.25,0a5.65,5.65,0,0,1-.94-.2h0a3.51,3.51,0,0,0,.6-.48l.2-.2a1.12,1.12,0,0,0,.17-.19c.11-.14.21-.29.31-.44s0-.05,0-.08a4.06,4.06,0,0,0,.33-.66c.07-.18.13-.36.19-.56v0c0-.15.07-.3.1-.45a8.16,8.16,0,0,0,.15-1.44V272a11.66,11.66,0,0,0-.78-4c-.12-.33-.26-.66-.41-1s-.37-.75-.57-1.12-.43-.73-.67-1.07a12.34,12.34,0,0,0-3.88-3.78l-.08,0-.32-.18a7.78,7.78,0,0,0-1-.41,4.58,4.58,0,0,0-.49-.15l-.13,0a5.27,5.27,0,0,0-1.3-.13h0a4.48,4.48,0,0,0-.64.06h-.08a2.88,2.88,0,0,0-.42.11,4.32,4.32,0,0,0-.67.28l-.11.05-.06,0-.24.14A5.68,5.68,0,0,1,61.42,258.91Zm-5.65,23.21a4.31,4.31,0,0,1-1.7-.6,11.68,11.68,0,0,1-5.16-9,4.33,4.33,0,0,1,.32-1.76,2,2,0,0,1,.78-.95,1.51,1.51,0,0,1,.51-.2l.15,0a2.44,2.44,0,0,1,.54,0,4.32,4.32,0,0,1,1.71.64,7.69,7.69,0,0,1,1.14.81,12.4,12.4,0,0,1,3.89,6.7,8.64,8.64,0,0,1,.15,1.48,4.37,4.37,0,0,1-.33,1.77,2.54,2.54,0,0,1-.34.55.61.61,0,0,0-.07.1,1.48,1.48,0,0,1-.38.29A1.93,1.93,0,0,1,55.77,282.12Zm27.72,13.41a26.37,26.37,0,0,1-7.45-3A47.56,47.56,0,0,1,63.16,281l3.67-2.13,0,0,.94-.55,0,0,.23-.13a10.65,10.65,0,0,0,1.54.66h0l.08,0a8.62,8.62,0,0,0,1.36.32,7.73,7.73,0,0,0,1,.07,6.39,6.39,0,0,0,1-.09l.53-.11a5.78,5.78,0,0,0,.7-.24,4.25,4.25,0,0,0,.43-.21,4.5,4.5,0,0,0,.41-.25l.6-.34,3.91-2.27,1-.58,1.1-.64.37-.21.42-.25,0,0h0a5,5,0,0,0,.9-.67l.18-.17c.1-.1.21-.19.31-.3l.07-.08,0,0,.2-.27.14-.18a8.44,8.44,0,0,0,.54-1l0-.12a7.26,7.26,0,0,0,.41-1.27,10.28,10.28,0,0,0,.26-2.08c0-.14,0-.27,0-.41s0-.41,0-.62a16,16,0,0,0-.27-2.26c-.08-.37-.16-.74-.26-1.11a20.65,20.65,0,0,0-1.43-3.83c-.17-.35-.35-.69-.54-1s-.41-.7-.62-1l-.18-.28-.36-.52a18.38,18.38,0,0,0-4.51-4.62,9.88,9.88,0,0,0-.84-.54l-.09-.06h0a9.7,9.7,0,0,0-1-.51,8.65,8.65,0,0,0-2.55-.74l-.51,0a5.9,5.9,0,0,0-.73,0l-.24,0h0l-.18,0h0a.9.9,0,0,0-.23,0l-.44.11-.23.07a6.43,6.43,0,0,0-1,.48l-.2.12-.27.15-1.21.7-1.12.65-.92.53-1,.55-2.18,1.26-.74.43-.11.08-.17.1a3.62,3.62,0,0,0-.32.22,5.27,5.27,0,0,0-.51.43l-.12.11a6.2,6.2,0,0,0-.77,1,7.5,7.5,0,0,0-1,2.45v0l0,.15a10.44,10.44,0,0,0-.18,1.41c0,.23,0,.46,0,.7v.15h0l-1,.55h0L53.8,264.9a48.26,48.26,0,0,1-3.65-17.49,26.81,26.81,0,0,1,1.16-8.17h0a18.69,18.69,0,0,1,1-2.54h0a14.51,14.51,0,0,1,.79-1.4l.26-.4.09-.12h0a12.27,12.27,0,0,1,3.83-3.57h0c.25-.15.51-.28.77-.41a10.62,10.62,0,0,1,1.21-.5c.32-.11.64-.21,1-.3a13.57,13.57,0,0,1,1.44-.28c.46-.06.93-.11,1.41-.13h.78l.7,0c.38,0,.77.06,1.16.11l.09,0a10.39,10.39,0,0,1,1.07.18H67l.93.21.25.07c.36.09.72.2,1.09.32s.93.31,1.4.5c.77.3,1.55.64,2.34,1l1,.55.8.44.11.07c.36.21.71.42,1.06.65a43,43,0,0,1,6.62,5.2l.27.26.11.11c.49.47,1,1,1.45,1.46.74.78,1.47,1.58,2.18,2.42,1.28,1.51,2.51,3.11,3.66,4.77.21.3.4.6.6.9l.7,1.07.64,1,.75,1.26.33.59c.71,1.25,1.38,2.53,2,3.83.1.21.21.41.3.63.23.48.45,1,.66,1.45.11.24.21.49.31.74.46,1.09.89,2.2,1.28,3.3.08.24.17.48.25.71.14.41.26.81.39,1.21l.36,1.18q.36,1.26.66,2.52l.12.55c0,.1,0,.2.07.29.18.83.34,1.66.47,2.48.08.47.14.94.2,1.4.1.75.18,1.49.23,2.23,0,.22,0,.45,0,.67,0,.72.07,1.43.07,2.13,0,.24,0,.48,0,.72s0,.29,0,.43c0,.8-.09,1.58-.17,2.33q-.06.6-.15,1.17c0,.09,0,.19-.05.28-.12.73-.26,1.43-.44,2.1,0,.07,0,.14,0,.21-.07.26-.14.51-.22.76l-.13.4,0,.08c-.12.36-.25.7-.38,1l0,.08c-.15.36-.31.72-.48,1.06a13.66,13.66,0,0,1-.71,1.31,14.06,14.06,0,0,1-.81,1.16c-.31.39-.63.77-1,1.12a11.18,11.18,0,0,1-1.32,1.16l-.11.09a11.5,11.5,0,0,1-1.09.73h0a12,12,0,0,1-2.84,1.17,9.37,9.37,0,0,1-1.17.25c-.33.06-.66.1-1,.13h-.12c-.34,0-.69.05-1,.05s-.68,0-1,0h-.18a17.11,17.11,0,0,1-2.57-.37Zm137-60.61a.36.36,0,0,0,0-.11,1,1,0,0,0-1.28.65h0a18.75,18.75,0,0,1-9.15.82l.78-.68c-.09-.18-.18-.34-.25-.5a.53.53,0,0,0-.83-.25,5.93,5.93,0,0,0-.43.44c.2.22.07.43.06.65l.66.34a24.47,24.47,0,0,1-2.69-.52.45.45,0,0,0,0-.11,3.09,3.09,0,0,0,0-.53,1.43,1.43,0,0,0-1.15-.17,1.09,1.09,0,0,0-.18.45,33.26,33.26,0,0,1-3.69-1.36l.08-.14c-.26-.3-.37-.73-.85-.73-.09,0-.19-.08-.26-.05a.45.45,0,0,0-.25.2.34.34,0,0,0,0,.11c-.36-.16-.71-.34-1.07-.53a.63.63,0,0,0,.5-.45c.1-.29-.06-.53-.17-.78a4.35,4.35,0,0,0-.46-.11.37.37,0,0,0-.43.34,4.77,4.77,0,0,0,0,.53c.12.12.21.25.32.35q-.87-.45-1.74-1c-.82-.48-1.62-1-2.43-1.52a.76.76,0,0,0-.49-.66l-.28.14-.91-.64c.15-.07.19-.23.25-.4a1.17,1.17,0,0,0-.9-.52.44.44,0,0,0-.41.15c-.3-.22-.58-.45-.88-.68l.16-.1c.08-.4.21-.78-.21-1a1.71,1.71,0,0,0-.39,0,.74.74,0,0,0-.51.37l-.88-.75c.3-.11.6-.23.69-.62a1.46,1.46,0,0,0-.69-.84l-.78.22c0,.16,0,.29,0,.43a.4.4,0,0,0,0,.11l-1.05-.95a1.07,1.07,0,0,0,.88-.65,1.69,1.69,0,0,1-.22-.26,3.07,3.07,0,0,1-.1-.43c-.22,0-.43,0-.63,0a.69.69,0,0,0-.58.74l-1.23-1.19a1.3,1.3,0,0,0,.75-.06l.33-.64a1.06,1.06,0,0,0-.79-.78c-.37.32-.51.52-.54.79a.74.74,0,0,0,.24.67c-.56-.56-1.12-1.13-1.66-1.71a.63.63,0,0,0,.43.07.86.86,0,0,0,.56-1c0-.31-.15-.39-.66-.39l-.14,0c-.42.47-.44.51-.45,1-.42-.45-.84-.92-1.25-1.39l.06,0a.62.62,0,0,0,.68-.22.46.46,0,0,0,0-.58,1.09,1.09,0,0,0-.21-.26c-.12-.12-.24-.21-.38-.33l-.67.27a2.4,2.4,0,0,0,0,.54l-.88-1,.15-.13a2.37,2.37,0,0,1,.35-.19.34.34,0,0,0,.1-.53c-.34-.37-.45-.54-1-.28l-.23.09a.35.35,0,0,0,0,.22l-.83-1,.08,0c.09-.17.19-.35.27-.54a.32.32,0,0,0-.06-.38c-.11-.1-.25-.18-.35-.26s-.31.11-.44.14a.52.52,0,0,0-.23.13l-.62-.82A.93.93,0,0,0,179,214a.44.44,0,0,0,0-.31h0l5.22-3h0c0,.24.09.37.3.4a62.24,62.24,0,0,0,13,13,.8.8,0,0,0,.66.53l.06,0,.95.64-.06.12a2.51,2.51,0,0,0,.13.28c.28.42.68.51,1,.26.25.16.5.32.76.47l.44.24v.09c-.38.13-.49.48-.66.77a.65.65,0,0,0,.66.21l.51.15c0-.31.2-.55.17-.85a31.35,31.35,0,0,0,3.91,1.8.69.69,0,0,0,.43.69.36.36,0,0,0,.51-.19c0-.05,0-.09.07-.14a20.25,20.25,0,0,0,4.27.95c-.47.68-.42.9.22,1.21a7.22,7.22,0,0,0,.68-.41.38.38,0,0,0,.09-.55.86.86,0,0,0-.14-.18l.79,0a12,12,0,0,0,1.37-.08c-.05.1-.09.21-.13.3a4.26,4.26,0,0,0,.16.54.55.55,0,0,0,1,.14,3.7,3.7,0,0,0,.31-.46.36.36,0,0,0,0-.44.64.64,0,0,0-.3-.22,10.57,10.57,0,0,0,1.88-.55,9.62,9.62,0,0,0,1.16-.57l.12-.07c.3-.18.58-.36.85-.56l.34-.28a10.22,10.22,0,0,0,1-.9,13.6,13.6,0,0,0,2.58-4.24l.29,0,.14-.17.13-.17a.55.55,0,0,0,0-.63.73.73,0,0,0-.2-.19,24.11,24.11,0,0,0,.93-4,1,1,0,0,0,.3,0,2.36,2.36,0,0,0,.46,0c0-.05.09-.08.09-.12a3.37,3.37,0,0,0,0-.55.59.59,0,0,0-.44-.54.83.83,0,0,0-.27,0c0-.06,0-.12,0-.18.05-.44.08-.87.11-1.29,0-.22,0-.44,0-.66a1.61,1.61,0,0,0,.62-.54c-.14-.56-.16-.62-.58-.61v-.66q0-.73,0-1.47l.08,0c.06,0,.11-.1.17-.1.38,0,.45-.34.58-.64l-.46-.33a.63.63,0,0,0-.44-.18c0-.61-.09-1.23-.15-1.85a.63.63,0,0,0,.62-.29,4.07,4.07,0,0,1,.3-.34c-.07-.23-.11-.41-.18-.58a.51.51,0,0,0-.6-.31,1,1,0,0,0-.3.11c0-.23-.07-.47-.11-.7-.15-1.08-.35-2.17-.57-3.27.26-.19.27-.44,0-.76a.8.8,0,0,0-.26-.22h0c-.18-.8-.37-1.6-.59-2.4l.21.07a.45.45,0,0,0,.66-.34,1.59,1.59,0,0,0,0-.48,1.92,1.92,0,0,0-1,0h0q-.59-2-1.29-4.08a1.93,1.93,0,0,0,.83-.5c-.09-.2-.13-.45-.27-.55a2,2,0,0,0-.71-.23.35.35,0,0,0-.27.11c-.46-1.25-1-2.51-1.51-3.75a1.69,1.69,0,0,0,.27.11c.2-.22.23-.5.48-.67s.11-.5-.11-.64-.17-.08-.25-.12a.33.33,0,0,0-.38,0,.68.68,0,0,0-.27.68l-.6-1.32c.05-.25.1-.51.15-.79l-.38-.36a1,1,0,0,1-.27.09c-.64-1.31-1.31-2.6-2-3.88a1.07,1.07,0,0,0,.45.05,1.24,1.24,0,0,0,.65-.41c-.13-.19-.4-.32-.27-.64,0,0-.15-.19-.23-.27a1.64,1.64,0,0,0-.66.45.76.76,0,0,0-.17.4l-.73-1.28a1.67,1.67,0,0,1,.21-.33.53.53,0,0,0,.06-.63.58.58,0,0,0-.52-.2,1.09,1.09,0,0,0-.38.11l-.76-1.22h0c-1.34-2.12-2.76-4.17-4.27-6.12l.59.23c.08-.1.18-.17.21-.27a1.84,1.84,0,0,0,.07-.47.41.41,0,0,0-.58-.44c-.21.08-.41.21-.62.31a1.65,1.65,0,0,0,0,.21c-.34-.44-.68-.87-1-1.29l.22,0a.51.51,0,0,0,.48-.35c.08-.16,0-.3-.13-.43-.39-.43-.65-.41-.94.11l-.07.12-.8-.94a.76.76,0,0,0,.39-.36c-.35-.84-.35-.84-.85-1-.12.15-.23.32-.37.47-.25-.29-.51-.57-.76-.84a1,1,0,0,0,.21-.8l-.6-.48-.55.3-.77-.78.11,0a.31.31,0,0,0,.15-.41c-.16-.22-.31-.47-.61-.5a1,1,0,0,0-.52.09L202,164l.12-.06c.07-.22.14-.41.2-.59a1.49,1.49,0,0,0-.79-.5V163c-.15,0-.3-.17-.45,0a.5.5,0,0,0-.1.14c-.25-.23-.51-.44-.76-.66a.3.3,0,0,0,.2-.36,5.66,5.66,0,0,0-.18-.83h-.43c-.17,0-.18.18-.25.29s-.15.09-.22.14l0,0-.22-.18c-.31-.24-.61-.49-.92-.72,0,0,0,0,0,0,.22-.05.43-.15.67-.23,0-.14-.06-.24-.08-.35-.12-.59-.27-.69-.94-.58-.05.23-.14.46-.17.71,0,0,0,.06,0,.09a43.42,43.42,0,0,0-4.1-2.72c-.5-.29-1-.56-1.48-.82a.32.32,0,0,1,0-.14.45.45,0,0,0-.36-.5l-.31.13-.16.09-1-.48-.38-.15a.8.8,0,0,0,.37-.08.59.59,0,0,0,.19-.13c.2-.17.23-.31,0-.52a.92.92,0,0,1-.15-.36.51.51,0,0,0-.07-.15c0-.06-.09-.12-.13-.19a1.14,1.14,0,0,0-.9,1.15l.05,0-.19-.08c-.69-.27-1.37-.51-2-.71a1.12,1.12,0,0,0-.38-.26l-.19.09c-.43-.12-.86-.22-1.28-.31a2.43,2.43,0,0,0,.38-.25s0,0,0-.09l-.19-.94a4.51,4.51,0,0,0-.58-.15.38.38,0,0,0-.45.34c-.05.2-.09.4-.14.64l.31.32a16.21,16.21,0,0,0-2.13-.25,1.41,1.41,0,0,0,0-.2c0-.12,0-.23,0-.39s-.19-.13-.25-.19a.92.92,0,0,0-.76-.19c-.31,0-.47.23-.49.55a.59.59,0,0,0,.14.41,11.46,11.46,0,0,0-2.12.27,9.73,9.73,0,0,0-1.26.38c-.13,0-.27.09-.4.15l-.1,0-.08-.08a.57.57,0,0,0-.61-.09l-.07,0a1.68,1.68,0,0,0-.17.47.42.42,0,0,1,0,.1.75.75,0,0,1-.07.12,9.33,9.33,0,0,0-1,.66c-.17.13-.33.27-.49.41l-.37,0v.33a9.74,9.74,0,0,0-1,1.13s0-.05-.07-.06a1.14,1.14,0,0,0-.32.23.88.88,0,0,0-.16.6c-.23.36-.44.73-.64,1.1a1,1,0,0,0-.3,0h-.6l-.39.56a3.39,3.39,0,0,1,.23.34.37.37,0,0,0,.32.21l.21,0a21.5,21.5,0,0,0-1.22,3.93.63.63,0,0,0-.38-.16.33.33,0,0,0-.21.15,1,1,0,0,1-.41.53c0,.13,0,.2.06.26.12.37.32.49.65.36l.08,0c-.12.71-.21,1.4-.28,2.07h0a.7.7,0,0,0-.47.55.72.72,0,0,0,.39.69c-.05.77-.07,1.48-.08,2.1a.8.8,0,0,0-.38.39,3.59,3.59,0,0,0-.12.47.87.87,0,0,0,.52.43c0,.69.05,1.38.1,2.08a2,2,0,0,0-.49.19c.07.24.16.45,0,.68a.27.27,0,0,0,.1.37.85.85,0,0,0,.49.1c.06.61.13,1.22.22,1.83l-.79.3-.21.66a2,2,0,0,0,1.12.67,1.13,1.13,0,0,0,.1-.13c.23,1.35.51,2.72.84,4.09a.85.85,0,0,0-.09.43l.27.29c.2.76.4,1.51.62,2.27a.16.16,0,0,0-.12,0,3.59,3.59,0,0,0-.72.17c-.38.13-.38.42-.31.73,0,.09.14.18.23.23a.64.64,0,0,0,.21,0,.83.83,0,0,0,.88-.57c.16.54.34,1.09.52,1.63a.37.37,0,0,0,.19.58c.27.78.55,1.56.85,2.33a.52.52,0,0,0-.52-.19.58.58,0,0,0-.56.46l.29.32-.16.37c.55.25.81-.14,1.16-.41l.51,1.3s0,0,0,.05c0,.2-.09.44.11.58l.18.09-1.22.71h0l-.2-.07a.28.28,0,0,0-.37.19,2.47,2.47,0,0,0-.1.29l-3.63,2.11-.18-.43v-.31l-.16-.08q-.47-1.11-.9-2.22l0,.05a1,1,0,0,0,.75-.08.53.53,0,0,0,0-.91,1.58,1.58,0,0,0-.71-.2.54.54,0,0,0-.48.19c-.11-.28-.2-.56-.3-.84l0,0a1.7,1.7,0,0,0-.43-1.05c-.45-1.31-.86-2.63-1.23-3.95.1-.11.1-.24,0-.4s0-.31,0-.5l-.25-.22c-.16-.64-.33-1.28-.47-1.91l.15,0c.41-.21.36-.67.66-.94a2.3,2.3,0,0,0-.69-.67,1.22,1.22,0,0,0-.41.21c-.28-1.3-.51-2.59-.69-3.88A.78.78,0,0,0,164,179c0-.1.07-.21.12-.34a1,1,0,0,0-.39-.57c-.09-.73-.17-1.45-.23-2.18l.13-.07a.63.63,0,0,0,.09-1.11l-.28-.24h0c0-.64-.06-1.28-.08-1.92l.14.07.35-.18c0-.14.06-.28.08-.41a.68.68,0,0,0-.58-.76q0-1,.06-2a.55.55,0,0,0,.38-.11,1.59,1.59,0,0,0,.29-.29.3.3,0,0,0,0-.38l-.34-.57a.69.69,0,0,0-.28,0c.07-.73.15-1.44.25-2.14l.13-.07.22-.14c-.07-.14-.18-.23-.18-.33a.7.7,0,0,0,0-.25,31.75,31.75,0,0,1,1-4.19c.22,0,.43-.08.66-.08,0-.38.31-.71,0-1.11l-.21,0a22.67,22.67,0,0,1,1.68-3.58h0a3,3,0,0,0,.19-.36s0,0,0-.08c.31-.51.65-1,1-1.46a1.51,1.51,0,0,0,1,.21c0-.17-.09-.29-.11-.42s0-.33-.06-.48a.93.93,0,0,0-.08-.2c.22-.26.45-.5.69-.74a1,1,0,0,0,.92.07c.28-.21.11-.48,0-.74a.49.49,0,0,0-.08-.18q.43-.39.9-.75l.36.2c.14-.11.33-.19.41-.33a1.39,1.39,0,0,0,.06-.19c0-.11.06-.22.08-.33.26-.17.51-.34.77-.49h0c.34-.2.68-.38,1-.55a16.57,16.57,0,0,1,4.72-1.44c.46-.07.92-.12,1.39-.16l.95,0a.82.82,0,0,0,.29.17h0a1.45,1.45,0,0,0,.44-.18,22.34,22.34,0,0,1,4.29.47.73.73,0,0,0-.22.57c0,.38,0,.56.33.62s.67,0,1,.07c0-.31.08-.58.12-.82l-.26-.23c.68.17,1.37.37,2.07.59,0,.12.07.22.27.34l.16.1a4.06,4.06,0,0,1,.34.23c.1-.11.18-.22.26-.32l.39.14.77.3a.62.62,0,0,0-.27.33c-.06.14-.13.28-.21.44.12.12.22.24.34.34a.55.55,0,0,0,.34.11.85.85,0,0,0,.31-.06c.21-.08.19-.29.19-.47a1.47,1.47,0,0,0,0-.21.5.5,0,0,0-.09-.23,38.71,38.71,0,0,1,3.85,1.87.66.66,0,0,0,.49.87.48.48,0,0,0,.59-.22l0,0c.41.24.81.49,1.22.75l-.31-.13c-.41.35-.41.35-.21.72.05.1.09.21.13.31a.54.54,0,0,0,.39.38l.52-.28c0-.19.09-.38.13-.58l.83.55c.62.42,1.24.86,1.85,1.31a62.27,62.27,0,0,1,7.13,6.21c.49.49,1,1,1.45,1.5s1.06,1.15,1.58,1.75a81.09,81.09,0,0,1,5.32,6.78l-.36-.29a.59.59,0,0,0-.55.53l.51.72c.55-.15.57-.17.54-.76.3.43.6.87.89,1.31a.55.55,0,0,0-.26.18.92.92,0,0,0,0,.84c.15.33.24.35.61.29l.31-.09.33.51c0-.08,0-.14,0-.2.15.22.29.45.43.67,0,.13-.1.24-.13.36.28.29.33.33.53.27q1.63,2.67,3.08,5.46h-.06a.48.48,0,0,0-.31.48.62.62,0,0,0,.37.6,3.73,3.73,0,0,0,.6.12h0c.66,1.31,1.28,2.64,1.86,4a1.1,1.1,0,0,0-.76-.19c-.26.3-.26.3-.21.59s0,.3.06.5c.5.12.9.08,1.15-.33.18.42.36.84.53,1.26-.1.11-.2.22-.31.32.14.27.27.48.57.47h.05c.51,1.29,1,2.6,1.43,3.9l0,.13-.07,0c-.2.1-.37.4-.31.55a.6.6,0,0,0,.44.4h.25c.12.37.25.75.36,1.13.2.67.39,1.35.57,2,.08.27.14.54.21.81a.34.34,0,0,0-.13.46c.09.23.2.46.3.68l.12,0c.16.67.3,1.33.44,2l-.14-.11-.38.23c-.54.32-.57.44-.26,1l0,.06a.43.43,0,0,0,.48.2,1.11,1.11,0,0,0,.49-.23c.27,1.48.49,2.95.64,4.41a.42.42,0,0,1-.09.14,4.36,4.36,0,0,0,.13.45l0,0,.12,1.42c0,.37.05.73.06,1.09a1.42,1.42,0,0,0-.34.52c0,.07.05.22.12.29s.17,0,.25,0h0c0,.52,0,1,0,1.56,0,.24,0,.48,0,.72a.88.88,0,0,0-.37.49.51.51,0,0,0,.21.6l.14.05c0,.88-.1,1.72-.19,2.55l-.18.17a1.14,1.14,0,0,0,.12.34c0,.22,0,.45-.07.67-.05.4-.12.79-.19,1.18s-.14.77-.22,1.15-.17.85-.28,1.25a.51.51,0,0,0-.26-.07,5,5,0,0,0-.68.23c.2.38,0,.87.53,1.1l.08,0a23.84,23.84,0,0,1-1.36,3.59l-.22-.13-.48.21c0,.31-.37.33-.43.58,0,0,0,.06,0,.08.14.18.28.37.44.56l-.18.3c-.11.2-.22.4-.33.58a.29.29,0,0,0-.12-.15,2.46,2.46,0,0,0-.76-.45.45.45,0,0,0-.11,0l0,0c-.16.08-.32.13-.34.36a2,2,0,0,1-.17.5l.25.27.41.43.43-.28c-.25.36-.51.7-.77,1a16.49,16.49,0,0,1-3.61,3.38l-.32.21a1.92,1.92,0,0,0-.37-1,1.35,1.35,0,0,0-.49.07,1,1,0,0,0-.35.34s-.06.06-.07.1a.89.89,0,0,0,0,.54.73.73,0,0,0,.35.49c-.23.13-.47.25-.71.37ZM260.88,187a75.94,75.94,0,0,0-5.47-17.91c-.15-.35-.32-.7-.48-1.06l-.48-1.06a88.56,88.56,0,0,0-7-12.14l-.66-1c-.23-.32-.45-.64-.68-.95a75.1,75.1,0,0,0-12.72-13.74c.55.28,1.09.57,1.64.89a47.6,47.6,0,0,1,13.06,11.7l.72.92c.23.31.47.62.7.94a63.34,63.34,0,0,1,7,12.14c.16.36.31.72.46,1.08l.43,1.08a48.12,48.12,0,0,1,3.55,17.21C260.94,185.78,260.91,186.39,260.88,187Zm-1.49-20.21,1.59-.93a1.08,1.08,0,0,0,.24-.18,4.11,4.11,0,0,0,.67-.57,1,1,0,0,0,.18-.17s0,0,0,0a6,6,0,0,0,1.16-3.81,13.92,13.92,0,0,0-6.32-11,5.8,5.8,0,0,0-3.82-.89l-.25.05a3.51,3.51,0,0,0-1,.36,1,1,0,0,0-.21.09l-1.58.92a50.21,50.21,0,0,0-13.9-12.55,27.86,27.86,0,0,0-9.28-3.53l-1-.6c-9.68-5.62-18.84-6.53-25.83-2.58a.68.68,0,0,0-.21.1l-13.06,7.61-.34.18c-.22.13-.43.27-.64.41l.44-.24.29-.15h0l-.34.2-1.06.62-.22.13a1,1,0,0,1,.27-.23l-13.2,7.67-.17.09c-7,4.07-10.87,12.55-10.87,23.88,0,8.62,2.27,18,6.16,26.86l-31,18c-5.71-7.84-12.61-14.48-20-18.79-9.26-5.37-18-6.43-24.91-3.06a1.08,1.08,0,0,0-.62.15l-13,7.53-1.62.94-4.45,2.59a1.1,1.1,0,0,0-.37.34L62,211.51h0c-6.71,3.9-10.53,11.87-10.84,22.51-2.18,3.42-3.35,8-3.35,13.39h0a50.64,50.64,0,0,0,4,18.65l-2.9,1.68-.06,0-.1.07a5.22,5.22,0,0,0-2.15,4.66,13.86,13.86,0,0,0,6.31,11,6.38,6.38,0,0,0,3.16.94,4.07,4.07,0,0,0,2-.54h0l3-1.74a50.15,50.15,0,0,0,13.72,12.32,25.12,25.12,0,0,0,12.41,3.81l.64,0c5.36,2.94,10.53,4.42,15.24,4.42a19.1,19.1,0,0,0,9.71-2.51c.44-.26.87-.53,1.28-.82l12-7,.48-.3.85-.46c.1-.05.19-.12.29-.18L140.65,284c7.21-4,11.18-12.55,11.18-24.07,0-8.61-2.28-17.94-6.17-26.84l31-18c5.72,7.84,12.62,14.48,20,18.79,5.73,3.33,11.27,5,16.29,5a19.11,19.11,0,0,0,9.65-2.48l.07,0,13.42-7.79h0l14.57-8.46h0c7-4.06,10.92-12.55,10.92-23.92,0-.39,0-.79,0-1.18a28.18,28.18,0,0,0,1.59-9.83A50.55,50.55,0,0,0,259.39,166.79Z"/></g><text class="cls-7" transform="translate(95.1 55.79)">G</text><text class="cls-7" transform="translate(130.66 55.79)">Y</text><text class="cls-7" transform="translate(162.72 55.79)">M</text></g></g></svg>