<svg xmlns="http://www.w3.org/2000/svg" viewBox="0 0 34.83 37.79"><defs><style>.cls-1{fill:#fff;fill-rule:evenodd;}</style></defs><g id="Layer_2" data-name="Layer 2"><g id="Layer_1-2" data-name="Layer 1"><path class="cls-1" d="M23.86,24.21h8.35a2.62,2.62,0,0,1,2.62,2.61v8.36a2.63,2.63,0,0,1-2.62,2.61H23.86a2.62,2.62,0,0,1-2.61-2.61V26.82a2.61,2.61,0,0,1,2.61-2.61ZM18.68,34.83a1,1,0,0,1,0,2H2.27a2.27,2.27,0,0,1-1.61-.67A2.3,2.3,0,0,1,0,34.51V2.27A2.31,2.31,0,0,1,.67.66,2.3,2.3,0,0,1,2.27,0H30.2a2.29,2.29,0,0,1,2.27,2.28V21.1a1,1,0,0,1-2,0V2.27a.31.31,0,0,0-.09-.22A.32.32,0,0,0,30.2,2H2.27A.41.41,0,0,0,2,2,.39.39,0,0,0,2,2.27V34.5a.29.29,0,0,0,.1.22.33.33,0,0,0,.23.1Zm-8.52-17.5a1.59,1.59,0,0,1,.35-1.55c1.14-.67,2.7-.46,3.8-1.23a3.19,3.19,0,0,0,.2-.38c.1-.23.19-.48.25-.65a6.73,6.73,0,0,1-.65-.93l-.66-1.05a1.82,1.82,0,0,1-.37-.95.68.68,0,0,1,.06-.35.63.63,0,0,1,.23-.26.48.48,0,0,1,.16-.08A14.81,14.81,0,0,1,13.5,8a2.07,2.07,0,0,1,.08-.42,2.5,2.5,0,0,1,1.11-1.42,3.54,3.54,0,0,1,.93-.42c.21-.06-.18-.73,0-.75a5.41,5.41,0,0,1,3.47,1.64,2.6,2.6,0,0,1,.64,1.62l0,1.71h0a.48.48,0,0,1,.35.36,1.48,1.48,0,0,1-.18.9h0v0l-.75,1.23a6.36,6.36,0,0,1-.92,1.27l.1.15a4.26,4.26,0,0,0,.49.63l0,0c.86.61,3,.76,3.77,1.21l0,0A1.54,1.54,0,0,1,23,17.33ZM9.5,28.54a1,1,0,0,1,0-2h6.65a1,1,0,0,1,0,2Zm0-6.19a1,1,0,1,1,0-2H22.68a1,1,0,1,1,0,2Zm17.69,5.58a.85.85,0,0,1,1.7,0v2.22h2.22a.85.85,0,0,1,0,1.7H28.89v2.22a.85.85,0,1,1-1.7,0V31.85H25a.85.85,0,1,1,0-1.7h2.21V27.93Z"/></g></g></svg>