<svg xmlns="http://www.w3.org/2000/svg" xmlns:xlink="http://www.w3.org/1999/xlink" viewBox="0 0 298.59 392.07"><defs><style>.cls-1,.cls-11,.cls-15,.cls-16,.cls-17,.cls-26,.cls-3,.cls-70,.cls-8{mix-blend-mode:multiply;}.cls-1{fill:url(#radial-gradient);}.cls-2{fill:url(#radial-gradient-2);}.cls-3{fill:url(#radial-gradient-3);}.cls-4{isolation:isolate;}.cls-5{font-size:36.73px;fill:#fbdb62;font-family:Poppins-Medium, Poppins;font-weight:500;}.cls-6{font-size:25.71px;fill:#fff;font-family:Poppins-Light, Poppins;font-weight:300;}.cls-7{fill:url(#linear-gradient);}.cls-8{fill:#4a8195;}.cls-22,.cls-8{opacity:0.75;}.cls-9{fill:url(#linear-gradient-2);}.cls-10{fill:url(#linear-gradient-3);}.cls-11{fill:#771a1f;}.cls-11,.cls-25{opacity:0.5;}.cls-12{fill:url(#radial-gradient-4);}.cls-13{fill:url(#linear-gradient-4);}.cls-14{fill:url(#linear-gradient-5);}.cls-15{fill:url(#linear-gradient-6);}.cls-16{fill:url(#linear-gradient-7);}.cls-17,.cls-70{opacity:0.55;}.cls-17{fill:url(#radial-gradient-5);}.cls-18{fill:url(#linear-gradient-8);}.cls-19{fill:url(#linear-gradient-9);}.cls-20{fill:url(#linear-gradient-10);}.cls-21{fill:url(#linear-gradient-11);}.cls-22,.cls-72,.cls-74,.cls-76{mix-blend-mode:screen;}.cls-22{fill:url(#linear-gradient-12);}.cls-23{fill:url(#linear-gradient-13);}.cls-24{fill:url(#linear-gradient-14);}.cls-26{opacity:0.85;}.cls-27{fill:url(#linear-gradient-15);}.cls-28{fill:url(#linear-gradient-16);}.cls-29{fill:url(#linear-gradient-17);}.cls-30{fill:url(#linear-gradient-18);}.cls-31{fill:url(#linear-gradient-19);}.cls-32{fill:url(#linear-gradient-20);}.cls-33{fill:url(#linear-gradient-21);}.cls-34{fill:url(#linear-gradient-22);}.cls-35{fill:url(#linear-gradient-23);}.cls-36{fill:url(#linear-gradient-24);}.cls-37{fill:url(#linear-gradient-25);}.cls-38{fill:url(#linear-gradient-26);}.cls-39{fill:url(#linear-gradient-27);}.cls-40{fill:url(#linear-gradient-28);}.cls-41{fill:url(#linear-gradient-29);}.cls-42{fill:url(#linear-gradient-30);}.cls-43{fill:url(#linear-gradient-31);}.cls-44{fill:url(#linear-gradient-32);}.cls-45{fill:url(#linear-gradient-33);}.cls-46{fill:url(#linear-gradient-34);}.cls-47{fill:url(#linear-gradient-35);}.cls-48{fill:url(#linear-gradient-36);}.cls-49{fill:url(#linear-gradient-37);}.cls-50{fill:url(#linear-gradient-38);}.cls-51{fill:url(#linear-gradient-39);}.cls-52{fill:url(#linear-gradient-40);}.cls-53{fill:url(#linear-gradient-41);}.cls-54{fill:url(#linear-gradient-42);}.cls-55{fill:url(#linear-gradient-43);}.cls-56{fill:url(#linear-gradient-44);}.cls-57{fill:url(#linear-gradient-45);}.cls-58{fill:url(#linear-gradient-46);}.cls-59{fill:url(#linear-gradient-47);}.cls-60{fill:url(#linear-gradient-48);}.cls-61{fill:url(#linear-gradient-49);}.cls-62{fill:url(#linear-gradient-50);}.cls-63{fill:url(#linear-gradient-51);}.cls-64{fill:url(#linear-gradient-52);}.cls-65{fill:url(#linear-gradient-53);}.cls-66{fill:url(#linear-gradient-54);}.cls-67{fill:url(#linear-gradient-55);}.cls-68{fill:url(#linear-gradient-56);}.cls-69{fill:url(#linear-gradient-57);}.cls-70{fill:url(#radial-gradient-6);}.cls-71{mask:url(#mask);}.cls-72{fill:url(#radial-gradient-7);}.cls-73{mask:url(#mask-2);}.cls-74{fill:url(#radial-gradient-8);}.cls-75{mask:url(#mask-3);}.cls-76{fill:url(#radial-gradient-9);}.cls-77,.cls-78{fill:none;}.cls-78{stroke:#efefef;stroke-miterlimit:10;stroke-width:0.92px;}</style><radialGradient id="radial-gradient" cx="-10099.65" cy="-1373.49" r="35.86" gradientTransform="matrix(0.15, -0.28, 0.61, 0.32, 2488.67, -2260.55)" gradientUnits="userSpaceOnUse"><stop offset="0" stop-color="#fff"/><stop offset="0.14" stop-color="#e2e2e2"/><stop offset="0.43" stop-color="#999"/><stop offset="0.87" stop-color="#262626"/><stop offset="1"/></radialGradient><radialGradient id="radial-gradient-2" cx="3935.14" cy="2462.77" r="16.27" gradientTransform="matrix(0.44, 0.23, -0.25, 0.5, -952.46, -1971.33)" gradientUnits="userSpaceOnUse"><stop offset="0" stop-color="#fff"/><stop offset="0.21" stop-color="#c4c4c4"/><stop offset="0.6" stop-color="#5c5c5c"/><stop offset="0.87" stop-color="#1a1a1a"/><stop offset="1"/></radialGradient><radialGradient id="radial-gradient-3" cx="-10050.74" cy="-695.73" r="24.24" gradientTransform="matrix(0.17, -0.27, 0.5, 0.31, 2165.88, -2301.09)" xlink:href="#radial-gradient"/><linearGradient id="linear-gradient" x1="120.1" y1="62.32" x2="187.36" y2="62.32" gradientUnits="userSpaceOnUse"><stop offset="0" stop-color="#005898"/><stop offset="0.5" stop-color="#3ca6da"/><stop offset="1" stop-color="#005898"/></linearGradient><linearGradient id="linear-gradient-2" x1="199.63" y1="56.44" x2="150.92" y2="133.99" gradientUnits="userSpaceOnUse"><stop offset="0" stop-color="#3ca6da"/><stop offset="0.4" stop-color="#0674b3"/><stop offset="0.62" stop-color="#056faf"/><stop offset="0.87" stop-color="#0262a2"/><stop offset="1" stop-color="#005898"/></linearGradient><linearGradient id="linear-gradient-3" x1="-96.05" y1="57.42" x2="-51.89" y2="133.56" gradientTransform="matrix(-1, 0, 0, 1, 102.98, 0)" gradientUnits="userSpaceOnUse"><stop offset="0" stop-color="#f0e8e5"/><stop offset="0.58" stop-color="#efe6e3"/><stop offset="0.82" stop-color="#ebe0dc"/><stop offset="0.99" stop-color="#e3d6d0"/><stop offset="1" stop-color="#e3d5cf"/></linearGradient><radialGradient id="radial-gradient-4" cx="-8.92" cy="4086.09" r="37.15" gradientTransform="translate(157.13 -1910.29) scale(0.5)" gradientUnits="userSpaceOnUse"><stop offset="0.01" stop-color="#f6c054"/><stop offset="0.54" stop-color="#ffea72"/><stop offset="0.58" stop-color="#fff071"/><stop offset="0.59" stop-color="#fff171"/><stop offset="0.82" stop-color="#ffe05a"/><stop offset="0.96" stop-color="#ffd44a"/></radialGradient><linearGradient id="linear-gradient-4" x1="152.67" y1="118.57" x2="152.67" y2="137.29" gradientUnits="userSpaceOnUse"><stop offset="0.05" stop-color="#eeeff4"/><stop offset="0.1" stop-color="#c4c3c9"/><stop offset="0.31" stop-color="#e5e5e8"/><stop offset="0.5" stop-color="#c2c3ca"/><stop offset="0.69" stop-color="#dbdcde"/><stop offset="0.84" stop-color="#dde0e5"/><stop offset="0.92" stop-color="#e0e3e8"/><stop offset="0.98" stop-color="#e9ebf0"/><stop offset="1" stop-color="#eeeff4"/></linearGradient><linearGradient id="linear-gradient-5" x1="129.55" y1="132.76" x2="175.78" y2="132.76" gradientUnits="userSpaceOnUse"><stop offset="0.05" stop-color="#eeeff4"/><stop offset="0.31" stop-color="#e5e5e8"/><stop offset="1" stop-color="#eeeff4"/></linearGradient><linearGradient id="linear-gradient-6" x1="133.26" y1="140.88" x2="133.26" y2="132.38" gradientUnits="userSpaceOnUse"><stop offset="0.5" stop-color="#c2c3ca"/><stop offset="1" stop-color="#eeeff4"/></linearGradient><linearGradient id="linear-gradient-7" x1="172.08" y1="140.88" x2="172.08" y2="132.38" xlink:href="#linear-gradient-6"/><radialGradient id="radial-gradient-5" cx="-8.92" cy="4090.56" r="29.91" gradientTransform="translate(157.13 -1910.29) scale(0.5)" gradientUnits="userSpaceOnUse"><stop offset="0.34" stop-color="#f6f2f3"/><stop offset="0.99" stop-color="#565c59"/></radialGradient><linearGradient id="linear-gradient-8" x1="107.68" y1="56.22" x2="155.23" y2="135.33" xlink:href="#linear-gradient-2"/><linearGradient id="linear-gradient-9" x1="108.57" y1="57.42" x2="152.72" y2="133.56" gradientTransform="matrix(1, 0, 0, 1, 0, 0)" xlink:href="#linear-gradient-3"/><linearGradient id="linear-gradient-10" x1="179.4" y1="145.26" x2="125.11" y2="199.33" xlink:href="#linear-gradient-4"/><linearGradient id="linear-gradient-11" x1="178.33" y1="143.06" x2="127.57" y2="200.12" xlink:href="#linear-gradient-5"/><linearGradient id="linear-gradient-12" x1="176.08" y1="152.96" x2="129.45" y2="190.61" gradientTransform="translate(77.84 -45.57) rotate(22.63)" gradientUnits="userSpaceOnUse"><stop offset="0.48" stop-color="#cc9434"/><stop offset="0.68" stop-color="#ffea72"/><stop offset="0.76" stop-color="#ffe76c"/><stop offset="0.87" stop-color="#ffde5c"/><stop offset="0.96" stop-color="#ffd44a"/></linearGradient><linearGradient id="linear-gradient-13" x1="172.99" y1="148.2" x2="133.34" y2="194.46" gradientTransform="translate(77.84 -45.57) rotate(22.63)" xlink:href="#linear-gradient-5"/><linearGradient id="linear-gradient-14" x1="169.76" y1="157.86" x2="127.25" y2="192.7" gradientUnits="userSpaceOnUse"><stop offset="0" stop-color="#eeeff4"/><stop offset="0.26" stop-color="#c4c3c9"/><stop offset="0.65" stop-color="#eeeef0"/><stop offset="0.95" stop-color="#dddde2"/></linearGradient><linearGradient id="linear-gradient-15" x1="175.83" y1="174.39" x2="177.6" y2="174.39" gradientUnits="userSpaceOnUse"><stop offset="0" stop-color="#ebece8"/><stop offset="1" stop-color="#444"/></linearGradient><linearGradient id="linear-gradient-16" x1="175.19" y1="177.85" x2="176.94" y2="177.85" xlink:href="#linear-gradient-15"/><linearGradient id="linear-gradient-17" x1="174.07" y1="181.17" x2="175.83" y2="181.17" xlink:href="#linear-gradient-15"/><linearGradient id="linear-gradient-18" x1="172.45" y1="184.29" x2="174.21" y2="184.29" xlink:href="#linear-gradient-15"/><linearGradient id="linear-gradient-19" x1="170.41" y1="187.15" x2="172.17" y2="187.15" xlink:href="#linear-gradient-15"/><linearGradient id="linear-gradient-20" x1="167.98" y1="189.67" x2="169.73" y2="189.67" xlink:href="#linear-gradient-15"/><linearGradient id="linear-gradient-21" x1="165.19" y1="191.82" x2="166.96" y2="191.82" xlink:href="#linear-gradient-15"/><linearGradient id="linear-gradient-22" x1="162.14" y1="193.54" x2="163.9" y2="193.54" xlink:href="#linear-gradient-15"/><linearGradient id="linear-gradient-23" x1="158.85" y1="194.8" x2="160.61" y2="194.8" xlink:href="#linear-gradient-15"/><linearGradient id="linear-gradient-24" x1="155.43" y1="195.54" x2="157.19" y2="195.54" xlink:href="#linear-gradient-15"/><linearGradient id="linear-gradient-25" x1="151.92" y1="195.82" x2="153.68" y2="195.82" xlink:href="#linear-gradient-15"/><linearGradient id="linear-gradient-26" x1="148.42" y1="195.54" x2="150.17" y2="195.54" xlink:href="#linear-gradient-15"/><linearGradient id="linear-gradient-27" x1="144.99" y1="194.8" x2="146.75" y2="194.8" xlink:href="#linear-gradient-15"/><linearGradient id="linear-gradient-28" x1="141.71" y1="193.54" x2="143.46" y2="193.54" xlink:href="#linear-gradient-15"/><linearGradient id="linear-gradient-29" x1="138.65" y1="191.82" x2="140.41" y2="191.82" xlink:href="#linear-gradient-15"/><linearGradient id="linear-gradient-30" x1="135.87" y1="189.67" x2="137.62" y2="189.67" xlink:href="#linear-gradient-15"/><linearGradient id="linear-gradient-31" x1="133.43" y1="187.15" x2="135.19" y2="187.15" xlink:href="#linear-gradient-15"/><linearGradient id="linear-gradient-32" x1="131.39" y1="184.29" x2="133.15" y2="184.29" xlink:href="#linear-gradient-15"/><linearGradient id="linear-gradient-33" x1="129.78" y1="181.17" x2="131.54" y2="181.17" xlink:href="#linear-gradient-15"/><linearGradient id="linear-gradient-34" x1="128.66" y1="177.85" x2="130.42" y2="177.85" xlink:href="#linear-gradient-15"/><linearGradient id="linear-gradient-35" x1="128" y1="174.39" x2="129.77" y2="174.39" xlink:href="#linear-gradient-15"/><linearGradient id="linear-gradient-36" x1="127.9" y1="170.88" x2="129.66" y2="170.88" xlink:href="#linear-gradient-15"/><linearGradient id="linear-gradient-37" x1="128.27" y1="167.39" x2="130.02" y2="167.39" xlink:href="#linear-gradient-15"/><linearGradient id="linear-gradient-38" x1="129.15" y1="163.99" x2="130.92" y2="163.99" xlink:href="#linear-gradient-15"/><linearGradient id="linear-gradient-39" x1="130.53" y1="160.75" x2="132.28" y2="160.75" xlink:href="#linear-gradient-15"/><linearGradient id="linear-gradient-40" x1="132.35" y1="157.76" x2="134.12" y2="157.76" xlink:href="#linear-gradient-15"/><linearGradient id="linear-gradient-41" x1="134.61" y1="155.06" x2="136.36" y2="155.06" xlink:href="#linear-gradient-15"/><linearGradient id="linear-gradient-42" x1="137.21" y1="152.72" x2="138.98" y2="152.72" xlink:href="#linear-gradient-15"/><linearGradient id="linear-gradient-43" x1="140.15" y1="150.78" x2="141.9" y2="150.78" xlink:href="#linear-gradient-15"/><linearGradient id="linear-gradient-44" x1="143.32" y1="149.29" x2="145.08" y2="149.29" xlink:href="#linear-gradient-15"/><linearGradient id="linear-gradient-45" x1="146.69" y1="148.27" x2="148.45" y2="148.27" xlink:href="#linear-gradient-15"/><linearGradient id="linear-gradient-46" x1="150.16" y1="147.78" x2="151.92" y2="147.78" xlink:href="#linear-gradient-15"/><linearGradient id="linear-gradient-47" x1="153.68" y1="147.78" x2="155.44" y2="147.78" xlink:href="#linear-gradient-15"/><linearGradient id="linear-gradient-48" x1="157.16" y1="148.27" x2="158.91" y2="148.27" xlink:href="#linear-gradient-15"/><linearGradient id="linear-gradient-49" x1="160.52" y1="149.29" x2="162.29" y2="149.29" xlink:href="#linear-gradient-15"/><linearGradient id="linear-gradient-50" x1="163.7" y1="150.78" x2="165.45" y2="150.78" xlink:href="#linear-gradient-15"/><linearGradient id="linear-gradient-51" x1="166.62" y1="152.72" x2="168.39" y2="152.72" xlink:href="#linear-gradient-15"/><linearGradient id="linear-gradient-52" x1="169.25" y1="155.06" x2="170.99" y2="155.06" xlink:href="#linear-gradient-15"/><linearGradient id="linear-gradient-53" x1="171.48" y1="157.76" x2="173.26" y2="157.76" xlink:href="#linear-gradient-15"/><linearGradient id="linear-gradient-54" x1="173.33" y1="160.75" x2="175.07" y2="160.75" xlink:href="#linear-gradient-15"/><linearGradient id="linear-gradient-55" x1="174.68" y1="163.99" x2="176.46" y2="163.99" xlink:href="#linear-gradient-15"/><linearGradient id="linear-gradient-56" x1="175.58" y1="167.39" x2="177.33" y2="167.39" xlink:href="#linear-gradient-15"/><linearGradient id="linear-gradient-57" x1="175.94" y1="170.88" x2="177.71" y2="170.88" xlink:href="#linear-gradient-15"/><radialGradient id="radial-gradient-6" cx="-8.65" cy="4164.08" r="67.99" gradientTransform="translate(157.13 -1910.29) scale(0.5)" gradientUnits="userSpaceOnUse"><stop offset="0.57" stop-color="#cbd2d6"/><stop offset="0.97" stop-color="#5c707e"/></radialGradient><mask id="mask" x="147.72" y="133.07" width="45.01" height="30.45" maskUnits="userSpaceOnUse"><path class="cls-1" d="M175.49,138.19c12.08,6.29,19.52,15.92,16.61,21.49s-15,5-27.13-1.28-19.52-15.91-16.62-21.49S163.4,131.9,175.49,138.19Z"/></mask><radialGradient id="radial-gradient-7" cx="-10099.65" cy="-1373.49" r="35.86" gradientTransform="matrix(0.15, -0.28, 0.61, 0.32, 2488.67, -2260.55)" gradientUnits="userSpaceOnUse"><stop offset="0" stop-color="#ebeae6"/><stop offset="1"/></radialGradient><mask id="mask-2" x="161.67" y="139.71" width="17.1" height="17.17" maskUnits="userSpaceOnUse"><path class="cls-2" d="M177.82,152.2a8.54,8.54,0,1,1-3.66-11.55A8.56,8.56,0,0,1,177.82,152.2Z"/></mask><radialGradient id="radial-gradient-8" cx="3935.14" cy="2462.77" r="16.27" gradientTransform="matrix(0.44, 0.23, -0.25, 0.5, -952.46, -1971.33)" gradientUnits="userSpaceOnUse"><stop offset="0" stop-color="#fff9ef"/><stop offset="0.13" stop-color="#e5e0d7"/><stop offset="0.4" stop-color="#a3a099"/><stop offset="0.79" stop-color="#3b3a37"/><stop offset="1"/></radialGradient><mask id="mask-3" x="120.43" y="183.89" width="25.65" height="19.98" maskUnits="userSpaceOnUse"><path class="cls-3" d="M137.32,187.34c6.72,4.17,10.34,10.48,8.1,14.09s-9.51,3.16-16.22-1-10.35-10.48-8.1-14.09S130.6,183.17,137.32,187.34Z"/></mask><radialGradient id="radial-gradient-9" cx="-10050.74" cy="-695.73" r="24.24" gradientTransform="matrix(0.17, -0.27, 0.5, 0.31, 2165.88, -2301.09)" xlink:href="#radial-gradient-7"/></defs><g class="cls-4"><g id="Layer_2" data-name="Layer 2"><g id="Layer_1-2" data-name="Layer 1"><text class="cls-5" transform="translate(51.22 259.95)">Silver Medal</text><text class="cls-6" transform="translate(29.47 290.15)">Tab + Silver Medal + <tspan x="23.46" y="30.85">Certificate + Gift </tspan><tspan x="72.8" y="61.71">Hamper.</tspan></text><polygon class="cls-7" points="187.36 49.71 120.1 49.71 124.7 74.94 187.36 74.94 187.36 49.71"/><polygon class="cls-8" points="128.27 49.71 120.1 49.71 124.7 74.94 141.78 74.94 128.27 49.71"/><polygon class="cls-8" points="179.19 49.71 187.36 49.71 182.77 74.94 165.69 74.94 179.19 49.71"/><polygon class="cls-9" points="187.38 49.71 139.96 133.11 167.47 133.11 211.29 64.13 187.38 49.71"/><polygon class="cls-10" points="206.59 61.2 161.46 133.11 145.66 133.11 192.14 52.48 206.59 61.2"/><polygon class="cls-11" points="157.86 101.62 139.96 133.11 167.47 133.11 173.02 124.38 157.86 101.62"/><path class="cls-12" d="M152.8,120.29h-.27c-28.76,0-23.17,20.13-21.23,24.94.17-.16.34-.32.51-.46a5.63,5.63,0,0,1,1-.74l0,0,.08,0c.25-.15,3.76-.29,4-.41-1.63-6-5.39-16,15.59-16.16h.27c21,.14,17.23,10.2,15.6,16.16.26.12,3.78.26,4,.41l.07,0,0,0a5.55,5.55,0,0,1,1,.74c.18.14.34.3.51.46C176,140.42,181.56,120.29,152.8,120.29Z"/><path class="cls-13" d="M152.8,120.29h-.27c-28.76,0-23.17,20.13-21.23,24.94.17-.16.34-.32.51-.46a5.63,5.63,0,0,1,1-.74l0,0,.08,0c.25-.15,3.76-.29,4-.41-1.63-6-5.39-16,15.59-16.16h.27c21,.14,17.23,10.2,15.6,16.16.26.12,3.78.26,4,.41l.07,0,0,0a5.55,5.55,0,0,1,1,.74c.18.14.34.3.51.46C176,140.42,181.56,120.29,152.8,120.29Z"/><path class="cls-14" d="M152.8,120.29h-.27c-28.76,0-23.17,20.13-21.23,24.94l.33-.29c-2.19-6.16-5.68-23.84,20.9-23.84h.27c26.58,0,23.09,17.68,20.91,23.84l.32.29C176,140.42,181.56,120.29,152.8,120.29Z"/><path class="cls-15" d="M135.72,135.06c-2.16.68-4.25,1.06-6.14,2.33a25.49,25.49,0,0,0,1.72,7.84c.17-.16.34-.32.51-.46a5.63,5.63,0,0,1,1-.74l0,0,.08,0c.25-.15,3.76-.29,4-.41C136.26,141.1,135.23,137.94,135.72,135.06Z"/><path class="cls-16" d="M169.53,134.65c.67,3-.43,6.33-1.13,8.91.26.12,3.78.26,4,.41l.07,0,0,0a5.55,5.55,0,0,1,1,.74c.18.14.34.3.51.46a25.54,25.54,0,0,0,1.73-8.06A26.13,26.13,0,0,0,169.53,134.65Z"/><path class="cls-17" d="M152.79,125.69h-.24c-20.44,0-19.62,11-18.3,18.61.12-.09,2.42-.62,2.69-.74-1.63-6-5.39-16,15.59-16.16h.27c21,.14,17.23,10.2,15.6,16.16.26.12,2.56.65,2.68.74C172.4,136.66,173.22,125.69,152.79,125.69Z"/><polygon class="cls-18" points="96.15 64.13 139.96 133.11 167.48 133.11 120.06 49.71 96.15 64.13"/><polygon class="cls-19" points="101 61.2 146.14 133.11 161.93 133.11 115.46 52.48 101 61.2"/><circle class="cls-20" cx="152.8" cy="171.76" r="38.18"/><path class="cls-21" d="M152.8,133.57A38.19,38.19,0,1,0,191,171.76,38.18,38.18,0,0,0,152.8,133.57Zm0,75.31a37.13,37.13,0,1,1,37.13-37.12A37.12,37.12,0,0,1,152.8,208.88Z"/><circle class="cls-22" cx="152.8" cy="171.76" r="30.17" transform="translate(-54.32 72.01) rotate(-22.63)"/><circle class="cls-23" cx="152.8" cy="171.76" r="30.17" transform="translate(-54.32 72.01) rotate(-22.63)"/><circle class="cls-24" cx="152.8" cy="171.76" r="29.16"/><g class="cls-25"><g class="cls-26"><path class="cls-27" d="M176.59,175.26a.87.87,0,0,1-.75-1,.88.88,0,1,1,.75,1Z"/><path class="cls-28" d="M175.84,178.69a.88.88,0,0,1,.44-1.7.88.88,0,1,1-.44,1.7Z"/><path class="cls-29" d="M174.57,182a.85.85,0,0,1-.42-1.13.86.86,0,0,1,1.11-.48.9.9,0,0,1,.51,1.17A.91.91,0,0,1,174.57,182Z"/><path class="cls-30" d="M172.87,185a.88.88,0,1,1,.91-1.5.88.88,0,1,1-.91,1.5Z"/><path class="cls-31" d="M170.71,187.8a.86.86,0,0,1-.09-1.21.88.88,0,1,1,.09,1.21Z"/><path class="cls-32" d="M168.19,190.25a.91.91,0,0,1,.07-1.24.89.89,0,0,1,1.23.06.86.86,0,0,1-.06,1.25A.85.85,0,0,1,168.19,190.25Z"/><path class="cls-33" d="M165.33,192.28a.86.86,0,0,1,.26-1.19.88.88,0,1,1-.26,1.19Z"/><path class="cls-34" d="M162.22,193.91a.93.93,0,0,1,.41-1.18.91.91,0,0,1,1.17.42.87.87,0,0,1-.42,1.18A.84.84,0,0,1,162.22,193.91Z"/><path class="cls-35" d="M158.88,195a.86.86,0,0,1,.6-1.06.89.89,0,0,1,1.09.56.88.88,0,0,1-.58,1.12A.9.9,0,0,1,158.88,195Z"/><path class="cls-36" d="M155.43,195.68a.92.92,0,0,1,.75-1,.9.9,0,0,1,1,.74.88.88,0,0,1-1.74.27Z"/><path class="cls-37" d="M151.92,195.78a.88.88,0,0,1,1.76,0,.88.88,0,1,1-1.76,0Z"/><path class="cls-38" d="M148.43,195.41a.9.9,0,0,1,1-.74.92.92,0,0,1,.74,1,.88.88,0,0,1-1.74-.27Z"/><path class="cls-39" d="M145,194.52a.87.87,0,0,1,1.08-.56.86.86,0,0,1,.6,1.06.89.89,0,0,1-1.1.62A.87.87,0,0,1,145,194.52Z"/><path class="cls-40" d="M141.8,193.15a.91.91,0,0,1,1.17-.42.93.93,0,0,1,.42,1.18.85.85,0,0,1-1.17.42A.88.88,0,0,1,141.8,193.15Z"/><path class="cls-41" d="M138.81,191.32a.88.88,0,0,1,1.2-.23.86.86,0,0,1,.27,1.19.9.9,0,0,1-1.24.28A.87.87,0,0,1,138.81,191.32Z"/><path class="cls-42" d="M136.11,189.07a.88.88,0,1,1,1.3,1.18.85.85,0,0,1-1.24.07A.87.87,0,0,1,136.11,189.07Z"/><path class="cls-43" d="M133.77,186.45a.88.88,0,0,1,1.21.14.85.85,0,0,1-.08,1.21.88.88,0,1,1-1.13-1.35Z"/><path class="cls-44" d="M131.82,183.53a.88.88,0,0,1,.92,1.5.85.85,0,0,1-1.21-.29A.86.86,0,0,1,131.82,183.53Z"/><path class="cls-45" d="M130.34,180.35a.87.87,0,0,1,1.12.48A.85.85,0,0,1,131,182a.88.88,0,1,1-.69-1.61Z"/><path class="cls-46" d="M129.32,177a.88.88,0,0,1,.44,1.7.88.88,0,1,1-.44-1.7Z"/><path class="cls-47" d="M128.82,173.51a.88.88,0,0,1,.94.78.86.86,0,0,1-.74,1,.9.9,0,0,1-1-.77A.89.89,0,0,1,128.82,173.51Z"/><path class="cls-48" d="M128.82,170a.9.9,0,0,1,.84.91.93.93,0,0,1-.93.85.84.84,0,0,1-.83-.91A.86.86,0,0,1,128.82,170Z"/><path class="cls-49" d="M129.32,166.53a.92.92,0,0,1,.7,1,.88.88,0,0,1-1,.71.9.9,0,0,1-.74-1A.85.85,0,0,1,129.32,166.53Z"/><path class="cls-50" d="M130.34,163.17a.88.88,0,0,1,.53,1.11.93.93,0,0,1-1.11.55.83.83,0,0,1-.55-1.12A.86.86,0,0,1,130.34,163.17Z"/><path class="cls-51" d="M131.82,160a.91.91,0,0,1,.37,1.17.87.87,0,0,1-1.16.39.88.88,0,0,1-.4-1.19A.83.83,0,0,1,131.82,160Z"/><path class="cls-52" d="M133.77,157.06a.89.89,0,0,1,.19,1.22.92.92,0,0,1-1.22.2.84.84,0,0,1-.21-1.23A.88.88,0,0,1,133.77,157.06Z"/><path class="cls-53" d="M136.11,154.44a.92.92,0,0,1,0,1.24.87.87,0,0,1-1.22,0,.89.89,0,0,1-.05-1.27A.87.87,0,0,1,136.11,154.44Z"/><path class="cls-54" d="M138.81,152.2a.89.89,0,0,1-.16,1.22.93.93,0,0,1-1.24-.16.84.84,0,0,1,.16-1.23A.87.87,0,0,1,138.81,152.2Z"/><path class="cls-55" d="M141.8,150.37a.9.9,0,0,1-.34,1.18.87.87,0,0,1-1.18-.31.88.88,0,0,1,.32-1.23A.85.85,0,0,1,141.8,150.37Z"/><path class="cls-56" d="M145,149a.9.9,0,0,1-.51,1.12.93.93,0,0,1-1.14-.52.82.82,0,0,1,.51-1.12A.86.86,0,0,1,145,149Z"/><path class="cls-57" d="M148.43,148.11a.9.9,0,0,1-.67,1,.88.88,0,0,1-.38-1.72A.85.85,0,0,1,148.43,148.11Z"/><path class="cls-58" d="M151.92,147.74a.88.88,0,0,1-.81.92.93.93,0,0,1-.94-.82.84.84,0,0,1,.81-.94A.88.88,0,0,1,151.92,147.74Z"/><path class="cls-59" d="M155.43,147.84a.93.93,0,0,1-.94.82.89.89,0,0,1-.81-.92.88.88,0,0,1,.94-.84A.83.83,0,0,1,155.43,147.84Z"/><path class="cls-60" d="M158.88,148.5a.87.87,0,0,1-1,.64.91.91,0,0,1-.67-1,.85.85,0,0,1,1.05-.69A.88.88,0,0,1,158.88,148.5Z"/><path class="cls-61" d="M162.22,149.6a.93.93,0,0,1-1.14.52.88.88,0,0,1-.51-1.12.85.85,0,0,1,1.14-.52A.84.84,0,0,1,162.22,149.6Z"/><path class="cls-62" d="M165.33,151.24a.88.88,0,0,1-1.19.31.91.91,0,0,1-.34-1.18A.86.86,0,0,1,165,150,.9.9,0,0,1,165.33,151.24Z"/><path class="cls-63" d="M168.19,153.26a.92.92,0,0,1-1.23.16.89.89,0,0,1-.17-1.22A.87.87,0,0,1,168,152,.83.83,0,0,1,168.19,153.26Z"/><path class="cls-64" d="M170.71,155.72a.89.89,0,0,1-1.23,0,.93.93,0,0,1,0-1.24.87.87,0,0,1,1.26,0A.9.9,0,0,1,170.71,155.72Z"/><path class="cls-65" d="M172.87,158.48a.93.93,0,0,1-1.23-.2.89.89,0,0,1,.19-1.22.88.88,0,0,1,1.24.19A.84.84,0,0,1,172.87,158.48Z"/><path class="cls-66" d="M174.57,161.55a.87.87,0,0,1-1.16-.39.91.91,0,0,1,.37-1.17.83.83,0,0,1,1.19.37A.86.86,0,0,1,174.57,161.55Z"/><path class="cls-67" d="M175.84,164.83a.93.93,0,0,1-1.11-.55.88.88,0,0,1,1.67-.57A.85.85,0,0,1,175.84,164.83Z"/><path class="cls-68" d="M176.59,168.26a.88.88,0,0,1-1-.71.92.92,0,0,1,.69-1,.85.85,0,0,1,1,.7A.89.89,0,0,1,176.59,168.26Z"/><path class="cls-69" d="M176.87,171.76a.91.91,0,0,1-.92-.85.89.89,0,0,1,.83-.91.86.86,0,0,1,.92.85A.84.84,0,0,1,176.87,171.76Z"/></g><g class="cls-26"><path class="cls-27" d="M176.59,175.26a.87.87,0,0,1-.75-1,.88.88,0,1,1,.75,1Z"/><path class="cls-28" d="M175.84,178.69a.88.88,0,0,1,.44-1.7.88.88,0,1,1-.44,1.7Z"/><path class="cls-29" d="M174.57,182a.85.85,0,0,1-.42-1.13.86.86,0,0,1,1.11-.48.9.9,0,0,1,.51,1.17A.91.91,0,0,1,174.57,182Z"/><path class="cls-30" d="M172.87,185a.88.88,0,1,1,.91-1.5.88.88,0,1,1-.91,1.5Z"/><path class="cls-31" d="M170.71,187.8a.86.86,0,0,1-.09-1.21.88.88,0,1,1,.09,1.21Z"/><path class="cls-32" d="M168.19,190.25a.91.91,0,0,1,.07-1.24.89.89,0,0,1,1.23.06.86.86,0,0,1-.06,1.25A.85.85,0,0,1,168.19,190.25Z"/><path class="cls-33" d="M165.33,192.28a.86.86,0,0,1,.26-1.19.88.88,0,1,1-.26,1.19Z"/><path class="cls-34" d="M162.22,193.91a.93.93,0,0,1,.41-1.18.91.91,0,0,1,1.17.42.87.87,0,0,1-.42,1.18A.84.84,0,0,1,162.22,193.91Z"/><path class="cls-35" d="M158.88,195a.86.86,0,0,1,.6-1.06.89.89,0,0,1,1.09.56.88.88,0,0,1-.58,1.12A.9.9,0,0,1,158.88,195Z"/><path class="cls-36" d="M155.43,195.68a.92.92,0,0,1,.75-1,.9.9,0,0,1,1,.74.88.88,0,0,1-1.74.27Z"/><path class="cls-37" d="M151.92,195.78a.88.88,0,0,1,1.76,0,.88.88,0,1,1-1.76,0Z"/><path class="cls-38" d="M148.43,195.41a.9.9,0,0,1,1-.74.92.92,0,0,1,.74,1,.88.88,0,0,1-1.74-.27Z"/><path class="cls-39" d="M145,194.52a.87.87,0,0,1,1.08-.56.86.86,0,0,1,.6,1.06.89.89,0,0,1-1.1.62A.87.87,0,0,1,145,194.52Z"/><path class="cls-40" d="M141.8,193.15a.91.91,0,0,1,1.17-.42.93.93,0,0,1,.42,1.18.85.85,0,0,1-1.17.42A.88.88,0,0,1,141.8,193.15Z"/><path class="cls-41" d="M138.81,191.32a.88.88,0,0,1,1.2-.23.86.86,0,0,1,.27,1.19.9.9,0,0,1-1.24.28A.87.87,0,0,1,138.81,191.32Z"/><path class="cls-42" d="M136.11,189.07a.88.88,0,1,1,1.3,1.18.85.85,0,0,1-1.24.07A.87.87,0,0,1,136.11,189.07Z"/><path class="cls-43" d="M133.77,186.45a.88.88,0,0,1,1.21.14.85.85,0,0,1-.08,1.21.88.88,0,1,1-1.13-1.35Z"/><path class="cls-44" d="M131.82,183.53a.88.88,0,0,1,.92,1.5.85.85,0,0,1-1.21-.29A.86.86,0,0,1,131.82,183.53Z"/><path class="cls-45" d="M130.34,180.35a.87.87,0,0,1,1.12.48A.85.85,0,0,1,131,182a.88.88,0,1,1-.69-1.61Z"/><path class="cls-46" d="M129.32,177a.88.88,0,0,1,.44,1.7.88.88,0,1,1-.44-1.7Z"/><path class="cls-47" d="M128.82,173.51a.88.88,0,0,1,.94.78.86.86,0,0,1-.74,1,.9.9,0,0,1-1-.77A.89.89,0,0,1,128.82,173.51Z"/><path class="cls-48" d="M128.82,170a.9.9,0,0,1,.84.91.93.93,0,0,1-.93.85.84.84,0,0,1-.83-.91A.86.86,0,0,1,128.82,170Z"/><path class="cls-49" d="M129.32,166.53a.92.92,0,0,1,.7,1,.88.88,0,0,1-1,.71.9.9,0,0,1-.74-1A.85.85,0,0,1,129.32,166.53Z"/><path class="cls-50" d="M130.34,163.17a.88.88,0,0,1,.53,1.11.93.93,0,0,1-1.11.55.83.83,0,0,1-.55-1.12A.86.86,0,0,1,130.34,163.17Z"/><path class="cls-51" d="M131.82,160a.91.91,0,0,1,.37,1.17.87.87,0,0,1-1.16.39.88.88,0,0,1-.4-1.19A.83.83,0,0,1,131.82,160Z"/><path class="cls-52" d="M133.77,157.06a.89.89,0,0,1,.19,1.22.92.92,0,0,1-1.22.2.84.84,0,0,1-.21-1.23A.88.88,0,0,1,133.77,157.06Z"/><path class="cls-53" d="M136.11,154.44a.92.92,0,0,1,0,1.24.87.87,0,0,1-1.22,0,.89.89,0,0,1-.05-1.27A.87.87,0,0,1,136.11,154.44Z"/><path class="cls-54" d="M138.81,152.2a.89.89,0,0,1-.16,1.22.93.93,0,0,1-1.24-.16.84.84,0,0,1,.16-1.23A.87.87,0,0,1,138.81,152.2Z"/><path class="cls-55" d="M141.8,150.37a.9.9,0,0,1-.34,1.18.87.87,0,0,1-1.18-.31.88.88,0,0,1,.32-1.23A.85.85,0,0,1,141.8,150.37Z"/><path class="cls-56" d="M145,149a.9.9,0,0,1-.51,1.12.93.93,0,0,1-1.14-.52.82.82,0,0,1,.51-1.12A.86.86,0,0,1,145,149Z"/><path class="cls-57" d="M148.43,148.11a.9.9,0,0,1-.67,1,.88.88,0,0,1-.38-1.72A.85.85,0,0,1,148.43,148.11Z"/><path class="cls-58" d="M151.92,147.74a.88.88,0,0,1-.81.92.93.93,0,0,1-.94-.82.84.84,0,0,1,.81-.94A.88.88,0,0,1,151.92,147.74Z"/><path class="cls-59" d="M155.43,147.84a.93.93,0,0,1-.94.82.89.89,0,0,1-.81-.92.88.88,0,0,1,.94-.84A.83.83,0,0,1,155.43,147.84Z"/><path class="cls-60" d="M158.88,148.5a.87.87,0,0,1-1,.64.91.91,0,0,1-.67-1,.85.85,0,0,1,1.05-.69A.88.88,0,0,1,158.88,148.5Z"/><path class="cls-61" d="M162.22,149.6a.93.93,0,0,1-1.14.52.88.88,0,0,1-.51-1.12.85.85,0,0,1,1.14-.52A.84.84,0,0,1,162.22,149.6Z"/><path class="cls-62" d="M165.33,151.24a.88.88,0,0,1-1.19.31.91.91,0,0,1-.34-1.18A.86.86,0,0,1,165,150,.9.9,0,0,1,165.33,151.24Z"/><path class="cls-63" d="M168.19,153.26a.92.92,0,0,1-1.23.16.89.89,0,0,1-.17-1.22A.87.87,0,0,1,168,152,.83.83,0,0,1,168.19,153.26Z"/><path class="cls-64" d="M170.71,155.72a.89.89,0,0,1-1.23,0,.93.93,0,0,1,0-1.24.87.87,0,0,1,1.26,0A.9.9,0,0,1,170.71,155.72Z"/><path class="cls-65" d="M172.87,158.48a.93.93,0,0,1-1.23-.2.89.89,0,0,1,.19-1.22.88.88,0,0,1,1.24.19A.84.84,0,0,1,172.87,158.48Z"/><path class="cls-66" d="M174.57,161.55a.87.87,0,0,1-1.16-.39.91.91,0,0,1,.37-1.17.83.83,0,0,1,1.19.37A.86.86,0,0,1,174.57,161.55Z"/><path class="cls-67" d="M175.84,164.83a.93.93,0,0,1-1.11-.55.88.88,0,0,1,1.67-.57A.85.85,0,0,1,175.84,164.83Z"/><path class="cls-68" d="M176.59,168.26a.88.88,0,0,1-1-.71.92.92,0,0,1,.69-1,.85.85,0,0,1,1,.7A.89.89,0,0,1,176.59,168.26Z"/><path class="cls-69" d="M176.87,171.76a.91.91,0,0,1-.92-.85.89.89,0,0,1,.83-.91.86.86,0,0,1,.92.85A.84.84,0,0,1,176.87,171.76Z"/></g></g><path class="cls-70" d="M152.8,142.6A29.16,29.16,0,1,0,182,171.76,29.15,29.15,0,0,0,152.8,142.6Zm0,56.42a27.27,27.27,0,1,1,27.27-27.26A27.26,27.26,0,0,1,152.8,199Z"/><g class="cls-71"><path class="cls-72" d="M175.49,138.19c12.08,6.29,19.52,15.92,16.61,21.49s-15,5-27.13-1.28-19.52-15.91-16.62-21.49S163.4,131.9,175.49,138.19Z"/></g><g class="cls-73"><path class="cls-74" d="M177.82,152.2a8.54,8.54,0,1,1-3.66-11.55A8.56,8.56,0,0,1,177.82,152.2Z"/></g><g class="cls-75"><path class="cls-76" d="M137.32,187.34c6.72,4.17,10.34,10.48,8.1,14.09s-9.51,3.16-16.22-1-10.35-10.48-8.1-14.09S130.6,183.17,137.32,187.34Z"/></g><circle class="cls-77" cx="152.8" cy="171.76" r="38.18"/><rect class="cls-78" x="0.46" y="0.46" width="297.67" height="391.15"/></g></g></g></svg>