<svg xmlns="http://www.w3.org/2000/svg" xmlns:xlink="http://www.w3.org/1999/xlink" viewBox="0 0 302.48 392.07"><defs><style>.cls-1,.cls-11,.cls-13,.cls-15,.cls-17,.cls-19,.cls-21,.cls-23,.cls-25,.cls-27,.cls-29,.cls-3,.cls-31,.cls-315,.cls-33,.cls-35,.cls-37,.cls-39,.cls-41,.cls-43,.cls-45,.cls-47,.cls-49,.cls-51,.cls-52{mix-blend-mode:multiply;}.cls-1{fill:url(#radial-gradient);}.cls-2{fill:url(#radial-gradient-2);}.cls-3{fill:url(#radial-gradient-3);}.cls-4,.cls-8{fill:none;}.cls-5{isolation:isolate;}.cls-6{font-size:36.73px;fill:#fbdb62;font-family:Poppins-Medium, Poppins;font-weight:500;}.cls-7{font-size:25.71px;font-family:Poppins-Light, Poppins;font-weight:300;}.cls-53,.cls-7{fill:#fff;}.cls-8{stroke:#efefef;stroke-miterlimit:10;stroke-width:0.92px;}.cls-9{fill:url(#linear-gradient);}.cls-10{fill:url(#linear-gradient-2);}.cls-11{fill:#751b18;opacity:0.5;}.cls-12{fill:url(#linear-gradient-3);}.cls-13{fill:url(#linear-gradient-4);}.cls-14{fill:url(#linear-gradient-5);}.cls-15{fill:url(#linear-gradient-6);}.cls-16{fill:url(#linear-gradient-7);}.cls-17{fill:url(#linear-gradient-8);}.cls-18{fill:url(#linear-gradient-9);}.cls-19{fill:url(#linear-gradient-10);}.cls-20{fill:url(#linear-gradient-11);}.cls-21{fill:url(#linear-gradient-12);}.cls-22{fill:url(#linear-gradient-13);}.cls-23{fill:url(#linear-gradient-14);}.cls-24{fill:url(#linear-gradient-15);}.cls-25{fill:url(#linear-gradient-16);}.cls-26{fill:url(#linear-gradient-17);}.cls-27{fill:url(#linear-gradient-18);}.cls-28{fill:url(#linear-gradient-19);}.cls-29{fill:url(#linear-gradient-20);}.cls-30{fill:url(#linear-gradient-21);}.cls-31{fill:url(#linear-gradient-22);}.cls-32{fill:url(#linear-gradient-23);}.cls-33{fill:url(#linear-gradient-24);}.cls-34{fill:url(#linear-gradient-25);}.cls-35{fill:url(#linear-gradient-26);}.cls-36{fill:url(#linear-gradient-27);}.cls-37{fill:url(#linear-gradient-28);}.cls-38{fill:url(#linear-gradient-29);}.cls-39{fill:url(#linear-gradient-30);}.cls-40{fill:url(#linear-gradient-31);}.cls-41{fill:url(#linear-gradient-32);}.cls-42{fill:url(#linear-gradient-33);}.cls-43{fill:url(#linear-gradient-34);}.cls-44{fill:url(#linear-gradient-35);}.cls-45{fill:url(#linear-gradient-36);}.cls-46{fill:url(#linear-gradient-37);}.cls-47{fill:url(#linear-gradient-38);}.cls-48{fill:url(#linear-gradient-39);}.cls-49{fill:url(#linear-gradient-40);}.cls-50{fill:url(#linear-gradient-41);}.cls-51{fill:url(#linear-gradient-42);}.cls-52{opacity:0.55;}.cls-53{opacity:0;}.cls-54{fill:#fefefe;opacity:0;}.cls-55{fill:#fdfdfd;opacity:0.01;}.cls-56{fill:#fcfcfc;opacity:0.01;}.cls-57{fill:#fbfbfb;opacity:0.02;}.cls-58{fill:#fafafa;opacity:0.02;}.cls-59{fill:#f9f9f9;opacity:0.02;}.cls-60{fill:#f8f8f8;opacity:0.03;}.cls-61{fill:#f7f7f7;opacity:0.03;}.cls-62{fill:#f6f6f6;opacity:0.04;}.cls-63{fill:#f5f5f5;opacity:0.04;}.cls-64{fill:#f4f4f4;opacity:0.04;}.cls-65{fill:#f3f3f3;opacity:0.05;}.cls-66{fill:#f2f2f2;opacity:0.05;}.cls-67{fill:#f1f1f1;opacity:0.05;}.cls-68{fill:#f0f0f0;opacity:0.06;}.cls-69{fill:#efefef;opacity:0.06;}.cls-70{fill:#eee;opacity:0.07;}.cls-71{fill:#ededed;opacity:0.07;}.cls-72{fill:#ececec;opacity:0.07;}.cls-73{fill:#ebebeb;opacity:0.08;}.cls-74{fill:#eaeaea;opacity:0.08;}.cls-75{fill:#e9e9e9;opacity:0.09;}.cls-76{fill:#e8e8e8;opacity:0.09;}.cls-77{fill:#e7e7e7;opacity:0.09;}.cls-78{fill:#e6e6e6;opacity:0.1;}.cls-79{fill:#e5e5e5;opacity:0.1;}.cls-80{fill:#e4e4e4;opacity:0.11;}.cls-81{fill:#e3e3e3;opacity:0.11;}.cls-82{fill:#e2e2e2;opacity:0.11;}.cls-83{fill:#e1e1e1;opacity:0.12;}.cls-84{fill:#e0e0e0;opacity:0.12;}.cls-85{fill:#dfdfdf;opacity:0.13;}.cls-86{fill:#dedede;opacity:0.13;}.cls-87{fill:#ddd;opacity:0.13;}.cls-88{fill:#dcdcdc;opacity:0.14;}.cls-89{fill:#dbdbdb;opacity:0.14;}.cls-90{fill:#dadada;opacity:0.15;}.cls-91{fill:#d9d9d9;opacity:0.15;}.cls-92{fill:#d8d8d8;opacity:0.15;}.cls-93{fill:#d7d7d7;opacity:0.16;}.cls-94{fill:#d6d6d6;opacity:0.16;}.cls-95{fill:#d5d5d5;opacity:0.16;}.cls-96{fill:#d4d4d4;opacity:0.17;}.cls-97{fill:#d3d3d3;opacity:0.17;}.cls-98{fill:#d2d2d2;opacity:0.18;}.cls-99{fill:#d1d1d1;opacity:0.18;}.cls-100{fill:#d0d0d0;opacity:0.18;}.cls-101{fill:#cfcfcf;opacity:0.19;}.cls-102{fill:#cecece;opacity:0.19;}.cls-103{fill:#cdcdcd;opacity:0.2;}.cls-104{fill:#ccc;opacity:0.2;}.cls-105{fill:#cbcbcb;opacity:0.2;}.cls-106{fill:#cacaca;opacity:0.21;}.cls-107{fill:#c9c9c9;opacity:0.21;}.cls-108{fill:#c8c8c8;opacity:0.22;}.cls-109{fill:#c7c7c7;opacity:0.22;}.cls-110{fill:#c6c6c6;opacity:0.22;}.cls-111{fill:#c5c5c5;opacity:0.23;}.cls-112{fill:#c4c4c4;opacity:0.23;}.cls-113{fill:#c3c3c3;opacity:0.24;}.cls-114{fill:#c2c2c2;opacity:0.24;}.cls-115{fill:#c1c1c1;opacity:0.24;}.cls-116{fill:silver;opacity:0.25;}.cls-117{fill:#bfbfbf;opacity:0.25;}.cls-118{fill:#bebebe;opacity:0.25;}.cls-119{fill:#bdbdbd;opacity:0.26;}.cls-120{fill:#bcbcbc;opacity:0.26;}.cls-121{fill:#bbb;opacity:0.27;}.cls-122{fill:#bababa;opacity:0.27;}.cls-123{fill:#b9b9b9;opacity:0.27;}.cls-124{fill:#b8b8b8;opacity:0.28;}.cls-125{fill:#b7b7b7;opacity:0.28;}.cls-126{fill:#b6b6b6;opacity:0.29;}.cls-127{fill:#b5b5b5;opacity:0.29;}.cls-128{fill:#b4b4b4;opacity:0.29;}.cls-129{fill:#b3b3b3;opacity:0.3;}.cls-130{fill:#b2b2b2;opacity:0.3;}.cls-131{fill:#b1b1b1;opacity:0.31;}.cls-132{fill:#b0b0b0;opacity:0.31;}.cls-133{fill:#afafaf;opacity:0.31;}.cls-134{fill:#aeaeae;opacity:0.32;}.cls-135{fill:#adadad;opacity:0.32;}.cls-136{fill:#acacac;opacity:0.33;}.cls-137{fill:#ababab;opacity:0.33;}.cls-138{fill:#aaa;opacity:0.33;}.cls-139{fill:#a9a9a9;opacity:0.34;}.cls-140{fill:#a8a8a8;opacity:0.34;}.cls-141{fill:#a7a7a7;opacity:0.35;}.cls-142{fill:#a6a6a6;opacity:0.35;}.cls-143{fill:#a5a5a5;opacity:0.35;}.cls-144{fill:#a4a4a4;opacity:0.36;}.cls-145{fill:#a3a3a3;opacity:0.36;}.cls-146{fill:#a2a2a2;opacity:0.36;}.cls-147{fill:#a1a1a1;opacity:0.37;}.cls-148{fill:#a0a0a0;opacity:0.37;}.cls-149{fill:#9f9f9f;opacity:0.38;}.cls-150{fill:#9e9e9e;opacity:0.38;}.cls-151{fill:#9d9d9d;opacity:0.38;}.cls-152{fill:#9c9c9c;opacity:0.39;}.cls-153{fill:#9b9b9b;opacity:0.39;}.cls-154{fill:#9a9a9a;opacity:0.4;}.cls-155{fill:#999;opacity:0.4;}.cls-156{fill:#989898;opacity:0.4;}.cls-157{fill:#979797;opacity:0.41;}.cls-158{fill:#969696;opacity:0.41;}.cls-159{fill:#959595;opacity:0.42;}.cls-160{fill:#949494;opacity:0.42;}.cls-161{fill:#939393;opacity:0.42;}.cls-162{fill:#929292;opacity:0.43;}.cls-163{fill:#919191;opacity:0.43;}.cls-164{fill:#909090;opacity:0.44;}.cls-165{fill:#8f8f8f;opacity:0.44;}.cls-166{fill:#8e8e8e;opacity:0.44;}.cls-167{fill:#8d8d8d;opacity:0.45;}.cls-168{fill:#8c8c8c;opacity:0.45;}.cls-169{fill:#8b8b8b;opacity:0.45;}.cls-170{fill:#8a8a8a;opacity:0.46;}.cls-171{fill:#898989;opacity:0.46;}.cls-172{fill:#888;opacity:0.47;}.cls-173{fill:#878787;opacity:0.47;}.cls-174{fill:#868686;opacity:0.47;}.cls-175{fill:#858585;opacity:0.48;}.cls-176{fill:#848484;opacity:0.48;}.cls-177{fill:#838383;opacity:0.49;}.cls-178{fill:#828282;opacity:0.49;}.cls-179{fill:#818181;opacity:0.49;}.cls-180{fill:gray;opacity:0.5;}.cls-181{fill:#7f7f7f;opacity:0.5;}.cls-182{fill:#7e7e7e;opacity:0.51;}.cls-183{fill:#7d7d7d;opacity:0.51;}.cls-184{fill:#7c7c7c;opacity:0.51;}.cls-185{fill:#7b7b7b;opacity:0.52;}.cls-186{fill:#7a7a7a;opacity:0.52;}.cls-187{fill:#797979;opacity:0.53;}.cls-188{fill:#787878;opacity:0.53;}.cls-189{fill:#777;opacity:0.53;}.cls-190{fill:#767676;opacity:0.54;}.cls-191{fill:#757575;opacity:0.54;}.cls-192{fill:#747474;opacity:0.55;}.cls-193{fill:#737373;opacity:0.55;}.cls-194{fill:#727272;opacity:0.55;}.cls-195{fill:#717171;opacity:0.56;}.cls-196{fill:#707070;opacity:0.56;}.cls-197{fill:#6f6f6f;opacity:0.56;}.cls-198{fill:#6e6e6e;opacity:0.57;}.cls-199{fill:#6d6d6d;opacity:0.57;}.cls-200{fill:#6c6c6c;opacity:0.58;}.cls-201{fill:#6b6b6b;opacity:0.58;}.cls-202{fill:#6a6a6a;opacity:0.58;}.cls-203{fill:#696969;opacity:0.59;}.cls-204{fill:#686868;opacity:0.59;}.cls-205{fill:#676767;opacity:0.6;}.cls-206{fill:#666;opacity:0.6;}.cls-207{fill:#656565;opacity:0.6;}.cls-208{fill:#646464;opacity:0.61;}.cls-209{fill:#636363;opacity:0.61;}.cls-210{fill:#626262;opacity:0.62;}.cls-211{fill:#616161;opacity:0.62;}.cls-212{fill:#606060;opacity:0.62;}.cls-213{fill:#5f5f5f;opacity:0.63;}.cls-214{fill:#5e5e5e;opacity:0.63;}.cls-215{fill:#5d5d5d;opacity:0.64;}.cls-216{fill:#5c5c5c;opacity:0.64;}.cls-217{fill:#5b5b5b;opacity:0.64;}.cls-218{fill:#5a5a5a;opacity:0.65;}.cls-219{fill:#595959;opacity:0.65;}.cls-220{fill:#585858;opacity:0.65;}.cls-221{fill:#575757;opacity:0.66;}.cls-222{fill:#565656;opacity:0.66;}.cls-223{fill:#555;opacity:0.67;}.cls-224{fill:#545454;opacity:0.67;}.cls-225{fill:#535353;opacity:0.67;}.cls-226{fill:#525252;opacity:0.68;}.cls-227{fill:#515151;opacity:0.68;}.cls-228{fill:#505050;opacity:0.69;}.cls-229{fill:#4f4f4f;opacity:0.69;}.cls-230{fill:#4e4e4e;opacity:0.69;}.cls-231{fill:#4d4d4d;opacity:0.7;}.cls-232{fill:#4c4c4c;opacity:0.7;}.cls-233{fill:#4b4b4b;opacity:0.71;}.cls-234{fill:#4a4a4a;opacity:0.71;}.cls-235{fill:#494949;opacity:0.71;}.cls-236{fill:#484848;opacity:0.72;}.cls-237{fill:#474747;opacity:0.72;}.cls-238{fill:#464646;opacity:0.73;}.cls-239{fill:#454545;opacity:0.73;}.cls-240{fill:#444;opacity:0.73;}.cls-241{fill:#434343;opacity:0.74;}.cls-242{fill:#424242;opacity:0.74;}.cls-243{fill:#414141;opacity:0.75;}.cls-244{fill:#404040;opacity:0.75;}.cls-245{fill:#3f3f3f;opacity:0.75;}.cls-246{fill:#3e3e3e;opacity:0.76;}.cls-247{fill:#3d3d3d;opacity:0.76;}.cls-248{fill:#3c3c3c;opacity:0.76;}.cls-249{fill:#3b3b3b;opacity:0.77;}.cls-250{fill:#3a3a3a;opacity:0.77;}.cls-251{fill:#393939;opacity:0.78;}.cls-252{fill:#383838;opacity:0.78;}.cls-253{fill:#373737;opacity:0.78;}.cls-254{fill:#363636;opacity:0.79;}.cls-255{fill:#353535;opacity:0.79;}.cls-256{fill:#343434;opacity:0.8;}.cls-257{fill:#333;opacity:0.8;}.cls-258{fill:#323232;opacity:0.8;}.cls-259{fill:#313131;opacity:0.81;}.cls-260{fill:#303030;opacity:0.81;}.cls-261{fill:#2f2f2f;opacity:0.82;}.cls-262{fill:#2e2e2e;opacity:0.82;}.cls-263{fill:#2d2d2d;opacity:0.82;}.cls-264{fill:#2c2c2c;opacity:0.83;}.cls-265{fill:#2b2b2b;opacity:0.83;}.cls-266{fill:#2a2a2a;opacity:0.84;}.cls-267{fill:#292929;opacity:0.84;}.cls-268{fill:#282828;opacity:0.84;}.cls-269{fill:#272727;opacity:0.85;}.cls-270{fill:#262626;opacity:0.85;}.cls-271{fill:#252525;opacity:0.85;}.cls-272{fill:#242424;opacity:0.86;}.cls-273{fill:#232323;opacity:0.86;}.cls-274{fill:#222;opacity:0.87;}.cls-275{fill:#212121;opacity:0.87;}.cls-276{fill:#202020;opacity:0.87;}.cls-277{fill:#1f1f1f;opacity:0.88;}.cls-278{fill:#1e1e1e;opacity:0.88;}.cls-279{fill:#1d1d1d;opacity:0.89;}.cls-280{fill:#1c1c1c;opacity:0.89;}.cls-281{fill:#1b1b1b;opacity:0.89;}.cls-282{fill:#1a1a1a;opacity:0.9;}.cls-283{fill:#191919;opacity:0.9;}.cls-284{fill:#181818;opacity:0.91;}.cls-285{fill:#171717;opacity:0.91;}.cls-286{fill:#161616;opacity:0.91;}.cls-287{fill:#151515;opacity:0.92;}.cls-288{fill:#141414;opacity:0.92;}.cls-289{fill:#131313;opacity:0.93;}.cls-290{fill:#121212;opacity:0.93;}.cls-291{fill:#111;opacity:0.93;}.cls-292{fill:#101010;opacity:0.94;}.cls-293{fill:#0f0f0f;opacity:0.94;}.cls-294{fill:#0e0e0e;opacity:0.95;}.cls-295{fill:#0d0d0d;opacity:0.95;}.cls-296{fill:#0c0c0c;opacity:0.95;}.cls-297{fill:#0b0b0b;opacity:0.96;}.cls-298{fill:#0a0a0a;opacity:0.96;}.cls-299{fill:#090909;opacity:0.96;}.cls-300{fill:#080808;opacity:0.97;}.cls-301{fill:#070707;opacity:0.97;}.cls-302{fill:#060606;opacity:0.98;}.cls-303{fill:#050505;opacity:0.98;}.cls-304{fill:#040404;opacity:0.98;}.cls-305{fill:#030303;opacity:0.99;}.cls-306{fill:#020202;opacity:0.99;}.cls-307{fill:#010101;opacity:1;}.cls-308{clip-path:url(#clip-path);}.cls-309{fill:url(#radial-gradient-4);}.cls-310,.cls-368{mix-blend-mode:overlay;}.cls-310,.cls-311,.cls-314{opacity:0.75;}.cls-310{fill:url(#radial-gradient-5);}.cls-311,.cls-312,.cls-361,.cls-363,.cls-365{mix-blend-mode:screen;}.cls-311{fill:url(#linear-gradient-43);}.cls-312,.cls-368{opacity:0.32;}.cls-312{fill:url(#linear-gradient-44);}.cls-313{fill:url(#linear-gradient-45);}.cls-315{opacity:0.85;}.cls-316{fill:url(#linear-gradient-46);}.cls-317{fill:url(#linear-gradient-47);}.cls-318{fill:url(#linear-gradient-48);}.cls-319{fill:url(#linear-gradient-49);}.cls-320{fill:url(#linear-gradient-50);}.cls-321{fill:url(#linear-gradient-51);}.cls-322{fill:url(#linear-gradient-52);}.cls-323{fill:url(#linear-gradient-53);}.cls-324{fill:url(#linear-gradient-54);}.cls-325{fill:url(#linear-gradient-55);}.cls-326{fill:url(#linear-gradient-56);}.cls-327{fill:url(#linear-gradient-57);}.cls-328{fill:url(#linear-gradient-58);}.cls-329{fill:url(#linear-gradient-59);}.cls-330{fill:url(#linear-gradient-60);}.cls-331{fill:url(#linear-gradient-61);}.cls-332{fill:url(#linear-gradient-62);}.cls-333{fill:url(#linear-gradient-63);}.cls-334{fill:url(#linear-gradient-64);}.cls-335{fill:url(#linear-gradient-65);}.cls-336{fill:url(#linear-gradient-66);}.cls-337{fill:url(#linear-gradient-67);}.cls-338{fill:url(#linear-gradient-68);}.cls-339{fill:url(#linear-gradient-69);}.cls-340{fill:url(#linear-gradient-70);}.cls-341{fill:url(#linear-gradient-71);}.cls-342{fill:url(#linear-gradient-72);}.cls-343{fill:url(#linear-gradient-73);}.cls-344{fill:url(#linear-gradient-74);}.cls-345{fill:url(#linear-gradient-75);}.cls-346{fill:url(#linear-gradient-76);}.cls-347{fill:url(#linear-gradient-77);}.cls-348{fill:url(#linear-gradient-78);}.cls-349{fill:url(#linear-gradient-79);}.cls-350{fill:url(#linear-gradient-80);}.cls-351{fill:url(#linear-gradient-81);}.cls-352{fill:url(#linear-gradient-82);}.cls-353{fill:url(#linear-gradient-83);}.cls-354{fill:url(#linear-gradient-84);}.cls-355{fill:url(#linear-gradient-85);}.cls-356{fill:url(#linear-gradient-86);}.cls-357{fill:url(#linear-gradient-87);}.cls-358{fill:url(#linear-gradient-88);}.cls-359{fill:url(#linear-gradient-132);}.cls-360{mask:url(#mask);}.cls-361{fill:url(#radial-gradient-6);}.cls-362{mask:url(#mask-2);}.cls-363{fill:url(#radial-gradient-7);}.cls-364{mask:url(#mask-3);}.cls-365{fill:url(#radial-gradient-8);}.cls-366{fill:url(#linear-gradient-133);}.cls-367{fill:url(#linear-gradient-134);}.cls-368{fill:url(#radial-gradient-9);}</style><radialGradient id="radial-gradient" cx="-9737.41" cy="-979.39" r="42.94" gradientTransform="matrix(0.15, -0.28, 0.61, 0.32, 2208.91, -2352.9)" gradientUnits="userSpaceOnUse"><stop offset="0" stop-color="#fff"/><stop offset="0.14" stop-color="#e2e2e2"/><stop offset="0.43" stop-color="#999"/><stop offset="0.87" stop-color="#262626"/><stop offset="1"/></radialGradient><radialGradient id="radial-gradient-2" cx="4151.54" cy="2071.91" r="19.49" gradientTransform="matrix(0.44, 0.23, -0.25, 0.5, -1134.5, -1896.39)" gradientUnits="userSpaceOnUse"><stop offset="0" stop-color="#fff"/><stop offset="0.21" stop-color="#c4c4c4"/><stop offset="0.6" stop-color="#5c5c5c"/><stop offset="0.87" stop-color="#1a1a1a"/><stop offset="1"/></radialGradient><radialGradient id="radial-gradient-3" cx="-9656.57" cy="-267.64" r="28.05" gradientTransform="matrix(0.17, -0.27, 0.5, 0.31, 1892.97, -2389.53)" xlink:href="#radial-gradient"/><linearGradient id="linear-gradient" x1="163.81" y1="134.22" x2="163.81" y2="208.61" gradientUnits="userSpaceOnUse"><stop offset="0" stop-color="#db1a1f"/><stop offset="0.55" stop-color="#df1f24"/><stop offset="0.58" stop-color="#df1f24"/><stop offset="0.69" stop-color="#d0181d"/><stop offset="0.88" stop-color="#bb0e13"/><stop offset="1" stop-color="#b30b10"/></linearGradient><linearGradient id="linear-gradient-2" x1="163.81" y1="134.2" x2="163.81" y2="206.15" gradientUnits="userSpaceOnUse"><stop offset="0" stop-color="#f0e8e5"/><stop offset="0.44" stop-color="#ede3df"/><stop offset="1" stop-color="#e3d5cf"/></linearGradient><linearGradient id="linear-gradient-3" x1="-4056.92" y1="-3542.31" x2="-4041.16" y2="-3542.31" gradientTransform="translate(3656.91 -3942.42) rotate(-90)" gradientUnits="userSpaceOnUse"><stop offset="0" stop-color="#db1a1f"/><stop offset="0.03" stop-color="#e01a1f"/><stop offset="0.06" stop-color="#ed1b1f"/><stop offset="0.07" stop-color="#f21b1f"/><stop offset="0.19" stop-color="#ed1c20"/><stop offset="0.33" stop-color="#df1f24"/><stop offset="0.5" stop-color="#d0181d"/><stop offset="0.8" stop-color="#bb0e13"/><stop offset="1" stop-color="#b30b10"/></linearGradient><linearGradient id="linear-gradient-4" x1="-4056.92" y1="-3541.44" x2="-4041.16" y2="-3541.44" gradientTransform="translate(3656.91 -3942.42) rotate(-90)" gradientUnits="userSpaceOnUse"><stop offset="0" stop-color="#db1a1f"/><stop offset="0.02" stop-color="#d61a1f"/><stop offset="0.04" stop-color="#c91a1f"/><stop offset="0.07" stop-color="#b31b1f"/><stop offset="0.07" stop-color="#af1b1f"/><stop offset="0.14" stop-color="#b41b20"/><stop offset="0.23" stop-color="#c31d21"/><stop offset="0.32" stop-color="#dc1f24"/><stop offset="0.33" stop-color="#df1f24"/><stop offset="0.5" stop-color="#d0181d"/><stop offset="0.8" stop-color="#bb0e13"/><stop offset="1" stop-color="#b30b10"/></linearGradient><linearGradient id="linear-gradient-5" x1="-3764.08" y1="-2360.5" x2="-3748.31" y2="-2360.5" gradientTransform="translate(3522.63 -2751.93) rotate(-72)" xlink:href="#linear-gradient-3"/><linearGradient id="linear-gradient-6" x1="-3764.08" y1="-2359.63" x2="-3748.31" y2="-2359.63" gradientTransform="translate(3522.63 -2751.93) rotate(-72)" xlink:href="#linear-gradient-4"/><linearGradient id="linear-gradient-7" x1="-3119.17" y1="-1326.8" x2="-3103.41" y2="-1326.8" gradientTransform="translate(3026.03 -1659.92) rotate(-54)" xlink:href="#linear-gradient-3"/><linearGradient id="linear-gradient-8" x1="-3119.17" y1="-1325.93" x2="-3103.41" y2="-1325.93" gradientTransform="translate(3026.03 -1659.92) rotate(-54)" xlink:href="#linear-gradient-4"/><linearGradient id="linear-gradient-9" x1="1829.8" y1="-7155.97" x2="1845.56" y2="-7155.97" gradientTransform="translate(-2525.43 -6723.16) rotate(144)" xlink:href="#linear-gradient-3"/><linearGradient id="linear-gradient-10" x1="1829.8" y1="-7155.09" x2="1845.56" y2="-7155.09" gradientTransform="translate(-2525.43 -6723.16) rotate(144)" xlink:href="#linear-gradient-4"/><linearGradient id="linear-gradient-11" x1="-2187.6" y1="-542.66" x2="-2171.83" y2="-542.66" gradientTransform="translate(2217.13 -776.14) rotate(-36)" xlink:href="#linear-gradient-3"/><linearGradient id="linear-gradient-12" x1="-2187.6" y1="-541.79" x2="-2171.83" y2="-541.79" gradientTransform="translate(2217.13 -776.14) rotate(-36)" xlink:href="#linear-gradient-4"/><linearGradient id="linear-gradient-13" x1="700.99" y1="-7614.14" x2="716.75" y2="-7614.14" gradientTransform="translate(-1498.23 -7307.43) rotate(162)" xlink:href="#linear-gradient-3"/><linearGradient id="linear-gradient-14" x1="700.99" y1="-7613.27" x2="716.75" y2="-7613.27" gradientTransform="translate(-1498.23 -7307.43) rotate(162)" xlink:href="#linear-gradient-4"/><linearGradient id="linear-gradient-15" x1="-1058.61" y1="-85.99" x2="-1042.85" y2="-85.99" gradientTransform="translate(1174.52 -184.03) rotate(-18)" xlink:href="#linear-gradient-3"/><linearGradient id="linear-gradient-16" x1="-1058.61" y1="-85.12" x2="-1042.85" y2="-85.12" gradientTransform="translate(1174.52 -184.03) rotate(-18)" xlink:href="#linear-gradient-4"/><linearGradient id="linear-gradient-17" x1="-513.62" y1="-7700.05" x2="-497.86" y2="-7700.05" gradientTransform="translate(-340.79 -7544.04) rotate(180)" xlink:href="#linear-gradient-3"/><linearGradient id="linear-gradient-18" x1="-513.62" y1="-7699.17" x2="-497.86" y2="-7699.17" gradientTransform="translate(-340.79 -7544.04) rotate(180)" xlink:href="#linear-gradient-4"/><linearGradient id="linear-gradient-19" x1="156.1" y1="0.98" x2="171.87" y2="0.98" gradientTransform="translate(0 55.29)" xlink:href="#linear-gradient-3"/><linearGradient id="linear-gradient-20" x1="156.1" y1="1.85" x2="171.87" y2="1.85" gradientTransform="translate(0 55.29)" xlink:href="#linear-gradient-4"/><linearGradient id="linear-gradient-21" x1="-1696.02" y1="-7406.73" x2="-1680.26" y2="-7406.73" gradientTransform="translate(832.6 -7412.46) rotate(-162)" xlink:href="#linear-gradient-3"/><linearGradient id="linear-gradient-22" x1="-1696.02" y1="-7405.86" x2="-1680.26" y2="-7405.86" gradientTransform="translate(832.6 -7412.46) rotate(-162)" xlink:href="#linear-gradient-4"/><linearGradient id="linear-gradient-23" x1="1337.44" y1="-292.45" x2="1353.2" y2="-292.45" gradientTransform="translate(-1190.48 -78.99) rotate(18)" xlink:href="#linear-gradient-3"/><linearGradient id="linear-gradient-24" x1="1337.44" y1="-291.57" x2="1353.2" y2="-291.57" gradientTransform="translate(-1190.48 -78.99) rotate(18)" xlink:href="#linear-gradient-4"/><linearGradient id="linear-gradient-25" x1="-2729.05" y1="-6762.65" x2="-2713.29" y2="-6762.65" gradientTransform="translate(1909.2 -6923.72) rotate(-144)" xlink:href="#linear-gradient-3"/><linearGradient id="linear-gradient-26" x1="-2729.05" y1="-6761.78" x2="-2713.29" y2="-6761.78" gradientTransform="translate(1909.2 -6923.72) rotate(-144)" xlink:href="#linear-gradient-4"/><linearGradient id="linear-gradient-27" x1="2371.97" y1="-936.68" x2="2387.73" y2="-936.68" gradientTransform="translate(-2282.49 -575.59) rotate(36)" xlink:href="#linear-gradient-3"/><linearGradient id="linear-gradient-28" x1="2371.97" y1="-935.81" x2="2387.73" y2="-935.81" gradientTransform="translate(-2282.49 -575.59) rotate(36)" xlink:href="#linear-gradient-4"/><linearGradient id="linear-gradient-29" x1="3612.91" y1="-2997.91" x2="3628.67" y2="-2997.91" gradientTransform="translate(-3758.39 -2427.1) rotate(72)" xlink:href="#linear-gradient-3"/><linearGradient id="linear-gradient-30" x1="3612.91" y1="-2997.04" x2="3628.67" y2="-2997.04" gradientTransform="translate(-3758.39 -2427.1) rotate(72)" xlink:href="#linear-gradient-4"/><linearGradient id="linear-gradient-31" x1="-3513.2" y1="-5830.37" x2="-3497.43" y2="-5830.37" gradientTransform="translate(2780.75 -6127.05) rotate(-126)" xlink:href="#linear-gradient-3"/><linearGradient id="linear-gradient-32" x1="-3513.2" y1="-5829.5" x2="-3497.43" y2="-5829.5" gradientTransform="translate(2780.75 -6127.05) rotate(-126)" xlink:href="#linear-gradient-4"/><linearGradient id="linear-gradient-33" x1="3699.4" y1="-4156.75" x2="3715.16" y2="-4156.75" gradientTransform="translate(-3942.42 -3601.62) rotate(90)" xlink:href="#linear-gradient-3"/><linearGradient id="linear-gradient-34" x1="3699.4" y1="-4155.88" x2="3715.16" y2="-4155.88" gradientTransform="translate(-3942.42 -3601.62) rotate(90)" xlink:href="#linear-gradient-4"/><linearGradient id="linear-gradient-35" x1="3155.4" y1="-1868.26" x2="3171.16" y2="-1868.26" gradientTransform="translate(-3166.27 -1384.49) rotate(54)" xlink:href="#linear-gradient-3"/><linearGradient id="linear-gradient-36" x1="3155.4" y1="-1867.39" x2="3171.16" y2="-1867.39" gradientTransform="translate(-3166.27 -1384.49) rotate(54)" xlink:href="#linear-gradient-4"/><linearGradient id="linear-gradient-37" x1="3405.49" y1="-5338.67" x2="3421.26" y2="-5338.67" gradientTransform="translate(-3810.84 -4775.02) rotate(108)" xlink:href="#linear-gradient-3"/><linearGradient id="linear-gradient-38" x1="3405.49" y1="-5337.8" x2="3421.26" y2="-5337.8" gradientTransform="translate(-3810.84 -4775.02) rotate(108)" xlink:href="#linear-gradient-4"/><linearGradient id="linear-gradient-39" x1="-3970.52" y1="-4702.22" x2="-3954.76" y2="-4702.22" gradientTransform="translate(3365.01 -5099.85) rotate(-108)" xlink:href="#linear-gradient-3"/><linearGradient id="linear-gradient-40" x1="-3970.52" y1="-4701.35" x2="-3954.76" y2="-4701.35" gradientTransform="translate(3365.01 -5099.85) rotate(-108)" xlink:href="#linear-gradient-4"/><linearGradient id="linear-gradient-41" x1="2762.09" y1="-6372.53" x2="2777.85" y2="-6372.53" gradientTransform="translate(-3322.1 -5851.62) rotate(126)" xlink:href="#linear-gradient-3"/><linearGradient id="linear-gradient-42" x1="2762.09" y1="-6371.66" x2="2777.85" y2="-6371.66" gradientTransform="translate(-3322.1 -5851.62) rotate(126)" xlink:href="#linear-gradient-4"/><clipPath id="clip-path"><circle class="cls-4" cx="163.81" cy="106.83" r="44.19"/></clipPath><radialGradient id="radial-gradient-4" cx="279.69" cy="4095.68" r="171.65" gradientTransform="translate(-6.78 -1910.29) scale(0.5)" gradientUnits="userSpaceOnUse"><stop offset="0.01" stop-color="#f6c054"/><stop offset="0.3" stop-color="#f2a942"/><stop offset="0.54" stop-color="#ffea72"/><stop offset="0.58" stop-color="#fff071"/><stop offset="0.59" stop-color="#fff171"/><stop offset="0.76" stop-color="#fada61"/><stop offset="0.96" stop-color="#f3b94a"/></radialGradient><radialGradient id="radial-gradient-5" cx="279.69" cy="4095.68" r="171.65" gradientTransform="translate(-6.78 -1910.29) scale(0.5)" gradientUnits="userSpaceOnUse"><stop offset="0" stop-color="#ffffc3"/><stop offset="0.95" stop-color="#ffea72"/></radialGradient><linearGradient id="linear-gradient-43" x1="190.74" y1="85.08" x2="136.79" y2="128.65" gradientTransform="translate(242.94 -72.01) rotate(80.76)" gradientUnits="userSpaceOnUse"><stop offset="0.48" stop-color="#cc9434"/><stop offset="0.68" stop-color="#ffea72"/><stop offset="0.76" stop-color="#ffe76c"/><stop offset="0.87" stop-color="#ffde5c"/><stop offset="0.96" stop-color="#ffd44a"/></linearGradient><linearGradient id="linear-gradient-44" x1="147.86" y1="74.81" x2="179.67" y2="138.69" xlink:href="#linear-gradient-43"/><linearGradient id="linear-gradient-45" x1="141.9" y1="82.85" x2="186.25" y2="131.4" gradientUnits="userSpaceOnUse"><stop offset="0.01" stop-color="#f6c054"/><stop offset="0.54" stop-color="#ffea72"/><stop offset="0.58" stop-color="#fff071"/><stop offset="0.59" stop-color="#fff171"/><stop offset="0.82" stop-color="#ffe05a"/><stop offset="0.96" stop-color="#ffd44a"/></linearGradient><linearGradient id="linear-gradient-46" x1="190.46" y1="109.88" x2="192.5" y2="109.88" gradientUnits="userSpaceOnUse"><stop offset="0" stop-color="#f3ce5e"/><stop offset="1" stop-color="#f2be4a"/></linearGradient><linearGradient id="linear-gradient-47" x1="189.71" y1="113.88" x2="191.75" y2="113.88" xlink:href="#linear-gradient-46"/><linearGradient id="linear-gradient-48" x1="188.41" y1="117.73" x2="190.45" y2="117.73" xlink:href="#linear-gradient-46"/><linearGradient id="linear-gradient-49" x1="186.55" y1="121.34" x2="188.58" y2="121.34" xlink:href="#linear-gradient-46"/><linearGradient id="linear-gradient-50" x1="184.18" y1="124.64" x2="186.22" y2="124.64" xlink:href="#linear-gradient-46"/><linearGradient id="linear-gradient-51" x1="181.37" y1="127.57" x2="183.4" y2="127.57" xlink:href="#linear-gradient-46"/><linearGradient id="linear-gradient-52" x1="178.15" y1="130.06" x2="180.19" y2="130.06" xlink:href="#linear-gradient-46"/><linearGradient id="linear-gradient-53" x1="174.62" y1="132.04" x2="176.64" y2="132.04" xlink:href="#linear-gradient-46"/><linearGradient id="linear-gradient-54" x1="170.81" y1="133.5" x2="172.85" y2="133.5" xlink:href="#linear-gradient-46"/><linearGradient id="linear-gradient-55" x1="166.85" y1="134.36" x2="168.88" y2="134.36" xlink:href="#linear-gradient-46"/><linearGradient id="linear-gradient-56" x1="162.79" y1="134.69" x2="164.82" y2="134.69" xlink:href="#linear-gradient-46"/><linearGradient id="linear-gradient-57" x1="158.73" y1="134.36" x2="160.77" y2="134.36" xlink:href="#linear-gradient-46"/><linearGradient id="linear-gradient-58" x1="154.76" y1="133.5" x2="156.8" y2="133.5" xlink:href="#linear-gradient-46"/><linearGradient id="linear-gradient-59" x1="150.97" y1="132.04" x2="153" y2="132.04" xlink:href="#linear-gradient-46"/><linearGradient id="linear-gradient-60" x1="147.42" y1="130.06" x2="149.46" y2="130.06" xlink:href="#linear-gradient-46"/><linearGradient id="linear-gradient-61" x1="144.21" y1="127.57" x2="146.24" y2="127.57" xlink:href="#linear-gradient-46"/><linearGradient id="linear-gradient-62" x1="141.39" y1="124.64" x2="143.43" y2="124.64" xlink:href="#linear-gradient-46"/><linearGradient id="linear-gradient-63" x1="139.03" y1="121.34" x2="141.06" y2="121.34" xlink:href="#linear-gradient-46"/><linearGradient id="linear-gradient-64" x1="137.16" y1="117.73" x2="139.2" y2="117.73" xlink:href="#linear-gradient-46"/><linearGradient id="linear-gradient-65" x1="135.87" y1="113.88" x2="137.9" y2="113.88" xlink:href="#linear-gradient-46"/><linearGradient id="linear-gradient-66" x1="135.11" y1="109.88" x2="137.15" y2="109.88" xlink:href="#linear-gradient-46"/><linearGradient id="linear-gradient-67" x1="134.99" y1="105.82" x2="137.02" y2="105.82" xlink:href="#linear-gradient-46"/><linearGradient id="linear-gradient-68" x1="135.42" y1="101.78" x2="137.44" y2="101.78" xlink:href="#linear-gradient-46"/><linearGradient id="linear-gradient-69" x1="136.43" y1="97.84" x2="138.49" y2="97.84" xlink:href="#linear-gradient-46"/><linearGradient id="linear-gradient-70" x1="138.04" y1="94.1" x2="140.05" y2="94.1" xlink:href="#linear-gradient-46"/><linearGradient id="linear-gradient-71" x1="140.14" y1="90.63" x2="142.19" y2="90.63" xlink:href="#linear-gradient-46"/><linearGradient id="linear-gradient-72" x1="142.75" y1="87.51" x2="144.77" y2="87.51" xlink:href="#linear-gradient-46"/><linearGradient id="linear-gradient-73" x1="145.76" y1="84.8" x2="147.81" y2="84.8" xlink:href="#linear-gradient-46"/><linearGradient id="linear-gradient-74" x1="149.16" y1="82.55" x2="151.19" y2="82.55" xlink:href="#linear-gradient-46"/><linearGradient id="linear-gradient-75" x1="152.83" y1="80.84" x2="154.87" y2="80.84" xlink:href="#linear-gradient-46"/><linearGradient id="linear-gradient-76" x1="156.73" y1="79.66" x2="158.77" y2="79.66" xlink:href="#linear-gradient-46"/><linearGradient id="linear-gradient-77" x1="160.75" y1="79.09" x2="162.79" y2="79.09" xlink:href="#linear-gradient-46"/><linearGradient id="linear-gradient-78" x1="164.82" y1="79.09" x2="166.86" y2="79.09" xlink:href="#linear-gradient-46"/><linearGradient id="linear-gradient-79" x1="168.85" y1="79.66" x2="170.88" y2="79.66" xlink:href="#linear-gradient-46"/><linearGradient id="linear-gradient-80" x1="172.74" y1="80.84" x2="174.78" y2="80.84" xlink:href="#linear-gradient-46"/><linearGradient id="linear-gradient-81" x1="176.42" y1="82.55" x2="178.45" y2="82.55" xlink:href="#linear-gradient-46"/><linearGradient id="linear-gradient-82" x1="179.8" y1="84.8" x2="181.85" y2="84.8" xlink:href="#linear-gradient-46"/><linearGradient id="linear-gradient-83" x1="182.84" y1="87.51" x2="184.86" y2="87.51" xlink:href="#linear-gradient-46"/><linearGradient id="linear-gradient-84" x1="185.42" y1="90.63" x2="187.48" y2="90.63" xlink:href="#linear-gradient-46"/><linearGradient id="linear-gradient-85" x1="187.56" y1="94.1" x2="189.57" y2="94.1" xlink:href="#linear-gradient-46"/><linearGradient id="linear-gradient-86" x1="189.13" y1="97.84" x2="191.18" y2="97.84" xlink:href="#linear-gradient-46"/><linearGradient id="linear-gradient-87" x1="190.17" y1="101.78" x2="192.19" y2="101.78" xlink:href="#linear-gradient-46"/><linearGradient id="linear-gradient-88" x1="190.59" y1="105.82" x2="192.63" y2="105.82" xlink:href="#linear-gradient-46"/><linearGradient id="linear-gradient-132" x1="186.82" y1="84.02" x2="142.11" y2="128.34" gradientUnits="userSpaceOnUse"><stop offset="0" stop-color="#aa7238"/><stop offset="0.25" stop-color="#c08443"/><stop offset="0.35" stop-color="#be8242"/><stop offset="0.39" stop-color="#b87b3d"/><stop offset="0.42" stop-color="#ad7036"/><stop offset="0.44" stop-color="#9d5f2b"/><stop offset="0.46" stop-color="#88491d"/><stop offset="0.47" stop-color="#7a3a14"/><stop offset="0.64" stop-color="#7c3c15"/><stop offset="0.72" stop-color="#83441a"/><stop offset="0.79" stop-color="#8e5123"/><stop offset="0.85" stop-color="#9e642f"/><stop offset="0.9" stop-color="#b37c3e"/><stop offset="0.95" stop-color="#cd9b52"/><stop offset="0.99" stop-color="#ebbe68"/><stop offset="1" stop-color="#f0c46c"/></linearGradient><mask id="mask" x="157.03" y="60.84" width="53.89" height="36.46" maskUnits="userSpaceOnUse"><path class="cls-1" d="M190.27,67c14.46,7.53,23.37,19,19.89,25.73s-18,6-32.49-1.54-23.37-19-19.89-25.73S175.8,59.44,190.27,67Z"/></mask><radialGradient id="radial-gradient-6" cx="-9737.41" cy="-979.39" r="42.94" gradientTransform="matrix(0.15, -0.28, 0.61, 0.32, 2208.91, -2352.9)" gradientUnits="userSpaceOnUse"><stop offset="0" stop-color="#ecce88"/><stop offset="1"/></radialGradient><mask id="mask-2" x="173.73" y="68.79" width="20.48" height="20.56" maskUnits="userSpaceOnUse"><path class="cls-2" d="M193.06,83.75a10.22,10.22,0,1,1-4.38-13.83A10.26,10.26,0,0,1,193.06,83.75Z"/></mask><radialGradient id="radial-gradient-7" cx="4151.54" cy="2071.91" r="19.49" gradientTransform="matrix(0.44, 0.23, -0.25, 0.5, -1134.5, -1896.39)" gradientUnits="userSpaceOnUse"><stop offset="0" stop-color="#ffa177"/><stop offset="0.13" stop-color="#e5916b"/><stop offset="0.4" stop-color="#a3674c"/><stop offset="0.79" stop-color="#3b251c"/><stop offset="1"/></radialGradient><mask id="mask-3" x="126.35" y="120.88" width="29.69" height="23.12" maskUnits="userSpaceOnUse"><path class="cls-3" d="M145.89,124.87c7.77,4.83,12,12.13,9.37,16.31s-11,3.65-18.77-1.17-12-12.13-9.38-16.31S138.11,120,145.89,124.87Z"/></mask><radialGradient id="radial-gradient-8" cx="-9656.57" cy="-267.64" r="28.05" gradientTransform="matrix(0.17, -0.27, 0.5, 0.31, 1892.97, -2389.53)" gradientUnits="userSpaceOnUse"><stop offset="0" stop-color="#ecc29a"/><stop offset="1"/></radialGradient><linearGradient id="linear-gradient-133" x1="152.16" y1="118.75" x2="174.4" y2="93.38" gradientUnits="userSpaceOnUse"><stop offset="0" stop-color="#f1c848"/><stop offset="0.19" stop-color="#f0c94f"/><stop offset="0.45" stop-color="#ebcc62"/><stop offset="0.48" stop-color="#ebcc64"/><stop offset="0.75" stop-color="#f5e579"/><stop offset="1" stop-color="#ffff8e"/></linearGradient><linearGradient id="linear-gradient-134" x1="163.81" y1="93.19" x2="163.81" y2="117.68" gradientUnits="userSpaceOnUse"><stop offset="0" stop-color="#ffee7b"/><stop offset="0.15" stop-color="#ffc757"/><stop offset="0.27" stop-color="#e1a11b"/><stop offset="0.28" stop-color="#e3a622"/><stop offset="0.31" stop-color="#edc044"/><stop offset="0.34" stop-color="#f4d35f"/><stop offset="0.37" stop-color="#fae272"/><stop offset="0.41" stop-color="#fdea7d"/><stop offset="0.44" stop-color="#feed81"/><stop offset="0.47" stop-color="#f8e37b"/><stop offset="0.51" stop-color="#e8c76b"/><stop offset="0.57" stop-color="#ce9b51"/><stop offset="0.63" stop-color="#ab5e2d"/><stop offset="0.65" stop-color="#a24f24"/><stop offset="0.76" stop-color="#e0b439"/><stop offset="0.86" stop-color="#f1c848"/><stop offset="1" stop-color="#ffff8e"/></linearGradient><radialGradient id="radial-gradient-9" cx="342.5" cy="4076.53" r="144.01" gradientTransform="translate(-6.78 -1910.29) scale(0.5)" gradientUnits="userSpaceOnUse"><stop offset="0" stop-color="#ececbb"/><stop offset="1" stop-color="#784f58"/></radialGradient></defs><g class="cls-5"><g id="Layer_2" data-name="Layer 2"><g id="Layer_1-2" data-name="Layer 1"><text class="cls-6" transform="translate(34.66 259.95)">Bronze Medal</text><text class="cls-7" transform="translate(22.48 290.15)">Tab + Bronze Medal + <tspan x="32.92" y="30.85">Certificate + Gift </tspan><tspan x="82.26" y="61.71">Hamper.</tspan></text><rect class="cls-8" x="0.46" y="0.46" width="297.67" height="391.15"/><polygon class="cls-9" points="135.76 133.45 135.76 210.07 163.81 191.85 191.85 210.07 191.85 133.45 135.76 133.45"/><polygon class="cls-10" points="180.02 133.45 163.56 133.45 163.5 133.45 160.02 133.45 159.18 133.45 147.6 133.45 147.6 202.38 163.81 191.85 180.02 202.38 180.02 133.45"/><path class="cls-11" d="M191.85,137.3H135.76v32.18h0c.78-.33,3.62-4.17,6.05-7.56a12.74,12.74,0,0,0,.11,5.89,10.19,10.19,0,0,0,.49,1.34,9,9,0,0,0,.46.87c.07.12.12.24.19.35a10.62,10.62,0,0,0,.75,1l0,.05a12.64,12.64,0,0,0,.92,1h0a17.83,17.83,0,0,0,5,3.41,3.3,3.3,0,0,0,3.52-.11c.64-.55,2.16-5.08,3.42-9.06q0,.36.09.72c.07.43.16.86.27,1.28a11.59,11.59,0,0,0,1.56,3.57,9.65,9.65,0,0,0,.88,1.12,9.22,9.22,0,0,0,.71.69c.1.09.18.19.28.27a11.17,11.17,0,0,0,1,.77l0,0a12.63,12.63,0,0,0,1.19.68h0a17.8,17.8,0,0,0,5.8,1.71,3.34,3.34,0,0,0,3.31-1.2c.44-.72.48-5.5.45-9.67a16.13,16.13,0,0,0,1,1.79,12,12,0,0,0,2.59,2.91,10.31,10.31,0,0,0,1.19.8c.29.16.59.3.89.43l.35.17a10,10,0,0,0,1.24.42h0a16.6,16.6,0,0,0,7.39.11,3.3,3.3,0,0,0,2.77-2.16c.2-.82-1.24-5.37-2.55-9.33a12.84,12.84,0,0,0,4.63,3.28Z"/><path class="cls-12" d="M125,99.48c0-.38-5-1.08-5.39-1.12-3.42-.34-7.13,0-10.06,2-3.33,2.21-4.79,6.13-5.28,10a3.32,3.32,0,0,0,1.2,3.31c1.18.71,13.22.38,15.69.38.11,0,2.16,0,2.16,0Z"/><path class="cls-13" d="M109.53,100.32a10.72,10.72,0,0,0-3.58,4.14,35.1,35.1,0,0,1,18.31,1.24c.38-3.25.72-6.22.72-6.22,0-.38-5-1.08-5.39-1.12C116.17,98,112.46,98.37,109.53,100.32Z"/><path class="cls-14" d="M129,87.6c.16-.34-4.46-2.59-4.78-2.72-3.15-1.38-6.78-2.2-10.17-1.25-3.85,1.07-6.45,4.35-8.1,7.83A3.32,3.32,0,0,0,106,95c.9,1,12.45,4.44,14.8,5.21.11,0,2,.7,2.06.67S129,87.61,129,87.6Z"/><path class="cls-15" d="M114,83.63a10.61,10.61,0,0,0-4.68,2.83,35.22,35.22,0,0,1,17,6.83L129,87.6c.16-.34-4.46-2.59-4.78-2.72C121,83.5,117.41,82.68,114,83.63Z"/><path class="cls-16" d="M136.44,77.54c.26-.27-3.45-3.84-3.71-4.07-2.57-2.29-5.76-4.18-9.28-4.33-4-.17-7.48,2.15-10.13,5a3.31,3.31,0,0,0-1,3.38c.54,1.27,10.47,8.08,12.47,9.53.09.07,1.72,1.3,1.75,1.27Z"/><path class="cls-17" d="M123.45,69.14a10.69,10.69,0,0,0-5.33,1.25A35.14,35.14,0,0,1,132.2,82.15l4.24-4.61c.26-.27-3.45-3.84-3.71-4.07C130.16,71.18,127,69.29,123.45,69.14Z"/><path class="cls-18" d="M182.28,142c-.33.19,2.09,4.72,2.27,5,1.74,3,4.19,5.76,7.49,7,3.75,1.39,7.78.27,11.16-1.58a3.29,3.29,0,0,0,2-2.91c-.12-1.38-7.46-10.92-8.91-12.92-.07-.09-1.24-1.77-1.27-1.75Z"/><path class="cls-19" d="M192,154a10.72,10.72,0,0,0,5.46.45,35,35,0,0,1-9.76-15.53L182.28,142c-.33.19,2.1,4.72,2.27,5C186.29,150,188.74,152.78,192,154Z"/><path class="cls-20" d="M146.65,70.28c.33-.18-2.09-4.72-2.27-5-1.74-3-4.19-5.77-7.49-7-3.75-1.39-7.78-.26-11.16,1.58a3.33,3.33,0,0,0-2,2.92c.12,1.37,7.46,10.91,8.91,12.91.07.1,1.24,1.77,1.28,1.75Z"/><path class="cls-21" d="M136.89,58.27a10.72,10.72,0,0,0-5.46-.45,35,35,0,0,1,9.76,15.53l5.46-3.07c.33-.18-2.09-4.72-2.27-5C142.64,62.3,140.19,59.5,136.89,58.27Z"/><path class="cls-22" d="M170.33,145.75c-.37.08.53,5.14.6,5.47.74,3.37,2.21,6.78,5,9,3.14,2.48,7.31,2.66,11.1,1.94a3.3,3.3,0,0,0,2.77-2.16c.32-1.34-3.72-12.69-4.48-15,0-.11-.63-2.06-.67-2.05Z"/><path class="cls-23" d="M175.9,160.19a10.76,10.76,0,0,0,5,2.12,35.07,35.07,0,0,1-4.48-17.79l-6.14,1.23c-.37.08.53,5.14.6,5.47C171.67,154.59,173.14,158,175.9,160.19Z"/><path class="cls-24" d="M158.6,66.53c.37-.07-.53-5.13-.6-5.47-.74-3.36-2.21-6.78-5-9-3.13-2.48-7.31-2.66-11.1-2a3.3,3.3,0,0,0-2.77,2.16c-.32,1.34,3.72,12.69,4.48,15,0,.11.63,2.06.67,2.06Z"/><path class="cls-25" d="M153,52.1A10.56,10.56,0,0,0,148,50a35,35,0,0,1,4.48,17.79l6.14-1.24c.37-.07-.53-5.13-.6-5.47C157.26,57.7,155.79,54.28,153,52.1Z"/><path class="cls-26" d="M157.8,145.63c-.37,0-1.08,5-1.11,5.39-.34,3.42,0,7.12,1.95,10.06,2.21,3.32,6.13,4.78,10,5.28a3.32,3.32,0,0,0,3.31-1.2c.72-1.18.38-13.22.38-15.69,0-.12,0-2.16,0-2.16Z"/><path class="cls-27" d="M158.64,161.08a10.73,10.73,0,0,0,4.15,3.57,35.06,35.06,0,0,1,1.23-18.3l-6.22-.72c-.37,0-1.08,5-1.11,5.39C156.35,154.44,156.69,158.14,158.64,161.08Z"/><path class="cls-28" d="M171.13,66.66c.37,0,1.08-5,1.12-5.39.33-3.43,0-7.13-2-10.06-2.21-3.33-6.13-4.79-9.95-5.28A3.31,3.31,0,0,0,157,47.12c-.71,1.19-.38,13.22-.38,15.69,0,.12,0,2.16,0,2.17Z"/><path class="cls-29" d="M170.29,51.21a10.75,10.75,0,0,0-4.15-3.58,35.11,35.11,0,0,1-1.23,18.31l6.22.72c.37,0,1.08-5,1.12-5.39C172.58,57.84,172.24,54.14,170.29,51.21Z"/><path class="cls-30" d="M145.93,141.63c-.35-.15-2.59,4.47-2.73,4.79-1.38,3.15-2.2,6.78-1.25,10.17,1.08,3.85,4.35,6.45,7.83,8.09a3.3,3.3,0,0,0,3.52-.11c1-.9,4.45-12.46,5.21-14.8,0-.12.71-2.05.67-2.06Z"/><path class="cls-31" d="M142,156.59a10.78,10.78,0,0,0,2.84,4.68,35.12,35.12,0,0,1,6.83-17l-5.69-2.61c-.35-.15-2.59,4.47-2.73,4.79C141.82,149.57,141,153.2,142,156.59Z"/><path class="cls-32" d="M183,70.65c.34.16,2.58-4.47,2.72-4.78,1.38-3.16,2.2-6.78,1.25-10.18-1.08-3.84-4.35-6.44-7.83-8.09a3.32,3.32,0,0,0-3.52.11c-1,.91-4.44,12.46-5.21,14.81,0,.11-.7,2-.67,2.06Z"/><path class="cls-33" d="M187,55.69A10.69,10.69,0,0,0,184.14,51a35,35,0,0,1-6.83,17l5.7,2.61c.34.16,2.58-4.47,2.72-4.78C187.11,62.71,187.93,59.09,187,55.69Z"/><path class="cls-34" d="M135.87,134.17c-.28-.26-3.85,3.45-4.07,3.7-2.29,2.58-4.19,5.77-4.34,9.29-.16,4,2.15,7.48,5,10.12a3.32,3.32,0,0,0,3.38,1c1.27-.54,8.08-10.47,9.53-12.47.07-.09,1.3-1.72,1.27-1.75Z"/><path class="cls-35" d="M127.46,147.16a10.73,10.73,0,0,0,1.26,5.33,35.05,35.05,0,0,1,11.75-14.08l-4.6-4.24c-.28-.26-3.85,3.45-4.07,3.7C129.51,140.45,127.61,143.64,127.46,147.16Z"/><path class="cls-36" d="M193.06,78.12c.28.25,3.85-3.45,4.08-3.71,2.28-2.57,4.18-5.77,4.33-9.29.16-4-2.15-7.47-4.95-10.12a3.29,3.29,0,0,0-3.38-1c-1.27.53-8.08,10.47-9.53,12.46-.07.1-1.3,1.73-1.27,1.75Z"/><path class="cls-37" d="M201.47,65.12a10.75,10.75,0,0,0-1.25-5.33,35.11,35.11,0,0,1-11.76,14.09l4.6,4.23c.28.26,3.85-3.44,4.08-3.7C199.42,71.84,201.32,68.64,201.47,65.12Z"/><path class="cls-38" d="M204.08,100.28c.07.37,5.13-.53,5.47-.61,3.36-.73,6.78-2.2,9-5,2.48-3.13,2.66-7.3,2-11.09a3.32,3.32,0,0,0-2.16-2.78c-1.35-.31-12.69,3.73-15,4.49-.11,0-2.07.63-2.06.67S204.08,100.27,204.08,100.28Z"/><path class="cls-39" d="M218.51,94.7a10.63,10.63,0,0,0,2.12-5,35.07,35.07,0,0,1-17.79,4.48l1.24,6.14c.07.37,5.13-.53,5.47-.61C212.91,98.94,216.33,97.47,218.51,94.7Z"/><path class="cls-40" d="M128.61,124c-.19-.33-4.72,2.09-5,2.26-3,1.74-5.76,4.2-7,7.5-1.39,3.74-.27,7.77,1.58,11.15a3.31,3.31,0,0,0,2.91,2c1.38-.12,10.92-7.47,12.92-8.92.09-.07,1.77-1.23,1.75-1.27Z"/><path class="cls-41" d="M116.6,133.72a10.83,10.83,0,0,0-.46,5.46,35.17,35.17,0,0,1,15.54-9.77c-1.61-2.84-3.07-5.45-3.07-5.45-.19-.33-4.72,2.09-5,2.26C120.62,128,117.83,130.42,116.6,133.72Z"/><path class="cls-42" d="M204,112.81c0,.37,5.05,1.08,5.39,1.11,3.43.34,7.13,0,10.06-2,3.33-2.22,4.79-6.13,5.28-10a3.28,3.28,0,0,0-1.2-3.3c-1.18-.72-13.22-.38-15.69-.39-.11,0-2.15,0-2.16,0S204,112.8,204,112.81Z"/><path class="cls-43" d="M219.4,112a10.75,10.75,0,0,0,3.58-4.15,35.1,35.1,0,0,1-18.31-1.23c-.38,3.24-.72,6.21-.72,6.22,0,.37,5.05,1.08,5.39,1.11C212.77,114.26,216.47,113.92,219.4,112Z"/><path class="cls-44" d="M200.33,88.33c.18.32,4.72-2.1,5-2.27,3-1.74,5.77-4.19,7-7.5,1.39-3.74.27-7.77-1.58-11.15a3.28,3.28,0,0,0-2.91-2c-1.37.11-10.92,7.46-12.91,8.91-.1.07-1.78,1.24-1.76,1.27Z"/><path class="cls-45" d="M212.33,78.56a10.58,10.58,0,0,0,.46-5.45,35.15,35.15,0,0,1-15.54,9.76l3.07,5.45c.19.33,4.73-2.09,5-2.26C208.31,84.32,211.11,81.87,212.33,78.56Z"/><path class="cls-46" d="M200,124.68c-.16.34,4.46,2.59,4.78,2.73,3.15,1.38,6.78,2.2,10.17,1.25,3.85-1.08,6.45-4.35,8.1-7.84a3.31,3.31,0,0,0-.12-3.51c-.9-1-12.45-4.45-14.8-5.21-.11,0-2-.71-2.06-.67Z"/><path class="cls-47" d="M214.91,128.66a10.73,10.73,0,0,0,4.68-2.84,35.05,35.05,0,0,1-17-6.83c-1.37,3-2.61,5.69-2.61,5.69-.16.34,4.46,2.59,4.78,2.73C207.89,128.79,211.52,129.61,214.91,128.66Z"/><path class="cls-48" d="M124.86,112c-.08-.36-5.14.54-5.48.61-3.36.74-6.77,2.21-9,5-2.48,3.13-2.66,7.31-2,11.09a3.33,3.33,0,0,0,2.16,2.78c1.35.31,12.69-3.72,15-4.49.11,0,2.07-.63,2.06-.66S124.86,112,124.86,112Z"/><path class="cls-49" d="M110.42,117.58a10.72,10.72,0,0,0-2.12,5,35.08,35.08,0,0,1,17.79-4.49c-.64-3.2-1.23-6.13-1.23-6.14-.08-.36-5.14.54-5.48.61C116,113.35,112.61,114.82,110.42,117.58Z"/><path class="cls-50" d="M192.49,134.74c-.25.28,3.45,3.84,3.71,4.07,2.57,2.29,5.77,4.19,9.29,4.33,4,.17,7.47-2.14,10.12-4.94a3.32,3.32,0,0,0,1-3.38c-.53-1.28-10.47-8.08-12.47-9.53-.09-.07-1.72-1.3-1.75-1.28Z"/><path class="cls-51" d="M205.49,143.14a10.64,10.64,0,0,0,5.33-1.25,35.11,35.11,0,0,1-14.09-11.76l-4.24,4.61c-.25.28,3.45,3.84,3.71,4.07C198.77,141.1,202,143,205.49,143.14Z"/><g class="cls-52"><path class="cls-53" d="M212.15,94.36a49.93,49.93,0,1,0-20.69,54,50.36,50.36,0,0,0,20.69-54C211.74,92.77,213.17,98.35,212.15,94.36Z"/><path class="cls-54" d="M212.13,94.37a49.91,49.91,0,1,0-20.68,54,50.35,50.35,0,0,0,20.68-54C211.71,92.77,213.15,98.35,212.13,94.37Z"/><path class="cls-55" d="M212.1,94.37a49.87,49.87,0,1,0-20.66,54,50.29,50.29,0,0,0,20.66-54Z"/><path class="cls-56" d="M212.08,94.38a49.86,49.86,0,1,0-20.66,53.94,50.27,50.27,0,0,0,20.66-53.94C211.67,92.78,213.11,98.36,212.08,94.38Z"/><path class="cls-57" d="M212.06,94.38a49.84,49.84,0,1,0-20.65,53.92,50.26,50.26,0,0,0,20.65-53.92Z"/><path class="cls-58" d="M212,94.39a49.81,49.81,0,1,0-20.64,53.89A50.25,50.25,0,0,0,212,94.39Z"/><path class="cls-59" d="M212,94.39a49.8,49.8,0,1,0-20.63,53.87A50.22,50.22,0,0,0,212,94.39Z"/><path class="cls-60" d="M212,94.4a49.77,49.77,0,1,0-20.63,53.85A50.21,50.21,0,0,0,212,94.4Z"/><path class="cls-61" d="M212,94.41a49.74,49.74,0,1,0-20.61,53.82A50.16,50.16,0,0,0,212,94.41Z"/><path class="cls-62" d="M212,94.41a49.72,49.72,0,1,0-20.6,53.8A50.16,50.16,0,0,0,212,94.41Z"/><path class="cls-63" d="M211.93,94.42a49.7,49.7,0,1,0-20.59,53.77,50.12,50.12,0,0,0,20.59-53.77Z"/><path class="cls-64" d="M211.91,94.42a49.68,49.68,0,1,0-20.59,53.75,50.09,50.09,0,0,0,20.59-53.75C211.5,92.84,212.93,98.39,211.91,94.42Z"/><path class="cls-65" d="M211.89,94.43a49.66,49.66,0,1,0-20.58,53.72,50.07,50.07,0,0,0,20.58-53.72Z"/><path class="cls-66" d="M211.87,94.43a49.64,49.64,0,1,0-20.57,53.7,50.07,50.07,0,0,0,20.57-53.7C211.46,92.85,212.89,98.4,211.87,94.43Z"/><path class="cls-67" d="M211.84,94.44a49.61,49.61,0,1,0-20.55,53.68,50,50,0,0,0,20.55-53.68C211.44,92.85,212.86,98.4,211.84,94.44Z"/><path class="cls-68" d="M211.82,94.44a49.59,49.59,0,1,0-20.54,53.66,50,50,0,0,0,20.54-53.66C211.41,92.86,212.84,98.4,211.82,94.44Z"/><path class="cls-69" d="M211.8,94.45a49.56,49.56,0,1,0-20.54,53.63A50,50,0,0,0,211.8,94.45C211.39,92.87,212.82,98.41,211.8,94.45Z"/><path class="cls-70" d="M211.78,94.46a49.55,49.55,0,1,0-20.53,53.6,50,50,0,0,0,20.53-53.6Z"/><path class="cls-71" d="M211.76,94.46A49.52,49.52,0,1,0,191.24,148a50,50,0,0,0,20.52-53.58C211.35,92.88,212.77,98.42,211.76,94.46Z"/><path class="cls-72" d="M211.74,94.47A49.5,49.5,0,1,0,191.23,148a49.94,49.94,0,0,0,20.51-53.55C211.33,92.89,212.75,98.42,211.74,94.47Z"/><path class="cls-73" d="M211.71,94.47A49.48,49.48,0,1,0,191.21,148a49.89,49.89,0,0,0,20.5-53.53C211.31,92.89,212.73,98.42,211.71,94.47Z"/><path class="cls-74" d="M211.69,94.48A49.46,49.46,0,1,0,191.2,148a49.86,49.86,0,0,0,20.49-53.5C211.29,92.9,212.71,98.43,211.69,94.48Z"/><path class="cls-75" d="M211.67,94.48A49.43,49.43,0,1,0,191.19,148a49.86,49.86,0,0,0,20.48-53.49Z"/><path class="cls-76" d="M211.65,94.49A49.41,49.41,0,1,0,191.18,148a49.83,49.83,0,0,0,20.47-53.46C211.24,92.91,212.66,98.43,211.65,94.49Z"/><path class="cls-77" d="M211.63,94.49a49.4,49.4,0,1,0-20.47,53.44,49.83,49.83,0,0,0,20.47-53.44C211.22,92.92,212.64,98.44,211.63,94.49Z"/><path class="cls-78" d="M211.61,94.5a49.37,49.37,0,1,0-20.46,53.41A49.79,49.79,0,0,0,211.61,94.5C211.2,92.92,212.62,98.44,211.61,94.5Z"/><path class="cls-79" d="M211.58,94.51a49.34,49.34,0,1,0-20.44,53.38,49.75,49.75,0,0,0,20.44-53.38C211.18,92.93,212.6,98.45,211.58,94.51Z"/><path class="cls-80" d="M211.56,94.51a49.32,49.32,0,1,0-20.43,53.36,49.74,49.74,0,0,0,20.43-53.36C211.16,92.94,212.58,98.45,211.56,94.51Z"/><path class="cls-81" d="M211.54,94.52a49.3,49.3,0,1,0-20.43,53.33,49.72,49.72,0,0,0,20.43-53.33C211.14,92.94,212.55,98.45,211.54,94.52Z"/><path class="cls-82" d="M211.52,94.52a49.27,49.27,0,1,0-20.42,53.32,49.68,49.68,0,0,0,20.42-53.32C211.11,93,212.53,98.46,211.52,94.52Z"/><path class="cls-83" d="M211.5,94.53a49.26,49.26,0,1,0-20.41,53.29A49.67,49.67,0,0,0,211.5,94.53C211.09,93,212.51,98.46,211.5,94.53Z"/><path class="cls-84" d="M211.48,94.53a49.23,49.23,0,1,0-20.4,53.27,49.65,49.65,0,0,0,20.4-53.27C211.07,93,212.49,98.46,211.48,94.53Z"/><path class="cls-85" d="M211.45,94.54a49.21,49.21,0,1,0-20.39,53.24,49.62,49.62,0,0,0,20.39-53.24C211.05,93,212.47,98.47,211.45,94.54Z"/><path class="cls-86" d="M211.43,94.54a49.19,49.19,0,1,0-20.38,53.22,49.61,49.61,0,0,0,20.38-53.22C211,93,212.44,98.47,211.43,94.54Z"/><path class="cls-87" d="M211.41,94.55A49.17,49.17,0,1,0,191,147.74a49.58,49.58,0,0,0,20.37-53.19C211,93,212.42,98.48,211.41,94.55Z"/><path class="cls-88" d="M211.39,94.56A49.15,49.15,0,1,0,191,147.72a49.56,49.56,0,0,0,20.36-53.16C211,93,212.4,98.48,211.39,94.56Z"/><path class="cls-89" d="M211.37,94.56A49.12,49.12,0,1,0,191,147.71a49.56,49.56,0,0,0,20.35-53.15C211,93,212.38,98.48,211.37,94.56Z"/><path class="cls-90" d="M211.35,94.57A49.1,49.1,0,1,0,191,147.69a49.54,49.54,0,0,0,20.35-53.12C210.94,93,212.36,98.49,211.35,94.57Z"/><path class="cls-91" d="M211.32,94.57A49.07,49.07,0,1,0,191,147.67a49.51,49.51,0,0,0,20.33-53.1C210.92,93,212.33,98.49,211.32,94.57Z"/><path class="cls-92" d="M211.3,94.58A49.05,49.05,0,1,0,191,147.65,49.46,49.46,0,0,0,211.3,94.58C210.9,93,212.31,98.5,211.3,94.58Z"/><path class="cls-93" d="M211.28,94.58A49,49,0,1,0,191,147.63a49.44,49.44,0,0,0,20.31-53Z"/><path class="cls-94" d="M211.26,94.59a49,49,0,1,0-20.31,53,49.42,49.42,0,0,0,20.31-53C210.86,93,212.27,98.5,211.26,94.59Z"/><path class="cls-95" d="M211.24,94.59a49,49,0,1,0-20.3,53,49.42,49.42,0,0,0,20.3-53Z"/><path class="cls-96" d="M211.22,94.6a49,49,0,1,0-20.29,53,49.39,49.39,0,0,0,20.29-53C210.81,93,212.22,98.51,211.22,94.6Z"/><path class="cls-97" d="M211.19,94.61a48.94,48.94,0,1,0-20.27,53,49.34,49.34,0,0,0,20.27-52.95C210.79,93,212.2,98.51,211.19,94.61Z"/><path class="cls-98" d="M211.17,94.61a48.92,48.92,0,1,0-20.27,52.93,49.33,49.33,0,0,0,20.27-52.93C210.77,93.05,212.18,98.52,211.17,94.61Z"/><path class="cls-99" d="M211.15,94.62a48.9,48.9,0,1,0-20.26,52.9,49.31,49.31,0,0,0,20.26-52.9C210.75,93.05,212.16,98.52,211.15,94.62Z"/><path class="cls-100" d="M211.13,94.62a48.88,48.88,0,1,0-20.25,52.88,49.3,49.3,0,0,0,20.25-52.88Z"/><path class="cls-101" d="M211.11,94.63a48.86,48.86,0,1,0-20.24,52.85,49.27,49.27,0,0,0,20.24-52.85Z"/><path class="cls-102" d="M211.09,94.63a48.83,48.83,0,1,0-20.24,52.83,49.25,49.25,0,0,0,20.24-52.83Z"/><path class="cls-103" d="M211.06,94.64a48.81,48.81,0,1,0-20.22,52.8,49.21,49.21,0,0,0,20.22-52.8C210.66,93.08,212.07,98.54,211.06,94.64Z"/><path class="cls-104" d="M211,94.64a48.78,48.78,0,1,0-20.21,52.79A49.21,49.21,0,0,0,211,94.64Z"/><path class="cls-105" d="M211,94.65a48.76,48.76,0,1,0-20.2,52.76A49.17,49.17,0,0,0,211,94.65Z"/><path class="cls-106" d="M211,94.66a48.74,48.74,0,1,0-20.2,52.73A49.15,49.15,0,0,0,211,94.66Z"/><path class="cls-107" d="M211,94.66a48.72,48.72,0,1,0-20.19,52.71A49.15,49.15,0,0,0,211,94.66Z"/><path class="cls-108" d="M211,94.67a48.7,48.7,0,1,0-20.18,52.68A49.13,49.13,0,0,0,211,94.67Z"/><path class="cls-109" d="M210.94,94.67a48.68,48.68,0,1,0-20.17,52.66,49.11,49.11,0,0,0,20.17-52.66C210.53,93.12,211.94,98.56,210.94,94.67Z"/><path class="cls-110" d="M210.91,94.68a48.65,48.65,0,1,0-20.15,52.63,49,49,0,0,0,20.15-52.63Z"/><path class="cls-111" d="M210.89,94.68a48.63,48.63,0,1,0-20.15,52.62,49,49,0,0,0,20.15-52.62Z"/><path class="cls-112" d="M210.87,94.69a48.61,48.61,0,1,0-20.14,52.59,49,49,0,0,0,20.14-52.59Z"/><path class="cls-113" d="M210.85,94.69a48.59,48.59,0,1,0-20.13,52.57,49,49,0,0,0,20.13-52.57Z"/><path class="cls-114" d="M210.83,94.7a48.57,48.57,0,1,0-20.12,52.54A49,49,0,0,0,210.83,94.7C210.43,93.15,211.82,98.58,210.83,94.7Z"/><path class="cls-115" d="M210.81,94.71a48.54,48.54,0,1,0-20.12,52.51,49,49,0,0,0,20.12-52.51C210.41,93.16,211.8,98.58,210.81,94.71Z"/><path class="cls-116" d="M210.78,94.71a48.51,48.51,0,1,0-20.1,52.49,48.93,48.93,0,0,0,20.1-52.49Z"/><path class="cls-117" d="M210.76,94.72a48.49,48.49,0,1,0-20.09,52.46,48.9,48.9,0,0,0,20.09-52.46Z"/><path class="cls-118" d="M210.74,94.72a48.47,48.47,0,1,0-20.08,52.45,48.88,48.88,0,0,0,20.08-52.45Z"/><path class="cls-119" d="M210.72,94.73a48.45,48.45,0,1,0-20.08,52.42,48.86,48.86,0,0,0,20.08-52.42C210.32,93.18,211.71,98.6,210.72,94.73Z"/><path class="cls-120" d="M210.7,94.73a48.43,48.43,0,1,0-20.07,52.4,48.84,48.84,0,0,0,20.07-52.4C210.3,93.19,211.69,98.6,210.7,94.73Z"/><path class="cls-121" d="M210.68,94.74a48.41,48.41,0,1,0-20.06,52.37,48.83,48.83,0,0,0,20.06-52.37Z"/><path class="cls-122" d="M210.65,94.74a48.38,48.38,0,1,0-20,52.35,48.8,48.8,0,0,0,20-52.35C210.26,93.2,211.65,98.61,210.65,94.74Z"/><path class="cls-123" d="M210.63,94.75a48.37,48.37,0,1,0-20,52.32,48.79,48.79,0,0,0,20-52.32Z"/><path class="cls-124" d="M210.61,94.76a48.34,48.34,0,1,0-20,52.29,48.74,48.74,0,0,0,20-52.29Z"/><path class="cls-125" d="M210.59,94.76a48.32,48.32,0,1,0-20,52.27,48.73,48.73,0,0,0,20-52.27C210.19,93.22,211.58,98.62,210.59,94.76Z"/><path class="cls-126" d="M210.57,94.77a48.29,48.29,0,1,0-20,52.25,48.71,48.71,0,0,0,20-52.25Z"/><path class="cls-127" d="M210.55,94.77a48.28,48.28,0,1,0-20,52.23,48.69,48.69,0,0,0,20-52.23C210.15,93.23,211.54,98.63,210.55,94.77Z"/><path class="cls-128" d="M210.52,94.78a48.24,48.24,0,1,0-20,52.2,48.63,48.63,0,0,0,20-52.2C210.13,93.24,211.52,98.63,210.52,94.78Z"/><path class="cls-129" d="M210.5,94.78a48.22,48.22,0,1,0-20,52.18,48.61,48.61,0,0,0,20-52.18C210.11,93.24,211.49,98.63,210.5,94.78Z"/><path class="cls-130" d="M210.48,94.79a48.2,48.2,0,1,0-20,52.15,48.6,48.6,0,0,0,20-52.15C210.08,93.25,211.47,98.64,210.48,94.79Z"/><path class="cls-131" d="M210.46,94.79a48.18,48.18,0,1,0-20,52.13,48.61,48.61,0,0,0,20-52.13C210.06,93.26,211.45,98.64,210.46,94.79Z"/><path class="cls-132" d="M210.44,94.8a48.16,48.16,0,1,0-20,52.1,48.6,48.6,0,0,0,20-52.1C210,93.26,211.43,98.65,210.44,94.8Z"/><path class="cls-133" d="M210.42,94.81a48.14,48.14,0,1,0-19.95,52.08,48.55,48.55,0,0,0,19.95-52.08C210,93.27,211.4,98.65,210.42,94.81Z"/><path class="cls-134" d="M210.39,94.81a48.11,48.11,0,1,0-19.93,52.06,48.51,48.51,0,0,0,19.93-52.06C210,93.27,211.38,98.65,210.39,94.81Z"/><path class="cls-135" d="M210.37,94.82a48.09,48.09,0,1,0-19.92,52,48.5,48.5,0,0,0,19.92-52C210,93.28,211.36,98.66,210.37,94.82Z"/><path class="cls-136" d="M210.35,94.82a48.07,48.07,0,1,0-19.92,52,48.48,48.48,0,0,0,19.92-52C210,93.29,211.34,98.66,210.35,94.82Z"/><path class="cls-137" d="M210.33,94.83a48,48,0,1,0-19.91,52,48.45,48.45,0,0,0,19.91-52C209.93,93.29,211.32,98.67,210.33,94.83Z"/><path class="cls-138" d="M210.31,94.83a48,48,0,1,0-19.9,52,48.43,48.43,0,0,0,19.9-52C209.91,93.3,211.29,98.67,210.31,94.83Z"/><path class="cls-139" d="M210.29,94.84a48,48,0,1,0-19.89,51.93,48.42,48.42,0,0,0,19.89-51.93C209.89,93.31,211.27,98.67,210.29,94.84Z"/><path class="cls-140" d="M210.26,94.84a48,48,0,1,0-19.88,51.92,48.39,48.39,0,0,0,19.88-51.92C209.87,93.31,211.25,98.68,210.26,94.84Z"/><path class="cls-141" d="M210.24,94.85a48,48,0,1,0-19.87,51.89,48.37,48.37,0,0,0,19.87-51.89C209.85,93.32,211.23,98.68,210.24,94.85Z"/><path class="cls-142" d="M210.22,94.86a47.93,47.93,0,1,0-19.86,51.86,48.32,48.32,0,0,0,19.86-51.86C209.83,93.32,211.21,98.68,210.22,94.86Z"/><path class="cls-143" d="M210.2,94.86a47.91,47.91,0,1,0-19.85,51.84A48.32,48.32,0,0,0,210.2,94.86Z"/><path class="cls-144" d="M210.18,94.87a47.89,47.89,0,1,0-19.85,51.81,48.31,48.31,0,0,0,19.85-51.81C209.78,93.34,211.16,98.69,210.18,94.87Z"/><path class="cls-145" d="M210.16,94.87a47.87,47.87,0,1,0-19.84,51.79,48.29,48.29,0,0,0,19.84-51.79C209.76,93.34,211.14,98.7,210.16,94.87Z"/><path class="cls-146" d="M210.13,94.88a47.84,47.84,0,1,0-19.82,51.76,48.25,48.25,0,0,0,19.82-51.76C209.74,93.35,211.12,98.7,210.13,94.88Z"/><path class="cls-147" d="M210.11,94.88a47.83,47.83,0,1,0-19.81,51.74,48.21,48.21,0,0,0,19.81-51.74C209.72,93.36,211.1,98.7,210.11,94.88Z"/><path class="cls-148" d="M210.09,94.89a47.8,47.8,0,1,0-19.8,51.72,48.21,48.21,0,0,0,19.8-51.72Z"/><path class="cls-149" d="M210.07,94.89a47.78,47.78,0,1,0-19.8,51.7,48.2,48.2,0,0,0,19.8-51.7Z"/><path class="cls-150" d="M210.05,94.9a47.76,47.76,0,1,0-19.79,51.67A48.18,48.18,0,0,0,210.05,94.9C209.66,93.37,211,98.71,210.05,94.9Z"/><path class="cls-151" d="M210,94.91a47.74,47.74,0,1,0-19.78,51.64A48.14,48.14,0,0,0,210,94.91C209.63,93.38,211,98.72,210,94.91Z"/><path class="cls-152" d="M210,94.91a47.71,47.71,0,1,0-19.76,51.62A48.1,48.1,0,0,0,210,94.91Z"/><path class="cls-153" d="M210,94.92a47.69,47.69,0,1,0-19.76,51.59A48.09,48.09,0,0,0,210,94.92C209.59,93.39,211,98.73,210,94.92Z"/><path class="cls-154" d="M210,94.92a47.67,47.67,0,1,0-19.75,51.57A48.08,48.08,0,0,0,210,94.92Z"/><path class="cls-155" d="M209.94,94.93a47.64,47.64,0,1,0-19.74,51.55,48.07,48.07,0,0,0,19.74-51.55Z"/><path class="cls-156" d="M209.92,94.93a47.62,47.62,0,1,0-19.73,51.53,48,48,0,0,0,19.73-51.53Z"/><path class="cls-157" d="M209.9,94.94a47.6,47.6,0,1,0-19.73,51.5,48,48,0,0,0,19.73-51.5Z"/><path class="cls-158" d="M209.87,94.94a47.58,47.58,0,1,0-19.71,51.48,48,48,0,0,0,19.71-51.48Z"/><path class="cls-159" d="M209.85,95a47.55,47.55,0,1,0-19.7,51.45A48,48,0,0,0,209.85,95Z"/><path class="cls-160" d="M209.83,95a47.54,47.54,0,1,0-19.69,51.42A47.93,47.93,0,0,0,209.83,95C209.44,93.44,210.81,98.75,209.83,95Z"/><path class="cls-161" d="M209.81,95a47.51,47.51,0,1,0-19.69,51.4A47.91,47.91,0,0,0,209.81,95Z"/><path class="cls-162" d="M209.79,95a47.49,47.49,0,1,0-19.68,51.38A47.9,47.9,0,0,0,209.79,95Z"/><path class="cls-163" d="M209.77,95a47.47,47.47,0,1,0-19.67,51.36A47.88,47.88,0,0,0,209.77,95C209.38,93.46,210.74,98.76,209.77,95Z"/><path class="cls-164" d="M209.74,95a47.44,47.44,0,1,0-19.65,51.33A47.85,47.85,0,0,0,209.74,95C209.35,93.46,210.72,98.77,209.74,95Z"/><path class="cls-165" d="M209.72,95a47.42,47.42,0,1,0-19.65,51.31A47.8,47.8,0,0,0,209.72,95Z"/><path class="cls-166" d="M209.7,95a47.4,47.4,0,1,0-19.64,51.28A47.79,47.79,0,0,0,209.7,95Z"/><path class="cls-167" d="M209.68,95a47.38,47.38,0,1,0-19.63,51.25A47.79,47.79,0,0,0,209.68,95Z"/><path class="cls-168" d="M209.66,95A47.36,47.36,0,1,0,190,146.23,47.77,47.77,0,0,0,209.66,95Z"/><path class="cls-169" d="M209.64,95A47.33,47.33,0,1,0,190,146.21,47.76,47.76,0,0,0,209.64,95Z"/><path class="cls-170" d="M209.62,95A47.31,47.31,0,1,0,190,146.2,47.72,47.72,0,0,0,209.62,95Z"/><path class="cls-171" d="M209.59,95A47.29,47.29,0,1,0,190,146.18,47.68,47.68,0,0,0,209.59,95Z"/><path class="cls-172" d="M209.57,95A47.26,47.26,0,1,0,190,146.16,47.68,47.68,0,0,0,209.57,95Z"/><path class="cls-173" d="M209.55,95A47.24,47.24,0,1,0,190,146.14,47.67,47.67,0,0,0,209.55,95Z"/><path class="cls-174" d="M209.53,95A47.23,47.23,0,1,0,190,146.12,47.61,47.61,0,0,0,209.53,95C209.14,93.53,210.5,98.8,209.53,95Z"/><path class="cls-175" d="M209.51,95A47.2,47.2,0,1,0,190,146.1,47.59,47.59,0,0,0,209.51,95Z"/><path class="cls-176" d="M209.49,95.05a47.18,47.18,0,1,0-19.55,51,47.59,47.59,0,0,0,19.55-51C209.1,93.54,210.45,98.81,209.49,95.05Z"/><path class="cls-177" d="M209.46,95.05a47.15,47.15,0,1,0-19.53,51,47.55,47.55,0,0,0,19.53-51C209.08,93.54,210.43,98.82,209.46,95.05Z"/><path class="cls-178" d="M209.44,95.06a47.13,47.13,0,1,0-19.53,51,47.55,47.55,0,0,0,19.53-51Z"/><path class="cls-179" d="M209.42,95.06a47.11,47.11,0,1,0-19.52,51,47.5,47.5,0,0,0,19.52-51C209,93.56,210.39,98.82,209.42,95.06Z"/><path class="cls-180" d="M209.4,95.07A47.08,47.08,0,1,0,189.89,146,47.49,47.49,0,0,0,209.4,95.07Z"/><path class="cls-181" d="M209.38,95.07A47.07,47.07,0,1,0,189.88,146a47.47,47.47,0,0,0,19.5-50.92C209,93.57,210.34,98.83,209.38,95.07Z"/><path class="cls-182" d="M209.36,95.08A47,47,0,1,0,189.86,146a47.45,47.45,0,0,0,19.5-50.89C209,93.58,210.32,98.84,209.36,95.08Z"/><path class="cls-183" d="M209.33,95.08A47,47,0,1,0,189.85,146a47.39,47.39,0,0,0,19.48-50.87C209,93.58,210.3,98.84,209.33,95.08Z"/><path class="cls-184" d="M209.31,95.09a47,47,0,1,0-19.47,50.85,47.38,47.38,0,0,0,19.47-50.85C208.93,93.59,210.28,98.84,209.31,95.09Z"/><path class="cls-185" d="M209.29,95.1a47,47,0,1,0-19.46,50.82A47.39,47.39,0,0,0,209.29,95.1Z"/><path class="cls-186" d="M209.27,95.1a47,47,0,1,0-19.46,50.8,47.37,47.37,0,0,0,19.46-50.8C208.88,93.6,210.23,98.85,209.27,95.1Z"/><path class="cls-187" d="M209.25,95.11a46.94,46.94,0,1,0-19.45,50.77,47.36,47.36,0,0,0,19.45-50.77C208.86,93.61,210.21,98.85,209.25,95.11Z"/><path class="cls-188" d="M209.23,95.11a46.91,46.91,0,1,0-19.44,50.75,47.31,47.31,0,0,0,19.44-50.75C208.84,93.61,210.19,98.86,209.23,95.11Z"/><path class="cls-189" d="M209.2,95.12a46.88,46.88,0,1,0-19.42,50.72A47.28,47.28,0,0,0,209.2,95.12C208.82,93.62,210.17,98.86,209.2,95.12Z"/><path class="cls-190" d="M209.18,95.12a46.86,46.86,0,1,0-19.41,50.7,47.26,47.26,0,0,0,19.41-50.7C208.8,93.63,210.15,98.87,209.18,95.12Z"/><path class="cls-191" d="M209.16,95.13a46.84,46.84,0,1,0-19.41,50.68,47.23,47.23,0,0,0,19.41-50.68C208.78,93.63,210.12,98.87,209.16,95.13Z"/><path class="cls-192" d="M209.14,95.13a46.82,46.82,0,1,0-19.4,50.66,47.23,47.23,0,0,0,19.4-50.66C208.75,93.64,210.1,98.87,209.14,95.13Z"/><path class="cls-193" d="M209.12,95.14a46.79,46.79,0,1,0-19.39,50.63,47.18,47.18,0,0,0,19.39-50.63C208.73,93.64,210.08,98.88,209.12,95.14Z"/><path class="cls-194" d="M209.1,95.15a46.78,46.78,0,1,0-19.38,50.6,47.18,47.18,0,0,0,19.38-50.6C208.71,93.65,210.06,98.88,209.1,95.15Z"/><path class="cls-195" d="M209.07,95.15a46.75,46.75,0,1,0-19.37,50.58,47.14,47.14,0,0,0,19.37-50.58C208.69,93.66,210,98.88,209.07,95.15Z"/><path class="cls-196" d="M209.05,95.16a46.73,46.73,0,1,0-19.36,50.55,47.14,47.14,0,0,0,19.36-50.55C208.67,93.66,210,98.89,209.05,95.16Z"/><path class="cls-197" d="M209,95.16a46.71,46.71,0,1,0-19.35,50.53A47.1,47.1,0,0,0,209,95.16C208.65,93.67,210,98.89,209,95.16Z"/><path class="cls-198" d="M209,95.17a46.69,46.69,0,1,0-19.34,50.5A47.07,47.07,0,0,0,209,95.17C208.63,93.68,210,98.9,209,95.17Z"/><path class="cls-199" d="M209,95.17a46.66,46.66,0,1,0-19.34,50.49A47.07,47.07,0,0,0,209,95.17C208.6,93.68,210,98.9,209,95.17Z"/><path class="cls-200" d="M209,95.18a46.64,46.64,0,1,0-19.33,50.46A47,47,0,0,0,209,95.18C208.58,93.69,209.92,98.9,209,95.18Z"/><path class="cls-201" d="M208.94,95.18a46.61,46.61,0,1,0-19.31,50.44,47,47,0,0,0,19.31-50.44Z"/><path class="cls-202" d="M208.92,95.19a46.59,46.59,0,1,0-19.3,50.41,47,47,0,0,0,19.3-50.41C208.54,93.7,209.88,98.91,208.92,95.19Z"/><path class="cls-203" d="M208.9,95.2a46.57,46.57,0,1,0-19.3,50.38A47,47,0,0,0,208.9,95.2C208.52,93.71,209.86,98.91,208.9,95.2Z"/><path class="cls-204" d="M208.88,95.2a46.55,46.55,0,1,0-19.29,50.36A47,47,0,0,0,208.88,95.2C208.5,93.71,209.84,98.92,208.88,95.2Z"/><path class="cls-205" d="M208.86,95.21a46.53,46.53,0,1,0-19.28,50.33,47,47,0,0,0,19.28-50.33Z"/><path class="cls-206" d="M208.84,95.21a46.5,46.5,0,1,0-19.27,50.32,46.89,46.89,0,0,0,19.27-50.32C208.45,93.73,209.79,98.93,208.84,95.21Z"/><path class="cls-207" d="M208.81,95.22a46.48,46.48,0,1,0-19.26,50.29,46.85,46.85,0,0,0,19.26-50.29C208.43,93.73,209.77,98.93,208.81,95.22Z"/><path class="cls-208" d="M208.79,95.22a46.46,46.46,0,1,0-19.25,50.27,46.85,46.85,0,0,0,19.25-50.27C208.41,93.74,209.75,98.93,208.79,95.22Z"/><path class="cls-209" d="M208.77,95.23a46.44,46.44,0,1,0-19.24,50.24,46.83,46.83,0,0,0,19.24-50.24C208.39,93.75,209.73,98.94,208.77,95.23Z"/><path class="cls-210" d="M208.75,95.23a46.41,46.41,0,1,0-19.23,50.22,46.82,46.82,0,0,0,19.23-50.22Z"/><path class="cls-211" d="M208.73,95.24a46.4,46.4,0,1,0-19.22,50.19,46.77,46.77,0,0,0,19.22-50.19Z"/><path class="cls-212" d="M208.71,95.25a46.37,46.37,0,1,0-19.22,50.16,46.78,46.78,0,0,0,19.22-50.16Z"/><path class="cls-213" d="M208.68,95.25a46.34,46.34,0,1,0-19.2,50.15,46.74,46.74,0,0,0,19.2-50.15C208.3,93.77,209.64,99,208.68,95.25Z"/><path class="cls-214" d="M208.66,95.26a46.32,46.32,0,1,0-19.19,50.12,46.72,46.72,0,0,0,19.19-50.12Z"/><path class="cls-215" d="M208.64,95.26a46.3,46.3,0,1,0-19.18,50.1,46.71,46.71,0,0,0,19.18-50.1Z"/><path class="cls-216" d="M208.62,95.27a46.28,46.28,0,1,0-19.18,50.07,46.67,46.67,0,0,0,19.18-50.07Z"/><path class="cls-217" d="M208.6,95.27a46.26,46.26,0,1,0-19.17,50.05,46.66,46.66,0,0,0,19.17-50Z"/><path class="cls-218" d="M208.58,95.28a46.24,46.24,0,1,0-19.16,50,46.64,46.64,0,0,0,19.16-50Z"/><path class="cls-219" d="M208.55,95.28a46.21,46.21,0,1,0-19.14,50,46.62,46.62,0,0,0,19.14-50Z"/><path class="cls-220" d="M208.53,95.29a46.19,46.19,0,1,0-19.14,50,46.57,46.57,0,0,0,19.14-50Z"/><path class="cls-221" d="M208.51,95.3a46.17,46.17,0,1,0-19.13,50A46.56,46.56,0,0,0,208.51,95.3Z"/><path class="cls-222" d="M208.49,95.3a46.15,46.15,0,1,0-19.12,49.93A46.54,46.54,0,0,0,208.49,95.3Z"/><path class="cls-223" d="M208.47,95.31a46.12,46.12,0,1,0-19.11,49.9,46.52,46.52,0,0,0,19.11-49.9Z"/><path class="cls-224" d="M208.45,95.31a46.11,46.11,0,1,0-19.11,49.88,46.51,46.51,0,0,0,19.11-49.88C208.07,93.84,209.39,99,208.45,95.31Z"/><path class="cls-225" d="M208.42,95.32a46.08,46.08,0,1,0-19.09,49.85,46.45,46.45,0,0,0,19.09-49.85C208.05,93.85,209.37,99,208.42,95.32Z"/><path class="cls-226" d="M208.4,95.32a46.06,46.06,0,1,0-19.08,49.83A46.44,46.44,0,0,0,208.4,95.32Z"/><path class="cls-227" d="M208.38,95.33a46,46,0,1,0-19.07,49.8,46.42,46.42,0,0,0,19.07-49.8Z"/><path class="cls-228" d="M208.36,95.33a46,46,0,1,0-19.06,49.79,46.41,46.41,0,0,0,19.06-49.79Z"/><path class="cls-229" d="M208.34,95.34a46,46,0,1,0-19.06,49.76,46.37,46.37,0,0,0,19.06-49.76C208,93.87,209.28,99,208.34,95.34Z"/><path class="cls-230" d="M208.32,95.35a46,46,0,1,0-19,49.73,46.37,46.37,0,0,0,19-49.73C207.94,93.88,209.26,99,208.32,95.35Z"/><path class="cls-231" d="M208.3,95.35a46,46,0,1,0-19,49.71,46.36,46.36,0,0,0,19-49.71C207.92,93.88,209.24,99,208.3,95.35Z"/><path class="cls-232" d="M208.27,95.36a45.92,45.92,0,1,0-19,49.68,46.32,46.32,0,0,0,19-49.68C207.9,93.89,209.22,99,208.27,95.36Z"/><path class="cls-233" d="M208.25,95.36a45.9,45.9,0,1,0-19,49.66,46.31,46.31,0,0,0,19-49.66C207.87,93.9,209.19,99,208.25,95.36Z"/><path class="cls-234" d="M208.23,95.37a45.88,45.88,0,1,0-19,49.63,46.26,46.26,0,0,0,19-49.63Z"/><path class="cls-235" d="M208.21,95.37a45.86,45.86,0,1,0-19,49.62,46.25,46.25,0,0,0,19-49.62C207.83,93.91,209.15,99,208.21,95.37Z"/><path class="cls-236" d="M208.19,95.38a45.83,45.83,0,1,0-19,49.59,46.23,46.23,0,0,0,19-49.59Z"/><path class="cls-237" d="M208.17,95.38a45.81,45.81,0,1,0-19,49.57,46.22,46.22,0,0,0,19-49.57C207.79,93.92,209.11,99,208.17,95.38Z"/><path class="cls-238" d="M208.14,95.39a45.79,45.79,0,1,0-19,49.54,46.18,46.18,0,0,0,19-49.54C207.77,93.93,209.08,99.05,208.14,95.39Z"/><path class="cls-239" d="M208.12,95.4a45.76,45.76,0,1,0-19,49.51,46.13,46.13,0,0,0,19-49.51C207.75,93.93,209.06,99.05,208.12,95.4Z"/><path class="cls-240" d="M208.1,95.4a45.74,45.74,0,1,0-18.95,49.49A46.14,46.14,0,0,0,208.1,95.4C207.72,93.94,209,99.05,208.1,95.4Z"/><path class="cls-241" d="M208.08,95.41a45.73,45.73,0,1,0-19,49.46,46.11,46.11,0,0,0,19-49.46C207.7,94,209,99.06,208.08,95.41Z"/><path class="cls-242" d="M208.06,95.41a45.7,45.7,0,1,0-18.94,49.45,46.11,46.11,0,0,0,18.94-49.45C207.68,94,209,99.06,208.06,95.41Z"/><path class="cls-243" d="M208,95.42a45.68,45.68,0,1,0-18.93,49.42A46.07,46.07,0,0,0,208,95.42C207.66,94,209,99.07,208,95.42Z"/><path class="cls-244" d="M208,95.42a45.66,45.66,0,1,0-18.91,49.4A46,46,0,0,0,208,95.42C207.64,94,209,99.07,208,95.42Z"/><path class="cls-245" d="M208,95.43a45.63,45.63,0,1,0-18.91,49.37A46,46,0,0,0,208,95.43C207.62,94,208.93,99.07,208,95.43Z"/><path class="cls-246" d="M208,95.43a45.61,45.61,0,1,0-18.9,49.35A46,46,0,0,0,208,95.43C207.6,94,208.91,99.08,208,95.43Z"/><path class="cls-247" d="M208,95.44a45.59,45.59,0,1,0-18.89,49.32A46,46,0,0,0,208,95.44C207.57,94,208.89,99.08,208,95.44Z"/><path class="cls-248" d="M207.93,95.45a45.57,45.57,0,1,0-18.88,49.29,45.94,45.94,0,0,0,18.88-49.29C207.55,94,208.86,99.08,207.93,95.45Z"/><path class="cls-249" d="M207.91,95.45A45.55,45.55,0,1,0,189,144.72a46,46,0,0,0,18.87-49.27C207.53,94,208.84,99.09,207.91,95.45Z"/><path class="cls-250" d="M207.88,95.46A45.51,45.51,0,1,0,189,144.71a45.91,45.91,0,0,0,18.86-49.25C207.51,94,208.82,99.09,207.88,95.46Z"/><path class="cls-251" d="M207.86,95.46A45.5,45.5,0,1,0,189,144.69a45.9,45.9,0,0,0,18.85-49.23C207.49,94,208.8,99.1,207.86,95.46Z"/><path class="cls-252" d="M207.84,95.47A45.47,45.47,0,1,0,189,144.67a45.85,45.85,0,0,0,18.84-49.2Z"/><path class="cls-253" d="M207.82,95.47A45.45,45.45,0,1,0,189,144.65a45.84,45.84,0,0,0,18.83-49.18Z"/><path class="cls-254" d="M207.8,95.48A45.43,45.43,0,1,0,189,144.63,45.81,45.81,0,0,0,207.8,95.48C207.42,94,208.73,99.11,207.8,95.48Z"/><path class="cls-255" d="M207.78,95.48A45.42,45.42,0,1,0,189,144.61a45.8,45.8,0,0,0,18.82-49.13C207.4,94,208.71,99.11,207.78,95.48Z"/><path class="cls-256" d="M207.75,95.49a45.38,45.38,0,1,0-18.8,49.1,45.77,45.77,0,0,0,18.8-49.1C207.38,94,208.69,99.11,207.75,95.49Z"/><path class="cls-257" d="M207.73,95.5a45.36,45.36,0,1,0-18.79,49.08A45.72,45.72,0,0,0,207.73,95.5Z"/><path class="cls-258" d="M207.71,95.5a45.35,45.35,0,1,0-18.79,49.06A45.73,45.73,0,0,0,207.71,95.5Z"/><path class="cls-259" d="M207.69,95.51a45.32,45.32,0,1,0-18.78,49,45.71,45.71,0,0,0,18.78-49Z"/><path class="cls-260" d="M207.67,95.51a45.3,45.3,0,1,0-18.77,49,45.7,45.7,0,0,0,18.77-49Z"/><path class="cls-261" d="M207.65,95.52a45.28,45.28,0,1,0-18.76,49,45.69,45.69,0,0,0,18.76-49C207.27,94.07,208.58,99.13,207.65,95.52Z"/><path class="cls-262" d="M207.62,95.52a45.25,45.25,0,1,0-18.75,49,45.63,45.63,0,0,0,18.75-49Z"/><path class="cls-263" d="M207.6,95.53a45.23,45.23,0,1,0-18.74,48.93A45.61,45.61,0,0,0,207.6,95.53C207.23,94.08,208.53,99.14,207.6,95.53Z"/><path class="cls-264" d="M207.58,95.53a45.2,45.2,0,1,0-18.73,48.92,45.59,45.59,0,0,0,18.73-48.92Z"/><path class="cls-265" d="M207.56,95.54a45.18,45.18,0,1,0-18.72,48.89,45.58,45.58,0,0,0,18.72-48.89Z"/><path class="cls-266" d="M207.54,95.55a45.16,45.16,0,1,0-18.72,48.86,45.53,45.53,0,0,0,18.72-48.86C207.17,94.1,208.47,99.15,207.54,95.55Z"/><path class="cls-267" d="M207.52,95.55a45.14,45.14,0,1,0-18.71,48.84,45.55,45.55,0,0,0,18.71-48.84C207.15,94.11,208.44,99.16,207.52,95.55Z"/><path class="cls-268" d="M207.49,95.56a45.12,45.12,0,1,0-18.69,48.81,45.5,45.5,0,0,0,18.69-48.81Z"/><path class="cls-269" d="M207.47,95.56a45.1,45.1,0,1,0-18.68,48.79,45.48,45.48,0,0,0,18.68-48.79Z"/><path class="cls-270" d="M207.45,95.57a45.07,45.07,0,1,0-18.67,48.76,45.46,45.46,0,0,0,18.67-48.76Z"/><path class="cls-271" d="M207.43,95.57a45.06,45.06,0,1,0-18.67,48.74,45.42,45.42,0,0,0,18.67-48.74Z"/><path class="cls-272" d="M207.41,95.58a45,45,0,1,0-18.66,48.72,45.41,45.41,0,0,0,18.66-48.72Z"/><path class="cls-273" d="M207.39,95.58a45,45,0,1,0-18.65,48.7,45.4,45.4,0,0,0,18.65-48.7C207,94.15,208.31,99.18,207.39,95.58Z"/><path class="cls-274" d="M207.36,95.59a45,45,0,1,0-18.63,48.67,45.36,45.36,0,0,0,18.63-48.67C207,94.15,208.29,99.18,207.36,95.59Z"/><path class="cls-275" d="M207.34,95.6a45,45,0,1,0-18.63,48.64A45.32,45.32,0,0,0,207.34,95.6C207,94.16,208.27,99.19,207.34,95.6Z"/><path class="cls-276" d="M207.32,95.6a44.94,44.94,0,1,0-18.62,48.62A45.32,45.32,0,0,0,207.32,95.6C207,94.17,208.24,99.19,207.32,95.6Z"/><path class="cls-277" d="M207.3,95.61a44.92,44.92,0,1,0-18.61,48.59A45.3,45.3,0,0,0,207.3,95.61Z"/><path class="cls-278" d="M207.28,95.61a44.9,44.9,0,1,0-18.6,48.57,45.29,45.29,0,0,0,18.6-48.57C206.91,94.18,208.2,99.2,207.28,95.61Z"/><path class="cls-279" d="M207.26,95.62a44.87,44.87,0,1,0-18.6,48.55,45.28,45.28,0,0,0,18.6-48.55Z"/><path class="cls-280" d="M207.23,95.62a44.85,44.85,0,1,0-18.58,48.53,45.21,45.21,0,0,0,18.58-48.53C206.87,94.19,208.16,99.21,207.23,95.62Z"/><path class="cls-281" d="M207.21,95.63a44.83,44.83,0,1,0-18.57,48.5,45.2,45.2,0,0,0,18.57-48.5Z"/><path class="cls-282" d="M207.19,95.64a44.81,44.81,0,1,0-18.56,48.47,45.18,45.18,0,0,0,18.56-48.47Z"/><path class="cls-283" d="M207.17,95.64a44.78,44.78,0,1,0-18.56,48.45,45.17,45.17,0,0,0,18.56-48.45Z"/><path class="cls-284" d="M207.15,95.65a44.76,44.76,0,1,0-18.55,48.42,45.16,45.16,0,0,0,18.55-48.42Z"/><path class="cls-285" d="M207.13,95.65a44.74,44.74,0,1,0-18.54,48.4,45.13,45.13,0,0,0,18.54-48.4Z"/><path class="cls-286" d="M207.1,95.66A44.71,44.71,0,1,0,188.58,144,45.08,45.08,0,0,0,207.1,95.66C206.74,94.23,208,99.23,207.1,95.66Z"/><path class="cls-287" d="M207.08,95.66A44.69,44.69,0,1,0,188.56,144a45.08,45.08,0,0,0,18.52-48.36C206.72,94.24,208,99.23,207.08,95.66Z"/><path class="cls-288" d="M207.06,95.67A44.67,44.67,0,1,0,188.55,144a45.05,45.05,0,0,0,18.51-48.33Z"/><path class="cls-289" d="M207,95.67A44.65,44.65,0,1,0,188.54,144,45,45,0,0,0,207,95.67C206.67,94.25,208,99.24,207,95.67Z"/><path class="cls-290" d="M207,95.68A44.63,44.63,0,1,0,188.53,144,45,45,0,0,0,207,95.68Z"/><path class="cls-291" d="M207,95.69a44.6,44.6,0,1,0-18.48,48.25A45,45,0,0,0,207,95.69C206.63,94.26,207.91,99.25,207,95.69Z"/><path class="cls-292" d="M207,95.69a44.58,44.58,0,1,0-18.47,48.23A45,45,0,0,0,207,95.69C206.61,94.27,207.89,99.25,207,95.69Z"/><path class="cls-293" d="M207,95.7a44.56,44.56,0,1,0-18.46,48.2A44.93,44.93,0,0,0,207,95.7C206.59,94.27,207.87,99.25,207,95.7Z"/><path class="cls-294" d="M206.93,95.7a44.53,44.53,0,1,0-18.45,48.19A44.92,44.92,0,0,0,206.93,95.7C206.57,94.28,207.85,99.26,206.93,95.7Z"/><path class="cls-295" d="M206.91,95.71a44.52,44.52,0,1,0-18.44,48.16,44.89,44.89,0,0,0,18.44-48.16C206.54,94.29,207.82,99.26,206.91,95.71Z"/><path class="cls-296" d="M206.89,95.71a44.49,44.49,0,1,0-18.44,48.14,44.88,44.88,0,0,0,18.44-48.14C206.52,94.29,207.8,99.27,206.89,95.71Z"/><path class="cls-297" d="M206.87,95.72a44.47,44.47,0,1,0-18.43,48.11,44.87,44.87,0,0,0,18.43-48.11C206.5,94.3,207.78,99.27,206.87,95.72Z"/><path class="cls-298" d="M206.85,95.72a44.45,44.45,0,1,0-18.42,48.09,44.83,44.83,0,0,0,18.42-48.09C206.48,94.3,207.76,99.27,206.85,95.72Z"/><path class="cls-299" d="M206.82,95.73a44.42,44.42,0,1,0-18.4,48.06,44.8,44.8,0,0,0,18.4-48.06C206.46,94.31,207.74,99.28,206.82,95.73Z"/><path class="cls-300" d="M206.8,95.74a44.4,44.4,0,1,0-18.4,48,44.77,44.77,0,0,0,18.4-48C206.44,94.32,207.71,99.28,206.8,95.74Z"/><path class="cls-301" d="M206.78,95.74a44.38,44.38,0,1,0-18.39,48,44.75,44.75,0,0,0,18.39-48C206.42,94.32,207.69,99.28,206.78,95.74Z"/><path class="cls-302" d="M206.76,95.75a44.36,44.36,0,1,0-18.38,48,44.74,44.74,0,0,0,18.38-48C206.39,94.33,207.67,99.29,206.76,95.75Z"/><path class="cls-303" d="M206.74,95.75a44.34,44.34,0,1,0-18.37,48,44.73,44.73,0,0,0,18.37-48C206.37,94.34,207.65,99.29,206.74,95.75Z"/><path class="cls-304" d="M206.72,95.76a44.32,44.32,0,1,0-18.37,47.94,44.7,44.7,0,0,0,18.37-47.94C206.35,94.34,207.63,99.3,206.72,95.76Z"/><path class="cls-305" d="M206.69,95.76a44.29,44.29,0,1,0-18.35,47.92,44.66,44.66,0,0,0,18.35-47.92Z"/><path class="cls-306" d="M206.67,95.77a44.27,44.27,0,1,0-18.34,47.89,44.65,44.65,0,0,0,18.34-47.89C206.31,94.35,207.58,99.3,206.67,95.77Z"/><path class="cls-307" d="M206.65,95.77a44.24,44.24,0,1,0-18.33,47.87,44.6,44.6,0,0,0,18.33-47.87Z"/><path d="M206.63,95.78a44.23,44.23,0,1,0-18.32,47.85,44.61,44.61,0,0,0,18.32-47.85C206.27,94.37,207.54,99.31,206.63,95.78Z"/></g><g class="cls-308"><circle class="cls-309" cx="163.81" cy="106.83" r="44.19"/><path class="cls-310" d="M163.81,62.64A44.19,44.19,0,1,0,208,106.83,44.19,44.19,0,0,0,163.81,62.64Zm0,87.16a43,43,0,1,1,43-43A43,43,0,0,1,163.81,149.8Z"/><circle class="cls-311" cx="163.81" cy="106.83" r="34.91" transform="translate(32.05 251.35) rotate(-80.76)"/><circle class="cls-312" cx="163.81" cy="106.83" r="34.91" transform="translate(32.05 251.35) rotate(-80.76)"/><circle class="cls-313" cx="163.81" cy="106.83" r="33.74"/><g class="cls-314"><g class="cls-315"><path class="cls-316" d="M191.33,110.89a1,1,0,0,1-.86-1.12,1,1,0,0,1,2,.22A1,1,0,0,1,191.33,110.89Z"/><path class="cls-317" d="M190.47,114.86a1,1,0,1,1,.51-2,1,1,0,1,1-.51,2Z"/><path class="cls-318" d="M189,118.65a1,1,0,0,1,.8-1.87,1,1,0,1,1-.8,1.87Z"/><path class="cls-319" d="M187,122.2a1,1,0,0,1,1.05-1.74A1,1,0,1,1,187,122.2Z"/><path class="cls-320" d="M184.53,125.4a1,1,0,0,1-.1-1.4,1,1,0,0,1,1.4-.16,1,1,0,1,1-1.3,1.56Z"/><path class="cls-321" d="M181.62,128.24a1,1,0,1,1,1.5-1.37,1,1,0,0,1-.07,1.44A1,1,0,0,1,181.62,128.24Z"/><path class="cls-322" d="M178.3,130.59a1,1,0,0,1,.31-1.38,1,1,0,1,1,1.12,1.7A1,1,0,0,1,178.3,130.59Z"/><path class="cls-323" d="M174.7,132.47a1.06,1.06,0,0,1,.48-1.36,1,1,0,0,1,1.35.48,1,1,0,0,1-.48,1.36A1,1,0,0,1,174.7,132.47Z"/><path class="cls-324" d="M170.84,133.76a1,1,0,1,1,1.28.72A1,1,0,0,1,170.84,133.76Z"/><path class="cls-325" d="M166.85,134.51a1.06,1.06,0,0,1,.86-1.16,1,1,0,0,1,1.15.86,1,1,0,0,1-.86,1.16A1,1,0,0,1,166.85,134.51Z"/><path class="cls-326" d="M162.79,134.64a1,1,0,0,1,2,0,1,1,0,1,1-2,0Z"/><path class="cls-327" d="M158.75,134.21a1,1,0,0,1,1.15-.86,1.06,1.06,0,0,1,.86,1.16,1,1,0,0,1-1.15.86A1,1,0,0,1,158.75,134.21Z"/><path class="cls-328" d="M154.82,133.18a1,1,0,0,1,1.26-.65,1,1,0,0,1,.69,1.23,1,1,0,0,1-1.28.72A1,1,0,0,1,154.82,133.18Z"/><path class="cls-329" d="M151.08,131.59a1,1,0,0,1,1.35-.48,1.06,1.06,0,0,1,.48,1.36,1,1,0,0,1-1.35.48A1,1,0,0,1,151.08,131.59Z"/><path class="cls-330" d="M147.61,129.47a1,1,0,0,1,1.39-.26,1,1,0,0,1,.31,1.38,1,1,0,0,1-1.43.32A1,1,0,0,1,147.61,129.47Z"/><path class="cls-331" d="M144.49,126.87a1,1,0,1,1,1.5,1.37,1,1,0,0,1-1.43.07A1,1,0,0,1,144.49,126.87Z"/><path class="cls-332" d="M141.78,123.84a1,1,0,0,1,1.4.16,1,1,0,0,1-.09,1.4,1,1,0,0,1-1.47-.1A1,1,0,0,1,141.78,123.84Z"/><path class="cls-333" d="M139.53,120.46a1,1,0,0,1,1.05,1.74,1,1,0,0,1-1.05-1.74Z"/><path class="cls-334" d="M137.81,116.78a1,1,0,0,1,.8,1.87,1,1,0,1,1-.8-1.87Z"/><path class="cls-335" d="M136.63,112.89a1,1,0,0,1,.51,2,1,1,0,0,1-.51-2Z"/><path class="cls-336" d="M136.06,108.87a1,1,0,0,1,.22,2,1,1,0,0,1-1.16-.9A1,1,0,0,1,136.06,108.87Z"/><path class="cls-337" d="M136.06,104.8a1,1,0,0,1,1,1.06,1.07,1.07,0,0,1-1.07,1,1,1,0,0,1-1-1.06A1,1,0,0,1,136.06,104.8Z"/><path class="cls-338" d="M136.63,100.78a1.07,1.07,0,0,1,.81,1.18,1,1,0,0,1-2-.36A1,1,0,0,1,136.63,100.78Z"/><path class="cls-339" d="M137.81,96.89a1,1,0,0,1,.62,1.29,1.07,1.07,0,0,1-1.29.63,1,1,0,0,1-.64-1.29A1,1,0,0,1,137.81,96.89Z"/><path class="cls-340" d="M139.53,93.21a1.08,1.08,0,0,1,.43,1.36,1,1,0,0,1-1.81-.93A1,1,0,0,1,139.53,93.21Z"/><path class="cls-341" d="M141.78,89.83a1,1,0,0,1,.22,1.41,1.08,1.08,0,0,1-1.42.23,1,1,0,0,1-.23-1.42A1,1,0,0,1,141.78,89.83Z"/><path class="cls-342" d="M144.49,86.8a1,1,0,0,1,0,1.42A1,1,0,1,1,143,86.81,1,1,0,0,1,144.49,86.8Z"/><path class="cls-343" d="M147.61,84.2a1,1,0,0,1-.19,1.42,1.07,1.07,0,0,1-1.43-.19,1,1,0,0,1,.19-1.42A1,1,0,0,1,147.61,84.2Z"/><path class="cls-344" d="M151.08,82.08a1.05,1.05,0,0,1-.4,1.37,1,1,0,0,1-1.37-.36,1,1,0,0,1,.37-1.42A1,1,0,0,1,151.08,82.08Z"/><path class="cls-345" d="M154.82,80.49a1,1,0,0,1-.59,1.3,1.07,1.07,0,0,1-1.32-.59,1,1,0,0,1,.59-1.31A1,1,0,0,1,154.82,80.49Z"/><path class="cls-346" d="M158.75,79.46a1.06,1.06,0,0,1-.78,1.2,1,1,0,0,1-1.2-.74,1,1,0,0,1,.76-1.25A1,1,0,0,1,158.75,79.46Z"/><path class="cls-347" d="M162.79,79a1,1,0,0,1-.94,1.06,1.07,1.07,0,0,1-1.09-.94,1,1,0,0,1,.94-1.09A1,1,0,0,1,162.79,79Z"/><path class="cls-348" d="M166.85,79.16a1.07,1.07,0,0,1-1.09.94,1,1,0,0,1,.15-2A1,1,0,0,1,166.85,79.16Z"/><path class="cls-349" d="M170.84,79.92a1,1,0,0,1-1.2.74,1.06,1.06,0,0,1-.78-1.2,1,1,0,0,1,1.22-.79A1,1,0,0,1,170.84,79.92Z"/><path class="cls-350" d="M174.7,81.2a1.07,1.07,0,0,1-1.32.59,1,1,0,0,1-.59-1.3,1,1,0,0,1,1.32-.6A1,1,0,0,1,174.7,81.2Z"/><path class="cls-351" d="M178.3,83.09a1,1,0,0,1-1.37.36,1.05,1.05,0,0,1-.4-1.37,1,1,0,0,1,1.4-.41A1,1,0,0,1,178.3,83.09Z"/><path class="cls-352" d="M181.62,85.43a1.07,1.07,0,0,1-1.43.19A1,1,0,0,1,180,84.2a1,1,0,0,1,1.43-.19A1,1,0,0,1,181.62,85.43Z"/><path class="cls-353" d="M184.53,88.27a1,1,0,0,1-1.42,0,1,1,0,0,1,0-1.42,1,1,0,0,1,1.46,0A1,1,0,0,1,184.53,88.27Z"/><path class="cls-354" d="M187,91.47a1.08,1.08,0,0,1-1.42-.23,1,1,0,0,1,.22-1.41,1,1,0,0,1,1.44.22A1,1,0,0,1,187,91.47Z"/><path class="cls-355" d="M189,95a1,1,0,0,1-1.34-.45,1.06,1.06,0,0,1,.42-1.36,1,1,0,0,1,1.39.43A1,1,0,0,1,189,95Z"/><path class="cls-356" d="M190.47,98.81a1.07,1.07,0,0,1-1.29-.63,1,1,0,0,1,.62-1.29,1,1,0,0,1,1.31.63A1,1,0,0,1,190.47,98.81Z"/><path class="cls-357" d="M191.33,102.78a1,1,0,0,1-1.15-.82,1.06,1.06,0,0,1,.8-1.18,1,1,0,0,1,1.2.82A1,1,0,0,1,191.33,102.78Z"/><path class="cls-358" d="M191.66,106.84a1.09,1.09,0,0,1-1.07-1,1,1,0,0,1,1-1.06,1,1,0,0,1,1.06,1A1,1,0,0,1,191.66,106.84Z"/></g><g class="cls-315"><path class="cls-316" d="M191.33,110.89a1,1,0,0,1-.86-1.12,1,1,0,0,1,2,.22A1,1,0,0,1,191.33,110.89Z"/><path class="cls-317" d="M190.47,114.86a1,1,0,1,1,.51-2,1,1,0,1,1-.51,2Z"/><path class="cls-318" d="M189,118.65a1,1,0,0,1,.8-1.87,1,1,0,1,1-.8,1.87Z"/><path class="cls-319" d="M187,122.2a1,1,0,0,1,1.05-1.74A1,1,0,1,1,187,122.2Z"/><path class="cls-320" d="M184.53,125.4a1,1,0,0,1-.1-1.4,1,1,0,0,1,1.4-.16,1,1,0,1,1-1.3,1.56Z"/><path class="cls-321" d="M181.62,128.24a1,1,0,1,1,1.5-1.37,1,1,0,0,1-.07,1.44A1,1,0,0,1,181.62,128.24Z"/><path class="cls-322" d="M178.3,130.59a1,1,0,0,1,.31-1.38,1,1,0,1,1,1.12,1.7A1,1,0,0,1,178.3,130.59Z"/><path class="cls-323" d="M174.7,132.47a1.06,1.06,0,0,1,.48-1.36,1,1,0,0,1,1.35.48,1,1,0,0,1-.48,1.36A1,1,0,0,1,174.7,132.47Z"/><path class="cls-324" d="M170.84,133.76a1,1,0,1,1,1.28.72A1,1,0,0,1,170.84,133.76Z"/><path class="cls-325" d="M166.85,134.51a1.06,1.06,0,0,1,.86-1.16,1,1,0,0,1,1.15.86,1,1,0,0,1-.86,1.16A1,1,0,0,1,166.85,134.51Z"/><path class="cls-326" d="M162.79,134.64a1,1,0,0,1,2,0,1,1,0,1,1-2,0Z"/><path class="cls-327" d="M158.75,134.21a1,1,0,0,1,1.15-.86,1.06,1.06,0,0,1,.86,1.16,1,1,0,0,1-1.15.86A1,1,0,0,1,158.75,134.21Z"/><path class="cls-328" d="M154.82,133.18a1,1,0,0,1,1.26-.65,1,1,0,0,1,.69,1.23,1,1,0,0,1-1.28.72A1,1,0,0,1,154.82,133.18Z"/><path class="cls-329" d="M151.08,131.59a1,1,0,0,1,1.35-.48,1.06,1.06,0,0,1,.48,1.36,1,1,0,0,1-1.35.48A1,1,0,0,1,151.08,131.59Z"/><path class="cls-330" d="M147.61,129.47a1,1,0,0,1,1.39-.26,1,1,0,0,1,.31,1.38,1,1,0,0,1-1.43.32A1,1,0,0,1,147.61,129.47Z"/><path class="cls-331" d="M144.49,126.87a1,1,0,1,1,1.5,1.37,1,1,0,0,1-1.43.07A1,1,0,0,1,144.49,126.87Z"/><path class="cls-332" d="M141.78,123.84a1,1,0,0,1,1.4.16,1,1,0,0,1-.09,1.4,1,1,0,0,1-1.47-.1A1,1,0,0,1,141.78,123.84Z"/><path class="cls-333" d="M139.53,120.46a1,1,0,0,1,1.05,1.74,1,1,0,0,1-1.05-1.74Z"/><path class="cls-334" d="M137.81,116.78a1,1,0,0,1,.8,1.87,1,1,0,1,1-.8-1.87Z"/><path class="cls-335" d="M136.63,112.89a1,1,0,0,1,.51,2,1,1,0,0,1-.51-2Z"/><path class="cls-336" d="M136.06,108.87a1,1,0,0,1,.22,2,1,1,0,0,1-1.16-.9A1,1,0,0,1,136.06,108.87Z"/><path class="cls-337" d="M136.06,104.8a1,1,0,0,1,1,1.06,1.07,1.07,0,0,1-1.07,1,1,1,0,0,1-1-1.06A1,1,0,0,1,136.06,104.8Z"/><path class="cls-338" d="M136.63,100.78a1.07,1.07,0,0,1,.81,1.18,1,1,0,0,1-2-.36A1,1,0,0,1,136.63,100.78Z"/><path class="cls-339" d="M137.81,96.89a1,1,0,0,1,.62,1.29,1.07,1.07,0,0,1-1.29.63,1,1,0,0,1-.64-1.29A1,1,0,0,1,137.81,96.89Z"/><path class="cls-340" d="M139.53,93.21a1.08,1.08,0,0,1,.43,1.36,1,1,0,0,1-1.81-.93A1,1,0,0,1,139.53,93.21Z"/><path class="cls-341" d="M141.78,89.83a1,1,0,0,1,.22,1.41,1.08,1.08,0,0,1-1.42.23,1,1,0,0,1-.23-1.42A1,1,0,0,1,141.78,89.83Z"/><path class="cls-342" d="M144.49,86.8a1,1,0,0,1,0,1.42A1,1,0,1,1,143,86.81,1,1,0,0,1,144.49,86.8Z"/><path class="cls-343" d="M147.61,84.2a1,1,0,0,1-.19,1.42,1.07,1.07,0,0,1-1.43-.19,1,1,0,0,1,.19-1.42A1,1,0,0,1,147.61,84.2Z"/><path class="cls-344" d="M151.08,82.08a1.05,1.05,0,0,1-.4,1.37,1,1,0,0,1-1.37-.36,1,1,0,0,1,.37-1.42A1,1,0,0,1,151.08,82.08Z"/><path class="cls-345" d="M154.82,80.49a1,1,0,0,1-.59,1.3,1.07,1.07,0,0,1-1.32-.59,1,1,0,0,1,.59-1.31A1,1,0,0,1,154.82,80.49Z"/><path class="cls-346" d="M158.75,79.46a1.06,1.06,0,0,1-.78,1.2,1,1,0,0,1-1.2-.74,1,1,0,0,1,.76-1.25A1,1,0,0,1,158.75,79.46Z"/><path class="cls-347" d="M162.79,79a1,1,0,0,1-.94,1.06,1.07,1.07,0,0,1-1.09-.94,1,1,0,0,1,.94-1.09A1,1,0,0,1,162.79,79Z"/><path class="cls-348" d="M166.85,79.16a1.07,1.07,0,0,1-1.09.94,1,1,0,0,1,.15-2A1,1,0,0,1,166.85,79.16Z"/><path class="cls-349" d="M170.84,79.92a1,1,0,0,1-1.2.74,1.06,1.06,0,0,1-.78-1.2,1,1,0,0,1,1.22-.79A1,1,0,0,1,170.84,79.92Z"/><path class="cls-350" d="M174.7,81.2a1.07,1.07,0,0,1-1.32.59,1,1,0,0,1-.59-1.3,1,1,0,0,1,1.32-.6A1,1,0,0,1,174.7,81.2Z"/><path class="cls-351" d="M178.3,83.09a1,1,0,0,1-1.37.36,1.05,1.05,0,0,1-.4-1.37,1,1,0,0,1,1.4-.41A1,1,0,0,1,178.3,83.09Z"/><path class="cls-352" d="M181.62,85.43a1.07,1.07,0,0,1-1.43.19A1,1,0,0,1,180,84.2a1,1,0,0,1,1.43-.19A1,1,0,0,1,181.62,85.43Z"/><path class="cls-353" d="M184.53,88.27a1,1,0,0,1-1.42,0,1,1,0,0,1,0-1.42,1,1,0,0,1,1.46,0A1,1,0,0,1,184.53,88.27Z"/><path class="cls-354" d="M187,91.47a1.08,1.08,0,0,1-1.42-.23,1,1,0,0,1,.22-1.41,1,1,0,0,1,1.44.22A1,1,0,0,1,187,91.47Z"/><path class="cls-355" d="M189,95a1,1,0,0,1-1.34-.45,1.06,1.06,0,0,1,.42-1.36,1,1,0,0,1,1.39.43A1,1,0,0,1,189,95Z"/><path class="cls-356" d="M190.47,98.81a1.07,1.07,0,0,1-1.29-.63,1,1,0,0,1,.62-1.29,1,1,0,0,1,1.31.63A1,1,0,0,1,190.47,98.81Z"/><path class="cls-357" d="M191.33,102.78a1,1,0,0,1-1.15-.82,1.06,1.06,0,0,1,.8-1.18,1,1,0,0,1,1.2.82A1,1,0,0,1,191.33,102.78Z"/><path class="cls-358" d="M191.66,106.84a1.09,1.09,0,0,1-1.07-1,1,1,0,0,1,1-1.06,1,1,0,0,1,1.06,1A1,1,0,0,1,191.66,106.84Z"/></g></g><path class="cls-359" d="M163.81,73.09a33.74,33.74,0,1,0,33.74,33.74A33.74,33.74,0,0,0,163.81,73.09Zm0,65.3a31.56,31.56,0,1,1,31.55-31.56A31.56,31.56,0,0,1,163.81,138.39Z"/><g class="cls-360"><path class="cls-361" d="M190.27,67c14.46,7.53,23.37,19,19.89,25.73s-18,6-32.49-1.54-23.37-19-19.89-25.73S175.8,59.44,190.27,67Z"/></g><g class="cls-362"><path class="cls-363" d="M193.06,83.75a10.22,10.22,0,1,1-4.38-13.83A10.26,10.26,0,0,1,193.06,83.75Z"/></g><g class="cls-364"><path class="cls-365" d="M145.89,124.87c7.77,4.83,12,12.13,9.37,16.31s-11,3.65-18.77-1.17-12-12.13-9.38-16.31S138.11,120,145.89,124.87Z"/></g><path class="cls-366" d="M182.77,98.9a7.5,7.5,0,0,0-4.51-.66c-1.54.19-3,.63-4.55.89a10.07,10.07,0,0,1-2.45.16,6.74,6.74,0,0,1-4.64-2.58,3.44,3.44,0,0,0,.2-.78,3.38,3.38,0,0,0-2.91-3.77,3.33,3.33,0,0,0-3.69,3,3.39,3.39,0,0,0,.25,1.71,6.73,6.73,0,0,1-4.13,2,10,10,0,0,1-2.44-.15c-1.52-.26-3-.7-4.55-.89a7.53,7.53,0,0,0-4.52.66,5.5,5.5,0,0,0-2.4,6.38,8.75,8.75,0,0,0,2.37,3.32,27.28,27.28,0,0,1,2.88,2.91c.44.58.83,1.21.83,1.21a2.74,2.74,0,0,0-.81.33l1.54,5.43s9.1-.6,14.57-.42c5.46-.18,14.56.42,14.56.42l1.54-5.43-.54-.1a6,6,0,0,1,.57-.94,27.38,27.38,0,0,1,2.88-2.92,8.72,8.72,0,0,0,2.36-3.32A5.47,5.47,0,0,0,182.77,98.9Zm-6.09,2.69a1.93,1.93,0,0,1,.69.92,2,2,0,0,1-.32,1.75,5.85,5.85,0,0,1-1.31,1.27l-.27.21c-1.9-2.09-5.2-3.7-10.79-4.06l0-3a3,3,0,0,0,.41-.17,5.35,5.35,0,0,0,2.89,2.42,2,2,0,0,0,.35.09,5.18,5.18,0,0,0,1.18.7c1.9.79,4.07.23,6-.53l.21-.09A2.89,2.89,0,0,1,176.68,101.59ZM151.87,105a5.6,5.6,0,0,1-1.31-1.26,2.08,2.08,0,0,1-.32-1.75,2,2,0,0,1,.69-.93,3.06,3.06,0,0,1,1-.47l.21.09c1.91.76,4.08,1.31,6,.52a5.18,5.18,0,0,0,1.18-.7,3.58,3.58,0,0,0,.35-.09,5.55,5.55,0,0,0,2.5-1.83,3.49,3.49,0,0,0,.34.15v2.86c-5.28,0-8.51,1.51-10.46,3.54Zm-6.67.66a4,4,0,0,1,.33-4.41,4.32,4.32,0,0,1,2.11-1.11A8.06,8.06,0,0,1,149,100a4.39,4.39,0,0,0-.82,1.61,4,4,0,0,0-.06,2.06,4.74,4.74,0,0,0,1.72,2.29c.32.26.65.5,1,.74a9.06,9.06,0,0,0-.55,1,4,4,0,0,1-1.83,1.41.1.1,0,0,1-.05,0A10.51,10.51,0,0,1,145.2,105.68Zm37.21.5a10.2,10.2,0,0,1-3,3.22,4,4,0,0,1-2.55-2.11l-.18.1-.06-.11c.4-.27.78-.55,1.16-.86a4.65,4.65,0,0,0,1.71-2.3,3.9,3.9,0,0,0-.06-2.06,4.43,4.43,0,0,0-.82-1.6,7.08,7.08,0,0,1,1.37.2,4.42,4.42,0,0,1,2.12,1.1A4,4,0,0,1,182.41,106.18Z"/><path class="cls-367" d="M182.1,99.23a7.36,7.36,0,0,0-4.35-.62c-1.48.18-2.92.6-4.39.84a9.83,9.83,0,0,1-2.36.15,6.5,6.5,0,0,1-4.48-2.44,3,3,0,0,0,.19-.74,3.21,3.21,0,0,0-6.37-.76,3.39,3.39,0,0,0,.24,1.62,6.53,6.53,0,0,1-4,1.84,9.34,9.34,0,0,1-2.36-.14c-1.47-.25-2.91-.67-4.39-.84a7.32,7.32,0,0,0-4.36.63,5.14,5.14,0,0,0-2.32,6,8.26,8.26,0,0,0,2.29,3.14,25.88,25.88,0,0,1,2.78,2.76,6.16,6.16,0,0,1,1,1.83l-1,.17,1.49,4.58s8.77-.56,14.05-.39c5.27-.17,14,.39,14,.39l1.49-4.58-.79-.14a6.69,6.69,0,0,1,.82-1.39,25.88,25.88,0,0,1,2.78-2.76,8.28,8.28,0,0,0,2.28-3.14A5.16,5.16,0,0,0,182.1,99.23Zm-5.88,2.54a1.72,1.72,0,0,1,.36,2.53,5.33,5.33,0,0,1-1.26,1.2l-.26.2c-1.84-2-5-3.49-10.41-3.83l0-2.83a2.83,2.83,0,0,0,.4-.17,5.18,5.18,0,0,0,2.78,2.3c.11,0,.23,0,.34.08a5.14,5.14,0,0,0,1.14.66c1.83.75,3.92.22,5.77-.5l.2-.08A2.71,2.71,0,0,1,176.22,101.77ZM152.29,105a5.75,5.75,0,0,1-1.26-1.2,1.71,1.71,0,0,1,.36-2.53,2.73,2.73,0,0,1,1-.45l.2.08c1.85.72,3.94,1.25,5.77.5a5.14,5.14,0,0,0,1.14-.66c.11,0,.23,0,.34-.08A5.46,5.46,0,0,0,162.21,99a3.27,3.27,0,0,0,.33.14v2.71c-5.1,0-8.22,1.42-10.1,3.34Zm-6.43.62a3.69,3.69,0,0,1,.31-4.17,4.21,4.21,0,0,1,2-1,6.66,6.66,0,0,1,1.33-.19,4,4,0,0,0-.79,1.52,3.76,3.76,0,0,0-.06,1.94,4.51,4.51,0,0,0,1.66,2.18c.31.24.63.47,1,.69a9.06,9.06,0,0,0-.54,1,3.82,3.82,0,0,1-1.76,1.33l-.05,0A10.18,10.18,0,0,1,145.86,105.65Zm35.89.47a9.83,9.83,0,0,1-2.91,3,10.91,10.91,0,0,1-2.64-1.9.37.37,0,0,0,0-.11c.38-.26.75-.52,1.11-.81a4.45,4.45,0,0,0,1.66-2.18,3.66,3.66,0,0,0-.06-1.94,4.09,4.09,0,0,0-.79-1.52,6.57,6.57,0,0,1,1.32.19,4.27,4.27,0,0,1,2.05,1A3.7,3.7,0,0,1,181.75,106.12Z"/></g><path class="cls-368" d="M218.27,112.62a10.63,10.63,0,0,0,1.13-.65,11,11,0,0,0,1.13-.88c.24-.22.46-.47.68-.71s.19-.19.27-.29a9.86,9.86,0,0,0,.77-1l0-.06a16.64,16.64,0,0,0,2.39-7,3.28,3.28,0,0,0-1.2-3.3c-.72-.44-5.49-.48-9.66-.45a14.14,14.14,0,0,0,2.84-1.72,10.74,10.74,0,0,0,1.85-1.84s0,0,0,0a9.8,9.8,0,0,0,.78-1.16,7.16,7.16,0,0,0,.43-.88c.06-.12.12-.24.17-.36a10.48,10.48,0,0,0,.42-1.23s0,0,0,0a12.26,12.26,0,0,0,.28-1.34h0a17.83,17.83,0,0,0-.17-6,3.32,3.32,0,0,0-2.16-2.78c-.82-.19-5.38,1.24-9.34,2.56.18-.16.36-.32.53-.49a14.06,14.06,0,0,0,1.32-1.57,11.48,11.48,0,0,0,1.52-2.77h0a11.05,11.05,0,0,0,.39-1.36c.07-.32.1-.65.14-1,0-.13,0-.26,0-.38a11.29,11.29,0,0,0,0-1.3v-.06a16.49,16.49,0,0,0-2.18-7.06,3.28,3.28,0,0,0-2.91-2c-.84.07-4.73,2.84-8.08,5.31a12.84,12.84,0,0,0,1.71-5.63,9.72,9.72,0,0,0-.05-1.43c0-.32-.11-.64-.17-1,0-.13,0-.26-.07-.39a10.34,10.34,0,0,0-.39-1.23.64.64,0,0,0,0-.07,11.41,11.41,0,0,0-.55-1.24h0a18.14,18.14,0,0,0-3.7-4.79,3.29,3.29,0,0,0-3.38-1c-.78.32-3.62,4.16-6,7.55a14.16,14.16,0,0,0,.29-3.31,11.44,11.44,0,0,0-.4-2.58,8.94,8.94,0,0,0-.49-1.34c-.13-.3-.3-.58-.46-.87l-.18-.34c-.23-.37-.49-.72-.75-1.06l0,0c-.29-.35-.59-.69-.91-1h0a17.83,17.83,0,0,0-5-3.41,3.32,3.32,0,0,0-3.52.11c-.64.56-2.15,5.08-3.41,9.06a12.72,12.72,0,0,0-1.93-5.56,9,9,0,0,0-.88-1.13,9.22,9.22,0,0,0-.71-.69c-.1-.08-.18-.18-.28-.27a10.12,10.12,0,0,0-1-.77l0,0c-.38-.25-.78-.48-1.18-.69h0a17.84,17.84,0,0,0-5.81-1.7A3.31,3.31,0,0,0,157,47.12c-.44.73-.48,5.5-.45,9.67a16,16,0,0,0-1-1.78A11.77,11.77,0,0,0,153,52.1l0,0a9.32,9.32,0,0,0-1.15-.78c-.29-.17-.6-.3-.9-.44l-.34-.17a11.24,11.24,0,0,0-1.24-.41l-.05,0a16.6,16.6,0,0,0-7.39-.11,3.3,3.3,0,0,0-2.77,2.16c-.2.82,1.24,5.38,2.56,9.33a12.84,12.84,0,0,0-4.83-3.37,11.73,11.73,0,0,0-1.37-.39c-.33-.07-.66-.1-1-.14l-.39-.05a11.28,11.28,0,0,0-1.3,0h-.06a16.66,16.66,0,0,0-7.06,2.17,3.33,3.33,0,0,0-2,2.92c.07.84,2.84,4.73,5.32,8.08-.33-.18-.66-.35-1-.51a13.77,13.77,0,0,0-1.75-.68,12.15,12.15,0,0,0-1.58-.39,11.22,11.22,0,0,0-1.3-.13,9.67,9.67,0,0,0-1.43,0,8,8,0,0,0-1,.17l-.38.07a11.12,11.12,0,0,0-1.24.39l0,0a16.56,16.56,0,0,0-6.05,4.25,3.31,3.31,0,0,0-1,3.38c.33.77,4.16,3.62,7.56,6a13.75,13.75,0,0,0-4.61-.16,11.23,11.23,0,0,0-1.28.28,9.66,9.66,0,0,0-1.34.48c-.31.14-.59.31-.88.47l-.34.18a11.35,11.35,0,0,0-1.06.76l0,0a16.73,16.73,0,0,0-4.44,5.91A3.32,3.32,0,0,0,106,95c.55.63,5.08,2.15,9,3.41a12.72,12.72,0,0,0-5.56,1.93,9.76,9.76,0,0,0-1.13.88c-.24.22-.46.47-.69.71-.08.1-.18.18-.26.28a9.63,9.63,0,0,0-.77,1l0,0a10.62,10.62,0,0,0-.68,1.18h0a18,18,0,0,0-1.7,5.81,3.32,3.32,0,0,0,1.2,3.31c.72.43,5.5.48,9.67.45-.22.1-.45.19-.66.3a14.11,14.11,0,0,0-2.65,1.81,11.78,11.78,0,0,0-1.3,1.34l-.09.1a9.07,9.07,0,0,0-.8,1.18c-.16.29-.29.58-.43.88,0,.12-.12.24-.17.36a10.48,10.48,0,0,0-.42,1.23.14.14,0,0,1,0,.06,11.79,11.79,0,0,0-.28,1.34h0a17.77,17.77,0,0,0,.17,6,3.33,3.33,0,0,0,2.16,2.78c.83.19,5.38-1.24,9.34-2.56a12.73,12.73,0,0,0-3.37,4.83v0a10.91,10.91,0,0,0-.39,1.35c-.07.33-.1.66-.14,1,0,.13,0,.25,0,.38a11.26,11.26,0,0,0,0,1.3v.05a16.59,16.59,0,0,0,2.18,7.06,3.31,3.31,0,0,0,2.91,2c.84-.07,4.73-2.85,8.09-5.32a12.76,12.76,0,0,0-1.72,5.63,9.67,9.67,0,0,0,.05,1.43c0,.33.11.66.17,1,0,.12,0,.25.07.38.11.42.24.83.39,1.24,0,0,0,0,0,.05.16.43.35.84.55,1.25h0a17.9,17.9,0,0,0,3.69,4.79,3.31,3.31,0,0,0,3.35,1v51.81l11.84-7.69h0l16.21-10.53,28,18.22V153.92l.19.09a8.92,8.92,0,0,0,1.38.39,8.42,8.42,0,0,0,1,.14l.37.05a9.4,9.4,0,0,0,1.3,0h.06a16.68,16.68,0,0,0,7.06-2.18,3.29,3.29,0,0,0,2-2.91c-.07-.84-2.84-4.73-5.32-8.09.21.12.42.24.64.35a14.3,14.3,0,0,0,2.42.95,11.2,11.2,0,0,0,2.58.41h0a8.36,8.36,0,0,0,1.42,0c.33,0,.65-.1,1-.16.13,0,.26,0,.39-.08a10.3,10.3,0,0,0,1.23-.38l.07,0a16.77,16.77,0,0,0,6-4.25,3.32,3.32,0,0,0,1-3.38c-.33-.78-4.16-3.62-7.55-6a15,15,0,0,0,2,.27,11.81,11.81,0,0,0,3.88-.38,9.83,9.83,0,0,0,1.35-.49c.3-.14.58-.3.87-.46l.34-.19a11.25,11.25,0,0,0,1.06-.75l.05,0a12.38,12.38,0,0,0,1-.91h0a17.7,17.7,0,0,0,3.42-5,3.31,3.31,0,0,0-.12-3.51c-.55-.64-5.08-2.16-9-3.42a13.67,13.67,0,0,0,3.23-.75A10.6,10.6,0,0,0,218.27,112.62Z"/></g></g></g></svg>