<svg xmlns="http://www.w3.org/2000/svg" xmlns:xlink="http://www.w3.org/1999/xlink" viewBox="0 0 301.54 359.26"><defs><style>.cls-1{fill:none;}.cls-2{clip-path:url(#clip-path);}.cls-3{clip-path:url(#clip-path-2);}.cls-4{fill:#009e92;}.cls-5{clip-path:url(#clip-path-3);}.cls-6,.cls-7{fill:#fff;}.cls-7{font-size:38.62px;font-family:Poppins-Bold, Poppins;font-weight:700;}</style><clipPath id="clip-path"><rect class="cls-1" width="301.54" height="359.26"/></clipPath><clipPath id="clip-path-2"><path class="cls-1" d="M29.07,0H272.48a29.05,29.05,0,0,1,29.06,29.07V329.63a29.05,29.05,0,0,1-29.06,29.06H29.07A29.05,29.05,0,0,1,0,329.63V29.07A29.05,29.05,0,0,1,29.07,0Z"/></clipPath><clipPath id="clip-path-3"><rect class="cls-1" x="73.02" y="129.46" width="155.9" height="179.68"/></clipPath></defs><g id="Layer_2" data-name="Layer 2"><g id="Layer_1-2" data-name="Layer 1"><g class="cls-2"><g class="cls-3"><rect class="cls-4" width="301.54" height="359.26"/></g></g><g class="cls-5"><path class="cls-6" d="M169.86,146.73l-9,75.72a17,17,0,0,0-3-.2,19.44,19.44,0,0,0-6.09,1.18C143.2,226.55,137.56,234.71,139,242c1.09,5.57,6.16,9.32,12.61,9.32h.4a19.56,19.56,0,0,0,6.11-1.18c6.95-2.52,12.19-8.44,13-14.8l7.07-59.81,36.23,19.27-5.74,48.59a16.33,16.33,0,0,0-2.88-.18,19.42,19.42,0,0,0-6.09,1.17c-8.63,3.12-14.26,11.28-12.83,18.6,1.09,5.57,6.16,9.32,12.61,9.32H200a19,19,0,0,0,6.1-1.18c6.94-2.51,12.15-8.4,12.95-14.7l9.46-79.89-58.6-29.81"/><path class="cls-6" d="M118.76,208.34a46.48,46.48,0,0,0-4.07-2.85c-.68-.43-1.37-.84-2-1.21s-1.5-.82-2.17-1.15c-.83-.42-1.65-.82-2.45-1.2-1.7-.82-3.3-1.59-4.69-2.43a11.85,11.85,0,0,1-4-3.57c-.23-.37-.72-1.38-1.11-2.19l-.65-1.31A24.19,24.19,0,0,0,95,188a7,7,0,0,0-8.12-2.35,7.11,7.11,0,0,0-.94.42,8.7,8.7,0,0,0-4.21,9.22L98,267a20.8,20.8,0,0,0-5,1.26,25.43,25.43,0,0,0-7.08,4.18C76.48,280.2,73,292.84,78,301.25a14.37,14.37,0,0,0,12.74,7,19.84,19.84,0,0,0,7.14-1.38,25.68,25.68,0,0,0,7.1-4.18c7.58-6.25,11.5-15.92,9.73-24.11l-14.38-63.25c.76.28,1.5.53,2.23.79s1.54.52,2.21.77l1.78.69c.68.29,1.2.52,1.66.75a33,33,0,0,1,3.16,1.7,22.25,22.25,0,0,1,9.31,10.2c1.94,4.32,2.42,9.91,1.35,15.78a4.44,4.44,0,0,0,3,5.07,4.22,4.22,0,0,0,2.78-.1,4.54,4.54,0,0,0,2.73-3c2.33-7.75,2.48-15.68.42-22.31a35.59,35.59,0,0,0-12.17-17.34"/><path class="cls-6" d="M148.59,146.08a25,25,0,0,0-1.51-2.06c-.26-.32-.53-.64-.8-.93s-.59-.65-.86-.92l-1-1c-.69-.69-1.35-1.33-1.88-2a6.14,6.14,0,0,1-1.35-2.4c0-.21-.12-.79-.18-1.25l-.09-.75a12.94,12.94,0,0,0-.55-2.58,3.56,3.56,0,0,0-2.25-2.3,3.69,3.69,0,0,0-1.31-.19,3.17,3.17,0,0,0-.53,0,4.45,4.45,0,0,0-3.58,3.79l-4,37.64a10.63,10.63,0,0,0-2.67-.22,13.07,13.07,0,0,0-4.14.85c-5.87,2.2-9.66,7.78-8.64,12.7a7.4,7.4,0,0,0,5,5.53,10.43,10.43,0,0,0,3.7.51,13.21,13.21,0,0,0,4.16-.86c4.73-1.78,8.25-5.83,8.75-10.12l3.51-33.19,1,.75.95.74.75.64c.28.25.5.45.68.63a16.11,16.11,0,0,1,1.26,1.36,11.47,11.47,0,0,1,2.84,6.52,14.12,14.12,0,0,1-2,7.91,2.27,2.27,0,0,0,.61,3,2.2,2.2,0,0,0,1.37.42,2.34,2.34,0,0,0,1.82-1,19.93,19.93,0,0,0,3.92-10.8,18.41,18.41,0,0,0-3-10.47"/></g><text class="cls-7" transform="translate(70.72 55.79)">M</text><text class="cls-7" transform="translate(112.31 55.79)">U</text><text class="cls-7" transform="translate(145.68 55.79)">S</text><text class="cls-7" transform="translate(175.56 55.79)">I</text><text class="cls-7" transform="translate(193.1 55.79)">C</text></g></g></svg>