<svg xmlns="http://www.w3.org/2000/svg" viewBox="0 0 1460.17 139.3"><defs><style>.cls-1{fill:#009e92;}</style></defs><g id="Layer_2" data-name="Layer 2"><g id="Layer_1-2" data-name="Layer 1"><path class="cls-1" d="M1453.17,139.3H13.17V76.71a83.78,83.78,0,0,1-.86-18.66c.2-3.1.55-6.17.72-9.25C14.17,34.24-1.83,23.24.17,10.24s21-9,32-6c72,23,144,1,215,4,45,2,91,4,136.79,3.58,4.19.23,8.17.39,12.26.59,54.7.52,108.7,2.58,164.95,10.83,22,4,43-2,64-5,47-6,90-6,137-15,18-3.75,34.32.94,51.05,6,5.58,1.7,11.2,3.45,16.95,5,3,2,7,1,11,1,9,1,18-6,26-3,49,14,96-2,143-2,31,0,62,5,95-3,27-6,54,8,81,8,44,0,88-4,132-2.33,4.3-.07,8.37-.29,12.45-.52q5.77-.54,11.53-1.15c22-2,42-13,64-11,19,2,34,17,54,14-4,6-7,12-7,19.44V139.3Z"/></g></g></svg>