<svg xmlns="http://www.w3.org/2000/svg" xmlns:xlink="http://www.w3.org/1999/xlink" viewBox="0 0 3105.3 3144.52"><defs><style>.cls-1{fill:none;}.cls-2{clip-path:url(#clip-path);}.cls-3{fill:#009e92;}.cls-4{clip-path:url(#clip-path-2);}.cls-5{opacity:0.3;}.cls-6{fill:#7ee7ed;}.cls-6,.cls-7{fill-rule:evenodd;}.cls-7{fill:#0fdbc7;}</style><clipPath id="clip-path" transform="translate(984.95 1907.91)"><rect class="cls-1" width="1476.77" height="305.07"/></clipPath><clipPath id="clip-path-2" transform="translate(984.95 1907.91)"><path class="cls-1" d="M1459.77,272.08c-10.63,0-36.32-1.83-16.12,0-20.54-1.83,1.35,0,12.9,0-11.56,0-36.08-2.51-15,0-21.79-2.51-14-.91,5.63,0-19.59-.91-30.51-3.78-9.22,0-22-3.78-24.67-6-6,0-18.65-6-18.2-5.59,1.18,0-19.88-5.59-21.44-10.58-21.9,0,.42-10.58.46-11.44,5.34-1.35-5-10.1-5.09-9.49-16.39-1.36,11-8.13,7.16-1.12-14.77,2.71,21.11-4,1.62-3.29-13.95-3.89,3.64.46.63.9-3.87,1.49-4.86.6-21.32,1.64-12.75,2.4-13.15-1.52-30.11-1.41-16.07-3.56-17.31,2.09-27.53-2.64-18.89,3.56-9.2-6.15-13.74-12.5-10.76-2.64-3.49-9.88-5.64-11-14.37.84,3.71-5.85,3.78-7.41,1.31-6.4a59.39,59.39,0,0,0-15.17,8.2c5-4.79,5.78-6.58,5.06-5.54A11.45,11.45,0,0,0,1280,266c-2.27.42-6.35,2.16-6.15,4.32,1-5.35,2-6,2.9-2.24-3.73-2.63-17.69,2.62-8.65,4-9.41.23-10.14-3-2.49-7.14-10.31,3-20.27,8.65-4.12,4.66-16.89,4-19.42,1.09-4-5.51-16.49,7-22,13.28-2.43,8-20,5.29-20.63-2-5-8.65-16.37,6.32-18.88,11.93-2.47,6.89-16.63,5.06-17-3.25-6.86-7-10.54,3.89-11.55,11.06-2.68,8.79-8.9,2.27-8.67-4.62-5.27-7.12-3.63,2.52-4,8.15-5.56,6.69,1.46,1.34,1.45,1.6.68.43.72,1.28.53-.93-8.08-4.65,3.69,1.91,6.23,3.78,5.82,4.83s-4.8,1.23-9-.18c4.12,1.35,7.72,2.53,6.08,2.75s-13.09-.81-16.41-2.75c3,1.94,10.63,3.12,10.34,3.11-2.83-.19-16.26-1.71-17.08-3.11.87,1.41,8,1.88,10,1.71-5.33-.54-17.19-1.52-16-2-1.64.46,1.24.07,5.81-.37-7.91-.14-14.89-.09-12.45.65-3.25-.79-3.22-1.54,1.11-2.88-6.78,1-9.64,1.53-8.78,2.63-1.8-1.08-2.37-1.79-1.84-3.75a30.69,30.69,0,0,1-7.27,4c3.8-2.94,4.35-2.71,4.15,0-.45-1.33-1.16-2.12-3.82-4.14,1,2-.13,2.59-5.35,4.18,3.86-3.17,2-3.31-5.35,0,5-3.31,1.22-3.17-7.37,0,2.9-1.59,3-2.49,1.5-2.55a18.25,18.25,0,0,0-8.21,2.55c4-3.72-3.35-6.06-6.09,0,3.56-6.06,5.26-5.29,1.5,0,2.36-3-6.26-8.54-4.83-4.76-4.22-4.18-6.57-3-4.31,4.76-4.2-7.13-12.26-15.9-4.21-6.34-9.44-10.57-9.14-8.82-2.5,3.67-7.83-12.54-11.87-18.12-3.6-4.35-9.23-13.18-7.39-7.43-2.9,6.82-5.9-15.48-8.95-22.59-5.47-4.87-4.75-17.62-5.2-11.9-5.2,5.07.12-18.59-.77-18.66-3.08-.24.4-16.9-.13-20.66-3.64-3.71,2-16.76-.69-10.27-6.14,3.95,3.7-14.55,2.16-14.67-6.06-2.52,5.82-12.17.79-6-5.37,2.52,2.32-9.87-4.43-6.39-8.11,0,1.84-4.81-2.31-5.74-5.17-2.54-2.19-3.14-7.56-1.84-9.75,2.54-1.92-2.19-3.85-4-5.67-4.63s-3.52-.25-5,1.94c-3-4.52-5.87-2.35-7.61,2.69-.25-6.82-2.41-6.87-5.23,0-.33-4.78-1.65-6.45-4.81-3.6,0-3-2.84,0-5.14,3.6-.74-3.64-3.59-4.77-6.78-3.87-1.94-.94-5.69.87-7.12,3.87-4.16-5.6-7.72-6.25-4.83,0-2.58-3.64-6.85-7.78-7.54-4.55-4.17-3.54-6.24-1.62-6.73,4.55-4.15-9.26-6.22-9.75-2.47,0-3.36-6.52-6.28-11.38-8.71-6.21-1.73-5.65-3.91-1.37-5.1,6.21-.6-7.58-1.27-12.49-3.11-7.28.73-5.32-.1-.18-.89,7.28.65-7.46.43-12.82-1.21-7.58.77-5.3-.39.22-1.9,7.58,0-7.36-2.56-12.74-4.73-7.6-1.35-5.1-5.39.57-7.42,7.6,1.1-7,1.22-12.45,1.25-7.36-1.19-5-3.35.39-4.7,7.36a19.93,19.93,0,0,0-5.29-8.91c-2.3-2-3.49-1.69-1.66,2.88-4.09-4.29-13.48-11-8.27-4.47-7.74-4.85-3.05,3.54-1.16,10.5-1.26-8.11-8.53-18-1-10.72-7.94-7.35-1.61,2.2.14,10.72-3.43-7.43-16.5-24.69-6.5-13-11.49-13.31-6.45-5.29.46,8.76-7.85-14-16.37-26.64-6.79-10.33-10.29-15.62-4.26-.1-.74,14.55-4.34-14.65-11-31.86-3.74-14.66-7.76-17.74-5.16-7.49-2.34,11.49-3.4-18.93-6.22-29.71-2.23-11-4.51-18.2-3.51-2.64-4.39,14.13-.12-17.13-.91-29.69-1.74-10.76,0-9.32-.66-10.38-1.8-7.24a115.47,115.47,0,0,0-4.9,18c1.07-7.23,3.3-13.92,3.85-16.43s.23-1-1.34,7.9c1.33-8.89,1.21-10.54,0-8.21s-6.71,9.22-6.2,15.62c-1.14-6.34,3-11.19,3-12.17-.52-.83-7,2.95-5.22,8.42-3-4.84-3.89-4.93-.88-4.17-3.24,1.44-10.59,2-10.63,5-4.75.17-2.82,3.22,3.07,4.08-6.55-1-22.26-10.63-13.13-1.89-11.05-9.22-1.48-2.44,8.78-1-11.34-1.22-30.3-16.15-18.34.91-13.49-17-5.3-7.23,10.45.9-16.18-8.15-27.85-23.2-19.16-2-9.37-21.29-5.63-13.68,9.72,3.08-15.36-16.76-19.86-26.54-13.51-4.82-6.41-21.81-3.26-14.86,12.32,3.12-14.07-17.52-18-24.5-10.18-3.29-8.49-21.43-8.93-23-4.86-1.5-4.26-21.52-3.29-16.18,5.28,6.49-8-22-9.34-27.74-6-6.18-3.56-21.83-3.69-23.3-3.57-2.68-.26-20.67-.62-15.93-3.5,8.08,2.86-24,3.21-28.77-.4-8.34,3.48-20.39,3.06-18.66-4.56,2.49,7.36-20.93,5.47-17.33-7.41,2.35,11.89-19.24,9.38-15.32.2,4.28,9.5-20,13.42-26.27,2.85-6.28,11.38-20.31,12.23-22.29,6.77-1.43,5.43-20.86,4.8-19.4-4.17,1.62,8.66-20.8,5.3-16-9.58,1.73,13.33-17.22,11-14.14,2,4.36,9.26-18.88,13-23.62-.59-5.62,14.82-18.34,16.83-21,7.67,0,9-20.88,5-16.71-12.38-1.43,15.13-15.52,15.47-16.09,2.58,1.42,12.38-17.46-13.54-4.35-19.45-1.72,1.9-1.36,12.63-4.25,11.2,7.38,1.37-11.91-15.09-7.71-15.26-7.81.95-.6,23.26-8.32,17.33,5.6,5.83-13.69-16.62-9-19.15-11.09-1.06-2.53,5.79-3.39,6.16,5.39-.44-8.79-9.26-8.87-10-6.83s1.47,7.64,7.32,14.58c-11.72-13.87-7.73-26.43-7.1-10.51-.66-15.93-4.77-3.94-2.65,10.67-2.13-14.62,1.58-25.91-2.22-11.41,3.79-14.5-.16-2.54-3.52,11.41,3.35-13.95,6-22.33-1.7-10.34,7.63-12,4.08-.95-8.73,10.34,12.77-11.29,14.52-17,1.87-8.3,12.62-8.69,9.6-.76-9.41,7.37,18.9-8.15,19.76-10.67.88-5.71,18.71-4.93,13.82.17-9.35,4.16,22.74-4.55,16.18-2.5-4.38,2.48,20.85-4.46,3.15-4.57-9.45-6.8,7.86-1.13-6-3.81-8.52-2.81-1.61-2.42-3.23-2.5-3.33-.58-.22,1.71,1,5.44,4.29,10.19-2.66-3.17-4.69-7-6.54-9.85-1.93-3-4.17-6-5.39-3.6-1.72-7.67-4.5-8-5.64-.77-.72-3-.8-.22-.93,3.77-.72,1.42-.91,6.7-1.1,10.45.11-3.75,0-8.72.19-10.05-.3-3.8-.84-6.76-.91-3.94-.84-6.62-2.83-5.09-5.24,1-1.41-2-3,1.28-5.1,4.61-1.95,1.31-4.5,5.38-7.31,8.38,3.3-4.5,4.32-7.71,3.64-7.94-.45-1.81-2.55-1.17-5.34.27-2.54.48-6,2.58-9,4.1s-6,2.89-7.45,3.57c.39-1.3-4.38-2.19-5.78-.93-5.66-.67-20.94-9.69-12.27.93-12-10.62-22.19-21.58-10.36-.07-13.56-21.53-14.14-21.69-.34.07-12.94-21.72-15.7-30-21.57-2.74,4.7-27.38,1.53-18.1,1.32,7,0-25.05,1-30-10.79-6.48,12.85-23.3,14.57-23.6,23.35,2.21-8-25.89-8.84-27.72-18.28-1.93,8.14-26,5-20.24-8.73.39,13.26-19.82,7.45-5.11,5.25,10.82.56-17.79,4.72-29.83-11.57-13.91,15.77-15.84,6.73.54,6.14,15.46,1.82-12.26,10.84-31.05-5.72-15.72,16.13-17.66,21-24.34,2.69-4.22,19.12-19.9,19.45-17.42,13.36,9.11,6.08-26.52,5.35-28.18-13.66-8.47,18-19.84,10-9.63-4.13,5.45,13.93-11.44,2.68,7.8,1.85,17,.74-9.16,12.92-30.34-2.86-19,15.24-15.59,20.22-22.13-1-7.51,21.19-14.42,10.11-1.8.43,12.59,9.58-17.14,19.45-26.42-.53-10.91,20-13.16,1.84,12.82.82,24.86,1.13-8.53,14-28.72-.91-19,14.59-14.37,18.9-20.17-1.66-7.36,20-12.54,3,2.09-3.5,12.46,6.51-10.37,23.44-24.93,3.42-12.46,20.51-12.74,15.47-6.44,1.16,7.35,14.39-8.85,1,10.84-.46,19.06,1.39-8.22,13.3-25.87,0-18.15,12.78-12.65,13.3-15.55-3.69-6.45,14.71-8.68-5.12,3.59-10.26,10.65,5.12-7.09,25.13-19.65,10.06-11.19,17.16-9.18,16.28-6.5,2.7,5.49,13.48-7.38-.21,9.7-2.5,17.59,3.05-11.4,15.62-25.63,2.78-16.37,12.18-9.27-2.49,5.23-7.12,15.88,4.49-10.72,17-23.26,5.55-15.94C618.6,260,604,272.3,597.3,281.92c6.52-9.66,16.6-18.21,8.26-13.81,6.58-4.31-6.24,4.39-15.69,11.82,9.07-7.56,14.82-11.95,10.77-11.38,1-1.48-8.28,1.88-19.15,5.7,10.22-4.45,16.61-7.5,15.69-7.71,1.19-.82-4.91,1.15-15.47,5.54,10.56-4.39,16.41-6.28,15.22-5.51.69.25-5.7,3.21-15.88,7.46,10.79-3.64,19.54-6.65,19-5.39,3.55-.37-1.92,3.63-11.31,10.77,9.89-7,23.45-15.93,16.91-11.53,8.92-4.62-.85,3.94-6.86,13.94,6.1-9.94,19.43-21.55,8.53-14.83,10.24-6.83-4.4,4.59-12.07,13.67,7.46-9.17,16.38-16.11,9-12.75,4.92-3.17-7.41,4-17.93,10.12,9.71-6.24,11.4-7.57,8.47-6.5s-10,4.36-17.9,7.4c12.42-6.46-2.71-6.6-8.51-7.79,4.59-2.14,22.22-4.77,7.94.94,14.39-5.66-8.71-3.33-11.25-1.73-.11,1.48,1.44,4.74,1.85,8.73.89-3.74,7.7-5.84,3.05-4.87,9.25-1.1,30.29-6.67,11.56,2,18.3-8.83-9.91-2.55-15.61-2.12-4.18.28-7,1.87-7.7,5.67-4.2-7.24-2.36-19.06,7.51-7.72-9.93-11.34-15.64,6.82-17.34,10.19.45-3.09,5.78-22.43,10.9-10.19-5.13-12.24-10.95,9.38-13.2,11.14.61-1.59,5.59-21.7,4.12-11.14,1.46-10.56-3.77,10.83-6.48,11.53,1-.67,3.88-17.22-3-11.53,6.85-5.69,3.79,11.29,1,11.5,1.63-.25,2.1-13.32-7.15-11.5,9.25-1.82,8.69,11.3,6.3,11.4,2.31-.1,2.67-13-6.7-11.4,9.36-1.56,8.86,10.81,5.25,10.88,1.65-.33-3.7-7.18-15.24-10.88,11.52,3.7,16.39,9.49,12.72,9.83,2.37-.53-6.13-4.31-18.46-9.17,12.13,4.88,16.29,6.56,10.7,6.51.25-1-11.63-3.24-22.17-5.41,10.85,2.32,12.6,2.45,9.6,2.08a144.32,144.32,0,0,0-16.15-2.23c9.07,1-3.79-.18-6.51-.21-3.37-.13-3.83-.2,4.41,0-8.63-.32-9.23-.5-6.47-.68,1.53-.09,9.58.1,6.1-.3,3.91.11,10.52,1.11,13.81,1.53s3.26.27-6.14-1.93c9.48,2.18,8.71,2.14,4.76,1.51s-11.09-1.84-14.33-2c-.84-.25-8.08-.73-11.2-1-10.17-.35-8.35-.7,4.48,1.27-9.07-1.31-46.95.07-18-2.24-29.7,2.26-29.88,2.31-.12.92-29.05,1.58,8.66,2,17.69,3.66-9.13-1.62-48.66-2.19-20-7.45-29.29,4.86-31.2,5.14-5-4.68-26.16,9.83-16,7.86,12.05,10-28-2.12-38.29-.13-12.19-9.77-26.16,9.64-24.58,9.46,4.61,5.34-28.67,4.5,10.19,6.47,19.47,8.58-9.3-2.11-48.24-4.11-19.75-9.47-29,4.94-30.78,5.07-5.61-6.39-25.14,11.46-19.87,10.41,10.13,10.95-30-.54-35.56.24-11.73-13.94-23.91,14.1-23.48,14.36,2,3-25.3,11.57-8.36,10.05,15.82,13.88-24.18-3.83-41.08-2.3-15.66-13.6-25.57,11.14-25.67,10.92-1.13-2.9-24.42,13.9-14.6,11.78,13.71,12.67-28.31-.89-37.11,1.33-10.43-9.54-26.7,10.88-21.35,9.75,7.78,5.56-18.11,3.49-6.6,4.75,5.64,5.29,6.12.27,13.56.36,15.29.45-1.74-.09-9.18-.18-15.32-.47-12.26-.57-23.82-1.91-5.72-5.62-29.12,4.45-34.46,5.64-8.13-6-26.33,11.61-19.44,9.78,9.74,9.91-29.18-.13-37,1.37-13.51-14.54-23.67,15.78-24,16-.24,1.71-23.68,14.41-17.34,13.92,12.47,16.49-29.81-2.57-36.16-2.18-12.82-17.43-23.46,15.07-23.69,14.66-1.54-2.69-22.08,17.46-20,18.11,9.18,16.27-29.2,1.84-31.34,1.35-8.93-15.17-22.46,16.44-22.09,17,2.27,4.21-24.24,12.93-14.36,12.39,14,16.65-28.33-4.26-38.22-3.74-14-16.82-24.3,12.91-24.82,12.32-2.67-4.4-22.1,16.78-20.52,17.57,7.87,15.41-28.39,2.16-29.9.9-8.68-18-21.32,18.68-21.92,18.78-.79,1.27-21.08,17.66-20,19.14,6.31,19.89-26.32-.75-27.42-2-6-18.71-21.41,16.58-20.56,16.88,2.09.46-22.53,16.58-18.39,16.65,11.73,17.53C441,271.2,437,271,459.43,253.64c-22.53,17.16-22.82,16.63-1.55-2.36-21.2,19.15-20.08,20.52,7.72,17.11-27.8,3.41-29,1.81-8.17-17.91-20.92,19.52-21.74,19.67-1,1.66-20.68,18.17-19.87,20,5.11,20.41-25-.45-25.88-1.9-4.78-18.34q-31.68,24.54,2.35,1.71c-22.59,15.33-19,15.69,10.94,18.39-29.9-2.7-33.41-3.09-10.82-18.88-22.67,15.63-22.84,15.1-1.36-2.9-21.42,18.11-20.16,19.33,7.55,17-27.71,2.37-29,.89-8-18.1-21.08,18.82-21.87,18.86-1.13,1.56-20.71,17.43-19.85,19.16,4.68,20.44-24.53-1.28-25.58-3.05-5-20.11-20.63,17-21.07,16.57-1-.55-20.06,17.21-19.54,19.24,2.22,19.8-21.76-.56-22.27-2.66-2.26-20.16-20,17.4-19.57,17.64.85-.1-20.39,17.86-19.5,19.83,4.66,19.81-24.16,0-24.91-2-4.5-20.29-20.44,18.17-20.1,18.07.36-1-20.4,19.22-19.64,21.24,5.62,19-25.26,2.28-26.21.19-5.94-18.89-20.34,18.92-21.88,18.26-2.63,1.27-19.26,17.08-19.55,19.2-1.65,20.84-17.9-1.64-17.66-3.78,1.57-20.72-19.22,16.86-18,17.46,2.1-1-20.07,18.53-19.26,20.73,4.48,19.35-23.74,1.38-24.52-.84-4.46-19.51-20.1,18.54-21.18,18-1.89.66-19.3,17.42-19.5,19.59-1,20.55-18.5-1-18.32-3.13,1-20.48-19.29,17.27-18.31,17.81,1.75-.48-20,18.41-19.27,20.63,4.05,19.69-23.32.94-24.17-1.25-4.13-19.31-20.07,18-21.46,17.2-2.47,1.16-19,16.1-19.45,18.16-3,20.77-16.44-2.61-16-4.64,3.07-20.76-19,16.06-17.43,16.91,2.85-1.2-20.23,18.23-19.24,20.32,5.16,19.13-24.4,1.19-25.23-.81-4.86-19.14-20.41,18.21-20.89,18.19-.68,1.15-20.2,17.15-19.52,19.16,2.8,20.67-22.32-1.51-23-3.53-2.86-20.54-20.19,16.92-20,16.86.22-.83-20.19,17.79-19.49,19.85,3.57,19.54-23.06.31-24.08-1.83-4.07-18.94-20,17-22.19,15.6-4,1.67-18.23,14-19.5,15.58-7.59,20.22-11.91-4.64-10.74-6.32,7.4-20-18.13,13.66-16.7,14.69,2.67-1.18-19.36,15.92-18.91,18.15.45,19.51-19.36-1.36-19.78-3.7-.48-20.21-19.31,16.45-20.66,15.28-2.51-.05-18.16,15.36-19.6,16.92-6.76,19.56-12.84-2.64-11.57-4.24,6.48-18.93q-27.06,22,.27,1c-18.19,14-18.94,16-5.83,20.1-13.11-4.12-12.78-5.86,4.94-16.09-17.72,10.23-19.78,8.78-4.8,3.79-15,5-17.14,4.31-17.48,13.72.34-9.41,2.47-8.67,17.28-13.17-14.81,4.5-13.3,5.53,3.72-3.11-17,8.64-18,9.83-8.15,15.43-9.87-5.6-8.63-7.12,8.88-18.86-17.51,11.73-18,11-.9-1.16-17.11,12.2-19.57,12.34-11.28,17-8.29-4.69-5.84-4.81,11.24-16.83-17.08,12-16.76,12.57.55,1.39-17.31,11.19-18.74,12.49-9.91,18.53-8.83-6-7.84-7.1,8.63-14.42-16.47,7.32-18.08,6.24-4.35,3.61-13.73,2.63-15.53,1.85-17.71,11.75,2.18-9.9,4-9.16,17.82-12-13.84,2.87-12,4.15,4.85-3.93-16.82,8.08-17.49,9.48-7.13,14.88-10.36-5.4-9.18-7,8.47-19.26-17.64,12.24-17.81,11.85-.31-1.27-17.51,13.13-19.42,14-9.15,17.86-10.27-3.86-8.37-4.73,9.14-17.82-17.5,13.08-17.39,13.42.19,1.32C431.93,268,430.67,269.51,440.7,275c-10-5.51-9.38-6.91,7.22-14.58-16.6,7.66-18.54,6.32-5.17,4.08-13.37,2.24-15,1.51-17.88,11.51,2.85-10,4.52-9.15,17.64-10.86-13.12,1.7-11.67,2.68,4.17-3.35-15.84,6-17.11,6.67-10.16,13.49-6.95-6.82-5.22-7.64,11.66-17.41-16.88,9.77-17.24,9.15-.58-1.42-16.66,10.58-19.45,10-13.07,15.64-6.38-5.62-3.65-5,12.92-15.16-16.57,10.12-16.63,10.36-.31,1.82-16.32,8.55-18.51,8.59-14,16.13-4.51-7.54-3.74-8.25,9.88-11.07-13.62,2.82-15.52,1.23-6.82,3.89-8.7-2.66-9-2.91-16.24,7.43,7.23-10.34,8.36-9.39,19.66-9.33-11.3-.06-13.2-1.84-13.48,6.25.28-8.09,1.34-7.27,11-5.81-9.64-1.46-10.16-2-19.24,8.22,9.08-10.25,9.58-9.68,19.13-8.11-9.55-1.57-10.61-2.44-11.07,5.7.46-8.14,2.87-6.16,15.89-8.71-13,2.55-13.32,2.55-1.49,2-11.83.58-13.44-.67-16.87,8.78,3.43-9.45,3.07-10.13,8-4.87-5-5.26-4.73-5.53-15.81,4.57,11.09-10.11,10.43-11.38-1.65-1.74,12.08-9.64,11.44-10.81-.57-1.48,12-9.33,12.72-8,.65,1.67,12.05-9.68,12-8.49-10.15-.19,22.18-8.3,22.6-9.13,6.73.46,15.87-9.6,14.09-11.53-6.41-3.45,20.49-8.08,22.63-5.51,4.11,4,18.47-9.43,18.13-8.18-4.48.48,22.27-8.68,9.49-6.39-9.42-1.44,20.61-4.55,31.6-7.52,9.09.85,22.31-8.52-.64-8.19-14.8-5.81,13.45-2.51,28.09-1.63,7.55,4.58,19.36-5.82-4.91-1.24-14.41-1,8.77-.28,13.66-3,5.88-.57,4.95-4.21-4.95-3.63-10.66-3.91,7.35,1.76,0,3.41-5.58,5.87,3.52-2.86,6.23-5.17,5.1-5,1-1-1.8.55-5,3,3.76-2,1-3.74-1.8-3.55-.35.75-4,2.48-6.93,5.52.08-3-1.68-4.47-4.06-4.52s-5.41,1.28-7.87,3.74c-2.1-4.49-8.41-3-10.92.78,4.3-3.76-1.55-4.08-6.68,0-2.55-4.08-8.73-5-9.19-.38-2.36-3.73-6.09-4.27-9.34-2.47-1-2.2-2.7-.33-2.2,2.85-4.25-3.36-8-5.29-9-4.1-.58-1.34,1.3.78,5.85,4.1-3.2-3.11-6.2-6.06-7.86-4.76-1.67-2-2.63.48-2.9,3.55-2.95-6.08-4.25-5.66-5.78.92-.09-3.64,0-8.23,1.7-5.13.91-2.92,3.84,1.9,7.85,5.42-4.06-6.35-6-8.43-7.66-2.55-1.19-6.64-2.83-6.77-6.42.11.05-4.88-1.28-13.78-1.87-6.23-1.62-8-3.56-1.16-6.13,4.69,3.09-8.46,1.65-11.66-4.09-3.26,3.15-6.42,4.68-6.84,5.06.08.52-4.93,0,3.34-1.4,7.16,1.76-3.34,2.38-10.9,1.83-6.65-.53-6.47-2.33-7.5-6-1.09,5-9.4,3.46-10.49-3.46-1.23,3.35-9.63,5.48-18.67,3.11-5.68,2.06-13-.71-3.33-4,6,5.53-10.23,5.39-18.17-2.83-7,7.57-11.56,5.6-4.89-1.29,4.93,7-8.83,7.42-7.54,1.19,1.09,4.26-5.69,5.09-3,4.4,2.85.88-2.9-1,3.86-3,6.73,2-2.87,3.78-9.8,2.75-6.88.63-6-.21-9.27-4.8-3.37,6.11-9.1,4.82-10.84-2.83-2,6.92-10.14,8.48-16.31-.14-5.3,8.6-10.56,6.41-1.65.64,7.74,5.3-9.39,5.36-17.23-4-8.34,7.63-9.79,1.67-3-4.45,4.36,4.87-6.16,2.15-2.73-1.86,2.28,2.08.43-2.2,7.52-3.6,11.53,1.35-4,4.89-10.85,2.75-11.64,3.28-4.82,4.61-7.59.39-2.36,4.61-6.49,8.24-10.73,2-3.61,6.89-5.45,3.52,3.15.64,9.31,2.37-6.06,2.26-12.32-3.85-8.89,3.22-5.09-2.9-.55-5.11,3.76,0-2.82-2.48-.65-4.08,2.3a46.68,46.68,0,0,0-4,11.13c.39-3.77.5-7.76.54-10.25s0-3.44.16-1.16c-.58-3-1.2-3.31-1.62-1.76a35.82,35.82,0,0,0-.43,9.2c-2.9-8-7.32-11.76-8.82-5.46-3.5-4.11-5.57,2.94-5.68,9.43-.61-6.49-1.34-11-2.28-6.47-.33-4.65-1.07-.4-1.31,5.89-1.37-6.17-3.8-9.52-6-5-1.07-4-2.83.51-2.81,5.6-1.74-5.09-5.22-8.34-6.5-4.32-1.79-3.69-2.95-.13-1.55,4.32-5.19-6.79-9.68-6.08-5.42,0-3.39-4.25-10.41-8.16-9.39-2.07-5.44-5.64-6.79-4.27-2,2.07-6.63-6.34-19.66-15.84-11.72-.66-10.57-15-11.7-15.07-1.38.66-12.2-15.77-18.58-21.52-11.79,0-7.55-21.52-10.24-22.89-11.18,0,.71-22.89-1.3-22-10.67,0,8.07-22.12,8-22.12,0,0,7.58-22,4.73-23.1-8.62-3.52,13.21-19.25,11.19-18.59-6.15-3.39,17.18-14.87,15.26-11.94,4,6.91,11.17-18.85,10.89-21.46-8.39-10.33,18.32-12.35,19.72-12.64,4.75,4.54,15-17.16,14.2-17-4-4.1,19.27-11.66,19.86-9.34,8.69,9.89,10.94-19.23,7.17-20.78-13-13.25,17.57-10.12,16.19-9.91,2.14,5.06,13.76-15.08,5.22-14.58-8.79-9.1,14.84-2.85,15.47,2.21,9,17.29,6.28-15.08,1-20.19-12-20.61,9.82-4.71,11.21-3.95,3.15,8.33,7.94-12.31-1-13.8-6.94-10.53,6.37,1.71,4.22,10.72,5.64,22.81-1.53-12.09-1.19-21.23-6.84-23.71,3.58-3.44,2.89-1.27,1.59,10.17,1.21-11.43-2.22-13.84-4.47-10.66.72,2.91-1.29,12.1-2.74,24.2,1.14-12.1,2.25-21.11,1.6-24,.68-3-.42-.13-1,11.36.57-11.47.67-14-.33-10.81S95.11,260.7,92,272.08c3-11.38,4.8-19.44,4.88-21.75s-1.52,1.14-5.19,12.77c6.66-23-1.62-5-12.21,9,8.9-13.95,13.36-22.15,1.63-5,10.88-16.87,2.25-4.94-5.35,5,9.15-11.95-2.71-2.26-8.14,0,.37-2.26-5-.09-6.22,0,1.18-.09.48,0-1.62,0h-40c23.72,0,23.71-.09,0-.87,23.71.45,23.48.18,0-2.57,23.48,2.06,22.49,1.46,0-4.24,22.49,4.59,19.72,3,0-5.86,19.72,7.06,13.66,2.75,0-7.42,13.66,6.94,4.12-2.42,0-9,4.12.87,0-6.72,0-10.44V-1522a26.16,26.16,0,0,0,8-1.37c23-16.47,50-19.9,73-1.37,2,1.37,6,1.37,9.3,2.38,3.15.22,6.38.27,9.68.27,3,0,6,0,9.07,0,18-1.24,27-12.22,39-20.45,4-2.75,9-2.75,14-1.38a41.89,41.89,0,0,1,14.23,6.74c2.06,1.42,4,2.93,6.05,4.42,11.86,12.6,27.79,19.94,45.06,21.81a72.81,72.81,0,0,0,17.57-.15c14.09-1.94,23.09-10.17,36.09-12.92,19-4.8,40,2.06,61.35,2h7.12c16.27-.5,32.87-2.48,49.53.84a77.57,77.57,0,0,1,10,2.68c22,2.06,30-16.47,45-24.7,8-4.8,16,.69,21,4.8,8,8.92,18,15.78,32.69,16.3,3.13.08,6.28.08,9.43.08,3,.28,5.76.37,8.6.49,18.28.29,31.28,9.21,45.28,16.75,7,3.44,15,6.87,22,2.75,12-6.86,20-21.27,39.45-20h34.6c19.95-1.27,26.95-15.68,40.95-23.91a16.48,16.48,0,0,1,14-.69c16,7.55,21,22.64,41.58,24.57,2.93,0,5.85,0,8.78,0,24.64,2.84,43.64-10.89,67.64-14.32,4,0,8-.68,11,.69,9,5.49,17,13,30.27,13.56,3,.07,6,.07,9,.07h47.72c3.16,0,6.3,0,9.46,0,6.59.81,12.59-.57,18.59-2.62,27-11.67,72-15.79,88.27,7.2a33.6,33.6,0,0,0,7.94,5.43c22,10.71,50-7.36,75.08-16.45l10.13-1.85c10.14-1.84,20.33-3.6,30.58-4.63,5,0,12-1.37,14,1.38,10,11.66,28,11.66,44.4,11.57h39.94c2.19.16,4.32.28,6.5.47,26.16,2.37,45.16,25,69.16,19.52,10.83-2.86,14.72-15.25,26.53-18.95a24.34,24.34,0,0,1,8.15-1c21.32,1.46,30.32-12.95,45.32-20.49a55.71,55.71,0,0,1,7-1.38c3,25.39,1,50.09,1,75.67v1649c0,4.92-.16,9.7,0,14.22a101,101,0,0,0,0,13.14,69.78,69.78,0,0,0,0,12c-.28,2.07-1.31,5.92-1.15,8.76-.92,2.82-.57,4.77,1.15,3.08-1.72,4.79-8.08,12.22-6.19,16.12-4.49,3.3-.72,4,6.19-5.71-4.68,7.14-20.43,15.39-10,16.05-13.21,4.05-16.5,5.93-1.09,3.69-13.58.94,4.88-4.58,11.13-10.81-6.25,6.39-28.34,13.2-12.57,13.37-18.1,2.51-19,3.31-.35,2.17-16.56.09,6.23-3.82,12.92-8.13-10,6.55-35,9.81-15.15,10.65-19.89-.23,4.82-1.06,15.15-4.82-10.33,3.79-35.43,4.91-15.43,6.21-20-.88,4.87-.29,15.43-2-10.56,1.71-35.51,1.3-15.52,2.88-20-1.32,4.9.11,15.52-.32-10.62.44-35.5-.89-15.53.76C1424.27,270.4,1449.14,272.08,1459.77,272.08Z"/></clipPath></defs><g id="Layer_2" data-name="Layer 2"><g id="Layer_1-2" data-name="Layer 1"><g class="cls-2"><path class="cls-3" d="M1459.77,272.08c-10.63,0-36.32-1.83-16.12,0-20.54-1.83,1.35,0,12.9,0-11.56,0-36.08-2.51-15,0-21.79-2.51-14-.91,5.63,0-19.59-.91-30.51-3.78-9.22,0-22-3.78-24.67-6-6,0-18.65-6-18.2-5.59,1.18,0-19.88-5.59-21.44-10.58-21.9,0,.42-10.58.46-11.44,5.34-1.35-5-10.1-5.09-9.49-16.39-1.36,11-8.13,7.16-1.12-14.77,2.71,21.11-4,1.62-3.29-13.95-3.89,3.64.46.63.9-3.87,1.49-4.86.6-21.32,1.64-12.75,2.4-13.15-1.52-30.11-1.41-16.07-3.56-17.31,2.09-27.53-2.64-18.89,3.56-9.2-6.15-13.74-12.5-10.76-2.64-3.49-9.88-5.64-11-14.37.84,3.71-5.85,3.78-7.41,1.31-6.4a59.39,59.39,0,0,0-15.17,8.2c5-4.79,5.78-6.58,5.06-5.54A11.45,11.45,0,0,0,1280,266c-2.27.42-6.35,2.16-6.15,4.32,1-5.35,2-6,2.9-2.24-3.73-2.63-17.69,2.62-8.65,4-9.41.23-10.14-3-2.49-7.14-10.31,3-20.27,8.65-4.12,4.66-16.89,4-19.42,1.09-4-5.51-16.49,7-22,13.28-2.43,8-20,5.29-20.63-2-5-8.65-16.37,6.32-18.88,11.93-2.47,6.89-16.63,5.06-17-3.25-6.86-7-10.54,3.89-11.55,11.06-2.68,8.79-8.9,2.27-8.67-4.62-5.27-7.12-3.63,2.52-4,8.15-5.56,6.69,1.46,1.34,1.45,1.6.68.43.72,1.28.53-.93-8.08-4.65,3.69,1.91,6.23,3.78,5.82,4.83s-4.8,1.23-9-.18c4.12,1.35,7.72,2.53,6.08,2.75s-13.09-.81-16.41-2.75c3,1.94,10.63,3.12,10.34,3.11-2.83-.19-16.26-1.71-17.08-3.11.87,1.41,8,1.88,10,1.71-5.33-.54-17.19-1.52-16-2-1.64.46,1.24.07,5.81-.37-7.91-.14-14.89-.09-12.45.65-3.25-.79-3.22-1.54,1.11-2.88-6.78,1-9.64,1.53-8.78,2.63-1.8-1.08-2.37-1.79-1.84-3.75a30.69,30.69,0,0,1-7.27,4c3.8-2.94,4.35-2.71,4.15,0-.45-1.33-1.16-2.12-3.82-4.14,1,2-.13,2.59-5.35,4.18,3.86-3.17,2-3.31-5.35,0,5-3.31,1.22-3.17-7.37,0,2.9-1.59,3-2.49,1.5-2.55a18.25,18.25,0,0,0-8.21,2.55c4-3.72-3.35-6.06-6.09,0,3.56-6.06,5.26-5.29,1.5,0,2.36-3-6.26-8.54-4.83-4.76-4.22-4.18-6.57-3-4.31,4.76-4.2-7.13-12.26-15.9-4.21-6.34-9.44-10.57-9.14-8.82-2.5,3.67-7.83-12.54-11.87-18.12-3.6-4.35-9.23-13.18-7.39-7.43-2.9,6.82-5.9-15.48-8.95-22.59-5.47-4.87-4.75-17.62-5.2-11.9-5.2,5.07.12-18.59-.77-18.66-3.08-.24.4-16.9-.13-20.66-3.64-3.71,2-16.76-.69-10.27-6.14,3.95,3.7-14.55,2.16-14.67-6.06-2.52,5.82-12.17.79-6-5.37,2.52,2.32-9.87-4.43-6.39-8.11,0,1.84-4.81-2.31-5.74-5.17-2.54-2.19-3.14-7.56-1.84-9.75,2.54-1.92-2.19-3.85-4-5.67-4.63s-3.52-.25-5,1.94c-3-4.52-5.87-2.35-7.61,2.69-.25-6.82-2.41-6.87-5.23,0-.33-4.78-1.65-6.45-4.81-3.6,0-3-2.84,0-5.14,3.6-.74-3.64-3.59-4.77-6.78-3.87-1.94-.94-5.69.87-7.12,3.87-4.16-5.6-7.72-6.25-4.83,0-2.58-3.64-6.85-7.78-7.54-4.55-4.17-3.54-6.24-1.62-6.73,4.55-4.15-9.26-6.22-9.75-2.47,0-3.36-6.52-6.28-11.38-8.71-6.21-1.73-5.65-3.91-1.37-5.1,6.21-.6-7.58-1.27-12.49-3.11-7.28.73-5.32-.1-.18-.89,7.28.65-7.46.43-12.82-1.21-7.58.77-5.3-.39.22-1.9,7.58,0-7.36-2.56-12.74-4.73-7.6-1.35-5.1-5.39.57-7.42,7.6,1.1-7,1.22-12.45,1.25-7.36-1.19-5-3.35.39-4.7,7.36a19.93,19.93,0,0,0-5.29-8.91c-2.3-2-3.49-1.69-1.66,2.88-4.09-4.29-13.48-11-8.27-4.47-7.74-4.85-3.05,3.54-1.16,10.5-1.26-8.11-8.53-18-1-10.72-7.94-7.35-1.61,2.2.14,10.72-3.43-7.43-16.5-24.69-6.5-13-11.49-13.31-6.45-5.29.46,8.76-7.85-14-16.37-26.64-6.79-10.33-10.29-15.62-4.26-.1-.74,14.55-4.34-14.65-11-31.86-3.74-14.66-7.76-17.74-5.16-7.49-2.34,11.49-3.4-18.93-6.22-29.71-2.23-11-4.51-18.2-3.51-2.64-4.39,14.13-.12-17.13-.91-29.69-1.74-10.76,0-9.32-.66-10.38-1.8-7.24a115.47,115.47,0,0,0-4.9,18c1.07-7.23,3.3-13.92,3.85-16.43s.23-1-1.34,7.9c1.33-8.89,1.21-10.54,0-8.21s-6.71,9.22-6.2,15.62c-1.14-6.34,3-11.19,3-12.17-.52-.83-7,2.95-5.22,8.42-3-4.84-3.89-4.93-.88-4.17-3.24,1.44-10.59,2-10.63,5-4.75.17-2.82,3.22,3.07,4.08-6.55-1-22.26-10.63-13.13-1.89-11.05-9.22-1.48-2.44,8.78-1-11.34-1.22-30.3-16.15-18.34.91-13.49-17-5.3-7.23,10.45.9-16.18-8.15-27.85-23.2-19.16-2-9.37-21.29-5.63-13.68,9.72,3.08-15.36-16.76-19.86-26.54-13.51-4.82-6.41-21.81-3.26-14.86,12.32,3.12-14.07-17.52-18-24.5-10.18-3.29-8.49-21.43-8.93-23-4.86-1.5-4.26-21.52-3.29-16.18,5.28,6.49-8-22-9.34-27.74-6-6.18-3.56-21.83-3.69-23.3-3.57-2.68-.26-20.67-.62-15.93-3.5,8.08,2.86-24,3.21-28.77-.4-8.34,3.48-20.39,3.06-18.66-4.56,2.49,7.36-20.93,5.47-17.33-7.41,2.35,11.89-19.24,9.38-15.32.2,4.28,9.5-20,13.42-26.27,2.85-6.28,11.38-20.31,12.23-22.29,6.77-1.43,5.43-20.86,4.8-19.4-4.17,1.62,8.66-20.8,5.3-16-9.58,1.73,13.33-17.22,11-14.14,2,4.36,9.26-18.88,13-23.62-.59-5.62,14.82-18.34,16.83-21,7.67,0,9-20.88,5-16.71-12.38-1.43,15.13-15.52,15.47-16.09,2.58,1.42,12.38-17.46-13.54-4.35-19.45-1.72,1.9-1.36,12.63-4.25,11.2,7.38,1.37-11.91-15.09-7.71-15.26-7.81.95-.6,23.26-8.32,17.33,5.6,5.83-13.69-16.62-9-19.15-11.09-1.06-2.53,5.79-3.39,6.16,5.39-.44-8.79-9.26-8.87-10-6.83s1.47,7.64,7.32,14.58c-11.72-13.87-7.73-26.43-7.1-10.51-.66-15.93-4.77-3.94-2.65,10.67-2.13-14.62,1.58-25.91-2.22-11.41,3.79-14.5-.16-2.54-3.52,11.41,3.35-13.95,6-22.33-1.7-10.34,7.63-12,4.08-.95-8.73,10.34,12.77-11.29,14.52-17,1.87-8.3,12.62-8.69,9.6-.76-9.41,7.37,18.9-8.15,19.76-10.67.88-5.71,18.71-4.93,13.82.17-9.35,4.16,22.74-4.55,16.18-2.5-4.38,2.48,20.85-4.46,3.15-4.57-9.45-6.8,7.86-1.13-6-3.81-8.52-2.81-1.61-2.42-3.23-2.5-3.33-.58-.22,1.71,1,5.44,4.29,10.19-2.66-3.17-4.69-7-6.54-9.85-1.93-3-4.17-6-5.39-3.6-1.72-7.67-4.5-8-5.64-.77-.72-3-.8-.22-.93,3.77-.72,1.42-.91,6.7-1.1,10.45.11-3.75,0-8.72.19-10.05-.3-3.8-.84-6.76-.91-3.94-.84-6.62-2.83-5.09-5.24,1-1.41-2-3,1.28-5.1,4.61-1.95,1.31-4.5,5.38-7.31,8.38,3.3-4.5,4.32-7.71,3.64-7.94-.45-1.81-2.55-1.17-5.34.27-2.54.48-6,2.58-9,4.1s-6,2.89-7.45,3.57c.39-1.3-4.38-2.19-5.78-.93-5.66-.67-20.94-9.69-12.27.93-12-10.62-22.19-21.58-10.36-.07-13.56-21.53-14.14-21.69-.34.07-12.94-21.72-15.7-30-21.57-2.74,4.7-27.38,1.53-18.1,1.32,7,0-25.05,1-30-10.79-6.48,12.85-23.3,14.57-23.6,23.35,2.21-8-25.89-8.84-27.72-18.28-1.93,8.14-26,5-20.24-8.73.39,13.26-19.82,7.45-5.11,5.25,10.82.56-17.79,4.72-29.83-11.57-13.91,15.77-15.84,6.73.54,6.14,15.46,1.82-12.26,10.84-31.05-5.72-15.72,16.13-17.66,21-24.34,2.69-4.22,19.12-19.9,19.45-17.42,13.36,9.11,6.08-26.52,5.35-28.18-13.66-8.47,18-19.84,10-9.63-4.13,5.45,13.93-11.44,2.68,7.8,1.85,17,.74-9.16,12.92-30.34-2.86-19,15.24-15.59,20.22-22.13-1-7.51,21.19-14.42,10.11-1.8.43,12.59,9.58-17.14,19.45-26.42-.53-10.91,20-13.16,1.84,12.82.82,24.86,1.13-8.53,14-28.72-.91-19,14.59-14.37,18.9-20.17-1.66-7.36,20-12.54,3,2.09-3.5,12.46,6.51-10.37,23.44-24.93,3.42-12.46,20.51-12.74,15.47-6.44,1.16,7.35,14.39-8.85,1,10.84-.46,19.06,1.39-8.22,13.3-25.87,0-18.15,12.78-12.65,13.3-15.55-3.69-6.45,14.71-8.68-5.12,3.59-10.26,10.65,5.12-7.09,25.13-19.65,10.06-11.19,17.16-9.18,16.28-6.5,2.7,5.49,13.48-7.38-.21,9.7-2.5,17.59,3.05-11.4,15.62-25.63,2.78-16.37,12.18-9.27-2.49,5.23-7.12,15.88,4.49-10.72,17-23.26,5.55-15.94C618.6,260,604,272.3,597.3,281.92c6.52-9.66,16.6-18.21,8.26-13.81,6.58-4.31-6.24,4.39-15.69,11.82,9.07-7.56,14.82-11.95,10.77-11.38,1-1.48-8.28,1.88-19.15,5.7,10.22-4.45,16.61-7.5,15.69-7.71,1.19-.82-4.91,1.15-15.47,5.54,10.56-4.39,16.41-6.28,15.22-5.51.69.25-5.7,3.21-15.88,7.46,10.79-3.64,19.54-6.65,19-5.39,3.55-.37-1.92,3.63-11.31,10.77,9.89-7,23.45-15.93,16.91-11.53,8.92-4.62-.85,3.94-6.86,13.94,6.1-9.94,19.43-21.55,8.53-14.83,10.24-6.83-4.4,4.59-12.07,13.67,7.46-9.17,16.38-16.11,9-12.75,4.92-3.17-7.41,4-17.93,10.12,9.71-6.24,11.4-7.57,8.47-6.5s-10,4.36-17.9,7.4c12.42-6.46-2.71-6.6-8.51-7.79,4.59-2.14,22.22-4.77,7.94.94,14.39-5.66-8.71-3.33-11.25-1.73-.11,1.48,1.44,4.74,1.85,8.73.89-3.74,7.7-5.84,3.05-4.87,9.25-1.1,30.29-6.67,11.56,2,18.3-8.83-9.91-2.55-15.61-2.12-4.18.28-7,1.87-7.7,5.67-4.2-7.24-2.36-19.06,7.51-7.72-9.93-11.34-15.64,6.82-17.34,10.19.45-3.09,5.78-22.43,10.9-10.19-5.13-12.24-10.95,9.38-13.2,11.14.61-1.59,5.59-21.7,4.12-11.14,1.46-10.56-3.77,10.83-6.48,11.53,1-.67,3.88-17.22-3-11.53,6.85-5.69,3.79,11.29,1,11.5,1.63-.25,2.1-13.32-7.15-11.5,9.25-1.82,8.69,11.3,6.3,11.4,2.31-.1,2.67-13-6.7-11.4,9.36-1.56,8.86,10.81,5.25,10.88,1.65-.33-3.7-7.18-15.24-10.88,11.52,3.7,16.39,9.49,12.72,9.83,2.37-.53-6.13-4.31-18.46-9.17,12.13,4.88,16.29,6.56,10.7,6.51.25-1-11.63-3.24-22.17-5.41,10.85,2.32,12.6,2.45,9.6,2.08a144.32,144.32,0,0,0-16.15-2.23c9.07,1-3.79-.18-6.51-.21-3.37-.13-3.83-.2,4.41,0-8.63-.32-9.23-.5-6.47-.68,1.53-.09,9.58.1,6.1-.3,3.91.11,10.52,1.11,13.81,1.53s3.26.27-6.14-1.93c9.48,2.18,8.71,2.14,4.76,1.51s-11.09-1.84-14.33-2c-.84-.25-8.08-.73-11.2-1-10.17-.35-8.35-.7,4.48,1.27-9.07-1.31-46.95.07-18-2.24-29.7,2.26-29.88,2.31-.12.92-29.05,1.58,8.66,2,17.69,3.66-9.13-1.62-48.66-2.19-20-7.45-29.29,4.86-31.2,5.14-5-4.68-26.16,9.83-16,7.86,12.05,10-28-2.12-38.29-.13-12.19-9.77-26.16,9.64-24.58,9.46,4.61,5.34-28.67,4.5,10.19,6.47,19.47,8.58-9.3-2.11-48.24-4.11-19.75-9.47-29,4.94-30.78,5.07-5.61-6.39-25.14,11.46-19.87,10.41,10.13,10.95-30-.54-35.56.24-11.73-13.94-23.91,14.1-23.48,14.36,2,3-25.3,11.57-8.36,10.05,15.82,13.88-24.18-3.83-41.08-2.3-15.66-13.6-25.57,11.14-25.67,10.92-1.13-2.9-24.42,13.9-14.6,11.78,13.71,12.67-28.31-.89-37.11,1.33-10.43-9.54-26.7,10.88-21.35,9.75,7.78,5.56-18.11,3.49-6.6,4.75,5.64,5.29,6.12.27,13.56.36,15.29.45-1.74-.09-9.18-.18-15.32-.47-12.26-.57-23.82-1.91-5.72-5.62-29.12,4.45-34.46,5.64-8.13-6-26.33,11.61-19.44,9.78,9.74,9.91-29.18-.13-37,1.37-13.51-14.54-23.67,15.78-24,16-.24,1.71-23.68,14.41-17.34,13.92,12.47,16.49-29.81-2.57-36.16-2.18-12.82-17.43-23.46,15.07-23.69,14.66-1.54-2.69-22.08,17.46-20,18.11,9.18,16.27-29.2,1.84-31.34,1.35-8.93-15.17-22.46,16.44-22.09,17,2.27,4.21-24.24,12.93-14.36,12.39,14,16.65-28.33-4.26-38.22-3.74-14-16.82-24.3,12.91-24.82,12.32-2.67-4.4-22.1,16.78-20.52,17.57,7.87,15.41-28.39,2.16-29.9.9-8.68-18-21.32,18.68-21.92,18.78-.79,1.27-21.08,17.66-20,19.14,6.31,19.89-26.32-.75-27.42-2-6-18.71-21.41,16.58-20.56,16.88,2.09.46-22.53,16.58-18.39,16.65,11.73,17.53C441,271.2,437,271,459.43,253.64c-22.53,17.16-22.82,16.63-1.55-2.36-21.2,19.15-20.08,20.52,7.72,17.11-27.8,3.41-29,1.81-8.17-17.91-20.92,19.52-21.74,19.67-1,1.66-20.68,18.17-19.87,20,5.11,20.41-25-.45-25.88-1.9-4.78-18.34q-31.68,24.54,2.35,1.71c-22.59,15.33-19,15.69,10.94,18.39-29.9-2.7-33.41-3.09-10.82-18.88-22.67,15.63-22.84,15.1-1.36-2.9-21.42,18.11-20.16,19.33,7.55,17-27.71,2.37-29,.89-8-18.1-21.08,18.82-21.87,18.86-1.13,1.56-20.71,17.43-19.85,19.16,4.68,20.44-24.53-1.28-25.58-3.05-5-20.11-20.63,17-21.07,16.57-1-.55-20.06,17.21-19.54,19.24,2.22,19.8-21.76-.56-22.27-2.66-2.26-20.16-20,17.4-19.57,17.64.85-.1-20.39,17.86-19.5,19.83,4.66,19.81-24.16,0-24.91-2-4.5-20.29-20.44,18.17-20.1,18.07.36-1-20.4,19.22-19.64,21.24,5.62,19-25.26,2.28-26.21.19-5.94-18.89-20.34,18.92-21.88,18.26-2.63,1.27-19.26,17.08-19.55,19.2-1.65,20.84-17.9-1.64-17.66-3.78,1.57-20.72-19.22,16.86-18,17.46,2.1-1-20.07,18.53-19.26,20.73,4.48,19.35-23.74,1.38-24.52-.84-4.46-19.51-20.1,18.54-21.18,18-1.89.66-19.3,17.42-19.5,19.59-1,20.55-18.5-1-18.32-3.13,1-20.48-19.29,17.27-18.31,17.81,1.75-.48-20,18.41-19.27,20.63,4.05,19.69-23.32.94-24.17-1.25-4.13-19.31-20.07,18-21.46,17.2-2.47,1.16-19,16.1-19.45,18.16-3,20.77-16.44-2.61-16-4.64,3.07-20.76-19,16.06-17.43,16.91,2.85-1.2-20.23,18.23-19.24,20.32,5.16,19.13-24.4,1.19-25.23-.81-4.86-19.14-20.41,18.21-20.89,18.19-.68,1.15-20.2,17.15-19.52,19.16,2.8,20.67-22.32-1.51-23-3.53-2.86-20.54-20.19,16.92-20,16.86.22-.83-20.19,17.79-19.49,19.85,3.57,19.54-23.06.31-24.08-1.83-4.07-18.94-20,17-22.19,15.6-4,1.67-18.23,14-19.5,15.58-7.59,20.22-11.91-4.64-10.74-6.32,7.4-20-18.13,13.66-16.7,14.69,2.67-1.18-19.36,15.92-18.91,18.15.45,19.51-19.36-1.36-19.78-3.7-.48-20.21-19.31,16.45-20.66,15.28-2.51-.05-18.16,15.36-19.6,16.92-6.76,19.56-12.84-2.64-11.57-4.24,6.48-18.93q-27.06,22,.27,1c-18.19,14-18.94,16-5.83,20.1-13.11-4.12-12.78-5.86,4.94-16.09-17.72,10.23-19.78,8.78-4.8,3.79-15,5-17.14,4.31-17.48,13.72.34-9.41,2.47-8.67,17.28-13.17-14.81,4.5-13.3,5.53,3.72-3.11-17,8.64-18,9.83-8.15,15.43-9.87-5.6-8.63-7.12,8.88-18.86-17.51,11.73-18,11-.9-1.16-17.11,12.2-19.57,12.34-11.28,17-8.29-4.69-5.84-4.81,11.24-16.83-17.08,12-16.76,12.57.55,1.39-17.31,11.19-18.74,12.49-9.91,18.53-8.83-6-7.84-7.1,8.63-14.42-16.47,7.32-18.08,6.24-4.35,3.61-13.73,2.63-15.53,1.85-17.71,11.75,2.18-9.9,4-9.16,17.82-12-13.84,2.87-12,4.15,4.85-3.93-16.82,8.08-17.49,9.48-7.13,14.88-10.36-5.4-9.18-7,8.47-19.26-17.64,12.24-17.81,11.85-.31-1.27-17.51,13.13-19.42,14-9.15,17.86-10.27-3.86-8.37-4.73,9.14-17.82-17.5,13.08-17.39,13.42.19,1.32C431.93,268,430.67,269.51,440.7,275c-10-5.51-9.38-6.91,7.22-14.58-16.6,7.66-18.54,6.32-5.17,4.08-13.37,2.24-15,1.51-17.88,11.51,2.85-10,4.52-9.15,17.64-10.86-13.12,1.7-11.67,2.68,4.17-3.35-15.84,6-17.11,6.67-10.16,13.49-6.95-6.82-5.22-7.64,11.66-17.41-16.88,9.77-17.24,9.15-.58-1.42-16.66,10.58-19.45,10-13.07,15.64-6.38-5.62-3.65-5,12.92-15.16-16.57,10.12-16.63,10.36-.31,1.82-16.32,8.55-18.51,8.59-14,16.13-4.51-7.54-3.74-8.25,9.88-11.07-13.62,2.82-15.52,1.23-6.82,3.89-8.7-2.66-9-2.91-16.24,7.43,7.23-10.34,8.36-9.39,19.66-9.33-11.3-.06-13.2-1.84-13.48,6.25.28-8.09,1.34-7.27,11-5.81-9.64-1.46-10.16-2-19.24,8.22,9.08-10.25,9.58-9.68,19.13-8.11-9.55-1.57-10.61-2.44-11.07,5.7.46-8.14,2.87-6.16,15.89-8.71-13,2.55-13.32,2.55-1.49,2-11.83.58-13.44-.67-16.87,8.78,3.43-9.45,3.07-10.13,8-4.87-5-5.26-4.73-5.53-15.81,4.57,11.09-10.11,10.43-11.38-1.65-1.74,12.08-9.64,11.44-10.81-.57-1.48,12-9.33,12.72-8,.65,1.67,12.05-9.68,12-8.49-10.15-.19,22.18-8.3,22.6-9.13,6.73.46,15.87-9.6,14.09-11.53-6.41-3.45,20.49-8.08,22.63-5.51,4.11,4,18.47-9.43,18.13-8.18-4.48.48,22.27-8.68,9.49-6.39-9.42-1.44,20.61-4.55,31.6-7.52,9.09.85,22.31-8.52-.64-8.19-14.8-5.81,13.45-2.51,28.09-1.63,7.55,4.58,19.36-5.82-4.91-1.24-14.41-1,8.77-.28,13.66-3,5.88-.57,4.95-4.21-4.95-3.63-10.66-3.91,7.35,1.76,0,3.41-5.58,5.87,3.52-2.86,6.23-5.17,5.1-5,1-1-1.8.55-5,3,3.76-2,1-3.74-1.8-3.55-.35.75-4,2.48-6.93,5.52.08-3-1.68-4.47-4.06-4.52s-5.41,1.28-7.87,3.74c-2.1-4.49-8.41-3-10.92.78,4.3-3.76-1.55-4.08-6.68,0-2.55-4.08-8.73-5-9.19-.38-2.36-3.73-6.09-4.27-9.34-2.47-1-2.2-2.7-.33-2.2,2.85-4.25-3.36-8-5.29-9-4.1-.58-1.34,1.3.78,5.85,4.1-3.2-3.11-6.2-6.06-7.86-4.76-1.67-2-2.63.48-2.9,3.55-2.95-6.08-4.25-5.66-5.78.92-.09-3.64,0-8.23,1.7-5.13.91-2.92,3.84,1.9,7.85,5.42-4.06-6.35-6-8.43-7.66-2.55-1.19-6.64-2.83-6.77-6.42.11.05-4.88-1.28-13.78-1.87-6.23-1.62-8-3.56-1.16-6.13,4.69,3.09-8.46,1.65-11.66-4.09-3.26,3.15-6.42,4.68-6.84,5.06.08.52-4.93,0,3.34-1.4,7.16,1.76-3.34,2.38-10.9,1.83-6.65-.53-6.47-2.33-7.5-6-1.09,5-9.4,3.46-10.49-3.46-1.23,3.35-9.63,5.48-18.67,3.11-5.68,2.06-13-.71-3.33-4,6,5.53-10.23,5.39-18.17-2.83-7,7.57-11.56,5.6-4.89-1.29,4.93,7-8.83,7.42-7.54,1.19,1.09,4.26-5.69,5.09-3,4.4,2.85.88-2.9-1,3.86-3,6.73,2-2.87,3.78-9.8,2.75-6.88.63-6-.21-9.27-4.8-3.37,6.11-9.1,4.82-10.84-2.83-2,6.92-10.14,8.48-16.31-.14-5.3,8.6-10.56,6.41-1.65.64,7.74,5.3-9.39,5.36-17.23-4-8.34,7.63-9.79,1.67-3-4.45,4.36,4.87-6.16,2.15-2.73-1.86,2.28,2.08.43-2.2,7.52-3.6,11.53,1.35-4,4.89-10.85,2.75-11.64,3.28-4.82,4.61-7.59.39-2.36,4.61-6.49,8.24-10.73,2-3.61,6.89-5.45,3.52,3.15.64,9.31,2.37-6.06,2.26-12.32-3.85-8.89,3.22-5.09-2.9-.55-5.11,3.76,0-2.82-2.48-.65-4.08,2.3a46.68,46.68,0,0,0-4,11.13c.39-3.77.5-7.76.54-10.25s0-3.44.16-1.16c-.58-3-1.2-3.31-1.62-1.76a35.82,35.82,0,0,0-.43,9.2c-2.9-8-7.32-11.76-8.82-5.46-3.5-4.11-5.57,2.94-5.68,9.43-.61-6.49-1.34-11-2.28-6.47-.33-4.65-1.07-.4-1.31,5.89-1.37-6.17-3.8-9.52-6-5-1.07-4-2.83.51-2.81,5.6-1.74-5.09-5.22-8.34-6.5-4.32-1.79-3.69-2.95-.13-1.55,4.32-5.19-6.79-9.68-6.08-5.42,0-3.39-4.25-10.41-8.16-9.39-2.07-5.44-5.64-6.79-4.27-2,2.07-6.63-6.34-19.66-15.84-11.72-.66-10.57-15-11.7-15.07-1.38.66-12.2-15.77-18.58-21.52-11.79,0-7.55-21.52-10.24-22.89-11.18,0,.71-22.89-1.3-22-10.67,0,8.07-22.12,8-22.12,0,0,7.58-22,4.73-23.1-8.62-3.52,13.21-19.25,11.19-18.59-6.15-3.39,17.18-14.87,15.26-11.94,4,6.91,11.17-18.85,10.89-21.46-8.39-10.33,18.32-12.35,19.72-12.64,4.75,4.54,15-17.16,14.2-17-4-4.1,19.27-11.66,19.86-9.34,8.69,9.89,10.94-19.23,7.17-20.78-13-13.25,17.57-10.12,16.19-9.91,2.14,5.06,13.76-15.08,5.22-14.58-8.79-9.1,14.84-2.85,15.47,2.21,9,17.29,6.28-15.08,1-20.19-12-20.61,9.82-4.71,11.21-3.95,3.15,8.33,7.94-12.31-1-13.8-6.94-10.53,6.37,1.71,4.22,10.72,5.64,22.81-1.53-12.09-1.19-21.23-6.84-23.71,3.58-3.44,2.89-1.27,1.59,10.17,1.21-11.43-2.22-13.84-4.47-10.66.72,2.91-1.29,12.1-2.74,24.2,1.14-12.1,2.25-21.11,1.6-24,.68-3-.42-.13-1,11.36.57-11.47.67-14-.33-10.81S95.11,260.7,92,272.08c3-11.38,4.8-19.44,4.88-21.75s-1.52,1.14-5.19,12.77c6.66-23-1.62-5-12.21,9,8.9-13.95,13.36-22.15,1.63-5,10.88-16.87,2.25-4.94-5.35,5,9.15-11.95-2.71-2.26-8.14,0,.37-2.26-5-.09-6.22,0,1.18-.09.48,0-1.62,0h-40c23.72,0,23.71-.09,0-.87,23.71.45,23.48.18,0-2.57,23.48,2.06,22.49,1.46,0-4.24,22.49,4.59,19.72,3,0-5.86,19.72,7.06,13.66,2.75,0-7.42,13.66,6.94,4.12-2.42,0-9,4.12.87,0-6.72,0-10.44V-1522a26.16,26.16,0,0,0,8-1.37c23-16.47,50-19.9,73-1.37,2,1.37,6,1.37,9.3,2.38,3.15.22,6.38.27,9.68.27,3,0,6,0,9.07,0,18-1.24,27-12.22,39-20.45,4-2.75,9-2.75,14-1.38a41.89,41.89,0,0,1,14.23,6.74c2.06,1.42,4,2.93,6.05,4.42,11.86,12.6,27.79,19.94,45.06,21.81a72.81,72.81,0,0,0,17.57-.15c14.09-1.94,23.09-10.17,36.09-12.92,19-4.8,40,2.06,61.35,2h7.12c16.27-.5,32.87-2.48,49.53.84a77.57,77.57,0,0,1,10,2.68c22,2.06,30-16.47,45-24.7,8-4.8,16,.69,21,4.8,8,8.92,18,15.78,32.69,16.3,3.13.08,6.28.08,9.43.08,3,.28,5.76.37,8.6.49,18.28.29,31.28,9.21,45.28,16.75,7,3.44,15,6.87,22,2.75,12-6.86,20-21.27,39.45-20h34.6c19.95-1.27,26.95-15.68,40.95-23.91a16.48,16.48,0,0,1,14-.69c16,7.55,21,22.64,41.58,24.57,2.93,0,5.85,0,8.78,0,24.64,2.84,43.64-10.89,67.64-14.32,4,0,8-.68,11,.69,9,5.49,17,13,30.27,13.56,3,.07,6,.07,9,.07h47.72c3.16,0,6.3,0,9.46,0,6.59.81,12.59-.57,18.59-2.62,27-11.67,72-15.79,88.27,7.2a33.6,33.6,0,0,0,7.94,5.43c22,10.71,50-7.36,75.08-16.45l10.13-1.85c10.14-1.84,20.33-3.6,30.58-4.63,5,0,12-1.37,14,1.38,10,11.66,28,11.66,44.4,11.57h39.94c2.19.16,4.32.28,6.5.47,26.16,2.37,45.16,25,69.16,19.52,10.83-2.86,14.72-15.25,26.53-18.95a24.34,24.34,0,0,1,8.15-1c21.32,1.46,30.32-12.95,45.32-20.49a55.71,55.71,0,0,1,7-1.38c3,25.39,1,50.09,1,75.67v1649c0,4.92-.16,9.7,0,14.22a101,101,0,0,0,0,13.14,69.78,69.78,0,0,0,0,12c-.28,2.07-1.31,5.92-1.15,8.76-.92,2.82-.57,4.77,1.15,3.08-1.72,4.79-8.08,12.22-6.19,16.12-4.49,3.3-.72,4,6.19-5.71-4.68,7.14-20.43,15.39-10,16.05-13.21,4.05-16.5,5.93-1.09,3.69-13.58.94,4.88-4.58,11.13-10.81-6.25,6.39-28.34,13.2-12.57,13.37-18.1,2.51-19,3.31-.35,2.17-16.56.09,6.23-3.82,12.92-8.13-10,6.55-35,9.81-15.15,10.65-19.89-.23,4.82-1.06,15.15-4.82-10.33,3.79-35.43,4.91-15.43,6.21-20-.88,4.87-.29,15.43-2-10.56,1.71-35.51,1.3-15.52,2.88-20-1.32,4.9.11,15.52-.32-10.62.44-35.5-.89-15.53.76C1424.27,270.4,1449.14,272.08,1459.77,272.08Z" transform="translate(984.95 1907.91)"/><g class="cls-4"><g class="cls-5"><path class="cls-6" d="M1989.65-1468.39c-10.47-.59-20.07,2.73-18.06,8.65,6.29,16-16.53,23.53-32.76,32.2-17.4,9.09-38.13,15.45-54.94,24.54-11.7,6.65-19.5,7.94-32.2,5.06-19.21-2.89-38.69-5.34-58.77,5-9.1,4.91-20.36,7.51-29.31,3.46-8.23-3.88-.72-10.09,2.31-15.88,8.66-17.32,21.23-36,10.39-52.69-7.06-10.69-6.78-20.08.58-32.63,7.66-13.44,13.57-24.56,39.42-28.87,3.32-.3,6.93-2.75,7.51-4.2,5.63-13.13,16.45-27.86,3.9-39-12.42-11.56-24-21.08,1.45-34.22,5.19-2.31,3-7.22,2.31-10.83-3.18-5.48-1.6-10.39,6.21-14.72,20.93-11.7,12.55-28.6,27.57-41.3,4.61-4.33-.15-10.54-7.94-10.69-29.17-4.61-36-19.48-47.65-32.63-17.76-18.91-5.92-32.35,31.77-35.66,38.27-3.9,38.4-3.75,48.94-24.41,2.45-4.32,10.47-7.94,7.36-13.7-14.87-7.51-34.51-9.69-54.72-10.55-16.75-.42-23.09-5.78-24.39-15.17-.73-18.61-6.08-36.81-46.65-38-8.22-.15-12.4-3.76-14.28-7.65-6.65-11-22.53-17.47-39.86-21.52-22.09-5.77-28.45-15-24.11-29.46.44-1.58.44-3.17.72-4.76H1593.17c4,1.73,6.79,4.19,15.08,3.33,41.73-5.2,48.51,12.41,54.15,28.88a182.53,182.53,0,0,1,10.11,45.9c3.9,19.93,19.78,28.88,52.84,31.33,59.78,4.78,78.4,40.87,37.54,70-2.6,3-6.79,5.48-9.52,7.64-23.84,19.36-20.36,24.55,6.64,38.27,22.81,11.54,21.79,34.93,53.71,43.17,3.31.87-3.76,6.78-6.08,10.39-13.57,20.94-22.81,42.89-20.78,62.38,6.5,44-35.24,78.26-71.9,113-18.2,17.47-31.19,35.38-21.52,49.82,10.83,14.73,34.51,28.58,62.23,30.75,28.15,2.74,52.85,7.94,78.69,12.7,16.32,3.61,33.21,3.76,50.83-1.73,23.17-7.65,47-10.68,71.83-14.72,39.06-5.63,48.37-14.45,37.39-34.66-11.7-21.51,9.31-38.26,53-40.57,18.41-.57,36.46,3,55.37-1.73-7.29-11.84-25.34-16.32-46.71-15.31C2033.83-1468,2012-1467,1989.65-1468.39Z" transform="translate(984.95 1907.91)"/><path class="cls-6" d="M2102.77-1453.67c-22.38-6.93-48.22-1.87-72.55-3.32-3.47-.58-9.31,1.15-14.22,3.32-38.77,13.71-44.76,24.4-29.53,46.06a59.37,59.37,0,0,0,4.7,5.34c6.27,7.94-.52,12.84-14.3,16.89-4.63,1-9.09,3-13.72,2.89-31.33,2.6-60.42,8.09-88.22,18.2-10.25,3.31-20.64,3.16-31,1-29.32-5.2-52.42-19.48-90.25-12.7-5.92,1.44-9.52-2.75-13-5.5-7.21-8.37-8.79-20.06-34.36-16.16-1.3.58-7.66-3.47-7.21-5.93.57-12.84-2.75-28,12.85-38.26,17.75-11.83,26.84-25.4,41.29-37.67,20.06-17.2,23.67-37.11,43.17-54.16,5.92-5,8.09-12.85,4.47-17.61-21.37-21.66,19.07-45.62,7.08-67.86-1.3-3.18,5.48-6.79,11-10,20.21-14.14,20.21-14.72-4.91-21.21a121,121,0,0,0-17.33-4.63c-10.54-2.31-17.75-5.91-10.54-13.71,11.12-13.72,1-17.32-19.91-20.5-27.15-2.6-29.6-9.1-11.27-24.4a241,241,0,0,1,33.5-22.38c38.12-22.24-9.24-35.23-9.39-53.42,1.16-9.24-12.71-14.59-30.32-14.87-9.24-.15-18.91-.15-27.87-.88-27.14-1.58-33.49-5.63-35.94-21.66-3.48-17.18-8.52-34.79-11.56-52.69-2.31-11.27-11.91-19.35-20.64-28.45h-97.9c10.83,9.39,26.57,16.61,50.54,18.91,41.72,5.06,46.63,16.47,25,39.42-20.36,22-16.6,42-1.58,61.23,14.43,17.75,42.45,5.63,64.11,4.76,19.34-.28,39.84-2.74,48.94,9.67,8.23,12.28,4.9,25.13-9.38,36.68-9.11,8.08-21.38,13.42-36.1,17-15.45,3.9-28.45,10-39,18-11,7.79-23.24,15.73-12.41,25.56,9.67,8.65,24.4,9.1,40.72,4.32,8.22-2,17.76-8.37,24.25-2,6.36,5.77-4.91,10-9.67,14.3-32,26.12-22.53,40.42,24.69,41.15,58.33,1.15,71.62,17.32,40.28,48.36-10.55,11.26-14,20.8-11.55,32.49,5.34,21.22-2,27.86-37.11,36.09-17.61,3.91-25.4,9.1-14.58,17.33,15.15,12,7.66,21.22-9.67,33.06-34.66,24.54-29,52.27,3.31,70.47,36,20.78,88.22,19.91,132.12,30,42.15,10.25,90.53,10.25,140.56,4,12.92-1.58,22.52-1.28,26.85,4.91,9.24,13.72,24.48,25.42,31.91,39.71,6.79,15.45,13.57,31.33-27,42.45a19.16,19.16,0,0,0-11,7.51c-20.22,25.42-39.57,50.39-85,66.13-5,1.59-9.6,5.77-8.16,9,4.18,11.84-11.12,22.38-16.61,34.23,21.81,1,42.32-4.48,51.62-16.18,15-20.51,40.06-34.36,72.34-46.2,18.41-6.94,29.31-14.73,21.22-26.57-7.65-10.11-3.53-17.33,16.9-25.12,21.29-7.94,30.61-20.08,28.08-33.78-2.31-17.78-10.76-34.66-23.68-51.26-6.57-9.24-6.28-17.48,7.29-26.42,14.59-9.54,25.2-22.11,42.45-31.05C2125.44-1418.15,2128.91-1437.21,2102.77-1453.67Z" transform="translate(984.95 1907.91)"/><path class="cls-6" d="M2001.7-1350.44c-2.46-7.51-13.58-9.09-24.18-4.61-23.31,10.1-46.13,8.8-65.41,5-21.3-3.89-44,1.88-65.76-1.58-32.78-5.06-58.92-23-100.79-15.3-2.88.57-6.93-1.45-8.8-2.61-12.56-7.94-30.17-13.14-43.74-20.5-23.11-11.55-19.51-42.15,5.61-58.48,35.53-22.09,35.81-22.09,6.36-42.15-1.3-.44-.43-2.6-.43-3.61,45-4.62,71-17,61.08-37.83-10-19.49,7.21-32.78,16.16-48.66,2.32-3.18,5.93-5.63,7.08-8.66,13.15-19.49-13.14-40.57-48.23-36.39-21.36,2.46-43.3,4.33-50.24-6.93-7.23-12.13,8.95-21.8,27.87-29.31,13.86-5.33,15.59-12.42,4.91-19.78-9.53-6.36-18.48-10-30.77-.3-5,3.48-10,6.36-16.88,7.52-10.25,2.89-16.9-1-23.54-4.19-5.19-2.16-8.23-6.78-2.16-10,16.46-7.94,23.25-22.82,49.09-25.27,38.84-5.34,68.87-33.49,56-61.94-4.48-9-10.54-13.86-26.14-14.14-21.22-.3-42.3-2.61-64.54,4.18-11.26,3.61-19.91,3.61-26.85-3.61-18.48-18.2-15.59-44,11.55-63.82,13.87-9.53,15-17.91,3-26.56-8.23-6.5-17.18-14.3-30.46-14.3-21.88-.29-36.17-5.78-47.37-13.72H1415.93c5.63,2.75,9.68,5.92,19.63,7.66,23,3.89,44.2,5,67.87-3.9,15.45-5.49,33.78-4.91,36.83,6.79,4.46,21.94,33.2,34.78,43.88,54.14,5.63,8.09,11.84,15.3,9,24.84-4.63,13.27-2.32,25.84,2.6,38.69,4,8.52,3.61,17.33-5.5,25.55-19.06,15.74-13.71,34.8-26.55,51.83a5.91,5.91,0,0,0-.3,9c15.73,14.3,23.39,32.19,47.79,40.85,28.59,11.12,32.63,27.3,21.95,45.63-6.64,13-.15,18.35,17.33,22,6.92,1.15,12.7,4.33,18.19,6.64,18.05,6.06,26.14,2.88,28.44-10.55,3.33-14.72,9-18,30.61-15.45,6.21,1,11.11,3,16.75,3.46,11,1.17,24.41,0,23.68,9.69-1.15,9.09-3.47,16.88-21.38,20.78-21.36,4.34-30.17,14.58-37,26.57-5.76,10.69-14,21.66-32,29.31-5.62,2.6-12.55,6.5-13.71,11.12-3.32,10.26-12,12.84-26.57,9.53-10.54-1.73-16.17,4.19-12.56,7.51,14.59,12,1.3,18.91-13.58,28.43-16.3,9.69-17.18,20.23-1,23.26,25,4.91,33.06,16.6,39.42,30.18,15.45,28.15,59.62,36.38,93.7,50.66,30.61-3.31,44,13.87,71.9,14.3,2.89-.15,8.09,2.6,8.52,4.78,4.33,9.52,19.2,11.83,28,18.18,7.51,6.21,18.18,6.36,30.17.43,16.46-8.66,32.13-15.3,49.81-5.76,3,1.58,9.17,1.58,13.57.28,20.94-6.79,27.22-.86,30.18,8.81.65,5.19,11.62,7.79,9.6,14.72-24.83-1.87-44,6.21-60.64,16.9-6.93,3.74-13.21,8.52-6.43,14,11.42,10.68,9.46,21.22,1.3,34.66-12.05,21.37-19.35,26.27-54.44,24.82-5,0-11.25-2-14.57,2-5.64,6.21-11.27,12.85-13.28,19.35s8.94,6.79,15.88,9.1c18.48,4.18,15.3,13.85,12,24-3.45,10.54-18.33,9.82-28.87,13.58-12.85,5.05-22.52,0-34.94,1.15-9.39,3.46-17.33,8.23-22.81,13.87-6.49,10.67-17.61,19.91-31.63,27.85-26.85,14.73-50.81,30.9-67.84,49.53-8,8.09-19.65,12-33.23,15.3-30.6,6.79-60.35,15.31-92.4,20.22-24.54,3.32-57.32,7.94-63.24,33.78-2.73,11-15.88,7.81-21.08,2.32-7.22-8.53-19.06-10-34.51-5.2a62.57,62.57,0,0,1-24.39,2.3c-22.67-2.45-36.82,5.64-47.79,19.78a112.83,112.83,0,0,1-42,36.69c-7.51,3.46-11,8.79-15.3,14.28-6.65,7.81-7.36,19.93-24.11,20.8-16,1-36,.43-40.15-11-8.51-24.11-41.44-24.56-70.31-28.16-20.21-2.89-26.85-16.31-45.63-20.22-7.51-1.87,1.73-13,3.18-19.78,1.15-9.52-3.18-16.75-16.75-16.31-21.81.29-35.23-6.5-49.67-13.86-27.58-13.72-63.25-.58-71,24.83a29.52,29.52,0,0,0,18.19-4.18c33.35-14.59,46.2,10.39,73.49,8.22,6.79-.86,13.3,1,16,5.78.73.86.58,2.46.58,3.61,1.88,13.87.72,26.85,13.87,39.27,16.45,17.05,12,21.08,46.2,13.29,18.91-3.61,37.39-3.33,46.35,5.77,8.65,10.54,22.22,17.9,32.76,26.86,19.79,15.73,68,5.77,75.53,32.78.72,1.28-1,.43,2.3.43,14.58-.43,21.94,4.48,28.6,11.69,8.94,9.24,24.82,5.49,37.54-1.15,16.45-9.39,36.09-18.63,32.91-34.36-1.73-5.21-8.37-7.23-16.61-6.79-19.93,1.87-36.23-2.32-54.42-4-11.27-1.45-26.29.3-25.27-11.26,1.58-10,9-19.64,23.82-24.83,17.76-6.65,32.78-17.62,52.56-21.38,15.58-3.46,16.74-9.67,11.7-19.19,20.64,6.92,42.44,2,62.8,2.46,24.83.28,44.9-9,55.88-24.56,12.7-18.76,31.9-24,56.89-26.7,36.09-3.76,69.59-14.88,102.35-28.3,33.8-14,51.12-36.68,79-54.29,6.5-4.33,10.69-11.42,20.5-9,31,6.93,36.24-9.1,48.08-20.49,9.24-7.09,22.24-12.57,32.21-20.08,4.9-3.89,8.66-9.1,16.88-11.4,6.06-4.63,12.27-8.81,18.27-13.43,6.64-4.48,11.55-9.38,6.64-14.15-11.62-10,1.66-13.86,15.88-17.47,16.53-3.9,31.76-8.38,34.29-19.64,3.1-9.68,11-16.47,26.79-20.93,8.16-2.46,12.42-6.21,10.47-10-7.29-13.72,11.76-19.2,29.45-24.11,12-3,24.47-8.09,21.22-15-5.48-10.68,0-23.53-10.83-33.21C2020.62-1323.59,2008.71-1336,2001.7-1350.44Z" transform="translate(984.95 1907.91)"/><path class="cls-6" d="M-419-903.71c10.54,15.73,29.45,22.38,60.78,18.19a65,65,0,0,1,29.9,1.74c6.93,1.58,14.15,2.74,19.48,5.77,24.27,28.59,42.17,31.9,92.84,17.47,8.09-3.32,14.74-1.73,21.38-1.15,15.3,4.76,41.14-15.75,48.66,2.16,5.63,13.57,25.26,19.2,27.57,33.2,6.64,38.27,6.64,37.54,59.78,34.66,20.93-1.15,34.93,5.78,35.08,22.38,1.15,8.23-4.48,16.31-6.79,24.83-4.33,11.56-1.73,20.65,10,26,10.82,5.21,23.82,3.48,36-2.31C38.65-732,64.64-740.71,77.64-762.07c3-5.06,8.66-9.24,15-13,7.66-4.76,16.61-8.08,24.7-3.75,6.65,4.05,4.9,9.82,1.44,15.74-2.75,4.62-5.78,8.67-8.51,12.85-14.15,24.4-5.21,40.57,19.91,51.4,26.29,10.83,62.53-5,94.73-22.37,14.58-8.09,38.12-16.9,39.85-32.35,1.45-16.76,14.29-21.52,31.75-26.85,8.54-2.75,15.9-6.64,24-11.27,35.94-21.08,57.75-20.21,77.66,4.33,7.66,8.67,15.17,10.25,30.18,5.92,32.78-9.38,60.94-27.15,85.62-45.76,18.35-14.3,36.25-23.69,59.06-27.59,10-2,20.21-4.19,29.46-9,51.68-26.85,111.31-29.6,165.75-51.11a32.1,32.1,0,0,1,11.55-.72c24.11,2.17,39.71-6.79,54-22.52,9.82-11.12,21.08-22.09,30.33-33.78,15.3-20.51,39.13-33.51,68.58-34.23,24.83-1,41.58-9.52,55.59-25.12,4.77-5.21,10-13.72,18.77-11.55,22.09,5.34,51.68,4.47,60.64,21.37,9,18.76,29.31,21.94,56.31,20.5,19.35-.72,36.68-.44,45.77,13,6.21,9.09,22.52,6.19,36.53,3.61,43.6-6.79,80.57-25,116.08-46.21,32.78-19.93,60.35-22.68,89.1-10.26,7.36,3.18,16.16,4.33,24.69,4.33a31.08,31.08,0,0,0,13-3.88c3.62-1.75,7.8-4.63,11-2.46,27.28,20.94,61.36,25.4,108.14,9a54.22,54.22,0,0,1,16.17-3.46c28.73,0,52.12-12.14,75.23-24.41,13.43-7.37,26.85-14.29,42.6-18.91a283.11,283.11,0,0,0,25.26-14.3c4.34-3.61,9-7.07,14.43-11.4,2.46-.87,4-2.75,5.78-4.18,3.89-3.63,10.4-7.38,16.16-11a24.21,24.21,0,0,0,7.23-7.21c6.79-9.82-12.71-18.77,7.37-29.17,16.31-8.8,20.06-19.34,19.06-30.31-.15-16.76,6.78-32.93,32.63-45.63,1-3.47,3-6.51,8.94-8.38,15.89-13.58,3.62-19.21-12.55-21.8-19.93-2.32-41.15-1.45-58.62,10-6.21,3.89-5.06,8.51,0,11,23,11.55,8.23,23.82-9.24,35.23-15.6,9.67-24.27,19.49-24.7,31.91.58,5.48-3.9,13.13-15,8.79-16.31-6.78-43.6-11.54-41.42-26.7,3.31-22.38-45.63-21.8-39.87-44.9.45-1.88-8.66-3.18-13.85-2.75-21.36,2.75-46.35-.28-60.2,17.62a15,15,0,0,1-13.58,5.34c-13.57-1.88-26.28-5.34-29.89-14.72-2.31-8.09,5.48-14.73,16.75-20.94,24.11-13.87,53.42-20.65,82.29-29,20.51-5.93,33.21-6.79,39.42,5.76,2.45,5.79,6.51,11.85,20.23,8.82,11.4-1.88,19.33-7.51,19.48-14.15,2-11.7,13.86-18.34,29.6-24.25,13.86-5.78,26.42-13.72,23-23.69-2.89-9.81-19.2-13.14-33.8-11.84-44.6,4.33-62.51-12-81.86-28.73-14.15-13.14-29.6-23.39-61.51-8.81-9.81,4.19-18.76,3.18-25.26-1.58-6.21-5.2,1.73-9.54,8.38-13.44,19.34-11.25,16-24.1,13-35.79-2.73-10-1-19.36,1.3-29.75,5.21-22.53,12.27-45.05,15.6-67.57,4.76-23.54-17.9-45.63,7.66-71.62,5.34-4.91,3.16-12.42-4.2-17-24.25-14.58-34.36-36.82-62.36-50.39-17.18-7.94-14.88-18-10.26-32.91,9.1-30.9,60.79-63,4.48-95.16-23.25-12-41.45-25.55-73.93-26.7-38.26-1-63.1-7.81-73.92-32.5-7.37-16.45-20.21-34.79-58.18-32-13.44.44-24-4.33-27-12.42-1.44-3.46-5.19-5.92-7.8-9h-89.65c5,5.49,10.67,10.83,18.61,14.88,23.54,12.42,38.41,27.14,40.87,47.5,1,15.59,13.14,25,42.3,19.06,11.26-2.45,20.8-.15,26,6.34,7.51,12,24.54,16.9,42.89,20.8,18.33,3.61,28.43,12,35.22,22.24,13,19.19,28.74,36.52,18.48,59.91-3.18,6.65-.58,12.72,6.06,17.77,28,19.19,30.47,45.48,39.29,69.73,5.33,15.74-2.18,27.72-32.78,32-19.93,2.6-31.63,10.4-23.39,22.39,10,13.27,12.56,28.44,18.33,42.87,7.36,17.63,20.21,30.76,57.47,24.84,13.42-1.73,26,1.3,38.41,3.18,4.32.72,9.38,1.45,14,2.45,5.77,13.72-15.17,17-27.87,20.64-27.42,7.81-39.41,20.36-39.71,37.11-.13,13.58-7.94,25.57-21.64,36.54-16.9,12.85-16.47,23.39-2.46,33.5,10.68,8.37,19.06,16.16,10.82,30.89-6.93,12.84,14.88,22.53,37,18.2,6.93-1.6,13.72-7.66,26.14.85-39,1.88-60.8,23.69-93.86,30.18-23.39,5.2-28.73,15.6-12,24.26,13,7.66,11.56,15.88,4.33,26.28-16.6,24.26-26,49.23-42,73.21-14.59,20.94-42.32,39.27-46.78,62.23-.15,1-2.75,2-3.9,3-28.88,18.34-56.32,38-89.81,50.82-39.86,15-82.88,20.21-116.09,10.39-23.54-7.51-47.08-17.46-70.32-27.57-32.33-14-37.82-13.43-72.9,8.23-22.53,13.86-46.35,32.34-70,37-40.57,7.64-65.26,27.57-91.1,48.21-7.51,5.2-15.74,9-25,8.53-44.9-.15-83.6,18.48-120.42,40.42-9.52,5.92-19.49,10.4-30.75,11-23.54,1.6-45.78,10-66.71,19.64-16.46,7.51-31.33,12-48.66,13.14-26,1.45-48.21,10.39-61.21,30.18-15.89,25.41-18.78,25.84-52.13,23.24-40.85-3.31-83.6-.73-127.64,17.62-33.06,14-67.85,5.62-102.36,19.06-.87.28-3.6-1.15-5.05-1.3-31-12.14-66.86-10-104.83-4.33-15.6,2.16-30.9,2-38.84-8.39C20.6-818.81,11.08-824-5.68-824c-8.81.28-17.47.13-11-11.42,9.82-17.18-1-36.38-19.35-44.18-35.81-14.59-77.38-22.53-117.53-32.2-10.82-3.32-22.66-5.91-35.8-2.75-25.55,6.51-49.39,5.35-74.79,5.64-43.75.29-73.06-18.62-111.33-25-5.91-.72-9.67-5.2-11.26-9.53-4.62-17.46-17.32-26.7-32.34-33.34Z" transform="translate(984.95 1907.91)"/><path class="cls-7" d="M-419-971.72c10.11,5.35,17.18,13.14,19.64,23.11,5.05,19.48,22.66,26.57,44.47,28.73,18.63,2.3,35.66,5.48,47.07,14.29,19.64,13.28,53-5.91,72.76,6.21,2.75,1.88,11.7-.72,18.63-1.73a24.77,24.77,0,0,0,2.6-.87c19.21-11.27,36.82-8.37,53.72-4.91,16.45,3.33,30.17,10.54,45.62,12.42,20.07,2.31,40.72.58,48.51,16.31,1,1.59,4.91,2.75,7.79,2.32,26-4.63,28.6,11.83,38.56,21.66,4.91,5.62,8.37,11.25-8.08,18-10.84,4.76-8.52,14.15,1.3,17.75a38,38,0,0,0,20.21.58c14.58-2.59,23,1,25.55,11.56,1.59,9,10.54,12.27,22.53,12.13,11.12.29,22.81.14,35.36-2,32.5-5.34,65.71-7.36,91.12,6.65,7.37,3.89,14.73,4.47,23.82-1.3,13-9.81,27.58-11,41.73-9.53a90.43,90.43,0,0,0,54.72-11.85c10-5.63,20.65-9.81,31.62-9.81,32.2-1.88,66.84-11.12,96.89-1.73,15.58,4.91,39.27-6.79,44-18.34,12.27-28.15,30.62-38.56,69-37.68,11,.42,18.78-2.46,27.87-7.51,25.85-12.7,52.41-26,82.87-25.27,11,.29,19.65-6.06,29.47-12.13,33.78-22.08,71.32-40.57,114.64-38.55,8.52.44,19.34,2.32,22.95-3,11.12-16.3,35.38-24.54,48.52-38.69,7.65-8.37,15.3-11.84,25.7-10.24a47.41,47.41,0,0,0,34.93-9.54c23.25-16.46,51.69-27.57,75.23-43.88,15.88-11.56,21.81-10.84,38-2.6,11.69,6.06,22.68,13.12,38.84,14.57,14.3,1.6,25,5.78,30.47,15.17,2.88,4.91,8.22,7.79,17.61,7.37,25.41-1.31,51,0,75.8-4.2,17.48-2.89,40.44-1.59,53.72-18.19,31-6.93,47.5-25.27,69.74-40.42,3.18-2.47,9.24-3.62,14.43-4.48,7.8-2,12-5.49,10-10-6.93-15.15,6.94-27.87,25.12-40.71,6.65-4.34,15.17-9,14.74-14.88.58-12.42,7.22-23.67,19.92-34.79,4.91-4.48,7.66-9.68,6.36-14.44-1.88-5.06.28-9.39,5.91-13.72,9.39-7.79,10.69-16.74,16.32-25.27,7.22-9.67,5.19-15.3-9.53-17.61-8.22-.57-15.88-2-13.43-8.23,3.18-7.5,14.3-9,23.39-9.52,13.28-.15,25.84-2.75,33.93-11,9.39-9.38,18.19-15.89,37.26-12.13,9.37,1.87,16.16-4.47,21.94-9.82,4.48-3.89,6.06-8.52,2.46-11.84-6.51-4.91-16.18-2.89-26.14-1.16-8.22,1.16-10.68,9-21.95,9.82-2.6-7.5-38-6.34-7.08-24,5.35-2.3,1.17-6.78-1.73-9.67-8.08-6.35-12.55-15.59-24-21.36-11.4-5.49-10.69-11.12,2.6-20.08,16.75-12,31.33-25.27,29.3-42-2.16-18.48,3.91-22.8,34.51-32.18,19.06-5.64,36.25-13.43,41.29-26.42,3.18-6.36.88-11.85-12.41-5.06-5.19,2.6-10.68,3.75-14.43.15-14.15-6.21-31.33-10.54-50.39-6.21-21.38,5.91-27.87-.58-35.53-9.54-14.15-19.49-9.67-43.9-28.88-62.51,0-.87,2.46-2.45,3.18-4,11.27-2.74,22.54-2.6,33.94-5.49,27.42-7.36,24.11-6.49,25.41-24,1.88-27.58-24-48.66-23.11-76.09.58-3.75-4.33-5.63-9.82-5.93-23.39-1.15-18.76-12.84-14.29-21.79,10-15.89,3.32-28.31-6.79-41.29-3-4.05-8.22-7.23-9.82-12.42-4.46-17.33-22.23-27.3-49.08-31-15.6-2-28.73-4.76-33.06-16.88-5.21-16-6.65-16.62-32.93-8.54-19.48,5.36-28.72,4.91-30.9-7.49-1.3-4.2-5.63-8-4.33-12.29,5.63-18.91-12.7-29.88-31.18-39.41-9.24-4.91-17.18-10-23.39-15.74H-419Z" transform="translate(984.95 1907.91)"/><path class="cls-6" d="M-419-997.12c27.58,3.16,55.15,6.49,82,9.82,34.36,4.76,41.73,11.25,34.08,38.39-2.89,9.24-1,15.75,6.49,20.08,10.69,5.63,20.64-2,29.6-6.65,8.37-3.46,6.64-8.52,2.46-12.27S-275.68-955-268-961.46A36.09,36.09,0,0,1-241-970c18.77,2.17,32.2,9.39,41.72,20.65-3.61,2.89-4.91,4.76-8.22,6.36-6.65,3.89-19.06,6.06-14.3,14.15,3.61,6.34,13.28,1.3,19.92-1.6,21.53-11.4,40-8.36,57.91-4.61,7.94,1.58,17.18,2.74,24.68,4.91,21.81,6.64,49.38-2,70.31,5.19,7.37,2.6,14-1.15,20.22-5.34,9-5.63,16.47-5.63,25.41-1.45,29.9,12.42,37.84,10.54,67.44-10.54,1-.58,3.88-.28,6.78,0C72-935,65.8-929.13,62.34-922c-6.94,15.3,5.91,27.27,24.82,25.26,12-1.15,17.62-11.11,26.86-14,11.12-2.74,11.26,13.44,27,6.21,1.3-.58,4.33-1.58,5.49-1.16,27.29.15,56.31-1.87,61.22,22.82,1.73,7.8,10,7.94,20.06,7.21,9.24.3,16.9-9.37,26-5.62,3.6,10-11,15.16-16.9,22-13.28,14.44-14.88,14.14-31.76,6.49-3-1.59-6.79-3.32-9.69-3.17-17.46,2.46-29.73-3.47-42.87-8.53-12.85-4.61-18.91-1.73-24.26,9.68-8.52,16.46,3.32,27,14.16,34.07,9.67,5.93,24.82,11.56,45,2.6,16-7.36,37.25-17.33,52-14.87,19.2,4.2,35.81-3.46,53.71-5.34,6.21-.15,13.43-3.46,20.21-1.88,16.9,3.46,30.48-1.87,42-14.72,9.67-10.69,21.52-12.27,33.49-7.94,9.11,3.18,19.5,5,30.77,2.3,8.51-2.3,17-5.91,12.27-13.14-5.5-8.8,1-17.61,6.06-25.84,9.52-13.28,9.52-13.43,24.12-8.67,11.25,3.76,21.64,11.7,33.78,7.08,23.39-8.81,49.51-9,68.44-25.12,4.91-3.47,10.39-8.23,16.6-7.23,12.56,3.63,24.55-4.33,36.39-5.61,22.37-2.46,40.57-17.2,63.66-16.18,9.24.15,16.33-6.21,20.66-13.57,6.21-10.84,15.15-15.17,32.05-16.32,21.22-.58,43-7.22,63.53-19.79,16.16-9.95,34.36-18.61,51.69-27.72,7.94-3.46,14.15-4.76,21.37-.43,14,9,15,7.51,25.84-5,18.48-19.49,30.18-41.58,55.74-58.91,7.94-5.63,13.13-14.72,24.39-16.75,15.88-3,12,9.82,18.63,14.45,13,10.1,47.06,10.67,61.79.43,7.66-5.64,7.36-11.85-2.31-13.43-9.81-.43-20.36-.29-30.75-.72-26-.73-28.87-4.63-9.67-18.34,19.34-13.87,31-28.3,38.55-44.19,2.3-5,4.62-9.52,11.69-11.69,23-6.49,46.65-12.56,70-18.19,7.36-2,11.4,1.73,16.73,3.76,6.08,2.15,8.53,7.36,17.63,5.91,29.3-23.24,55.87-48.08,96.16-64.68,15.58-6.35,28.44-14.3,47.35-13-1-3.89-.72-6.79-3-7.64-27.29-15.17-18.92-34.94,2-55.6,12.72-13.14,19.51-27.29,22.24-41.72,2.9-13,6.08-25,23.26-36.1,11-6.92,10.82-14-4.33-16.89-18.49-3-31.78-10.26-35.24-22.81-3-12.42-5.78-24.12-21.36-32.63-8.09-3.48-8-13.72,6.34-17.18,26.87-6.21,34.23-19.93,42.17-33.08,9.24-17.18,15.73-34.36,44.75-45.47,3-1.31,6.79-4.77,6.21-5.92-4.33-13.29,13.58-20.21,27.3-28.45-6.79-4.47-11.85-8.36-17-12.27-17.91-16.45-45.76-28.44-49.66-52,0-4.33-6.21-6.21-13.43-5.77-12.57.28-24.41.71-38.26,3.61-16.46,3.76-26,18.91-43,17.76-16.9-.58-12-18.48-30.47-20.07-1.73-.29-3.31-.29-3.18-1-4.18-1.73-6.49-4.76-1.73-7.94,14.45-10.39,11.12-24.83,27-35.08,12.14-8.09,11.56-19.21,12.57-28.88,1-10.24-.3-16.32-20.36-18.33-17.76-1.3-33.06-8.81-46.06-17.62-4.33-2.89-10.39-7.51-3.75-10.82,33.35-15.88,16.45-35.67,22.38-52.85,3.89-12.13-2.75-25.84-19.35-32.92-16.32-7.79-33.21-12.27-58.62-6.49-27.87,6.21-34.22,4-44.61-10.12H947.11c-.28,1.73.88,2.61-.13,4.91-3.47,9,3.31,14.88,14.86,18.06,16.17,5,25.71,15.45,40.44,21.51,18.05,8.66,17.9,18.76-2,30-16.88,10-36.09,23.81-55.3,9.53-28.87-22.23-71-20.65-112.91-16.17-27.72,3-54.29,5.48-80,4.33-28.72-1-41.87-7.94-31-30.32,8.23-19.06-.28-33.51-24.83-41.88h-159c.14,4.76.58,9.54-3.6,14.45-17.91,23.39-15.45,45.91-22.54,69-6.78,16.88,13.43,29.15,2.61,48.21-12.57-2.31-22.82-14-39-.86-14.58,11.55-25.55,51.54-23.54,65.11,5.78,29.75,33.5,51.54,35.38,82,1.45,17.32,14.58,33.48,40.42,33.48,26,.15,23.26,8.09,20.51,22.11-4.91,26.27,13.57,42.73,41.59,37.24s50.82-5.48,68.87,7.79c3.46,3.63,10.1,5.78,18.76,1.45,7.23-3.61,6.65-9.24,6.94-14.15-1.31-21.51-14.58-29.74-47.36-29.74-12.85.14-26.27.29-31-7.65s8.66-13.87,15.3-20.36c2.9-3.6,6.08-6.64,10.26-8.51,16.76,19.63,74.08,18.18,101.22-4.34,17-14,34.64-19.35,57.32-23.68,47.36-9,89.36-19.93,109.59-59.78,11.83-25.26,38.12-30.17,68.29-17.75,19.78,7.66,32.34,2.75,45-10.83,4.91-5.63,2.74-13.72,17.76-17.32,27.87,15.58,53.84,31.9,95.43,34.21,18.19,1.45,11.55,10,1.31,16.6-10.4,6.36-21.24,11.27-19.36,21.51,6.51,30.9-3.18,61.38-22.37,92-7.8,12.42,5.49,20.21,25,16.46,8.67-1.3,15.6-5.34,23.54-9,34.36-16.45,46.49-15.3,53.57,8.37,7.36,27.15,8.09,55.59,6.93,82.89-1,18.48,2.31,29.73,30.46,32.48,6.06,1.15,17.33.28,16.6,9.09-29.3,5.78-44.47,22.24-63.81,35.81-34.08,22.52-40.86,45.2-42.74,70-1,8.67-6.36,7.81-14,10.11-33.06,9-56,23.39-58.92,47.36-3.46,18.48-13,35.66-28.58,53-20.21,23.39-18,23.54-48.38,14.73-25.4-8.09-35.79-3.76-45,16.75-6.66,14.72-10.26,30.17-25.42,45-8.38-7.08-1-12.72,2.6-18.63,5.49-7.94,11.55-16.18,1-22.24-8.66-5.34-19.49-1.88-30.18,2.31-16.6,6.78-34.36,11.84-51,11.41-19.21.28-30.75,6.94-42.45,17.76-38.13,35.51-81,68.44-114.94,105.11-4.48,5-10.24,9.1-18,9.24-12.55.14-22.81,2-31.61,10.54-4.63,4.91-10.26,5.2-16.47,3.32-22.81-5.63-44,6.07-66.27,12-33.5,9.25-50.68,42.73-90.52,42-2.18-.28-4.91,2.75-7.22,5.2-10.54,10-25.27,13.43-38.12,20.21-25.26,13.72-52.7,6.36-77.82,17.48-14.88,6.92-23.11,4-30-3.9-9-11.27-20.66-20.51-41.16-22.67-5.62-.58-8.52-4.05-12.27-7.51-21.52-24.54-42.45-22.24-69.3,8.66-10.84-10.24-22.09-19.2-43.9-15.3-10.24,1.44-17.18-2.45-23.54-6.78-9.09-6.79-20.49-10.12-35.94-5.36-10,3.05-16.75,2-16.17-6.19,1-16.75-13.3-16-31.63-13.44-29.88,4.63-58.62,18.48-88.93,23.83-35.08,5.77-66.71,4-99.49-.87-19.93-3-24.84-16-31.48-27.87-6.34-10.82-17.9-13.13-34.5-5.91-17.33,7.36-35.09,6.64-40.14-2.89-12.41-22.68-37.68-29.17-70.31-31-33.22-2.16-57-16.46-83.46-27.73Z" transform="translate(984.95 1907.91)"/><path class="cls-7" d="M549.19-1907.91H-419v845.23c.87,1.3,3.18,1.15,3.9,2.75,1.31,2.59,10.68,1.86,14,3.31,22.38,11.12,54.86,9.39,73.63,24.12,3.32,3,8.81,2.6,15.16-1.16,20.79-13.57,21.66-5.2,24.12,7.37,5.19,21.66,36.67,31.76,61.08,22.52,24.54-9.53,24.67-9.53,32.33,6.78,4.18,8.38,4.48,18,17.76,21.38,33.07,9.24,70.46,9.37,108,7.5,15.88-11.25,36.39-3.74,51.54-12.7,19.5-11.55,39.86-11.55,59.63-17,10-2.75,13.57,1.16,12,7.8-.72,3.9-2.88,7.94-3.18,11.84-.86,9.67,4,12.12,16.75,7.36,27.87-10.24,28.15-10.39,43,2.6,4.91,4.47,10,10,19.78,6.64,23.39-8.23,34.94-1.15,41.44,12.7,2.74,4.78,7.51,8.52,15.88,5.06,7.51-3,5.91-7.07,4.33-11.84-2.45-9.24,6.94-12.85,16.89-15.88,9.68-2.89,24.26-8.09,26.86.57,5.63,16.18,15.88,24.27,39.7,25,8.38-.15,12.86,8.94,18.92,13.85,2.59,3,3.46,6.94,5.49,9.54,4.76,4,12.12,5.91,19.91,7.07,8.09.72,9.84-5.34,14.45-8.67,6.79-5.33,15.15-4.76,23.54-5.33,41.57-1,76.38-14.88,106.55-42.3,5.64-.3,7.94,2.58,11.55,5.19,5.34,4.48,11.69,3.32,16.46-3.76,12.71-18.48,33.35-30.9,58-38.4,21.81-6.35,44.9-21.8,66.28-7.23,7.65,5.36,14.15-.72,17.91-7.79,4.31-8.81,9.37-14.15,22.51-9,12.28,4.63,23.54-3.46,27.73-11.12,8.36-16.6,20.21-29.88,42.44-38.82,3.61-1.6,7.22-5.35,8.37-8.24,10.54-19.35,36-31.18,51-49.38,5.63-7.36,19.21-12.42,24.54-21.08,2.16-3.18,6.21-4.47,10.83-4.76,37.11-2.31,48.95-4.48,74.5-15.31,6.65-3,12-3.6,17.77-1,6.34,3,4.76,7.52.43,11.85-3.9,4.91-8.24,9.24-12.85,14.29-5.78,6.07-6.65,12.28-1.88,16.9,3.18,3.76,9.1,4.91,15.73,3,9.67-3,19.51-10,17.76-14-6.21-15.16,18.05-28,15.75-43.31-1.73-10.83,13.13-16,25.84-9.68,9,4.2,19.21,6.5,28.3,10.41,9.52,3.75,18.63.13,22.38-5.64,11.55-22,38.84-41.44,41.3-64.83,3-18.63,8.51-36.09,40.12-47.93,7.09-2.9,11.27-7.94,19.21-4.63,5.49,2.75,12.57,4,18.2-1,7.07-5.21,7.22-10.25.72-14.15-13.29-6.94-7.08-14.73,3.89-23.39,6.36-4.48,12.27-9.39,5.93-14.58-10.26-8.38,1.73-14.3,12.85-18,12-3.76,20.06-8.24,23.54-16.9,6.34-13.43,19.34-23.1,41.87-24.55,5.62-.57,12.55-2.88,17.46-4.76,12.27-4,13.57-9.81,3.76-13.14a208.51,208.51,0,0,0-28.73-6.06c-27-3.33-31-6.36-21.66-26.27,2.16-6.07,10.24-12.85,3.18-17.78-12.57-8.65-8.52-21.36-7.66-32.63,1.3-16.3,3-31.33-9-45.48-5.35-5.91-1.45-16.3-19.5-14.29-13.42,1.88-28,.72-37.24,11-4.63,5.92-13.87,8.37-21.81,11.7-9.39,3.46-16.31,3-21.51-2.32-4.61-5.19-.58-9.38,7.51-12.7,13.28-5.64,15.45-10.4,5.78-17.33-4.33-3.18.28-7.51,4.33-11.4,11-9,15.88-18,8.65-29.9-6.92-10,9.83-25.26-2.73-36.38-1.45-1.58,4.48-3.76,8.23-5.49a176.23,176.23,0,0,0,17.18-7.06c9.82-5.93,14.28-12.85,10.82-20.81-3.32-7.36-12.41-8.22-24.83-4.76-9.53,3.76-17.32-.15-24.4-2.16-24.84-8.23-48.51-17.32-64.54-32.49-3.75-3.74-7.08-8.52-19.2-4.76-3.46,8.38-7.08,17.75-12.57,26.42-9.09,14.59-16,16-31.33,6.63-21.79-13.27-34.65-12-61.21,2.18-17.19,9.67-26.43,19.78-32.05,33.21-5.06,12.12-12.27,25.11-33.5,29.45-24.55,3.9-48.37,14.44-74.36,16.75-20.65,1.45-38,8.51-45.48,23.39-3,5-8.81,11.55-16.62,8.37-14.57-6.64-24.09,2.17-36.23,7.23-18.91,8.66-29.6,4.76-27.73-10.4,0-5.93,4.06-12.56-7.51-14.44-17.6,11.54-28.87,27.29-46.78,38.41-9.24,6.34-9.52,13.85,2.61,16,16,2.6,28.44,12.7,50.38,3.6,5.36-2.17,14.3-2.6,15.9.86,8.66,10.69,16.6,21.81,11,38.56-22.82-19.49-41.44-24.84-66.42-18.91-35.66,7.64-50.1,1-51.4-23.11-.73-6.06,4.33-11.84,7.21-17.47,9.39-16.89,3.61-21.37-20.49-15.44-12,3-21.23,3.46-25.13-2.75-9.38-12.57-33.06-20.21-19.92-41,3.89-6.08-1.45-11.69-6.51-15.6-14.72-11.26-27.14-24.11-18.61-43.17,2-5.2-.87-9.39-6.79-10.69-18.77-4.76-8.66-14-2.75-24.11,4.19-6.49,12.85-13.28,12.42-20.94-.72-7.94,3.32-16,15.88-17.61,11.55-.87,4.76,10.12,10,14.45,1.58.71,3.61.57,5.91,1,30.47-18.05,30.47-17.33,20.21-35.38-12.27-24.39-3.46-51.39,9.69-77.68C540.39-1887,547.89-1897.51,549.19-1907.91Z" transform="translate(984.95 1907.91)"/></g><g class="cls-5"><path class="cls-6" d="M1769.49,797.1c-10.46.59-20.06-2.73-18-8.65,6.29-16-16.53-23.54-32.76-32.2-17.4-9.09-38.13-15.45-54.94-24.54-11.7-6.66-19.5-7.94-32.2-5.06-19.21,2.88-38.7,5.34-58.77-5.06-9.1-4.91-20.36-7.51-29.31-3.46-8.23,3.89-.72,10.1,2.31,15.88,8.66,17.33,21.23,36,10.39,52.7-7.07,10.69-6.78,20.07.58,32.63,7.66,13.44,13.57,24.55,39.42,28.87,3.32.3,6.93,2.75,7.51,4.2,5.63,13.13,16.45,27.86,3.9,39-12.42,11.57-24,21.09,1.45,34.23,5.19,2.31,3,7.22,2.3,10.82-3.17,5.49-1.59,10.4,6.21,14.73,20.94,11.69,12.56,28.59,27.58,41.29,4.61,4.34-.15,10.55-7.94,10.69-29.17,4.62-36,19.49-47.65,32.63-17.76,18.91-5.92,32.35,31.77,35.67,38.26,3.9,38.4,3.75,48.94,24.41,2.45,4.31,10.47,7.94,7.36,13.7-14.87,7.51-34.51,9.69-54.72,10.54-16.75.43-23.09,5.78-24.39,15.17-.73,18.62-6.08,36.82-46.65,38-8.22.15-12.4,3.76-14.28,7.64-6.66,11-22.53,17.48-39.86,21.53-22.09,5.77-28.45,15-24.12,29.45a46,46,0,0,1,.73,4.76H1373c4-1.73,6.79-4.18,15.08-3.32,41.72,5.2,48.51-12.41,54.14-28.88a182.1,182.1,0,0,0,10.12-45.91c3.9-19.93,19.78-28.87,52.84-31.32,59.77-4.78,78.4-40.87,37.54-70-2.61-3-6.79-5.49-9.52-7.65-23.84-19.35-20.36-24.54,6.63-38.26,22.82-11.55,21.8-34.94,53.72-43.17,3.31-.87-3.76-6.79-6.08-10.39-13.57-20.94-22.81-42.9-20.79-62.38,6.51-44-35.23-78.26-71.9-113-18.2-17.47-31.18-35.38-21.51-49.82,10.82-14.73,34.51-28.58,62.23-30.76,28.15-2.73,52.84-7.94,78.69-12.7,16.32-3.6,33.2-3.75,50.83,1.73,23.17,7.66,47,10.69,71.82,14.73,39.07,5.63,48.37,14.44,37.4,34.65-11.7,21.52,9.31,38.27,53,40.57,18.41.58,36.46-3,55.37,1.73-7.29,11.85-25.34,16.33-46.71,15.32C1813.68,796.67,1791.87,795.67,1769.49,797.1Z" transform="translate(984.95 1907.91)"/><path class="cls-6" d="M1427.32,420.88c-22.38,6.94-48.23,1.88-72.56,3.33-3.46.58-9.31-1.15-14.22-3.33-38.77-13.7-44.76-24.39-29.53-46.05a62.69,62.69,0,0,1,4.7-5.34c6.27-7.94-.51-12.85-14.29-16.9-4.63-1-9.1-3-13.72-2.88-31.33-2.6-60.43-8.09-88.23-18.2-10.24-3.31-20.64-3.17-31-1-29.32,5.21-52.41,19.49-90.25,12.7-5.91-1.43-9.52,2.75-13,5.5-7.22,8.37-8.8,20.07-34.36,16.16-1.31-.57-7.66,3.48-7.22,5.93.58,12.85-2.75,28,12.85,38.26,17.76,11.83,26.85,25.4,41.29,37.68,20.07,17.19,23.67,37.11,43.18,54.15,5.91,5.05,8.08,12.85,4.46,17.61-21.36,21.66,19.07,45.63,7.08,67.87-1.3,3.17,5.49,6.78,11,10,20.21,14.15,20.21,14.73-4.91,21.22a124,124,0,0,1-17.32,4.63c-10.55,2.3-17.76,5.91-10.55,13.7,11.12,13.72,1,17.33-19.91,20.51-27.15,2.6-29.6,9.09-11.27,24.39A239.67,239.67,0,0,0,1113,703.16c38.11,22.23-9.24,35.23-9.39,53.42,1.15,9.24-12.72,14.59-30.33,14.87-9.24.15-18.91.15-27.87.87-27.14,1.58-33.48,5.63-35.94,21.66-3.47,17.18-8.51,34.79-11.56,52.69C995.6,857.94,986,866,977.27,875.12H879.38c10.82-9.39,26.57-16.6,50.53-18.91,41.73-5.06,46.64-16.47,25-39.42-20.36-21.95-16.61-42-1.59-61.22,14.43-17.76,42.45-5.63,64.11-4.76,19.34.28,39.85,2.73,48.94-9.67,8.23-12.29,4.91-25.13-9.37-36.68-9.11-8.09-21.38-13.43-36.11-17-15.45-3.91-28.45-10-39-18.06-11-7.79-23.24-15.73-12.4-25.56,9.67-8.65,24.39-9.09,40.72-4.32,8.22,2,17.75,8.37,24.24,2,6.36-5.76-4.91-10-9.67-14.29-32-26.13-22.53-40.43,24.69-41.15,58.33-1.15,71.62-17.33,40.28-48.36-10.54-11.27-14-20.8-11.55-32.5,5.34-21.22-2-27.85-37.11-36.09-17.61-3.9-25.4-9.09-14.58-17.33,15.16-12,7.66-21.21-9.67-33.06-34.65-24.54-29-52.26,3.32-70.46,35.95-20.79,88.22-19.92,132.11-30,42.16-10.25,90.53-10.25,140.57-4,12.92,1.59,22.51,1.29,26.85-4.9,9.24-13.73,24.47-25.42,31.91-39.72,6.78-15.45,13.57-31.33-27-42.44a19.17,19.17,0,0,1-11-7.52c-20.21-25.41-39.57-50.38-85-66.13-5-1.58-9.6-5.76-8.16-8.94,4.18-11.85-11.12-22.39-16.6-34.23,21.8-1,42.31,4.48,51.61,16.17,15,20.51,40.07,34.36,72.34,46.21,18.41,6.93,29.31,14.72,21.23,26.57-7.65,10.11-3.54,17.32,16.89,25.12,21.3,7.93,30.61,20.07,28.08,33.78-2.31,17.77-10.75,34.65-23.68,51.26-6.57,9.24-6.28,17.47,7.29,26.42,14.59,9.54,25.2,22.1,42.45,31.05C1450,385.37,1453.45,404.43,1427.32,420.88Z" transform="translate(984.95 1907.91)"/><path class="cls-6" d="M1781.54,679.15c-2.45,7.51-13.57,9.09-24.17,4.61-23.32-10.1-46.13-8.8-65.41-5-21.3,3.89-44-1.88-65.76,1.58-32.78,5.06-58.92,23-100.79,15.3-2.88-.58-6.94,1.45-8.8,2.6-12.57,7.94-30.17,13.15-43.75,20.51-23.11,11.55-19.5,42.15,5.62,58.47,35.53,22.09,35.81,22.09,6.36,42.16-1.3.44-.43,2.6-.43,3.6,45,4.63,71,17,61.08,37.84-10,19.49,7.21,32.78,16.16,48.66,2.32,3.18,5.93,5.63,7.08,8.66,13.14,19.49-13.14,40.57-48.23,36.39-21.36-2.46-43.3-4.34-50.24,6.93-7.23,12.12,9,21.79,27.87,29.3,13.85,5.34,15.58,12.42,4.91,19.79-9.54,6.35-18.48,10-30.77.29-5-3.47-10-6.36-16.88-7.51-10.25-2.9-16.9,1-23.54,4.19-5.19,2.15-8.24,6.78-2.16,10,16.46,7.94,23.24,22.81,49.09,25.27,38.84,5.34,68.87,33.49,56,61.93-4.48,9-10.54,13.87-26.14,14.15-21.22.3-42.3,2.6-64.54-4.18-11.26-3.61-19.91-3.61-26.85,3.61-18.48,18.2-15.6,44,11.55,63.82,13.87,9.52,15,17.91,3,26.56-8.24,6.5-17.18,14.29-30.46,14.29-21.88.3-36.18,5.78-47.37,13.72H1195.78c5.63-2.75,9.68-5.91,19.63-7.66,23-3.88,44.19-5,67.87,3.91,15.45,5.48,33.78,4.91,36.82-6.79,4.47-21.94,33.21-34.79,43.89-54.14,5.63-8.09,11.84-15.3,9-24.84-4.63-13.28-2.32-25.84,2.6-38.69,4-8.52,3.61-17.33-5.5-25.55-19.06-15.75-13.71-34.8-26.56-51.84a5.9,5.9,0,0,1-.29-9c15.73-14.29,23.39-32.18,47.78-40.85,28.6-11.12,32.63-27.29,22-45.62-6.64-13-.15-18.35,17.33-22,6.92-1.15,12.7-4.33,18.18-6.64,18.06-6.06,26.14-2.88,28.45,10.54,3.33,14.73,8.94,18.06,30.6,15.45,6.21-1,11.12-3,16.76-3.46,11-1.16,24.41,0,23.68-9.68-1.15-9.09-3.47-16.88-21.38-20.79-21.36-4.33-30.17-14.58-37-26.57-5.77-10.69-14-21.66-32-29.3-5.62-2.6-12.56-6.51-13.71-11.12-3.33-10.26-12-12.85-26.57-9.53-10.54,1.73-16.17-4.19-12.57-7.52,14.6-12,1.31-18.91-13.57-28.43-16.31-9.68-17.18-20.22-1-23.25,25-4.91,33.06-16.61,39.41-30.18,15.45-28.15,59.63-36.39,93.71-50.67,30.61,3.31,44-13.87,71.9-14.29,2.88.14,8.09-2.61,8.52-4.78,4.33-9.52,19.2-11.83,28-18.19,7.51-6.21,18.19-6.35,30.18-.42,16.46,8.66,32.13,15.3,49.81,5.76,3-1.58,9.17-1.58,13.57-.28,20.94,6.79,27.22.86,30.18-8.81.65-5.19,11.62-7.79,9.59-14.73-24.82,1.88-44-6.21-60.63-16.9-6.93-3.74-13.22-8.51-6.43-14,11.41-10.67,9.46-21.21,1.3-34.65-12-21.37-19.35-26.28-54.44-24.83-5,0-11.25,2-14.58-2C1624.6,528.12,1619,521.48,1617,515s8.94-6.78,15.88-9.09c18.48-4.18,15.3-13.85,12-24-3.46-10.54-18.33-9.81-28.87-13.57-12.85-5-22.52,0-34.94-1.15-9.39-3.46-17.33-8.24-22.81-13.87-6.49-10.67-17.61-19.92-31.63-27.85-26.85-14.73-50.81-30.91-67.85-49.53-8-8.09-19.65-12-33.22-15.31-30.6-6.78-60.35-15.3-92.4-20.21-24.55-3.32-57.33-7.94-63.24-33.78-2.73-11-15.88-7.81-21.08-2.32-7.22,8.53-19.06,10-34.51,5.2a62.63,62.63,0,0,0-24.4-2.31c-22.66,2.46-36.81-5.63-47.78-19.78a112.81,112.81,0,0,0-42-36.68c-7.51-3.46-11-8.8-15.3-14.28-6.66-7.81-7.37-19.93-24.12-20.8-16-1-36-.43-40.14,11-8.51,24.11-41.44,24.55-70.32,28.16C930,257.69,923.34,271.11,904.56,275c-7.51,1.88,1.73,13,3.18,19.79,1.15,9.52-3.18,16.75-16.75,16.3-21.81-.28-35.24,6.51-49.67,13.87-27.59,13.72-63.25.58-71-24.84a29.59,29.59,0,0,1,18.19,4.19c33.35,14.59,46.2-10.4,73.49-8.22,6.79.85,13.29-1,16-5.78.72-.86.58-2.46.58-3.61,1.87-13.87.72-26.85,13.86-39.27,16.46-17.05,12-21.08,46.21-13.29,18.91,3.6,37.39,3.32,46.35-5.77,8.65-10.54,22.22-17.9,32.76-26.86,19.78-15.73,68-5.77,75.52-32.78.73-1.29-1-.43,2.31-.43,14.58.43,21.94-4.48,28.59-11.69,8.95-9.25,24.83-5.49,37.54,1.15,16.46,9.39,36.09,18.63,32.91,34.36-1.73,5.2-8.36,7.23-16.6,6.78-19.93-1.86-36.24,2.33-54.42,4.06-11.27,1.44-26.29-.3-25.27,11.26,1.58,10,9,19.64,23.82,24.83,17.76,6.65,32.78,17.62,52.56,21.38,15.58,3.45,16.74,9.66,11.69,19.19,20.64-6.92,42.45-2,62.81-2.46,24.82-.28,44.9,9,55.87,24.56,12.7,18.76,31.91,24,56.9,26.7,36.09,3.76,69.59,14.87,102.35,28.3,33.8,14,51.11,36.68,79,54.29,6.51,4.33,10.69,11.41,20.51,9,31-6.93,36.24,9.09,48.08,20.49,9.24,7.08,22.24,12.57,32.2,20.08,4.91,3.89,8.67,9.09,16.89,11.4,6.06,4.63,12.27,8.81,18.27,13.42,6.64,4.48,11.55,9.39,6.64,14.15-11.62,10,1.66,13.87,15.88,17.48,16.53,3.9,31.76,8.38,34.29,19.63,3.1,9.69,11,16.47,26.79,20.94,8.16,2.45,12.42,6.21,10.46,10-7.29,13.72,11.77,19.21,29.46,24.12,12,3,24.47,8.09,21.22,15-5.49,10.67,0,23.52-10.83,33.21C1800.47,652.3,1788.55,664.7,1781.54,679.15Z" transform="translate(984.95 1907.91)"/><path class="cls-6" d="M-984.95,262.17c8.58-16.89,26.55-25.77,58.16-25.37a64.94,64.94,0,0,0,29.46-5.32c6.7-2.41,13.72-4.42,18.66-8.07,20.64-31.31,38-36.75,90.06-28.52,8.42,2.33,14.84,0,21.36-1.42,14.62-6.57,42.74,10.68,48-8,4-14.15,22.78-22.1,23.38-36.28,2-38.78,2.08-38.06,55.18-41.59,20.92-1.38,34-9.94,32.13-26.45.16-8.29-6.4-15.65-9.72-23.82-5.69-11-4.2-20.3,6.77-27,10.12-6.47,23.23-6.32,36-2,24.28,8.41,51.13,13.88,66.6,33.53,3.62,4.65,9.71,8.13,16.46,11.1,8.18,3.8,17.46,6,25,.75,6.12-4.82,3.7-10.33-.45-15.8-3.29-4.25-6.78-7.91-10-11.73-17-22.52-10.05-39.65,13.59-53.42,24.79-13.92,62.68-2.51,96.73,10.82,15.44,6.27,39.87,12.19,43.45,27.32,3.45,16.46,16.78,19.64,34.75,22.83,8.8,1.71,16.58,4.68,25.16,8.3C-226,78.6-204.48,75.11-187.66,48.35c6.56-9.52,13.82-12,29.24-9.5,33.67,5.37,63.77,19.62,90.5,35.13C-48,86-29.08,93.14-6,94.27c10.12.8,20.57,1.72,30.31,5.34,54.54,20.43,114.07,16,170.7,30.8a31.82,31.82,0,0,0,11.55-.67c23.68-5.06,40.24,2,56.31,15.86C274,155.46,286.5,165,297.08,175.49,314.74,194,340,204.05,369.29,201.22c24.76-2,42.41,4.45,58.2,18.25,5.36,4.6,11.53,12.43,20,9.21,21.29-8,50.78-10.65,57.64-28.5,6.62-19.7,26.45-25.31,53.42-27.13,19.3-1.61,36.47-4,43.88-18.41,5.07-9.77,21.61-8.86,35.84-8,44.1,1.49,83,15.11,120.79,31.9,34.94,15.85,62.64,15.26,89.68-.53,6.93-4,15.52-6.24,24-7.27a31.21,31.21,0,0,1,13.36,2.3c3.8,1.3,8.3,3.66,11.2,1.12,24.56-24.07,57.85-32.6,106.27-21.89a54.08,54.08,0,0,0,16.48,1.49c28.51-3.45,53.19,5.78,77.61,15.19,14.21,5.69,28.37,11,44.56,13.65A285,285,0,0,1,1169,193.78c4.73,3.06,9.73,5.94,15.69,9.58,2.54.57,4.35,2.24,6.24,3.46,4.3,3.13,11.21,6.07,17.37,9a24.19,24.19,0,0,1,8,6.3c7.92,8.92-10.36,20.15,10.82,28.07,17.25,6.77,22.24,16.78,22.57,27.8,1.86,16.64,10.69,31.87,37.88,41.37,1.41,3.32,3.79,6.09,9.89,7.24,17.41,11.57,5.9,18.63-9.84,23.15-19.51,4.7-40.68,6.38-59.4-2.84-6.63-3.12-6-7.85-1.32-10.9,21.41-14.22,5.31-24.63-13.41-33.86-16.65-7.72-26.43-16.43-28.35-28.71-.09-5.51-5.45-12.56-16-6.92-15.37,8.7-41.9,16.7-37.92,31.49,6,21.82-42.67,27.13-34.17,49.37.67,1.81-8.21,4.2-13.42,4.39-21.54-.16-46,5.86-61.89-10.25a15,15,0,0,0-14.11-3.67c-13.25,3.5-25.46,8.46-27.91,18.22-1.32,8.3,7.22,14,19.15,18.77,25.61,10.86,55.51,14.08,85.19,18.91,21.07,3.42,33.78,2.74,38.43-10.46,1.74-6,5-12.54,19-11.18,11.54.49,20.1,5.13,21.05,11.7,3.42,11.36,16,16.53,32.3,20.51,14.45,4.07,27.88,10.44,25.64,20.75-1.69,10.1-17.48,15.36-32.13,15.82-44.8,1.07-60.61,19.41-77.81,38.37-12.47,14.75-26.57,26.78-60,16.14-10.25-3-19-.9-24.89,4.61-5.54,5.92,2.86,9.26,9.93,12.34,20.56,8.84,18.81,22,17.2,34-1.52,10.22,1.33,19.33,4.87,29.38,7.87,21.74,17.6,43.24,23.61,65.2,7.55,22.79-12.29,47.44,16.21,70.17,5.89,4.23,4.64,12-2.11,17.43-22.32,17.39-29.69,40.68-55.85,57.52-16.11,9.95-12.6,19.7-6.23,33.91,12.75,29.58,67.92,55.19,15.89,93.93-21.63,14.68-38.07,30.34-70.18,35.4-37.86,5.61-61.7,15.33-69.48,41.15-5.33,17.22-15.88,37-53.9,38.82-13.39,1.17-23.29,7.18-25.32,15.57-1,3.61-4.44,6.5-6.66,9.82l-89,10.78c4.35-6,9.3-12,16.69-17,21.88-15.16,34.87-31.57,34.86-52.07-.88-15.6,10-26.38,39.7-24,11.48,1.08,20.67-2.36,25-9.42,6-12.81,22.33-19.73,40.08-25.81,17.77-5.79,26.78-15.31,32.29-26.31C934,890.12,947.55,871,934.55,849c-4-6.22-2.1-12.55,3.88-18.37,25.5-22.42,24.78-48.82,30.61-73.95,3.41-16.27-5.49-27.26-36.39-27.88-20.1-.18-32.65-6.51-25.92-19.41,8.3-14.37,9.06-29.75,13-44.77,5.19-18.38,16.36-33,54.06-31.57,13.54.11,25.65-4.41,37.75-7.77,4.2-1.24,9.13-2.57,13.61-4.12,4.07-14.32-17.11-15.09-30.15-17.14-28.17-4.45-41.58-15.47-43.89-32.06-1.76-13.46-11-24.43-25.88-33.67-18.32-10.72-19.17-21.24-6.47-33,9.59-9.6,17-18.34,7-32-8.43-11.92,12.06-24.15,34.51-22.51,7.07.75,14.54,5.95,25.84-4-38.93,2.83-63.2-16.2-96.8-18.67-23.85-2.35-30.39-12-14.82-22.64,12-9.17,9.57-17.15,1.14-26.6-19.4-22.09-31.71-45.75-50.51-67.63-17-19-46.73-33.9-53.92-56.16-.27-1-3-1.66-4.24-2.54-30.87-14.72-60.47-30.91-95.26-39.64-41.38-10.12-84.72-10.1-116.5,3.64-22.47,10.29-44.64,23-66.49,35.83-30.42,17.79-35.93,17.88-73.37.6-24-11.05-49.9-26.53-74-28.28-41.2-2.7-68.11-19.52-96.24-36.9-8.09-4.27-16.7-7-25.82-5.47C174.83,188,134.16,174.14,95,156.79c-10.17-4.73-20.6-8-31.85-7.2-23.56,1.25-46.64-4.38-68.59-11.46C-22.7,132.65-38,130-55.34,130.93c-26,1.69-49.12-4.52-64.4-22.6-18.83-23.31-21.75-23.39-54.55-16.8-40.15,8.2-82.9,10.77-128.83-2.14-34.5-9.93-68,2.58-103.9-6.61-.9-.18-3.45,1.58-4.87,1.9-29.36,15.78-65.17,17.93-103.54,16.91-15.75-.27-30.92,1.7-37.55,13-5.72,10.43-14.55,16.73-31.18,18.74-8.78.78-17.37,2-9.52,12.65,11.81,15.88,3.37,36.25-13.9,46.19-33.79,18.79-74.11,31.67-112.8,46.1-10.34,4.61-21.79,8.6-35.22,7-26.14-3.39-49.66.62-74.91,3.4-43.47,5-70.3,27.27-107.52,38.18-5.79,1.43-9,6.33-10,10.82-2.48,17.89-14,28.59-28.09,37Z" transform="translate(984.95 1907.91)"/><path class="cls-7" d="M-979.85,304.21c9.39-6.52,15.47-15.11,16.71-25.3,2.68-20,19.31-29.1,40.7-33.87,18.21-4.53,34.74-9.73,45-19.85,17.89-15.54,53.32-.5,71.48-14.92,2.51-2.19,11.7-.68,18.7-.52a25.27,25.27,0,0,1,2.69.55c20.42,8.88,37.56,3.88,53.92-1.58,15.93-5.28,28.69-14.1,43.8-17.82,19.64-4.7,40.35-5.47,46.19-22,.81-1.71,4.55-3.32,7.46-3.24,26.36,1.46,27-15.19,35.67-26.14,4.2-6.17,7-12.18-10.19-16.94-11.34-3.42-10.16-13-.85-17.78a38.05,38.05,0,0,1,20-3c14.78.82,22.67-3.77,24-14.55.51-9.07,9-13.45,20.91-14.74,11-1.63,22.63-2.89,35.35-2.25,32.91,1.39,66.12-.59,89.66-17.56,6.84-4.75,14.08-6.2,23.8-1.57,14.09,8.18,28.7,7.59,42.57,4.45a90.41,90.41,0,0,1,55.75,5.17C-286,65.12-274.87,68-264,66.66c32.2-2,67.7,3,96.39-9.93,14.88-6.75,39.8,2,45.92,12.9,15.57,26.47,35,34.6,73.05,29.12,10.84-1.75,18.93.18,28.57,4.1,27.18,9.5,55.16,19.5,85.3,15.12,10.87-1.62,20.24,3.65,30.71,8.49,36.2,17.87,75.69,31.7,118.45,24.49,8.4-1.46,18.92-4.63,23.15.25,13,14.85,38.07,20.11,52.82,32.58,8.6,7.38,16.62,9.91,26.74,7.08A47.45,47.45,0,0,1,353,196.12c25.05,13.54,54.62,21.16,80,34.52,17.16,9.57,23,8.13,38-2,10.88-7.43,20.93-15.77,36.8-19.15,14-3.3,24.11-8.74,28.43-18.72,2.27-5.22,7.22-8.73,16.59-9.43,25.39-1.76,50.61-6.13,75.76-5,17.7.76,40.34-3.29,55.51,11.6,31.66,3.14,50.2,19.37,74.1,31.74,3.45,2.07,9.61,2.48,14.86,2.71,8,1.07,12.57,4,11.09,8.69C779,247,794.3,258,813.9,268.55c7.13,3.5,16.13,7.06,16.42,13,2.07,12.26,10,22.63,24,32.14,5.41,3.85,8.76,8.69,8.05,13.57-1.26,5.25,1.4,9.29,7.52,12.91,10.25,6.61,12.62,15.33,19.24,23.12,8.33,8.74,7,14.57-7.35,18.63-8.09,1.56-15.52,3.92-12.34,9.79,4.06,7.06,15.27,7.16,24.37,6.64,13.2-1.45,26-.38,35,6.81,10.45,8.19,20,13.59,38.45,7.57,9.08-3,16.58,2.49,23,7.11,4.92,3.32,7.05,7.72,3.86,11.46-5.86,5.65-15.71,4.81-25.81,4.29-8.3-.16-11.67-7.61-23-7.11-1.68,7.76-36.93,10.86-4.15,24.64,5.59,1.65,2,6.6-.55,9.81-7.27,7.29-10.59,17-21.23,24.09-10.65,6.82-9.27,12.33,5,19.62,18.07,9.88,34.14,21.32,34.15,38.19.08,18.61,6.61,22.17,38.13,27.81,19.59,3.3,37.6,9,44.17,21.26,3.92,5.93,2.29,11.65-11.72,6.51-5.47-2-11-2.44-14.35,1.59-13.3,7.87-29.83,14.23-49.27,12.22-21.94-3.29-27.6,3.93-34.12,13.74-11.71,21-4.32,44.75-21.15,65.53.1.87,2.73,2.15,3.64,3.64,11.52,1.36,22.68-.12,34.35,1.37,28.11,4,24.72,3.54,28.11,20.73,5.18,27.15-17.94,51.19-13.79,78.32,1,3.65-3.62,6.11-9,7.06-23.08,4-17.08,15-11.58,23.36,11.81,14.58,6.71,27.7-1.77,41.81-2.52,4.38-7.29,8.16-8.25,13.51-2.35,17.74-18.79,29.77-45,36.72-15.25,3.89-28,8.18-30.79,20.74-3.24,16.54-4.61,17.3-31.66,12.43-20-3-29.11-1.42-29.78,11.16-.78,4.32-4.63,8.57-2.82,12.72,7.87,18.09-9,31.19-26.22,42.88-8.58,6-15.85,11.94-21.32,18.43L-867.26,1233.6Z" transform="translate(984.95 1907.91)"/><path class="cls-6" d="M-976.8,329.43c27-6.46,54-13.07,80.24-19.61,33.54-8.86,40.07-16.19,29.21-42.22-4-8.82-2.9-15.5,4-20.71,9.94-6.88,20.73-.47,30.19,3.05,8.72,2.43,7.61,7.65,3.91,11.88-3.57,4.07-10.32,8.52-1.93,14a36.08,36.08,0,0,0,27.82,5.23c18.38-4.42,30.84-13.2,38.94-25.53-3.93-2.42-5.45-4.13-8.93-5.32-7.07-3.06-19.64-3.72-15.89-12.33,2.82-6.73,13-2.88,20-.81,22.74,8.73,40.73,3.5,58-2.38,7.69-2.53,16.73-4.78,23.91-7.84,20.85-9.22,49.26-3.93,69.18-13.61,7-3.47,14.05-.54,20.7,2.87,9.58,4.51,17,3.61,25.41-1.62,28.18-15.93,36.29-15,68.21,2.35,1.07.45,3.9-.19,6.74-.81.27-7.32-6.6-12.44-10.89-19.06-8.72-14.36,2.59-27.79,21.61-28.07,12-.3,18.83,8.92,28.35,10.69,11.37,1.37,9.56-14.7,26.06-9.42,1.36.42,4.49,1.05,5.58.49,27.08-3.43,56.13-4.91,58-30,.78-8,8.92-9.08,19.05-9.58,9.14-1.4,17.9,7.28,26.48,2.45,2.38-10.31-12.72-13.72-19.42-19.75-14.92-12.74-16.47-12.25-32.31-2.62-2.82,1.94-6.34,4.1-9.23,4.31-17.63-.34-29.1,7-41.54,13.62-12.2,6.13-18.56,4-25.25-6.69-10.43-15.32.06-27.21,10-35.52,8.89-7.05,23.26-14.47,44.4-8,16.8,5.38,39.07,12.72,53.39,8.51,18.57-6.48,36-.87,54-1.16,6.18-.6,13.74,1.82,20.29-.57,16.36-5.47,30.48-1.8,43.49,9.57,10.88,9.45,22.83,9.59,34.2,3.85,8.65-4.25,18.75-7.36,30.26-6,8.73,1.27,17.62,3.82,13.77,11.57-4.41,9.4,3.11,17.36,9.12,24.93,11,12,11.07,12.18,25,5.7C-102,130.23-92.61,121.1-80,124.22c24.28,5.93,50.23,2.94,71,16.7,5.29,2.86,11.31,6.93,17.36,5.18,12-5.1,24.88,1.35,36.79,1.21,22.51-.26,42.35,12.19,65.15,8.4,9.16-1.26,16.95,4.2,22.14,11,7.47,10,16.87,13.23,33.78,12.35,21.13-2,43.58,2,65.45,12,17.24,7.94,36.35,14.35,54.65,21.31,8.3,2.48,14.62,3,21.26-2.15,12.82-10.58,14-9.26,26.26,1.91,20.69,17.13,35,37.65,62.42,51.78,8.56,4.63,14.81,13,26.24,13.69,16.12,1.1,10.72-11.19,16.75-16.58,11.69-11.59,45.44-16.26,61.29-7.86,8.28,4.68,8.73,10.88-.68,13.61-9.69,1.61-20.17,2.74-30.44,4.42-25.71,3.84-28.11,8.06-7.39,19.36s34.21,24.36,43.58,39.24c2.89,4.72,5.74,8.89,13,10.2,23.58,3.68,47.82,6.85,71.72,9.63,7.55,1.13,11.11-3.09,16.16-5.74,5.77-2.87,7.59-8.34,16.79-8,31.88,19.55,61.25,41,103.24,52.65,16.23,4.42,30,10.77,48.58,7.2-.55,4,.09,6.83-2.09,8-25.27,18.34-14.59,37,8.68,54.94,14.2,11.52,22.64,24.75,27.09,38.75,4.44,12.55,9,24.07,27.43,33,11.72,5.55,12.43,12.6-2.27,17.29-18,5.23-30.31,14-32.23,26.88-1.52,12.7-2.84,24.64-17.29,35-7.61,4.42-6.24,14.57,8.37,16.29,27.41,2.93,36.37,15.67,45.84,27.76,11.23,15.94,19.74,32.22,49.89,39.77,3.17.92,7.31,3.91,6.88,5.12-2.7,13.72,15.9,18.43,30.52,25-6.2,5.26-10.75,9.73-15.45,14.23-15.8,18.49-42,33.74-43.05,57.58.52,4.3-5.42,6.91-12.64,7.34-12.5,1.23-24.31,2.23-38.41,1-16.79-1.75-28.08-15.65-44.85-12.45-16.71,2.6-9.68,19.79-27.84,23.58-1.68.5-3.25.69-3,1.39-4,2.22-5.87,5.51-.77,8.09,15.59,8.59,14,23.33,31,31.59,13,6.57,13.78,17.67,15.94,27.15,2.23,10,1.67,16.24-18,20.65-17.47,3.43-31.76,12.72-43.6,23-4,3.38-9.42,8.7-2.43,11.19,35,11.75,20.63,33.42,28.58,49.77,5.32,11.58.38,26-15.26,35-15.26,9.7-31.49,16.18-57.41,13.5-28.42-2.82-34.45.1-43.07,15.4L489,1069.3c-.49-1.69.55-2.69-.72-4.86-4.53-8.46,1.49-15.17,12.58-19.71,15.44-7,23.66-18.43,37.55-26.22,16.88-10.77,15.52-20.78-5.62-29.57-18-7.86-38.69-19.3-56-2.81-26,25.55-68,29-110.15,29.63-27.89.33-54.56,1.09-79.93,5.32-28.39,4.47-40.61,12.92-27.17,33.84,10.46,17.93,3.75,33.3-19.61,44.56L82.06,1118.59c-.44-4.74-.57-9.53-5.31-13.9-20.59-21.07-20.86-43.72-30.67-65.81-8.77-15.94,9.82-30.56-3.22-48.17-12.2,3.8-21,16.64-38.6,5.54-15.86-9.71-31.56-48.1-31.2-61.81,2.16-30.23,27.06-55.2,25.26-85.68-.64-17.37,10.45-35,36.1-38.1,25.79-3.27,22.12-10.83,17.7-24.41-8-25.49,8.34-44,36.81-42s51.11-.66,67.43-16c3-4,9.33-7,18.45-3.7,7.61,2.71,7.72,8.37,8.59,13.21,1.29,21.52-10.9,31.29-43.44,35.23-12.77,1.4-26.11,2.87-29.9,11.32s10.27,12.73,17.64,18.37c3.31,3.24,6.83,5.86,11.21,7.22,14.27-21.5,71.35-27,101-7.87,18.59,11.87,36.71,15.05,59.75,16.62,48.09,3.18,91.11,9,116,46.16,14.78,23.66,41.47,25.38,69.93,9.42,18.72-10,31.77-6.62,46,5.32,5.55,5,4.36,13.29,19.71,15.07,25.79-18.82,49.62-38.15,90.63-45.44,17.88-3.63,10.26-11.28-.71-16.64-11.08-5.06-22.43-8.63-21.8-19,2.74-31.46-10.54-60.55-33.27-88.62-9.24-11.39,3-20.72,22.81-19.34,8.76.25,16.13,3.42,24.45,6.05,36.09,12.2,48,9.6,52.17-14.75,4-27.83,1.34-56.16-3.09-83.12-3.23-18.22-1.28-29.79,26.33-35.91,5.88-1.87,17.17-2.36,15.39-11-29.79-2.22-46.82-16.73-67.65-27.88-36.54-18.25-46-39.95-50.86-64.37-2-8.48-7.25-7-15.12-8.35-33.89-4.91-58.42-16.49-64.18-39.93-5.66-17.93-17.18-33.84-34.75-49.17-22.87-20.79-20.75-21.19-49.79-8.8-24.25,11.08-35.09,8-46.73-11.21-8.37-13.82-13.81-28.73-30.64-41.67-7.48,8,.51,12.75,4.82,18.18,6.4,7.22,13.41,14.67,3.67,22-8,6.34-19.12,4.2-30.23,1.34-17.3-4.74-35.54-7.63-52-5.21-19.1,2-31.36-3.18-44.27-12.52-42.13-30.67-88.65-58.2-126.75-90.52-5.06-4.48-11.27-7.81-19-7C88.27,243,77.86,242.39,68.1,235c-5.19-4.32-10.81-3.94-16.75-1.33-22,8.34-44.44-.72-67.23-3.93-34.37-5.14-55.45-36.32-94.92-30.81-2.13.54-5.21-2.14-7.79-4.3-11.67-8.62-26.7-10.29-40.27-15.48-26.74-10.58-53.09,0-79.37-8-15.59-5.08-23.42-1.23-29.34,7.49-7.54,12.26-18,22.84-38.13,27.45-5.51,1.25-8,5.05-11.28,8.93-18.41,26.95-39.47,27.18-69.84-.26-9.53,11.47-19.62,21.72-41.74,20.47-10.34-.2-16.76,4.5-22.55,9.56-8.21,7.83-19.12,12.51-35,9.64-10.25-1.82-16.87,0-15.31,8.1,3,16.5-11.27,17.5-29.78,17.14-30.22-1-60.42-11.3-91.15-13-35.52-1.51-66.71,4-98.66,12.83-19.42,5.4-22.73,18.9-27.9,31.45-5,11.51-16.19,15.19-33.54,10-18.09-5.22-35.63-2.37-39.51,7.69-9.58,24-33.89,33.49-66,39.28-32.73,6.14-54.65,23.2-79.53,37.56Z" transform="translate(984.95 1907.91)"/><path class="cls-7" d="M94,1117.15-867.26,1233.6-968.91,394.51c.71-1.39,3-1.53,3.54-3.2,1-2.72,10.37-3.13,13.5-5,20.89-13.73,53.34-15.92,70.2-32.79,2.93-3.41,8.43-3.65,15.19-.68,22.27,11,22.13,2.56,23.06-10.21,2.55-22.13,32.58-35.94,57.92-29.7,25.51,6.5,25.65,6.48,31.29-10.63,3.14-8.82,2.27-18.46,15.05-23.36,31.73-13.15,68.83-17.78,106.32-20.43,17.12,9.26,36.57-.66,52.7,6.41,20.75,9.12,41,6.67,61.24,9.74,10.22,1.53,13.34-2.78,11-9.18-1.19-3.79-3.82-7.54-4.58-11.37-2-9.5,2.56-12.53,15.74-9.33,28.9,6.82,29.2,6.93,42.4-7.76,4.34-5,8.69-11.09,18.84-9,24.21,5.37,34.82-3.05,39.61-17.59,2.15-5.07,6.44-9.36,15.16-6.93,7.82,2.11,6.72,6.31,5.72,11.24-1.32,9.47,8.43,11.92,18.68,13.73,10,1.7,25.06,5.11,26.6-3.8,3.64-16.74,12.84-26,36.4-29.58,8.34-.86,11.69-10.43,17.12-16,2.21-3.32,2.6-7.3,4.3-10.13,4.24-4.58,11.33-7.33,18.92-9.41,7.94-1.69,10.4,4.12,15.38,6.86,7.38,4.49,15.62,2.91,24,2.47,41.4-4,77.62,5.58,110.87,29.18,5.63-.38,7.57-3.52,10.84-6.54,4.76-5.09,11.21-4.71,16.79,1.75C-60.29,210.12-38.3,220-12.89,224.43c22.42,3.69,47.2,16.25,66.67-.79,6.95-6.23,14.13-1,18.71,5.58,5.35,8.23,11,12.92,23.43,6.19,11.63-6.07,23.79.6,28.86,7.7,10.31,15.48,23.66,27.23,46.81,33.44,3.77,1.15,7.81,4.45,9.3,7.17,12.79,17.94,39.45,26.63,56.55,42.89,6.47,6.63,20.56,10,26.9,18,2.52,2.9,6.7,3.69,11.31,3.42,37.12-2.17,49.14-1.44,75.8,6.24,7,2.2,12.34,2.13,17.77-1.13,5.93-3.79,3.82-8-1-11.81-4.46-4.4-9.29-8.18-14.47-12.65-6.47-5.32-8.08-11.38-3.9-16.55,2.7-4.11,8.44-6,15.25-4.9,10,1.85,20.56,7.55,19.32,11.78-4.35,15.79,21.29,25.63,20.84,41.1-.42,11,15,14.33,26.82,6.5,8.37-5.24,18.28-8.76,26.84-13.73,9-4.88,18.48-2.37,22.9,2.9,14.1,20.41,43.54,36.47,48.79,59.39,5.25,18.13,12.8,34.81,45.6,42.76,7.38,2,12.14,6.53,19.62,2.29,5.12-3.39,12-5.54,18.19-1.19,7.64,4.31,8.4,9.3,2.42,13.95-12.36,8.49-5.26,15.48,6.68,22.76,6.85,3.68,13.31,7.84,7.64,13.76-9.18,9.55,3.43,14,14.92,16.37,12.34,2.29,20.91,5.76,25.4,13.95,7.91,12.56,22,20.6,44.52,19.33,5.65-.11,12.81,1.35,17.91,2.62,12.67,2.55,14.65,8.12,5.31,12.6A208.82,208.82,0,0,1,711,583.82c-26.4,6.55-30.06,10-18.35,28.69,2.88,5.76,11.72,11.52,5.3,17.26-11.44,10.1-5.89,22.23-3.68,33.31,3.25,16,6.78,30.74-3.41,46.23-4.6,6.51.52,16.36-17.64,16.54-13.56-.25-27.89,2.65-38.3-6.43-5.3-5.31-14.77-6.64-23.05-9-9.74-2.3-16.56-1-21.08,4.9-4,5.7.56,9.37,9,11.7,13.86,4,16.59,8.46,7.83,16.51-3.92,3.67,1.18,7.42,5.67,10.79,12,7.58,17.93,16,12.18,28.64-5.67,10.73,12.8,23.9,1.66,36.45-1.25,1.75,4.9,3.19,8.84,4.46a174.92,174.92,0,0,1,17.9,5c10.46,4.7,15.73,11,13.25,19.35-2.42,7.71-11.34,9.65-24.09,7.71-9.9-2.58-17.17,2.23-24,5.08-23.66,11.16-46.07,23-60.16,40-3.27,4.17-6,9.31-18.49,7-4.44-7.91-9.17-16.78-15.65-24.72-10.79-13.39-17.84-14-31.9-2.82-20,15.8-33,16-61,5.2-18.23-7.53-28.62-16.46-35.82-29.11-6.47-11.43-15.2-23.46-36.8-25.21-24.83-.92-49.75-8.52-75.83-7.69-20.67,1.05-38.73-3.88-48-17.75-3.63-4.65-10.13-10.4-17.5-6.31-13.68,8.35-24.19.75-36.85-2.81-19.81-6.33-30-1.17-26.27,13.65.72,5.88,5.54,12-5.72,15.24-18.87-9.34-31.94-23.62-51.06-32.5C88.11,788,86.93,780.59,98.7,777c15.6-4.51,26.71-16,49.59-9.64,5.57,1.51,14.5.86,15.67-2.76,7.32-11.66,13.86-23.65,6.26-39.6-20.31,22.09-38.16,29.64-63.66,26.76-36.32-3.3-49.86,5-48.26,29.12,0,6.11,5.73,11.24,9.27,16.48,11.35,15.64,6.15,20.78-18.49,17.79-12.27-1.56-21.49-.88-24.62,5.76-7.79,13.6-30.39,24-14.84,43.09,4.59,5.57,0,11.79-4.58,16.27-13.27,13-24,27.2-13.29,45.1,2.62,4.92.26,9.42-5.45,11.42-18.07,7-6.92,15,.17,24.27C-8.6,967,.82,972.67,1.32,980.32c.23,8,5.21,15.52,17.88,15.58,11.57-.53,3.51-10.62,8.15-15.54,1.49-.9,3.52-1,5.75-1.71,32.43,14.25,32.34,13.54,24.32,32.69-9.24,25.69,2.75,51.44,19,75.95C82.7,1097.43,91.41,1107,94,1117.15Z" transform="translate(984.95 1907.91)"/></g></g></g></g></g></svg>