<svg xmlns="http://www.w3.org/2000/svg" viewBox="0 0 1440 146.39"><defs><style>.cls-1{fill:#f2f2f0;}</style></defs><g id="Layer_2" data-name="Layer 2"><g id="Layer_1-2" data-name="Layer 1"><path class="cls-1" d="M1440,79.4c0,3.84,0,7.39,0,10.71,0,8.39,0,16.47-.22,24.73v1a33.24,33.24,0,0,0-17.76,8.21,71.22,71.22,0,0,0-6.9,6.89c-14.1,30.19-40.1,8-54.6-8.25a31.92,31.92,0,0,0-7.9-5.18,29,29,0,0,0-9.92-2.46c-2.81-.06-5.64-.06-8.52-.06h-46.77c-2,4.74-4.54,6.07-7,7.77-20.36,26.24-48.36,11.08-71.11-2a13.32,13.32,0,0,1-7.11-5.73h-73.53c-2.13,0-4.26-.08-6.4-.12C1105,117.7,1098,98.5,1086,92.43c-9.75-4.93-18.38-2.32-26.39,3.59a89.33,89.33,0,0,0-8.43,6.93C1027,128.82,980,157.12,950,122.76c-3-3-9-2-13-2-18,0-34,8.09-51,13.15-8,2-19-7.08-24-10.11-23-15.17-50,16.17-77,7.07-7-2,1-13.14-3-15.16-28-15.16-70-2-100,15.16-8,4-19,2-24-4-11-11.12-24-9.1-36.46-15.51a54.23,54.23,0,0,1-5.15-3.68c-5.08-4-10-9-15.39-13.16-7-4-15-4-23-1-20,9.1-39,22.24-61.92,21.59-2.63,0-5.26,0-7.89,0C491,112.65,482,129.83,476,143c-1,3-5,4.05-7,3-19-12.13-38-23.25-58.72-29.09a52.28,52.28,0,0,0-9.41-1.88c-2.5,0-5,0-7.45-.06A38.17,38.17,0,0,1,383,112.65c-17-9.1-15-49.53-39-30.33-16,14.15-31,28.31-51.67,34.25a28.46,28.46,0,0,0-6.84,4.62C277.33,128.48,272,139.94,264,142c-35,9.1-61-31.33-82-60.65-4-6.06-13-2-18.53,2.51-2.13,1.58-4.2,3.26-6.25,5-12.27,10.32-23.65,22-40,25.73a72.09,72.09,0,0,1-9.7.5H81.05c-3,0-5.94,0-8.77-.15C54,114.67,50,95.46,37,87.38c-9-6.07-17,3-24,8.08,4-11.12-7-18.19-9-28.3C0,51,0,35.83,0,20c0-3,0-6,0-9.16V0H1440Z"/></g></g></svg>