<svg xmlns="http://www.w3.org/2000/svg" xmlns:xlink="http://www.w3.org/1999/xlink" viewBox="0 0 300.23 392.07"><defs><style>.cls-1,.cls-101,.cls-103,.cls-105,.cls-106,.cls-109,.cls-112,.cls-114,.cls-116,.cls-22,.cls-35,.cls-37,.cls-39,.cls-44,.cls-46,.cls-50,.cls-56,.cls-61,.cls-69,.cls-71,.cls-74,.cls-75,.cls-77,.cls-80,.cls-86,.cls-88,.cls-89,.cls-97,.cls-99{mix-blend-mode:screen;}.cls-1{fill:url(#radial-gradient);}.cls-10,.cls-2,.cls-21,.cls-23,.cls-3,.cls-30,.cls-31,.cls-32,.cls-38,.cls-4,.cls-40,.cls-41,.cls-48,.cls-5,.cls-63,.cls-65,.cls-66,.cls-8,.cls-9{mix-blend-mode:multiply;}.cls-2{fill:url(#radial-gradient-2);}.cls-3{fill:url(#radial-gradient-3);}.cls-4{fill:url(#radial-gradient-4);}.cls-5{fill:url(#radial-gradient-5);}.cls-6{fill:url(#radial-gradient-6);}.cls-7{fill:url(#radial-gradient-7);}.cls-8{fill:url(#radial-gradient-8);}.cls-9{fill:url(#radial-gradient-9);}.cls-10{fill:url(#radial-gradient-10);}.cls-11,.cls-118{fill:none;}.cls-12{isolation:isolate;}.cls-13{font-size:36.73px;fill:#fbdb62;font-family:Poppins-Medium, Poppins;font-weight:500;}.cls-14{font-size:25.71px;font-family:Poppins-Light, Poppins;font-weight:300;}.cls-14,.cls-50,.cls-70{fill:#fff;}.cls-15{clip-path:url(#clip-path);}.cls-16{fill:url(#radial-gradient-11);}.cls-17{fill:url(#radial-gradient-12);}.cls-18{fill:url(#linear-gradient);}.cls-117,.cls-19,.cls-24,.cls-25,.cls-28,.cls-52,.cls-53,.cls-95{mix-blend-mode:overlay;}.cls-20{fill:url(#radial-gradient-13);}.cls-21{fill:url(#radial-gradient-14);}.cls-23{fill:url(#radial-gradient-15);}.cls-106,.cls-24,.cls-25,.cls-38,.cls-40,.cls-41,.cls-52,.cls-95{opacity:0.75;}.cls-24{fill:url(#radial-gradient-16);}.cls-25{fill:url(#radial-gradient-17);}.cls-26{fill:url(#radial-gradient-18);}.cls-27,.cls-28{fill:url(#linear-gradient-3);}.cls-29{fill:url(#radial-gradient-19);}.cls-30{fill:url(#radial-gradient-20);}.cls-31{fill:url(#radial-gradient-21);}.cls-32{fill:url(#radial-gradient-22);}.cls-33{fill:url(#radial-gradient-23);}.cls-34{fill:url(#linear-gradient-5);}.cls-35{fill:url(#radial-gradient-24);}.cls-36{fill:url(#radial-gradient-25);}.cls-37{fill:url(#radial-gradient-26);}.cls-38{fill:url(#radial-gradient-27);}.cls-39{fill:url(#radial-gradient-28);}.cls-40{fill:url(#radial-gradient-29);}.cls-41{fill:#c89472;}.cls-42{fill:url(#linear-gradient-6);}.cls-43{fill:url(#linear-gradient-7);}.cls-44{fill:url(#radial-gradient-30);}.cls-45{fill:url(#radial-gradient-31);}.cls-46{fill:url(#radial-gradient-32);}.cls-47{fill:url(#linear-gradient-8);}.cls-48{fill:url(#radial-gradient-33);}.cls-49{mask:url(#mask);}.cls-51{fill:url(#linear-gradient-9);}.cls-52{fill:url(#linear-gradient-10);}.cls-53{fill:url(#linear-gradient-11);}.cls-54{fill:url(#linear-gradient-12);}.cls-55{fill:url(#linear-gradient-13);}.cls-56{fill:url(#radial-gradient-34);}.cls-57{fill:url(#linear-gradient-14);}.cls-58{fill:url(#linear-gradient-15);}.cls-59{fill:url(#linear-gradient-16);}.cls-60{fill:url(#linear-gradient-17);}.cls-61{fill:url(#radial-gradient-35);}.cls-62{fill:url(#linear-gradient-18);}.cls-63{fill:url(#linear-gradient-19);}.cls-64{fill:#fdf5db;}.cls-65{fill:url(#radial-gradient-36);}.cls-66{fill:url(#radial-gradient-37);}.cls-67{fill:url(#linear-gradient-20);}.cls-68{fill:url(#radial-gradient-38);}.cls-69{fill:url(#radial-gradient-39);}.cls-71{fill:url(#radial-gradient-40);}.cls-72{fill:url(#linear-gradient-21);}.cls-73{fill:url(#linear-gradient-22);}.cls-74{fill:url(#radial-gradient-41);}.cls-75{fill:url(#radial-gradient-42);}.cls-76{fill:url(#radial-gradient-43);}.cls-77{fill:url(#radial-gradient-44);}.cls-78{fill:url(#linear-gradient-23);}.cls-79{fill:url(#radial-gradient-45);}.cls-80{fill:url(#radial-gradient-46);}.cls-81{fill:url(#radial-gradient-47);}.cls-82{fill:url(#linear-gradient-24);}.cls-83{fill:url(#radial-gradient-48);}.cls-84{fill:#6a2e25;}.cls-85{fill:url(#linear-gradient-25);}.cls-86{fill:url(#radial-gradient-49);}.cls-87{fill:url(#linear-gradient-26);}.cls-117,.cls-88,.cls-89{opacity:0.55;}.cls-88{fill:url(#linear-gradient-27);}.cls-89{fill:url(#linear-gradient-28);}.cls-90{fill:#7e5436;}.cls-91{fill:url(#linear-gradient-29);}.cls-92{fill:url(#linear-gradient-30);}.cls-93{fill:url(#linear-gradient-31);}.cls-94{fill:url(#linear-gradient-32);}.cls-95{fill:url(#radial-gradient-50);}.cls-96{mask:url(#mask-2);}.cls-97{fill:url(#radial-gradient-51);}.cls-98{mask:url(#mask-3);}.cls-99{fill:url(#radial-gradient-52);}.cls-100{mask:url(#mask-4);}.cls-101{fill:url(#radial-gradient-53);}.cls-102{mask:url(#mask-5);}.cls-103{fill:url(#radial-gradient-54);}.cls-104{mask:url(#mask-6);}.cls-105{fill:url(#radial-gradient-55);}.cls-107,.cls-110{mix-blend-mode:color-dodge;}.cls-107{fill:url(#radial-gradient-56);}.cls-108{mask:url(#mask-7);}.cls-109{fill:url(#radial-gradient-57);}.cls-110{fill:url(#radial-gradient-58);}.cls-111{mask:url(#mask-8);}.cls-112{fill:url(#radial-gradient-59);}.cls-113{mask:url(#mask-9);}.cls-114{fill:url(#radial-gradient-60);}.cls-115{mask:url(#mask-10);}.cls-116{fill:url(#radial-gradient-61);}.cls-117{fill:url(#radial-gradient-62);}.cls-118{stroke:#efefef;stroke-miterlimit:10;stroke-width:0.92px;}</style><radialGradient id="radial-gradient" cx="671.17" cy="3953.7" r="23.67" gradientTransform="translate(-170.69 -1910.29) scale(0.5)" gradientUnits="userSpaceOnUse"><stop offset="0.01" stop-color="#fff"/><stop offset="1"/></radialGradient><radialGradient id="radial-gradient-2" cx="-5163.15" cy="1275.01" r="7.09" gradientTransform="matrix(0.27, -0.16, 0.35, 0.59, 1108.09, -1467.01)" gradientUnits="userSpaceOnUse"><stop offset="0" stop-color="#fff"/><stop offset="0.14" stop-color="#e2e2e2"/><stop offset="0.43" stop-color="#999"/><stop offset="0.87" stop-color="#262626"/><stop offset="1"/></radialGradient><radialGradient id="radial-gradient-3" cx="-4923.34" cy="1229.61" r="16.96" xlink:href="#radial-gradient-2"/><radialGradient id="radial-gradient-4" cx="-5196.32" cy="1161.25" r="16.99" xlink:href="#radial-gradient-2"/><radialGradient id="radial-gradient-5" cx="-11972.34" cy="-3258" r="29.54" gradientTransform="matrix(0, -0.32, 0.69, 0, 2431.03, -3733.87)" xlink:href="#radial-gradient-2"/><radialGradient id="radial-gradient-6" cx="684.09" cy="3144.77" r="13.41" gradientTransform="translate(-170.69 -1694.49) scale(0.5 0.56)" gradientUnits="userSpaceOnUse"><stop offset="0" stop-color="#fff"/><stop offset="0.21" stop-color="#c4c4c4"/><stop offset="0.6" stop-color="#5c5c5c"/><stop offset="0.87" stop-color="#1a1a1a"/><stop offset="1"/></radialGradient><radialGradient id="radial-gradient-7" cx="655.35" cy="3334.72" r="13.41" xlink:href="#radial-gradient-6"/><radialGradient id="radial-gradient-8" cx="-10415.33" cy="-678.46" r="34.66" gradientTransform="matrix(0.13, -0.29, 0.54, 0.23, 1839.65, -2807.87)" xlink:href="#radial-gradient-2"/><radialGradient id="radial-gradient-9" cx="-10788.42" cy="-632.55" r="16.37" gradientTransform="matrix(0.13, -0.29, 0.54, 0.23, 1839.65, -2807.87)" xlink:href="#radial-gradient-2"/><radialGradient id="radial-gradient-10" cx="-3899.16" cy="1320.5" r="9.7" gradientTransform="matrix(0.37, -0.22, 0.35, 0.59, 1114.55, -1471.3)" xlink:href="#radial-gradient-2"/><clipPath id="clip-path"><path class="cls-11" d="M198.83,56.23A10.16,10.16,0,0,0,195.35,55a13,13,0,0,0-2.47-.14c-.4,0-.79,0-1.18.1a18.83,18.83,0,0,0-8.8,3.75,24.14,24.14,0,0,0-2.58,2.76c0-.16,0-.33,0-.48-.06-.89-.12-1.59-.17-2.13v-.09h.06a1.06,1.06,0,0,0,1-.61v0a2.42,2.42,0,0,0-2.3-3.27H124.92a2.42,2.42,0,0,0-2.3,3.27l0,0a1,1,0,0,0,1,.61h.58a.34.34,0,0,0,0,.1c-.06.63-.13,1.51-.19,2.6a24.14,24.14,0,0,0-2.58-2.76,19.13,19.13,0,0,0-5.55-3,15.35,15.35,0,0,0-4.43-.86,13.09,13.09,0,0,0-2.48.14,10.29,10.29,0,0,0-1.14.26l-.58.19a11,11,0,0,0-1.75.82l-.57.36a11.77,11.77,0,0,0-1.64,1.31c-.17.17-.34.34-.5.52a12.55,12.55,0,0,0-3.16,9.35,23,23,0,0,0,2.8,9.43c.23.45.47.9.73,1.35.54.94,1.11,1.85,1.72,2.73a37.67,37.67,0,0,0,3,3.77,39.31,39.31,0,0,0,3.44,3.39A87.68,87.68,0,0,0,132.51,102a58.21,58.21,0,0,0,13,16.21h-.07l-.45.86h0l-1.06,2,.18.1.23.13,0,0,.31.19h0l.34.2.08,0c.12.08.25.15.37.24l.1.06a4.68,4.68,0,0,1,.4.27h0l.4.29.08.06.38.3.07.06c.13.1.25.21.36.31a2.17,2.17,0,0,1,.29.4.41.41,0,0,1,0,.09,4.67,4.67,0,0,1,.23.5l.09.2.12.33c.05.15.11.31.17.47h-.11a4.06,4.06,0,0,0-1.49,2.62,3.11,3.11,0,0,0,0,.43h0a3,3,0,0,0,0,.52,4.34,4.34,0,0,0,3,3.42c-.08.6-.16,1.24-.26,1.92h0c-1,6.79-3.24,17.74-7.86,24.49h-1.52a6,6,0,0,0-5.43,6.38h0c-3.62,0-6.55,3.39-6.55,7.58v15h-.82a2,2,0,0,0-1.83,1.23l-1.2,3h-1.21a1.66,1.66,0,0,0-1.55,1.29l-.69,3.35h62.68l-.69-3.35a1.66,1.66,0,0,0-1.55-1.29h-.81l-1.2-3a2,2,0,0,0-1.83-1.23h-.83v-15c0-4.19-2.93-7.58-6.54-7.58h-.05a6,6,0,0,0-5.43-6.38h-1.52c-4.58-6.68-6.82-17.47-7.83-24.28h0c-.1-.7-.19-1.36-.27-2a1.34,1.34,0,0,0,.26-.09,1.17,1.17,0,0,0,.4-.45l.28-.17h0l.38-.27,0,0,.31-.27.06-.06a3.45,3.45,0,0,0,.26-.28l.08-.09.2-.26.08-.13c.05-.09.11-.17.15-.25l.09-.17a2.56,2.56,0,0,1,.11-.24c0-.06,0-.13.07-.2s0-.14.07-.22a2,2,0,0,0,0-.24c0-.06,0-.13,0-.2a2.64,2.64,0,0,0,0-.29.78.78,0,0,0,0-.16,3.55,3.55,0,0,0,0-.46h0a4,4,0,0,0-1.5-2.61h-.07a6,6,0,0,1,.95-2l.36-.32.07,0,.38-.3.08-.06c.13-.1.26-.2.4-.29h0l.41-.27.09-.06.38-.24.08,0,.34-.2h0l.31-.19,0,0,.23-.13.18-.1,0-.09h0l-1.45-2.81h-.1A58.21,58.21,0,0,0,171.79,102,87.68,87.68,0,0,0,193,88.44c.81-.71,1.59-1.45,2.34-2.21a40.51,40.51,0,0,0,3.16-3.65c.32-.43.64-.86.94-1.3a32.12,32.12,0,0,0,1.72-2.73c.26-.45.51-.9.74-1.35a25,25,0,0,0,2.58-7.43C205.61,62.89,202.45,58.34,198.83,56.23Zm-70,39.22c-.56-.28-1.18-.6-1.84-1l-.05,0c-.66-.37-1.36-.77-2.08-1.22l-.06,0c-.72-.44-1.47-.93-2.24-1.46l-.08-.06c-.76-.52-1.53-1.09-2.3-1.7l-.11-.08c-.38-.3-.76-.61-1.13-.93h0a35.13,35.13,0,0,1-6-6.54c-3.47-4.94-5.47-9.86-5.88-13.76a9.54,9.54,0,0,1,.57-5,5.38,5.38,0,0,1,.52-.91,4.63,4.63,0,0,1,2.51-1.76c4.88-1.47,9.79,6.25,13.25,7.29a79.58,79.58,0,0,0,5.67,27.46l-.66-.32Zm-5.22-28.72.22,0v.1Zm56.76,0,.23,0-.23.09Zm-2.92,21c.45-1.63.84-3.24,1.17-4.81s.6-3.11.82-4.6.4-2.94.53-4.32c.2-2,.31-3.91.37-5.64,3.4-1,8.21-8.51,13-7.35a1.8,1.8,0,0,1,.22.06c5.71,1.71,4.66,11.5-2.28,21.38-4.94,7-12.62,11.43-16.64,13.37A70.53,70.53,0,0,0,177.5,87.71Z"/></clipPath><radialGradient id="radial-gradient-11" cx="647.89" cy="3979.05" r="87.76" gradientTransform="translate(-170.69 -1910.29) scale(0.5)" gradientUnits="userSpaceOnUse"><stop offset="0.01" stop-color="#ffd44a"/><stop offset="0.54" stop-color="#ffea72"/><stop offset="0.57" stop-color="#fee471"/><stop offset="0.61" stop-color="#fbd46e"/><stop offset="0.65" stop-color="#f6ba68"/><stop offset="0.7" stop-color="#ef9561"/><stop offset="0.71" stop-color="#ee9060"/><stop offset="0.96" stop-color="#ffd44a"/></radialGradient><radialGradient id="radial-gradient-12" cx="-1705.38" cy="3979.18" r="68.15" gradientTransform="matrix(-0.5, 0, 0, 0.5, -695.29, -1910.29)" gradientUnits="userSpaceOnUse"><stop offset="0.02" stop-color="#bd4a00"/><stop offset="1" stop-color="#864a00"/></radialGradient><linearGradient id="linear-gradient" x1="204.41" y1="73.36" x2="174.92" y2="80.13" gradientUnits="userSpaceOnUse"><stop offset="0" stop-color="#efc16b"/><stop offset="0.08" stop-color="#c38f4b"/><stop offset="0.12" stop-color="#aa7238"/><stop offset="0.25" stop-color="#c08443"/><stop offset="0.35" stop-color="#c28543"/><stop offset="0.39" stop-color="#c98943"/><stop offset="0.41" stop-color="#d48f42"/><stop offset="0.42" stop-color="#db9342"/><stop offset="0.66" stop-color="#ac6838"/><stop offset="0.89" stop-color="#f0c46c"/><stop offset="0.93" stop-color="#efc26b"/><stop offset="0.96" stop-color="#ecb967"/><stop offset="0.98" stop-color="#e7ab60"/><stop offset="0.99" stop-color="#df9856"/><stop offset="1" stop-color="#dc8f52"/></linearGradient><radialGradient id="radial-gradient-13" cx="647.89" cy="3979.05" r="87.76" xlink:href="#radial-gradient-11"/><radialGradient id="radial-gradient-14" cx="647.89" cy="3979.05" r="87.76" gradientTransform="translate(-170.69 -1910.29) scale(0.5)" gradientUnits="userSpaceOnUse"><stop offset="0" stop-color="#bd4a00"/><stop offset="0.62" stop-color="#ffea72"/></radialGradient><radialGradient id="radial-gradient-15" cx="620.49" cy="4007.22" r="24.07" gradientTransform="translate(-170.69 -1910.29) scale(0.5)" gradientUnits="userSpaceOnUse"><stop offset="0" stop-color="#ffffc3"/><stop offset="0.95" stop-color="#ffea72"/></radialGradient><radialGradient id="radial-gradient-16" cx="547.27" cy="3968.47" r="53.8" xlink:href="#radial-gradient-15"/><radialGradient id="radial-gradient-17" cx="-1522.18" cy="3968.47" r="53.8" gradientTransform="matrix(-0.5, 0, 0, 0.5, -559.73, -1910.29)" xlink:href="#radial-gradient-15"/><radialGradient id="radial-gradient-18" cx="635.2" cy="3979.18" r="68.15" gradientTransform="translate(-170.69 -1910.29) scale(0.5)" xlink:href="#radial-gradient-12"/><linearGradient id="linear-gradient-3" x1="-768.17" y1="73.36" x2="-797.66" y2="80.13" gradientTransform="matrix(-1, 0, 0, 1, -668.28, 0)" xlink:href="#linear-gradient"/><radialGradient id="radial-gradient-19" cx="646.46" cy="3930.53" r="122.76" gradientTransform="translate(-170.69 -1910.29) scale(0.5)" gradientUnits="userSpaceOnUse"><stop offset="0" stop-color="#f4be52"/><stop offset="0.62" stop-color="#ffea72"/></radialGradient><radialGradient id="radial-gradient-20" cx="646.46" cy="3930.53" r="122.76" xlink:href="#radial-gradient-14"/><radialGradient id="radial-gradient-21" cx="648.13" cy="3932.55" r="130.8" xlink:href="#radial-gradient-14"/><radialGradient id="radial-gradient-22" cx="648.13" cy="3932.55" r="130.8" xlink:href="#radial-gradient-15"/><radialGradient id="radial-gradient-23" cx="1085.18" cy="3930.53" r="122.75" gradientTransform="translate(-232.92 -1910.29) scale(0.36 0.5)" xlink:href="#radial-gradient-19"/><linearGradient id="linear-gradient-5" x1="152.15" y1="117.77" x2="152.15" y2="57.83" gradientUnits="userSpaceOnUse"><stop offset="0" stop-color="#aa7238"/><stop offset="0.25" stop-color="#c08443"/><stop offset="0.35" stop-color="#be8242"/><stop offset="0.39" stop-color="#b87b3d"/><stop offset="0.42" stop-color="#ad7036"/><stop offset="0.44" stop-color="#9d5f2b"/><stop offset="0.46" stop-color="#88491d"/><stop offset="0.47" stop-color="#7a3a14"/><stop offset="0.64" stop-color="#7c3c15"/><stop offset="0.72" stop-color="#83441a"/><stop offset="0.79" stop-color="#8e5123"/><stop offset="0.85" stop-color="#9e642f"/><stop offset="0.9" stop-color="#b37c3e"/><stop offset="0.95" stop-color="#cd9b52"/><stop offset="0.99" stop-color="#ebbe68"/><stop offset="1" stop-color="#f0c46c"/></linearGradient><radialGradient id="radial-gradient-24" cx="648.6" cy="3936.6" r="105.69" gradientTransform="translate(-170.69 -1910.29) scale(0.5)" gradientUnits="userSpaceOnUse"><stop offset="0.01" stop-color="#f6c054"/><stop offset="0.54" stop-color="#ffea72"/><stop offset="0.58" stop-color="#fff071"/><stop offset="0.59" stop-color="#fff171"/><stop offset="0.82" stop-color="#ffe05a"/><stop offset="0.96" stop-color="#ffd44a"/></radialGradient><radialGradient id="radial-gradient-25" cx="918.49" cy="3936.6" r="105.69" gradientTransform="translate(-207.28 -1910.29) scale(0.39 0.5)" xlink:href="#radial-gradient-24"/><radialGradient id="radial-gradient-26" cx="648.18" cy="3945.2" r="86.27" xlink:href="#radial-gradient-24"/><radialGradient id="radial-gradient-27" cx="610.47" cy="3948.62" r="57.76" xlink:href="#radial-gradient-24"/><radialGradient id="radial-gradient-28" cx="2352.85" cy="3936.6" r="105.69" gradientTransform="translate(-302.02 -1910.29) scale(0.19 0.5)" xlink:href="#radial-gradient-24"/><radialGradient id="radial-gradient-29" cx="636.93" cy="3985.88" r="54.94" xlink:href="#radial-gradient-24"/><linearGradient id="linear-gradient-6" x1="122.59" y1="56.77" x2="181.48" y2="56.77" gradientUnits="userSpaceOnUse"><stop offset="0.01" stop-color="#ffd44a"/><stop offset="0.11" stop-color="#f5f09f"/><stop offset="0.19" stop-color="#f5ee9d"/><stop offset="0.21" stop-color="#f4e996"/><stop offset="0.24" stop-color="#f3de8b"/><stop offset="0.25" stop-color="#f1d07a"/><stop offset="0.26" stop-color="#f0c46c"/><stop offset="0.31" stop-color="#efc26a"/><stop offset="0.34" stop-color="#edbb61"/><stop offset="0.36" stop-color="#eaaf53"/><stop offset="0.37" stop-color="#e8aa4d"/><stop offset="0.51" stop-color="#fce16d"/><stop offset="0.54" stop-color="#ffea72"/><stop offset="0.58" stop-color="#fde473"/><stop offset="0.64" stop-color="#f9d476"/><stop offset="0.7" stop-color="#f2ba7c"/><stop offset="0.71" stop-color="#f1b87c"/><stop offset="0.96" stop-color="#ffd44a"/></linearGradient><linearGradient id="linear-gradient-7" x1="162.66" y1="56.77" x2="174.36" y2="56.77" gradientUnits="userSpaceOnUse"><stop offset="0.54" stop-color="#ffea72"/><stop offset="0.66" stop-color="#ffe76c"/><stop offset="0.83" stop-color="#ffde5c"/><stop offset="0.96" stop-color="#ffd44a"/></linearGradient><radialGradient id="radial-gradient-30" cx="677.09" cy="3934.11" r="8.66" xlink:href="#radial-gradient-24"/><radialGradient id="radial-gradient-31" cx="645.17" cy="3934.11" r="41.73" gradientTransform="translate(-170.69 -1910.29) scale(0.5)" gradientUnits="userSpaceOnUse"><stop offset="0.01" stop-color="#f6c054"/><stop offset="0.54" stop-color="#ffea72"/><stop offset="0.66" stop-color="#ffe76c"/><stop offset="0.83" stop-color="#ffde5c"/><stop offset="0.96" stop-color="#ffd44a"/></radialGradient><radialGradient id="radial-gradient-32" cx="645.17" cy="5841.48" r="41.73" gradientTransform="translate(-170.69 -2302.81) scale(0.5 0.4)" xlink:href="#radial-gradient-24"/><linearGradient id="linear-gradient-8" x1="130.67" y1="57.15" x2="146.04" y2="57.15" gradientUnits="userSpaceOnUse"><stop offset="0" stop-color="#aa7238"/><stop offset="0.25" stop-color="#c08443"/><stop offset="0.35" stop-color="#be8242"/><stop offset="0.39" stop-color="#b87b3d"/><stop offset="0.42" stop-color="#ad7036"/><stop offset="0.44" stop-color="#9d5f2b"/><stop offset="0.46" stop-color="#88491d"/><stop offset="0.47" stop-color="#7a3a14"/><stop offset="0.5" stop-color="#7f4018"/><stop offset="0.56" stop-color="#8e5223"/><stop offset="0.62" stop-color="#a76f36"/><stop offset="0.69" stop-color="#ca974f"/><stop offset="0.76" stop-color="#f0c46c"/></linearGradient><radialGradient id="radial-gradient-33" cx="646.89" cy="3952.68" r="107.65" gradientTransform="translate(-170.69 -1910.29) scale(0.5)" gradientUnits="userSpaceOnUse"><stop offset="0.38" stop-color="#ffea72"/><stop offset="0.45" stop-color="#fade69"/><stop offset="0.59" stop-color="#ecbd52"/><stop offset="0.74" stop-color="#da9032"/></radialGradient><mask id="mask" x="154.14" y="53.74" width="21.51" height="25.65" maskUnits="userSpaceOnUse"><polygon class="cls-1" points="165.28 66.46 170.79 61.94 166.47 67.61 175.64 68.18 166.5 69.26 175.64 79.39 165.35 70.45 164.66 77.54 163.7 70.48 158.78 74.64 162.51 69.34 154.14 68.64 162.48 67.68 156.29 60.51 163.63 66.49 164.33 53.74 165.28 66.46"/></mask><linearGradient id="linear-gradient-9" x1="156.9" y1="119.63" x2="147.91" y2="119.63" gradientUnits="userSpaceOnUse"><stop offset="0" stop-color="#ffea72"/><stop offset="0.75" stop-color="#f1aa00"/><stop offset="0.89" stop-color="#f4be52"/></linearGradient><linearGradient id="linear-gradient-10" x1="159.48" y1="116.88" x2="159.45" y2="129.52" gradientTransform="matrix(1, 0, 0, 1, 0, 0)" xlink:href="#radial-gradient-15"/><linearGradient id="linear-gradient-11" x1="144.86" y1="116.85" x2="144.83" y2="129.48" gradientTransform="matrix(1, 0, 0, 1, 0, 0)" xlink:href="#radial-gradient-15"/><linearGradient id="linear-gradient-12" x1="156.66" y1="119.63" x2="144.4" y2="119.63" xlink:href="#linear-gradient-5"/><linearGradient id="linear-gradient-13" x1="149.17" y1="119.56" x2="152.96" y2="119.82" gradientUnits="userSpaceOnUse"><stop offset="0" stop-color="#aa7238"/><stop offset="0.25" stop-color="#c08443"/><stop offset="0.35" stop-color="#be8242"/><stop offset="0.39" stop-color="#b87b3d"/><stop offset="0.42" stop-color="#ad7036"/><stop offset="0.44" stop-color="#9d5f2b"/><stop offset="0.46" stop-color="#88491d"/><stop offset="0.47" stop-color="#7a3a14"/><stop offset="0.57" stop-color="#7d3d16"/><stop offset="0.66" stop-color="#86481d"/><stop offset="0.74" stop-color="#955a28"/><stop offset="0.83" stop-color="#ab7338"/><stop offset="0.91" stop-color="#c6934d"/><stop offset="0.98" stop-color="#e8ba66"/><stop offset="1" stop-color="#f0c46c"/></linearGradient><radialGradient id="radial-gradient-34" cx="-1362.23" cy="4059.82" r="5.41" gradientTransform="matrix(-0.5, 0, 0, 0.5, -529.22, -1910.29)" xlink:href="#radial-gradient-24"/><linearGradient id="linear-gradient-14" x1="156.9" y1="119.63" x2="147.91" y2="119.63" gradientUnits="userSpaceOnUse"><stop offset="0" stop-color="#ffe791"/><stop offset="0.11" stop-color="#ffd951"/><stop offset="0.22" stop-color="#ffcc17"/><stop offset="0.27" stop-color="#ffc700"/><stop offset="0.48" stop-color="#ffd233"/><stop offset="0.72" stop-color="#fd6"/><stop offset="0.9" stop-color="#ffe485"/><stop offset="1" stop-color="#ffe791"/></linearGradient><linearGradient id="linear-gradient-15" x1="156.9" y1="124.92" x2="147.91" y2="124.92" xlink:href="#linear-gradient-9"/><linearGradient id="linear-gradient-16" x1="154.9" y1="125.13" x2="148.24" y2="125.13" xlink:href="#linear-gradient-14"/><linearGradient id="linear-gradient-17" x1="153.69" y1="124.76" x2="156.46" y2="125.06" xlink:href="#linear-gradient-5"/><radialGradient id="radial-gradient-35" cx="645.72" cy="4070.42" r="10.23" xlink:href="#radial-gradient-24"/><linearGradient id="linear-gradient-18" x1="149.77" y1="124.2" x2="152.13" y2="123.87" xlink:href="#linear-gradient-13"/><linearGradient id="linear-gradient-19" x1="151.98" y1="126.81" x2="152.16" y2="121.28" gradientUnits="userSpaceOnUse"><stop offset="0" stop-color="#ffffc3"/><stop offset="0.42" stop-color="#ecc972"/></linearGradient><radialGradient id="radial-gradient-36" cx="648.92" cy="4062.63" r="15.78" xlink:href="#radial-gradient-15"/><radialGradient id="radial-gradient-37" cx="648.77" cy="4065" r="19.11" gradientTransform="translate(-170.69 -1910.29) scale(0.5)" xlink:href="#linear-gradient-19"/><linearGradient id="linear-gradient-20" x1="173.9" y1="167.76" x2="130.71" y2="194.29" gradientUnits="userSpaceOnUse"><stop offset="0.04" stop-color="#a5422d"/><stop offset="0.99" stop-color="#6a2e25"/></linearGradient><radialGradient id="radial-gradient-38" cx="645.68" cy="6488.45" r="39.91" gradientTransform="translate(-170.69 -2343.26) scale(0.5 0.39)" xlink:href="#radial-gradient-24"/><radialGradient id="radial-gradient-39" cx="645.68" cy="4200.23" r="39.84" xlink:href="#radial-gradient-15"/><radialGradient id="radial-gradient-40" cx="646.17" cy="4109.12" r="20.08" xlink:href="#radial-gradient-15"/><linearGradient id="linear-gradient-21" x1="152.15" y1="157.84" x2="152.15" y2="128.75" xlink:href="#linear-gradient-5"/><linearGradient id="linear-gradient-22" x1="148.36" y1="144.73" x2="160.19" y2="144.73" xlink:href="#linear-gradient-14"/><radialGradient id="radial-gradient-41" cx="891.43" cy="4110.03" r="23.9" gradientTransform="translate(-204.54 -1910.29) scale(0.4 0.5)" xlink:href="#radial-gradient-24"/><radialGradient id="radial-gradient-42" cx="645.68" cy="4144.5" r="25.35" xlink:href="#radial-gradient-15"/><radialGradient id="radial-gradient-43" cx="645.67" cy="5686.71" r="25.52" gradientTransform="translate(-170.69 -2227.65) scale(0.5 0.42)" xlink:href="#radial-gradient-31"/><radialGradient id="radial-gradient-44" cx="645.67" cy="5686.71" r="25.87" gradientTransform="translate(-170.69 -2227.65) scale(0.5 0.42)" xlink:href="#radial-gradient-24"/><linearGradient id="linear-gradient-23" x1="141.58" y1="162.47" x2="153.53" y2="162.47" xlink:href="#linear-gradient-5"/><radialGradient id="radial-gradient-45" cx="646.04" cy="4067.14" r="18.85" gradientTransform="translate(-170.69 -1910.29) scale(0.5)" gradientUnits="userSpaceOnUse"><stop offset="0" stop-color="#ffea72"/><stop offset="0.75" stop-color="#f4be52"/><stop offset="0.89" stop-color="#f4be52"/></radialGradient><radialGradient id="radial-gradient-46" cx="646.54" cy="4076.95" r="9.96" xlink:href="#radial-gradient-15"/><radialGradient id="radial-gradient-47" cx="746.38" cy="4067.14" r="18.85" gradientTransform="translate(-186.1 -1910.29) scale(0.45 0.5)" xlink:href="#linear-gradient-9"/><linearGradient id="linear-gradient-24" x1="460.02" y1="129.09" x2="471.16" y2="129.09" gradientTransform="translate(-151.09) scale(0.65 1)" xlink:href="#linear-gradient-5"/><radialGradient id="radial-gradient-48" cx="646.18" cy="4071.58" r="11.25" xlink:href="#radial-gradient-31"/><linearGradient id="linear-gradient-25" x1="151.95" y1="191.04" x2="151.95" y2="196.8" gradientUnits="userSpaceOnUse"><stop offset="0.04" stop-color="#a5422d"/><stop offset="0.48" stop-color="#8a3929"/><stop offset="0.99" stop-color="#6a2e25"/></linearGradient><radialGradient id="radial-gradient-49" cx="645.14" cy="4173.96" r="28.57" gradientTransform="translate(-170.69 -1910.29) scale(0.5)" gradientUnits="userSpaceOnUse"><stop offset="0" stop-color="#ffffc3"/><stop offset="1" stop-color="#fff18d"/></radialGradient><linearGradient id="linear-gradient-26" x1="136.34" y1="183.2" x2="170.45" y2="168.92" gradientUnits="userSpaceOnUse"><stop offset="0.01" stop-color="#f6c054"/><stop offset="0.28" stop-color="#cda85a"/><stop offset="0.54" stop-color="#ffea72"/><stop offset="0.58" stop-color="#fff071"/><stop offset="0.59" stop-color="#fff171"/><stop offset="0.82" stop-color="#ffe05a"/><stop offset="0.96" stop-color="#ffd44a"/></linearGradient><linearGradient id="linear-gradient-27" x1="137.4" y1="187.35" x2="172.77" y2="172.53" xlink:href="#linear-gradient-26"/><linearGradient id="linear-gradient-28" x1="134.05" y1="179.47" x2="174.05" y2="162.72" xlink:href="#linear-gradient-26"/><linearGradient id="linear-gradient-29" x1="138.29" y1="170.58" x2="138.84" y2="171.36" gradientUnits="userSpaceOnUse"><stop offset="0" stop-color="#b8b3a6"/><stop offset="1" stop-color="#61563a"/></linearGradient><linearGradient id="linear-gradient-30" x1="164.95" y1="170.58" x2="165.5" y2="171.36" xlink:href="#linear-gradient-29"/><linearGradient id="linear-gradient-31" x1="138.29" y1="182.04" x2="138.84" y2="182.83" xlink:href="#linear-gradient-29"/><linearGradient id="linear-gradient-32" x1="164.95" y1="182.04" x2="165.5" y2="182.83" xlink:href="#linear-gradient-29"/><radialGradient id="radial-gradient-50" cx="645.17" cy="3934.11" r="41.73" xlink:href="#radial-gradient-15"/><mask id="mask-2" x="149.32" y="123.92" width="6.33" height="8.69" maskUnits="userSpaceOnUse"><path class="cls-2" d="M154.42,127.1c1.39,2.31,1.64,4.7.58,5.34s-3.06-.71-4.44-3-1.65-4.71-.58-5.35S153,124.79,154.42,127.1Z"/></mask><radialGradient id="radial-gradient-51" cx="-5163.15" cy="1275.01" r="7.09" gradientTransform="matrix(0.27, -0.16, 0.35, 0.59, 1108.09, -1467.01)" gradientUnits="userSpaceOnUse"><stop offset="0" stop-color="#ececd1"/><stop offset="1"/></radialGradient><mask id="mask-3" x="194.19" y="51.94" width="15.14" height="20.76" maskUnits="userSpaceOnUse"><path class="cls-3" d="M206.38,59.55c3.31,5.52,3.93,11.24,1.38,12.77s-7.31-1.71-10.62-7.23-3.93-11.25-1.37-12.78S203.07,54,206.38,59.55Z"/></mask><radialGradient id="radial-gradient-52" cx="-4923.34" cy="1229.61" r="16.96" xlink:href="#radial-gradient-51"/><mask id="mask-4" x="95.64" y="56.16" width="15.17" height="20.81" maskUnits="userSpaceOnUse"><path class="cls-4" d="M107.85,63.79c3.32,5.53,3.94,11.26,1.38,12.8s-7.32-1.71-10.63-7.25-3.94-11.27-1.38-12.8S104.54,58.25,107.85,63.79Z"/></mask><radialGradient id="radial-gradient-53" cx="-5196.32" cy="1161.25" r="16.99" xlink:href="#radial-gradient-51"/><mask id="mask-5" x="151.04" y="47.76" width="40.63" height="18.77" maskUnits="userSpaceOnUse"><path class="cls-5" d="M171.4,47.76c11.22.06,20.3,4.31,20.27,9.49s-9.14,9.34-20.36,9.28S151,62.23,151,57,160.18,47.71,171.4,47.76Z"/></mask><radialGradient id="radial-gradient-54" cx="-11972.34" cy="-3258" r="29.54" gradientTransform="matrix(0, -0.32, 0.69, 0, 2431.03, -3733.87)" xlink:href="#radial-gradient-51"/><mask id="mask-6" x="164.32" y="50.07" width="14.07" height="14.16" maskUnits="userSpaceOnUse"><path class="cls-6" d="M178.39,57.15a7,7,0,1,1-7-7.08A7.06,7.06,0,0,1,178.39,57.15Z"/></mask><radialGradient id="radial-gradient-55" cx="684.09" cy="3144.77" r="13.41" gradientTransform="translate(-170.69 -1694.49) scale(0.5 0.56)" gradientUnits="userSpaceOnUse"><stop offset="0" stop-color="#ffefa1"/><stop offset="0.13" stop-color="#e5d791"/><stop offset="0.4" stop-color="#a39967"/><stop offset="0.79" stop-color="#3b3725"/><stop offset="1"/></radialGradient><radialGradient id="radial-gradient-56" cx="684.29" cy="3144.77" r="1.86" gradientTransform="translate(-170.69 -1694.49) scale(0.5 0.56)" gradientUnits="userSpaceOnUse"><stop offset="0.51" stop-color="#fffccc"/><stop offset="0.56" stop-color="#faf7c8"/><stop offset="0.62" stop-color="#eae8bb"/><stop offset="0.69" stop-color="#d1cfa7"/><stop offset="0.76" stop-color="#aeac8b"/><stop offset="0.83" stop-color="#807f67"/><stop offset="0.91" stop-color="#49483a"/><stop offset="0.99" stop-color="#080807"/><stop offset="1"/></radialGradient><mask id="mask-7" x="149.95" y="155.86" width="14.07" height="14.16" maskUnits="userSpaceOnUse"><path class="cls-7" d="M164,162.94a7,7,0,1,1-7-7.08A7.07,7.07,0,0,1,164,162.94Z"/></mask><radialGradient id="radial-gradient-57" cx="655.35" cy="3334.72" r="13.41" xlink:href="#radial-gradient-55"/><radialGradient id="radial-gradient-58" cx="655.55" cy="3334.72" r="1.86" xlink:href="#radial-gradient-56"/><mask id="mask-8" x="142.11" y="57.59" width="38.6" height="25.92" maskUnits="userSpaceOnUse"><path class="cls-8" d="M165.77,60.44c10.38,4.48,16.84,12.63,14.43,18.22s-12.77,6.48-23.15,2S140.2,68,142.61,62.44,155.39,56,165.77,60.44Z"/></mask><radialGradient id="radial-gradient-59" cx="-10415.33" cy="-678.46" r="34.66" gradientTransform="matrix(0.13, -0.29, 0.54, 0.23, 1839.65, -2807.87)" xlink:href="#radial-gradient-51"/><mask id="mask-9" x="130.26" y="183.96" width="18.23" height="12.24" maskUnits="userSpaceOnUse"><path class="cls-9" d="M141.43,185.31c4.9,2.11,8,6,6.82,8.6s-6,3.06-10.94.94-7.95-6-6.82-8.6S136.53,183.19,141.43,185.31Z"/></mask><radialGradient id="radial-gradient-60" cx="-10788.42" cy="-632.55" r="16.37" gradientTransform="matrix(0.13, -0.29, 0.54, 0.23, 1839.65, -2807.87)" xlink:href="#radial-gradient-51"/><mask id="mask-10" x="151.79" y="155.86" width="9.86" height="12.21" maskUnits="userSpaceOnUse"><path class="cls-10" d="M160.27,159.84c1.89,3.16,1.84,6.67-.12,7.85s-5.08-.44-7-3.6-1.84-6.67.11-7.84S158.37,156.68,160.27,159.84Z"/></mask><radialGradient id="radial-gradient-61" cx="-3899.16" cy="1320.5" r="9.7" gradientTransform="matrix(0.37, -0.22, 0.35, 0.59, 1114.55, -1471.3)" xlink:href="#radial-gradient-51"/><radialGradient id="radial-gradient-62" cx="656.29" cy="3984.77" r="168.08" gradientTransform="translate(-170.69 -1910.29) scale(0.5)" gradientUnits="userSpaceOnUse"><stop offset="0" stop-color="#ececbb"/><stop offset="1" stop-color="#784f58"/></radialGradient></defs><g class="cls-12"><g id="Layer_2" data-name="Layer 2"><g id="Layer_1-2" data-name="Layer 1"><text class="cls-13" transform="translate(96.4 259.95)">Finalist</text><text class="cls-14" transform="translate(57.87 290.15)">Certificate + Gift <tspan x="51.68" y="30.85">Hamper</tspan></text><g class="cls-15"><path class="cls-16" d="M195.35,55c-6.74-1-12.45,3.71-12.45,3.71s-6.65,5.89-3.23,7.79,8.27-7.12,14-5.41,4.66,11.5-2.28,21.38S172.07,97,172.07,97l-2.57,6A87.87,87.87,0,0,0,193,88.44a38.45,38.45,0,0,0,8.16-9.89C209.5,63.93,201.34,55.89,195.35,55Z"/><path class="cls-17" d="M191.37,82.43c6.94-9.88,8-19.67,2.28-21.38s-11.43,9.08-14.85,7.18c-.93-.51-.23-3.09,0-4,.13.12-1.13,2.24-1,2.37,3.6,2.93,10.42-8.65,16.67-6.23,4.73,1.82,5.33,10.76-2.48,21.89C185.21,92,174.21,96.82,171.35,98l.73-1S184.43,92.32,191.37,82.43Z"/><path class="cls-18" d="M194.36,57.15a13.74,13.74,0,0,0-9.09,2,62.35,62.35,0,0,0-6.79,5.45l.28,2.94s8.6-8.19,14-8c5,.18,9.76,6.55,3.19,19.07a32.57,32.57,0,0,1-6.44,8.47A62.47,62.47,0,0,1,172.75,99c-.11.3-.22.59-.32.89l-.09.25a73.27,73.27,0,0,0,19.2-12.56,35.1,35.1,0,0,0,7.43-9C206.54,65.3,199.81,58,194.36,57.15Z"/><g class="cls-19"><path class="cls-18" d="M194.36,57.15a13.74,13.74,0,0,0-9.09,2,62.35,62.35,0,0,0-6.79,5.45l.28,2.94s8.6-8.19,14-8c5,.18,9.76,6.55,3.19,19.07a32.57,32.57,0,0,1-6.44,8.47A62.47,62.47,0,0,1,172.75,99c-.11.3-.22.59-.32.89l-.09.25a73.27,73.27,0,0,0,19.2-12.56,35.1,35.1,0,0,0,7.43-9C206.54,65.3,199.81,58,194.36,57.15Z"/></g><path class="cls-20" d="M112.94,82.43c-6.94-9.88-8-19.67-2.28-21.38s10.54,7.32,14,5.41-3.23-7.79-3.23-7.79-5.71-4.75-12.46-3.71c-6,.93-14.14,9-5.81,23.59a38.69,38.69,0,0,0,8.17,9.89A87.87,87.87,0,0,0,134.8,103l-2.57-6S119.87,92.32,112.94,82.43Z"/><path class="cls-21" d="M112.94,82.43c-6.94-9.88-8-19.67-2.28-21.38s10.54,7.32,14,5.41-3.23-7.79-3.23-7.79-5.71-4.75-12.46-3.71c-6,.93-14.14,9-5.81,23.59a38.69,38.69,0,0,0,8.17,9.89A87.87,87.87,0,0,0,134.8,103l-2.57-6S119.87,92.32,112.94,82.43Z"/><g class="cls-22"><path class="cls-23" d="M132.48,97.56l-.25-.59A50.49,50.49,0,0,1,119,89,50.78,50.78,0,0,0,132.48,97.56Z"/><path class="cls-24" d="M104.16,79.45C95.82,64.83,104,56.79,110,55.87c5.74-.89,10.71,2.41,12.07,3.41l-.64-.61s-5.71-4.75-12.46-3.71c-6,.93-14.14,9-5.81,23.59a38.69,38.69,0,0,0,8.17,9.89l.62.53A38.26,38.26,0,0,1,104.16,79.45Z"/><path class="cls-25" d="M200.14,79.45c8.34-14.62.18-22.66-5.81-23.58-5.74-.89-10.72,2.41-12.07,3.41.38-.38.64-.61.64-.61s5.71-4.75,12.45-3.71c6,.93,14.15,9,5.81,23.59A38.45,38.45,0,0,1,193,88.44l-.62.53A38.48,38.48,0,0,0,200.14,79.45Z"/></g><path class="cls-26" d="M112.94,82.43c-6.94-9.88-8-19.67-2.28-21.38s11.43,9.08,14.85,7.18c.93-.51.23-3.09,0-4-.13.12,1.13,2.24,1,2.37-3.6,2.93-10.42-8.65-16.67-6.23-4.73,1.82-5.33,10.76,2.48,21.89C119.1,92,130.1,96.82,133,98l-.72-1S119.87,92.32,112.94,82.43Z"/><path class="cls-27" d="M109.93,57.15a13.75,13.75,0,0,1,9.1,2,62.35,62.35,0,0,1,6.79,5.45l-.28,2.94s-8.6-8.19-14-8c-5,.18-9.76,6.55-3.19,19.07a32.75,32.75,0,0,0,6.43,8.47A62.72,62.72,0,0,0,131.55,99c.11.3.22.59.32.89,0,.08.06.16.09.25a73.27,73.27,0,0,1-19.2-12.56,35.1,35.1,0,0,1-7.43-9C97.75,65.3,104.49,58,109.93,57.15Z"/><path class="cls-28" d="M109.93,57.15a13.75,13.75,0,0,1,9.1,2,62.35,62.35,0,0,1,6.79,5.45l-.28,2.94s-8.6-8.19-14-8c-5,.18-9.76,6.55-3.19,19.07a32.75,32.75,0,0,0,6.43,8.47A62.72,62.72,0,0,0,131.55,99c.11.3.22.59.32.89,0,.08.06.16.09.25a73.27,73.27,0,0,1-19.2-12.56,35.1,35.1,0,0,1-7.43-9C97.75,65.3,104.49,58,109.93,57.15Z"/><path class="cls-29" d="M124.25,58c-.45,3.86-4.09,41.52,24.66,63h6.48c28.74-21.45,25.11-59.11,24.66-63Z"/><path class="cls-30" d="M124.25,58c-.45,3.86-4.09,41.52,24.66,63h6.48c28.74-21.45,25.11-59.11,24.66-63Z"/><g class="cls-22"><path class="cls-31" d="M125.66,58h-1.41c-.45,3.86-4.09,41.52,24.66,63h.16C121.78,99.53,125.23,61.87,125.66,58Z"/><path class="cls-32" d="M180.05,58h-1.41c.43,3.86,3.88,41.52-23.42,63h.17C184.13,99.53,180.5,61.87,180.05,58Z"/></g><path class="cls-33" d="M132.34,58c-.32,3.86-2.9,41.52,17.51,63h4.6C174.86,99.53,172.28,61.87,172,58Z"/><path class="cls-34" d="M130.23,58c-.35,3.86-3.21,41.52,19.37,63h5.09c22.59-21.45,19.73-59.11,19.37-63Z"/><path class="cls-35" d="M170.1,58h-34c-.29,3.86-2.62,41.52,15.78,63h2.48C172.72,99.53,170.4,61.87,170.1,58Z"/><path class="cls-36" d="M166.46,58H139.72c-.23,3.86-2.06,41.52,12.39,63h1.95C168.51,99.53,166.68,61.87,166.46,58Z"/><path class="cls-37" d="M161.45,98.91c5.94-16.17,6.56-34.23,6.38-36.59l-18.39,2.84C150.65,75.59,154.82,83.5,161.45,98.91Z"/><path class="cls-38" d="M127.34,65.16h-.26c-.18,2.37.48,19.71,8.36,35.38A87.5,87.5,0,0,0,142.55,72,150.56,150.56,0,0,1,127.34,65.16Z"/><path class="cls-39" d="M160.12,58H146.94c-.12,3.86-1,41.52,6.11,63h1C161.13,99.53,160.23,61.87,160.12,58Z"/><path class="cls-40" d="M142.84,83.75c-.18,2.37.66,18.4,8.55,34.06C151,102,152.26,95,153.08,86.88,152.21,86.6,142.84,83.75,142.84,83.75Z"/><path class="cls-41" d="M124.25,58c-.08.7-.26,2.5-.34,5.08,5.09-.67,20.66-2.63,28.24-2.63s23.15,2,28.24,2.63c-.08-2.58-.26-4.38-.34-5.08Z"/><path class="cls-42" d="M178.86,54.81H124.92a2.42,2.42,0,0,0-2.3,3.27l0,0a1,1,0,0,0,1,.61h56.58a1.06,1.06,0,0,0,1-.61v0A2.42,2.42,0,0,0,178.86,54.81Z"/><rect class="cls-43" x="162.05" y="54.81" width="11.61" height="3.91"/><rect class="cls-44" x="170.02" y="54.81" width="3.64" height="3.91"/><path class="cls-45" d="M158.27,54.81H134.86c-.17,1.31-.36,2.62-.61,3.92H158.3C158.33,57.42,158.34,56.12,158.27,54.81Z"/><path class="cls-46" d="M153.22,55.57h-7.15c0,1-.12,2.1-.16,3.16h7.44C153.33,57.67,153.27,56.62,153.22,55.57Z"/><rect class="cls-47" x="131.18" y="55.57" width="11.09" height="3.16"/><path class="cls-48" d="M157.16,88.67c-22.36-.85-29.58-13.18-29.79-13.44.45,12,4.06,32.44,21.9,45.75H155C170,109.73,175,93.4,176.38,81.36,173,86.2,160.35,88.79,157.16,88.67Z"/><g class="cls-49"><polygon class="cls-50" points="165.28 66.46 170.79 61.94 166.47 67.61 175.64 68.18 166.5 69.26 175.64 79.39 165.35 70.45 164.66 77.54 163.7 70.48 158.78 74.64 162.51 69.34 154.14 68.64 162.48 67.68 156.29 60.51 163.63 66.49 164.33 53.74 165.28 66.46"/></g><polygon class="cls-51" points="160.45 121.08 143.88 121.08 145.39 118.17 158.94 118.17 160.45 121.08"/><path class="cls-52" d="M159.9,121.08h.55l-1.51-2.91h-.44C158.67,118.54,159.77,120.74,159.9,121.08Z"/><path class="cls-53" d="M145.82,118.17h-.43l-1.51,2.91h.52C144.55,120.81,145.51,118.9,145.82,118.17Z"/><path class="cls-54" d="M156.56,121.08h1.63a16.71,16.71,0,0,1-1.41-2.91h-.9A24.68,24.68,0,0,0,156.56,121.08Z"/><path class="cls-55" d="M151.39,118.54c0-.12.05-.25.08-.37h-1.83a18.83,18.83,0,0,1-1,2.91h2.51A21.79,21.79,0,0,1,151.39,118.54Z"/><path class="cls-56" d="M152.92,118.17h1.37c.23.61.43,1.23.67,1.83.15.37.3.73.47,1.08H153C153,120.11,152.94,119.14,152.92,118.17Z"/><path class="cls-57" d="M148.89,118.17H147a21.25,21.25,0,0,1-1.27,2.9H148C148,120.83,148.63,118.17,148.89,118.17Z"/><path class="cls-58" d="M152.17,121.08h-8.29a18.71,18.71,0,0,1,3.38,2.3c1.16,1.12,1,5.38,4.91,5.38s3.74-4.26,4.9-5.38a18.71,18.71,0,0,1,3.38-2.3Z"/><path class="cls-59" d="M152.17,121.08H146a14.45,14.45,0,0,1,2.5,2.3c.86,1.12,1.59,7.43,3.64,5.38.76-.76,2.77-4.26,3.63-5.38a14.45,14.45,0,0,1,2.5-2.3Z"/><path class="cls-60" d="M156.37,121.08a7.62,7.62,0,0,0-1.66,2.52,11.21,11.21,0,0,1-2.61,5.16.16.16,0,0,0,.07,0c2.07-.56,2.77-4.26,3.63-5.38a14.45,14.45,0,0,1,2.5-2.3Z"/><path class="cls-61" d="M154.81,121.08h-5.54c0,.15.08.29.11.44.2,1.07,1.06,2.08,1.49,3.11a25,25,0,0,1,.88,2.61,14,14,0,0,0,1.34-1.56A9.1,9.1,0,0,1,154.81,121.08Z"/><path class="cls-62" d="M152.92,121.08h-4.83a34,34,0,0,1,2.06,3.75,9,9,0,0,0,2.16,2.36A17.28,17.28,0,0,1,152.92,121.08Z"/><path class="cls-63" d="M144.05,121.18a17.61,17.61,0,0,1,3.21,2.2c1,.92,1,4,3.17,5,.46.77,1,1.1,1.74.37,3.9,0,3.74-4.26,4.9-5.38a17.61,17.61,0,0,1,3.21-2.2Z"/><path class="cls-64" d="M143.88,121.08a81.06,81.06,0,0,1,16.57-.1A83.18,83.18,0,0,1,143.88,121.08Z"/><path class="cls-65" d="M143.88,121.08a81.06,81.06,0,0,1,16.57-.1A83.18,83.18,0,0,1,143.88,121.08Z"/><path class="cls-66" d="M159.47,119.19l-.53-1H145.39l-.45.86A38.48,38.48,0,0,0,159.47,119.19Z"/><path class="cls-67" d="M176.38,194.07V172.74c0-4.19-2.93-7.58-6.54-7.58H134.46c-3.62,0-6.55,3.39-6.55,7.58v21.33Z"/><path class="cls-68" d="M125.26,189l-1.2,3h56.18l-1.2-3a2,2,0,0,0-1.83-1.23H127.09A2,2,0,0,0,125.26,189Z"/><path class="cls-69" d="M179,189a2,2,0,0,0-1.83-1.23H127.09a2,2,0,0,0-1.83,1.23l-1.2,3h.65l1.18-2.5a2,2,0,0,1,1.79-1h48.94a1.94,1.94,0,0,1,1.78,1l1.18,2.5h.66Z"/><path class="cls-70" d="M154.27,128.26H150s-1.75,23.8-10.51,32.94h25.25C156,152.06,154.27,128.26,154.27,128.26Z"/><path class="cls-71" d="M154.27,128.26H150s-1.75,23.8-10.51,32.94h25.25C156,152.06,154.27,128.26,154.27,128.26Z"/><path class="cls-70" d="M154,128.26h-3.76s-1.55,23.8-9.29,32.94h22.34C155.58,152.06,154,128.26,154,128.26Z"/><path class="cls-72" d="M153.79,128.26h-3.28s-1.36,23.8-8.13,32.94h19.54C155.15,152.06,153.79,128.26,153.79,128.26Z"/><path class="cls-73" d="M153,128.26h-1.1s-.91,23.8-5.45,32.94h13.09C155,152.06,153,128.26,153,128.26Z"/><path class="cls-74" d="M153,128.26h-.51s-.42,23.8-2.53,32.94h6.07C154,152.06,153,128.26,153,128.26Z"/><path class="cls-70" d="M149.32,134.29c2,1.07,4.67.52,5.69.21-.55-3.71-.74-6.24-.74-6.24H150S149.83,130.74,149.32,134.29Z"/><path class="cls-70" d="M164.36,158.78H139.94a6,6,0,0,0-5.43,6.38h35.28A6,6,0,0,0,164.36,158.78Z"/><path class="cls-75" d="M164.36,158.78H139.94a6,6,0,0,0-5.43,6.38h35.28A6,6,0,0,0,164.36,158.78Z"/><path class="cls-70" d="M163.69,159.79H140.6s-5.12.37-5.12,5.37h33.34C168.82,160.16,163.69,159.79,163.69,159.79Z"/><path class="cls-76" d="M152.15,159.79H140.6a7.17,7.17,0,0,0-1.75.44,44.11,44.11,0,0,0-1.3,4.93h25.51c-.38-.88-1.41-4.77-1.69-5.37Z"/><polygon class="cls-77" points="155.07 165.16 158.9 165.16 157.49 159.79 155.22 159.79 155.07 165.16"/><polygon class="cls-78" points="142.48 159.79 141.59 165.16 153.53 165.16 153.53 159.79 142.48 159.79"/><path class="cls-79" d="M156.19,125.37H148.1a4.06,4.06,0,0,0-1.49,2.62c-.31,2.54,2.16,4.82,5.54,4.82s5.84-2.28,5.54-4.82A4,4,0,0,0,156.19,125.37Z"/><path class="cls-80" d="M156.19,125.37H148.1a4.06,4.06,0,0,0-1.49,2.62c-.31,2.62,2.16,4.85,5.54,4.82s5.84-2.31,5.54-4.82A4,4,0,0,0,156.19,125.37Z"/><path class="cls-81" d="M155.82,125.37h-7.34a4.17,4.17,0,0,0-1.36,2.62c-.27,2.54,2,4.82,5,4.82s5.3-2.28,5-4.82A4.15,4.15,0,0,0,155.82,125.37Z"/><path class="cls-82" d="M154.78,125.37h-5.27a4.88,4.88,0,0,0-1,2.62c-.2,2.54,1.41,4.82,3.61,4.82s3.81-2.28,3.61-4.82A4.81,4.81,0,0,0,154.78,125.37Z"/><path class="cls-83" d="M153.9,125.37H151a7.6,7.6,0,0,0-.52,2.62c-.08,2.54.81,4.82,2,4.82s2.06-2.28,1.94-4.82A7.78,7.78,0,0,0,153.9,125.37Z"/><path class="cls-70" d="M157.69,128a.58.58,0,0,0,0-.14c-3,3-7.67,2.67-11.08.57,0,3.08,3.3,4.61,5.87,4.38.06,0,.12,0,.19,0,3.13-.21,5.34-2.39,5.05-4.8Z"/><path class="cls-84" d="M183.29,196.57l-.69-3.35a1.66,1.66,0,0,0-1.55-1.29h-58.2a1.66,1.66,0,0,0-1.55,1.29l-.69,3.35Z"/><path class="cls-85" d="M182.6,193.22a1.66,1.66,0,0,0-1.55-1.29h-58.2a1.66,1.66,0,0,0-1.55,1.29l-.69,3.35h.94l.67-2.73a1.58,1.58,0,0,1,1.5-1.05h56.46a1.58,1.58,0,0,1,1.5,1.05l.67,2.73h.94Z"/><path class="cls-86" d="M170.59,181v-8.57a3.33,3.33,0,0,1-3.33-3.33H136.49a3.33,3.33,0,0,1-3.33,3.33V181a3.33,3.33,0,0,1,3.33,3.33h30.77A3.33,3.33,0,0,1,170.59,181Z"/><path class="cls-87" d="M170,180.58V172.8a3.13,3.13,0,0,1-3.23-3H137a3.13,3.13,0,0,1-3.23,3v7.78a3.14,3.14,0,0,1,3.23,3h29.83A3.14,3.14,0,0,1,170,180.58Z"/><path class="cls-88" d="M167.87,171a3.35,3.35,0,0,1-.61-1.92H165.1c-1.95,5.23-6.84,15.23-6.84,15.23h2.31S167.69,171.48,167.87,171Z"/><path class="cls-89" d="M143,169.08l-7.12,13.28a3.36,3.36,0,0,1,.63,1.95h1.88l9.19-15.23Z"/><path class="cls-90" d="M139.37,170.94a.83.83,0,1,1-.83-.82A.83.83,0,0,1,139.37,170.94Z"/><path class="cls-91" d="M139.16,170.94a.62.62,0,1,1-.62-.61A.62.62,0,0,1,139.16,170.94Z"/><path class="cls-90" d="M166,170.94a.83.83,0,1,1-.82-.82A.83.83,0,0,1,166,170.94Z"/><path class="cls-92" d="M165.82,170.94a.61.61,0,0,1-.61.61.61.61,0,0,1-.61-.61.61.61,0,0,1,.61-.61A.62.62,0,0,1,165.82,170.94Z"/><path class="cls-90" d="M139.37,182.41a.83.83,0,1,1-.83-.83A.83.83,0,0,1,139.37,182.41Z"/><path class="cls-93" d="M139.16,182.41a.62.62,0,1,1-.62-.61A.61.61,0,0,1,139.16,182.41Z"/><path class="cls-90" d="M166,182.41a.83.83,0,1,1-.82-.83A.83.83,0,0,1,166,182.41Z"/><path class="cls-94" d="M165.82,182.41a.61.61,0,0,1-.61.61.61.61,0,0,1,0-1.22A.61.61,0,0,1,165.82,182.41Z"/><path class="cls-95" d="M181.15,58.12v0a2.42,2.42,0,0,0-2.3-3.27H124.92a2.42,2.42,0,0,0-2.3,3.27l0,0a1,1,0,0,0,1,.61H124a1.07,1.07,0,0,1-1-.49l0,0c-.64-1.26.61-2.63,2.27-2.63h53.24c1.67,0,2.91,1.37,2.27,2.63v0a1.1,1.1,0,0,1-1,.49h.37A1.06,1.06,0,0,0,181.15,58.12Z"/><g class="cls-96"><path class="cls-97" d="M154.42,127.1c1.39,2.31,1.64,4.7.58,5.34s-3.06-.71-4.44-3-1.65-4.71-.58-5.35S153,124.79,154.42,127.1Z"/></g><g class="cls-98"><path class="cls-99" d="M206.38,59.55c3.31,5.52,3.93,11.24,1.38,12.77s-7.31-1.71-10.62-7.23-3.93-11.25-1.37-12.78S203.07,54,206.38,59.55Z"/></g><g class="cls-100"><path class="cls-101" d="M107.85,63.79c3.32,5.53,3.94,11.26,1.38,12.8s-7.32-1.71-10.63-7.25-3.94-11.27-1.38-12.8S104.54,58.25,107.85,63.79Z"/></g><g class="cls-102"><path class="cls-103" d="M171.4,47.76c11.22.06,20.3,4.31,20.27,9.49s-9.14,9.34-20.36,9.28S151,62.23,151,57,160.18,47.71,171.4,47.76Z"/></g><g class="cls-104"><path class="cls-105" d="M178.39,57.15a7,7,0,1,1-7-7.08A7.06,7.06,0,0,1,178.39,57.15Z"/></g><g class="cls-106"><ellipse class="cls-107" cx="171.45" cy="57.15" rx="0.96" ry="1"/></g><g class="cls-108"><path class="cls-109" d="M164,162.94a7,7,0,1,1-7-7.08A7.07,7.07,0,0,1,164,162.94Z"/></g><g class="cls-106"><path class="cls-110" d="M158,162.94a1,1,0,1,1-1-1A1,1,0,0,1,158,162.94Z"/></g><g class="cls-111"><path class="cls-112" d="M165.77,60.44c10.38,4.48,16.84,12.63,14.43,18.22s-12.77,6.48-23.15,2S140.2,68,142.61,62.44,155.39,56,165.77,60.44Z"/></g><g class="cls-113"><path class="cls-114" d="M141.43,185.31c4.9,2.11,8,6,6.82,8.6s-6,3.06-10.94.94-7.95-6-6.82-8.6S136.53,183.19,141.43,185.31Z"/></g><g class="cls-115"><path class="cls-116" d="M160.27,159.84c1.89,3.16,1.84,6.67-.12,7.85s-5.08-.44-7-3.6-1.84-6.67.11-7.84S158.37,156.68,160.27,159.84Z"/></g><path class="cls-117" d="M198.83,56.23A10.16,10.16,0,0,0,195.35,55a13,13,0,0,0-2.47-.14c-.4,0-.79,0-1.18.1a18.83,18.83,0,0,0-8.8,3.75,24.14,24.14,0,0,0-2.58,2.76c0-.16,0-.33,0-.48-.06-.89-.12-1.59-.17-2.13v-.09h.06a1.06,1.06,0,0,0,1-.61v0a2.42,2.42,0,0,0-2.3-3.27H124.92a2.42,2.42,0,0,0-2.3,3.27l0,0a1,1,0,0,0,1,.61h.58a.34.34,0,0,0,0,.1c-.06.63-.13,1.51-.19,2.6a24.14,24.14,0,0,0-2.58-2.76,19.13,19.13,0,0,0-5.55-3,15.35,15.35,0,0,0-4.43-.86,13.09,13.09,0,0,0-2.48.14,10.29,10.29,0,0,0-1.14.26l-.58.19a11,11,0,0,0-1.75.82l-.57.36a11.77,11.77,0,0,0-1.64,1.31c-.17.17-.34.34-.5.52a12.55,12.55,0,0,0-3.16,9.35,23,23,0,0,0,2.8,9.43c.23.45.47.9.73,1.35.54.94,1.11,1.85,1.72,2.73a37.67,37.67,0,0,0,3,3.77,39.31,39.31,0,0,0,3.44,3.39A87.68,87.68,0,0,0,132.51,102a58.21,58.21,0,0,0,13,16.21h-.07l-.45.86h0l-1.06,2,.18.1.23.13,0,0,.31.19h0l.34.2.08,0c.12.08.25.15.37.24l.1.06a4.68,4.68,0,0,1,.4.27h0l.4.29.08.06.38.3.07.06c.13.1.25.21.36.31a2.17,2.17,0,0,1,.29.4.41.41,0,0,1,0,.09,4.67,4.67,0,0,1,.23.5l.09.2.12.33c.05.15.11.31.17.47h-.11a4.06,4.06,0,0,0-1.49,2.62,3.11,3.11,0,0,0,0,.43h0a3,3,0,0,0,0,.52,4.34,4.34,0,0,0,3,3.42c-.08.6-.16,1.24-.26,1.92h0c-1,6.79-3.24,17.74-7.86,24.49h-1.52a6,6,0,0,0-5.43,6.38h0c-3.62,0-6.55,3.39-6.55,7.58v15h-.82a2,2,0,0,0-1.83,1.23l-1.2,3h-1.21a1.66,1.66,0,0,0-1.55,1.29l-.69,3.35h62.68l-.69-3.35a1.66,1.66,0,0,0-1.55-1.29h-.81l-1.2-3a2,2,0,0,0-1.83-1.23h-.83v-15c0-4.19-2.93-7.58-6.54-7.58h-.05a6,6,0,0,0-5.43-6.38h-1.52c-4.58-6.68-6.82-17.47-7.83-24.28h0c-.1-.7-.19-1.36-.27-2a1.34,1.34,0,0,0,.26-.09,1.17,1.17,0,0,0,.4-.45l.28-.17h0l.38-.27,0,0,.31-.27.06-.06a3.45,3.45,0,0,0,.26-.28l.08-.09.2-.26.08-.13c.05-.09.11-.17.15-.25l.09-.17a2.56,2.56,0,0,1,.11-.24c0-.06,0-.13.07-.2s0-.14.07-.22a2,2,0,0,0,0-.24c0-.06,0-.13,0-.2a2.64,2.64,0,0,0,0-.29.78.78,0,0,0,0-.16,3.55,3.55,0,0,0,0-.46h0a4,4,0,0,0-1.5-2.61h-.07a6,6,0,0,1,.95-2l.36-.32.07,0,.38-.3.08-.06c.13-.1.26-.2.4-.29h0l.41-.27.09-.06.38-.24.08,0,.34-.2h0l.31-.19,0,0,.23-.13.18-.1,0-.09h0l-1.45-2.81h-.1A58.21,58.21,0,0,0,171.79,102,87.68,87.68,0,0,0,193,88.44c.81-.71,1.59-1.45,2.34-2.21a40.51,40.51,0,0,0,3.16-3.65c.32-.43.64-.86.94-1.3a32.12,32.12,0,0,0,1.72-2.73c.26-.45.51-.9.74-1.35a25,25,0,0,0,2.58-7.43C205.61,62.89,202.45,58.34,198.83,56.23Zm-70,39.22c-.56-.28-1.18-.6-1.84-1l-.05,0c-.66-.37-1.36-.77-2.08-1.22l-.06,0c-.72-.44-1.47-.93-2.24-1.46l-.08-.06c-.76-.52-1.53-1.09-2.3-1.7l-.11-.08c-.38-.3-.76-.61-1.13-.93h0a35.13,35.13,0,0,1-6-6.54c-3.47-4.94-5.47-9.86-5.88-13.76a9.54,9.54,0,0,1,.57-5,5.38,5.38,0,0,1,.52-.91,4.63,4.63,0,0,1,2.51-1.76c4.88-1.47,9.79,6.25,13.25,7.29a79.58,79.58,0,0,0,5.67,27.46l-.66-.32Zm-5.22-28.72.22,0v.1Zm56.76,0,.23,0-.23.09Zm-2.92,21c.45-1.63.84-3.24,1.17-4.81s.6-3.11.82-4.6.4-2.94.53-4.32c.2-2,.31-3.91.37-5.64,3.4-1,8.21-8.51,13-7.35a1.8,1.8,0,0,1,.22.06c5.71,1.71,4.66,11.5-2.28,21.38-4.94,7-12.62,11.43-16.64,13.37A70.53,70.53,0,0,0,177.5,87.71Z"/></g><rect class="cls-118" x="0.46" y="0.46" width="297.67" height="391.15"/></g></g></g></svg>