<svg xmlns="http://www.w3.org/2000/svg" xmlns:xlink="http://www.w3.org/1999/xlink" viewBox="0 0 301.54 359.26"><defs><style>.cls-1{fill:none;}.cls-2{clip-path:url(#clip-path);}.cls-3{clip-path:url(#clip-path-2);}.cls-4{fill:#009e92;}.cls-5,.cls-6{fill:#fff;}.cls-6{font-size:38.62px;font-family:Poppins-Bold, Poppins;font-weight:700;}</style><clipPath id="clip-path"><rect class="cls-1" width="301.54" height="359.26"/></clipPath><clipPath id="clip-path-2"><path class="cls-1" d="M29.07,0H272.48a29.05,29.05,0,0,1,29.06,29.07V329.63a29.05,29.05,0,0,1-29.06,29.06H29.07A29.05,29.05,0,0,1,0,329.63V29.07A29.05,29.05,0,0,1,29.07,0Z"/></clipPath></defs><g id="Layer_2" data-name="Layer 2"><g id="Layer_1-2" data-name="Layer 1"><g class="cls-2"><g class="cls-3"><rect class="cls-4" width="301.54" height="359.26"/></g></g><path class="cls-5" d="M199.7,313.83h-53a5.13,5.13,0,0,1-5.06-4.25c-1.87-10.7-4.19-18.41-6.05-20.14-3.14-2.93-10.52-2.15-16.45-1.52-2,.21-3.88.41-5.57.47-14.55.74-15.39-8.62-16.23-17.69a55.85,55.85,0,0,0-1.64-10.44c-1.34-4.56-3.82-6.2-6.21-7.77s-5.18-3.42-4.94-8c.12-2.22,1.87-4.15,4.08-6.6,3.42-3.78,8.09-9,8.11-17.14,0-2.12-.21-5-.42-7.7-.18-2.21-.34-4.3-.4-6.1,0-1.36,0-2.75.06-4.12a1.88,1.88,0,0,1,3.75.21c-.07,1.26-.08,2.54,0,3.8,0,1.71.21,3.75.38,5.92.22,2.82.44,5.73.43,8,0,9.62-5.47,15.66-9.08,19.65-1.51,1.67-3.07,3.4-3.11,4.28-.13,2.34.84,3.08,3.25,4.66s6,4,7.74,9.86a58.1,58.1,0,0,1,1.79,11.16c.85,9.26,1.36,14.84,12.31,14.28,1.59-.07,3.41-.25,5.35-.46,7-.74,15-1.58,19.4,2.5,3.26,3,5.71,13.77,7.19,22.26a1.37,1.37,0,0,0,1.36,1.12h53a1.39,1.39,0,0,0,1.11-.55,1.32,1.32,0,0,0,.21-1.19c-1.78-6.14-4.86-17.89-5.47-27.55-.39-6,1.35-14.76,5.41-20,15.14-19.65,20.19-35.13,17.43-53.44-.22-1.38-.45-2.69-.72-4a1.88,1.88,0,1,1,3.68-.76c.29,1.37.53,2.74.75,4.19,2.9,19.18-2.53,36-18.16,56.3-3.45,4.48-5,12.35-4.64,17.49.59,9.31,3.59,20.75,5.34,26.74a5.13,5.13,0,0,1-4.94,6.56"/><path class="cls-5" d="M109.05,263.31H98a1.88,1.88,0,0,1,0-3.76h11.06a1.88,1.88,0,1,1,0,3.76"/><path class="cls-5" d="M110.91,223.62a3.24,3.24,0,1,1-3.24-3.23,3.24,3.24,0,0,1,3.24,3.23"/><path class="cls-5" d="M162,205.93a21.78,21.78,0,0,1-15.8-6.34c-8.19-8.66-8.17-21.86,0-30.07a17.43,17.43,0,0,1,24.61,0,14.32,14.32,0,0,1,0,20.22,11.82,11.82,0,0,1-16.71,0,9.83,9.83,0,0,1,0-13.89,8.25,8.25,0,0,1,11.66,0,7,7,0,0,1,0,9.85,1.88,1.88,0,1,1-2.67-2.66,3.2,3.2,0,0,0,0-4.53,4.47,4.47,0,0,0-6.33,0,6.07,6.07,0,0,0,0,8.57,8.06,8.06,0,0,0,11.39,0,10.53,10.53,0,0,0,0-14.89,13.65,13.65,0,0,0-19.29,0c-6.76,6.75-6.74,17.65,0,24.81,5.44,5.75,15.5,6.89,22.89,2.6a1.88,1.88,0,0,1,1.88,3.26,23.36,23.36,0,0,1-11.7,3.07"/><path class="cls-5" d="M177.8,198.48a1.91,1.91,0,0,1-1.29-.52,1.88,1.88,0,0,1-.08-2.65,13.14,13.14,0,0,0,2-2.68,1.88,1.88,0,1,1,3.27,1.86,16.76,16.76,0,0,1-2.52,3.39,1.86,1.86,0,0,1-1.37.6"/><path class="cls-5" d="M205.94,200.47a12.88,12.88,0,0,1-7.84-2.65A10.81,10.81,0,0,1,196,182.68a9,9,0,0,1,12.64-1.75,7.59,7.59,0,0,1,1.48,10.63,6.44,6.44,0,0,1-9,1.26,1.88,1.88,0,0,1,2.27-3,2.68,2.68,0,0,0,3.77-.53,3.82,3.82,0,0,0-.75-5.36,5.25,5.25,0,0,0-7.37,1,7,7,0,0,0,1.38,9.88,9.3,9.3,0,0,0,13-1.81,12.21,12.21,0,0,0-2.4-16.94,12.61,12.61,0,0,0-11.07-2,11.72,11.72,0,0,0-8.07,6.58,1.88,1.88,0,0,1-3.49-1.4,15.25,15.25,0,0,1,10.6-8.81,16.35,16.35,0,0,1,14.38,2.64,15.94,15.94,0,0,1,3.05,22.14,13,13,0,0,1-8.61,5.06,12.48,12.48,0,0,1-1.82.13"/><path class="cls-5" d="M189.56,167.92a8.85,8.85,0,0,1-8.65-7.07,7.46,7.46,0,0,1,5.8-8.81A6.35,6.35,0,0,1,194.2,157a5.46,5.46,0,0,1-4.24,6.44,1.88,1.88,0,0,1-.76-3.68,1.65,1.65,0,0,0,1.07-.73,1.63,1.63,0,0,0,.24-1.27,2.59,2.59,0,0,0-3-2,3.7,3.7,0,0,0-2.87,4.37,5.09,5.09,0,0,0,2.19,3.23,5,5,0,0,0,3.82.73,6.84,6.84,0,0,0,5.32-8.07,9.11,9.11,0,0,0-10.69-7,9.41,9.41,0,0,0-6.55,5.27,8.7,8.7,0,0,0-.3,7.76A1.88,1.88,0,0,1,175,163.7a12.27,12.27,0,0,1,.29-11.13,13.18,13.18,0,0,1,9.26-7.3,12.88,12.88,0,0,1,15,9.95,10.62,10.62,0,0,1-8.25,12.52,9.16,9.16,0,0,1-1.8.18"/><path class="cls-5" d="M184.61,189.82a1.87,1.87,0,0,1-1.51-3c1.32-1.81,1.76-2.33,1.83-2.41a1.88,1.88,0,0,1,2.83,2.48s-.4.47-1.63,2.15a1.89,1.89,0,0,1-1.52.77"/><path class="cls-5" d="M140.3,199.29a1.85,1.85,0,0,1-1-.28,17,17,0,0,1-3.33-2.6,1.88,1.88,0,0,1,2.66-2.67,12.86,12.86,0,0,0,2.64,2.06,1.89,1.89,0,0,1-1,3.49"/><path class="cls-5" d="M110.52,202a12.48,12.48,0,0,1-1.82-.13,12.94,12.94,0,0,1-8.61-5.05,16,16,0,0,1,3-22.15A16.41,16.41,0,0,1,117.52,172a15.27,15.27,0,0,1,10.6,8.81,1.88,1.88,0,1,1-3.49,1.4,11.71,11.71,0,0,0-8.07-6.57,12.61,12.61,0,0,0-11.07,1.94,12.22,12.22,0,0,0-2.4,16.95,9.3,9.3,0,0,0,13,1.8,7,7,0,0,0,1.37-9.87,5.26,5.26,0,0,0-7.37-1,3.83,3.83,0,0,0-.75,5.37,2.64,2.64,0,0,0,1.78,1,2.68,2.68,0,0,0,2-.52,1.88,1.88,0,0,1,2.27,3,6.46,6.46,0,0,1-9-1.26,7.6,7.6,0,0,1,1.48-10.64,9,9,0,0,1,12.64,1.76,10.81,10.81,0,0,1-2.11,15.14,12.93,12.93,0,0,1-7.84,2.64"/><path class="cls-5" d="M132.49,192a1.85,1.85,0,0,1-1.28-.5,12.73,12.73,0,0,1-2.44-3.07,1.88,1.88,0,1,1,3.31-1.77,9.79,9.79,0,0,0,1.7,2.09,1.88,1.88,0,0,1-1.29,3.25"/><path class="cls-5" d="M178.53,174.62h-.23a1.89,1.89,0,0,1-1.64-2.1,13.5,13.5,0,0,0-.29-3.06,1.88,1.88,0,1,1,3.69-.68,14.64,14.64,0,0,1,.33,4.2,1.86,1.86,0,0,1-1.86,1.65"/><path class="cls-5" d="M126.9,169.43a9.17,9.17,0,0,1-1.8-.19,10.61,10.61,0,0,1-8.25-12.52,12.86,12.86,0,0,1,15-9.94,13.18,13.18,0,0,1,9.26,7.3,12.27,12.27,0,0,1,.29,11.13,1.88,1.88,0,1,1-3.36-1.7,8.68,8.68,0,0,0-.3-7.75,9.42,9.42,0,0,0-6.54-5.28,9.12,9.12,0,0,0-10.7,7,6.85,6.85,0,0,0,5.32,8.08,5.08,5.08,0,0,0,6-4,3.7,3.7,0,0,0-2.87-4.36,2.58,2.58,0,0,0-3,2,1.63,1.63,0,0,0,.24,1.27,1.68,1.68,0,0,0,1.07.72,1.88,1.88,0,0,1-.76,3.69,5.47,5.47,0,0,1-3.45-2.34,5.41,5.41,0,0,1-.79-4.1,6.36,6.36,0,0,1,7.49-4.94,7.48,7.48,0,0,1,5.81,8.81,8.87,8.87,0,0,1-8.66,7.08"/><path class="cls-5" d="M137,175.15a1.88,1.88,0,0,1-1.89-1.85,16,16,0,0,1,.8-4.35,1.88,1.88,0,1,1,3.6,1.08,12.89,12.89,0,0,0-.63,3.25,1.9,1.9,0,0,1-1.88,1.87"/><path class="cls-5" d="M155,155.49a1.9,1.9,0,0,1-1.7-1.07,13.42,13.42,0,0,0-3.83-4.64,13.91,13.91,0,0,1-5.17-10.6,11.88,11.88,0,0,1,4.16-9.43,12.86,12.86,0,0,1,18,1,10.59,10.59,0,0,1-.82,15,8.87,8.87,0,0,1-12.51-.69,7.46,7.46,0,0,1,.59-10.54,6.32,6.32,0,0,1,8.95.5,5.46,5.46,0,0,1-.43,7.7,1.88,1.88,0,0,1-2.5-2.81,1.63,1.63,0,0,0,.56-1.16,1.71,1.71,0,0,0-.43-1.22,2.59,2.59,0,0,0-1.78-.86,2.51,2.51,0,0,0-1.86.66,3.7,3.7,0,0,0-.3,5.22,5.1,5.1,0,0,0,7.2.4,6.85,6.85,0,0,0,.53-9.66,9.12,9.12,0,0,0-12.77-.67,8.21,8.21,0,0,0-2.83,6.51,10.15,10.15,0,0,0,3.76,7.71,17.31,17.31,0,0,1,4.88,5.95,1.89,1.89,0,0,1-.88,2.51,1.86,1.86,0,0,1-.82.19"/><path class="cls-5" d="M158.08,163a1.9,1.9,0,0,1-1.84-1.48,14.85,14.85,0,0,0-.79-2.25,1.88,1.88,0,0,1,3.46-1.49,18.8,18.8,0,0,1,1,2.93,1.88,1.88,0,0,1-1.43,2.25,2,2,0,0,1-.41,0"/><path class="cls-5" d="M137.49,184.52a1.88,1.88,0,0,1-1.68-1,12.2,12.2,0,0,1-1.25-4.73,1.88,1.88,0,0,1,1.87-1.89h0a1.87,1.87,0,0,1,1.88,1.87,8.58,8.58,0,0,0,.85,3.06,1.88,1.88,0,0,1-.83,2.52,1.86,1.86,0,0,1-.85.2"/><path class="cls-5" d="M177.14,183.93a1.79,1.79,0,0,1-.77-.17,1.88,1.88,0,0,1-.94-2.49,9.86,9.86,0,0,0,.73-2.94,1.86,1.86,0,0,1,2-1.76,1.88,1.88,0,0,1,1.76,2,13.35,13.35,0,0,1-1,4.25,1.9,1.9,0,0,1-1.72,1.11"/><rect class="cls-1" x="83.7" y="125.15" width="142.69" height="187.61"/><text class="cls-6" transform="translate(64.51 53.71)">S</text><text class="cls-6" transform="translate(94.39 53.71)">O</text><text class="cls-6" transform="translate(130.89 53.71)">C</text><text class="cls-6" transform="translate(166.46 53.71)">I</text><text class="cls-6" transform="translate(183.99 53.71)">A</text><text class="cls-6" transform="translate(218.59 53.71)">L</text><text class="cls-6" transform="translate(22.84 93.21)">T</text><text class="cls-6" transform="translate(51.8 93.21)">H</text><text class="cls-6" transform="translate(86.18 93.21)">O</text><text class="cls-6" transform="translate(122.67 93.21)">U</text><text class="cls-6" transform="translate(156.04 93.21)">G</text><text class="cls-6" transform="translate(191.6 93.21)">H</text><text class="cls-6" transform="translate(225.97 93.21)">T</text><text class="cls-6" transform="translate(254.94 93.21)">S</text></g></g></svg>