<svg xmlns="http://www.w3.org/2000/svg" viewBox="0 0 42.57 43.43"><defs><style>.cls-1{fill:#fff;}</style></defs><g id="Layer_2" data-name="Layer 2"><g id="Layer_1-2" data-name="Layer 1"><path class="cls-1" d="M22,4l7.44,7.38H22ZM35,37h.19v-.57a3.5,3.5,0,0,1,1-2.43,3.24,3.24,0,0,1,4.74,0,3.5,3.5,0,0,1,1,2.43V37H42a.55.55,0,0,1,.54.55v5.39a.54.54,0,0,1-.54.54H35a.54.54,0,0,1-.54-.54V37.5A.55.55,0,0,1,35,37Zm3.1,3.49-.57,1.48h2L39,40.42a1,1,0,0,0,.57-.92,1,1,0,1,0-1.47.94ZM36.19,37h4.62v-.57a2.45,2.45,0,0,0-.69-1.72,2.2,2.2,0,0,0-3.24,0,2.45,2.45,0,0,0-.69,1.72V37ZM30.84,21.1c3.7,2.35,7,3.46,9.91,3.19a28,28,0,0,1-.57,7.63,4.49,4.49,0,0,0-1.36-.31,23.77,23.77,0,0,0,.41-6.14c-2.42.23-5.25-.71-8.38-2.7a12,12,0,0,1-8.35,2.58c-.13,4.81.72,8.43,2.35,11.06,1.21-1,3.26-.85,4.24-2.19.07-.11.1-.16.1-.21S28.13,32.69,28,32.54c-.25-.39-.72-.93-.72-1.39a.74.74,0,0,1,.51-.68c0-.4,0-.79,0-1.19,0-.23,0-.47,0-.7a1.47,1.47,0,0,1,.08-.35A2.51,2.51,0,0,1,29,26.82a3.32,3.32,0,0,1,.6-.29c.39-.14.2-.74.62-.75a5.48,5.48,0,0,1,3.21,1.51,2.25,2.25,0,0,1,.64,1.53l0,1.71a.55.55,0,0,1,.41.35c.14.54-.42,1.22-.68,1.65S32.59,34,32.59,34s0,.1.08.2a3,3,0,0,0,1.34,1,6,6,0,0,0-.13.85,1.37,1.37,0,0,0-.23.19h0a1.75,1.75,0,0,0-.52,1.24v4.37a16.49,16.49,0,0,1-2.25,1c-6.4-2.33-10.18-8.06-9.9-18.75a14.09,14.09,0,0,0,9.86-3Zm-24-1.28a.87.87,0,0,1,.6-.28H22a.84.84,0,0,1,.62.28,1,1,0,0,1,0,1.31h0l-.17.14c-.28.06-.56.1-.85.14H7.43a.83.83,0,0,1-.61-.28,1,1,0,0,1-.24-.66,1,1,0,0,1,.24-.66Zm0,5.85a.83.83,0,0,1,.61-.29H17.61c0,.65.07,1.27.13,1.88H7.43A.83.83,0,0,1,6.82,27a1,1,0,0,1,0-1.31Zm0,5.84a.81.81,0,0,1,.61-.28H18.31c.14.64.29,1.27.45,1.87H7.43a.8.8,0,0,1-.61-.28,1,1,0,0,1-.24-.66A1,1,0,0,1,6.82,31.51ZM6.83,14a.81.81,0,0,1,.6-.28h8.4a.82.82,0,0,1,.61.28,1,1,0,0,1,0,1.31.8.8,0,0,1-.61.28H7.43a.82.82,0,0,1-.61-.27,1,1,0,0,1-.24-.66A1,1,0,0,1,6.83,14Zm0-5.43a.81.81,0,0,1,.61-.28H12a.82.82,0,0,1,.61.27h0a1,1,0,0,1,.24.66,1,1,0,0,1-.25.66.82.82,0,0,1-.61.28H7.43a.8.8,0,0,1-.61-.28,1,1,0,0,1-.24-.66A1,1,0,0,1,6.82,8.55ZM33.2,12a1.22,1.22,0,0,0-.87-1.17L21.68.44A1.2,1.2,0,0,0,20.75,0H2.16A2.16,2.16,0,0,0,0,2.16V39.21a2.16,2.16,0,0,0,2.16,2.16H23a19.54,19.54,0,0,1-1.65-2.21H2.21V2.2H19.74v10A1.21,1.21,0,0,0,21,13.42H31v4.27c.75.47,1.49.9,2.21,1.29V12Z"/></g></g></svg>