<svg xmlns="http://www.w3.org/2000/svg" xmlns:xlink="http://www.w3.org/1999/xlink" viewBox="0 0 301.54 359.26"><defs><style>.cls-1{fill:none;}.cls-2{clip-path:url(#clip-path);}.cls-3{clip-path:url(#clip-path-2);}.cls-4{fill:#009e92;}.cls-5{clip-path:url(#clip-path-3);}.cls-6,.cls-7{fill:#fff;}.cls-7{font-size:38.62px;font-family:Poppins-Bold, Poppins;font-weight:700;}</style><clipPath id="clip-path"><rect class="cls-1" width="301.54" height="359.26"/></clipPath><clipPath id="clip-path-2"><path class="cls-1" d="M29.07,0H272.48a29.05,29.05,0,0,1,29.06,29.07V329.63a29.05,29.05,0,0,1-29.06,29.06H29.07A29.05,29.05,0,0,1,0,329.63V29.07A29.05,29.05,0,0,1,29.07,0Z"/></clipPath><clipPath id="clip-path-3"><rect class="cls-1" x="66.3" y="147.59" width="179.68" height="129.47"/></clipPath></defs><g id="Layer_2" data-name="Layer 2"><g id="Layer_1-2" data-name="Layer 1"><g class="cls-2"><g class="cls-3"><rect class="cls-4" width="301.54" height="359.26"/></g></g><g class="cls-5"><path class="cls-6" d="M135.47,202.46a.5.5,0,0,1-.57.57H128a2.89,2.89,0,0,0-2.88,2.89v6.92a.51.51,0,0,1-.58.58h-6.93a.51.51,0,0,1-.57-.58v-6.92a2.9,2.9,0,0,0-2.89-2.89H107.2a.51.51,0,0,1-.58-.57v-6.93a.51.51,0,0,1,.58-.58h6.92a2.78,2.78,0,0,0,2-.84,2.75,2.75,0,0,0,.85-2v-6.93a.5.5,0,0,1,.57-.57h6.93a.51.51,0,0,1,.58.57v6.93a2.78,2.78,0,0,0,.84,2,2.81,2.81,0,0,0,2,.84h6.93a.51.51,0,0,1,.57.58Zm-.57-13.28h-4v-4a6.17,6.17,0,0,0-.49-2.43,6.31,6.31,0,0,0-1.37-2.05,6.22,6.22,0,0,0-2.06-1.38,6.55,6.55,0,0,0-2.43-.49h-6.93a6.46,6.46,0,0,0-2.42.49,6.42,6.42,0,0,0-3.44,3.43,6.34,6.34,0,0,0-.48,2.43v4h-4a6.42,6.42,0,0,0-4.49,1.86,6.66,6.66,0,0,0-1.38,2.06,6.34,6.34,0,0,0-.48,2.43v6.93a6.26,6.26,0,0,0,.48,2.42,6.43,6.43,0,0,0,1.38,2.06,6.22,6.22,0,0,0,2.06,1.38,6.34,6.34,0,0,0,2.43.48h4v4a6.34,6.34,0,0,0,6.34,6.35h6.93a6.31,6.31,0,0,0,4.49-1.86,6.24,6.24,0,0,0,1.37-2.06,6.1,6.1,0,0,0,.49-2.43v-4h4a6.34,6.34,0,0,0,2.43-.48,6.42,6.42,0,0,0,3.43-3.44,6.46,6.46,0,0,0,.49-2.42v-6.93a6.55,6.55,0,0,0-.49-2.43,6.37,6.37,0,0,0-5.86-3.92Z"/><path class="cls-6" d="M190.93,219.54a3.87,3.87,0,0,1-1.46-.32,3.79,3.79,0,0,1-1.23-.86,3.64,3.64,0,0,1-.81-1.26,3.88,3.88,0,0,1-.28-1.47,3.82,3.82,0,0,1,.31-1.46,3.5,3.5,0,0,1,.84-1.24A3.88,3.88,0,0,1,191,211.8a3.84,3.84,0,0,1,1.46.33,3.77,3.77,0,0,1,1.23.85,3.86,3.86,0,0,1,.82,1.26,4.08,4.08,0,0,1,.27,1.47,3.91,3.91,0,0,1-.31,1.47,3.7,3.7,0,0,1-.83,1.24,3.86,3.86,0,0,1-2.72,1.12Zm.24-13.51a9.71,9.71,0,0,0-3.69.69,9.45,9.45,0,0,0-3.14,2,9.64,9.64,0,0,0,6.48,16.55C203.49,225.08,204,206.58,191.17,206Z"/><path class="cls-6" d="M174.23,202.77a3.84,3.84,0,0,1-2.63-1.22,3.83,3.83,0,0,1-1-2.71,3.94,3.94,0,0,1,1.17-2.66,3.89,3.89,0,0,1,2.69-1.08,3.82,3.82,0,0,1,3.56,2.44,3.81,3.81,0,0,1,.26,1.49,3.6,3.6,0,0,1-.34,1.48,3.64,3.64,0,0,1-.88,1.24,3.85,3.85,0,0,1-1.3.79A3.63,3.63,0,0,1,174.23,202.77Zm.29-13.44c-12.77.1-13,19-.2,19.21a9.46,9.46,0,0,0,3.64-.73,9.35,9.35,0,0,0,3.09-2.06,9.64,9.64,0,0,0,2.84-6.72,9.69,9.69,0,0,0-.68-3.65,9.58,9.58,0,0,0-2-3.12,9.43,9.43,0,0,0-3.05-2.13A9.58,9.58,0,0,0,174.52,189.33Z"/><path class="cls-6" d="M207.56,202.77a3.78,3.78,0,0,1-2.67-1.18,3.91,3.91,0,0,1-1.07-2.72,3.87,3.87,0,0,1,.32-1.46,3.78,3.78,0,0,1,2.09-2,3.69,3.69,0,0,1,1.47-.27,3.82,3.82,0,0,1,1.45.32,3.86,3.86,0,0,1,1.22.86,3.91,3.91,0,0,1,1.07,2.72,3.87,3.87,0,0,1-.32,1.46,3.78,3.78,0,0,1-2.09,2A3.69,3.69,0,0,1,207.56,202.77Zm.23-13.44c-12.75.32-13,18.91-.14,19.21C220.32,208.34,220.33,189.74,207.79,189.33Z"/><path class="cls-6" d="M188.32,179.55a3.89,3.89,0,0,1,4.2-.78,3.86,3.86,0,0,1,1.72,1.42,3.81,3.81,0,0,1,.66,2.14,4.07,4.07,0,0,1-3.91,3.91,3.82,3.82,0,0,1-2.14-.7,3.92,3.92,0,0,1-1.41-1.76,3.85,3.85,0,0,1-.19-2.25,3.78,3.78,0,0,1,1.07-2ZM190.9,192a9.74,9.74,0,0,0,8.9-5.91,9.8,9.8,0,0,0,.77-3.67,9.65,9.65,0,0,0-.68-3.68,9.51,9.51,0,0,0-2-3.16,9.73,9.73,0,0,0-3.07-2.15,9.57,9.57,0,0,0-3.65-.82,9.7,9.7,0,0,0-9.67,9.58,9.72,9.72,0,0,0,2.7,6.83,9.73,9.73,0,0,0,6.73,3Z"/><path class="cls-6" d="M213.92,256.55c-17.44-5.25-26.55-23.82-44.21-26.09-16-2.52-32.72-1.61-45.3,10.3a88.4,88.4,0,0,1-17.88,13.3c-40.16,20.59-20.46-61.22-12.34-73.93,13.66-26.41,28.89-19.17,53.16-13.6,8.13,2.43,19,.61,28.28-2,14.86-4.05,29.25-7.26,39.64,7.43,13.15,14,31.44,94.39-1.35,84.56Zm21.76-6.31c4.46-16.64,2.24-31.27-2.5-51.42-4.71-20.33-18.05-48.41-44.46-43.06-12.7,1.9-27.81,8.64-39.94,5.18-6.94-1.75-13.93-3.21-20.81-4.7-39.32-8.6-49.95,44.41-51.54,76.28-1,21.34,9.88,39,32.82,26.63A94,94,0,0,0,128.33,245a31.13,31.13,0,0,1,13.32-7.85c15.12-3.8,32.86-3.36,45.24,8.46C198.49,257.31,226.46,275.9,235.68,250.24Z"/></g><text class="cls-7" transform="translate(49.67 58.68)">G</text><text class="cls-7" transform="translate(85.24 58.68)">A</text><text class="cls-7" transform="translate(119.84 58.68)">M</text><text class="cls-7" transform="translate(161.43 58.68)">I</text><text class="cls-7" transform="translate(178.96 58.68)">N</text><text class="cls-7" transform="translate(214.15 58.68)">G</text></g></g></svg>