<?xml version="1.0" encoding="UTF-8" standalone="no"?>
<!-- Created with Inkscape (http://www.inkscape.org/) -->

<svg
   width="60.590672mm"
   height="32.517723mm"
   viewBox="0 0 60.590672 32.517723"
   version="1.1"
   id="svg1"
   xml:space="preserve"
   xmlns:inkscape="http://www.inkscape.org/namespaces/inkscape"
   xmlns:sodipodi="http://sodipodi.sourceforge.net/DTD/sodipodi-0.dtd"
   xmlns="http://www.w3.org/2000/svg"
   xmlns:svg="http://www.w3.org/2000/svg"><sodipodi:namedview
     id="namedview1"
     pagecolor="#ffffff"
     bordercolor="#000000"
     borderopacity="0.25"
     inkscape:showpageshadow="2"
     inkscape:pageopacity="0.0"
     inkscape:pagecheckerboard="0"
     inkscape:deskcolor="#d1d1d1"
     inkscape:document-units="mm" /><defs
     id="defs1" /><g
     inkscape:label="Layer 1"
     inkscape:groupmode="layer"
     id="layer1"
     transform="translate(-111.90484,-60.532122)"><path
       style="fill:#ffffff;fill-opacity:1"
       d="m 125.4901,92.812432 c -1.44919,-0.58482 -1.41738,-0.22366 -1.41738,-16.08874 v -14.64586 l 0.79951,-0.79951 c 0.78947,-0.78947 0.82962,-0.79835 3.19854,-0.70725 3.74434,0.14399 3.41029,-1.4376 3.41029,16.14625 0,9.15103 -0.0989,14.98956 -0.259,15.2887 -0.14245,0.26616 -0.63647,0.61552 -1.09782,0.77635 -0.981,0.34198 -3.81564,0.36037 -4.63414,0.0301 z m 28.58628,-0.10196 c -0.45116,-0.20382 -0.89764,-0.57216 -0.99218,-0.81853 -0.0945,-0.24636 -0.17189,-7.09251 -0.17189,-15.21365 0,-17.43374 -0.29096,-15.94976 3.15796,-16.10639 2.44462,-0.11101 3.50788,0.20652 3.95147,1.18009 0.21055,0.46212 0.2989,4.9493 0.2989,15.18091 v 14.52488 l -0.63586,0.73923 c -0.58235,0.67702 -0.8106,0.74533 -2.71198,0.81165 -1.35662,0.0473 -2.3604,-0.056 -2.89642,-0.29819 z m -37.33109,-3.18465 -0.74235,-0.63855 v -12.08436 -12.08436 l 0.74235,-0.63855 c 0.65595,-0.56422 0.99828,-0.63855 2.94088,-0.63855 1.82356,0 2.31742,0.0935 2.89566,0.54837 l 0.69714,0.54837 v 12.26472 12.26472 l -0.69714,0.54837 c -0.57824,0.45484 -1.0721,0.54837 -2.89566,0.54837 -1.9426,0 -2.28493,-0.0743 -2.94088,-0.63855 z m 45.06624,0.0902 -0.69714,-0.54837 v -12.26472 -12.26472 l 0.69714,-0.54837 c 0.57026,-0.44856 1.07362,-0.54837 2.76568,-0.54837 2.33885,0 3.22683,0.29964 3.65175,1.23225 0.20088,0.44088 0.29376,4.27599 0.29376,12.12921 0,7.85322 -0.0929,11.68833 -0.29376,12.12921 -0.42492,0.93261 -1.3129,1.23225 -3.65175,1.23225 -1.69206,0 -2.19542,-0.0998 -2.76568,-0.54837 z m -49.2602,-11.21358 c -1.36354,-1.36354 -0.42392,-3.84849 1.4552,-3.84849 h 0.80578 v 2.24896 2.24896 h -0.80578 c -0.50273,0 -1.05001,-0.24424 -1.4552,-0.64943 z m 20.25264,-1.59953 v -2.24896 h 9.39271 9.39271 v 2.24896 2.24896 h -9.39271 -9.39271 z m 36.77709,0 v -2.24896 h 0.90684 c 1.82315,0 2.70277,2.49986 1.35414,3.84849 -0.40519,0.40519 -0.95247,0.64943 -1.45521,0.64943 h -0.80577 z"
       id="path1" /></g></svg>
